<svg width="2283" height="1591" viewBox="0 0 2283 1591" fill="none" xmlns="http://www.w3.org/2000/svg">
<path d="M52.569 124.368C57.879 124.368 58.941 127.023 58.941 134.988V330.927C58.941 339.423 57.879 342.078 52.038 342.078H49.383C43.542 342.078 41.949 339.423 41.949 330.927V216.762H6.372V335.706C6.372 368.628 13.806 377.655 43.542 377.655H60.003C89.208 377.655 97.173 368.628 97.173 335.706V121.182C97.173 99.942 91.863 90.915 74.34 90.915H65.313C52.038 90.915 45.135 96.756 41.949 106.314V38.877H91.863V3.29997H6.372V197.115H41.949V136.581C41.949 128.085 44.073 124.368 49.914 124.368H52.569ZM107.453 375H148.34V196.584C149.402 211.983 150.995 226.32 152.588 236.409L173.828 375H216.308L181.793 178.53L215.246 3.29997H177.545L154.181 133.395C151.526 147.201 150.995 154.635 148.34 172.158V3.29997H107.453V375ZM299.065 375V3.29997H281.011C281.011 11.796 269.86 21.885 260.833 21.885V375H299.065ZM403.44 42.594C403.44 9.67199 394.944 0.644977 365.739 0.644977H347.685C318.48 0.644977 310.515 9.67199 310.515 42.594V335.706C310.515 368.628 318.48 377.655 347.685 377.655H365.739C394.944 377.655 403.44 368.628 403.44 335.706V42.594ZM348.216 47.373C348.216 38.877 349.278 36.222 355.65 36.222H358.305C364.146 36.222 365.208 38.877 365.208 47.373V330.927C365.208 339.423 364.146 342.078 358.305 342.078H355.65C349.278 342.078 348.216 339.423 348.216 330.927V47.373ZM414.707 375H455.594V196.584C456.656 211.983 458.249 226.32 459.842 236.409L481.082 375H523.562L489.047 178.53L522.5 3.29997H484.799L461.435 133.395C458.78 147.201 458.249 154.635 455.594 172.158V3.29997H414.707V375ZM620.656 111.093C620.656 151.449 614.284 166.848 596.23 200.832C570.211 249.153 564.37 265.614 564.37 320.838V375H658.357V339.423H602.071V316.059C602.071 275.703 608.443 260.304 626.497 225.789C651.454 177.999 658.888 161.538 658.888 105.783V42.594C658.888 9.67199 650.923 0.644977 621.187 0.644977H605.257C575.521 0.644977 568.087 9.67199 568.087 42.594V145.077H603.664V47.373C603.664 38.877 604.726 36.222 611.098 36.222H613.753C619.594 36.222 620.656 38.877 620.656 47.373V111.093ZM759.956 42.594C759.956 9.67199 751.46 0.644977 722.255 0.644977H704.201C674.996 0.644977 667.031 9.67199 667.031 42.594V335.706C667.031 368.628 674.996 377.655 704.201 377.655H722.255C751.46 377.655 759.956 368.628 759.956 335.706V42.594ZM704.732 47.373C704.732 38.877 705.794 36.222 712.166 36.222H714.821C720.662 36.222 721.724 38.877 721.724 47.373V330.927C721.724 339.423 720.662 342.078 714.821 342.078H712.166C705.794 342.078 704.732 339.423 704.732 330.927V47.373ZM771.224 375H812.111V196.584C813.173 211.983 814.766 226.32 816.359 236.409L837.599 375H880.079L845.564 178.53L879.017 3.29997H841.316L817.952 133.395C815.297 147.201 814.766 154.635 812.111 172.158V3.29997H771.224V375ZM7.434 768H66.375C98.766 768 107.262 757.911 107.262 722.865V441.435C107.262 406.389 98.766 396.3 66.375 396.3H7.434V768ZM48.321 729.768V434.532H58.41C65.313 434.532 66.375 437.718 66.375 446.214V718.086C66.375 726.582 65.313 729.768 58.41 729.768H48.321ZM159.748 768V593.832H177.802V768H218.689V396.3H177.802V555.6H159.748V396.3H118.861V768H159.748ZM290.81 768H331.697L306.209 396.3H250.454L224.966 768H261.605L264.26 717.555H287.624L290.81 768ZM267.446 668.703C271.163 592.239 273.818 534.891 275.942 462.144C278.066 534.891 281.252 592.239 284.969 668.703L285.5 679.323H266.915L267.446 668.703ZM438.432 624.099C438.432 597.018 433.122 584.805 416.661 580.557C433.122 576.309 438.432 564.096 438.432 537.546V441.435C438.432 406.389 429.936 396.3 397.545 396.3H338.604V768H379.491V599.673H387.987C395.421 599.673 397.545 603.39 397.545 612.417V736.671C397.545 748.884 398.076 761.628 401.262 768H443.211C438.963 757.911 438.432 745.698 438.432 732.423V624.099ZM397.545 549.759C397.545 558.255 396.483 561.441 389.58 561.441H379.491V434.532H389.58C396.483 434.532 397.545 437.718 397.545 446.214V549.759ZM547.204 593.301C549.328 567.282 551.452 532.236 553.576 499.845C553.045 532.767 552.514 565.158 552.514 593.301V768H592.339V396.3H535.522L523.84 543.387C522.247 564.096 521.716 586.398 520.654 607.638C520.123 586.398 519.592 564.096 517.999 543.387L506.848 396.3H450.031V768H485.608V593.301C485.608 564.627 485.077 532.236 484.546 499.314C486.67 532.236 488.794 567.282 490.918 593.301L504.724 768H533.929L547.204 593.301ZM664.501 768H705.388L679.9 396.3H624.145L598.657 768H635.296L637.951 717.555H661.315L664.501 768ZM641.137 668.703C644.854 592.239 647.509 534.891 649.633 462.144C651.757 534.891 654.943 592.239 658.66 668.703L659.191 679.323H640.606L641.137 668.703ZM799.976 601.797H809.534V720.741C809.534 729.237 808.472 732.423 801.569 732.423H798.914C792.542 732.423 791.48 729.237 791.48 720.741V443.559C791.48 435.063 792.542 431.877 798.914 431.877H801.569C808.472 431.877 809.534 435.063 809.534 443.559V542.325H847.235V438.78C847.235 403.734 839.27 393.645 807.41 393.645H790.949C759.089 393.645 750.593 403.734 750.593 438.78V725.52C750.593 760.566 759.089 770.655 790.949 770.655H807.41C839.27 770.655 847.235 760.566 847.235 725.52V563.565H799.976V601.797ZM858.391 725.52C858.391 760.566 866.887 770.655 898.747 770.655H917.332C949.723 770.655 957.688 760.566 957.688 725.52V438.78C957.688 403.734 949.723 393.645 917.332 393.645H898.747C866.887 393.645 858.391 403.734 858.391 438.78V725.52ZM917.332 720.741C917.332 729.237 916.27 732.423 909.367 732.423H906.712C900.34 732.423 899.278 729.237 899.278 720.741V443.559C899.278 435.063 900.34 431.877 906.712 431.877H909.367C916.27 431.877 917.332 435.063 917.332 443.559V720.741ZM1024.54 768V434.001H1046.31V396.3H962.408V434.001H984.179V768H1024.54ZM1092.59 768V593.832H1110.64V768H1151.53V396.3H1110.64V555.6H1092.59V396.3H1051.7V768H1092.59ZM1163.65 768H1204.53V396.3H1163.65V768ZM1257.35 443.559C1257.35 435.063 1258.41 431.877 1264.78 431.877H1267.44C1274.34 431.877 1275.4 435.063 1275.4 443.559V542.325H1313.1V438.78C1313.1 403.734 1305.14 393.645 1273.28 393.645H1256.82C1224.96 393.645 1216.46 403.734 1216.46 438.78V725.52C1216.46 760.566 1224.96 770.655 1256.82 770.655H1273.28C1305.14 770.655 1313.1 760.566 1313.1 725.52V606.045H1275.4V720.741C1275.4 729.237 1274.34 732.423 1267.44 732.423H1264.78C1258.41 732.423 1257.35 729.237 1257.35 720.741V443.559ZM1627 599.673H1361.5V633.657H1627V599.673ZM52.569 910.368C57.879 910.368 58.941 913.023 58.941 920.988V1116.93C58.941 1125.42 57.879 1128.08 52.038 1128.08H49.383C43.542 1128.08 41.949 1125.42 41.949 1116.93V1002.76H6.372V1121.71C6.372 1154.63 13.806 1163.66 43.542 1163.66H60.003C89.208 1163.66 97.173 1154.63 97.173 1121.71V907.182C97.173 885.942 91.863 876.915 74.34 876.915H65.313C52.038 876.915 45.135 882.756 41.949 892.314V824.877H91.863V789.3H6.372V983.115H41.949V922.581C41.949 914.085 44.073 910.368 49.914 910.368H52.569ZM160.553 897.093C160.553 937.449 154.181 952.848 136.127 986.832C110.108 1035.15 104.267 1051.61 104.267 1106.84V1161H198.254V1125.42H141.968V1102.06C141.968 1061.7 148.34 1046.3 166.394 1011.79C191.351 963.999 198.785 947.538 198.785 891.783V828.594C198.785 795.672 190.82 786.645 161.084 786.645H145.154C115.418 786.645 107.984 795.672 107.984 828.594V931.077H143.561V833.373C143.561 824.877 144.623 822.222 150.995 822.222H153.65C159.491 822.222 160.553 824.877 160.553 833.373V897.093ZM299.853 947.007C299.853 925.767 294.543 916.74 277.02 916.74H267.993C254.718 916.74 247.815 922.581 244.629 932.139V833.373C244.629 824.877 245.691 822.222 252.063 822.222H254.718C260.559 822.222 261.621 824.877 261.621 833.373V901.872H297.729V828.594C297.729 795.672 290.295 786.645 260.559 786.645H244.098C214.893 786.645 206.928 795.672 206.928 828.594V1121.71C206.928 1154.63 214.362 1163.66 244.098 1163.66H262.152C291.888 1163.66 299.853 1154.63 299.853 1121.71V947.007ZM261.621 1116.93C261.621 1125.42 260.559 1128.08 254.718 1128.08H252.063C245.691 1128.08 244.629 1125.42 244.629 1116.93V962.406C244.629 953.91 246.753 950.193 252.594 950.193H255.249C260.559 950.193 261.621 952.848 261.621 960.813V1116.93ZM310.602 1161H351.489V1018.16H369.012C401.403 1018.16 409.368 1008.07 409.368 973.026V834.435C409.368 799.389 401.403 789.3 369.012 789.3H310.602V1161ZM351.489 979.929V827.532H361.047C367.95 827.532 369.012 830.718 369.012 839.214V968.247C369.012 976.743 367.95 979.929 361.047 979.929H351.489ZM474.66 1161V827.001H496.431V789.3H412.533V827.001H434.304V1161H474.66ZM488.835 1161H529.191V1111.09H488.835V1161ZM104.607 1379.3C106.731 1353.28 108.855 1318.24 110.979 1285.85C110.448 1318.77 109.917 1351.16 109.917 1379.3V1554H149.742V1182.3H92.925L81.243 1329.39C79.65 1350.1 79.119 1372.4 78.057 1393.64C77.526 1372.4 76.995 1350.1 75.402 1329.39L64.251 1182.3H7.434V1554H43.011V1379.3C43.011 1350.63 42.48 1318.24 41.949 1285.31C44.073 1318.24 46.197 1353.28 48.321 1379.3L62.127 1554H91.332L104.607 1379.3ZM221.904 1554H262.791L237.303 1182.3H181.548L156.06 1554H192.699L195.354 1503.55H218.718L221.904 1554ZM198.54 1454.7C202.257 1378.24 204.912 1320.89 207.036 1248.14C209.16 1320.89 212.346 1378.24 216.063 1454.7L216.594 1465.32H198.009L198.54 1454.7ZM269.698 1554H310.585V1375.58C311.647 1390.98 313.24 1405.32 314.833 1415.41L336.073 1554H378.553L344.038 1357.53L377.491 1182.3H339.79L316.426 1312.39C313.771 1326.2 313.24 1333.63 310.585 1351.16V1182.3H269.698V1554ZM424.605 1220.53H460.182V1182.3H383.718V1554H460.182V1515.77H424.605V1379.83H452.217V1341.6H424.605V1220.53ZM548.415 1220.53H583.992V1182.3H507.528V1554H583.992V1515.77H548.415V1379.83H576.027V1341.6H548.415V1220.53ZM628.086 1182.3H587.199L612.687 1554H667.38L692.337 1182.3H655.698L648.264 1300.71C645.078 1350.1 643.485 1404.26 641.892 1462.67C640.299 1404.26 637.644 1350.1 634.989 1300.71L628.086 1182.3ZM740.156 1220.53H775.733V1182.3H699.269V1554H775.733V1515.77H740.156V1379.83H767.768V1341.6H740.156V1220.53ZM884.078 1410.1C884.078 1383.02 878.768 1370.8 862.307 1366.56C878.768 1362.31 884.078 1350.1 884.078 1323.55V1227.43C884.078 1192.39 875.582 1182.3 843.191 1182.3H784.25V1554H825.137V1385.67H833.633C841.067 1385.67 843.191 1389.39 843.191 1398.42V1522.67C843.191 1534.88 843.722 1547.63 846.908 1554H888.857C884.609 1543.91 884.078 1531.7 884.078 1518.42V1410.1ZM843.191 1335.76C843.191 1344.25 842.129 1347.44 835.226 1347.44H825.137V1220.53H835.226C842.129 1220.53 843.191 1223.72 843.191 1232.21V1335.76ZM959.977 1554V1439.83L992.899 1182.3H956.26L949.357 1252.92C946.702 1282.13 944.047 1317.17 941.923 1350.1C940.33 1317.17 937.675 1282.13 935.02 1252.92L928.117 1182.3H887.23L919.621 1435.59V1554H959.977ZM1037.12 1554H1096.06C1128.45 1554 1136.95 1543.91 1136.95 1508.86V1227.43C1136.95 1192.39 1128.45 1182.3 1096.06 1182.3H1037.12V1554ZM1078 1515.77V1220.53H1088.09C1095 1220.53 1096.06 1223.72 1096.06 1232.21V1504.09C1096.06 1512.58 1095 1515.77 1088.09 1515.77H1078ZM1208.55 1554H1249.43L1223.95 1182.3H1168.19L1142.7 1554H1179.34L1182 1503.55H1205.36L1208.55 1554ZM1185.18 1454.7C1188.9 1378.24 1191.56 1320.89 1193.68 1248.14C1195.8 1320.89 1198.99 1378.24 1202.71 1454.7L1203.24 1465.32H1184.65L1185.18 1454.7ZM1307.68 1554V1439.83L1340.6 1182.3H1303.96L1297.06 1252.92C1294.4 1282.13 1291.75 1317.17 1289.62 1350.1C1288.03 1317.17 1285.38 1282.13 1282.72 1252.92L1275.82 1182.3H1234.93L1267.32 1435.59V1554H1307.68Z" fill="#0D0D0D"/>
<path d="M971.637 375V200.832H989.691V375H1030.58V3.29997H989.691V162.6H971.637V3.29997H930.75V375H971.637ZM1102.7 375H1143.59L1118.1 3.29997H1062.34L1036.85 375H1073.49L1076.15 324.555H1099.51L1102.7 375ZM1079.33 275.703C1083.05 199.239 1085.71 141.891 1087.83 69.144C1089.95 141.891 1093.14 199.239 1096.86 275.703L1097.39 286.323H1078.8L1079.33 275.703ZM1150.49 375H1221.65V336.768H1191.38V3.29997H1150.49V375ZM1268.58 41.532H1302.03V3.29997H1227.69V375H1268.58V206.142H1294.6V167.91H1268.58V41.532ZM1376.51 206.673H1316.5V240.657H1376.51V206.673ZM1488.98 200.301C1491.1 174.282 1493.23 139.236 1495.35 106.845C1494.82 139.767 1494.29 172.158 1494.29 200.301V375H1534.12V3.29997H1477.3L1465.62 150.387C1464.02 171.096 1463.49 193.398 1462.43 214.638C1461.9 193.398 1461.37 171.096 1459.78 150.387L1448.62 3.29997H1391.81V375H1427.38V200.301C1427.38 171.627 1426.85 139.236 1426.32 106.314C1428.45 139.236 1430.57 174.282 1432.69 200.301L1446.5 375H1475.71L1488.98 200.301ZM1606.28 375H1647.16L1621.68 3.29997H1565.92L1540.43 375H1577.07L1579.73 324.555H1603.09L1606.28 375ZM1582.91 275.703C1586.63 199.239 1589.29 141.891 1591.41 69.144C1593.53 141.891 1596.72 199.239 1600.44 275.703L1600.97 286.323H1582.38L1582.91 275.703ZM1753.9 231.099C1753.9 204.018 1748.59 191.805 1732.13 187.557C1748.59 183.309 1753.9 171.096 1753.9 144.546V48.435C1753.9 13.389 1745.4 3.29997 1713.01 3.29997H1654.07V375H1694.96V206.673H1703.45C1710.89 206.673 1713.01 210.39 1713.01 219.417V343.671C1713.01 355.884 1713.54 368.628 1716.73 375H1758.68C1754.43 364.911 1753.9 352.698 1753.9 339.423V231.099ZM1713.01 156.759C1713.01 165.255 1711.95 168.441 1705.05 168.441H1694.96V41.532H1705.05C1711.95 41.532 1713.01 44.718 1713.01 53.214V156.759ZM1825.5 375H1866.39L1840.9 3.29997H1785.15L1759.66 375H1796.3L1798.95 324.555H1822.32L1825.5 375ZM1802.14 275.703C1805.85 199.239 1808.51 141.891 1810.63 69.144C1812.76 141.891 1815.94 199.239 1819.66 275.703L1820.19 286.323H1801.61L1802.14 275.703ZM1918.15 375V41.001H1939.92V3.29997H1856.02V41.001H1877.79V375H1918.15ZM1986.2 375V200.832H2004.25V375H2045.14V3.29997H2004.25V162.6H1986.2V3.29997H1945.31V375H1986.2ZM2056.73 332.52C2056.73 367.566 2065.22 377.655 2097.08 377.655H2115.67C2148.06 377.655 2156.02 367.566 2156.02 332.52V45.78C2156.02 10.734 2148.06 0.644977 2115.67 0.644977H2097.08C2065.22 0.644977 2056.73 10.734 2056.73 45.78V332.52ZM2115.67 327.741C2115.67 336.237 2114.61 339.423 2107.7 339.423H2105.05C2098.68 339.423 2097.61 336.237 2097.61 327.741V50.559C2097.61 42.063 2098.68 38.877 2105.05 38.877H2107.7C2114.61 38.877 2115.67 42.063 2115.67 50.559V327.741ZM2229.24 375H2272.79V3.29997H2237.74V121.182C2237.74 148.263 2238.27 176.406 2238.8 205.611C2236.15 177.468 2234.02 149.325 2230.84 121.182L2217.03 3.29997H2167.65V375H2202.16V203.487C2202.16 176.937 2201.63 146.67 2201.1 120.12C2203.76 146.139 2206.94 175.875 2210.13 203.487L2229.24 375ZM1722.96 434.532H1758.54V396.3H1682.07V768H1758.54V729.768H1722.96V593.832H1750.57V555.6H1722.96V434.532ZM1786.17 573.123L1761.21 768H1798.38L1805.29 702.687C1807.41 680.385 1811.13 642.684 1812.19 605.514C1813.78 642.684 1818.03 680.385 1820.15 702.687L1827.06 768H1867.94L1843.52 573.123L1866.88 396.3H1830.24L1824.93 448.869C1822.81 470.109 1818.56 506.748 1816.97 542.325C1815.37 506.748 1811.66 470.109 1809.53 448.869L1803.69 396.3H1762.81L1786.17 573.123ZM1874.85 768H1933.79C1966.18 768 1974.68 757.911 1974.68 722.865V616.134C1974.68 589.584 1969.37 577.371 1952.91 573.123C1969.37 568.875 1974.68 556.662 1974.68 529.581V441.435C1974.68 406.389 1966.18 396.3 1933.79 396.3H1874.85V768ZM1925.83 592.239C1932.73 592.239 1933.79 594.894 1933.79 603.921V718.086C1933.79 726.582 1932.73 729.768 1925.83 729.768H1915.74V592.239H1925.83ZM1933.79 542.325C1933.79 550.821 1932.73 554.007 1925.83 554.007H1915.74V434.532H1925.83C1932.73 434.532 1933.79 437.718 1933.79 446.214V542.325ZM1985.23 725.52C1985.23 760.566 1993.72 770.655 2025.58 770.655H2044.17C2076.56 770.655 2084.53 760.566 2084.53 725.52V438.78C2084.53 403.734 2076.56 393.645 2044.17 393.645H2025.58C1993.72 393.645 1985.23 403.734 1985.23 438.78V725.52ZM2044.17 720.741C2044.17 729.237 2043.11 732.423 2036.2 732.423H2033.55C2027.18 732.423 2026.12 729.237 2026.12 720.741V443.559C2026.12 435.063 2027.18 431.877 2033.55 431.877H2036.2C2043.11 431.877 2044.17 435.063 2044.17 443.559V720.741ZM2096.15 768H2167.3V729.768H2137.04V396.3H2096.15V768ZM2173.35 768H2232.29C2264.68 768 2273.18 757.911 2273.18 722.865V441.435C2273.18 406.389 2264.68 396.3 2232.29 396.3H2173.35V768ZM2214.24 729.768V434.532H2224.33C2231.23 434.532 2232.29 437.718 2232.29 446.214V718.086C2232.29 726.582 2231.23 729.768 2224.33 729.768H2214.24ZM598.978 1161H657.919C690.31 1161 698.806 1150.91 698.806 1115.86V834.435C698.806 799.389 690.31 789.3 657.919 789.3H598.978V1161ZM639.865 1122.77V827.532H649.954C656.857 827.532 657.919 830.718 657.919 839.214V1111.09C657.919 1119.58 656.857 1122.77 649.954 1122.77H639.865ZM751.292 1161V986.832H769.346V1161H810.233V789.3H769.346V948.6H751.292V789.3H710.405V1161H751.292ZM882.354 1161H923.241L897.753 789.3H841.998L816.51 1161H853.149L855.804 1110.55H879.168L882.354 1161ZM858.99 1061.7C862.707 985.239 865.362 927.891 867.486 855.144C869.61 927.891 872.796 985.239 876.513 1061.7L877.044 1072.32H858.459L858.99 1061.7ZM1029.98 1017.1C1029.98 990.018 1024.67 977.805 1008.21 973.557C1024.67 969.309 1029.98 957.096 1029.98 930.546V834.435C1029.98 799.389 1021.48 789.3 989.089 789.3H930.148V1161H971.035V992.673H979.531C986.965 992.673 989.089 996.39 989.089 1005.42V1129.67C989.089 1141.88 989.62 1154.63 992.806 1161H1034.76C1030.51 1150.91 1029.98 1138.7 1029.98 1125.42V1017.1ZM989.089 942.759C989.089 951.255 988.027 954.441 981.124 954.441H971.035V827.532H981.124C988.027 827.532 989.089 830.718 989.089 839.214V942.759ZM1138.75 986.301C1140.87 960.282 1143 925.236 1145.12 892.845C1144.59 925.767 1144.06 958.158 1144.06 986.301V1161H1183.88V789.3H1127.07L1115.38 936.387C1113.79 957.096 1113.26 979.398 1112.2 1000.64C1111.67 979.398 1111.14 957.096 1109.54 936.387L1098.39 789.3H1041.58V1161H1077.15V986.301C1077.15 957.627 1076.62 925.236 1076.09 892.314C1078.21 925.236 1080.34 960.282 1082.46 986.301L1096.27 1161H1125.47L1138.75 986.301ZM1256.05 1161H1296.93L1271.44 789.3H1215.69L1190.2 1161H1226.84L1229.5 1110.55H1252.86L1256.05 1161ZM1232.68 1061.7C1236.4 985.239 1239.05 927.891 1241.18 855.144C1243.3 927.891 1246.49 985.239 1250.2 1061.7L1250.74 1072.32H1232.15L1232.68 1061.7ZM1397.89 1161V827.001H1419.66V789.3H1335.77V827.001H1357.54V1161H1397.89ZM1491.43 1161V1046.83L1524.35 789.3H1487.71L1480.81 859.923C1478.16 889.128 1475.5 924.174 1473.38 957.096C1471.78 924.174 1469.13 889.128 1466.47 859.923L1459.57 789.3H1418.68L1451.08 1042.59V1161H1491.43ZM1529.74 1161H1570.63V1018.16H1588.15C1620.54 1018.16 1628.51 1008.07 1628.51 973.026V834.435C1628.51 799.389 1620.54 789.3 1588.15 789.3H1529.74V1161ZM1570.63 979.929V827.532H1580.19C1587.09 827.532 1588.15 830.718 1588.15 839.214V968.247C1588.15 976.743 1587.09 979.929 1580.19 979.929H1570.63ZM1679.46 827.532H1715.04V789.3H1638.58V1161H1715.04V1122.77H1679.46V986.832H1707.08V948.6H1679.46V827.532ZM1915.32 864.171C1915.32 812.133 1900.45 786.645 1843.63 786.645H1836.2C1779.38 786.645 1764.51 812.133 1764.51 864.171V1086.13C1764.51 1138.17 1779.38 1163.66 1836.2 1163.66H1843.63C1900.45 1163.66 1915.32 1138.17 1915.32 1086.13V864.171ZM1786.81 864.171C1786.81 821.16 1797.96 806.292 1836.73 806.292H1843.63C1881.86 806.292 1893.01 821.16 1893.01 864.171V1086.13C1893.01 1129.14 1881.86 1144.01 1843.63 1144.01H1836.73C1797.96 1144.01 1786.81 1129.14 1786.81 1086.13V864.171ZM1832.48 866.826C1832.48 859.923 1833.54 857.268 1838.85 857.268H1839.91C1845.22 857.268 1846.29 859.923 1846.29 866.826V946.476H1869.12V862.578C1869.12 840.807 1863.81 834.966 1843.63 834.966H1833.54C1813.89 834.966 1808.05 840.807 1808.05 862.578V1088.25C1808.05 1110.02 1813.89 1116.4 1833.54 1116.4H1843.63C1863.81 1116.4 1869.12 1110.02 1869.12 1088.25V993.735H1846.29V1084.54C1846.29 1090.91 1845.22 1093.56 1839.91 1093.56H1838.85C1833.54 1093.56 1832.48 1090.91 1832.48 1084.54V866.826ZM1982.92 897.093C1982.92 937.449 1976.55 952.848 1958.49 986.832C1932.47 1035.15 1926.63 1051.61 1926.63 1106.84V1161H2020.62V1125.42H1964.33V1102.06C1964.33 1061.7 1970.7 1046.3 1988.76 1011.79C2013.72 963.999 2021.15 947.538 2021.15 891.783V828.594C2021.15 795.672 2013.18 786.645 1983.45 786.645H1967.52C1937.78 786.645 1930.35 795.672 1930.35 828.594V931.077H1965.93V833.373C1965.93 824.877 1966.99 822.222 1973.36 822.222H1976.01C1981.86 822.222 1982.92 824.877 1982.92 833.373V897.093ZM2122.22 828.594C2122.22 795.672 2113.72 786.645 2084.52 786.645H2066.46C2037.26 786.645 2029.29 795.672 2029.29 828.594V1121.71C2029.29 1154.63 2037.26 1163.66 2066.46 1163.66H2084.52C2113.72 1163.66 2122.22 1154.63 2122.22 1121.71V828.594ZM2066.99 833.373C2066.99 824.877 2068.06 822.222 2074.43 822.222H2077.08C2082.92 822.222 2083.99 824.877 2083.99 833.373V1116.93C2083.99 1125.42 2082.92 1128.08 2077.08 1128.08H2074.43C2068.06 1128.08 2066.99 1125.42 2066.99 1116.93V833.373ZM2172.25 1161V789.3H2154.19C2154.19 797.796 2143.04 807.885 2134.02 807.885V1161H2172.25ZM2229.9 910.368C2235.21 910.368 2236.27 913.023 2236.27 920.988V1116.93C2236.27 1125.42 2235.21 1128.08 2229.36 1128.08H2226.71C2220.87 1128.08 2219.28 1125.42 2219.28 1116.93V1002.76H2183.7V1121.71C2183.7 1154.63 2191.13 1163.66 2220.87 1163.66H2237.33C2266.53 1163.66 2274.5 1154.63 2274.5 1121.71V907.182C2274.5 885.942 2269.19 876.915 2251.67 876.915H2242.64C2229.36 876.915 2222.46 882.756 2219.28 892.314V824.877H2269.19V789.3H2183.7V983.115H2219.28V922.581C2219.28 914.085 2221.4 910.368 2227.24 910.368H2229.9ZM1441.63 1554H1482.51L1457.02 1182.3H1401.27L1375.78 1554H1412.42L1415.08 1503.55H1438.44L1441.63 1554ZM1418.26 1454.7C1421.98 1378.24 1424.63 1320.89 1426.76 1248.14C1428.88 1320.89 1432.07 1378.24 1435.78 1454.7L1436.32 1465.32H1417.73L1418.26 1454.7ZM1628.08 1410.1C1628.08 1383.02 1622.77 1370.8 1606.31 1366.56C1622.77 1362.31 1628.08 1350.1 1628.08 1323.55V1227.43C1628.08 1192.39 1619.58 1182.3 1587.19 1182.3H1528.25V1554H1569.14V1385.67H1577.63C1585.07 1385.67 1587.19 1389.39 1587.19 1398.42V1522.67C1587.19 1534.88 1587.72 1547.63 1590.91 1554H1632.86C1628.61 1543.91 1628.08 1531.7 1628.08 1518.42V1410.1ZM1587.19 1335.76C1587.19 1344.25 1586.13 1347.44 1579.23 1347.44H1569.14V1220.53H1579.23C1586.13 1220.53 1587.19 1223.72 1587.19 1232.21V1335.76ZM1699.68 1554H1740.57L1715.08 1182.3H1659.32L1633.84 1554H1670.47L1673.13 1503.55H1696.49L1699.68 1554ZM1676.32 1454.7C1680.03 1378.24 1682.69 1320.89 1684.81 1248.14C1686.94 1320.89 1690.12 1378.24 1693.84 1454.7L1694.37 1465.32H1675.78L1676.32 1454.7ZM1787.31 1229.56C1787.31 1221.06 1788.37 1217.88 1794.74 1217.88H1797.4C1804.3 1217.88 1805.36 1221.06 1805.36 1229.56V1328.32H1843.07V1224.78C1843.07 1189.73 1835.1 1179.64 1803.24 1179.64H1786.78C1754.92 1179.64 1746.42 1189.73 1746.42 1224.78V1511.52C1746.42 1546.57 1754.92 1556.66 1786.78 1556.66H1803.24C1835.1 1556.66 1843.07 1546.57 1843.07 1511.52V1392.04H1805.36V1506.74C1805.36 1515.24 1804.3 1518.42 1797.4 1518.42H1794.74C1788.37 1518.42 1787.31 1515.24 1787.31 1506.74V1229.56ZM1895.64 1220.53H1931.22V1182.3H1854.75V1554H1931.22V1515.77H1895.64V1379.83H1923.25V1341.6H1895.64V1220.53ZM1978.56 1554H2037.5C2069.89 1554 2078.39 1543.91 2078.39 1508.86V1227.43C2078.39 1192.39 2069.89 1182.3 2037.5 1182.3H1978.56V1554ZM2019.45 1515.77V1220.53H2029.54C2036.44 1220.53 2037.5 1223.72 2037.5 1232.21V1504.09C2037.5 1512.58 2036.44 1515.77 2029.54 1515.77H2019.45ZM2149.99 1554H2190.88L2165.39 1182.3H2109.64L2084.15 1554H2120.79L2123.44 1503.55H2146.81L2149.99 1554ZM2126.63 1454.7C2130.35 1378.24 2133 1320.89 2135.12 1248.14C2137.25 1320.89 2140.43 1378.24 2144.15 1454.7L2144.68 1465.32H2126.1L2126.63 1454.7ZM2249.12 1554V1439.83L2282.05 1182.3H2245.41L2238.5 1252.92C2235.85 1282.13 2233.19 1317.17 2231.07 1350.1C2229.48 1317.17 2226.82 1282.13 2224.17 1252.92L2217.26 1182.3H2176.38L2208.77 1435.59V1554H2249.12Z" fill="#0D0D0D"/>
</svg>
