<svg width="3200" height="2134" viewBox="0 0 3200 2134" fill="none" xmlns="http://www.w3.org/2000/svg">
<g clip-path="url(#clip0_1194_1434)">
<rect width="3200" height="2133.33" fill="#0D0D0D"/>
<line x1="-551" y1="1848.23" x2="3750" y2="1848.23" stroke="#999696" stroke-width="3"/>
<path d="M2149.93 1845.91L2152.44 1848.2V1844.8V1786.47C2152.44 1625.23 2141.91 1530.6 2116.69 1462.88C2091.44 1395.07 2051.51 1354.36 1993.15 1300.86L1993.15 1300.86L1716.06 1047.27L1713.86 1049.29L1959.35 1370.94L1959.35 1370.94C2007.16 1433.1 2036.09 1513.36 2036.81 1596.18C1809.61 1414.49 1564.78 1272.77 1289.6 1163.06L1983.27 681.775L1985.37 680.316L1983.07 679.195L1150.99 273.283L1149.49 275.868L1764.26 697.563L1693.03 746.875L1157.46 495.269L1155.94 497.843L1595.78 815.015L1515.54 870.869L1164.66 731.002L1163.21 733.599L1428.29 930.857L1048.2 1196.22L1045.74 1197.94L1048.59 1198.88C1443.77 1328.44 1831.67 1556 2149.93 1845.91Z" stroke="#999696" stroke-width="3"/>
<path d="M-183.506 2053.81L3345.91 -402.452" stroke="#999696" stroke-width="3"/>
<path d="M-4.77734 2060.81L3529.64 -391.452" stroke="#999696" stroke-width="3"/>
<path d="M-170.67 -371.475L3695.53 1514.83" stroke="#999696" stroke-width="3"/>
<line x1="2151.29" y1="3217" x2="2151.29" y2="-1084" stroke="#999696" stroke-width="3"/>
<line x1="-551" y1="280.234" x2="3750" y2="280.234" stroke="#999696" stroke-width="3"/>
<line x1="1047.29" y1="3217" x2="1047.29" y2="-1084" stroke="#999696" stroke-width="3"/>
<path d="M1567.16 1895L1575.35 1876.28H1563.89V1874H1577.96V1876.01L1569.83 1895H1567.16ZM1590.49 1895.36C1588.91 1895.36 1587.51 1894.92 1586.29 1894.04C1585.09 1893.16 1584.15 1891.91 1583.47 1890.29C1582.81 1888.67 1582.48 1886.74 1582.48 1884.5C1582.48 1882.26 1582.81 1880.33 1583.47 1878.71C1584.15 1877.09 1585.09 1875.84 1586.29 1874.96C1587.51 1874.08 1588.91 1873.64 1590.49 1873.64C1592.09 1873.64 1593.49 1874.08 1594.69 1874.96C1595.89 1875.84 1596.82 1877.09 1597.48 1878.71C1598.16 1880.33 1598.5 1882.26 1598.5 1884.5C1598.5 1886.74 1598.16 1888.67 1597.48 1890.29C1596.82 1891.91 1595.89 1893.16 1594.69 1894.04C1593.49 1894.92 1592.09 1895.36 1590.49 1895.36ZM1585.06 1884.5C1585.06 1885.86 1585.2 1887.09 1585.48 1888.19C1585.78 1889.27 1586.19 1890.18 1586.71 1890.92L1592.53 1876.49C1591.91 1876.15 1591.23 1875.98 1590.49 1875.98C1589.43 1875.98 1588.49 1876.33 1587.67 1877.03C1586.85 1877.71 1586.21 1878.69 1585.75 1879.97C1585.29 1881.23 1585.06 1882.74 1585.06 1884.5ZM1590.49 1893.05C1591.55 1893.05 1592.49 1892.71 1593.31 1892.03C1594.13 1891.33 1594.77 1890.34 1595.23 1889.06C1595.69 1887.78 1595.92 1886.26 1595.92 1884.5C1595.92 1883.14 1595.77 1881.92 1595.47 1880.84C1595.19 1879.74 1594.79 1878.82 1594.27 1878.08L1588.42 1892.54C1589.06 1892.88 1589.75 1893.05 1590.49 1893.05ZM1609.98 1895.36C1608.4 1895.36 1607 1894.92 1605.78 1894.04C1604.58 1893.16 1603.64 1891.91 1602.96 1890.29C1602.3 1888.67 1601.97 1886.74 1601.97 1884.5C1601.97 1882.26 1602.3 1880.33 1602.96 1878.71C1603.64 1877.09 1604.58 1875.84 1605.78 1874.96C1607 1874.08 1608.4 1873.64 1609.98 1873.64C1611.58 1873.64 1612.98 1874.08 1614.18 1874.96C1615.38 1875.84 1616.31 1877.09 1616.97 1878.71C1617.65 1880.33 1617.99 1882.26 1617.99 1884.5C1617.99 1886.74 1617.65 1888.67 1616.97 1890.29C1616.31 1891.91 1615.38 1893.16 1614.18 1894.04C1612.98 1894.92 1611.58 1895.36 1609.98 1895.36ZM1604.55 1884.5C1604.55 1885.86 1604.69 1887.09 1604.97 1888.19C1605.27 1889.27 1605.68 1890.18 1606.2 1890.92L1612.02 1876.49C1611.4 1876.15 1610.72 1875.98 1609.98 1875.98C1608.92 1875.98 1607.98 1876.33 1607.16 1877.03C1606.34 1877.71 1605.7 1878.69 1605.24 1879.97C1604.78 1881.23 1604.55 1882.74 1604.55 1884.5ZM1609.98 1893.05C1611.04 1893.05 1611.98 1892.71 1612.8 1892.03C1613.62 1891.33 1614.26 1890.34 1614.72 1889.06C1615.18 1887.78 1615.41 1886.26 1615.41 1884.5C1615.41 1883.14 1615.26 1881.92 1614.96 1880.84C1614.68 1879.74 1614.28 1878.82 1613.76 1878.08L1607.91 1892.54C1608.55 1892.88 1609.24 1893.05 1609.98 1893.05Z" fill="#999696"/>
<path d="M953.647 327V324.72H959.077V308.97L953.947 309.96V308.04L959.917 306H961.597V324.72H967.327V327H953.647ZM980.035 327.36C978.455 327.36 977.055 326.92 975.835 326.04C974.635 325.16 973.695 323.91 973.015 322.29C972.355 320.67 972.025 318.74 972.025 316.5C972.025 314.26 972.355 312.33 973.015 310.71C973.695 309.09 974.635 307.84 975.835 306.96C977.055 306.08 978.455 305.64 980.035 305.64C981.635 305.64 983.035 306.08 984.235 306.96C985.435 307.84 986.365 309.09 987.025 310.71C987.705 312.33 988.045 314.26 988.045 316.5C988.045 318.74 987.705 320.67 987.025 322.29C986.365 323.91 985.435 325.16 984.235 326.04C983.035 326.92 981.635 327.36 980.035 327.36ZM974.605 316.5C974.605 317.86 974.745 319.09 975.025 320.19C975.325 321.27 975.735 322.18 976.255 322.92L982.075 308.49C981.455 308.15 980.775 307.98 980.035 307.98C978.975 307.98 978.035 308.33 977.215 309.03C976.395 309.71 975.755 310.69 975.295 311.97C974.835 313.23 974.605 314.74 974.605 316.5ZM980.035 325.05C981.095 325.05 982.035 324.71 982.855 324.03C983.675 323.33 984.315 322.34 984.775 321.06C985.235 319.78 985.465 318.26 985.465 316.5C985.465 315.14 985.315 313.92 985.015 312.84C984.735 311.74 984.335 310.82 983.815 310.08L977.965 324.54C978.605 324.88 979.295 325.05 980.035 325.05ZM999.523 327.36C997.943 327.36 996.543 326.92 995.323 326.04C994.123 325.16 993.183 323.91 992.503 322.29C991.843 320.67 991.513 318.74 991.513 316.5C991.513 314.26 991.843 312.33 992.503 310.71C993.183 309.09 994.123 307.84 995.323 306.96C996.543 306.08 997.943 305.64 999.523 305.64C1001.12 305.64 1002.52 306.08 1003.72 306.96C1004.92 307.84 1005.85 309.09 1006.51 310.71C1007.19 312.33 1007.53 314.26 1007.53 316.5C1007.53 318.74 1007.19 320.67 1006.51 322.29C1005.85 323.91 1004.92 325.16 1003.72 326.04C1002.52 326.92 1001.12 327.36 999.523 327.36ZM994.093 316.5C994.093 317.86 994.233 319.09 994.513 320.19C994.813 321.27 995.223 322.18 995.743 322.92L1001.56 308.49C1000.94 308.15 1000.26 307.98 999.523 307.98C998.463 307.98 997.523 308.33 996.703 309.03C995.883 309.71 995.243 310.69 994.783 311.97C994.323 313.23 994.093 314.74 994.093 316.5ZM999.523 325.05C1000.58 325.05 1001.52 324.71 1002.34 324.03C1003.16 323.33 1003.8 322.34 1004.26 321.06C1004.72 319.78 1004.95 318.26 1004.95 316.5C1004.95 315.14 1004.8 313.92 1004.5 312.84C1004.22 311.74 1003.82 310.82 1003.3 310.08L997.453 324.54C998.093 324.88 998.783 325.05 999.523 325.05ZM1019.01 327.36C1017.43 327.36 1016.03 326.92 1014.81 326.04C1013.61 325.16 1012.67 323.91 1011.99 322.29C1011.33 320.67 1011 318.74 1011 316.5C1011 314.26 1011.33 312.33 1011.99 310.71C1012.67 309.09 1013.61 307.84 1014.81 306.96C1016.03 306.08 1017.43 305.64 1019.01 305.64C1020.61 305.64 1022.01 306.08 1023.21 306.96C1024.41 307.84 1025.34 309.09 1026 310.71C1026.68 312.33 1027.02 314.26 1027.02 316.5C1027.02 318.74 1026.68 320.67 1026 322.29C1025.34 323.91 1024.41 325.16 1023.21 326.04C1022.01 326.92 1020.61 327.36 1019.01 327.36ZM1013.58 316.5C1013.58 317.86 1013.72 319.09 1014 320.19C1014.3 321.27 1014.71 322.18 1015.23 322.92L1021.05 308.49C1020.43 308.15 1019.75 307.98 1019.01 307.98C1017.95 307.98 1017.01 308.33 1016.19 309.03C1015.37 309.71 1014.73 310.69 1014.27 311.97C1013.81 313.23 1013.58 314.74 1013.58 316.5ZM1019.01 325.05C1020.07 325.05 1021.01 324.71 1021.83 324.03C1022.65 323.33 1023.29 322.34 1023.75 321.06C1024.21 319.78 1024.44 318.26 1024.44 316.5C1024.44 315.14 1024.29 313.92 1023.99 312.84C1023.71 311.74 1023.31 310.82 1022.79 310.08L1016.94 324.54C1017.58 324.88 1018.27 325.05 1019.01 325.05Z" fill="#999696"/>
<path d="M1078 1102.36C1076.56 1102.36 1075.32 1102.09 1074.28 1101.55C1073.24 1101.01 1072.42 1100.28 1071.82 1099.36C1071.22 1098.44 1070.86 1097.39 1070.74 1096.21H1073.32C1073.5 1097.35 1074.01 1098.28 1074.85 1099C1075.69 1099.7 1076.75 1100.05 1078.03 1100.05C1079.53 1100.05 1080.71 1099.57 1081.57 1098.61C1082.43 1097.63 1082.86 1096.4 1082.86 1094.92C1082.86 1093.36 1082.42 1092.14 1081.54 1091.26C1080.66 1090.36 1079.52 1089.91 1078.12 1089.91C1077 1089.91 1076.04 1090.17 1075.24 1090.69C1074.46 1091.19 1073.83 1091.83 1073.35 1092.61H1070.95L1072.75 1081H1083.97V1083.31H1074.73L1073.62 1089.55H1073.77C1074.23 1089.05 1074.85 1088.61 1075.63 1088.23C1076.43 1087.85 1077.35 1087.66 1078.39 1087.66C1079.77 1087.66 1080.97 1087.96 1081.99 1088.56C1083.03 1089.14 1083.84 1089.98 1084.42 1091.08C1085 1092.16 1085.29 1093.43 1085.29 1094.89C1085.29 1096.25 1085 1097.5 1084.42 1098.64C1083.86 1099.76 1083.03 1100.66 1081.93 1101.34C1080.85 1102.02 1079.54 1102.36 1078 1102.36ZM1097.49 1102.36C1096.05 1102.36 1094.81 1102.09 1093.77 1101.55C1092.73 1101.01 1091.91 1100.28 1091.31 1099.36C1090.71 1098.44 1090.35 1097.39 1090.23 1096.21H1092.81C1092.99 1097.35 1093.5 1098.28 1094.34 1099C1095.18 1099.7 1096.24 1100.05 1097.52 1100.05C1099.02 1100.05 1100.2 1099.57 1101.06 1098.61C1101.92 1097.63 1102.35 1096.4 1102.35 1094.92C1102.35 1093.36 1101.91 1092.14 1101.03 1091.26C1100.15 1090.36 1099.01 1089.91 1097.61 1089.91C1096.49 1089.91 1095.53 1090.17 1094.73 1090.69C1093.95 1091.19 1093.32 1091.83 1092.84 1092.61H1090.44L1092.24 1081H1103.46V1083.31H1094.22L1093.11 1089.55H1093.26C1093.72 1089.05 1094.34 1088.61 1095.12 1088.23C1095.92 1087.85 1096.84 1087.66 1097.88 1087.66C1099.26 1087.66 1100.46 1087.96 1101.48 1088.56C1102.52 1089.14 1103.33 1089.98 1103.91 1091.08C1104.49 1092.16 1104.78 1093.43 1104.78 1094.89C1104.78 1096.25 1104.49 1097.5 1103.91 1098.64C1103.35 1099.76 1102.52 1100.66 1101.42 1101.34C1100.34 1102.02 1099.03 1102.36 1097.49 1102.36ZM1116.98 1089.43C1116.18 1089.43 1115.44 1089.26 1114.76 1088.92C1114.1 1088.56 1113.57 1088.05 1113.17 1087.39C1112.79 1086.73 1112.6 1085.95 1112.6 1085.05C1112.6 1084.17 1112.79 1083.4 1113.17 1082.74C1113.57 1082.08 1114.1 1081.57 1114.76 1081.21C1115.44 1080.83 1116.18 1080.64 1116.98 1080.64C1117.78 1080.64 1118.51 1080.83 1119.17 1081.21C1119.85 1081.57 1120.39 1082.08 1120.79 1082.74C1121.19 1083.4 1121.39 1084.17 1121.39 1085.05C1121.39 1085.95 1121.19 1086.73 1120.79 1087.39C1120.39 1088.05 1119.85 1088.56 1119.17 1088.92C1118.51 1089.26 1117.78 1089.43 1116.98 1089.43ZM1116.98 1087.6C1117.64 1087.6 1118.21 1087.37 1118.69 1086.91C1119.19 1086.45 1119.44 1085.82 1119.44 1085.02C1119.44 1084.24 1119.19 1083.62 1118.69 1083.16C1118.21 1082.7 1117.64 1082.47 1116.98 1082.47C1116.32 1082.47 1115.74 1082.7 1115.24 1083.16C1114.76 1083.62 1114.52 1084.24 1114.52 1085.02C1114.52 1085.82 1114.76 1086.45 1115.24 1086.91C1115.74 1087.37 1116.32 1087.6 1116.98 1087.6Z" fill="#999696"/>
<path d="M2084.46 666.36C2082.62 666.36 2081.12 665.92 2079.96 665.04C2078.82 664.14 2077.97 662.94 2077.41 661.44C2076.87 659.92 2076.6 658.21 2076.6 656.31C2076.6 654.01 2076.92 651.99 2077.56 650.25C2078.2 648.49 2079.12 647.12 2080.32 646.14C2081.54 645.14 2083 644.64 2084.7 644.64C2086.04 644.64 2087.18 644.9 2088.12 645.42C2089.08 645.92 2089.83 646.61 2090.37 647.49C2090.93 648.35 2091.26 649.32 2091.36 650.4H2088.99C2088.79 649.34 2088.31 648.5 2087.55 647.88C2086.79 647.24 2085.84 646.92 2084.7 646.92C2083.7 646.92 2082.78 647.24 2081.94 647.88C2081.12 648.5 2080.44 649.47 2079.9 650.79C2079.38 652.09 2079.08 653.75 2079 655.77H2079.15C2079.61 654.91 2080.32 654.16 2081.28 653.52C2082.24 652.88 2083.4 652.56 2084.76 652.56C2086.02 652.56 2087.15 652.85 2088.15 653.43C2089.15 654.01 2089.94 654.81 2090.52 655.83C2091.12 656.85 2091.42 658.01 2091.42 659.31C2091.42 660.59 2091.13 661.77 2090.55 662.85C2089.99 663.91 2089.18 664.76 2088.12 665.4C2087.08 666.04 2085.86 666.36 2084.46 666.36ZM2084.28 664.08C2085.66 664.08 2086.77 663.64 2087.61 662.76C2088.45 661.88 2088.87 660.78 2088.87 659.46C2088.87 658.12 2088.45 657.02 2087.61 656.16C2086.77 655.28 2085.66 654.84 2084.28 654.84C2083.36 654.84 2082.55 655.04 2081.85 655.44C2081.17 655.84 2080.63 656.39 2080.23 657.09C2079.85 657.79 2079.66 658.58 2079.66 659.46C2079.66 660.34 2079.85 661.13 2080.23 661.83C2080.63 662.53 2081.17 663.08 2081.85 663.48C2082.55 663.88 2083.36 664.08 2084.28 664.08ZM2103.52 666.36C2102.08 666.36 2100.84 666.09 2099.8 665.55C2098.76 665.01 2097.94 664.28 2097.34 663.36C2096.74 662.44 2096.38 661.39 2096.26 660.21H2098.84C2099.02 661.35 2099.53 662.28 2100.37 663C2101.21 663.7 2102.27 664.05 2103.55 664.05C2105.05 664.05 2106.23 663.57 2107.09 662.61C2107.95 661.63 2108.38 660.4 2108.38 658.92C2108.38 657.36 2107.94 656.14 2107.06 655.26C2106.18 654.36 2105.04 653.91 2103.64 653.91C2102.52 653.91 2101.56 654.17 2100.76 654.69C2099.98 655.19 2099.35 655.83 2098.87 656.61H2096.47L2098.27 645H2109.49V647.31H2100.25L2099.14 653.55H2099.29C2099.75 653.05 2100.37 652.61 2101.15 652.23C2101.95 651.85 2102.87 651.66 2103.91 651.66C2105.29 651.66 2106.49 651.96 2107.51 652.56C2108.55 653.14 2109.36 653.98 2109.94 655.08C2110.52 656.16 2110.81 657.43 2110.81 658.89C2110.81 660.25 2110.52 661.5 2109.94 662.64C2109.38 663.76 2108.55 664.66 2107.45 665.34C2106.37 666.02 2105.06 666.36 2103.52 666.36ZM2123.01 653.43C2122.21 653.43 2121.47 653.26 2120.79 652.92C2120.13 652.56 2119.6 652.05 2119.2 651.39C2118.82 650.73 2118.63 649.95 2118.63 649.05C2118.63 648.17 2118.82 647.4 2119.2 646.74C2119.6 646.08 2120.13 645.57 2120.79 645.21C2121.47 644.83 2122.21 644.64 2123.01 644.64C2123.81 644.64 2124.54 644.83 2125.2 645.21C2125.88 645.57 2126.42 646.08 2126.82 646.74C2127.22 647.4 2127.42 648.17 2127.42 649.05C2127.42 649.95 2127.22 650.73 2126.82 651.39C2126.42 652.05 2125.88 652.56 2125.2 652.92C2124.54 653.26 2123.81 653.43 2123.01 653.43ZM2123.01 651.6C2123.67 651.6 2124.24 651.37 2124.72 650.91C2125.22 650.45 2125.47 649.82 2125.47 649.02C2125.47 648.24 2125.22 647.62 2124.72 647.16C2124.24 646.7 2123.67 646.47 2123.01 646.47C2122.35 646.47 2121.77 646.7 2121.27 647.16C2120.79 647.62 2120.55 648.24 2120.55 649.02C2120.55 649.82 2120.79 650.45 2121.27 650.91C2121.77 651.37 2122.35 651.6 2123.01 651.6Z" fill="#999696"/>
<path d="M1048 1117C1074.54 1117 1097.97 1130.46 1112 1151" stroke="#999696" stroke-width="3"/>
<path d="M2151 681C2119.37 681 2092.03 699.358 2079.04 726" stroke="#999696" stroke-width="3"/>
<path d="M1049.04 1197.7L1446.34 1328.54" stroke="#999696" stroke-width="3"/>
<path d="M1289.38 1162.01L1568.91 1265.5" stroke="#999696" stroke-width="3"/>
<path d="M2038.71 1597.38L1812.7 1407.06" stroke="#999696" stroke-width="3"/>
<path d="M1960.2 1373.75L2014.92 1435.61" stroke="#999696" stroke-width="3"/>
<path d="M2038.75 1597.38V1516.5" stroke="#999696" stroke-width="3"/>
<path d="M1991.18 1299.62L2111.32 1407.86" stroke="#999696" stroke-width="3"/>
<rect x="1808.75" y="1393.71" width="13.011" height="13.011" rx="6.50551" transform="rotate(45 1808.75 1393.71)" fill="#0D0D0D" stroke="#999696" stroke-width="3"/>
<rect x="2111.66" y="1399.06" width="13.011" height="13.011" rx="6.50551" transform="rotate(45 2111.66 1399.06)" fill="#0D0D0D" stroke="#999696" stroke-width="3"/>
<rect x="2016.25" y="1427.46" width="13.011" height="13.011" rx="6.50551" transform="rotate(45 2016.25 1427.46)" fill="#0D0D0D" stroke="#999696" stroke-width="3"/>
<rect x="2038.75" y="1501.09" width="13.011" height="13.011" rx="6.50551" transform="rotate(45 2038.75 1501.09)" fill="#0D0D0D" stroke="#999696" stroke-width="3"/>
<rect x="2151.95" y="1454.38" width="13.011" height="13.011" rx="6.50551" transform="rotate(45 2151.95 1454.38)" fill="#0D0D0D" stroke="#999696" stroke-width="3"/>
<rect x="1570.63" y="1257.21" width="13.011" height="13.011" rx="6.50551" transform="rotate(45 1570.63 1257.21)" fill="#0D0D0D" stroke="#999696" stroke-width="3"/>
<rect x="1451.7" y="1321.44" width="13.011" height="13.011" rx="6.50551" transform="rotate(45 1451.7 1321.44)" fill="#0D0D0D" stroke="#999696" stroke-width="3"/>
<path d="M2152.92 1849.56L1834.13 1555.74" stroke="#999696" stroke-width="3"/>
<rect x="1834.13" y="1546.13" width="13.011" height="13.011" rx="6.50551" transform="rotate(45 1834.13 1546.13)" fill="#0D0D0D" stroke="#999696" stroke-width="3"/>
<circle cx="2038.23" cy="1596.83" r="12.2237" fill="#0D0D0D" stroke="#999696" stroke-width="3"/>
<circle cx="2151.41" cy="1849.01" r="12.2237" fill="#0D0D0D" stroke="#999696" stroke-width="3"/>
<circle cx="1047.72" cy="1197.15" r="12.2237" fill="#0D0D0D" stroke="#999696" stroke-width="3"/>
<circle cx="1164.1" cy="733.234" r="12.2237" fill="#0D0D0D" stroke="#999696" stroke-width="3"/>
<circle cx="1717" cy="1049.65" r="12.2237" fill="#0D0D0D" stroke="#999696" stroke-width="3"/>
<circle cx="1161.68" cy="500.095" r="12.2237" fill="#0D0D0D" stroke="#999696" stroke-width="3"/>
<circle cx="1161.23" cy="280.458" r="12.2237" fill="#0D0D0D" stroke="#999696" stroke-width="3"/>
<circle cx="1288.85" cy="1163.47" r="12.2237" fill="#0D0D0D" stroke="#999696" stroke-width="3"/>
<circle cx="1984.52" cy="680.401" r="12.2237" fill="#0D0D0D" stroke="#999696" stroke-width="3"/>
<circle cx="1762.36" cy="699.745" r="12.2237" fill="#0D0D0D" stroke="#999696" stroke-width="3"/>
<circle cx="1594.23" cy="817.157" r="12.2237" fill="#0D0D0D" stroke="#999696" stroke-width="3"/>
<circle cx="1426.13" cy="933.247" r="12.2237" fill="#0D0D0D" stroke="#999696" stroke-width="3"/>
<circle cx="1990.64" cy="1299.07" r="12.2237" fill="#0D0D0D" stroke="#999696" stroke-width="3"/>
<circle cx="1959.68" cy="1373.21" r="12.2237" fill="#0D0D0D" stroke="#999696" stroke-width="3"/>
<circle cx="2151.41" cy="1784.78" r="12.2237" fill="#0D0D0D" stroke="#999696" stroke-width="3"/>
</g>
<defs>
<clipPath id="clip0_1194_1434">
<rect width="3200" height="2133.33" fill="white"/>
</clipPath>
</defs>
</svg>
