<svg width="900" height="900" viewBox="0 0 900 900" fill="none" xmlns="http://www.w3.org/2000/svg">
<rect width="900" height="900" fill="black"/>
<path d="M134.785 393.384C91.537 393.172 64.401 414.796 64.401 465.676C64.401 516.556 90.053 537.968 134.785 537.968C177.609 537.968 196.265 518.464 196.265 481.576C196.265 474.368 194.781 464.616 186.513 469.068C181.637 471.824 174.217 473.52 165.525 473.52C156.833 473.52 148.989 471.4 143.901 469.068C137.541 466.1 132.241 468.008 132.665 481.364C133.089 499.596 137.117 512.528 138.177 517.616C138.601 520.584 137.329 521.644 135.845 521.856C134.149 521.856 132.665 521.22 132.029 519.1C128.425 508.076 125.245 488.784 125.457 462.284C125.669 434.512 129.485 419.248 132.877 410.344C133.513 408.224 135.209 407.164 136.905 407.588C138.813 407.8 139.449 409.284 139.025 411.616C136.905 418.824 134.573 426.88 134.149 436.208C133.301 454.44 140.933 468.008 166.585 468.008C184.181 468.008 196.265 460.164 196.265 437.692C196.265 409.072 171.037 393.596 134.785 393.384ZM236.184 537.968C252.932 537.968 263.108 531.82 261.836 518.464C260.988 511.044 259.504 501.928 259.716 486.24C260.14 458.68 267.56 440.66 270.952 434.512C272.436 432.18 274.132 431.332 275.828 431.968C277.1 432.392 278.16 433.664 277.312 436.208C274.98 443.204 267.348 456.984 266.924 486.452C266.5 503.836 268.196 516.344 272.436 524.824C276.888 533.516 284.732 537.968 297.664 537.968C315.472 537.968 325.436 529.488 325.436 504.048V459.952C325.436 432.392 313.564 417.976 287.912 417.976C254.628 417.976 247.42 442.356 245.724 464.404C245.512 466.524 244.24 468.22 242.12 468.008C240.212 468.008 239.152 466.524 239.152 464.192C239.788 448.716 243.604 434.512 253.992 423.912C259.504 418.4 262.048 416.704 262.048 409.92C262.048 390.628 251.872 381.088 233.216 381.088C214.56 381.088 200.992 391.052 200.992 415.432V501.928C200.992 529.488 213.924 537.968 236.184 537.968ZM361.294 417.34C339.458 417.34 330.13 429 330.13 454.44V495.356C330.13 522.916 342.002 537.968 368.714 537.968C398.818 537.968 406.238 516.768 409.63 491.328C409.842 489.632 411.114 487.724 413.446 487.936C415.354 488.148 416.414 489.632 416.202 491.964C414.93 507.44 411.326 515.496 407.722 523.764C404.33 531.608 411.538 537.968 425.53 537.968C445.246 537.968 454.574 529.276 454.574 499.596V455.5C454.574 427.94 443.126 417.34 419.382 417.34C406.874 417.34 388.854 420.308 392.458 436.208C393.518 441.296 395.85 449.564 395.85 464.616C395.85 495.144 387.582 512.528 384.402 518.676C383.13 520.584 381.434 521.22 379.738 520.584C378.466 519.948 377.406 518.676 378.254 516.132C380.586 509.772 389.066 495.568 389.066 465.252C389.066 450.836 388.006 440.66 383.13 430.272C378.89 420.944 370.41 417.34 361.294 417.34ZM492.552 381.512C473.896 381.512 459.48 389.992 459.48 415.432L459.268 504.048C459.268 529.488 464.568 537.968 485.768 537.968C494.46 537.968 509.3 536.06 504.636 520.372C502.94 514.648 501.244 508.924 500.608 502.14C500.184 498.536 501.88 497.052 503.576 497.052C505.272 496.84 506.544 498.324 506.756 500.02C509.936 524.824 518.628 537.968 543.008 537.968C570.78 537.968 587.104 517.404 587.104 477.548C587.104 437.692 570.78 417.552 543.008 417.552C524.352 417.552 508.664 428.152 506.968 454.228C506.756 456.984 505.484 458.256 503.576 458.256C501.88 458.256 500.608 457.196 500.608 454.44C501.032 435.996 508.876 426.88 513.116 422.64C517.356 417.764 521.596 415.856 521.596 409.284C521.596 390.84 511.208 381.512 492.552 381.512ZM522.444 477.548C522.444 465.676 523.716 449.14 526.896 438.752C527.956 435.996 529.652 434.724 531.56 435.148C533.256 435.36 534.316 436.844 533.468 440.024C530.924 449.14 529.44 465.676 529.44 477.548C529.44 490.056 530.924 505.956 533.468 515.496C534.104 517.828 533.256 519.524 531.136 519.948C529.44 520.16 527.956 519.524 527.32 517.192C523.716 505.956 522.444 490.056 522.444 477.548ZM623.967 381.512C605.311 381.512 590.895 389.992 590.895 415.432L590.683 504.048C590.683 529.488 595.983 537.968 617.183 537.968C625.875 537.968 640.715 536.06 636.051 520.372C634.355 514.648 632.659 508.924 632.023 502.14C631.599 498.536 633.295 497.052 634.991 497.052C636.687 496.84 637.959 498.324 638.171 500.02C641.351 524.824 650.043 537.968 674.423 537.968C702.195 537.968 718.519 517.404 718.519 477.548C718.519 437.692 702.195 417.552 674.423 417.552C655.767 417.552 640.079 428.152 638.383 454.228C638.171 456.984 636.899 458.256 634.991 458.256C633.295 458.256 632.023 457.196 632.023 454.44C632.447 435.996 640.291 426.88 644.531 422.64C648.771 417.764 653.011 415.856 653.011 409.284C653.011 390.84 642.623 381.512 623.967 381.512ZM653.859 477.548C653.859 465.676 655.131 449.14 658.311 438.752C659.371 435.996 661.067 434.724 662.975 435.148C664.671 435.36 665.731 436.844 664.883 440.024C662.339 449.14 660.855 465.676 660.855 477.548C660.855 490.056 662.339 505.956 664.883 515.496C665.519 517.828 664.671 519.524 662.551 519.948C660.855 520.16 659.371 519.524 658.735 517.192C655.131 505.956 653.859 490.056 653.859 477.548ZM779.974 417.552C813.894 418.188 835.518 428.152 835.518 460.588V499.808C835.518 525.248 832.126 537.968 812.41 537.968C796.298 537.968 795.662 531.608 798.418 525.884C800.962 520.796 802.658 515.284 803.718 508.924C804.99 501.716 804.99 493.66 804.566 484.968C804.566 483.484 803.718 481.576 801.386 481.788C799.266 481.788 798.206 483.696 798.206 486.028C798.63 492.176 798.63 498.324 797.57 506.804C795.662 522.068 789.302 537.968 759.41 537.968C731.638 537.968 720.19 524.188 720.19 501.928C720.19 484.968 728.882 477.124 737.998 479.244C743.51 480.728 748.174 481.152 752.838 481.152C776.582 481.152 788.242 465.888 788.03 447.868C788.03 441.296 786.334 435.996 784.85 432.816C784.002 430.908 782.518 430.06 780.822 430.484C779.338 431.12 778.914 432.604 779.55 434.724C780.61 438.116 781.882 441.72 781.882 447.02C781.882 460.588 773.614 475.216 751.99 475.216C734.394 475.216 722.31 466.312 722.31 451.048C722.31 427.092 746.054 416.916 779.974 417.552ZM772.766 503.2C772.766 505.956 772.766 509.136 772.978 512.528C773.19 514.436 774.038 515.708 776.158 515.708C778.49 515.708 779.126 514.436 779.338 512.528C779.55 509.136 779.55 505.956 779.55 503.2C779.55 500.444 779.55 497.264 779.338 493.872C779.126 491.964 777.854 490.48 776.37 490.48C774.25 490.48 773.19 491.964 772.978 493.872C772.766 497.264 772.766 500.444 772.766 503.2Z" fill="white"/>
</svg>
