<svg width="1600" height="900" viewBox="0 0 1600 900" fill="none" xmlns="http://www.w3.org/2000/svg">
<rect width="1600" height="900" fill="black"/>
<path d="M176.611 117.059C149.377 117.059 125.136 134.117 125.136 166.439L124.837 277.469C124.837 310.389 139.501 321.163 164.042 321.163C188.881 321.163 198.458 310.988 197.86 290.936C197.86 287.944 196.363 281.36 194.867 276.571L164.94 176.015C164.341 173.92 166.436 172.723 167.334 172.424C168.232 172.125 169.728 172.723 170.626 174.818L205.341 290.936C211.925 313.681 221.801 321.163 244.247 321.163C260.707 321.163 277.466 315.477 278.065 287.046C279.561 237.366 291.233 208.337 314.576 174.22C315.474 172.723 317.569 171.526 318.766 172.424C319.664 173.023 320.861 174.22 319.364 176.913C303.204 204.147 284.35 228.089 284.35 285.25C284.35 313.681 297.817 321.163 322.058 321.163C346.598 321.163 361.263 310.09 361.263 276.571L360.963 166.439C360.963 134.117 340.912 117.059 310.985 117.059C280.16 117.059 264.298 132.621 255.32 157.76L225.991 241.556C225.093 243.651 224.196 244.549 222.699 244.549C220.604 244.549 219.407 242.753 220.904 239.162L237.064 193.373C238.86 187.986 238.86 184.096 237.663 181.103L229.882 158.658C220.305 131.723 208.633 117.059 176.611 117.059Z" fill="white"/>
<path d="M449.948 151.176C497.832 152.074 528.358 166.139 528.358 211.928V267.294C528.358 303.207 523.569 321.163 494.839 321.163C468.503 321.163 469.999 310.988 473.591 304.404C477.481 298.119 480.474 290.637 481.97 282.257C484.365 271.184 484.365 258.016 483.467 246.045C483.467 244.25 482.569 242.454 480.175 242.753C478.379 243.053 477.481 244.549 477.481 246.644C478.08 256.52 478.08 265.199 476.583 277.17C473.89 298.717 462.817 321.163 421.517 321.163C381.714 321.163 365.553 301.71 365.553 270.286C365.553 246.045 378.721 233.177 390.393 236.469C399.072 239.162 405.955 239.461 411.94 239.461C445.758 239.461 460.722 216.717 460.423 193.373C460.123 183.796 457.729 176.913 455.634 171.826C454.737 169.731 453.24 168.833 451.744 169.431C449.948 170.03 449.649 171.526 450.247 173.92C452.043 179.008 454.138 184.395 454.138 192.775C454.138 211.928 442.466 233.476 411.043 233.476C385.305 233.476 368.247 220.009 368.247 198.461C368.247 164.643 402.064 150.278 449.948 151.176ZM443.963 269.089C443.963 273.578 443.963 278.965 444.262 284.053C444.262 285.849 445.16 287.345 447.255 287.345C449.05 287.345 450.247 285.849 450.247 284.053C450.547 278.965 450.547 273.578 450.547 269.089C450.547 264.6 450.547 259.213 450.247 254.126C450.247 252.031 448.751 250.834 447.255 250.834C445.16 250.834 444.262 252.031 444.262 254.126C443.963 259.213 443.963 264.301 443.963 269.089Z" fill="white"/>
<path d="M619.8 151.176C567.726 150.577 533.01 177.213 533.01 233.476C533.01 296.323 567.128 321.163 619.8 321.163C670.377 321.163 695.815 298.717 695.815 259.213C695.815 251.432 693.72 240.958 686.538 244.549C676.961 249.337 668.581 251.133 657.807 251.133C645.537 251.133 635.96 249.038 626.982 244.549C619.8 241.257 616.508 247.841 617.406 264.301C618.603 278.965 621.595 290.338 622.792 295.425C623.092 297.52 621.595 298.717 620.099 299.017C618.603 299.017 617.705 298.717 616.807 296.922C612.617 284.652 609.624 263.104 609.924 235.271C610.223 207.14 614.114 184.395 618.303 173.322C619.201 171.526 620.398 170.628 622.194 170.928C623.391 171.227 624.588 172.723 624.289 174.818C622.493 181.702 619.5 192.475 619.201 200.855C617.406 224.498 620.997 244.848 659.004 244.848C683.246 244.848 695.815 233.476 695.815 206.242C695.815 168.833 664.092 151.774 619.8 151.176Z" fill="white"/>
<path d="M749.848 321.163C777.381 321.163 788.454 310.988 786.659 295.725C785.162 283.454 783.367 270.286 783.666 245.147C784.264 208.337 795.038 181.702 799.228 172.723C800.724 170.329 802.52 169.431 804.316 170.03C805.213 170.329 806.411 171.826 805.513 174.22C801.921 184.395 791.447 205.344 790.549 245.447C789.951 272.681 792.345 292.133 798.929 303.805C804.914 315.177 815.987 321.163 835.141 321.163C860.878 321.163 875.842 309.192 875.842 273.279V211.03C875.842 172.125 859.083 152.074 823.768 152.074C775.585 152.074 766.308 187.089 764.812 217.914C764.812 220.308 763.315 221.804 761.22 221.804C759.724 221.505 758.228 220.308 758.527 217.614C758.826 196.067 763.315 176.315 778.578 161.052C785.461 154.168 787.556 151.475 787.556 144.292C787.556 112.27 771.994 100 745.658 100C719.322 100 700.169 112.869 700.169 148.183V271.783C700.169 309.192 718.125 321.163 749.848 321.163Z" fill="white"/>
<path d="M922.028 157.76C951.656 157.76 962.131 151.774 962.131 129.03C962.131 106.285 951.656 100.299 922.028 100.299C892.699 100.299 881.926 109.277 881.926 129.03C881.926 151.774 892.699 157.76 922.028 157.76ZM881.626 282.257C881.626 311.586 892.699 321.163 922.028 321.163C951.357 321.163 962.43 311.586 962.43 282.257L962.131 169.731C962.131 160.154 958.24 158.358 948.963 160.752C942.379 162.548 932.503 163.745 922.028 163.745C911.554 163.745 901.977 162.548 895.692 160.752C886.115 158.358 881.926 160.154 881.926 169.731L881.626 282.257Z" fill="white"/>
<path d="M1103.67 321.163C1131.5 321.163 1143.77 303.207 1143.77 267.294V211.03C1143.77 172.125 1127.01 151.176 1091.7 151.176C1048.6 151.176 1038.73 184.096 1035.44 216.717C1035.44 218.213 1034.24 220.009 1031.85 220.009C1030.05 219.709 1028.85 218.213 1029.15 216.417C1031.55 190.979 1035.14 182.599 1040.52 169.731C1048.6 151.176 1033.94 151.176 1010 151.176C982.764 151.176 968.1 169.132 968.1 205.045V267.294C968.1 303.207 982.764 321.163 1015.68 321.163C1035.44 321.163 1061.17 317.871 1056.98 297.82C1055.19 289.44 1051 278.068 1050.7 254.425C1050.4 211.33 1063.27 186.191 1067.46 177.811C1068.66 176.015 1070.15 175.118 1071.95 175.716C1073.44 176.315 1074.34 177.512 1073.74 179.607C1070.75 189.183 1057.88 208.038 1057.88 254.724C1057.88 273.878 1060.28 288.542 1067.46 302.907C1074.34 316.674 1087.21 321.163 1103.67 321.163Z" fill="white"/>
<path d="M1238.14 179.307C1239.34 179.307 1241.14 179.906 1241.14 182.599C1241.73 190.381 1241.73 197.862 1241.73 205.045C1241.73 212.826 1241.73 219.709 1241.14 227.79C1241.14 230.483 1239.34 231.082 1238.14 231.082C1236.65 231.082 1234.85 230.483 1234.85 227.79C1234.55 219.709 1234.55 212.826 1234.55 205.045C1234.55 197.862 1234.55 190.381 1234.85 182.599C1235.15 179.906 1236.65 179.307 1238.14 179.307ZM1148.66 236.169C1148.66 294.528 1186.07 321.163 1237.24 321.163C1280.94 321.163 1308.77 294.528 1308.77 266.396C1308.77 256.52 1299.79 249.637 1288.42 255.921C1278.84 261.608 1267.17 265.797 1252.21 265.797C1234.55 265.797 1223.48 261.009 1219.29 259.213C1216.59 257.717 1216.59 256.221 1216.89 254.724C1217.79 252.929 1219.89 252.33 1222.28 253.228C1229.76 256.221 1237.84 258.914 1250.41 258.914C1274.95 259.812 1308.47 246.345 1308.77 208.636C1309.07 174.22 1282.14 151.176 1234.25 151.176C1182.78 151.176 1148.66 179.906 1148.66 236.169Z" fill="white"/>
<path d="M1385.9 197.563C1385.9 220.009 1402.66 233.177 1431.69 233.177C1455.93 233.177 1471.2 221.505 1471.2 201.454C1471.2 167.935 1440.07 151.176 1394.88 151.176C1355.68 151.176 1314.38 163.147 1314.38 207.439C1314.38 221.505 1320.96 238.264 1334.43 236.469C1346.1 234.074 1361.66 234.374 1373.33 238.863C1396.38 246.943 1405.66 264.9 1405.66 284.352C1405.66 291.535 1402.96 297.82 1400.57 302.907C1399.97 304.104 1398.47 305.002 1396.68 304.404C1395.18 303.805 1394.58 302.009 1395.48 299.914C1396.98 295.725 1399.07 289.739 1399.07 283.155C1399.07 259.812 1380.82 240.958 1350.59 240.958C1320.36 240.958 1311.98 258.615 1311.98 276.272C1311.98 308.893 1347 321.163 1390.09 321.163C1422.71 321.163 1472.69 316.375 1472.69 269.089C1472.69 251.133 1463.42 232.877 1454.44 235.271C1440.37 239.461 1419.72 240.658 1404.76 234.673C1382.91 226.293 1379.32 208.636 1379.32 197.563C1379.32 184.096 1384.71 176.015 1389.5 171.227C1390.39 169.731 1392.19 168.833 1393.98 169.731C1395.48 170.628 1395.18 172.424 1394.28 174.22C1388.9 180.504 1385.9 187.388 1385.9 197.563Z" fill="white"/>
<path d="M183.008 502.822C177.023 502.223 151.584 501.026 145 475.289C144.103 471.398 143.504 468.405 145.898 467.507C148.592 466.31 150.387 469.602 151.285 473.493C157.271 496.836 180.015 496.537 193.183 496.537H206.95C229.096 496.537 241.067 481.274 241.067 455.836C241.067 431.894 231.79 432.792 223.41 434.288C219.519 434.887 211.439 435.785 203.359 435.785H194.979C167.147 435.785 145 425.908 142.008 390.894C141.708 388.2 141.708 386.105 143.803 384.908C146.497 383.711 148.292 385.806 148.592 388.799C150.088 420.522 169.84 429.5 196.475 429.5H206.651C237.177 429.5 245.856 416.032 245.856 393.587C245.856 372.937 235.381 357.674 209.643 357.674H153.38C124.051 357.674 104 371.74 104 407.653V512.698C104 548.611 121.059 560.581 150.387 560.581C179.716 560.581 192.585 548.611 192.585 514.194V511.8C192.585 506.413 189.592 503.121 183.008 502.822Z" fill="white"/>
<path d="M291.31 397.178C320.938 397.178 331.413 391.193 331.413 368.448C331.413 345.703 320.938 339.718 291.31 339.718C261.981 339.718 251.207 348.696 251.207 368.448C251.207 391.193 261.981 397.178 291.31 397.178ZM250.908 521.676C250.908 551.005 261.981 560.581 291.31 560.581C320.639 560.581 331.712 551.005 331.712 521.676L331.413 409.149C331.413 399.572 327.522 397.777 318.245 400.171C311.661 401.967 301.785 403.164 291.31 403.164C280.835 403.164 271.259 401.967 264.974 400.171C255.397 397.777 251.207 399.572 251.207 409.149L250.908 521.676Z" fill="white"/>
<path d="M424.47 470.799L425.069 386.704C425.368 350.791 407.711 338.82 381.375 338.82C355.039 338.82 337.681 350.791 337.681 386.704L337.382 511.8C337.382 547.713 361.922 560.581 385.864 560.581C413.397 560.581 431.353 542.924 431.353 516.289C431.353 493.544 420.58 478.88 397.536 478.88C371.798 478.88 363.418 498.632 363.418 510.902C363.418 524.669 370.601 534.245 380.178 539.632C381.375 540.231 381.076 542.326 379.878 543.224C378.681 543.523 376.287 543.523 375.09 542.924C364.915 537.537 356.535 526.764 356.535 510.902C356.535 494.442 368.506 472.296 395.74 472.296C399.93 472.296 404.419 472.894 409.506 473.792C416.39 475.588 424.47 480.077 424.47 470.799Z" fill="white"/>
<path d="M518.723 390.594C566.606 391.492 597.132 405.558 597.132 451.347V506.712C597.132 542.625 592.344 560.581 563.614 560.581C537.277 560.581 538.774 550.406 542.365 543.822C546.256 537.537 549.248 530.056 550.745 521.676C553.139 510.603 553.139 497.435 552.241 485.464C552.241 483.668 551.343 481.873 548.949 482.172C547.153 482.471 546.256 483.968 546.256 486.062C546.854 495.938 546.854 504.617 545.358 516.588C542.664 538.136 531.591 560.581 490.292 560.581C450.488 560.581 434.327 541.129 434.327 509.705C434.327 485.464 447.495 472.595 459.167 475.887C467.846 478.581 474.729 478.88 480.715 478.88C514.533 478.88 529.496 456.135 529.197 432.792C528.898 423.215 526.504 416.332 524.409 411.244C523.511 409.149 522.015 408.251 520.518 408.85C518.723 409.448 518.423 410.945 519.022 413.339C520.817 418.427 522.912 423.814 522.912 432.193C522.912 451.347 511.241 472.894 479.817 472.894C454.08 472.894 437.021 459.427 437.021 437.879C437.021 404.062 470.839 389.696 518.723 390.594ZM512.737 508.508C512.737 512.997 512.737 518.384 513.036 523.472C513.036 525.267 513.934 526.764 516.029 526.764C517.825 526.764 519.022 525.267 519.022 523.472C519.321 518.384 519.321 512.997 519.321 508.508C519.321 504.019 519.321 498.632 519.022 493.544C519.022 491.449 517.525 490.252 516.029 490.252C513.934 490.252 513.036 491.449 513.036 493.544C512.737 498.632 512.737 503.72 512.737 508.508Z" fill="white"/>
<path d="M740.947 560.581C760.998 560.581 787.634 556.392 782.247 540.829C778.356 529.457 775.962 515.391 776.261 493.544C776.261 450.748 786.137 425.31 789.429 417.828C790.327 416.033 792.123 415.135 793.619 415.733C795.415 416.332 796.312 417.529 795.714 419.923C793.32 427.405 783.743 446.858 783.743 494.143C783.743 534.844 789.429 560.581 823.247 560.581C852.576 560.581 860.656 543.822 860.656 507.909V450.449C860.656 411.543 849.882 390.594 815.167 390.594C784.94 390.594 764.29 410.047 760.998 454.938C760.998 457.332 759.502 458.23 758.005 458.23C756.808 458.23 754.414 457.033 754.414 454.639C755.312 439.974 758.903 427.704 762.495 418.427C770.276 397.178 749.925 390.594 728.377 390.594C682.589 390.594 673.012 422.617 671.515 455.237C671.515 457.332 670.019 458.529 668.523 458.529C667.326 458.23 665.231 457.332 665.231 454.938C666.428 430.398 670.019 422.018 675.406 409.149C682.589 392.091 669.121 390.594 647.274 390.594C620.639 390.594 604.478 411.543 604.478 447.456V503.72C604.478 539.632 619.143 560.581 655.055 560.581C674.209 560.581 696.355 554.895 692.764 539.632C690.37 530.056 687.976 512.698 687.976 493.844C687.976 450.748 697.852 425.31 701.144 417.828C702.341 415.733 704.436 415.434 705.333 415.733C706.231 416.032 708.326 416.93 707.428 419.923C705.034 427.405 695.457 446.858 695.457 494.143C695.457 540.829 698.151 560.581 740.947 560.581Z" fill="white"/>
<path d="M956.311 418.726C957.508 418.726 959.304 419.324 959.304 422.018C959.903 429.799 959.903 437.281 959.903 444.463C959.903 452.245 959.903 459.128 959.304 467.208C959.304 469.902 957.508 470.5 956.311 470.5C954.815 470.5 953.019 469.902 953.019 467.208C952.72 459.128 952.72 452.245 952.72 444.463C952.72 437.281 952.72 429.799 953.019 422.018C953.319 419.324 954.815 418.726 956.311 418.726ZM866.829 475.588C866.829 533.946 904.238 560.581 955.414 560.581C999.107 560.581 1026.94 533.946 1026.94 505.814C1026.94 495.938 1017.96 489.055 1006.59 495.34C997.013 501.026 985.341 505.216 970.377 505.216C952.72 505.216 941.647 500.428 937.457 498.632C934.764 497.136 934.764 495.639 935.063 494.143C935.961 492.347 938.056 491.749 940.45 492.646C947.932 495.639 956.012 498.333 968.582 498.333C993.122 499.23 1026.64 485.763 1026.94 448.055C1027.24 413.638 1000.3 390.594 952.421 390.594C900.946 390.594 866.829 419.324 866.829 475.588Z" fill="white"/>
<path d="M1167.22 560.581C1195.05 560.581 1207.32 542.625 1207.32 506.712V450.449C1207.32 411.543 1190.56 390.594 1155.25 390.594C1112.15 390.594 1102.28 423.514 1098.99 456.135C1098.99 457.631 1097.79 459.427 1095.39 459.427C1093.6 459.128 1092.4 457.631 1092.7 455.836C1095.09 430.398 1098.69 422.018 1104.07 409.149C1112.15 390.594 1097.49 390.594 1073.55 390.594C1046.31 390.594 1031.65 408.551 1031.65 444.463V506.712C1031.65 542.625 1046.31 560.581 1079.23 560.581C1098.99 560.581 1124.72 557.289 1120.53 537.238C1118.74 528.858 1114.55 517.486 1114.25 493.844C1113.95 450.748 1126.82 425.609 1131.01 417.23C1132.2 415.434 1133.7 414.536 1135.5 415.135C1136.99 415.733 1137.89 416.93 1137.29 419.025C1134.3 428.602 1121.43 447.456 1121.43 494.143C1121.43 513.296 1123.82 527.961 1131.01 542.326C1137.89 556.092 1150.76 560.581 1167.22 560.581Z" fill="white"/>
<path d="M1289.42 463.018C1265.18 463.018 1251.71 480.376 1251.71 498.333C1251.71 513.895 1259.79 523.771 1270.87 530.056C1272.06 530.953 1271.76 532.749 1270.57 533.647C1269.37 534.545 1266.98 533.946 1265.48 533.048C1253.51 527.063 1245.13 514.493 1245.13 498.033C1245.13 474.391 1263.68 456.434 1289.12 456.434C1299.6 456.434 1307.08 459.427 1315.76 463.018C1327.13 467.208 1330.72 450.449 1330.72 433.69C1330.72 415.135 1324.74 407.653 1300.79 407.653H1251.41C1249.62 407.653 1248.12 406.755 1248.12 404.66C1248.12 402.565 1249.62 401.368 1251.41 401.368H1282.84C1292.41 401.368 1300.79 402.565 1300.79 393.886C1300.79 364.258 1284.63 356.477 1259.19 356.477C1231.96 356.477 1213.41 368.747 1213.41 404.062V505.216C1213.41 544.421 1242.44 560.581 1272.36 560.581C1301.09 560.581 1330.72 545.917 1330.72 507.012C1330.72 488.457 1320.84 463.018 1289.42 463.018Z" fill="white"/>
<path d="M1408.54 436.982C1408.54 459.427 1425.3 472.595 1454.33 472.595C1478.57 472.595 1493.83 460.923 1493.83 440.872C1493.83 407.354 1462.7 390.594 1417.51 390.594C1378.31 390.594 1337.01 402.565 1337.01 446.858C1337.01 460.923 1343.59 477.683 1357.06 475.887C1368.73 473.493 1384.3 473.792 1395.97 478.281C1419.01 486.362 1428.29 504.318 1428.29 523.771C1428.29 530.953 1425.6 537.238 1423.2 542.326C1422.6 543.523 1421.11 544.421 1419.31 543.822C1417.81 543.224 1417.22 541.428 1418.11 539.333C1419.61 535.143 1421.7 529.158 1421.7 522.574C1421.7 499.23 1403.45 480.376 1373.22 480.376C1343 480.376 1334.62 498.033 1334.62 515.69C1334.62 548.311 1369.63 560.581 1412.73 560.581C1445.35 560.581 1495.33 555.793 1495.33 508.508C1495.33 490.552 1486.05 472.296 1477.07 474.69C1463 478.88 1442.35 480.077 1427.39 474.091C1405.54 465.712 1401.95 448.055 1401.95 436.982C1401.95 423.514 1407.34 415.434 1412.13 410.646C1413.03 409.149 1414.82 408.251 1416.62 409.149C1418.11 410.047 1417.81 411.843 1416.92 413.638C1411.53 419.923 1408.54 426.806 1408.54 436.982Z" fill="white"/>
<path d="M156.448 595.896C127.119 595.896 110.06 607.567 110.06 642.582V753.613C110.06 788.328 127.119 800 156.448 800C185.776 800 203.134 788.328 203.134 753.613V744.634C203.134 735.956 199.842 734.459 192.061 734.16C178.594 733.861 166.324 735.956 154.353 738.05C152.557 738.05 151.061 736.554 151.061 734.758C151.061 733.262 151.959 731.466 154.353 731.466C170.813 728.773 188.47 727.576 206.426 727.576C224.083 727.576 242.339 728.773 258.799 731.466C260.894 731.766 261.792 733.262 261.792 734.758C261.493 736.554 259.996 738.05 257.901 737.751C246.529 735.956 234.259 733.861 220.791 734.16C212.711 734.459 209.718 735.956 209.718 744.634V753.613C209.718 788.328 226.777 800 256.106 800C285.434 800 302.792 788.328 302.792 753.613L302.493 642.582C302.493 607.567 285.434 595.896 256.106 595.896C226.777 595.896 209.718 607.567 209.718 642.582V653.955C209.718 662.634 213.01 664.429 221.091 664.13C234.558 663.831 246.23 662.634 258.201 660.838C259.697 660.838 261.493 662.334 261.493 663.831C261.493 665.327 260.295 666.823 258.201 667.422C242.04 670.415 224.083 671.013 206.426 671.013C188.47 671.013 170.813 670.115 154.353 667.422C151.959 667.123 151.061 665.626 151.061 663.831C151.061 662.334 152.557 660.838 154.652 660.838C166.324 662.634 178.295 663.831 191.762 664.13C199.543 664.429 203.134 662.634 203.134 653.955V642.582C203.134 607.567 185.776 595.896 156.448 595.896Z" fill="white"/>
<path d="M391.333 630.013C439.216 630.911 469.742 644.976 469.742 690.765V746.131C469.742 782.044 464.954 800 436.224 800C409.888 800 411.384 789.825 414.975 783.241C418.866 776.956 421.859 769.474 423.355 761.094C425.749 750.021 425.749 736.853 424.851 724.882C424.851 723.087 423.953 721.291 421.559 721.59C419.764 721.89 418.866 723.386 418.866 725.481C419.464 735.357 419.464 744.036 417.968 756.007C415.275 777.554 404.201 800 362.902 800C323.098 800 306.938 780.547 306.938 749.124C306.938 724.882 320.106 712.014 331.777 715.306C340.456 717.999 347.339 718.298 353.325 718.298C387.143 718.298 402.107 695.554 401.807 672.21C401.508 662.634 399.114 655.75 397.019 650.663C396.121 648.568 394.625 647.67 393.128 648.268C391.333 648.867 391.033 650.363 391.632 652.758C393.428 657.845 395.523 663.232 395.523 671.612C395.523 690.765 383.851 712.313 352.427 712.313C326.69 712.313 309.631 698.846 309.631 677.298C309.631 643.48 343.449 629.115 391.333 630.013ZM385.347 747.926C385.347 752.416 385.347 757.802 385.646 762.89C385.646 764.686 386.544 766.182 388.639 766.182C390.435 766.182 391.632 764.686 391.632 762.89C391.931 757.802 391.931 752.416 391.931 747.926C391.931 743.437 391.931 738.05 391.632 732.963C391.632 730.868 390.136 729.671 388.639 729.671C386.544 729.671 385.646 730.868 385.646 732.963C385.347 738.05 385.347 743.138 385.347 747.926Z" fill="white"/>
<path d="M613.557 800C633.608 800 660.244 795.81 654.857 780.248C650.966 768.876 648.572 754.81 648.871 732.963C648.871 690.167 658.747 664.728 662.039 657.247C662.937 655.451 664.733 654.553 666.229 655.152C668.025 655.75 668.923 656.947 668.324 659.342C665.93 666.823 656.353 686.276 656.353 733.561C656.353 774.262 662.039 800 695.857 800C725.186 800 733.266 783.241 733.266 747.328V689.867C733.266 650.962 722.493 630.013 687.777 630.013C657.55 630.013 636.9 649.466 633.608 694.357C633.608 696.751 632.112 697.649 630.616 697.649C629.419 697.649 627.024 696.451 627.024 694.057C627.922 679.393 631.513 667.123 635.105 657.845C642.886 636.597 622.535 630.013 600.988 630.013C555.199 630.013 545.622 662.035 544.126 694.656C544.126 696.751 542.629 697.948 541.133 697.948C539.936 697.649 537.841 696.751 537.841 694.357C539.038 669.816 542.629 661.437 548.016 648.568C555.199 631.509 541.731 630.013 519.885 630.013C493.249 630.013 477.088 650.962 477.088 686.875V743.138C477.088 779.051 491.753 800 527.666 800C546.819 800 568.965 794.314 565.374 779.051C562.98 769.474 560.586 752.116 560.586 733.262C560.586 690.167 570.462 664.728 573.754 657.247C574.951 655.152 577.046 654.853 577.944 655.152C578.841 655.451 580.936 656.349 580.038 659.342C577.644 666.823 568.068 686.276 568.068 733.561C568.068 780.248 570.761 800 613.557 800Z" fill="white"/>
<path d="M878.601 800C898.652 800 925.288 795.81 919.901 780.248C916.01 768.876 913.616 754.81 913.915 732.963C913.915 690.167 923.791 664.728 927.083 657.247C927.981 655.451 929.777 654.553 931.273 655.152C933.069 655.75 933.966 656.947 933.368 659.342C930.974 666.823 921.397 686.276 921.397 733.561C921.397 774.262 927.083 800 960.901 800C990.23 800 998.31 783.241 998.31 747.328V689.867C998.31 650.962 987.536 630.013 952.821 630.013C922.594 630.013 901.944 649.466 898.652 694.357C898.652 696.751 897.156 697.649 895.659 697.649C894.462 697.649 892.068 696.451 892.068 694.057C892.966 679.393 896.557 667.123 900.149 657.845C907.93 636.597 887.579 630.013 866.031 630.013C820.243 630.013 810.666 662.035 809.169 694.656C809.169 696.751 807.673 697.948 806.177 697.948C804.98 697.649 802.885 696.751 802.885 694.357C804.082 669.816 807.673 661.437 813.06 648.568C820.243 631.509 806.775 630.013 784.928 630.013C758.293 630.013 742.132 650.962 742.132 686.875V743.138C742.132 779.051 756.797 800 792.709 800C811.863 800 834.009 794.314 830.418 779.051C828.024 769.474 825.63 752.116 825.63 733.262C825.63 690.167 835.506 664.728 838.798 657.247C839.995 655.152 842.09 654.853 842.987 655.152C843.885 655.451 845.98 656.349 845.082 659.342C842.688 666.823 833.111 686.276 833.111 733.561C833.111 780.248 835.805 800 878.601 800Z" fill="white"/>
<path d="M1093.97 658.145C1095.16 658.145 1096.96 658.743 1096.96 661.436C1097.56 669.218 1097.56 676.699 1097.56 683.882C1097.56 691.663 1097.56 698.546 1096.96 706.627C1096.96 709.32 1095.16 709.919 1093.97 709.919C1092.47 709.919 1090.67 709.32 1090.67 706.627C1090.37 698.546 1090.37 691.663 1090.37 683.882C1090.37 676.699 1090.37 669.218 1090.67 661.436C1090.97 658.743 1092.47 658.145 1093.97 658.145ZM1004.48 715.006C1004.48 773.365 1041.89 800 1093.07 800C1136.76 800 1164.59 773.365 1164.59 745.233C1164.59 735.357 1155.62 728.474 1144.24 734.758C1134.67 740.445 1122.99 744.634 1108.03 744.634C1090.37 744.634 1079.3 739.846 1075.11 738.05C1072.42 736.554 1072.42 735.058 1072.72 733.561C1073.61 731.766 1075.71 731.167 1078.1 732.065C1085.59 735.058 1093.67 737.751 1106.24 737.751C1130.78 738.649 1164.29 725.182 1164.59 687.473C1164.89 653.057 1137.96 630.013 1090.07 630.013C1038.6 630.013 1004.48 658.743 1004.48 715.006Z" fill="white"/>
<path d="M1281.23 729.671C1309.96 729.671 1324.03 708.123 1324.03 681.189C1324.03 654.254 1306.37 631.808 1271.65 631.808C1230.65 631.808 1213.6 665.028 1213 694.656C1213 696.451 1211.8 697.649 1210 697.649C1208.51 697.649 1207.01 696.451 1207.01 694.357C1207.91 674.904 1212.4 661.137 1221.97 648.568C1231.25 635.998 1225.57 630.013 1208.81 630.013C1184.27 630.013 1169.3 641.984 1169.3 677.897V752.116C1169.3 788.029 1188.46 800 1214.79 800C1241.13 800 1257.89 788.029 1257.89 752.116V738.649C1257.89 730.269 1251.6 730.569 1243.52 721.89C1236.94 714.408 1232.45 704.233 1232.45 692.86C1232.45 674.605 1241.73 663.232 1251.6 656.05C1252.8 655.152 1254.6 654.254 1256.09 655.152C1257.29 655.75 1258.49 657.546 1256.99 659.042C1249.51 666.225 1239.03 674.305 1239.03 693.159C1239.03 710.218 1251 729.671 1281.23 729.671Z" fill="white"/>
<path d="M1400.68 676.4C1400.68 698.846 1417.44 712.014 1446.47 712.014C1470.71 712.014 1485.97 700.342 1485.97 680.291C1485.97 646.772 1454.85 630.013 1409.66 630.013C1370.45 630.013 1329.15 641.984 1329.15 686.276C1329.15 700.342 1335.74 717.101 1349.21 715.306C1360.88 712.911 1376.44 713.211 1388.11 717.7C1411.16 725.78 1420.43 743.737 1420.43 763.189C1420.43 770.372 1417.74 776.657 1415.34 781.744C1414.75 782.941 1413.25 783.839 1411.45 783.241C1409.96 782.642 1409.36 780.847 1410.26 778.752C1411.75 774.562 1413.85 768.576 1413.85 761.992C1413.85 738.649 1395.59 719.795 1365.37 719.795C1335.14 719.795 1326.76 737.452 1326.76 755.109C1326.76 787.73 1361.78 800 1404.87 800C1437.49 800 1487.47 795.212 1487.47 747.926C1487.47 729.97 1478.19 711.714 1469.21 714.109C1455.15 718.298 1434.5 719.496 1419.53 713.51C1397.69 705.13 1394.1 687.473 1394.1 676.4C1394.1 662.933 1399.48 654.853 1404.27 650.064C1405.17 648.568 1406.97 647.67 1408.76 648.568C1410.26 649.466 1409.96 651.261 1409.06 653.057C1403.67 659.342 1400.68 666.225 1400.68 676.4Z" fill="white"/>
</svg>
