<svg width="1600" height="900" viewBox="0 0 1600 900" fill="none" xmlns="http://www.w3.org/2000/svg">
<rect width="1600" height="900" fill="#CCE3FF"/>
<path d="M354.865 212.185C335.412 212.185 318.097 224.369 318.097 247.456L317.883 326.764C317.883 350.278 328.358 357.974 345.887 357.974C363.63 357.974 370.47 350.705 370.043 336.383C370.043 334.245 368.974 329.543 367.905 326.122L346.528 254.297C346.101 252.8 347.597 251.945 348.238 251.732C348.88 251.518 349.948 251.945 350.59 253.442L375.387 336.383C380.09 352.629 387.144 357.974 403.176 357.974C414.934 357.974 426.904 353.912 427.332 333.604C428.401 298.119 436.738 277.384 453.412 253.014C454.053 251.945 455.549 251.09 456.404 251.732C457.046 252.159 457.901 253.014 456.832 254.938C445.288 274.391 431.821 291.492 431.821 332.322C431.821 352.629 441.441 357.974 458.756 357.974C476.285 357.974 486.759 350.064 486.759 326.122L486.545 247.456C486.545 224.369 472.223 212.185 450.846 212.185C428.828 212.185 417.499 223.301 411.086 241.257L390.137 301.112C389.495 302.608 388.854 303.249 387.785 303.249C386.289 303.249 385.434 301.967 386.503 299.401L398.046 266.695C399.329 262.847 399.329 260.068 398.473 257.931L392.916 241.898C386.075 222.659 377.738 212.185 354.865 212.185Z" fill="#EB2323"/>
<path d="M550.106 236.554C584.308 237.195 606.113 247.242 606.113 279.949V319.496C606.113 345.148 602.692 357.974 582.171 357.974C563.359 357.974 564.428 350.705 566.993 346.003C569.772 341.513 571.91 336.169 572.979 330.184C574.689 322.274 574.689 312.869 574.048 304.318C574.048 303.035 573.406 301.753 571.696 301.967C570.414 302.18 569.772 303.249 569.772 304.746C570.2 311.8 570.2 317.999 569.131 326.55C567.207 341.941 559.298 357.974 529.798 357.974C501.367 357.974 489.824 344.079 489.824 321.633C489.824 304.318 499.229 295.126 507.566 297.478C513.765 299.401 518.682 299.615 522.957 299.615C547.113 299.615 557.801 283.369 557.588 266.695C557.374 259.855 555.664 254.938 554.167 251.304C553.526 249.808 552.457 249.166 551.388 249.594C550.106 250.021 549.892 251.09 550.32 252.8C551.602 256.434 553.099 260.282 553.099 266.268C553.099 279.949 544.762 295.34 522.316 295.34C503.932 295.34 491.748 285.72 491.748 270.329C491.748 246.174 515.903 235.913 550.106 236.554ZM545.83 320.778C545.83 323.985 545.83 327.832 546.044 331.466C546.044 332.749 546.686 333.818 548.182 333.818C549.465 333.818 550.32 332.749 550.32 331.466C550.533 327.832 550.533 323.985 550.533 320.778C550.533 317.572 550.533 313.724 550.32 310.09C550.32 308.593 549.251 307.738 548.182 307.738C546.686 307.738 546.044 308.593 546.044 310.09C545.83 313.724 545.83 317.358 545.83 320.778Z" fill="#EB2323"/>
<path d="M671.428 236.554C634.233 236.127 609.436 255.152 609.436 295.34C609.436 340.231 633.805 357.974 671.428 357.974C707.555 357.974 725.725 341.941 725.725 313.724C725.725 308.166 724.229 300.684 719.098 303.249C712.258 306.67 706.272 307.952 698.577 307.952C689.812 307.952 682.972 306.456 676.559 303.249C671.428 300.898 669.077 305.601 669.718 317.358C670.573 327.832 672.711 335.956 673.566 339.59C673.78 341.086 672.711 341.941 671.642 342.155C670.573 342.155 669.932 341.941 669.291 340.658C666.298 331.894 664.16 316.503 664.374 296.622C664.588 276.528 667.367 260.282 670.36 252.373C671.001 251.09 671.856 250.449 673.138 250.663C673.994 250.876 674.849 251.945 674.635 253.442C673.352 258.358 671.215 266.054 671.001 272.039C669.718 288.927 672.283 303.463 699.432 303.463C716.747 303.463 725.725 295.34 725.725 275.887C725.725 249.166 703.066 236.982 671.428 236.554Z" fill="#EB2323"/>
<path d="M764.32 357.974C783.986 357.974 791.896 350.705 790.613 339.803C789.544 331.039 788.262 321.633 788.476 303.677C788.903 277.383 796.599 258.358 799.591 251.945C800.66 250.235 801.943 249.594 803.225 250.021C803.867 250.235 804.722 251.304 804.081 253.014C801.515 260.282 794.034 275.246 793.392 303.891C792.965 323.343 794.675 337.238 799.378 345.575C803.653 353.698 811.562 357.974 825.243 357.974C843.627 357.974 854.316 349.423 854.316 323.771V279.307C854.316 251.518 842.345 237.195 817.12 237.195C782.704 237.195 776.077 262.206 775.008 284.224C775.008 285.934 773.939 287.003 772.443 287.003C771.374 286.789 770.305 285.934 770.519 284.01C770.733 268.619 773.939 254.51 784.842 243.608C789.758 238.692 791.255 236.768 791.255 231.637C791.255 208.764 780.139 200 761.327 200C742.516 200 728.835 209.192 728.835 234.416V322.702C728.835 349.423 741.661 357.974 764.32 357.974Z" fill="#EB2323"/>
<path d="M887.306 241.257C908.469 241.257 915.951 236.982 915.951 220.735C915.951 204.489 908.469 200.214 887.306 200.214C866.357 200.214 858.661 206.627 858.661 220.735C858.661 236.982 866.357 241.257 887.306 241.257ZM858.447 330.184C858.447 351.133 866.357 357.974 887.306 357.974C908.255 357.974 916.164 351.133 916.164 330.184L915.951 249.808C915.951 242.967 913.172 241.684 906.545 243.395C901.842 244.677 894.788 245.532 887.306 245.532C879.824 245.532 872.984 244.677 868.494 243.395C861.654 241.684 858.661 242.967 858.661 249.808L858.447 330.184Z" fill="#EB2323"/>
<path d="M1017.05 357.974C1036.93 357.974 1045.7 345.148 1045.7 319.496V279.307C1045.7 251.518 1033.72 236.554 1008.5 236.554C977.717 236.554 970.663 260.068 968.312 283.369C968.312 284.438 967.457 285.72 965.747 285.72C964.464 285.507 963.609 284.438 963.823 283.155C965.533 264.985 968.098 259 971.946 249.808C977.717 236.554 967.243 236.554 950.142 236.554C930.689 236.554 920.214 249.38 920.214 275.032V319.496C920.214 345.148 930.689 357.974 954.203 357.974C968.312 357.974 986.696 355.622 983.703 341.3C982.42 335.314 979.428 327.191 979.214 310.304C979 279.521 988.192 261.565 991.185 255.579C992.04 254.297 993.109 253.655 994.391 254.083C995.46 254.51 996.101 255.366 995.674 256.862C993.536 263.702 984.344 277.17 984.344 310.517C984.344 324.198 986.054 334.673 991.185 344.934C996.101 354.767 1005.29 357.974 1017.05 357.974Z" fill="#EB2323"/>
<path d="M1113.1 256.648C1113.96 256.648 1115.24 257.076 1115.24 259C1115.67 264.558 1115.67 269.902 1115.67 275.032C1115.67 280.59 1115.67 285.507 1115.24 291.278C1115.24 293.202 1113.96 293.63 1113.1 293.63C1112.03 293.63 1110.75 293.202 1110.75 291.278C1110.54 285.507 1110.54 280.59 1110.54 275.032C1110.54 269.902 1110.54 264.558 1110.75 259C1110.96 257.076 1112.03 256.648 1113.1 256.648ZM1049.19 297.264C1049.19 338.948 1075.91 357.974 1112.46 357.974C1143.67 357.974 1163.55 338.948 1163.55 318.854C1163.55 311.8 1157.14 306.883 1149.01 311.372C1142.17 315.434 1133.84 318.427 1123.15 318.427C1110.54 318.427 1102.63 315.006 1099.63 313.724C1097.71 312.655 1097.71 311.586 1097.92 310.517C1098.57 309.235 1100.06 308.807 1101.77 309.448C1107.12 311.586 1112.89 313.51 1121.87 313.51C1139.4 314.151 1163.34 304.532 1163.55 277.597C1163.76 253.014 1144.53 236.554 1110.32 236.554C1073.55 236.554 1049.19 257.076 1049.19 297.264Z" fill="#EB2323"/>
<path d="M1218.65 269.688C1218.65 285.72 1230.62 295.126 1251.35 295.126C1268.67 295.126 1279.57 286.789 1279.57 272.467C1279.57 248.525 1257.34 236.554 1225.06 236.554C1197.06 236.554 1167.56 245.105 1167.56 276.742C1167.56 286.789 1172.26 298.76 1181.88 297.478C1190.21 295.767 1201.33 295.981 1209.67 299.188C1226.13 304.959 1232.75 317.785 1232.75 331.68C1232.75 336.811 1230.83 341.3 1229.12 344.934C1228.69 345.789 1227.62 346.43 1226.34 346.003C1225.27 345.575 1224.84 344.292 1225.49 342.796C1226.56 339.803 1228.05 335.528 1228.05 330.825C1228.05 314.151 1215.01 300.684 1193.42 300.684C1171.83 300.684 1165.85 313.296 1165.85 325.909C1165.85 349.209 1190.86 357.974 1221.64 357.974C1244.94 357.974 1280.64 354.553 1280.64 320.778C1280.64 307.952 1274.01 294.912 1267.6 296.622C1257.55 299.615 1242.8 300.47 1232.11 296.195C1216.51 290.209 1213.94 277.597 1213.94 269.688C1213.94 260.068 1217.79 254.297 1221.21 250.876C1221.85 249.808 1223.13 249.166 1224.42 249.808C1225.49 250.449 1225.27 251.732 1224.63 253.014C1220.78 257.503 1218.65 262.42 1218.65 269.688Z" fill="#EB2323"/>
<path d="M359.434 487.73C355.159 487.302 336.989 486.447 332.286 468.063C331.645 465.284 331.217 463.147 332.927 462.505C334.851 461.65 336.134 464.002 336.775 466.781C341.05 483.454 357.297 483.241 366.702 483.241H376.536C392.354 483.241 400.905 472.339 400.905 454.168C400.905 437.067 394.278 437.708 388.293 438.777C385.514 439.205 379.742 439.846 373.97 439.846H367.985C348.105 439.846 332.286 432.792 330.148 407.781C329.935 405.857 329.935 404.361 331.431 403.506C333.355 402.651 334.637 404.147 334.851 406.285C335.92 428.944 350.029 435.357 369.054 435.357H376.322C398.126 435.357 404.325 425.737 404.325 409.705C404.325 394.955 396.844 384.053 378.46 384.053H338.271C317.322 384.053 303 394.1 303 419.752V494.784C303 520.436 315.185 528.987 336.134 528.987C357.083 528.987 366.275 520.436 366.275 495.853V494.143C366.275 490.295 364.137 487.944 359.434 487.73Z" fill="#EB2323"/>
<path d="M436.793 412.27C457.956 412.27 465.438 407.995 465.438 391.749C465.438 375.502 457.956 371.227 436.793 371.227C415.844 371.227 408.148 377.64 408.148 391.749C408.148 407.995 415.844 412.27 436.793 412.27ZM407.934 501.197C407.934 522.146 415.844 528.987 436.793 528.987C457.742 528.987 465.651 522.146 465.651 501.197L465.438 420.821C465.438 413.98 462.659 412.698 456.032 414.408C451.329 415.69 444.275 416.546 436.793 416.546C429.311 416.546 422.47 415.69 417.981 414.408C411.141 412.698 408.148 413.98 408.148 420.821L407.934 501.197Z" fill="#EB2323"/>
<path d="M531.907 464.857L532.335 404.788C532.549 379.136 519.936 370.586 501.125 370.586C482.313 370.586 469.915 379.136 469.915 404.788L469.701 494.143C469.701 519.795 487.23 528.987 504.331 528.987C523.998 528.987 536.824 516.375 536.824 497.349C536.824 481.103 529.128 470.628 512.668 470.628C494.284 470.628 488.299 484.737 488.299 493.501C488.299 503.335 493.429 510.175 500.27 514.023C501.125 514.451 500.911 515.947 500.056 516.588C499.201 516.802 497.491 516.802 496.636 516.375C489.368 512.527 483.382 504.831 483.382 493.501C483.382 481.744 491.933 465.926 511.386 465.926C514.378 465.926 517.585 466.353 521.219 466.994C526.136 468.277 531.907 471.484 531.907 464.857Z" fill="#EB2323"/>
<path d="M599.23 407.567C633.433 408.209 655.237 418.256 655.237 450.962V490.509C655.237 516.161 651.817 528.987 631.295 528.987C612.484 528.987 613.553 521.719 616.118 517.016C618.897 512.527 621.035 507.183 622.103 501.197C623.814 493.288 623.814 483.882 623.172 475.331C623.172 474.049 622.531 472.766 620.821 472.98C619.538 473.194 618.897 474.263 618.897 475.759C619.324 482.813 619.324 489.012 618.256 497.563C616.332 512.954 608.422 528.987 578.923 528.987C550.492 528.987 538.948 515.092 538.948 492.646C538.948 475.331 548.354 466.139 556.691 468.491C562.89 470.415 567.807 470.628 572.082 470.628C596.238 470.628 606.926 454.382 606.712 437.708C606.498 430.868 604.788 425.951 603.292 422.317C602.651 420.821 601.582 420.18 600.513 420.607C599.23 421.035 599.017 422.103 599.444 423.814C600.727 427.448 602.223 431.295 602.223 437.281C602.223 450.962 593.886 466.353 571.441 466.353C553.057 466.353 540.872 456.734 540.872 441.342C540.872 417.187 565.028 406.926 599.23 407.567ZM594.955 491.791C594.955 494.998 594.955 498.846 595.169 502.48C595.169 503.762 595.81 504.831 597.306 504.831C598.589 504.831 599.444 503.762 599.444 502.48C599.658 498.846 599.658 494.998 599.658 491.791C599.658 488.585 599.658 484.737 599.444 481.103C599.444 479.607 598.375 478.752 597.306 478.752C595.81 478.752 595.169 479.607 595.169 481.103C594.955 484.737 594.955 488.371 594.955 491.791Z" fill="#EB2323"/>
<path d="M757.962 528.987C772.284 528.987 791.31 525.994 787.462 514.878C784.683 506.755 782.973 496.708 783.187 481.103C783.187 450.534 790.241 432.364 792.592 427.02C793.234 425.738 794.516 425.096 795.585 425.524C796.868 425.951 797.509 426.806 797.081 428.516C795.371 433.861 788.531 447.755 788.531 481.531C788.531 510.603 792.592 528.987 816.748 528.987C837.697 528.987 843.469 517.016 843.469 491.364V450.321C843.469 422.531 835.773 407.567 810.976 407.567C789.386 407.567 774.636 421.462 772.284 453.527C772.284 455.237 771.216 455.879 770.147 455.879C769.292 455.879 767.582 455.024 767.582 453.313C768.223 442.839 770.788 434.074 773.353 427.448C778.911 412.27 764.375 407.567 748.984 407.567C716.278 407.567 709.437 430.44 708.368 453.741C708.368 455.237 707.299 456.092 706.231 456.092C705.375 455.879 703.879 455.237 703.879 453.527C704.734 435.998 707.299 430.013 711.147 420.821C716.278 408.636 706.658 407.567 691.053 407.567C672.028 407.567 660.485 422.531 660.485 448.183V488.371C660.485 514.023 670.959 528.987 696.611 528.987C710.292 528.987 726.111 524.925 723.546 514.023C721.836 507.183 720.125 494.784 720.125 481.317C720.125 450.534 727.18 432.364 729.531 427.02C730.386 425.524 731.883 425.31 732.524 425.524C733.165 425.738 734.661 426.379 734.02 428.516C732.31 433.861 725.47 447.755 725.47 481.531C725.47 514.878 727.393 528.987 757.962 528.987Z" fill="#EB2323"/>
<path d="M911.794 427.661C912.649 427.661 913.932 428.089 913.932 430.013C914.359 435.571 914.359 440.915 914.359 446.045C914.359 451.603 914.359 456.52 913.932 462.292C913.932 464.215 912.649 464.643 911.794 464.643C910.725 464.643 909.442 464.215 909.442 462.292C909.229 456.52 909.229 451.603 909.229 446.045C909.229 440.915 909.229 435.571 909.442 430.013C909.656 428.089 910.725 427.661 911.794 427.661ZM847.878 468.277C847.878 509.962 874.598 528.987 911.153 528.987C942.362 528.987 962.243 509.962 962.243 489.867C962.243 482.813 955.83 477.897 947.707 482.386C940.866 486.447 932.529 489.44 921.841 489.44C909.229 489.44 901.319 486.02 898.327 484.737C896.403 483.668 896.403 482.599 896.616 481.531C897.258 480.248 898.754 479.82 900.464 480.462C905.808 482.599 911.58 484.523 920.558 484.523C938.087 485.165 962.029 475.545 962.243 448.611C962.457 424.027 943.218 407.567 909.015 407.567C872.247 407.567 847.878 428.089 847.878 468.277Z" fill="#EB2323"/>
<path d="M1062.44 528.987C1082.32 528.987 1091.09 516.161 1091.09 490.509V450.321C1091.09 422.531 1079.12 407.567 1053.89 407.567C1023.11 407.567 1016.06 431.082 1013.7 454.382C1013.7 455.451 1012.85 456.734 1011.14 456.734C1009.86 456.52 1009 455.451 1009.21 454.168C1010.92 435.998 1013.49 430.013 1017.34 420.821C1023.11 407.567 1012.63 407.567 995.534 407.567C976.081 407.567 965.606 420.393 965.606 446.045V490.509C965.606 516.161 976.081 528.987 999.595 528.987C1013.7 528.987 1032.09 526.635 1029.09 512.313C1027.81 506.327 1024.82 498.204 1024.61 481.317C1024.39 450.534 1033.58 432.578 1036.58 426.593C1037.43 425.31 1038.5 424.669 1039.78 425.096C1040.85 425.524 1041.49 426.379 1041.07 427.875C1038.93 434.716 1029.74 448.183 1029.74 481.531C1029.74 495.212 1031.45 505.686 1036.58 515.947C1041.49 525.78 1050.69 528.987 1062.44 528.987Z" fill="#EB2323"/>
<path d="M1149.73 459.299C1132.41 459.299 1122.79 471.697 1122.79 484.523C1122.79 495.639 1128.57 502.693 1136.48 507.183C1137.33 507.824 1137.12 509.106 1136.26 509.748C1135.41 510.389 1133.7 509.962 1132.63 509.32C1124.08 505.045 1118.09 496.067 1118.09 484.31C1118.09 467.422 1131.35 454.596 1149.52 454.596C1157 454.596 1162.34 456.734 1168.54 459.299C1176.66 462.292 1179.23 450.321 1179.23 438.35C1179.23 425.096 1174.95 419.752 1157.85 419.752H1122.58C1121.3 419.752 1120.23 419.111 1120.23 417.614C1120.23 416.118 1121.3 415.263 1122.58 415.263H1145.03C1151.87 415.263 1157.85 416.118 1157.85 409.919C1157.85 388.756 1146.31 383.198 1128.14 383.198C1108.69 383.198 1095.43 391.962 1095.43 417.187V489.44C1095.43 517.443 1116.17 528.987 1137.54 528.987C1158.07 528.987 1179.23 518.512 1179.23 490.723C1179.23 477.469 1172.17 459.299 1149.73 459.299Z" fill="#EB2323"/>
<path d="M1234.81 440.701C1234.81 456.734 1246.78 466.139 1267.52 466.139C1284.83 466.139 1295.74 457.802 1295.74 443.48C1295.74 419.538 1273.5 407.567 1241.22 407.567C1213.22 407.567 1183.72 416.118 1183.72 447.755C1183.72 457.802 1188.42 469.773 1198.04 468.491C1206.38 466.781 1217.5 466.994 1225.83 470.201C1242.29 475.973 1248.92 488.799 1248.92 502.693C1248.92 507.824 1247 512.313 1245.29 515.947C1244.86 516.802 1243.79 517.443 1242.51 517.016C1241.44 516.588 1241.01 515.306 1241.65 513.809C1242.72 510.817 1244.22 506.541 1244.22 501.838C1244.22 485.165 1231.18 471.697 1209.59 471.697C1188 471.697 1182.01 484.31 1182.01 496.922C1182.01 520.222 1207.02 528.987 1237.8 528.987C1261.11 528.987 1296.8 525.566 1296.8 491.791C1296.8 478.965 1290.18 465.926 1283.76 467.636C1273.72 470.628 1258.97 471.484 1248.28 467.208C1232.67 461.223 1230.11 448.611 1230.11 440.701C1230.11 431.082 1233.96 425.31 1237.38 421.89C1238.02 420.821 1239.3 420.18 1240.58 420.821C1241.65 421.462 1241.44 422.745 1240.8 424.027C1236.95 428.516 1234.81 433.433 1234.81 440.701Z" fill="#EB2323"/>
<path d="M340.463 554.211C319.513 554.211 307.329 562.548 307.329 587.559V666.866C307.329 691.663 319.513 700 340.463 700C361.412 700 373.81 691.663 373.81 666.866V660.453C373.81 654.254 371.459 653.185 365.901 652.971C356.281 652.758 347.517 654.254 338.966 655.75C337.684 655.75 336.615 654.681 336.615 653.399C336.615 652.33 337.256 651.047 338.966 651.047C350.723 649.124 363.336 648.268 376.162 648.268C388.774 648.268 401.814 649.124 413.571 651.047C415.067 651.261 415.708 652.33 415.708 653.399C415.495 654.681 414.426 655.75 412.929 655.537C404.806 654.254 396.042 652.758 386.422 652.971C380.651 653.185 378.513 654.254 378.513 660.453V666.866C378.513 691.663 390.698 700 411.647 700C432.596 700 444.994 691.663 444.994 666.866L444.781 587.559C444.781 562.548 432.596 554.211 411.647 554.211C390.698 554.211 378.513 562.548 378.513 587.559V595.682C378.513 601.881 380.864 603.164 386.636 602.95C396.256 602.736 404.593 601.881 413.143 600.599C414.212 600.599 415.495 601.667 415.495 602.736C415.495 603.805 414.64 604.874 413.143 605.301C401.6 607.439 388.774 607.867 376.162 607.867C363.336 607.867 350.723 607.225 338.966 605.301C337.256 605.088 336.615 604.019 336.615 602.736C336.615 601.667 337.684 600.599 339.18 600.599C347.517 601.881 356.068 602.736 365.687 602.95C371.245 603.164 373.81 601.881 373.81 595.682V587.559C373.81 562.548 361.412 554.211 340.463 554.211Z" fill="#EB2323"/>
<path d="M508.238 578.581C542.44 579.222 564.244 589.269 564.244 621.975V661.522C564.244 687.174 560.824 700 540.303 700C521.491 700 522.56 692.732 525.125 688.029C527.904 683.54 530.042 678.196 531.111 672.21C532.821 664.301 532.821 654.895 532.179 646.345C532.179 645.062 531.538 643.779 529.828 643.993C528.545 644.207 527.904 645.276 527.904 646.772C528.332 653.826 528.332 660.026 527.263 668.576C525.339 683.967 517.43 700 487.93 700C459.499 700 447.955 686.105 447.955 663.66C447.955 646.345 457.361 637.153 465.698 639.504C471.897 641.428 476.814 641.642 481.089 641.642C505.245 641.642 515.933 625.395 515.719 608.722C515.506 601.881 513.796 596.965 512.299 593.33C511.658 591.834 510.589 591.193 509.52 591.62C508.238 592.048 508.024 593.117 508.451 594.827C509.734 598.461 511.23 602.309 511.23 608.294C511.23 621.975 502.893 637.366 480.448 637.366C462.064 637.366 449.879 627.747 449.879 612.356C449.879 588.2 474.035 577.939 508.238 578.581ZM503.962 662.805C503.962 666.011 503.962 669.859 504.176 673.493C504.176 674.776 504.817 675.844 506.314 675.844C507.596 675.844 508.451 674.776 508.451 673.493C508.665 669.859 508.665 666.011 508.665 662.805C508.665 659.598 508.665 655.75 508.451 652.116C508.451 650.62 507.383 649.765 506.314 649.765C504.817 649.765 504.176 650.62 504.176 652.116C503.962 655.75 503.962 659.384 503.962 662.805Z" fill="#EB2323"/>
<path d="M666.969 700C681.292 700 700.317 697.007 696.469 685.891C693.69 677.768 691.98 667.721 692.194 652.116C692.194 621.548 699.248 603.377 701.599 598.033C702.241 596.751 703.523 596.109 704.592 596.537C705.875 596.965 706.516 597.82 706.089 599.53C704.378 604.874 697.538 618.769 697.538 652.544C697.538 681.616 701.6 700 725.755 700C746.704 700 752.476 688.029 752.476 662.377V621.334C752.476 593.544 744.78 578.581 719.983 578.581C698.393 578.581 683.643 592.475 681.292 624.54C681.292 626.251 680.223 626.892 679.154 626.892C678.299 626.892 676.589 626.037 676.589 624.327C677.23 613.852 679.795 605.088 682.361 598.461C687.918 583.283 673.382 578.581 657.991 578.581C625.285 578.581 618.444 601.454 617.375 624.754C617.375 626.251 616.307 627.106 615.238 627.106C614.383 626.892 612.886 626.251 612.886 624.54C613.741 607.012 616.307 601.026 620.154 591.834C625.285 579.649 615.665 578.581 600.06 578.581C581.035 578.581 569.492 593.544 569.492 619.196V659.384C569.492 685.036 579.966 700 605.618 700C619.299 700 635.118 695.938 632.553 685.036C630.843 678.196 629.133 665.797 629.133 652.33C629.133 621.548 636.187 603.377 638.538 598.033C639.393 596.537 640.89 596.323 641.531 596.537C642.172 596.751 643.669 597.392 643.027 599.53C641.317 604.874 634.477 618.769 634.477 652.544C634.477 685.891 636.401 700 666.969 700Z" fill="#EB2323"/>
<path d="M856.286 700C870.609 700 889.634 697.007 885.786 685.891C883.007 677.768 881.297 667.721 881.511 652.116C881.511 621.548 888.565 603.377 890.917 598.033C891.558 596.751 892.84 596.109 893.909 596.537C895.192 596.965 895.833 597.82 895.406 599.53C893.695 604.874 886.855 618.769 886.855 652.544C886.855 681.616 890.917 700 915.072 700C936.021 700 941.793 688.029 941.793 662.377V621.334C941.793 593.544 934.097 578.581 909.3 578.581C887.71 578.581 872.96 592.475 870.609 624.54C870.609 626.251 869.54 626.892 868.471 626.892C867.616 626.892 865.906 626.037 865.906 624.327C866.547 613.852 869.112 605.088 871.678 598.461C877.235 583.283 862.699 578.581 847.308 578.581C814.602 578.581 807.761 601.454 806.692 624.754C806.692 626.251 805.624 627.106 804.555 627.106C803.7 626.892 802.203 626.251 802.203 624.54C803.058 607.012 805.624 601.026 809.471 591.834C814.602 579.649 804.982 578.581 789.377 578.581C770.352 578.581 758.809 593.544 758.809 619.196V659.384C758.809 685.036 769.283 700 794.935 700C808.616 700 824.435 695.938 821.87 685.036C820.16 678.196 818.45 665.797 818.45 652.33C818.45 621.548 825.504 603.377 827.855 598.033C828.71 596.537 830.207 596.323 830.848 596.537C831.489 596.751 832.986 597.392 832.344 599.53C830.634 604.874 823.794 618.769 823.794 652.544C823.794 685.891 825.718 700 856.286 700Z" fill="#EB2323"/>
<path d="M1010.12 598.675C1010.97 598.675 1012.26 599.102 1012.26 601.026C1012.68 606.584 1012.68 611.928 1012.68 617.059C1012.68 622.616 1012.68 627.533 1012.26 633.305C1012.26 635.229 1010.97 635.656 1010.12 635.656C1009.05 635.656 1007.77 635.229 1007.77 633.305C1007.55 627.533 1007.55 622.616 1007.55 617.059C1007.55 611.928 1007.55 606.584 1007.77 601.026C1007.98 599.102 1009.05 598.675 1010.12 598.675ZM946.202 639.29C946.202 680.975 972.923 700 1009.48 700C1040.69 700 1060.57 680.975 1060.57 660.881C1060.57 653.826 1054.15 648.91 1046.03 653.399C1039.19 657.46 1030.85 660.453 1020.17 660.453C1007.55 660.453 999.644 657.033 996.651 655.75C994.727 654.681 994.727 653.613 994.941 652.544C995.582 651.261 997.078 650.834 998.788 651.475C1004.13 653.613 1009.9 655.537 1018.88 655.537C1036.41 656.178 1060.35 646.558 1060.57 619.624C1060.78 595.041 1041.54 578.581 1007.34 578.581C970.571 578.581 946.202 599.102 946.202 639.29Z" fill="#EB2323"/>
<path d="M1143.88 649.765C1164.4 649.765 1174.45 634.374 1174.45 615.135C1174.45 595.896 1161.84 579.863 1137.04 579.863C1107.75 579.863 1095.57 603.591 1095.14 624.754C1095.14 626.037 1094.29 626.892 1093 626.892C1091.93 626.892 1090.87 626.037 1090.87 624.54C1091.51 610.646 1094.71 600.812 1101.55 591.834C1108.18 582.856 1104.12 578.581 1092.15 578.581C1074.62 578.581 1063.93 587.131 1063.93 612.783V665.797C1063.93 691.449 1077.61 700 1096.42 700C1115.23 700 1127.21 691.449 1127.21 665.797V656.178C1127.21 650.192 1122.72 650.406 1116.94 644.207C1112.24 638.863 1109.04 631.595 1109.04 623.472C1109.04 610.432 1115.66 602.309 1122.72 597.178C1123.57 596.537 1124.85 595.896 1125.92 596.537C1126.78 596.965 1127.63 598.247 1126.56 599.316C1121.22 604.446 1113.74 610.218 1113.74 623.685C1113.74 635.87 1122.29 649.765 1143.88 649.765Z" fill="#EB2323"/>
<path d="M1229.2 611.714C1229.2 627.747 1241.17 637.153 1261.91 637.153C1279.22 637.153 1290.12 628.816 1290.12 614.493C1290.12 590.552 1267.89 578.581 1235.61 578.581C1207.61 578.581 1178.11 587.131 1178.11 618.769C1178.11 628.816 1182.81 640.787 1192.43 639.504C1200.77 637.794 1211.89 638.008 1220.22 641.214C1236.68 646.986 1243.31 659.812 1243.31 673.707C1243.31 678.837 1241.39 683.326 1239.67 686.96C1239.25 687.815 1238.18 688.457 1236.9 688.029C1235.83 687.602 1235.4 686.319 1236.04 684.823C1237.11 681.83 1238.61 677.554 1238.61 672.852C1238.61 656.178 1225.57 642.711 1203.98 642.711C1182.39 642.711 1176.4 655.323 1176.4 667.935C1176.4 691.236 1201.41 700 1232.19 700C1255.49 700 1291.19 696.58 1291.19 662.805C1291.19 649.979 1284.57 636.939 1278.15 638.649C1268.11 641.642 1253.36 642.497 1242.67 638.221C1227.06 632.236 1224.5 619.624 1224.5 611.714C1224.5 602.095 1228.35 596.323 1231.77 592.903C1232.41 591.834 1233.69 591.193 1234.97 591.834C1236.04 592.475 1235.83 593.758 1235.19 595.041C1231.34 599.53 1229.2 604.446 1229.2 611.714Z" fill="#EB2323"/>
</svg>
