<svg width="900" height="900" viewBox="0 0 900 900" fill="none" xmlns="http://www.w3.org/2000/svg">
<rect width="900" height="900" fill="#CCE3FF"/>
<path d="M146.231 396.4C105.431 396.4 79.8313 416.6 79.8313 464.6C79.8313 512.8 102.631 532.8 146.231 532.8C186.231 532.8 204.231 514.4 204.231 479.6C204.231 472.8 201.831 466.2 195.031 470C190.831 472.2 183.431 473.6 176.231 473.6C169.031 473.6 161.831 472 156.631 469.8C149.431 466.8 145.431 471 146.231 484C147.031 498.6 149.631 507 150.231 511.8C150.831 516 148.631 517.6 146.631 517.6C144.231 517.6 142.031 516.6 141.031 513.2C138.631 504.6 135.831 486.4 136.031 461.4C136.231 436.2 139.031 421.4 141.631 414C142.831 410.8 145.231 409.2 147.631 409.6C150.631 410 151.431 412.2 150.831 415.4C150.031 419.6 148.031 425 147.431 433.2C146.031 452.4 154.431 465.6 176.831 465.6C191.431 465.6 204.231 458.8 204.231 437.6C204.231 411.4 180.631 396.4 146.231 396.4ZM244.616 532.8C255.416 532.8 269.616 528.8 268.016 511.6C267.616 507.4 266.416 499.2 266.416 487.8C266.416 459 273.616 443.8 277.416 438.4C279.816 435 282.216 434 284.616 434.8C286.416 435.4 288.016 437.2 286.816 441C284.816 447.4 277.216 458.4 277.216 488C277.216 500.8 278.616 510.8 282.216 518.8C286.616 528.6 293.816 532.8 305.016 532.8C321.016 532.8 329.216 524.8 329.216 500.8V459.2C329.216 433.2 318.016 419.2 292.816 419.2C262.416 419.2 255.016 441.2 251.616 463C251.416 465.6 249.816 468.4 246.216 468C243.416 467.8 241.816 465.6 242.016 462.4C243.016 447.8 248.016 433.4 256.816 424.2C263.016 417.6 267.816 416.4 267.816 406.8C267.816 394.8 259.816 384.6 242.216 384.6C224.616 384.6 211.816 395.2 211.816 417.2V496.8C211.816 524.8 224.216 532.8 244.616 532.8ZM363.569 419.2C345.969 419.2 336.769 429.2 336.769 453.2V492.8C336.769 518.8 347.969 532.8 375.169 532.8C403.569 532.8 410.369 515 414.769 489C415.169 486.4 417.169 483.4 420.969 483.8C423.569 484 425.169 486.4 424.969 490C424.169 502.2 420.769 511.8 416.969 520.4C414.569 525.6 415.969 532.8 428.769 532.8C446.369 532.8 454.169 524.8 454.169 496.8V455.2C454.169 431.2 444.369 419.2 421.169 419.2C409.169 419.2 392.969 422.8 396.569 439.6C397.569 444.6 398.769 452.4 398.769 463.8C398.569 492.6 391.769 508.2 388.569 514C386.569 517.4 383.969 518 381.169 517C379.369 516.2 377.969 514.2 379.369 510.2C381.169 504.6 388.569 490.8 388.569 465.2C388.569 450.8 388.169 441.2 383.769 431.4C380.169 423.4 373.169 419.2 363.569 419.2ZM493.122 385.2C475.522 385.2 461.922 393.2 461.922 417.2L461.722 500.8C461.722 524.8 465.522 532.8 485.122 532.8C490.522 532.8 507.122 533.4 502.322 516.8C500.722 511.2 499.322 506 498.922 500.4C498.522 494.6 501.122 493 503.522 492.8C506.122 492.6 508.122 494.4 508.522 497.4C511.122 520.6 518.922 532.8 540.722 532.8C566.922 532.8 582.322 513.4 582.322 475.8C582.322 438.2 566.922 419.2 540.722 419.2C524.122 419.2 510.922 429.4 508.522 453C508.122 457.6 505.922 459.2 503.322 459.2C500.922 459.2 498.922 458 498.922 453.4C499.122 437.4 505.722 428.2 508.722 424.2C513.522 417.8 519.922 415.6 519.922 406.8C519.922 394.8 510.722 385.2 493.122 385.2ZM524.122 475.8C524.122 464.6 525.322 449 527.922 441C529.322 436.6 532.322 434.8 535.322 435.4C537.922 436 539.122 438.4 537.922 442.8C536.322 449 534.922 464.6 534.922 475.8C534.922 487.6 536.322 502.6 537.922 509.2C538.722 512.4 537.922 515.2 534.522 515.8C531.922 516.2 529.322 515.4 528.322 512C525.322 502.6 524.122 487.6 524.122 475.8ZM619.638 385.2C602.038 385.2 588.438 393.2 588.438 417.2L588.238 500.8C588.238 524.8 592.038 532.8 611.638 532.8C617.038 532.8 633.638 533.4 628.838 516.8C627.238 511.2 625.838 506 625.438 500.4C625.038 494.6 627.638 493 630.038 492.8C632.638 492.6 634.638 494.4 635.038 497.4C637.638 520.6 645.438 532.8 667.238 532.8C693.438 532.8 708.838 513.4 708.838 475.8C708.838 438.2 693.438 419.2 667.238 419.2C650.638 419.2 637.438 429.4 635.038 453C634.638 457.6 632.438 459.2 629.838 459.2C627.438 459.2 625.438 458 625.438 453.4C625.638 437.4 632.238 428.2 635.238 424.2C640.038 417.8 646.438 415.6 646.438 406.8C646.438 394.8 637.238 385.2 619.638 385.2ZM650.638 475.8C650.638 464.6 651.838 449 654.438 441C655.838 436.6 658.838 434.8 661.838 435.4C664.438 436 665.638 438.4 664.438 442.8C662.838 449 661.438 464.6 661.438 475.8C661.438 487.6 662.838 502.6 664.438 509.2C665.238 512.4 664.438 515.2 661.038 515.8C658.438 516.2 655.838 515.4 654.838 512C651.838 502.6 650.638 487.6 650.638 475.8ZM768.753 419.2C800.753 419.8 821.153 429.2 821.153 459.8V496.8C821.153 520.8 817.953 532.8 800.353 532.8C790.153 532.8 785.953 528.6 788.753 520.8C790.753 515 792.153 509.2 792.753 502.4C793.153 497.4 793.353 492 792.953 483.6C792.953 481.4 791.953 478.6 788.353 478.6C784.953 478.6 783.153 481.6 783.353 485.2C783.553 489.6 783.553 495.4 782.553 503.4C780.753 517.8 777.353 532.8 748.353 532.8C723.153 532.8 712.353 519.8 712.353 498.8C712.353 483.6 719.353 478.2 728.953 480C733.153 480.8 737.353 481.2 742.553 481.2C764.553 481.2 777.553 468.8 777.553 448.6C777.553 442.6 775.753 437 774.753 435C773.353 432.2 771.353 430.8 768.753 431.6C766.353 432.4 765.753 434.6 766.553 437.8C767.153 440.4 768.153 443 768.153 447C768.153 459.8 760.553 472.4 740.953 472.4C726.153 472.4 714.753 465.2 714.753 450.8C714.753 428.2 736.753 418.6 768.753 419.2ZM756.353 504C756.353 505.6 756.353 507.6 756.553 510.4C756.753 513.2 758.153 515.4 761.553 515.4C765.153 515.4 765.953 513.2 766.153 510.4C766.353 507.6 766.353 505.6 766.353 504C766.353 502.6 766.353 500.4 766.153 497.6C765.953 494.8 764.153 492.6 761.753 492.6C758.353 492.6 756.753 494.8 756.553 497.6C756.353 500.4 756.353 502.4 756.353 504Z" fill="#0073FE"/>
</svg>
