<svg width="900" height="900" viewBox="0 0 900 900" fill="none" xmlns="http://www.w3.org/2000/svg">
<g clip-path="url(#clip0)">
<rect width="900" height="900" fill="#E2A6FF"/>
<path d="M220.519 650.772C268.518 661.127 300.625 632.3 309.587 590.762C318.548 549.225 296.237 505.782 243.623 494.431C179.009 480.49 141.35 527.429 130.108 572.822C129.809 574.206 128.226 574.831 127.303 574.631C126.38 574.432 124.733 573.111 125.131 571.265C133.449 541.664 145.613 521.104 165.587 504.643C185.56 488.183 177.299 477.223 147.761 470.851C107.146 462.088 80.0869 475.571 68.1383 530.954L43.4444 645.413C31.4957 700.797 57.0506 725.63 97.6651 734.393C138.28 743.155 168.108 730.27 180.057 674.887L185.035 651.81C187.724 639.349 175.489 640.09 165.653 622.995C158.35 609.827 154.813 592.642 158.596 575.104C164.869 546.027 184.246 532.336 201.404 524.446C202.427 524.184 203.649 522.998 204.934 523.758C206.219 524.519 207.766 526.302 206.083 527.387C189.449 537.323 170.707 545.838 164.035 576.76C158.459 602.606 168.366 639.52 220.519 650.772Z" fill="#A117E6"/>
<path d="M113.101 860.883C80.9748 882.353 79.8671 917.949 95.4585 941.279C109.261 961.932 128.788 968.799 150.986 967.243C150.986 967.243 152.008 968.772 151.116 969.922C150.225 971.071 147.546 971.201 147.546 971.201C126.371 974.288 104.927 965.381 90.8691 944.346C71.4437 915.28 79.9468 875.848 110.543 855.4C123.929 846.454 136.302 844.271 151.225 840.937C168.572 837.09 157.57 810.693 143.256 789.276C127.92 766.328 112.603 759.967 82.0072 780.415L17.7551 823.355C16.6078 824.122 14.9492 824.124 13.9268 822.594C12.9044 821.064 13.5406 819.532 14.688 818.765L55.9929 791.161C67.8489 783.237 79.9624 777.355 74.3393 768.941C45.968 726.489 18.9256 730.73 -14.7302 753.222C-48.3861 775.715 -61.8743 806.86 -31.2026 852.754L56.2116 983.553C89.4392 1033.27 138.17 1028.37 175.65 1003.32C213.13 978.271 239.616 933.46 206.389 883.742C190.03 859.265 154.023 833.534 113.101 860.883Z" fill="#A117E6"/>
<path d="M687.339 390.858C632.962 351.375 572.032 338.276 510.36 393.597L350.076 536.735C298.102 582.784 319.71 629.616 362.435 660.638C410.015 695.186 457.75 700.928 491.592 654.319L498.996 644.123C510.276 628.587 502.947 620.299 493.723 613.601C471.875 597.737 447.778 583.948 434.23 577.077C427.214 573.465 418.388 569.282 420.855 565.883C423.676 561.999 427.074 564.467 438.813 570.766C460.349 581.954 490.404 600.811 519.535 621.963C548.18 642.762 576.387 666.208 595.281 685.118C602.963 692.92 605.657 696.359 602.923 698.082C599.351 699.937 594.23 694.736 586.548 686.934C577.896 678.426 557.325 659.782 535.477 643.919C526.252 637.221 516.103 632.817 504.822 648.354L497.419 658.549C463.576 705.159 483.813 748.771 531.393 783.319C574.118 814.341 624.281 821.846 653.036 756.713L739.037 559.639C772.196 484.357 741.717 430.342 687.339 390.858ZM501.551 468.023C505.695 464.358 509.273 470.663 516.821 477.627C526.312 486.002 534.346 493.318 561.668 513.898C582.192 529.542 585.365 525.172 596.646 509.636L628.726 465.454C632.252 460.599 633.748 456.496 637.632 459.316C641.517 462.136 637.725 465.315 634.553 469.685L602.472 513.866C591.191 529.403 588.019 533.772 609.248 548.446C637.275 568.054 646.234 573.076 657.135 579.508C666.579 584.883 673.682 586.333 671.347 590.57C669.718 593.835 665.481 591.501 654.846 586.745C638.651 579.434 609.52 558.283 580.875 537.483C551.744 516.332 523.452 495.047 510.649 482.043C502.482 473.889 498.112 470.716 501.551 468.023Z" fill="#A117E6"/>
<path d="M289.4 662.009C219.8 661.209 173.4 696.009 173.4 771.209C173.4 858.009 219 889.209 289.4 889.209C356.6 889.209 391 860.809 391 806.809C391 796.009 389.8 779.209 380.2 784.009C365.8 791.209 354.6 793.609 338.6 793.609C322.2 793.609 309.8 791.209 296.2 784.009C287.8 779.609 283.8 789.209 285.4 813.609C287 836.409 291 850.809 293 858.409C293.4 860.009 291.4 861.209 290.2 861.209C289.4 861.209 289 860.809 288.6 860.009C282.6 841.209 278.2 812.809 278.6 774.009C279 735.209 284.2 704.009 290.2 687.209C290.6 686.409 291 686.009 292.6 686.009C293.4 686.009 295 687.209 294.6 688.809C292.2 698.809 288.2 713.609 287.4 724.009C284.2 758.409 284.2 788.809 341 788.809C373.4 788.809 391 775.209 391 736.009C391 684.809 348.6 662.809 289.4 662.009Z" fill="#A117E6"/>
<path d="M588.776 32.1484C570.777 -10.1842 540.883 -48.546 461.74 -14.8961C443.335 -7.07057 410.596 7.93569 430.03 30.642C439.845 42.2252 456.333 61.8373 474.078 101.018C495.805 148.285 497.203 187.353 497.239 197.661C497.101 199.892 496.112 201.4 494.732 201.986C493.351 202.573 491.58 202.24 491.257 200.204C490.174 188.711 490.41 152.209 467.901 103.101C444.609 52.1525 416.509 6.50831 359.452 30.7675C314.359 49.9401 299.8 89.8156 323.277 145.032C352.036 212.672 405.301 268.483 440.616 248.035C443.181 246.401 448.507 243.593 451.728 242.224C496.822 223.051 532.61 243.906 543.957 270.594C554.131 294.521 546.714 321.691 530.518 337.27C530.518 337.27 528.804 339.628 527.228 339.755C525.652 339.882 524.87 338.041 524.87 338.041C540.283 320.622 547.953 296.604 537.976 273.137C527.215 247.83 497.329 229.355 453.616 247.941C417.725 263.201 409.102 302.348 422.014 332.717C438.447 371.369 482.714 385.847 530.108 365.697C607.411 332.829 652.163 181.233 588.776 32.1484Z" fill="#A117E6"/>
<path d="M710.724 806.459C711.916 806.052 713.38 806.439 713.923 808.029C718.121 819.022 721.922 830.151 725.451 840.485C729.388 852.011 732.782 861.948 736.456 874.007C736.999 875.597 736.079 876.799 734.886 877.206C733.694 877.614 732.23 877.226 731.687 875.636C727.217 863.848 723.824 853.912 719.887 842.385C716.358 832.051 712.557 820.923 709.153 809.658C708.61 808.068 709.531 806.866 710.724 806.459ZM617.403 921.769C642.923 996.491 702.855 1018.63 772.808 994.738C831.234 974.784 857.038 925.583 843.599 886.235C839.119 873.119 823.53 866.46 810.095 881.7C799.558 893.731 785.696 905.123 764.233 912.453C740.783 920.462 724.962 918.321 719.911 917.827C716.722 917.584 716.45 916.789 716.305 915.064C716.295 913.736 718.011 912.262 720.269 912.378C732.63 913.483 744.311 912.6 759.948 907.703C793.742 897.493 835.454 862.387 818.079 811.513C802.74 766.6 756.119 748.348 692.525 770.067C624.162 793.416 591.884 847.046 617.403 921.769Z" fill="#A117E6"/>
<path d="M-45.941 124.281C-87.4921 138.756 -103.577 165.538 -83.8388 222.199L-16.8726 415.953C2.86548 472.613 32.5812 483.441 74.1322 468.966C115.683 454.491 122.855 423.402 106.445 414.293L32.2003 372.914C30.7625 371.827 30.1046 369.938 30.72 368.665C31.3354 367.391 33.6962 366.569 35.134 367.656L121.804 415.826C146.819 429.879 163.68 437.242 187.761 428.853C216.091 418.984 236.956 383.124 227.745 356.683C220.672 336.38 202.681 327.292 171.156 311.271L83.7485 267.065C81.8385 266.142 81.3451 264.725 82.2682 262.815C82.8835 261.542 84.3 261.049 86.21 261.972L131.269 284.926C145.912 292.003 163.255 276.431 171.462 263.512C181.064 248.519 182.947 235.685 179.471 224.189C175.338 210.804 167.035 193.047 145.51 179.896C121.275 165.042 78.3383 158.82 59.8983 198.6C47.7553 224.539 36.965 245.241 -3.74228 263.657C-5.63096 264.315 -7.54093 263.392 -8.03438 261.975C-8.52783 260.559 -8.07693 258.813 -6.18825 258.155C4.81487 253.263 19.0806 244.058 30.3063 232.206C43.8716 217.95 53.1447 202.012 47.8813 186.902L44.5916 177.459C24.8535 120.798 -4.39003 109.807 -45.941 124.281Z" fill="#A117E6"/>
<path d="M424.194 757.331C395.058 777.082 384.17 803.792 409.307 840.875L410.205 842.2C415.143 849.484 418.465 848.682 426.456 849.064C440.771 849.508 462.106 853.892 484.09 884.897C484.763 885.891 484.112 887.782 483.45 888.231C482.457 888.904 480.79 888.584 480.117 887.591C450.395 845.884 411.692 847.957 380.899 868.83C337.526 898.232 333.353 946.969 375.548 1009.22C417.743 1071.46 465.009 1086.3 508.383 1056.89C547.783 1030.19 548.436 999.782 527.474 957.452C527.132 956.235 527.345 955.124 528.338 954.45C529.001 954.001 531.329 953.872 532.227 955.197C539.998 970.225 545.003 986.162 547.561 1001.34C552.087 1027.27 591.488 1000.56 600.428 994.499C632.875 972.504 630.189 954.995 603.255 915.264L509.108 777.089C482.175 737.358 453.331 737.58 424.194 757.331ZM512.791 1009.93C504.953 986.25 490.106 960.071 476.864 940.536C464.295 921.994 444.802 897.515 426.156 882.127C424.927 881.027 425.803 879.467 426.796 878.794C427.789 878.121 428.9 878.334 430.129 879.434C449.438 894.373 468.931 918.852 481.5 937.394C494.742 956.928 509.588 983.107 516.764 1007.24C517.331 1008.79 517.117 1009.9 516.124 1010.57C515.131 1011.24 513.357 1011.48 512.791 1009.93Z" fill="#A117E6"/>
<path d="M326.137 404.335C278.056 419.744 266.516 435.636 278.38 472.658C290.245 509.679 308.873 515.903 356.955 500.494C405.036 485.084 415.035 464.384 404.711 432.171C392.847 395.15 374.218 388.925 326.137 404.335ZM326.906 187.776C311.806 140.658 289.434 130.862 243.238 145.667C197.043 160.472 184.532 181.447 199.633 228.565L258.811 411.597C263.434 426.021 269.707 426.131 283.404 416.969C292.379 410.912 307.164 403.523 324.134 398.084C341.104 392.646 356.959 390.216 367.782 389.928C384.253 389.421 389.765 385.534 385.142 371.11L326.906 187.776Z" fill="#A117E6"/>
<path d="M984.913 1054C936.832 1069.41 925.222 1085.08 936.854 1121.38C948.487 1157.68 967.046 1163.69 1015.13 1148.28C1063.21 1132.87 1073.31 1112.48 1063.19 1080.89C1051.55 1044.6 1032.99 1038.59 984.913 1054ZM986.913 841.28C972.108 795.084 949.832 785.59 903.637 800.395C857.441 815.2 844.834 835.874 859.639 882.069L917.668 1061.52C922.2 1075.66 928.461 1075.73 942.186 1066.65C951.179 1060.65 965.979 1053.31 982.949 1047.87C999.919 1042.43 1015.76 1039.96 1026.56 1039.61C1043.01 1039.02 1048.53 1035.17 1044 1021.03L986.913 841.28Z" fill="#A117E6"/>
<path d="M-18.2867 88.5968C6.55283 118.54 37.0995 127.665 75.2093 96.0514L76.5703 94.9224C84.0562 88.7125 82.8188 85.1435 82.3857 76.3121C81.3455 60.5168 83.8897 36.5782 115.65 9.08224C116.671 8.23544 118.821 8.74971 119.386 9.43024C120.232 10.451 120.058 12.3186 119.038 13.1654C76.3305 50.3165 82.7454 92.6719 108.996 124.317C145.973 168.891 200.033 168.276 264.003 115.21C327.973 62.1438 339.244 8.56339 302.267 -36.0114C268.677 -76.503 235.161 -73.9741 190.834 -46.393C189.531 -45.8865 188.286 -46.0025 187.439 -47.0233C186.874 -47.7038 186.484 -50.252 187.845 -51.381C203.547 -61.535 220.545 -68.7425 236.971 -73.1776C265.008 -80.9265 231.418 -121.418 223.797 -130.605C196.135 -163.951 177.161 -159.126 136.329 -125.253L-5.61983 -6.92534C-46.4517 26.9468 -43.1263 58.6534 -18.2867 88.5968ZM250.133 -35.845C224.918 -24.6934 197.705 -5.56494 177.629 11.0889C158.574 26.8958 133.727 50.9543 118.79 73.1104C117.712 74.5797 115.902 73.7832 115.055 72.7624C114.208 71.7416 114.324 70.4965 115.403 69.0272C129.775 46.1906 154.623 22.1321 173.677 6.32513C193.753 -10.3287 220.967 -29.4571 246.746 -39.9282C248.389 -40.717 249.634 -40.601 250.481 -39.5802C251.328 -38.5594 251.776 -36.6338 250.133 -35.845Z" fill="#A117E6"/>
<path d="M807.414 277.057L751.885 350.911C723.192 389.393 734.86 420.338 766.09 444.031C811.978 478.845 872.615 465.101 930.639 388.621C959.651 350.381 968.399 316.348 936.533 292.172C903.073 266.786 868.852 292.037 835.983 333.376C804.4 373.682 799.574 407.176 794.068 419.065C793.42 420.582 792.695 421.538 791.178 420.889C789.981 420.483 789.189 418.878 789.838 417.362C793.344 405.461 801.938 370.308 831.917 330.793C855.127 300.201 869.017 291.158 885.875 280.851C904.336 269.753 875.547 238.874 848.779 218.565C824.879 200.433 783.715 179.244 778.165 199.134C774.978 211.277 770.867 231.254 745.24 265.033C715.261 304.548 683.722 322.293 673.206 328.875C671.601 329.666 670.162 329.578 669.447 328.534C668.733 327.491 669.14 326.293 670.426 325.26C680.393 316.755 711.349 303.086 741.658 261.813C772.615 219.024 788.682 177.992 755.222 152.606C723.355 128.43 691.971 147.296 662.959 185.536C604.935 262.016 601.658 319.279 653.919 358.929C685.148 382.622 718.093 385.525 747.424 347.526L803.59 274.156C805.041 272.244 806.404 271.771 807.678 272.738C808.953 273.706 808.865 275.145 807.414 277.057Z" fill="#A117E6"/>
<path d="M858.986 569.928C847.499 608.243 867.427 639.273 919.631 654.924C961.299 667.416 992.762 656.492 1002.96 622.487C1019.61 566.93 976.407 524.745 904.088 503.063C841.347 484.253 768.552 483.308 747.301 554.191C740.552 576.701 742.186 609.554 762.636 610.987C784.187 612.229 811.966 620.557 829.448 633.628C862.45 657.616 870.118 691.234 860.354 723.802C856.908 735.297 848.816 744.876 841.777 752.684C841.011 753.498 838.808 753.882 837.659 752.493C836.509 751.104 837.083 749.189 839.238 747.225C844.744 741.046 851.591 732.137 855.037 720.642C867.386 679.454 844.295 638.08 792.57 622.572C740.845 607.064 719.92 631.588 711.018 661.282C695.079 714.445 743.504 751.408 814.866 772.803C867.07 788.454 950.308 805.058 972.995 729.386C981.611 700.649 976.719 664.732 962.017 665.022C935.15 665.841 897.554 657.179 876.479 640.421C845.537 616.528 847.639 586.883 853.382 567.726C860.131 545.216 874.688 534.964 885.894 528.928C887.139 528.257 888.719 528.209 889.39 529.454C890.06 530.699 889.151 531.992 887.906 532.663C873.3 541.334 864.299 552.207 858.986 569.928Z" fill="#A117E6"/>
<path d="M621.658 -14.2468C599.435 29.4239 603.208 65.005 655.345 91.5369L820.67 175.668C872.362 201.973 903.347 184.08 925.57 140.409C947.793 96.7385 944.02 61.1575 892.329 34.8523L874.949 26.0084C860.69 18.7518 857.984 21.8632 850.962 34.5594C840.312 54.3855 833 76.4713 825.915 98.1115C825.235 99.4484 823.217 100.105 821.881 99.4246C820.544 98.7443 819.887 96.7272 820.567 95.3903C830.163 66.6123 841.76 39.4137 855.366 12.6765C868.745 -13.615 884.361 -39.8906 901.751 -64.1413C902.876 -65.2513 904.448 -66.1347 905.785 -65.4543C907.122 -64.774 907.778 -62.7569 907.098 -61.42C893.774 -42.9546 880.223 -24.0435 870.464 -3.76386C864.334 9.38586 863.411 13.4043 877.671 20.6609L895.05 29.5049C946.742 55.81 977.727 37.9168 999.95 -5.75381C1022.17 -49.4245 1018.4 -85.0056 966.709 -111.311L801.157 -194.996C749.02 -221.528 718.261 -204.08 696.038 -160.41C673.815 -116.739 677.588 -81.158 729.725 -54.6261L751.56 -43.5145C765.375 -36.4847 769.198 -39.5882 775.329 -52.7379C785.088 -73.0175 793.283 -93.5318 800.368 -115.172C801.049 -116.509 803.066 -117.165 804.403 -116.485C805.739 -115.805 805.95 -114.014 805.716 -112.451C796.793 -83.8916 784.523 -56.4742 771.144 -30.1827C757.538 -3.44553 742.822 22.1657 724.759 46.6351C724.079 47.972 722.062 48.6285 720.725 47.9482C719.388 47.2679 718.732 45.2508 719.412 43.9139C732.736 25.4484 744.723 6.30265 755.373 -13.5234C762.395 -26.2196 762.653 -31.1372 748.839 -38.1671L727.004 -49.2787C674.867 -75.8106 643.881 -57.9174 621.658 -14.2468Z" fill="#A117E6"/>
<path d="M-161.2 385.2C-200.8 385.2 -230.95 403.2 -230.95 457.2L-231.4 645.3C-231.4 699.3 -217.9 717.3 -172 717.3C-146.8 717.3 -121.15 707.85 -130.15 679.05C-134.2 666.9 -138.25 654.3 -140.05 638.1C-140.5 635.85 -139.6 633.6 -137.8 633.6C-136 633.6 -135.1 635.4 -135.1 635.85C-127.45 689.4 -108.55 717.3 -53.6499 717.3C5.3001 717.3 39.9501 673.65 39.9501 589.05C39.9501 504.45 5.3001 461.7 -53.6499 461.7C-95.4999 461.7 -132.85 484.2 -134.2 541.35C-134.2 543.15 -135.1 544.5 -136.9 544.5C-138.7 544.5 -139.6 543.15 -139.6 541.8C-138.7 499.05 -120.25 481.5 -108.55 472.05C-101.35 466.2 -97.7499 462.6 -97.7499 454.5C-97.7499 403.2 -121.6 385.2 -161.2 385.2ZM-104.05 589.05C-104.05 563.85 -101.35 528.75 -93.2499 503.1C-92.3499 500.85 -91.4499 499.95 -90.0999 499.95C-88.7499 499.95 -86.9499 500.85 -87.8499 504C-95.0499 528.75 -98.1999 563.85 -98.1999 589.05C-98.1999 615.6 -95.0499 649.35 -87.8499 675C-86.9499 678.15 -88.7499 679.05 -90.0999 679.05C-91.4499 679.05 -92.3499 678.15 -92.7999 676.35C-101.35 649.35 -104.05 615.6 -104.05 589.05Z" fill="#A117E6"/>
</g>
<defs>
<clipPath id="clip0">
<rect width="900" height="900" fill="white"/>
</clipPath>
</defs>
</svg>
