<svg width="1600" height="900" viewBox="0 0 1600 900" fill="none" xmlns="http://www.w3.org/2000/svg">
<rect width="1600" height="900" fill="#FFB3EC"/>
<path d="M175.568 111.1C148.268 111.1 123.968 128.2 123.968 160.6L123.668 271.9C123.668 304.9 138.368 315.7 162.968 315.7C187.868 315.7 197.468 305.5 196.868 285.4C196.868 282.4 195.368 275.8 193.868 271L163.868 170.2C163.268 168.1 165.368 166.9 166.268 166.6C167.168 166.3 168.668 166.9 169.568 169L204.368 285.4C210.968 308.2 220.868 315.7 243.368 315.7C259.868 315.7 276.668 310 277.268 281.5C278.768 231.7 290.468 202.6 313.868 168.4C314.768 166.9 316.868 165.7 318.068 166.6C318.968 167.2 320.168 168.4 318.668 171.1C302.468 198.4 283.568 222.4 283.568 279.7C283.568 308.2 297.068 315.7 321.368 315.7C345.968 315.7 360.668 304.6 360.668 271L360.368 160.6C360.368 128.2 340.268 111.1 310.268 111.1C279.368 111.1 263.468 126.7 254.468 151.9L225.068 235.9C224.168 238 223.268 238.9 221.768 238.9C219.668 238.9 218.468 237.1 219.968 233.5L236.168 187.6C237.968 182.2 237.968 178.3 236.768 175.3L228.968 152.8C219.368 125.8 207.668 111.1 175.568 111.1Z" fill="#CC0088"/>
<path d="M449.569 145.3C497.569 146.2 528.169 160.3 528.169 206.2V261.7C528.169 297.7 523.369 315.7 494.569 315.7C468.169 315.7 469.669 305.5 473.269 298.9C477.169 292.6 480.169 285.1 481.669 276.7C484.069 265.6 484.069 252.4 483.169 240.4C483.169 238.6 482.269 236.8 479.869 237.1C478.069 237.4 477.169 238.9 477.169 241C477.769 250.9 477.769 259.6 476.269 271.6C473.569 293.2 462.469 315.7 421.069 315.7C381.169 315.7 364.969 296.2 364.969 264.7C364.969 240.4 378.169 227.5 389.869 230.8C398.569 233.5 405.469 233.8 411.469 233.8C445.369 233.8 460.369 211 460.069 187.6C459.769 178 457.369 171.1 455.269 166C454.369 163.9 452.869 163 451.369 163.6C449.569 164.2 449.269 165.7 449.869 168.1C451.669 173.2 453.769 178.6 453.769 187C453.769 206.2 442.069 227.8 410.569 227.8C384.769 227.8 367.669 214.3 367.669 192.7C367.669 158.8 401.569 144.4 449.569 145.3ZM443.569 263.5C443.569 268 443.569 273.4 443.869 278.5C443.869 280.3 444.769 281.8 446.869 281.8C448.669 281.8 449.869 280.3 449.869 278.5C450.169 273.4 450.169 268 450.169 263.5C450.169 259 450.169 253.6 449.869 248.5C449.869 246.4 448.369 245.2 446.869 245.2C444.769 245.2 443.869 246.4 443.869 248.5C443.569 253.6 443.569 258.7 443.569 263.5Z" fill="#CC0088"/>
<path d="M619.833 145.3C567.633 144.7 532.833 171.4 532.833 227.8C532.833 290.8 567.033 315.7 619.833 315.7C670.533 315.7 696.033 293.2 696.033 253.6C696.033 245.8 693.933 235.3 686.733 238.9C677.133 243.7 668.733 245.5 657.933 245.5C645.633 245.5 636.033 243.4 627.033 238.9C619.833 235.6 616.533 242.2 617.433 258.7C618.633 273.4 621.633 284.8 622.833 289.9C623.133 292 621.633 293.2 620.133 293.5C618.633 293.5 617.733 293.2 616.833 291.4C612.633 279.1 609.633 257.5 609.933 229.6C610.233 201.4 614.133 178.6 618.333 167.5C619.233 165.7 620.433 164.8 622.233 165.1C623.433 165.4 624.633 166.9 624.333 169C622.533 175.9 619.533 186.7 619.233 195.1C617.433 218.8 621.033 239.2 659.133 239.2C683.433 239.2 696.033 227.8 696.033 200.5C696.033 163 664.233 145.9 619.833 145.3Z" fill="#CC0088"/>
<path d="M750.197 315.7C777.797 315.7 788.897 305.5 787.097 290.2C785.597 277.9 783.797 264.7 784.097 239.5C784.697 202.6 795.497 175.9 799.697 166.9C801.197 164.5 802.997 163.6 804.797 164.2C805.697 164.5 806.897 166 805.997 168.4C802.397 178.6 791.897 199.6 790.997 239.8C790.397 267.1 792.797 286.6 799.397 298.3C805.397 309.7 816.497 315.7 835.697 315.7C861.497 315.7 876.497 303.7 876.497 267.7V205.3C876.497 166.3 859.697 146.2 824.297 146.2C775.997 146.2 766.697 181.3 765.197 212.2C765.197 214.6 763.697 216.1 761.597 216.1C760.097 215.8 758.597 214.6 758.897 211.9C759.197 190.3 763.697 170.5 778.997 155.2C785.897 148.3 787.997 145.6 787.997 138.4C787.997 106.3 772.397 94 745.997 94C719.597 94 700.397 106.9 700.397 142.3V266.2C700.397 303.7 718.397 315.7 750.197 315.7Z" fill="#CC0088"/>
<path d="M922.795 151.9C952.495 151.9 962.995 145.9 962.995 123.1C962.995 100.3 952.495 94.3 922.795 94.3C893.395 94.3 882.595 103.3 882.595 123.1C882.595 145.9 893.395 151.9 922.795 151.9ZM882.295 276.7C882.295 306.1 893.395 315.7 922.795 315.7C952.195 315.7 963.295 306.1 963.295 276.7L962.995 163.9C962.995 154.3 959.095 152.5 949.795 154.9C943.195 156.7 933.295 157.9 922.795 157.9C912.295 157.9 902.695 156.7 896.395 154.9C886.795 152.5 882.595 154.3 882.595 163.9L882.295 276.7Z" fill="#CC0088"/>
<path d="M1104.88 315.7C1132.78 315.7 1145.08 297.7 1145.08 261.7V205.3C1145.08 166.3 1128.28 145.3 1092.88 145.3C1049.68 145.3 1039.78 178.3 1036.48 211C1036.48 212.5 1035.28 214.3 1032.88 214.3C1031.08 214 1029.88 212.5 1030.18 210.7C1032.58 185.2 1036.18 176.8 1041.58 163.9C1049.68 145.3 1034.98 145.3 1010.98 145.3C983.679 145.3 968.979 163.3 968.979 199.3V261.7C968.979 297.7 983.679 315.7 1016.68 315.7C1036.48 315.7 1062.28 312.4 1058.08 292.3C1056.28 283.9 1052.08 272.5 1051.78 248.8C1051.48 205.6 1064.38 180.4 1068.58 172C1069.78 170.2 1071.28 169.3 1073.08 169.9C1074.58 170.5 1075.48 171.7 1074.88 173.8C1071.88 183.4 1058.98 202.3 1058.98 249.1C1058.98 268.3 1061.38 283 1068.58 297.4C1075.48 311.2 1088.38 315.7 1104.88 315.7Z" fill="#CC0088"/>
<path d="M1239.68 173.5C1240.88 173.5 1242.68 174.1 1242.68 176.8C1243.28 184.6 1243.28 192.1 1243.28 199.3C1243.28 207.1 1243.28 214 1242.68 222.1C1242.68 224.8 1240.88 225.4 1239.68 225.4C1238.18 225.4 1236.38 224.8 1236.38 222.1C1236.08 214 1236.08 207.1 1236.08 199.3C1236.08 192.1 1236.08 184.6 1236.38 176.8C1236.68 174.1 1238.18 173.5 1239.68 173.5ZM1149.98 230.5C1149.98 289 1187.48 315.7 1238.78 315.7C1282.58 315.7 1310.48 289 1310.48 260.8C1310.48 250.9 1301.48 244 1290.08 250.3C1280.48 256 1268.78 260.2 1253.78 260.2C1236.08 260.2 1224.98 255.4 1220.78 253.6C1218.08 252.1 1218.08 250.6 1218.38 249.1C1219.28 247.3 1221.38 246.7 1223.78 247.6C1231.28 250.6 1239.38 253.3 1251.98 253.3C1276.58 254.2 1310.18 240.7 1310.48 202.9C1310.78 168.4 1283.78 145.3 1235.78 145.3C1184.18 145.3 1149.98 174.1 1149.98 230.5Z" fill="#CC0088"/>
<path d="M1387.8 191.8C1387.8 214.3 1404.6 227.5 1433.7 227.5C1458 227.5 1473.3 215.8 1473.3 195.7C1473.3 162.1 1442.1 145.3 1396.8 145.3C1357.5 145.3 1316.1 157.3 1316.1 201.7C1316.1 215.8 1322.7 232.6 1336.2 230.8C1347.9 228.4 1363.5 228.7 1375.2 233.2C1398.3 241.3 1407.6 259.3 1407.6 278.8C1407.6 286 1404.9 292.3 1402.5 297.4C1401.9 298.6 1400.4 299.5 1398.6 298.9C1397.1 298.3 1396.5 296.5 1397.4 294.4C1398.9 290.2 1401 284.2 1401 277.6C1401 254.2 1382.7 235.3 1352.4 235.3C1322.1 235.3 1313.7 253 1313.7 270.7C1313.7 303.4 1348.8 315.7 1392 315.7C1424.7 315.7 1474.8 310.9 1474.8 263.5C1474.8 245.5 1465.5 227.2 1456.5 229.6C1442.4 233.8 1421.7 235 1406.7 229C1384.8 220.6 1381.2 202.9 1381.2 191.8C1381.2 178.3 1386.6 170.2 1391.4 165.4C1392.3 163.9 1394.1 163 1395.9 163.9C1397.4 164.8 1397.1 166.6 1396.2 168.4C1390.8 174.7 1387.8 181.6 1387.8 191.8Z" fill="#CC0088"/>
<path d="M181.98 497.8C175.98 497.2 150.48 496 143.88 470.2C142.98 466.3 142.38 463.3 144.78 462.4C147.48 461.2 149.28 464.5 150.18 468.4C156.18 491.8 178.98 491.5 192.18 491.5H205.98C228.18 491.5 240.18 476.2 240.18 450.7C240.18 426.7 230.88 427.6 222.48 429.1C218.58 429.7 210.48 430.6 202.38 430.6H193.98C166.08 430.6 143.88 420.7 140.88 385.6C140.58 382.9 140.58 380.8 142.68 379.6C145.38 378.4 147.18 380.5 147.48 383.5C148.98 415.3 168.78 424.3 195.48 424.3H205.68C236.28 424.3 244.98 410.8 244.98 388.3C244.98 367.6 234.48 352.3 208.68 352.3H152.28C122.88 352.3 102.78 366.4 102.78 402.4V507.7C102.78 543.7 119.88 555.7 149.28 555.7C178.68 555.7 191.58 543.7 191.58 509.2V506.8C191.58 501.4 188.58 498.1 181.98 497.8Z" fill="#CC0088"/>
<path d="M290.545 391.9C320.245 391.9 330.745 385.9 330.745 363.1C330.745 340.3 320.245 334.3 290.545 334.3C261.145 334.3 250.345 343.3 250.345 363.1C250.345 385.9 261.145 391.9 290.545 391.9ZM250.045 516.7C250.045 546.1 261.145 555.7 290.545 555.7C319.945 555.7 331.045 546.1 331.045 516.7L330.745 403.9C330.745 394.3 326.845 392.5 317.545 394.9C310.945 396.7 301.045 397.9 290.545 397.9C280.045 397.9 270.445 396.7 264.145 394.9C254.545 392.5 250.345 394.3 250.345 403.9L250.045 516.7Z" fill="#CC0088"/>
<path d="M424.029 465.7L424.629 381.4C424.929 345.4 407.229 333.4 380.829 333.4C354.429 333.4 337.029 345.4 337.029 381.4L336.729 506.8C336.729 542.8 361.329 555.7 385.329 555.7C412.929 555.7 430.929 538 430.929 511.3C430.929 488.5 420.129 473.8 397.029 473.8C371.229 473.8 362.829 493.6 362.829 505.9C362.829 519.7 370.029 529.3 379.629 534.7C380.829 535.3 380.529 537.4 379.329 538.3C378.129 538.6 375.729 538.6 374.529 538C364.329 532.6 355.929 521.8 355.929 505.9C355.929 489.4 367.929 467.2 395.229 467.2C399.429 467.2 403.929 467.8 409.029 468.7C415.929 470.5 424.029 475 424.029 465.7Z" fill="#CC0088"/>
<path d="M518.51 385.3C566.51 386.2 597.11 400.3 597.11 446.2V501.7C597.11 537.7 592.31 555.7 563.51 555.7C537.11 555.7 538.61 545.5 542.21 538.9C546.11 532.6 549.11 525.1 550.61 516.7C553.01 505.6 553.01 492.4 552.11 480.4C552.11 478.6 551.21 476.8 548.81 477.1C547.01 477.4 546.11 478.9 546.11 481C546.71 490.9 546.71 499.6 545.21 511.6C542.51 533.2 531.41 555.7 490.01 555.7C450.11 555.7 433.91 536.2 433.91 504.7C433.91 480.4 447.11 467.5 458.81 470.8C467.51 473.5 474.41 473.8 480.41 473.8C514.31 473.8 529.31 451 529.01 427.6C528.71 418 526.31 411.1 524.21 406C523.31 403.9 521.81 403 520.31 403.6C518.51 404.2 518.21 405.7 518.81 408.1C520.61 413.2 522.71 418.6 522.71 427C522.71 446.2 511.01 467.8 479.51 467.8C453.71 467.8 436.61 454.3 436.61 432.7C436.61 398.8 470.51 384.4 518.51 385.3ZM512.51 503.5C512.51 508 512.51 513.4 512.81 518.5C512.81 520.3 513.71 521.8 515.81 521.8C517.61 521.8 518.81 520.3 518.81 518.5C519.11 513.4 519.11 508 519.11 503.5C519.11 499 519.11 493.6 518.81 488.5C518.81 486.4 517.31 485.2 515.81 485.2C513.71 485.2 512.81 486.4 512.81 488.5C512.51 493.6 512.51 498.7 512.51 503.5Z" fill="#CC0088"/>
<path d="M741.274 555.7C761.374 555.7 788.074 551.5 782.674 535.9C778.774 524.5 776.374 510.4 776.674 488.5C776.674 445.6 786.574 420.1 789.874 412.6C790.774 410.8 792.574 409.9 794.074 410.5C795.874 411.1 796.774 412.3 796.174 414.7C793.774 422.2 784.174 441.7 784.174 489.1C784.174 529.9 789.874 555.7 823.774 555.7C853.174 555.7 861.274 538.9 861.274 502.9V445.3C861.274 406.3 850.474 385.3 815.674 385.3C785.374 385.3 764.674 404.8 761.374 449.8C761.374 452.2 759.874 453.1 758.374 453.1C757.174 453.1 754.774 451.9 754.774 449.5C755.674 434.8 759.274 422.5 762.874 413.2C770.674 391.9 750.274 385.3 728.674 385.3C682.774 385.3 673.174 417.4 671.674 450.1C671.674 452.2 670.174 453.4 668.674 453.4C667.474 453.1 665.374 452.2 665.374 449.8C666.574 425.2 670.174 416.8 675.574 403.9C682.774 386.8 669.274 385.3 647.374 385.3C620.674 385.3 604.474 406.3 604.474 442.3V498.7C604.474 534.7 619.174 555.7 655.174 555.7C674.374 555.7 696.574 550 692.974 534.7C690.574 525.1 688.174 507.7 688.174 488.8C688.174 445.6 698.074 420.1 701.374 412.6C702.574 410.5 704.674 410.2 705.574 410.5C706.474 410.8 708.574 411.7 707.674 414.7C705.274 422.2 695.674 441.7 695.674 489.1C695.674 535.9 698.374 555.7 741.274 555.7Z" fill="#CC0088"/>
<path d="M957.162 413.5C958.362 413.5 960.162 414.1 960.162 416.8C960.762 424.6 960.762 432.1 960.762 439.3C960.762 447.1 960.762 454 960.162 462.1C960.162 464.8 958.362 465.4 957.162 465.4C955.662 465.4 953.862 464.8 953.862 462.1C953.562 454 953.562 447.1 953.562 439.3C953.562 432.1 953.562 424.6 953.862 416.8C954.162 414.1 955.662 413.5 957.162 413.5ZM867.462 470.5C867.462 529 904.962 555.7 956.262 555.7C1000.06 555.7 1027.96 529 1027.96 500.8C1027.96 490.9 1018.96 484 1007.56 490.3C997.962 496 986.262 500.2 971.262 500.2C953.562 500.2 942.462 495.4 938.262 493.6C935.562 492.1 935.562 490.6 935.862 489.1C936.762 487.3 938.862 486.7 941.262 487.6C948.762 490.6 956.862 493.3 969.462 493.3C994.062 494.2 1027.66 480.7 1027.96 442.9C1028.26 408.4 1001.26 385.3 953.262 385.3C901.662 385.3 867.462 414.1 867.462 470.5Z" fill="#CC0088"/>
<path d="M1168.58 555.7C1196.48 555.7 1208.78 537.7 1208.78 501.7V445.3C1208.78 406.3 1191.98 385.3 1156.58 385.3C1113.38 385.3 1103.48 418.3 1100.18 451C1100.18 452.5 1098.98 454.3 1096.58 454.3C1094.78 454 1093.58 452.5 1093.88 450.7C1096.28 425.2 1099.88 416.8 1105.28 403.9C1113.38 385.3 1098.68 385.3 1074.68 385.3C1047.38 385.3 1032.68 403.3 1032.68 439.3V501.7C1032.68 537.7 1047.38 555.7 1080.38 555.7C1100.18 555.7 1125.98 552.4 1121.78 532.3C1119.98 523.9 1115.78 512.5 1115.48 488.8C1115.18 445.6 1128.08 420.4 1132.28 412C1133.48 410.2 1134.98 409.3 1136.78 409.9C1138.28 410.5 1139.18 411.7 1138.58 413.8C1135.58 423.4 1122.68 442.3 1122.68 489.1C1122.68 508.3 1125.08 523 1132.28 537.4C1139.18 551.2 1152.08 555.7 1168.58 555.7Z" fill="#CC0088"/>
<path d="M1291.08 457.9C1266.78 457.9 1253.28 475.3 1253.28 493.3C1253.28 508.9 1261.38 518.8 1272.48 525.1C1273.68 526 1273.38 527.8 1272.18 528.7C1270.98 529.6 1268.58 529 1267.08 528.1C1255.08 522.1 1246.68 509.5 1246.68 493C1246.68 469.3 1265.28 451.3 1290.78 451.3C1301.28 451.3 1308.78 454.3 1317.48 457.9C1328.88 462.1 1332.48 445.3 1332.48 428.5C1332.48 409.9 1326.48 402.4 1302.48 402.4H1252.98C1251.18 402.4 1249.68 401.5 1249.68 399.4C1249.68 397.3 1251.18 396.1 1252.98 396.1H1284.48C1294.08 396.1 1302.48 397.3 1302.48 388.6C1302.48 358.9 1286.28 351.1 1260.78 351.1C1233.48 351.1 1214.88 363.4 1214.88 398.8V500.2C1214.88 539.5 1243.98 555.7 1273.98 555.7C1302.78 555.7 1332.48 541 1332.48 502C1332.48 483.4 1322.58 457.9 1291.08 457.9Z" fill="#CC0088"/>
<path d="M1410.48 431.8C1410.48 454.3 1427.28 467.5 1456.38 467.5C1480.68 467.5 1495.98 455.8 1495.98 435.7C1495.98 402.1 1464.78 385.3 1419.48 385.3C1380.18 385.3 1338.78 397.3 1338.78 441.7C1338.78 455.8 1345.38 472.6 1358.88 470.8C1370.58 468.4 1386.18 468.7 1397.88 473.2C1420.98 481.3 1430.28 499.3 1430.28 518.8C1430.28 526 1427.58 532.3 1425.18 537.4C1424.58 538.6 1423.08 539.5 1421.28 538.9C1419.78 538.3 1419.18 536.5 1420.08 534.4C1421.58 530.2 1423.68 524.2 1423.68 517.6C1423.68 494.2 1405.38 475.3 1375.08 475.3C1344.78 475.3 1336.38 493 1336.38 510.7C1336.38 543.4 1371.48 555.7 1414.68 555.7C1447.38 555.7 1497.48 550.9 1497.48 503.5C1497.48 485.5 1488.18 467.2 1479.18 469.6C1465.08 473.8 1444.38 475 1429.38 469C1407.48 460.6 1403.88 442.9 1403.88 431.8C1403.88 418.3 1409.28 410.2 1414.08 405.4C1414.98 403.9 1416.78 403 1418.58 403.9C1420.08 404.8 1419.78 406.6 1418.88 408.4C1413.48 414.7 1410.48 421.6 1410.48 431.8Z" fill="#CC0088"/>
<path d="M155.355 591.1C125.955 591.1 108.855 602.8 108.855 637.9V749.2C108.855 784 125.955 795.7 155.355 795.7C184.755 795.7 202.155 784 202.155 749.2V740.2C202.155 731.5 198.855 730 191.055 729.7C177.555 729.4 165.255 731.5 153.255 733.6C151.455 733.6 149.955 732.1 149.955 730.3C149.955 728.8 150.855 727 153.255 727C169.755 724.3 187.455 723.1 205.455 723.1C223.155 723.1 241.455 724.3 257.955 727C260.055 727.3 260.955 728.8 260.955 730.3C260.655 732.1 259.155 733.6 257.055 733.3C245.655 731.5 233.355 729.4 219.855 729.7C211.755 730 208.755 731.5 208.755 740.2V749.2C208.755 784 225.855 795.7 255.255 795.7C284.655 795.7 302.055 784 302.055 749.2L301.755 637.9C301.755 602.8 284.655 591.1 255.255 591.1C225.855 591.1 208.755 602.8 208.755 637.9V649.3C208.755 658 212.055 659.8 220.155 659.5C233.655 659.2 245.355 658 257.355 656.2C258.855 656.2 260.655 657.7 260.655 659.2C260.655 660.7 259.455 662.2 257.355 662.8C241.155 665.8 223.155 666.4 205.455 666.4C187.455 666.4 169.755 665.5 153.255 662.8C150.855 662.5 149.955 661 149.955 659.2C149.955 657.7 151.455 656.2 153.555 656.2C165.255 658 177.255 659.2 190.755 659.5C198.555 659.8 202.155 658 202.155 649.3V637.9C202.155 602.8 184.755 591.1 155.355 591.1Z" fill="#CC0088"/>
<path d="M390.811 625.3C438.811 626.2 469.411 640.3 469.411 686.2V741.7C469.411 777.7 464.611 795.7 435.811 795.7C409.411 795.7 410.911 785.5 414.511 778.9C418.411 772.6 421.411 765.1 422.911 756.7C425.311 745.6 425.311 732.4 424.411 720.4C424.411 718.6 423.511 716.8 421.111 717.1C419.311 717.4 418.411 718.9 418.411 721C419.011 730.9 419.011 739.6 417.511 751.6C414.811 773.2 403.711 795.7 362.311 795.7C322.411 795.7 306.211 776.2 306.211 744.7C306.211 720.4 319.411 707.5 331.111 710.8C339.811 713.5 346.711 713.8 352.711 713.8C386.611 713.8 401.611 691 401.311 667.6C401.011 658 398.611 651.1 396.511 646C395.611 643.9 394.111 643 392.611 643.6C390.811 644.2 390.511 645.7 391.111 648.1C392.911 653.2 395.011 658.6 395.011 667C395.011 686.2 383.311 707.8 351.811 707.8C326.011 707.8 308.911 694.3 308.911 672.7C308.911 638.8 342.811 624.4 390.811 625.3ZM384.811 743.5C384.811 748 384.811 753.4 385.111 758.5C385.111 760.3 386.011 761.8 388.111 761.8C389.911 761.8 391.111 760.3 391.111 758.5C391.411 753.4 391.411 748 391.411 743.5C391.411 739 391.411 733.6 391.111 728.5C391.111 726.4 389.611 725.2 388.111 725.2C386.011 725.2 385.111 726.4 385.111 728.5C384.811 733.6 384.811 738.7 384.811 743.5Z" fill="#CC0088"/>
<path d="M613.575 795.7C633.675 795.7 660.375 791.5 654.975 775.9C651.075 764.5 648.675 750.4 648.975 728.5C648.975 685.6 658.875 660.1 662.175 652.6C663.075 650.8 664.875 649.9 666.375 650.5C668.175 651.1 669.075 652.3 668.475 654.7C666.075 662.2 656.475 681.7 656.475 729.1C656.475 769.9 662.175 795.7 696.075 795.7C725.475 795.7 733.575 778.9 733.575 742.9V685.3C733.575 646.3 722.775 625.3 687.975 625.3C657.675 625.3 636.975 644.8 633.675 689.8C633.675 692.2 632.175 693.1 630.675 693.1C629.475 693.1 627.075 691.9 627.075 689.5C627.975 674.8 631.575 662.5 635.175 653.2C642.975 631.9 622.575 625.3 600.975 625.3C555.075 625.3 545.475 657.4 543.975 690.1C543.975 692.2 542.475 693.4 540.975 693.4C539.775 693.1 537.675 692.2 537.675 689.8C538.875 665.2 542.475 656.8 547.875 643.9C555.075 626.8 541.575 625.3 519.675 625.3C492.975 625.3 476.775 646.3 476.775 682.3V738.7C476.775 774.7 491.475 795.7 527.475 795.7C546.675 795.7 568.875 790 565.275 774.7C562.875 765.1 560.475 747.7 560.475 728.8C560.475 685.6 570.375 660.1 573.675 652.6C574.875 650.5 576.975 650.2 577.875 650.5C578.775 650.8 580.875 651.7 579.975 654.7C577.575 662.2 567.975 681.7 567.975 729.1C567.975 775.9 570.675 795.7 613.575 795.7Z" fill="#CC0088"/>
<path d="M879.262 795.7C899.362 795.7 926.062 791.5 920.662 775.9C916.762 764.5 914.362 750.4 914.662 728.5C914.662 685.6 924.562 660.1 927.862 652.6C928.762 650.8 930.562 649.9 932.062 650.5C933.862 651.1 934.762 652.3 934.162 654.7C931.762 662.2 922.162 681.7 922.162 729.1C922.162 769.9 927.862 795.7 961.762 795.7C991.162 795.7 999.262 778.9 999.262 742.9V685.3C999.262 646.3 988.462 625.3 953.662 625.3C923.362 625.3 902.662 644.8 899.362 689.8C899.362 692.2 897.862 693.1 896.362 693.1C895.162 693.1 892.762 691.9 892.762 689.5C893.662 674.8 897.262 662.5 900.862 653.2C908.662 631.9 888.262 625.3 866.662 625.3C820.762 625.3 811.162 657.4 809.662 690.1C809.662 692.2 808.162 693.4 806.662 693.4C805.462 693.1 803.362 692.2 803.362 689.8C804.562 665.2 808.162 656.8 813.562 643.9C820.762 626.8 807.262 625.3 785.362 625.3C758.662 625.3 742.462 646.3 742.462 682.3V738.7C742.462 774.7 757.162 795.7 793.162 795.7C812.362 795.7 834.562 790 830.962 774.7C828.562 765.1 826.162 747.7 826.162 728.8C826.162 685.6 836.062 660.1 839.362 652.6C840.562 650.5 842.662 650.2 843.562 650.5C844.462 650.8 846.562 651.7 845.662 654.7C843.262 662.2 833.662 681.7 833.662 729.1C833.662 775.9 836.362 795.7 879.262 795.7Z" fill="#CC0088"/>
<path d="M1095.15 653.5C1096.35 653.5 1098.15 654.1 1098.15 656.8C1098.75 664.6 1098.75 672.1 1098.75 679.3C1098.75 687.1 1098.75 694 1098.15 702.1C1098.15 704.8 1096.35 705.4 1095.15 705.4C1093.65 705.4 1091.85 704.8 1091.85 702.1C1091.55 694 1091.55 687.1 1091.55 679.3C1091.55 672.1 1091.55 664.6 1091.85 656.8C1092.15 654.1 1093.65 653.5 1095.15 653.5ZM1005.45 710.5C1005.45 769 1042.95 795.7 1094.25 795.7C1138.05 795.7 1165.95 769 1165.95 740.8C1165.95 730.9 1156.95 724 1145.55 730.3C1135.95 736 1124.25 740.2 1109.25 740.2C1091.55 740.2 1080.45 735.4 1076.25 733.6C1073.55 732.1 1073.55 730.6 1073.85 729.1C1074.75 727.3 1076.85 726.7 1079.25 727.6C1086.75 730.6 1094.85 733.3 1107.45 733.3C1132.05 734.2 1165.65 720.7 1165.95 682.9C1166.25 648.4 1139.25 625.3 1091.25 625.3C1039.65 625.3 1005.45 654.1 1005.45 710.5Z" fill="#CC0088"/>
<path d="M1282.87 725.2C1311.67 725.2 1325.77 703.6 1325.77 676.6C1325.77 649.6 1308.07 627.1 1273.27 627.1C1232.17 627.1 1215.07 660.4 1214.47 690.1C1214.47 691.9 1213.27 693.1 1211.47 693.1C1209.97 693.1 1208.47 691.9 1208.47 689.8C1209.37 670.3 1213.87 656.5 1223.47 643.9C1232.77 631.3 1227.07 625.3 1210.27 625.3C1185.67 625.3 1170.67 637.3 1170.67 673.3V747.7C1170.67 783.7 1189.87 795.7 1216.27 795.7C1242.67 795.7 1259.47 783.7 1259.47 747.7V734.2C1259.47 725.8 1253.17 726.1 1245.07 717.4C1238.47 709.9 1233.97 699.7 1233.97 688.3C1233.97 670 1243.27 658.6 1253.17 651.4C1254.37 650.5 1256.17 649.6 1257.67 650.5C1258.87 651.1 1260.07 652.9 1258.57 654.4C1251.07 661.6 1240.57 669.7 1240.57 688.6C1240.57 705.7 1252.57 725.2 1282.87 725.2Z" fill="#CC0088"/>
<path d="M1402.61 671.8C1402.61 694.3 1419.41 707.5 1448.51 707.5C1472.81 707.5 1488.11 695.8 1488.11 675.7C1488.11 642.1 1456.91 625.3 1411.61 625.3C1372.31 625.3 1330.91 637.3 1330.91 681.7C1330.91 695.8 1337.51 712.6 1351.01 710.8C1362.71 708.4 1378.31 708.7 1390.01 713.2C1413.11 721.3 1422.41 739.3 1422.41 758.8C1422.41 766 1419.71 772.3 1417.31 777.4C1416.71 778.6 1415.21 779.5 1413.41 778.9C1411.91 778.3 1411.31 776.5 1412.21 774.4C1413.71 770.2 1415.81 764.2 1415.81 757.6C1415.81 734.2 1397.51 715.3 1367.21 715.3C1336.91 715.3 1328.51 733 1328.51 750.7C1328.51 783.4 1363.61 795.7 1406.81 795.7C1439.51 795.7 1489.61 790.9 1489.61 743.5C1489.61 725.5 1480.31 707.2 1471.31 709.6C1457.21 713.8 1436.51 715 1421.51 709C1399.61 700.6 1396.01 682.9 1396.01 671.8C1396.01 658.3 1401.41 650.2 1406.21 645.4C1407.11 643.9 1408.91 643 1410.71 643.9C1412.21 644.8 1411.91 646.6 1411.01 648.4C1405.61 654.7 1402.61 661.6 1402.61 671.8Z" fill="#CC0088"/>
</svg>
