<svg width="3000" height="1500" viewBox="0 0 3000 1500" fill="none" xmlns="http://www.w3.org/2000/svg">
<rect x="50" y="50" width="2900" height="1400" rx="150" stroke="black" stroke-width="100"/>
<path d="M280.32 917H437.06V663.45H680.468V536.214H437.06V395.148H724.724V267.912H280.32V917ZM761.165 917H908.685V267.912H761.165V917ZM1110.82 929.908C1182.73 929.908 1226.07 896.716 1248.2 867.212H1250.04V917H1388.34V610.896C1388.34 489.192 1305.36 439.404 1179.97 439.404C1054.58 439.404 961.455 492.88 958.689 610.896H1106.21C1108.97 558.342 1140.32 542.668 1179.97 542.668C1220.54 542.668 1244.51 558.342 1244.51 594.3C1244.51 611.818 1233.44 624.726 1203.94 629.336L1104.36 644.088C993.725 660.684 951.313 704.018 951.313 785.154C951.313 869.978 1005.71 929.908 1110.82 929.908ZM1098.83 782.388C1098.83 755.65 1113.58 743.664 1154.15 735.366L1196.56 727.068C1222.38 722.458 1237.13 716.004 1246.35 707.706V736.288C1246.35 798.984 1204.86 829.41 1155.07 829.41C1118.19 829.41 1098.83 810.97 1098.83 782.388ZM1639.42 920.688C1674.46 920.688 1697.51 918.844 1715.02 917V805.438H1711.34C1699.35 806.36 1695.66 806.36 1687.36 806.36C1660.63 806.36 1626.51 802.672 1626.51 756.572V562.952H1713.18V452.312H1626.51V315.856H1478.99V452.312H1405.23V562.952H1478.99V787.92C1478.99 891.184 1536.16 920.688 1639.42 920.688ZM1969.43 920.688C2004.47 920.688 2027.52 918.844 2045.04 917V805.438H2041.35C2029.36 806.36 2025.67 806.36 2017.38 806.36C1990.64 806.36 1956.52 802.672 1956.52 756.572V562.952H2043.19V452.312H1956.52V315.856H1809V452.312H1735.24V562.952H1809V787.92C1809 891.184 1866.17 920.688 1969.43 920.688ZM2202.55 1097.71C2303.97 1097.71 2358.36 1057.14 2397.09 950.192L2575.96 452.312H2422.9L2324.25 776.856H2322.41L2227.44 452.312H2067.01L2220.99 871.822C2227.44 890.262 2232.05 906.858 2232.05 920.688C2232.05 957.568 2210.84 976.008 2166.59 976.008C2151.84 976.008 2134.32 974.164 2119.57 972.32V1090.34C2141.69 1094.02 2166.59 1097.71 2202.55 1097.71Z" fill="black"/>
<path d="M282.37 1252H296.278L317.254 1195.11H305.968L289.552 1241.97H289.324L273.022 1195.11H261.166L282.37 1252ZM326.177 1252H339.173V1238.89H326.177V1252ZM350.279 1198.42L350.051 1198.19V1187.93L350.279 1187.7C359.969 1186.68 368.291 1180.41 372.965 1171.97L373.193 1171.74H382.655L382.883 1171.97V1251.77L382.655 1252H371.939L371.711 1251.77V1187.93H371.483C367.151 1193.52 358.601 1197.85 350.279 1198.42ZM400.656 1252H413.652V1238.89H400.656V1252ZM456.564 1253.71C477.426 1253.71 487.116 1235.36 487.116 1211.87C487.116 1188.39 477.426 1170.03 456.564 1170.03C435.816 1170.03 426.012 1188.39 426.012 1211.87C426.012 1235.36 435.816 1253.71 456.564 1253.71ZM437.298 1211.87C437.298 1194.2 443.112 1179.95 456.564 1179.95C470.13 1179.95 475.944 1194.2 475.944 1211.87C475.944 1229.54 470.13 1243.79 456.564 1243.79C443.112 1243.79 437.298 1229.54 437.298 1211.87ZM497.121 1198.42L496.893 1198.19V1187.93L497.121 1187.7C506.811 1186.68 515.133 1180.41 519.807 1171.97L520.035 1171.74H529.497L529.725 1171.97V1251.77L529.497 1252H518.781L518.553 1251.77V1187.93H518.325C513.993 1193.52 505.443 1197.85 497.121 1198.42ZM547.497 1252H560.493V1238.89H547.497V1252ZM592.234 1253.6C600.784 1253.6 606.94 1249.49 610.246 1244.59H610.474V1252H620.734V1213.13C620.734 1199.79 612.298 1193.52 598.048 1193.52C583.456 1193.52 573.994 1200.36 573.538 1214.15H584.596C585.166 1204.8 590.638 1202.07 598.048 1202.07C605.458 1202.07 610.018 1205.26 610.018 1211.87C610.018 1214.49 608.65 1216.55 604.66 1217.23L590.866 1219.28C578.44 1221.22 572.512 1225.89 572.512 1236.38C572.512 1246.3 579.238 1253.6 592.234 1253.6ZM583.57 1236.27C583.57 1230.8 586.762 1228.4 594.4 1227.15L602.266 1225.78C605.914 1225.1 608.878 1224.53 610.36 1223.5V1228.4C610.36 1238.89 603.52 1245.27 594.172 1245.27C587.104 1245.27 583.57 1241.74 583.57 1236.27ZM754.315 1207.31H661.747V1216.43H754.315V1207.31ZM819.376 1252H835.108L864.862 1171.74H852.778L827.584 1240.37H827.356L802.162 1171.74H789.622L819.376 1252ZM882.911 1253.6C891.461 1253.6 897.617 1249.49 900.923 1244.59H901.151V1252H911.411V1213.13C911.411 1199.79 902.975 1193.52 888.725 1193.52C874.133 1193.52 864.671 1200.36 864.215 1214.15H875.273C875.843 1204.8 881.315 1202.07 888.725 1202.07C896.135 1202.07 900.695 1205.26 900.695 1211.87C900.695 1214.49 899.327 1216.55 895.337 1217.23L881.543 1219.28C869.117 1221.22 863.189 1225.89 863.189 1236.38C863.189 1246.3 869.915 1253.6 882.911 1253.6ZM874.247 1236.27C874.247 1230.8 877.439 1228.4 885.077 1227.15L892.943 1225.78C896.591 1225.1 899.555 1224.53 901.037 1223.5V1228.4C901.037 1238.89 894.197 1245.27 884.849 1245.27C877.781 1245.27 874.247 1241.74 874.247 1236.27ZM926.146 1252H937.09V1224.87C937.09 1212.67 942.334 1204.8 953.848 1204.8C955.216 1204.8 956.242 1204.8 957.838 1205.03H958.294V1195.11C957.04 1194.89 955.558 1194.89 953.734 1194.89C945.526 1194.89 939.598 1199.1 936.748 1206.17H936.52C936.634 1202.52 936.748 1199.1 936.748 1196.03V1195.11H926.146V1252ZM969.118 1252H980.062V1195.11H969.118V1252ZM969.118 1185.08H980.062V1172.77H969.118V1185.08ZM1012.5 1253.6C1021.05 1253.6 1027.2 1249.49 1030.51 1244.59H1030.74V1252H1041V1213.13C1041 1199.79 1032.56 1193.52 1018.31 1193.52C1003.72 1193.52 994.257 1200.36 993.801 1214.15H1004.86C1005.43 1204.8 1010.9 1202.07 1018.31 1202.07C1025.72 1202.07 1030.28 1205.26 1030.28 1211.87C1030.28 1214.49 1028.91 1216.55 1024.92 1217.23L1011.13 1219.28C998.703 1221.22 992.775 1225.89 992.775 1236.38C992.775 1246.3 999.501 1253.6 1012.5 1253.6ZM1003.83 1236.27C1003.83 1230.8 1007.03 1228.4 1014.66 1227.15L1022.53 1225.78C1026.18 1225.1 1029.14 1224.53 1030.62 1223.5V1228.4C1030.62 1238.89 1023.78 1245.27 1014.44 1245.27C1007.37 1245.27 1003.83 1241.74 1003.83 1236.27ZM1084.69 1253.6C1099.96 1253.6 1109.43 1241.63 1109.43 1223.61C1109.43 1205.49 1099.96 1193.63 1084.57 1193.63C1075.57 1193.63 1069.98 1197.51 1066.68 1203.32H1066.45C1066.56 1201.84 1066.68 1198.99 1066.68 1196.82V1171.74H1055.73V1252H1066.33V1249.95C1066.33 1247.67 1066.22 1244.82 1066.11 1243.56H1066.33C1069.64 1249.38 1075.57 1253.6 1084.69 1253.6ZM1066.33 1223.73C1066.33 1210.73 1072.03 1202.41 1082.18 1202.41C1092.44 1202.41 1098.14 1210.73 1098.14 1223.73C1098.14 1236.61 1092.44 1244.82 1082.18 1244.82C1072.03 1244.82 1066.33 1236.61 1066.33 1223.73ZM1121.75 1252H1132.69V1171.74H1121.75V1252ZM1172.31 1253.6C1186.33 1253.6 1195.91 1245.5 1197.05 1233.08H1186.1C1185.08 1241.28 1179.83 1245.05 1172.31 1245.05C1162.51 1245.05 1156.58 1238.55 1156.01 1226.24H1197.62V1222.25C1197.62 1204.23 1187.81 1193.52 1172.08 1193.52C1155.44 1193.52 1144.72 1205.72 1144.72 1223.73C1144.72 1241.85 1155.32 1253.6 1172.31 1253.6ZM1156.35 1218.14C1157.03 1209.36 1162.51 1202.07 1172.08 1202.07C1181.43 1202.07 1186.33 1209.02 1186.45 1218.14H1156.35ZM1234.04 1211.87C1234.04 1232.73 1240.31 1250.63 1247.49 1263.4H1257.06C1249.43 1248.92 1243.84 1230.57 1243.84 1211.87C1243.84 1193.18 1249.43 1174.94 1257.06 1160.34H1247.49C1240.31 1172.77 1234.04 1191.12 1234.04 1211.87ZM1295.03 1253.71C1312.13 1253.71 1322.39 1244.59 1322.39 1230.8C1322.39 1220.99 1316.92 1213.47 1307 1210.73V1210.5C1314.64 1207.2 1320.23 1201.38 1320.23 1192.61C1320.23 1178.81 1310.54 1170.03 1294.92 1170.03C1278.39 1170.03 1267.79 1180.07 1267.79 1194.89H1278.96C1279.07 1185.99 1285.23 1179.84 1294.69 1179.84C1303.58 1179.84 1309.06 1185.31 1309.06 1193.18C1309.06 1200.7 1302.79 1206.17 1292.53 1206.17H1284.77V1215.98H1292.87C1304.15 1215.98 1311.22 1220.99 1311.22 1230.11C1311.22 1238.66 1305.18 1243.79 1295.15 1243.79C1284.55 1243.79 1278.39 1237.98 1277.82 1227.95H1266.65C1266.99 1244.82 1278.28 1253.71 1295.03 1253.71ZM1363 1253.71C1383.86 1253.71 1393.55 1235.36 1393.55 1211.87C1393.55 1188.39 1383.86 1170.03 1363 1170.03C1342.25 1170.03 1332.45 1188.39 1332.45 1211.87C1332.45 1235.36 1342.25 1253.71 1363 1253.71ZM1343.73 1211.87C1343.73 1194.2 1349.55 1179.95 1363 1179.95C1376.56 1179.95 1382.38 1194.2 1382.38 1211.87C1382.38 1229.54 1376.56 1243.79 1363 1243.79C1349.55 1243.79 1343.73 1229.54 1343.73 1211.87ZM1435.36 1253.71C1456.22 1253.71 1465.91 1235.36 1465.91 1211.87C1465.91 1188.39 1456.22 1170.03 1435.36 1170.03C1414.61 1170.03 1404.81 1188.39 1404.81 1211.87C1404.81 1235.36 1414.61 1253.71 1435.36 1253.71ZM1416.09 1211.87C1416.09 1194.2 1421.91 1179.95 1435.36 1179.95C1448.93 1179.95 1454.74 1194.2 1454.74 1211.87C1454.74 1229.54 1448.93 1243.79 1435.36 1243.79C1421.91 1243.79 1416.09 1229.54 1416.09 1211.87ZM1479.45 1216.43H1509.89V1207.31H1479.45V1216.43ZM1535.34 1252H1546.52C1549.48 1221.45 1558.37 1201.16 1574.22 1182.12V1171.74H1520.18V1181.78H1561.45V1182C1549.82 1197.17 1537.74 1219.4 1535.34 1252ZM1610.81 1253.71C1631.68 1253.71 1641.37 1235.36 1641.37 1211.87C1641.37 1188.39 1631.68 1170.03 1610.81 1170.03C1590.07 1170.03 1580.26 1188.39 1580.26 1211.87C1580.26 1235.36 1590.07 1253.71 1610.81 1253.71ZM1591.55 1211.87C1591.55 1194.2 1597.36 1179.95 1610.81 1179.95C1624.38 1179.95 1630.19 1194.2 1630.19 1211.87C1630.19 1229.54 1624.38 1243.79 1610.81 1243.79C1597.36 1243.79 1591.55 1229.54 1591.55 1211.87ZM1683.18 1253.71C1704.04 1253.71 1713.73 1235.36 1713.73 1211.87C1713.73 1188.39 1704.04 1170.03 1683.18 1170.03C1662.43 1170.03 1652.63 1188.39 1652.63 1211.87C1652.63 1235.36 1662.43 1253.71 1683.18 1253.71ZM1663.91 1211.87C1663.91 1194.2 1669.73 1179.95 1683.18 1179.95C1696.74 1179.95 1702.56 1194.2 1702.56 1211.87C1702.56 1229.54 1696.74 1243.79 1683.18 1243.79C1669.73 1243.79 1663.91 1229.54 1663.91 1211.87ZM1746.65 1211.87C1746.65 1191.12 1740.38 1172.77 1733.2 1160.34H1723.51C1731.14 1174.94 1736.73 1193.18 1736.73 1211.87C1736.73 1230.57 1731.14 1248.92 1723.51 1263.4H1733.08C1740.38 1250.63 1746.65 1232.73 1746.65 1211.87Z" fill="black"/>
</svg>
