<svg width="3000" height="1500" viewBox="0 0 3000 1500" fill="none" xmlns="http://www.w3.org/2000/svg">
<rect x="50" y="50" width="2900" height="1400" rx="150" stroke="black" stroke-width="100"/>
<path d="M280.32 917H437.06V663.45H722.88V536.214H437.06V395.148H745.008V267.912H280.32V917ZM776.255 917H925.619V267.912H776.255V917ZM1174.73 837.708C1133.24 837.708 1113.88 817.424 1113.88 789.764C1113.88 762.104 1133.24 748.274 1165.51 741.82L1202.39 734.444C1238.35 727.068 1253.1 719.692 1264.17 710.472V743.664C1264.17 806.36 1223.6 837.708 1174.73 837.708ZM962.672 785.154C962.672 873.666 1027.21 929.908 1134.16 929.908C1204.24 929.908 1245.73 896.716 1266.01 865.368H1267.85V917H1407.08V609.974C1407.08 480.894 1334.24 435.716 1197.78 435.716C1061.33 435.716 973.736 487.348 973.736 609.052H1122.18C1125.87 551.888 1157.21 540.824 1197.78 540.824C1237.43 540.824 1262.32 555.576 1262.32 592.456C1262.32 612.74 1249.41 623.804 1218.99 628.414L1112.04 645.01C1008.77 660.684 962.672 704.018 962.672 785.154ZM1692.59 917H1745.14V808.204H1731.31C1683.37 808.204 1661.24 804.516 1661.24 758.416V555.576H1746.06V448.624H1659.39L1657.55 446.78C1660.32 433.872 1661.24 423.73 1661.24 408.978V315.856H1515.56V382.24C1515.56 431.106 1493.43 448.624 1447.33 448.624H1434.43V555.576H1511.87V783.31C1511.87 886.574 1548.75 917 1692.59 917ZM2029.8 917H2082.35V808.204H2068.52C2020.58 808.204 1998.45 804.516 1998.45 758.416V555.576H2083.28V448.624H1996.61L1994.76 446.78C1997.53 433.872 1998.45 423.73 1998.45 408.978V315.856H1852.78V382.24C1852.78 431.106 1830.65 448.624 1784.55 448.624H1771.64V555.576H1849.09V783.31C1849.09 886.574 1885.97 917 2029.8 917ZM2210.02 1090.34C2363.07 1090.34 2397.18 1058.07 2435.91 950.192L2615.7 448.624H2462.64L2363.99 773.168H2362.15L2262.57 448.624H2103.06L2257.96 871.822C2264.41 890.262 2269.95 909.624 2269.95 924.376C2269.95 960.334 2252.43 972.32 2202.64 972.32H2155.62V1090.34H2210.02Z" fill="black"/>
<path d="M282.712 1252H296.62L318.166 1194.09H307.108L289.894 1242.31H289.666L272.452 1194.09H261.166L282.712 1252ZM327.068 1252H339.95V1239.12H327.068V1252ZM351.059 1197.96V1187.48C360.749 1186.34 369.071 1180.18 373.745 1171.74H383.435V1252H372.491V1187.48H372.263C367.931 1193.06 359.495 1197.39 351.059 1197.96ZM401.324 1252H414.206V1239.12H401.324V1252ZM453.669 1253.71C474.645 1253.71 484.107 1235.36 484.107 1211.87C484.107 1188.39 474.645 1170.03 453.669 1170.03C432.579 1170.03 423.231 1188.39 423.231 1211.87C423.231 1235.36 432.579 1253.71 453.669 1253.71ZM434.403 1211.87C434.403 1193.29 440.103 1179.27 453.669 1179.27C467.235 1179.27 472.935 1193.29 472.935 1211.87C472.935 1230.45 467.235 1244.48 453.669 1244.48C440.103 1244.48 434.403 1230.45 434.403 1211.87ZM494.115 1197.96V1187.48C503.805 1186.34 512.127 1180.18 516.801 1171.74H526.491V1252H515.547V1187.48H515.319C510.987 1193.06 502.551 1197.39 494.115 1197.96ZM544.38 1252H557.262V1239.12H544.38V1252ZM601.545 1253.6C617.619 1253.6 627.309 1242.2 627.309 1223.04C627.309 1203.89 617.619 1192.49 601.431 1192.49C592.197 1192.49 586.383 1196.48 583.191 1202.64H582.849C583.077 1201.5 583.077 1198.08 583.077 1195.8V1171.74H572.361V1252H583.077V1249.83C583.077 1247.55 583.077 1244.59 582.849 1243.22H583.077C586.383 1249.49 592.083 1253.6 601.545 1253.6ZM582.849 1223.04C582.849 1208.91 588.891 1201.04 599.835 1201.04C610.665 1201.04 616.251 1208.91 616.251 1223.04C616.251 1237.29 610.665 1245.16 599.835 1245.16C588.891 1245.16 582.849 1237.29 582.849 1223.04ZM757.623 1207.54H665.283V1216.2H757.623V1207.54ZM822.395 1252H836.189L865.829 1171.74H853.973L829.577 1241.51H829.349L804.953 1171.74H792.755L822.395 1252ZM887.773 1245.96C880.477 1245.96 875.917 1241.97 875.917 1236.38C875.917 1230.11 879.793 1227.72 888.115 1226.35L895.069 1225.21C899.287 1224.41 902.365 1223.5 903.961 1222.25V1228.97C903.961 1239.69 897.235 1245.96 887.773 1245.96ZM864.973 1236.15C864.973 1246.53 872.839 1253.6 886.063 1253.6C894.841 1253.6 900.655 1249.49 903.847 1244.36H904.075V1252H914.107V1212.33C914.107 1198.53 906.241 1192.49 891.307 1192.49C876.259 1192.49 866.797 1198.76 866.683 1212.78H877.285C877.855 1203.09 883.669 1200.7 891.307 1200.7C898.945 1200.7 903.733 1203.66 903.733 1210.73C903.733 1213.92 902.137 1215.86 896.665 1216.77L884.467 1218.71C871.129 1220.76 864.973 1225.55 864.973 1236.15ZM930.284 1252H940.886V1223.96C940.886 1210.85 945.788 1203.09 960.494 1203.09H962.432V1193.18H960.836C950.12 1193.18 943.508 1197.17 940.658 1204.8H940.43C940.544 1200.93 940.658 1197.96 940.658 1195.11V1194.09H930.284V1252ZM973.466 1252H984.068V1194.09H973.466V1252ZM973.466 1183.6H984.068V1171.74H973.466V1183.6ZM1020.48 1245.96C1013.18 1245.96 1008.62 1241.97 1008.62 1236.38C1008.62 1230.11 1012.5 1227.72 1020.82 1226.35L1027.77 1225.21C1031.99 1224.41 1035.07 1223.5 1036.66 1222.25V1228.97C1036.66 1239.69 1029.94 1245.96 1020.48 1245.96ZM997.676 1236.15C997.676 1246.53 1005.54 1253.6 1018.77 1253.6C1027.54 1253.6 1033.36 1249.49 1036.55 1244.36H1036.78V1252H1046.81V1212.33C1046.81 1198.53 1038.94 1192.49 1024.01 1192.49C1008.96 1192.49 999.5 1198.76 999.386 1212.78H1009.99C1010.56 1203.09 1016.37 1200.7 1024.01 1200.7C1031.65 1200.7 1036.44 1203.66 1036.44 1210.73C1036.44 1213.92 1034.84 1215.86 1029.37 1216.77L1017.17 1218.71C1003.83 1220.76 997.676 1225.55 997.676 1236.15ZM1092.06 1253.6C1108.13 1253.6 1117.82 1242.2 1117.82 1223.04C1117.82 1203.89 1108.13 1192.49 1091.94 1192.49C1082.71 1192.49 1076.89 1196.48 1073.7 1202.64H1073.36C1073.59 1201.5 1073.59 1198.08 1073.59 1195.8V1171.74H1062.87V1252H1073.59V1249.83C1073.59 1247.55 1073.59 1244.59 1073.36 1243.22H1073.59C1076.89 1249.49 1082.59 1253.6 1092.06 1253.6ZM1073.36 1223.04C1073.36 1208.91 1079.4 1201.04 1090.35 1201.04C1101.18 1201.04 1106.76 1208.91 1106.76 1223.04C1106.76 1237.29 1101.18 1245.16 1090.35 1245.16C1079.4 1245.16 1073.36 1237.29 1073.36 1223.04ZM1130.66 1252H1141.38V1171.74H1130.66V1252ZM1182.01 1253.6C1197.05 1253.6 1205.83 1245.5 1207.66 1234.22H1196.83C1195.12 1241.74 1190.33 1245.5 1182.01 1245.5C1171.52 1245.5 1165.82 1238.89 1165.36 1225.55H1208.23V1224.41C1208.23 1203.09 1198.42 1192.61 1182.01 1192.61C1165.02 1192.61 1154.3 1204.23 1154.3 1223.27C1154.3 1242.31 1164.45 1253.6 1182.01 1253.6ZM1165.7 1217.46C1166.62 1207.31 1172.54 1200.7 1182.01 1200.7C1191.13 1200.7 1196.37 1206.74 1196.83 1217.46H1165.7ZM1245.28 1217.57C1245.28 1238.43 1251.55 1256.33 1258.85 1269.1H1268.19C1260.56 1254.62 1254.97 1236.27 1254.97 1217.57C1254.97 1198.88 1260.56 1180.64 1268.19 1166.04H1258.73C1251.55 1178.47 1245.28 1196.82 1245.28 1217.57ZM1305.72 1253.71C1322.59 1253.71 1332.96 1244.93 1332.96 1230.8C1332.96 1220.99 1327.38 1213.47 1317.69 1210.73V1210.5C1325.44 1207.31 1331.03 1201.5 1331.03 1192.61C1331.03 1178.7 1321.34 1170.03 1305.72 1170.03C1289.3 1170.03 1278.7 1179.04 1278.59 1194.77H1289.64C1289.76 1184.63 1295.91 1179.15 1305.49 1179.15C1314.5 1179.15 1319.97 1184.51 1319.97 1193.06C1319.97 1201.16 1313.7 1206.51 1303.32 1206.51H1295.57V1215.63H1303.67C1314.95 1215.63 1321.91 1220.88 1321.91 1230.34C1321.91 1239.46 1315.86 1244.59 1305.95 1244.59C1295.23 1244.59 1288.96 1238.89 1288.5 1227.95H1277.56C1277.79 1245.16 1289.07 1253.71 1305.72 1253.71ZM1373.68 1253.71C1394.66 1253.71 1404.12 1235.36 1404.12 1211.87C1404.12 1188.39 1394.66 1170.03 1373.68 1170.03C1352.59 1170.03 1343.25 1188.39 1343.25 1211.87C1343.25 1235.36 1352.59 1253.71 1373.68 1253.71ZM1354.42 1211.87C1354.42 1193.29 1360.12 1179.27 1373.68 1179.27C1387.25 1179.27 1392.95 1193.29 1392.95 1211.87C1392.95 1230.45 1387.25 1244.48 1373.68 1244.48C1360.12 1244.48 1354.42 1230.45 1354.42 1211.87ZM1445.94 1253.71C1466.91 1253.71 1476.37 1235.36 1476.37 1211.87C1476.37 1188.39 1466.91 1170.03 1445.94 1170.03C1424.85 1170.03 1415.5 1188.39 1415.5 1211.87C1415.5 1235.36 1424.85 1253.71 1445.94 1253.71ZM1426.67 1211.87C1426.67 1193.29 1432.37 1179.27 1445.94 1179.27C1459.5 1179.27 1465.2 1193.29 1465.2 1211.87C1465.2 1230.45 1459.5 1244.48 1445.94 1244.48C1432.37 1244.48 1426.67 1230.45 1426.67 1211.87ZM1488.78 1216.2H1519.33V1207.54H1488.78V1216.2ZM1543.58 1252H1554.75C1557.49 1220.99 1566.5 1200.36 1582.23 1181.09V1171.74H1528.53V1180.98H1569.92V1181.21C1557.83 1196.37 1546.09 1218.83 1543.58 1252ZM1618.94 1253.71C1639.92 1253.71 1649.38 1235.36 1649.38 1211.87C1649.38 1188.39 1639.92 1170.03 1618.94 1170.03C1597.85 1170.03 1588.5 1188.39 1588.5 1211.87C1588.5 1235.36 1597.85 1253.71 1618.94 1253.71ZM1599.67 1211.87C1599.67 1193.29 1605.37 1179.27 1618.94 1179.27C1632.51 1179.27 1638.21 1193.29 1638.21 1211.87C1638.21 1230.45 1632.51 1244.48 1618.94 1244.48C1605.37 1244.48 1599.67 1230.45 1599.67 1211.87ZM1691.19 1253.71C1712.17 1253.71 1721.63 1235.36 1721.63 1211.87C1721.63 1188.39 1712.17 1170.03 1691.19 1170.03C1670.1 1170.03 1660.75 1188.39 1660.75 1211.87C1660.75 1235.36 1670.1 1253.71 1691.19 1253.71ZM1671.93 1211.87C1671.93 1193.29 1677.63 1179.27 1691.19 1179.27C1704.76 1179.27 1710.46 1193.29 1710.46 1211.87C1710.46 1230.45 1704.76 1244.48 1691.19 1244.48C1677.63 1244.48 1671.93 1230.45 1671.93 1211.87ZM1753.98 1217.57C1753.98 1196.82 1747.71 1178.47 1740.53 1166.04H1731.07C1738.71 1180.64 1744.29 1198.88 1744.29 1217.57C1744.29 1236.27 1738.71 1254.62 1731.07 1269.1H1740.42C1747.71 1256.33 1753.98 1238.43 1753.98 1217.57Z" fill="black"/>
</svg>
