<svg width="3000" height="1500" viewBox="0 0 3000 1500" fill="none" xmlns="http://www.w3.org/2000/svg">
<rect x="50" y="50" width="2900" height="1400" rx="150" fill="white" stroke="black" stroke-width="100"/>
<path d="M273.848 265.848V891H426.584V637.032H659.24V519.816H426.584V383.064H701.864V265.848H273.848ZM744.19 265.848V891H886.27V265.848H744.19ZM1087.17 903.432C1158.21 903.432 1191.95 871.464 1213.26 843.048H1215.04V891H1348.24V592.632C1348.24 489.624 1268.32 431.016 1148.44 431.016C1027.67 431.016 937.982 493.176 934.43 596.184H1076.51C1078.29 553.56 1110.25 532.248 1149.33 532.248C1187.51 532.248 1209.71 551.784 1209.71 580.2C1209.71 601.512 1199.05 612.168 1170.64 616.608L1074.73 631.704C984.158 645.912 927.326 686.76 927.326 764.904C927.326 846.6 991.262 903.432 1087.17 903.432ZM1067.63 763.128C1067.63 734.712 1090.72 719.616 1122.69 713.4L1163.53 705.408C1188.4 700.968 1202.61 694.752 1211.49 686.76V716.952C1211.49 777.336 1174.19 807.528 1126.24 807.528C1090.72 807.528 1067.63 791.544 1067.63 763.128ZM1591.83 894.552C1625.58 894.552 1646 891.888 1662.87 888.336V782.664C1649.55 784.44 1646.89 784.44 1636.23 784.44C1610.48 784.44 1577.63 779.112 1577.63 731.16V550.008H1661.1V443.448H1577.63V312.024H1435.55V443.448H1364.51V550.008H1435.55V757.8C1435.55 857.256 1492.38 894.552 1591.83 894.552ZM1906.21 894.552C1939.95 894.552 1960.38 891.888 1977.25 888.336V782.664C1963.93 784.44 1961.26 784.44 1950.61 784.44C1924.86 784.44 1892 779.112 1892 731.16V550.008H1975.47V443.448H1892V312.024H1749.92V443.448H1678.88V550.008H1749.92V757.8C1749.92 857.256 1806.75 894.552 1906.21 894.552ZM2125.4 1065.05C2223.08 1065.05 2275.47 1025.98 2312.77 922.968L2485.04 443.448H2337.63L2242.61 756.024H2240.84L2149.37 443.448H1994.86L2143.16 847.488C2149.37 865.248 2153.81 881.232 2153.81 894.552C2153.81 930.072 2133.39 947.832 2090.77 947.832C2076.56 947.832 2066.79 946.056 2052.58 944.28V1057.94C2073.89 1061.5 2090.77 1065.05 2125.4 1065.05Z" fill="black"/>
<path d="M267.64 1211.68L279.88 1245.68H280.04L292.28 1211.68H299.24L284.12 1252H275.64L260.36 1211.68H267.64ZM323.309 1253.12C332.749 1253.12 339.069 1247.52 340.669 1239.36H334.189C332.829 1244.72 329.069 1247.52 323.389 1247.52C315.789 1247.52 310.669 1242.32 310.349 1233.44H340.909C340.989 1232.56 340.989 1231.52 340.989 1230.8C340.989 1218.08 333.869 1210.56 323.149 1210.56C311.709 1210.56 303.469 1219.28 303.469 1231.92C303.469 1244.64 311.149 1253.12 323.309 1253.12ZM310.509 1228.24C311.309 1221.76 315.789 1216.16 323.149 1216.16C330.349 1216.16 334.109 1221.68 334.269 1228.24H310.509ZM350.735 1252H357.455V1230.56C357.455 1222 362.495 1217.44 369.615 1217.44C370.735 1217.44 371.855 1217.6 372.815 1217.76V1211.68C372.175 1211.52 370.895 1211.36 369.615 1211.36C363.375 1211.36 359.455 1214.4 357.375 1217.84H357.215C357.295 1216.4 357.295 1214.4 357.295 1212.32V1211.68H350.735V1252ZM376.461 1243.84V1252H384.621V1243.84H376.461ZM386.858 1210.96V1204.56C392.058 1203.6 397.818 1201.68 401.098 1195.68H407.018V1252H400.298V1205.44H400.138C397.098 1208.72 391.338 1210.4 386.858 1210.96ZM421.42 1243.84V1252H429.58V1243.84H421.42ZM460.7 1253.2C474.54 1253.2 480.94 1240.32 480.94 1223.84C480.94 1207.36 474.54 1194.48 460.7 1194.48C446.94 1194.48 440.46 1207.36 440.46 1223.84C440.46 1240.32 446.94 1253.2 460.7 1253.2ZM447.34 1223.84C447.34 1211.04 451.26 1200.48 460.7 1200.48C470.22 1200.48 474.14 1211.04 474.14 1223.84C474.14 1236.64 470.22 1247.2 460.7 1247.2C451.26 1247.2 447.34 1236.64 447.34 1223.84ZM488.008 1210.96V1204.56C493.208 1203.6 498.968 1201.68 502.248 1195.68H508.168V1252H501.448V1205.44H501.288C498.248 1208.72 492.488 1210.4 488.008 1210.96ZM522.57 1243.84V1252H530.73V1243.84H522.57ZM555.37 1253.12C561.53 1253.12 565.69 1250.24 568.09 1246.56H568.25V1252H574.65V1224.48C574.65 1215.28 568.25 1210.56 559.21 1210.56C549.85 1210.56 542.41 1215.36 541.93 1224.4H548.73C549.29 1218.56 553.61 1216.08 558.97 1216.08C564.49 1216.08 568.01 1219.04 568.01 1223.52C568.01 1225.52 567.05 1227.04 564.25 1227.44L554.57 1229.04C546.73 1230.32 541.21 1233.68 541.21 1241.12C541.21 1248.08 547.05 1253.12 555.37 1253.12ZM547.85 1241.12C547.85 1236.88 551.21 1234.8 556.73 1233.84L562.25 1232.88C564.89 1232.48 567.37 1232.08 568.25 1231.28V1235.12C568.25 1242.88 563.29 1247.84 556.49 1247.84C551.45 1247.84 547.85 1245.36 547.85 1241.12ZM607.234 1220.96V1226.72H671.714V1220.96H607.234ZM699.893 1195.68H707.653L725.813 1244.48H725.973L744.133 1195.68H751.493L730.293 1252H721.093L699.893 1195.68ZM765.62 1253.12C771.78 1253.12 775.94 1250.24 778.34 1246.56H778.5V1252H784.9V1224.48C784.9 1215.28 778.5 1210.56 769.46 1210.56C760.1 1210.56 752.66 1215.36 752.18 1224.4H758.98C759.54 1218.56 763.86 1216.08 769.22 1216.08C774.74 1216.08 778.26 1219.04 778.26 1223.52C778.26 1225.52 777.3 1227.04 774.5 1227.44L764.82 1229.04C756.98 1230.32 751.46 1233.68 751.46 1241.12C751.46 1248.08 757.3 1253.12 765.62 1253.12ZM758.1 1241.12C758.1 1236.88 761.46 1234.8 766.98 1233.84L772.5 1232.88C775.14 1232.48 777.62 1232.08 778.5 1231.28V1235.12C778.5 1242.88 773.54 1247.84 766.74 1247.84C761.7 1247.84 758.1 1245.36 758.1 1241.12ZM796.916 1252H803.636V1230.56C803.636 1222 808.676 1217.44 815.796 1217.44C816.916 1217.44 818.036 1217.6 818.996 1217.76V1211.68C818.356 1211.52 817.076 1211.36 815.796 1211.36C809.556 1211.36 805.636 1214.4 803.556 1217.84H803.396C803.476 1216.4 803.476 1214.4 803.476 1212.32V1211.68H796.916V1252ZM827.638 1211.68V1252H834.358V1211.68H827.638ZM827.638 1203.6H834.358V1195.68H827.638V1203.6ZM858.801 1253.12C864.961 1253.12 869.121 1250.24 871.521 1246.56H871.681V1252H878.081V1224.48C878.081 1215.28 871.681 1210.56 862.641 1210.56C853.281 1210.56 845.841 1215.36 845.361 1224.4H852.161C852.721 1218.56 857.041 1216.08 862.401 1216.08C867.921 1216.08 871.441 1219.04 871.441 1223.52C871.441 1225.52 870.481 1227.04 867.681 1227.44L858.001 1229.04C850.161 1230.32 844.641 1233.68 844.641 1241.12C844.641 1248.08 850.481 1253.12 858.801 1253.12ZM851.281 1241.12C851.281 1236.88 854.641 1234.8 860.161 1233.84L865.681 1232.88C868.321 1232.48 870.801 1232.08 871.681 1231.28V1235.12C871.681 1242.88 866.721 1247.84 859.921 1247.84C854.881 1247.84 851.281 1245.36 851.281 1241.12ZM909.858 1253.12C920.738 1253.12 927.538 1243.84 927.538 1231.84C927.538 1219.84 920.818 1210.56 909.858 1210.56C903.538 1210.56 899.298 1213.6 896.898 1217.84H896.738C896.818 1216.88 896.818 1214.72 896.818 1213.04V1195.84H890.098V1252H896.658V1250.4C896.658 1248.72 896.658 1246.64 896.578 1245.76H896.738C899.138 1250 903.458 1253.12 909.858 1253.12ZM896.658 1231.92C896.658 1223.28 900.818 1216.48 908.658 1216.48C916.418 1216.48 920.658 1223.28 920.658 1231.92C920.658 1240.56 916.418 1247.28 908.658 1247.28C900.818 1247.28 896.658 1240.56 896.658 1231.92ZM937.538 1195.68V1252H944.258V1195.68H937.538ZM973.821 1253.12C983.261 1253.12 989.581 1247.52 991.181 1239.36H984.701C983.341 1244.72 979.581 1247.52 973.901 1247.52C966.301 1247.52 961.181 1242.32 960.861 1233.44H991.421C991.501 1232.56 991.501 1231.52 991.501 1230.8C991.501 1218.08 984.381 1210.56 973.661 1210.56C962.221 1210.56 953.981 1219.28 953.981 1231.92C953.981 1244.64 961.661 1253.12 973.821 1253.12ZM961.021 1228.24C961.821 1221.76 966.301 1216.16 973.661 1216.16C980.861 1216.16 984.621 1221.68 984.781 1228.24H961.021ZM1030.45 1262.08H1036.21C1030.37 1251.6 1025.97 1237.92 1025.97 1223.84C1025.97 1209.84 1030.37 1196.08 1036.21 1185.6H1030.45C1025.09 1194.24 1019.97 1208.08 1019.97 1223.84C1019.97 1239.68 1025.09 1253.04 1030.45 1262.08ZM1061.06 1247.28C1053.3 1247.28 1048.98 1243.04 1048.66 1235.28H1041.94C1042.26 1247.04 1049.7 1253.2 1060.9 1253.2C1071.86 1253.2 1079.22 1247.04 1079.22 1237.12C1079.22 1230.48 1075.46 1225.36 1068.66 1223.12V1222.96C1074.02 1220.56 1077.7 1216.32 1077.7 1210.24C1077.7 1200.56 1070.66 1194.48 1060.82 1194.48C1049.86 1194.48 1042.82 1201.52 1042.82 1211.76H1049.54C1049.54 1204.8 1053.94 1200.4 1060.74 1200.4C1067.14 1200.4 1070.98 1204.4 1070.98 1210.48C1070.98 1216.72 1066.58 1220.24 1059.62 1220.24H1055.14V1226.16H1059.86C1067.54 1226.16 1072.5 1230.24 1072.5 1236.8C1072.5 1243.44 1068.34 1247.28 1061.06 1247.28ZM1108.23 1253.2C1122.07 1253.2 1128.47 1240.32 1128.47 1223.84C1128.47 1207.36 1122.07 1194.48 1108.23 1194.48C1094.47 1194.48 1087.99 1207.36 1087.99 1223.84C1087.99 1240.32 1094.47 1253.2 1108.23 1253.2ZM1094.87 1223.84C1094.87 1211.04 1098.79 1200.48 1108.23 1200.48C1117.75 1200.48 1121.67 1211.04 1121.67 1223.84C1121.67 1236.64 1117.75 1247.2 1108.23 1247.2C1098.79 1247.2 1094.87 1236.64 1094.87 1223.84ZM1157.85 1253.2C1171.69 1253.2 1178.09 1240.32 1178.09 1223.84C1178.09 1207.36 1171.69 1194.48 1157.85 1194.48C1144.09 1194.48 1137.61 1207.36 1137.61 1223.84C1137.61 1240.32 1144.09 1253.2 1157.85 1253.2ZM1144.49 1223.84C1144.49 1211.04 1148.41 1200.48 1157.85 1200.48C1167.37 1200.48 1171.29 1211.04 1171.29 1223.84C1171.29 1236.64 1167.37 1247.2 1157.85 1247.2C1148.41 1247.2 1144.49 1236.64 1144.49 1223.84ZM1188.92 1220.96V1226.72H1210.2V1220.96H1188.92ZM1239.49 1253.12C1249.89 1253.12 1258.37 1247.36 1258.37 1237.12C1258.37 1228.72 1252.93 1224.4 1247.73 1222.48V1222.4C1252.29 1220.64 1256.85 1216.8 1256.85 1209.68C1256.85 1200.32 1248.93 1194.56 1239.49 1194.56C1230.13 1194.56 1222.13 1200.32 1222.13 1209.68C1222.13 1216.8 1226.69 1220.64 1231.33 1222.4V1222.48C1226.05 1224.4 1220.61 1228.72 1220.61 1237.12C1220.61 1247.36 1229.17 1253.12 1239.49 1253.12ZM1227.33 1236.48C1227.33 1229.36 1232.77 1225.28 1239.49 1225.28C1246.29 1225.28 1251.73 1229.36 1251.73 1236.48C1251.73 1243.6 1246.29 1247.52 1239.49 1247.52C1232.77 1247.52 1227.33 1243.6 1227.33 1236.48ZM1228.85 1209.92C1228.85 1203.68 1233.57 1200.08 1239.49 1200.08C1245.41 1200.08 1250.21 1203.68 1250.21 1209.92C1250.21 1216.24 1245.41 1219.84 1239.49 1219.84C1233.57 1219.84 1228.85 1216.24 1228.85 1209.92ZM1287.44 1253.2C1301.28 1253.2 1307.68 1240.32 1307.68 1223.84C1307.68 1207.36 1301.28 1194.48 1287.44 1194.48C1273.68 1194.48 1267.2 1207.36 1267.2 1223.84C1267.2 1240.32 1273.68 1253.2 1287.44 1253.2ZM1274.08 1223.84C1274.08 1211.04 1278 1200.48 1287.44 1200.48C1296.96 1200.48 1300.88 1211.04 1300.88 1223.84C1300.88 1236.64 1296.96 1247.2 1287.44 1247.2C1278 1247.2 1274.08 1236.64 1274.08 1223.84ZM1337.07 1253.2C1350.91 1253.2 1357.31 1240.32 1357.31 1223.84C1357.31 1207.36 1350.91 1194.48 1337.07 1194.48C1323.31 1194.48 1316.83 1207.36 1316.83 1223.84C1316.83 1240.32 1323.31 1253.2 1337.07 1253.2ZM1323.71 1223.84C1323.71 1211.04 1327.63 1200.48 1337.07 1200.48C1346.59 1200.48 1350.51 1211.04 1350.51 1223.84C1350.51 1236.64 1346.59 1247.2 1337.07 1247.2C1327.63 1247.2 1323.71 1236.64 1323.71 1223.84ZM1363.42 1262.08H1369.18C1374.54 1253.04 1379.66 1239.68 1379.66 1223.84C1379.66 1208.08 1374.54 1194.24 1369.18 1185.6H1363.42C1369.26 1196.08 1373.66 1209.84 1373.66 1223.84C1373.66 1237.92 1369.26 1251.6 1363.42 1262.08Z" fill="black"/>
</svg>
