<svg width="3000" height="1500" viewBox="0 0 3000 1500" fill="none" xmlns="http://www.w3.org/2000/svg">
<rect x="50" y="50" width="2900" height="1400" rx="150" stroke="black" stroke-width="100"/>
<path d="M280.32 917H437.06V663.45H722.88V536.214H437.06V395.148H745.008V267.912H280.32V917ZM776.255 917H925.619V267.912H776.255V917ZM1171.04 837.708C1128.63 837.708 1106.5 817.424 1106.5 789.764C1106.5 762.104 1127.71 748.274 1159.98 741.82L1196.86 734.444C1233.74 727.068 1250.34 716.004 1260.48 704.94V743.664C1260.48 806.36 1220.83 837.708 1171.04 837.708ZM958.984 785.154C958.984 866.29 1025.37 929.908 1132.32 929.908C1202.39 929.908 1242.04 896.716 1262.32 865.368H1264.17V917H1403.39V609.052C1403.39 489.192 1329.63 435.716 1193.17 435.716C1056.72 435.716 970.048 498.412 970.048 609.052H1118.49C1120.33 557.42 1153.53 540.824 1193.17 540.824C1233.74 540.824 1258.63 555.576 1258.63 588.768C1258.63 610.896 1245.73 623.804 1215.3 628.414L1108.35 645.01C1005.08 660.684 958.984 704.018 958.984 785.154ZM1677.17 917H1733.41V810.048H1715.9C1667.95 810.048 1645.82 804.516 1645.82 758.416V555.576H1733.41V448.624H1644.9L1643.06 446.78C1644.9 436.638 1645.82 422.808 1645.82 410.822V315.856H1497.38V386.85C1497.38 431.106 1480.79 448.624 1441.14 448.624H1419.93V555.576H1497.38V783.31C1497.38 886.574 1533.34 917 1677.17 917ZM2007.18 917H2063.42V810.048H2045.91C1997.96 810.048 1975.83 804.516 1975.83 758.416V555.576H2063.42V448.624H1974.91L1973.07 446.78C1974.91 436.638 1975.83 422.808 1975.83 410.822V315.856H1827.39V386.85C1827.39 431.106 1810.8 448.624 1771.15 448.624H1749.94V555.576H1827.39V783.31C1827.39 886.574 1863.35 917 2007.18 917ZM2214.31 1098.63C2316.65 1098.63 2371.05 1058.07 2410.69 950.192L2590.48 448.624H2436.51L2336.93 775.934H2335.09L2239.2 448.624H2077.85L2232.75 871.822C2239.2 890.262 2243.81 906.858 2243.81 920.688C2243.81 957.568 2222.61 976.008 2178.35 976.008C2163.6 976.008 2146.08 974.164 2130.41 972.32V1091.26C2153.46 1094.95 2178.35 1098.63 2214.31 1098.63Z" fill="black"/>
<path d="M282.826 1252H296.848L318.28 1194.09H306.994L290.008 1241.85H289.78L273.136 1194.09H261.166L282.826 1252ZM327.29 1252H340.286V1239H327.29V1252ZM351.393 1198.31L351.165 1198.08V1187.93L351.393 1187.7C361.083 1186.68 369.405 1180.41 374.079 1171.97L374.307 1171.74H383.655L383.883 1171.97V1251.77L383.655 1252H373.053L372.825 1251.77V1187.93H372.597C368.265 1193.52 359.829 1197.74 351.393 1198.31ZM401.769 1252H414.765V1239H401.769V1252ZM457.677 1253.71C478.767 1253.71 488.229 1235.36 488.229 1211.87C488.229 1188.39 478.767 1170.03 457.677 1170.03C436.587 1170.03 427.239 1188.39 427.239 1211.87C427.239 1235.36 436.587 1253.71 457.677 1253.71ZM438.525 1211.87C438.525 1193.29 444.111 1179.27 457.677 1179.27C471.243 1179.27 476.943 1193.29 476.943 1211.87C476.943 1230.45 471.243 1244.48 457.677 1244.48C444.111 1244.48 438.525 1230.45 438.525 1211.87ZM498.123 1198.31L497.895 1198.08V1187.93L498.123 1187.7C507.813 1186.68 516.135 1180.41 520.809 1171.97L521.037 1171.74H530.385L530.613 1171.97V1251.77L530.385 1252H519.783L519.555 1251.77V1187.93H519.327C514.995 1193.52 506.559 1197.74 498.123 1198.31ZM548.499 1252H561.495V1239H548.499V1252ZM596.428 1245.84C589.018 1245.84 584.344 1241.97 584.344 1236.38C584.344 1230.11 588.334 1227.72 596.542 1226.46L603.382 1225.32C607.714 1224.53 610.792 1223.5 612.388 1222.13V1228.97C612.388 1239.57 605.776 1245.84 596.428 1245.84ZM573.514 1236.15C573.514 1245.84 581.38 1253.6 594.718 1253.6C603.382 1253.6 609.082 1249.49 612.274 1244.36H612.502V1252H622.648V1212.33C622.648 1198.88 614.782 1192.49 599.848 1192.49C584.572 1192.49 575.11 1199.79 574.996 1213.58H585.712C586.054 1203.89 591.982 1200.81 599.848 1200.81C607.486 1200.81 612.16 1203.78 612.16 1210.62C612.16 1213.81 610.564 1215.86 605.092 1216.77L592.894 1218.71C579.67 1220.76 573.514 1225.55 573.514 1236.15ZM756.764 1207.54H664.31V1216.2H756.764V1207.54ZM822.162 1252H837.666L867.42 1171.74H855.792L830.256 1241.51H830.028L804.492 1171.74H792.294L822.162 1252ZM888.664 1245.84C881.254 1245.84 876.58 1241.97 876.58 1236.38C876.58 1230.11 880.57 1227.72 888.778 1226.46L895.618 1225.32C899.95 1224.53 903.028 1223.5 904.624 1222.13V1228.97C904.624 1239.57 898.012 1245.84 888.664 1245.84ZM865.75 1236.15C865.75 1245.84 873.616 1253.6 886.954 1253.6C895.618 1253.6 901.318 1249.49 904.51 1244.36H904.738V1252H914.884V1212.33C914.884 1198.88 907.018 1192.49 892.084 1192.49C876.808 1192.49 867.346 1199.79 867.232 1213.58H877.948C878.29 1203.89 884.218 1200.81 892.084 1200.81C899.722 1200.81 904.396 1203.78 904.396 1210.62C904.396 1213.81 902.8 1215.86 897.328 1216.77L885.13 1218.71C871.906 1220.76 865.75 1225.55 865.75 1236.15ZM930.729 1252H941.445V1224.07C941.445 1211.53 947.259 1203.32 961.053 1203.32H962.877V1193.18H961.281C950.679 1193.18 944.295 1198.42 941.217 1205.49H940.989C941.103 1201.61 941.217 1197.96 941.217 1195.11V1194.09H930.729V1252ZM973.908 1252H984.738V1194.09H973.908V1252ZM973.908 1183.71H984.738V1171.74H973.908V1183.71ZM1021.03 1245.84C1013.62 1245.84 1008.95 1241.97 1008.95 1236.38C1008.95 1230.11 1012.94 1227.72 1021.15 1226.46L1027.99 1225.32C1032.32 1224.53 1035.4 1223.5 1036.99 1222.13V1228.97C1036.99 1239.57 1030.38 1245.84 1021.03 1245.84ZM998.119 1236.15C998.119 1245.84 1005.99 1253.6 1019.32 1253.6C1027.99 1253.6 1033.69 1249.49 1036.88 1244.36H1037.11V1252H1047.25V1212.33C1047.25 1198.88 1039.39 1192.49 1024.45 1192.49C1009.18 1192.49 999.715 1199.79 999.601 1213.58H1010.32C1010.66 1203.89 1016.59 1200.81 1024.45 1200.81C1032.09 1200.81 1036.77 1203.78 1036.77 1210.62C1036.77 1213.81 1035.17 1215.86 1029.7 1216.77L1017.5 1218.71C1004.28 1220.76 998.119 1225.55 998.119 1236.15ZM1091.83 1253.6C1107.79 1253.6 1117.82 1241.63 1117.82 1223.04C1117.82 1204.46 1107.79 1192.61 1091.83 1192.61C1082.82 1192.61 1076.89 1196.82 1073.59 1202.64H1073.36C1073.47 1201.27 1073.59 1198.08 1073.59 1195.68V1171.74H1062.64V1252H1073.24V1249.83C1073.24 1247.55 1073.13 1244.7 1073.02 1243.34H1073.24C1076.55 1249.26 1082.71 1253.6 1091.83 1253.6ZM1073.24 1223.04C1073.24 1209.59 1079.63 1201.16 1090.23 1201.16C1100.72 1201.16 1106.76 1209.59 1106.76 1223.04C1106.76 1236.5 1100.72 1244.93 1090.23 1244.93C1079.63 1244.93 1073.24 1236.5 1073.24 1223.04ZM1130.21 1252H1141.16V1171.74H1130.21V1252ZM1181.78 1253.6C1196.6 1253.6 1205.5 1245.5 1207.21 1233.65H1196.49C1194.78 1241.74 1189.99 1245.39 1181.78 1245.39C1171.75 1245.39 1165.48 1238.89 1165.03 1226.01H1207.78V1222.47C1207.78 1203.32 1197.97 1192.61 1181.78 1192.61C1164.68 1192.61 1153.97 1204.69 1153.97 1223.27C1153.97 1241.85 1164.34 1253.6 1181.78 1253.6ZM1165.37 1217.69C1166.17 1207.31 1172.44 1200.81 1181.78 1200.81C1190.9 1200.81 1195.92 1206.86 1196.49 1217.69H1165.37ZM1244.61 1211.87C1244.61 1232.73 1250.88 1250.63 1258.06 1263.4H1267.64C1260 1248.92 1254.42 1230.57 1254.42 1211.87C1254.42 1193.18 1260 1174.94 1267.64 1160.34H1258.06C1250.88 1172.77 1244.61 1191.12 1244.61 1211.87ZM1305.61 1253.71C1322.48 1253.71 1332.86 1244.93 1332.86 1230.8C1332.86 1220.99 1327.27 1213.47 1317.47 1210.73V1210.5C1325.33 1207.31 1330.8 1201.5 1330.8 1192.61C1330.8 1178.7 1321.11 1170.03 1305.5 1170.03C1288.97 1170.03 1278.48 1179.04 1278.36 1194.89H1289.42C1289.65 1184.63 1295.81 1179.27 1305.27 1179.27C1314.27 1179.27 1319.63 1184.51 1319.63 1193.06C1319.63 1201.16 1313.48 1206.51 1303.1 1206.51H1295.35V1215.63H1303.44C1314.73 1215.63 1321.68 1220.99 1321.68 1230.34C1321.68 1239.35 1315.64 1244.48 1305.72 1244.48C1295.12 1244.48 1288.85 1238.78 1288.28 1227.95H1277.22C1277.57 1245.16 1288.85 1253.71 1305.61 1253.71ZM1373.57 1253.71C1394.66 1253.71 1404.13 1235.36 1404.13 1211.87C1404.13 1188.39 1394.66 1170.03 1373.57 1170.03C1352.48 1170.03 1343.14 1188.39 1343.14 1211.87C1343.14 1235.36 1352.48 1253.71 1373.57 1253.71ZM1354.42 1211.87C1354.42 1193.29 1360.01 1179.27 1373.57 1179.27C1387.14 1179.27 1392.84 1193.29 1392.84 1211.87C1392.84 1230.45 1387.14 1244.48 1373.57 1244.48C1360.01 1244.48 1354.42 1230.45 1354.42 1211.87ZM1445.83 1253.71C1466.92 1253.71 1476.38 1235.36 1476.38 1211.87C1476.38 1188.39 1466.92 1170.03 1445.83 1170.03C1424.74 1170.03 1415.39 1188.39 1415.39 1211.87C1415.39 1235.36 1424.74 1253.71 1445.83 1253.71ZM1426.67 1211.87C1426.67 1193.29 1432.26 1179.27 1445.83 1179.27C1459.39 1179.27 1465.09 1193.29 1465.09 1211.87C1465.09 1230.45 1459.39 1244.48 1445.83 1244.48C1432.26 1244.48 1426.67 1230.45 1426.67 1211.87ZM1489.92 1216.32H1520.24V1207.43H1489.92V1216.32ZM1545.92 1252H1557.09C1559.72 1221.11 1568.72 1200.47 1584.57 1181.21V1171.74H1530.65V1181.09H1572.37V1181.32C1560.17 1196.48 1548.32 1218.94 1545.92 1252ZM1621.28 1253.71C1642.37 1253.71 1651.83 1235.36 1651.83 1211.87C1651.83 1188.39 1642.37 1170.03 1621.28 1170.03C1600.19 1170.03 1590.84 1188.39 1590.84 1211.87C1590.84 1235.36 1600.19 1253.71 1621.28 1253.71ZM1602.13 1211.87C1602.13 1193.29 1607.71 1179.27 1621.28 1179.27C1634.84 1179.27 1640.54 1193.29 1640.54 1211.87C1640.54 1230.45 1634.84 1244.48 1621.28 1244.48C1607.71 1244.48 1602.13 1230.45 1602.13 1211.87ZM1693.53 1253.71C1714.62 1253.71 1724.08 1235.36 1724.08 1211.87C1724.08 1188.39 1714.62 1170.03 1693.53 1170.03C1672.44 1170.03 1663.09 1188.39 1663.09 1211.87C1663.09 1235.36 1672.44 1253.71 1693.53 1253.71ZM1674.38 1211.87C1674.38 1193.29 1679.96 1179.27 1693.53 1179.27C1707.1 1179.27 1712.8 1193.29 1712.8 1211.87C1712.8 1230.45 1707.1 1244.48 1693.53 1244.48C1679.96 1244.48 1674.38 1230.45 1674.38 1211.87ZM1756.78 1211.87C1756.78 1191.12 1750.51 1172.77 1743.32 1160.34H1733.75C1741.5 1174.94 1746.97 1193.18 1746.97 1211.87C1746.97 1230.57 1741.5 1248.92 1733.75 1263.4H1743.32C1750.51 1250.63 1756.78 1232.73 1756.78 1211.87Z" fill="black"/>
</svg>
