<svg width="3000" height="1500" viewBox="0 0 3000 1500" fill="none" xmlns="http://www.w3.org/2000/svg">
<rect x="50" y="50" width="2900" height="1400" rx="150" stroke="black" stroke-width="100"/>
<path d="M280.32 917H437.06V663.45H722.88V536.214H437.06V395.148H745.008V267.912H280.32V917ZM776.255 917H925.619V267.912H776.255V917ZM1171.04 837.708C1128.63 837.708 1106.5 817.424 1106.5 789.764C1106.5 762.104 1127.71 748.274 1159.98 741.82L1196.86 734.444C1233.74 727.068 1250.34 716.004 1260.48 704.94V743.664C1260.48 806.36 1220.83 837.708 1171.04 837.708ZM958.984 785.154C958.984 866.29 1025.37 929.908 1132.32 929.908C1202.39 929.908 1242.04 896.716 1262.32 865.368H1264.17V917H1403.39V609.052C1403.39 489.192 1329.63 435.716 1193.17 435.716C1056.72 435.716 970.048 498.412 970.048 609.052H1118.49C1120.33 557.42 1153.53 540.824 1193.17 540.824C1233.74 540.824 1258.63 555.576 1258.63 588.768C1258.63 610.896 1245.73 623.804 1215.3 628.414L1108.35 645.01C1005.08 660.684 958.984 704.018 958.984 785.154ZM1677.17 917H1733.41V810.048H1715.9C1667.95 810.048 1645.82 804.516 1645.82 758.416V555.576H1733.41V448.624H1644.9L1643.06 446.78C1644.9 436.638 1645.82 422.808 1645.82 410.822V315.856H1497.38V386.85C1497.38 431.106 1480.79 448.624 1441.14 448.624H1419.93V555.576H1497.38V783.31C1497.38 886.574 1533.34 917 1677.17 917ZM2007.18 917H2063.42V810.048H2045.91C1997.96 810.048 1975.83 804.516 1975.83 758.416V555.576H2063.42V448.624H1974.91L1973.07 446.78C1974.91 436.638 1975.83 422.808 1975.83 410.822V315.856H1827.39V386.85C1827.39 431.106 1810.8 448.624 1771.15 448.624H1749.94V555.576H1827.39V783.31C1827.39 886.574 1863.35 917 2007.18 917ZM2214.31 1098.63C2316.65 1098.63 2371.05 1058.07 2410.69 950.192L2590.48 448.624H2436.51L2336.93 775.934H2335.09L2239.2 448.624H2077.85L2232.75 871.822C2239.2 890.262 2243.81 906.858 2243.81 920.688C2243.81 957.568 2222.61 976.008 2178.35 976.008C2163.6 976.008 2146.08 974.164 2130.41 972.32V1091.26C2153.46 1094.95 2178.35 1098.63 2214.31 1098.63Z" fill="black"/>
<path d="M282.826 1252H296.848L318.28 1194.09H306.994L290.008 1241.85H289.78L273.136 1194.09H261.166L282.826 1252ZM327.29 1252H340.286V1239H327.29V1252ZM351.393 1198.31L351.165 1198.08V1187.93L351.393 1187.7C361.083 1186.68 369.405 1180.41 374.079 1171.97L374.307 1171.74H383.655L383.883 1171.97V1251.77L383.655 1252H373.053L372.825 1251.77V1187.93H372.597C368.265 1193.52 359.829 1197.74 351.393 1198.31ZM401.769 1252H414.765V1239H401.769V1252ZM457.677 1253.71C478.767 1253.71 488.229 1235.36 488.229 1211.87C488.229 1188.39 478.767 1170.03 457.677 1170.03C436.587 1170.03 427.239 1188.39 427.239 1211.87C427.239 1235.36 436.587 1253.71 457.677 1253.71ZM438.525 1211.87C438.525 1193.29 444.111 1179.27 457.677 1179.27C471.243 1179.27 476.943 1193.29 476.943 1211.87C476.943 1230.45 471.243 1244.48 457.677 1244.48C444.111 1244.48 438.525 1230.45 438.525 1211.87ZM498.123 1198.31L497.895 1198.08V1187.93L498.123 1187.7C507.813 1186.68 516.135 1180.41 520.809 1171.97L521.037 1171.74H530.385L530.613 1171.97V1251.77L530.385 1252H519.783L519.555 1251.77V1187.93H519.327C514.995 1193.52 506.559 1197.74 498.123 1198.31ZM548.499 1252H561.495V1239H548.499V1252ZM605.434 1253.6C621.394 1253.6 631.426 1241.63 631.426 1223.04C631.426 1204.46 621.394 1192.61 605.434 1192.61C596.428 1192.61 590.5 1196.82 587.194 1202.64H586.966C587.08 1201.27 587.194 1198.08 587.194 1195.68V1171.74H576.25V1252H586.852V1249.83C586.852 1247.55 586.738 1244.7 586.624 1243.34H586.852C590.158 1249.26 596.314 1253.6 605.434 1253.6ZM586.852 1223.04C586.852 1209.59 593.236 1201.16 603.838 1201.16C614.326 1201.16 620.368 1209.59 620.368 1223.04C620.368 1236.5 614.326 1244.93 603.838 1244.93C593.236 1244.93 586.852 1236.5 586.852 1223.04ZM762.776 1207.54H670.322V1216.2H762.776V1207.54ZM828.174 1252H843.678L873.432 1171.74H861.804L836.268 1241.51H836.04L810.504 1171.74H798.306L828.174 1252ZM894.676 1245.84C887.266 1245.84 882.592 1241.97 882.592 1236.38C882.592 1230.11 886.582 1227.72 894.79 1226.46L901.63 1225.32C905.962 1224.53 909.04 1223.5 910.636 1222.13V1228.97C910.636 1239.57 904.024 1245.84 894.676 1245.84ZM871.762 1236.15C871.762 1245.84 879.628 1253.6 892.966 1253.6C901.63 1253.6 907.33 1249.49 910.522 1244.36H910.75V1252H920.896V1212.33C920.896 1198.88 913.03 1192.49 898.096 1192.49C882.82 1192.49 873.358 1199.79 873.244 1213.58H883.96C884.302 1203.89 890.23 1200.81 898.096 1200.81C905.734 1200.81 910.408 1203.78 910.408 1210.62C910.408 1213.81 908.812 1215.86 903.34 1216.77L891.142 1218.71C877.918 1220.76 871.762 1225.55 871.762 1236.15ZM936.741 1252H947.457V1224.07C947.457 1211.53 953.271 1203.32 967.065 1203.32H968.889V1193.18H967.293C956.691 1193.18 950.307 1198.42 947.229 1205.49H947.001C947.115 1201.61 947.229 1197.96 947.229 1195.11V1194.09H936.741V1252ZM979.92 1252H990.75V1194.09H979.92V1252ZM979.92 1183.71H990.75V1171.74H979.92V1183.71ZM1027.04 1245.84C1019.63 1245.84 1014.96 1241.97 1014.96 1236.38C1014.96 1230.11 1018.95 1227.72 1027.16 1226.46L1034 1225.32C1038.33 1224.53 1041.41 1223.5 1043 1222.13V1228.97C1043 1239.57 1036.39 1245.84 1027.04 1245.84ZM1004.13 1236.15C1004.13 1245.84 1012 1253.6 1025.33 1253.6C1034 1253.6 1039.7 1249.49 1042.89 1244.36H1043.12V1252H1053.26V1212.33C1053.26 1198.88 1045.4 1192.49 1030.46 1192.49C1015.19 1192.49 1005.73 1199.79 1005.61 1213.58H1016.33C1016.67 1203.89 1022.6 1200.81 1030.46 1200.81C1038.1 1200.81 1042.78 1203.78 1042.78 1210.62C1042.78 1213.81 1041.18 1215.86 1035.71 1216.77L1023.51 1218.71C1010.29 1220.76 1004.13 1225.55 1004.13 1236.15ZM1097.84 1253.6C1113.8 1253.6 1123.83 1241.63 1123.83 1223.04C1123.83 1204.46 1113.8 1192.61 1097.84 1192.61C1088.83 1192.61 1082.9 1196.82 1079.6 1202.64H1079.37C1079.48 1201.27 1079.6 1198.08 1079.6 1195.68V1171.74H1068.65V1252H1079.26V1249.83C1079.26 1247.55 1079.14 1244.7 1079.03 1243.34H1079.26C1082.56 1249.26 1088.72 1253.6 1097.84 1253.6ZM1079.26 1223.04C1079.26 1209.59 1085.64 1201.16 1096.24 1201.16C1106.73 1201.16 1112.77 1209.59 1112.77 1223.04C1112.77 1236.5 1106.73 1244.93 1096.24 1244.93C1085.64 1244.93 1079.26 1236.5 1079.26 1223.04ZM1136.22 1252H1147.17V1171.74H1136.22V1252ZM1187.8 1253.6C1202.62 1253.6 1211.51 1245.5 1213.22 1233.65H1202.5C1200.79 1241.74 1196 1245.39 1187.8 1245.39C1177.76 1245.39 1171.49 1238.89 1171.04 1226.01H1213.79V1222.47C1213.79 1203.32 1203.98 1192.61 1187.8 1192.61C1170.7 1192.61 1159.98 1204.69 1159.98 1223.27C1159.98 1241.85 1170.35 1253.6 1187.8 1253.6ZM1171.38 1217.69C1172.18 1207.31 1178.45 1200.81 1187.8 1200.81C1196.92 1200.81 1201.93 1206.86 1202.5 1217.69H1171.38ZM1250.62 1211.87C1250.62 1232.73 1256.89 1250.63 1264.08 1263.4H1273.65C1266.01 1248.92 1260.43 1230.57 1260.43 1211.87C1260.43 1193.18 1266.01 1174.94 1273.65 1160.34H1264.08C1256.89 1172.77 1250.62 1191.12 1250.62 1211.87ZM1311.62 1253.71C1328.49 1253.71 1338.87 1244.93 1338.87 1230.8C1338.87 1220.99 1333.28 1213.47 1323.48 1210.73V1210.5C1331.34 1207.31 1336.82 1201.5 1336.82 1192.61C1336.82 1178.7 1327.13 1170.03 1311.51 1170.03C1294.98 1170.03 1284.49 1179.04 1284.38 1194.89H1295.43C1295.66 1184.63 1301.82 1179.27 1311.28 1179.27C1320.29 1179.27 1325.64 1184.51 1325.64 1193.06C1325.64 1201.16 1319.49 1206.51 1309.11 1206.51H1301.36V1215.63H1309.46C1320.74 1215.63 1327.7 1220.99 1327.7 1230.34C1327.7 1239.35 1321.65 1244.48 1311.74 1244.48C1301.13 1244.48 1294.86 1238.78 1294.29 1227.95H1283.24C1283.58 1245.16 1294.86 1253.71 1311.62 1253.71ZM1379.59 1253.71C1400.68 1253.71 1410.14 1235.36 1410.14 1211.87C1410.14 1188.39 1400.68 1170.03 1379.59 1170.03C1358.5 1170.03 1349.15 1188.39 1349.15 1211.87C1349.15 1235.36 1358.5 1253.71 1379.59 1253.71ZM1360.43 1211.87C1360.43 1193.29 1366.02 1179.27 1379.59 1179.27C1393.15 1179.27 1398.85 1193.29 1398.85 1211.87C1398.85 1230.45 1393.15 1244.48 1379.59 1244.48C1366.02 1244.48 1360.43 1230.45 1360.43 1211.87ZM1451.84 1253.71C1472.93 1253.71 1482.39 1235.36 1482.39 1211.87C1482.39 1188.39 1472.93 1170.03 1451.84 1170.03C1430.75 1170.03 1421.4 1188.39 1421.4 1211.87C1421.4 1235.36 1430.75 1253.71 1451.84 1253.71ZM1432.69 1211.87C1432.69 1193.29 1438.27 1179.27 1451.84 1179.27C1465.4 1179.27 1471.1 1193.29 1471.1 1211.87C1471.1 1230.45 1465.4 1244.48 1451.84 1244.48C1438.27 1244.48 1432.69 1230.45 1432.69 1211.87ZM1495.93 1216.32H1526.26V1207.43H1495.93V1216.32ZM1551.93 1252H1563.11C1565.73 1221.11 1574.73 1200.47 1590.58 1181.21V1171.74H1536.66V1181.09H1578.38V1181.32C1566.18 1196.48 1554.33 1218.94 1551.93 1252ZM1627.29 1253.71C1648.38 1253.71 1657.84 1235.36 1657.84 1211.87C1657.84 1188.39 1648.38 1170.03 1627.29 1170.03C1606.2 1170.03 1596.85 1188.39 1596.85 1211.87C1596.85 1235.36 1606.2 1253.71 1627.29 1253.71ZM1608.14 1211.87C1608.14 1193.29 1613.72 1179.27 1627.29 1179.27C1640.86 1179.27 1646.56 1193.29 1646.56 1211.87C1646.56 1230.45 1640.86 1244.48 1627.29 1244.48C1613.72 1244.48 1608.14 1230.45 1608.14 1211.87ZM1699.54 1253.71C1720.63 1253.71 1730.09 1235.36 1730.09 1211.87C1730.09 1188.39 1720.63 1170.03 1699.54 1170.03C1678.45 1170.03 1669.1 1188.39 1669.1 1211.87C1669.1 1235.36 1678.45 1253.71 1699.54 1253.71ZM1680.39 1211.87C1680.39 1193.29 1685.98 1179.27 1699.54 1179.27C1713.11 1179.27 1718.81 1193.29 1718.81 1211.87C1718.81 1230.45 1713.11 1244.48 1699.54 1244.48C1685.98 1244.48 1680.39 1230.45 1680.39 1211.87ZM1762.79 1211.87C1762.79 1191.12 1756.52 1172.77 1749.34 1160.34H1739.76C1747.51 1174.94 1752.98 1193.18 1752.98 1211.87C1752.98 1230.57 1747.51 1248.92 1739.76 1263.4H1749.34C1756.52 1250.63 1762.79 1232.73 1762.79 1211.87Z" fill="black"/>
</svg>
