<svg width="3000" height="1500" viewBox="0 0 3000 1500" fill="none" xmlns="http://www.w3.org/2000/svg">
<rect x="50" y="50" width="2900" height="1400" rx="150" stroke="black" stroke-width="100"/>
<path d="M280.32 917H438.904V671.748H680.468V535.292H438.904V404.368H724.724V267.912H280.32V917ZM763.009 917H910.529V267.912H763.009V917ZM1125.97 929.908C1199.73 929.908 1234.77 896.716 1256.9 867.212H1258.74V917H1397.04V607.208C1397.04 497.49 1313.14 439.404 1188.67 439.404C1063.28 439.404 971.078 501.178 967.39 610.896H1114.91C1116.75 566.64 1148.1 544.512 1188.67 544.512C1228.32 544.512 1253.21 564.796 1253.21 594.3C1253.21 614.584 1242.15 627.492 1212.64 632.102L1113.07 647.776C1019.02 662.528 960.014 704.94 960.014 786.076C960.014 870.9 1026.4 929.908 1125.97 929.908ZM1107.53 784.232C1107.53 754.728 1129.66 739.976 1162.85 733.522L1205.27 725.224C1231.08 720.614 1245.83 714.16 1255.05 705.862V736.288C1255.05 798.984 1216.33 830.332 1166.54 830.332C1129.66 830.332 1107.53 812.814 1107.53 784.232ZM1656.82 920.688C1691.86 920.688 1713.06 917.922 1730.58 914.234V804.516C1716.75 806.36 1713.99 806.36 1702.92 806.36C1676.18 806.36 1642.07 800.828 1642.07 751.04V562.952H1728.74V452.312H1642.07V315.856H1494.55V452.312H1420.79V562.952H1494.55V778.7C1494.55 881.964 1553.56 920.688 1656.82 920.688ZM1985.25 920.688C2020.29 920.688 2041.49 917.922 2059.01 914.234V804.516C2045.18 806.36 2042.41 806.36 2031.35 806.36C2004.61 806.36 1970.5 800.828 1970.5 751.04V562.952H2057.17V452.312H1970.5V315.856H1822.98V452.312H1749.22V562.952H1822.98V778.7C1822.98 881.964 1881.99 920.688 1985.25 920.688ZM2202.11 1097.71C2303.53 1097.71 2357.93 1057.14 2396.66 950.192L2575.52 452.312H2422.47L2323.82 776.856H2321.97L2227.01 452.312H2066.58L2220.55 871.822C2227.01 890.262 2231.62 906.858 2231.62 920.688C2231.62 957.568 2210.41 976.008 2166.16 976.008C2151.4 976.008 2141.26 974.164 2126.51 972.32V1090.34C2148.64 1094.02 2166.16 1097.71 2202.11 1097.71Z" fill="black"/>
<path d="M282.826 1252H294.91L316.228 1195.23H306.424L289.096 1243.11H288.868L271.654 1195.23H261.394L282.826 1252ZM324.945 1252H336.915V1240.03H324.945V1252ZM347.697 1196.94L347.469 1196.71V1187.82L347.697 1187.59C357.273 1186.56 365.595 1180.52 370.383 1171.97L370.611 1171.74H378.591L378.819 1171.97V1251.77L378.591 1252H369.357L369.129 1251.77V1186.56H368.901C364.569 1192.15 356.247 1196.37 347.697 1196.94ZM396.836 1252H408.806V1240.03H396.836V1252ZM450.825 1253.71C471.231 1253.71 480.579 1235.36 480.579 1211.87C480.579 1188.39 471.231 1170.03 450.825 1170.03C430.419 1170.03 420.957 1188.39 420.957 1211.87C420.957 1235.36 430.419 1253.71 450.825 1253.71ZM430.761 1211.87C430.761 1193.52 436.803 1178.81 450.825 1178.81C464.733 1178.81 470.889 1193.52 470.889 1211.87C470.889 1230.23 464.733 1244.93 450.825 1244.93C436.803 1244.93 430.761 1230.23 430.761 1211.87ZM490.491 1196.94L490.263 1196.71V1187.82L490.491 1187.59C500.067 1186.56 508.389 1180.52 513.177 1171.97L513.405 1171.74H521.385L521.613 1171.97V1251.77L521.385 1252H512.151L511.923 1251.77V1186.56H511.695C507.363 1192.15 499.041 1196.37 490.491 1196.94ZM539.63 1252H551.6V1240.03H539.63V1252ZM584.499 1253.6C593.049 1253.6 598.863 1249.49 602.283 1244.25H602.511V1252H611.517V1213.35C611.517 1200.24 602.511 1193.63 589.401 1193.63C576.633 1193.63 566.145 1200.36 565.461 1213.13H575.037C575.835 1204.8 581.877 1201.5 589.401 1201.5C597.153 1201.5 602.169 1205.6 602.169 1211.87C602.169 1214.61 600.801 1216.89 596.697 1217.46L583.359 1219.51C572.187 1221.22 564.435 1226.01 564.435 1236.61C564.435 1246.53 572.529 1253.6 584.499 1253.6ZM574.011 1236.72C574.011 1230.8 578.571 1227.72 586.323 1226.46L593.961 1225.21C597.837 1224.53 600.915 1223.96 602.511 1222.93V1228.17C602.511 1239.12 595.557 1246.07 585.639 1246.07C578.913 1246.07 574.011 1242.54 574.011 1236.72ZM745.84 1207.77H653.956V1215.98H745.84V1207.77ZM811.895 1252H825.119L855.215 1171.74H844.727L818.849 1241.4H818.621L792.629 1171.74H781.685L811.895 1252ZM874.775 1253.6C883.325 1253.6 889.139 1249.49 892.559 1244.25H892.787V1252H901.793V1213.35C901.793 1200.24 892.787 1193.63 879.677 1193.63C866.909 1193.63 856.421 1200.36 855.737 1213.13H865.313C866.111 1204.8 872.153 1201.5 879.677 1201.5C887.429 1201.5 892.445 1205.6 892.445 1211.87C892.445 1214.61 891.077 1216.89 886.973 1217.46L873.635 1219.51C862.463 1221.22 854.711 1226.01 854.711 1236.61C854.711 1246.53 862.805 1253.6 874.775 1253.6ZM864.287 1236.72C864.287 1230.8 868.847 1227.72 876.599 1226.46L884.237 1225.21C888.113 1224.53 891.191 1223.96 892.787 1222.93V1228.17C892.787 1239.12 885.833 1246.07 875.915 1246.07C869.189 1246.07 864.287 1242.54 864.287 1236.72ZM918.209 1252H927.671V1224.41C927.671 1212.1 934.055 1203.44 944.771 1203.44C946.367 1203.44 947.849 1203.66 949.217 1203.89V1195.23C948.305 1195 946.595 1194.77 944.657 1194.77C936.107 1194.77 930.293 1199.45 927.557 1206.63H927.329C927.443 1202.64 927.443 1199.1 927.443 1196.14V1195.23H918.209V1252ZM960.945 1252H970.293V1195.23H960.945V1252ZM960.945 1184.63H970.293V1173H960.945V1184.63ZM1005.32 1253.6C1013.87 1253.6 1019.69 1249.49 1023.11 1244.25H1023.34V1252H1032.34V1213.35C1032.34 1200.24 1023.34 1193.63 1010.23 1193.63C997.457 1193.63 986.969 1200.36 986.285 1213.13H995.861C996.659 1204.8 1002.7 1201.5 1010.23 1201.5C1017.98 1201.5 1022.99 1205.6 1022.99 1211.87C1022.99 1214.61 1021.63 1216.89 1017.52 1217.46L1004.18 1219.51C993.011 1221.22 985.259 1226.01 985.259 1236.61C985.259 1246.53 993.353 1253.6 1005.32 1253.6ZM994.835 1236.72C994.835 1230.8 999.395 1227.72 1007.15 1226.46L1014.79 1225.21C1018.66 1224.53 1021.74 1223.96 1023.34 1222.93V1228.17C1023.34 1239.12 1016.38 1246.07 1006.46 1246.07C999.737 1246.07 994.835 1242.54 994.835 1236.72ZM1076.57 1253.6C1091.85 1253.6 1101.42 1240.49 1101.42 1223.61C1101.42 1206.74 1091.85 1193.75 1076.57 1193.75C1067.68 1193.75 1061.64 1197.85 1058.22 1203.78H1057.99C1058.1 1202.52 1058.22 1199.45 1058.22 1197.17V1171.74H1048.76V1252H1057.99V1249.72C1057.99 1247.44 1057.99 1244.48 1057.88 1243.22H1058.1C1061.41 1249.15 1067.57 1253.6 1076.57 1253.6ZM1057.88 1223.73C1057.88 1211.53 1063.8 1201.95 1074.75 1201.95C1085.69 1201.95 1091.62 1211.53 1091.62 1223.73C1091.62 1235.81 1085.69 1245.39 1074.75 1245.39C1063.8 1245.39 1057.88 1235.81 1057.88 1223.73ZM1114.98 1252H1124.45V1171.74H1114.98V1252ZM1165.4 1253.6C1178.74 1253.6 1187.86 1245.73 1190.14 1233.99H1180.91C1179.08 1241.63 1173.5 1245.73 1165.4 1245.73C1154.92 1245.73 1147.85 1238.32 1147.39 1225.89H1190.48C1190.6 1224.64 1190.6 1223.16 1190.6 1222.13C1190.6 1204.12 1180.68 1193.63 1165.4 1193.63C1149.33 1193.63 1137.7 1205.94 1137.7 1223.84C1137.7 1241.63 1148.42 1253.6 1165.4 1253.6ZM1147.73 1218.48C1148.76 1209.48 1155.03 1201.5 1165.52 1201.5C1175.55 1201.5 1180.91 1209.25 1181.02 1218.48H1147.73ZM1227.65 1211.87C1227.65 1232.85 1234.04 1250.75 1241.22 1263.4H1249.65C1241.9 1248.92 1236.32 1230.57 1236.32 1211.87C1236.32 1193.18 1241.9 1174.82 1249.65 1160.34H1241.22C1234.04 1172.77 1227.65 1191.12 1227.65 1211.87ZM1287.07 1253.71C1303.82 1253.71 1313.86 1244.59 1313.86 1230.8C1313.86 1220.99 1308.16 1213.47 1298.35 1210.85V1210.62C1306.22 1207.2 1311.8 1201.27 1311.8 1192.49C1311.8 1178.7 1302.46 1170.03 1287.07 1170.03C1270.88 1170.03 1260.5 1180.07 1260.39 1194.66H1270.19C1270.31 1185.42 1276.81 1178.7 1286.84 1178.7C1296.3 1178.7 1302.11 1184.51 1302.11 1192.95C1302.11 1200.93 1295.39 1206.63 1284.67 1206.63H1276.92V1215.41H1285.01C1296.76 1215.41 1304.17 1220.88 1304.17 1230.45C1304.17 1239.46 1297.78 1244.93 1287.18 1244.93C1276.12 1244.93 1269.62 1238.89 1269.05 1228.17H1259.25C1259.59 1245.05 1270.76 1253.71 1287.07 1253.71ZM1353.9 1253.71C1374.31 1253.71 1383.65 1235.36 1383.65 1211.87C1383.65 1188.39 1374.31 1170.03 1353.9 1170.03C1333.49 1170.03 1324.03 1188.39 1324.03 1211.87C1324.03 1235.36 1333.49 1253.71 1353.9 1253.71ZM1333.84 1211.87C1333.84 1193.52 1339.88 1178.81 1353.9 1178.81C1367.81 1178.81 1373.96 1193.52 1373.96 1211.87C1373.96 1230.23 1367.81 1244.93 1353.9 1244.93C1339.88 1244.93 1333.84 1230.23 1333.84 1211.87ZM1424.8 1253.71C1445.21 1253.71 1454.56 1235.36 1454.56 1211.87C1454.56 1188.39 1445.21 1170.03 1424.8 1170.03C1404.4 1170.03 1394.94 1188.39 1394.94 1211.87C1394.94 1235.36 1404.4 1253.71 1424.8 1253.71ZM1404.74 1211.87C1404.74 1193.52 1410.78 1178.81 1424.8 1178.81C1438.71 1178.81 1444.87 1193.52 1444.87 1211.87C1444.87 1230.23 1438.71 1244.93 1424.8 1244.93C1410.78 1244.93 1404.74 1230.23 1404.74 1211.87ZM1468.23 1215.98H1498.56V1207.77H1468.23V1215.98ZM1538.92 1253.6C1554.2 1253.6 1566.28 1245.27 1566.28 1230.57C1566.28 1218.71 1558.42 1212.67 1551.01 1209.93V1209.82C1557.51 1207.31 1564 1201.84 1564 1191.81C1564 1178.36 1552.6 1170.15 1538.92 1170.15C1525.24 1170.15 1513.62 1178.36 1513.62 1191.81C1513.62 1201.84 1520.23 1207.31 1526.84 1209.82V1209.93C1519.32 1212.67 1511.45 1218.71 1511.45 1230.57C1511.45 1245.27 1523.65 1253.6 1538.92 1253.6ZM1521.14 1229.66C1521.14 1219.74 1529.01 1214.15 1538.92 1214.15C1548.61 1214.15 1556.59 1219.74 1556.59 1229.66C1556.59 1239.46 1548.61 1245.16 1538.92 1245.16C1529.01 1245.16 1521.14 1239.46 1521.14 1229.66ZM1523.31 1192.26C1523.31 1183.6 1530.26 1178.58 1538.92 1178.58C1547.36 1178.58 1554.31 1183.6 1554.31 1192.26C1554.31 1200.93 1547.36 1206.06 1538.92 1206.06C1530.26 1206.06 1523.31 1200.93 1523.31 1192.26ZM1606.67 1253.71C1627.08 1253.71 1636.43 1235.36 1636.43 1211.87C1636.43 1188.39 1627.08 1170.03 1606.67 1170.03C1586.27 1170.03 1576.81 1188.39 1576.81 1211.87C1576.81 1235.36 1586.27 1253.71 1606.67 1253.71ZM1586.61 1211.87C1586.61 1193.52 1592.65 1178.81 1606.67 1178.81C1620.58 1178.81 1626.74 1193.52 1626.74 1211.87C1626.74 1230.23 1620.58 1244.93 1606.67 1244.93C1592.65 1244.93 1586.61 1230.23 1586.61 1211.87ZM1677.58 1253.71C1697.98 1253.71 1707.33 1235.36 1707.33 1211.87C1707.33 1188.39 1697.98 1170.03 1677.58 1170.03C1657.17 1170.03 1647.71 1188.39 1647.71 1211.87C1647.71 1235.36 1657.17 1253.71 1677.58 1253.71ZM1657.51 1211.87C1657.51 1193.52 1663.55 1178.81 1677.58 1178.81C1691.48 1178.81 1697.64 1193.52 1697.64 1211.87C1697.64 1230.23 1691.48 1244.93 1677.58 1244.93C1663.55 1244.93 1657.51 1230.23 1657.51 1211.87ZM1739.02 1211.87C1739.02 1191.12 1732.63 1172.77 1725.45 1160.34H1717.01C1724.77 1174.82 1730.35 1193.18 1730.35 1211.87C1730.35 1230.57 1724.77 1248.92 1717.01 1263.4H1725.45C1732.63 1250.75 1739.02 1232.85 1739.02 1211.87Z" fill="black"/>
</svg>
