<svg width="3000" height="1500" viewBox="0 0 3000 1500" fill="none" xmlns="http://www.w3.org/2000/svg">
<rect x="50" y="50" width="2900" height="1400" rx="150" stroke="black" stroke-width="100"/>
<path d="M267.412 267.912V917H425.996V653.308H667.56V531.604H425.996V389.616H711.816V267.912H267.412ZM755.762 267.912V917H903.282V267.912H755.762ZM1111.87 929.908C1185.63 929.908 1220.67 896.716 1242.79 867.212H1244.64V917H1382.94V607.208C1382.94 500.256 1299.96 439.404 1175.49 439.404C1050.1 439.404 956.974 503.944 953.286 610.896H1100.81C1102.65 566.64 1135.84 544.512 1176.41 544.512C1216.06 544.512 1239.11 564.796 1239.11 594.3C1239.11 616.428 1228.04 627.492 1198.54 632.102L1098.96 647.776C1004.92 662.528 945.91 704.94 945.91 786.076C945.91 870.9 1012.29 929.908 1111.87 929.908ZM1091.59 784.232C1091.59 754.728 1115.56 739.054 1148.75 732.6L1191.16 724.302C1216.98 719.692 1231.73 713.238 1240.95 704.94V736.288C1240.95 798.984 1202.23 830.332 1152.44 830.332C1115.56 830.332 1091.59 813.736 1091.59 784.232ZM1635.86 920.688C1670.9 920.688 1692.1 917.922 1709.62 914.234V804.516C1695.79 806.36 1693.03 806.36 1681.96 806.36C1655.22 806.36 1621.11 800.828 1621.11 751.04V562.952H1707.78V452.312H1621.11V315.856H1473.59V452.312H1399.83V562.952H1473.59V778.7C1473.59 881.964 1532.6 920.688 1635.86 920.688ZM1962.27 920.688C1997.31 920.688 2018.51 917.922 2036.03 914.234V804.516C2022.2 806.36 2019.44 806.36 2008.37 806.36C1981.63 806.36 1947.52 800.828 1947.52 751.04V562.952H2034.19V452.312H1947.52V315.856H1800V452.312H1726.24V562.952H1800V778.7C1800 881.964 1859.01 920.688 1962.27 920.688ZM2189.85 1097.71C2291.27 1097.71 2345.67 1057.14 2384.4 950.192L2563.26 452.312H2410.21L2311.56 776.856H2309.71L2214.75 452.312H2054.32L2208.29 871.822C2214.75 890.262 2219.36 906.858 2219.36 920.688C2219.36 957.568 2198.15 976.008 2153.9 976.008C2139.14 976.008 2129 974.164 2114.25 972.32V1090.34C2136.38 1094.02 2153.9 1097.71 2189.85 1097.71Z" fill="black"/>
<path d="M271.312 1194.54L288.754 1242.99H288.982L306.424 1194.54H316.342L294.796 1252H282.712L260.938 1194.54H271.312ZM320.455 1240.37V1252H332.083V1240.37H320.455ZM335.271 1193.52V1184.4C342.681 1183.03 350.889 1180.29 355.563 1171.74H363.999V1252H354.423V1185.65H354.195C349.863 1190.33 341.655 1192.72 335.271 1193.52ZM384.522 1240.37V1252H396.15V1240.37H384.522ZM440.496 1253.71C460.218 1253.71 469.338 1235.36 469.338 1211.87C469.338 1188.39 460.218 1170.03 440.496 1170.03C420.888 1170.03 411.654 1188.39 411.654 1211.87C411.654 1235.36 420.888 1253.71 440.496 1253.71ZM421.458 1211.87C421.458 1193.63 427.044 1178.58 440.496 1178.58C454.062 1178.58 459.648 1193.63 459.648 1211.87C459.648 1230.11 454.062 1245.16 440.496 1245.16C427.044 1245.16 421.458 1230.11 421.458 1211.87ZM479.41 1193.52V1184.4C486.82 1183.03 495.028 1180.29 499.702 1171.74H508.138V1252H498.562V1185.65H498.334C494.002 1190.33 485.794 1192.72 479.41 1193.52ZM528.661 1240.37V1252H540.289V1240.37H528.661ZM575.401 1253.6C584.179 1253.6 590.107 1249.49 593.527 1244.25H593.755V1252H602.875V1212.78C602.875 1199.67 593.755 1192.95 580.873 1192.95C567.535 1192.95 556.933 1199.79 556.249 1212.67H565.939C566.737 1204.35 572.893 1200.81 580.531 1200.81C588.397 1200.81 593.413 1205.03 593.413 1211.42C593.413 1214.27 592.045 1216.43 588.055 1217L574.261 1219.28C563.089 1221.11 555.223 1225.89 555.223 1236.5C555.223 1246.41 563.545 1253.6 575.401 1253.6ZM564.685 1236.5C564.685 1230.45 569.473 1227.49 577.339 1226.12L585.205 1224.75C588.967 1224.18 592.501 1223.61 593.755 1222.47V1227.95C593.755 1239 586.687 1246.07 576.997 1246.07C569.815 1246.07 564.685 1242.54 564.685 1236.5ZM649.307 1207.77V1215.98H741.191V1207.77H649.307ZM781.346 1171.74H792.404L818.282 1241.28H818.51L844.388 1171.74H854.876L824.666 1252H811.556L781.346 1171.74ZM875.007 1253.6C883.785 1253.6 889.713 1249.49 893.133 1244.25H893.361V1252H902.481V1212.78C902.481 1199.67 893.361 1192.95 880.479 1192.95C867.141 1192.95 856.539 1199.79 855.855 1212.67H865.545C866.343 1204.35 872.499 1200.81 880.137 1200.81C888.003 1200.81 893.019 1205.03 893.019 1211.42C893.019 1214.27 891.651 1216.43 887.661 1217L873.867 1219.28C862.695 1221.11 854.829 1225.89 854.829 1236.5C854.829 1246.41 863.151 1253.6 875.007 1253.6ZM864.291 1236.5C864.291 1230.45 869.079 1227.49 876.945 1226.12L884.811 1224.75C888.573 1224.18 892.107 1223.61 893.361 1222.47V1227.95C893.361 1239 886.293 1246.07 876.603 1246.07C869.421 1246.07 864.291 1242.54 864.291 1236.5ZM919.604 1252H929.18V1221.45C929.18 1209.25 936.362 1202.75 946.508 1202.75C948.104 1202.75 949.7 1202.98 951.068 1203.21V1194.54C950.156 1194.32 948.332 1194.09 946.508 1194.09C937.616 1194.09 932.03 1198.42 929.066 1203.32H928.838C928.952 1201.27 928.952 1198.42 928.952 1195.46V1194.54H919.604V1252ZM963.383 1194.54V1252H972.959V1194.54H963.383ZM963.383 1183.03H972.959V1171.74H963.383V1183.03ZM1007.79 1253.6C1016.57 1253.6 1022.5 1249.49 1025.92 1244.25H1026.14V1252H1035.26V1212.78C1035.26 1199.67 1026.14 1192.95 1013.26 1192.95C999.924 1192.95 989.322 1199.79 988.638 1212.67H998.328C999.126 1204.35 1005.28 1200.81 1012.92 1200.81C1020.79 1200.81 1025.8 1205.03 1025.8 1211.42C1025.8 1214.27 1024.43 1216.43 1020.44 1217L1006.65 1219.28C995.478 1221.11 987.612 1225.89 987.612 1236.5C987.612 1246.41 995.934 1253.6 1007.79 1253.6ZM997.074 1236.5C997.074 1230.45 1001.86 1227.49 1009.73 1226.12L1017.59 1224.75C1021.36 1224.18 1024.89 1223.61 1026.14 1222.47V1227.95C1026.14 1239 1019.08 1246.07 1009.39 1246.07C1002.2 1246.07 997.074 1242.54 997.074 1236.5ZM1080.55 1253.6C1096.05 1253.6 1105.74 1240.37 1105.74 1223.27C1105.74 1206.17 1096.16 1192.95 1080.55 1192.95C1071.54 1192.95 1065.5 1197.28 1062.08 1203.32H1061.85C1061.96 1201.95 1061.96 1198.88 1061.96 1196.48V1171.97H1052.39V1252H1061.74V1249.72C1061.74 1247.33 1061.74 1244.36 1061.62 1243.11H1061.85C1065.27 1249.15 1071.43 1253.6 1080.55 1253.6ZM1061.74 1223.39C1061.74 1211.07 1067.66 1201.38 1078.84 1201.38C1089.89 1201.38 1095.94 1211.07 1095.94 1223.39C1095.94 1235.7 1089.89 1245.27 1078.84 1245.27C1067.66 1245.27 1061.74 1235.7 1061.74 1223.39ZM1119.99 1171.74V1252H1129.57V1171.74H1119.99ZM1171.69 1253.6C1185.15 1253.6 1194.15 1245.62 1196.43 1233.99H1187.2C1185.26 1241.63 1179.9 1245.62 1171.81 1245.62C1160.98 1245.62 1153.68 1238.21 1153.23 1225.55H1196.77C1196.89 1224.3 1196.89 1222.82 1196.89 1221.79C1196.89 1203.66 1186.74 1192.95 1171.47 1192.95C1155.16 1192.95 1143.42 1205.37 1143.42 1223.39C1143.42 1241.51 1154.37 1253.6 1171.69 1253.6ZM1153.45 1218.14C1154.59 1208.91 1160.98 1200.93 1171.47 1200.93C1181.73 1200.93 1187.08 1208.79 1187.31 1218.14H1153.45ZM1252.4 1266.36H1260.6C1252.28 1251.43 1246.01 1231.94 1246.01 1211.87C1246.01 1191.92 1252.28 1172.31 1260.6 1157.38H1252.4C1244.76 1169.69 1237.46 1189.41 1237.46 1211.87C1237.46 1234.44 1244.76 1253.48 1252.4 1266.36ZM1296.01 1245.27C1284.95 1245.27 1278.79 1239.23 1278.34 1228.17H1268.76C1269.22 1244.93 1279.82 1253.71 1295.78 1253.71C1311.4 1253.71 1321.89 1244.93 1321.89 1230.8C1321.89 1221.33 1316.53 1214.04 1306.84 1210.85V1210.62C1314.48 1207.2 1319.72 1201.16 1319.72 1192.49C1319.72 1178.7 1309.69 1170.03 1295.67 1170.03C1280.05 1170.03 1270.02 1180.07 1270.02 1194.66H1279.59C1279.59 1184.74 1285.86 1178.47 1295.55 1178.47C1304.67 1178.47 1310.14 1184.17 1310.14 1192.83C1310.14 1201.73 1303.87 1206.74 1293.96 1206.74H1287.57V1215.18H1294.3C1305.24 1215.18 1312.31 1220.99 1312.31 1230.34C1312.31 1239.8 1306.38 1245.27 1296.01 1245.27ZM1363.22 1253.71C1382.94 1253.71 1392.06 1235.36 1392.06 1211.87C1392.06 1188.39 1382.94 1170.03 1363.22 1170.03C1343.61 1170.03 1334.38 1188.39 1334.38 1211.87C1334.38 1235.36 1343.61 1253.71 1363.22 1253.71ZM1344.18 1211.87C1344.18 1193.63 1349.77 1178.58 1363.22 1178.58C1376.79 1178.58 1382.37 1193.63 1382.37 1211.87C1382.37 1230.11 1376.79 1245.16 1363.22 1245.16C1349.77 1245.16 1344.18 1230.11 1344.18 1211.87ZM1433.94 1253.71C1453.66 1253.71 1462.78 1235.36 1462.78 1211.87C1462.78 1188.39 1453.66 1170.03 1433.94 1170.03C1414.33 1170.03 1405.1 1188.39 1405.1 1211.87C1405.1 1235.36 1414.33 1253.71 1433.94 1253.71ZM1414.9 1211.87C1414.9 1193.63 1420.49 1178.58 1433.94 1178.58C1447.51 1178.58 1453.09 1193.63 1453.09 1211.87C1453.09 1230.11 1447.51 1245.16 1433.94 1245.16C1420.49 1245.16 1414.9 1230.11 1414.9 1211.87ZM1478.21 1207.77V1215.98H1508.54V1207.77H1478.21ZM1550.27 1253.6C1565.09 1253.6 1577.18 1245.39 1577.18 1230.8C1577.18 1218.83 1569.42 1212.67 1562.01 1209.93V1209.82C1568.51 1207.31 1575.01 1201.84 1575.01 1191.69C1575.01 1178.36 1563.72 1170.15 1550.27 1170.15C1536.93 1170.15 1525.53 1178.36 1525.53 1191.69C1525.53 1201.84 1532.03 1207.31 1538.64 1209.82V1209.93C1531.12 1212.67 1523.37 1218.83 1523.37 1230.8C1523.37 1245.39 1535.57 1253.6 1550.27 1253.6ZM1532.94 1229.88C1532.94 1219.74 1540.7 1213.92 1550.27 1213.92C1559.96 1213.92 1567.71 1219.74 1567.71 1229.88C1567.71 1240.03 1559.96 1245.62 1550.27 1245.62C1540.7 1245.62 1532.94 1240.03 1532.94 1229.88ZM1535.11 1192.04C1535.11 1183.14 1541.84 1178.01 1550.27 1178.01C1558.71 1178.01 1565.55 1183.14 1565.55 1192.04C1565.55 1201.04 1558.71 1206.17 1550.27 1206.17C1541.84 1206.17 1535.11 1201.04 1535.11 1192.04ZM1618.6 1253.71C1638.32 1253.71 1647.44 1235.36 1647.44 1211.87C1647.44 1188.39 1638.32 1170.03 1618.6 1170.03C1598.99 1170.03 1589.76 1188.39 1589.76 1211.87C1589.76 1235.36 1598.99 1253.71 1618.6 1253.71ZM1599.56 1211.87C1599.56 1193.63 1605.15 1178.58 1618.6 1178.58C1632.17 1178.58 1637.75 1193.63 1637.75 1211.87C1637.75 1230.11 1632.17 1245.16 1618.6 1245.16C1605.15 1245.16 1599.56 1230.11 1599.56 1211.87ZM1689.32 1253.71C1709.04 1253.71 1718.16 1235.36 1718.16 1211.87C1718.16 1188.39 1709.04 1170.03 1689.32 1170.03C1669.71 1170.03 1660.48 1188.39 1660.48 1211.87C1660.48 1235.36 1669.71 1253.71 1689.32 1253.71ZM1670.28 1211.87C1670.28 1193.63 1675.87 1178.58 1689.32 1178.58C1702.89 1178.58 1708.47 1193.63 1708.47 1211.87C1708.47 1230.11 1702.89 1245.16 1689.32 1245.16C1675.87 1245.16 1670.28 1230.11 1670.28 1211.87ZM1726.87 1266.36H1735.08C1742.71 1253.48 1750.01 1234.44 1750.01 1211.87C1750.01 1189.41 1742.71 1169.69 1735.08 1157.38H1726.87C1735.19 1172.31 1741.46 1191.92 1741.46 1211.87C1741.46 1231.94 1735.19 1251.43 1726.87 1266.36Z" fill="black"/>
</svg>
