<svg width="1600" height="900" viewBox="0 0 1600 900" fill="none" xmlns="http://www.w3.org/2000/svg">
<rect width="1600" height="900" fill="#F7F7F7"/>
<path d="M314.748 186L348.476 98.704H358.396L392.124 186H382.7L370.176 152.892H376.624L379.104 160.58H327.892L330.372 152.892H336.2L323.676 186H314.748ZM336.2 152.892H370.176L353.312 108.624H353.064L336.2 152.892ZM419.76 187.736C429.184 187.736 436.004 183.272 439.972 177.072H440.22V186H447.908V143.096C447.908 128.836 438.36 121.768 424.968 121.768C411.08 121.768 399.796 128.96 399.052 142.848H407.236C408.228 132.928 415.544 128.96 424.472 128.96C433.896 128.96 439.972 134.044 439.972 141.608C439.972 144.832 438.484 147.312 434.02 148.056L418.644 150.536C406.492 152.52 397.812 157.604 397.812 169.26C397.812 179.924 406.864 187.736 419.76 187.736ZM405.872 169.384C405.872 162.192 411.452 158.596 421.124 156.984L430.3 155.496C434.64 154.752 438.856 154.256 440.344 153.016V159.34C440.344 172.236 432.036 180.792 420.504 180.792C411.948 180.792 405.872 176.576 405.872 169.384ZM465.048 186H499.148C514.524 186 527.048 177.692 527.048 162.316C527.048 151.9 520.352 144.088 511.176 141.112C518.368 138.136 524.568 131.068 524.568 121.644C524.568 106.764 512.292 98.704 497.412 98.704H465.048V186ZM473.232 178.808V144.832H499.892C510.804 144.832 518.864 150.908 518.864 161.82C518.864 172.732 510.804 178.808 499.892 178.808H473.232ZM473.232 137.888V105.896H498.156C508.572 105.896 516.384 111.476 516.384 121.892C516.384 132.308 508.572 137.888 498.156 137.888H473.232ZM569.139 187.736C586.003 187.736 596.419 173.104 596.419 154.752C596.419 136.4 586.003 121.768 569.139 121.768C559.219 121.768 552.399 126.48 548.431 133.424H548.183C548.307 132.308 548.307 128.712 548.307 126.108V98.704H540.247V186H548.307V183.148C548.307 180.544 548.307 176.948 548.183 175.832H548.431C552.399 182.776 559.219 187.736 569.139 187.736ZM548.059 154.752C548.059 140.368 555.251 129.208 568.147 129.208C581.043 129.208 588.235 140.368 588.235 154.752C588.235 169.136 581.043 180.42 568.147 180.42C555.251 180.42 548.059 169.136 548.059 154.752ZM646.397 187.86C665.741 187.86 679.505 175.584 681.985 156.736H673.553C670.701 170.624 662.765 179.924 646.397 179.924C627.053 179.924 613.661 163.68 613.661 142.352C613.661 121.024 626.805 104.78 646.149 104.78C662.517 104.78 669.957 113.584 672.809 124.992H681.241C678.761 109.12 665.245 96.844 646.149 96.844C622.093 96.844 605.105 116.064 605.105 142.352C605.105 168.64 621.845 187.86 646.397 187.86ZM718.915 187.736C733.299 187.736 743.467 179.056 744.707 163.68H736.895C735.159 175.212 729.083 180.544 718.915 180.544C706.019 180.544 697.339 170.128 697.339 154.752C697.339 139.376 705.647 128.96 718.543 128.96C727.967 128.96 734.911 134.292 736.647 144.088H744.459C742.227 129.208 732.679 121.768 718.543 121.768C701.183 121.768 689.155 135.036 689.155 154.752C689.155 174.468 701.059 187.736 718.915 187.736ZM784.911 186H757.383V98.704H784.911C815.787 98.704 825.583 119.536 825.583 142.352C825.583 165.168 815.787 186 784.911 186ZM765.939 178.064H784.415C807.479 178.064 817.027 164.052 817.027 142.352C817.027 120.652 807.479 106.64 784.415 106.64H765.939V178.064ZM861.585 187.736C871.505 187.736 878.325 182.776 882.293 175.832H882.541C882.417 176.948 882.417 180.544 882.417 183.148V186H890.477V98.704H882.417V126.108C882.417 128.712 882.417 132.308 882.541 133.424H882.293C878.325 126.48 871.505 121.768 861.585 121.768C844.721 121.768 834.305 136.4 834.305 154.752C834.305 173.104 844.721 187.736 861.585 187.736ZM842.489 154.752C842.489 140.368 849.681 129.208 862.577 129.208C875.473 129.208 882.665 140.368 882.665 154.752C882.665 169.136 875.473 180.42 862.577 180.42C849.681 180.42 842.489 169.136 842.489 154.752ZM908.092 98.704V186H963.644V178.312H916.648V145.576H957.692V138.136H916.648V106.392H963.644V98.704H908.092ZM999.268 187.736C1013.16 187.736 1022.83 179.552 1025.43 166.656H1017.62C1015.39 175.584 1009.06 180.544 999.516 180.544C986.248 180.544 977.94 171.244 977.444 156.488H1025.68C1025.8 154.752 1025.8 153.636 1025.8 152.768C1025.8 133.176 1015.14 121.768 999.02 121.768C981.908 121.768 969.26 135.16 969.26 154.876C969.26 174.592 980.916 187.736 999.268 187.736ZM977.816 149.544C979.056 138.632 986.62 128.96 999.02 128.96C1011.17 128.96 1017.37 138.384 1017.62 149.544H977.816ZM1038.94 98.704V186H1047.5V146.32H1086.06V138.384H1047.5V106.64H1092.01V98.704H1038.94ZM1121.52 98.208C1111.97 98.208 1105.15 102.796 1105.15 114.452V123.504H1093.74V130.696H1105.15V186H1113.21V130.696H1127.59V123.504H1113.21V114.576C1113.21 108.748 1115.94 105.648 1121.89 105.4C1124.87 105.276 1127.59 105.772 1130.07 106.392V99.448C1127.84 98.704 1124.74 98.208 1121.52 98.208ZM1174.02 187.86C1188.28 187.86 1198.45 181.164 1203.53 171.864V186H1210.72V144.46H1175.51V151.652H1203.78C1202.29 170.996 1190.26 180.172 1175.01 180.172C1154.55 180.172 1141.9 163.68 1141.9 142.352C1141.9 121.024 1155.05 104.78 1174.64 104.78C1191.25 104.78 1198.69 113.584 1201.79 124.992H1210.23C1207.5 109.12 1193.98 96.844 1174.64 96.844C1150.33 96.844 1133.35 116.064 1133.35 142.352C1133.35 168.64 1149.34 187.86 1174.02 187.86ZM1251.25 212.04C1267.5 212.04 1278.28 202.616 1278.28 183.272V123.504H1270.22V126.108C1270.22 128.712 1270.22 132.308 1270.35 133.424H1270.1C1266.13 126.48 1259.44 121.768 1249.76 121.768C1233.89 121.768 1222.86 134.912 1222.86 153.264C1222.86 171.616 1233.89 184.76 1249.76 184.76C1259.44 184.76 1266.13 179.8 1270.1 172.856H1270.35C1270.22 174.964 1270.22 178.56 1270.22 184.636C1270.22 198.524 1262.78 204.848 1251.25 204.848C1241.58 204.848 1233.02 201.5 1231.29 190.464H1223.1C1224.59 205.22 1236.74 212.04 1251.25 212.04ZM1231.04 153.264C1231.04 138.88 1238.36 129.208 1250.76 129.208C1262.91 129.208 1270.47 138.88 1270.47 153.264C1270.47 167.648 1262.91 177.444 1250.76 177.444C1238.36 177.444 1231.04 167.648 1231.04 153.264ZM293.478 222.704V310H302.034V269.824H349.898V310H358.454V222.704H349.898V261.888H302.034V222.704H293.478ZM376.063 310H384.247V272.552C384.247 259.904 392.927 252.96 401.855 252.96C412.519 252.96 417.479 259.408 417.479 272.056V310H425.663V271.064C425.663 255.688 417.975 245.768 403.343 245.768C393.423 245.768 387.347 251.1 384.247 256.68H383.999C384.123 254.2 384.247 251.224 384.247 248.496V222.704H376.063V310ZM442.733 222.704V310H451.289V222.704H442.733ZM468.889 247.504V310H476.949V247.504H468.889ZM468.889 233.864H476.949V222.704H468.889V233.864ZM495.004 286.192V279.744H487.068V287.06C487.068 302.932 497.732 311.984 514.1 311.984C530.468 311.984 539.644 302.684 539.644 286.812V222.704H531.46V285.944C531.46 298.84 525.26 304.792 514.1 304.792C501.7 304.792 495.004 298.716 495.004 286.192ZM556.868 222.704V233.864H564.928V222.704H556.868ZM545.584 334.552C546.7 334.676 547.94 334.8 549.304 334.8C557.488 334.8 564.928 332.072 564.928 320.664V247.504H556.868V320.292C556.868 325.872 553.892 328.104 548.188 328.104C547.196 328.104 546.452 327.98 545.584 327.98V334.552ZM636.058 310H646.474L610.266 260.028L645.606 222.704H634.942L590.674 269.7V222.704H582.49V310H590.674V280.736L604.438 266.104L636.058 310ZM697.205 310H706.505L678.977 273.296L705.513 247.504H695.345L662.237 279.868V222.704H654.177V310H662.237V289.416L673.521 278.38L697.205 310ZM715.155 222.704V310H770.707V302.064H723.711V222.704H715.155ZM779.94 222.704V310H788V222.704H779.94ZM805.559 222.704V310H813.743V232.872L845.239 310H854.663L886.159 232.872V310H894.343V222.704H881.695L849.951 301.568L818.207 222.704H805.559ZM912 310H920.184V271.56C920.184 260.4 927.128 252.96 936.552 252.96C946.224 252.96 950.936 259.904 950.936 271.064V310H959.12V271.56C959.12 260.4 966.064 252.96 975.488 252.96C985.16 252.96 989.872 259.904 989.872 271.064V310H998.056V270.072C998.056 256.184 991.236 245.768 977.1 245.768C968.048 245.768 961.228 250.356 957.26 258.292H957.136C954.16 250.728 947.96 245.768 938.164 245.768C928.74 245.768 923.284 250.728 920.184 256.184H919.936C920.06 253.828 920.184 251.224 920.184 248.496V247.504H912V310ZM1015.12 222.704V310H1023.3V231.756L1073.9 310H1083.07V222.704H1074.89V298.096L1026.28 222.704H1015.12ZM1100.73 310H1108.92V272.552C1108.92 259.904 1117.6 252.96 1126.52 252.96C1137.19 252.96 1142.15 259.408 1142.15 272.056V310H1150.33V271.064C1150.33 255.688 1143.14 245.768 1128.01 245.768C1118.09 245.768 1112.02 251.1 1108.92 256.68H1108.67C1108.79 254.2 1108.92 251.224 1108.92 248.496V247.504H1100.73V310ZM1203.61 311.86C1227.67 311.86 1244.78 292.64 1244.78 266.352C1244.78 240.064 1227.67 220.844 1203.61 220.844C1179.55 220.844 1162.44 240.064 1162.44 266.352C1162.44 292.64 1179.55 311.86 1203.61 311.86ZM1171 266.352C1171 245.024 1184.27 228.78 1203.61 228.78C1222.95 228.78 1236.22 245.024 1236.22 266.352C1236.22 287.68 1222.95 303.924 1203.61 303.924C1184.27 303.924 1171 287.68 1171 266.352ZM1282.67 311.736C1300.28 311.736 1312.43 298.468 1312.43 278.752C1312.43 259.036 1300.28 245.768 1282.67 245.768C1265.06 245.768 1252.91 259.036 1252.91 278.752C1252.91 298.468 1265.06 311.736 1282.67 311.736ZM1261.09 278.752C1261.09 263.376 1269.28 252.96 1282.67 252.96C1296.06 252.96 1304.25 263.376 1304.25 278.752C1304.25 294.128 1296.06 304.544 1282.67 304.544C1269.28 304.544 1261.09 294.128 1261.09 278.752ZM448.588 435.86C469.172 435.86 478.844 415.896 478.844 390.352C478.844 364.808 469.172 344.844 448.588 344.844C428.004 344.844 418.332 364.808 418.332 390.352C418.332 415.896 428.004 435.86 448.588 435.86ZM426.516 390.352C426.516 369.272 433.212 352.284 448.588 352.284C463.964 352.284 470.66 369.272 470.66 390.352C470.66 411.432 463.964 428.42 448.588 428.42C433.212 428.42 426.516 411.432 426.516 390.352ZM485.244 368.28V360.344C492.932 358.856 501.86 356.128 507.316 346.704H514.136V434H506.076V359.476H505.828C501.116 364.684 492.188 367.288 485.244 368.28ZM557.199 344.844C542.567 344.844 530.415 354.64 530.043 371.256H538.227C538.971 358.36 546.783 352.284 557.447 352.284C567.863 352.284 574.807 359.848 574.807 369.768C574.807 381.052 566.747 387.128 557.943 392.46L548.891 397.916C535.499 405.976 529.795 414.284 529.795 427.924C529.795 429.908 529.795 432.016 530.043 434H584.727V426.56H538.227C538.227 416.144 543.931 410.068 553.727 403.992L563.027 398.288C574.311 391.344 582.867 383.284 582.867 369.272C582.867 358.236 574.683 344.844 557.199 344.844ZM620.83 428.42C608.182 428.42 600.99 421.476 600.494 408.58H592.434C592.93 426.932 604.214 435.86 620.582 435.86C636.702 435.86 647.986 426.312 647.986 410.936C647.986 400.52 642.034 392.708 631.618 389.236V388.988C640.05 385.268 645.754 378.572 645.754 369.148C645.754 354.268 635.214 344.844 620.582 344.844C604.214 344.844 593.798 355.756 593.798 371.38H601.858C601.858 359.848 609.174 352.284 620.582 352.284C631.246 352.284 637.694 358.98 637.694 369.396C637.694 379.812 630.254 385.64 618.35 385.64H611.282V393.08H618.722C631.618 393.08 639.926 400.024 639.926 410.936C639.926 421.848 632.982 428.42 620.83 428.42ZM693.216 346.704L655.644 403.62V411.184H697.68V434H705.74V411.184H719.628V403.744H705.74V346.704H693.216ZM664.448 403.62V403.372L697.432 353.4H697.68V403.744L664.448 403.62ZM779.417 354.144V346.704H732.793L727.089 398.164H736.017C740.233 390.352 747.425 386.632 754.865 386.632C765.777 386.632 774.705 394.568 774.705 407.464C774.705 420.36 767.141 428.296 754.493 428.296C744.945 428.296 736.265 423.832 734.281 412.176H725.849C727.833 428.048 739.985 435.736 754.493 435.736C770.985 435.736 782.889 425.32 782.889 407.464C782.889 389.608 770.613 379.192 756.229 379.192C747.301 379.192 740.977 383.036 736.513 388.988L736.265 388.864L740.109 354.144H779.417ZM840 368.652H848.308C847.316 355.756 839.628 344.844 823.012 344.844C801.188 344.844 791.02 364.932 791.02 393.7V394.072C791.02 422.344 802.428 435.86 821.772 435.86C837.396 435.86 849.3 424.948 849.3 407.588C849.3 390.6 837.52 379.316 822.144 379.316C811.232 379.316 803.296 384.896 799.576 393.328H799.328C799.08 366.544 808.628 352.284 823.012 352.284C833.428 352.284 839.008 358.98 840 368.652ZM801.188 407.588C801.188 395.188 809.62 386.756 821.276 386.756C832.932 386.756 841.24 395.188 841.24 407.588C841.24 419.988 832.932 428.42 821.276 428.42C809.62 428.42 801.188 419.988 801.188 407.588ZM854.051 346.704V354.144H900.055V354.392C887.655 370.388 873.891 394.816 870.667 434H878.727C881.951 398.04 892.491 375.224 909.603 354.64V346.704H854.051ZM943.591 435.736C958.719 435.736 971.863 426.932 971.863 410.812C971.863 397.916 963.431 391.096 954.999 388.12V387.872C962.439 385.144 969.383 379.068 969.383 368.156C969.383 353.524 957.231 344.968 943.591 344.968C929.951 344.968 917.799 353.524 917.799 368.156C917.799 379.068 924.743 385.144 932.183 387.872V388.12C923.751 391.096 915.319 397.916 915.319 410.812C915.319 426.932 928.463 435.736 943.591 435.736ZM923.379 410.316C923.379 398.412 932.431 391.716 943.591 391.716C954.751 391.716 963.803 398.412 963.803 410.316C963.803 422.22 954.751 428.792 943.591 428.792C932.431 428.792 923.379 422.22 923.379 410.316ZM925.859 368.404C925.859 357.988 933.671 351.912 943.591 351.912C953.511 351.912 961.323 357.988 961.323 368.404C961.323 378.82 953.511 385.02 943.591 385.02C933.671 385.02 925.859 378.82 925.859 368.404ZM989.789 412.052H981.481C982.473 424.948 991.153 435.86 1007.77 435.86C1030.09 435.86 1038.77 415.772 1038.77 387.004V386.632C1038.77 358.36 1027.49 344.844 1008.14 344.844C992.765 344.844 980.489 355.756 980.489 373.116C980.489 390.104 992.269 401.388 1007.65 401.388C1018.56 401.388 1026.49 395.808 1030.21 387.376H1030.46C1030.71 414.16 1022.65 428.42 1007.77 428.42C997.353 428.42 990.781 421.724 989.789 412.052ZM988.549 373.116C988.549 360.716 996.857 352.284 1008.51 352.284C1020.17 352.284 1028.6 360.716 1028.6 373.116C1028.6 385.516 1020.17 393.948 1008.51 393.948C996.857 393.948 988.549 385.516 988.549 373.116ZM1051.32 346.704L1052.06 409.696H1058.51L1059.26 346.704H1051.32ZM1049.96 434H1060.87V423.088H1049.96V434ZM1100.53 435.86C1112.31 435.86 1121.12 430.156 1127.32 422.468L1138.97 434H1148.64L1131.28 416.64C1135.25 409.696 1137.48 402.008 1138.1 395.56L1130.66 394.568C1130.17 399.652 1128.56 405.728 1125.83 411.308L1101.77 387.252C1114.05 380.928 1120.87 375.72 1121.49 364.932C1122.11 353.276 1113.06 344.844 1100.66 344.844C1088.01 344.844 1078.71 353.896 1078.71 365.056C1078.71 372.744 1082.06 377.828 1087.88 383.532L1090.24 385.888C1079.08 391.84 1072.26 399.404 1072.26 411.308C1072.26 425.816 1084.41 435.86 1100.53 435.86ZM1079.7 410.812C1079.7 403.744 1083.17 397.296 1095.2 390.724L1122.11 417.384C1117.27 423.832 1110.2 428.668 1100.66 428.668C1087.26 428.668 1079.7 420.236 1079.7 410.812ZM1086.4 365.304C1086.4 357.244 1092.84 351.54 1100.66 351.54C1107.97 351.54 1114.67 356.748 1114.05 365.676C1113.43 373.24 1108.34 376.96 1097.31 382.416L1097.06 382.54L1092.97 378.448C1088.5 373.984 1086.4 369.892 1086.4 365.304ZM1165.7 344.844C1149.45 344.844 1135.94 357.74 1137.67 375.348L1145.61 376.092C1143.87 361.832 1153.42 352.16 1165.95 352.16C1177.48 352.16 1184.67 359.972 1184.67 370.264C1184.67 379.936 1178.35 384.896 1174.5 387.252L1169.17 390.6C1162.47 394.816 1158.26 400.024 1158.01 409.448H1165.95C1165.95 404.488 1167.81 400.396 1173.14 396.924L1179.34 392.832C1186.9 387.872 1192.48 382.168 1192.48 369.768C1192.48 358.236 1183.93 344.844 1165.7 344.844ZM1156.77 434H1167.19V423.584H1156.77V434Z" fill="black"/>
<path d="M1305.86 714L1273.99 801.296L1245.72 801.296L1214.1 714L1236.42 714L1248.2 748.72L1236.91 748.72L1234.43 732.352L1285.65 732.352L1283.17 748.72L1272.75 748.72L1284.53 714L1305.86 714ZM1272.75 748.72L1248.2 748.72L1260.35 784.432L1260.6 784.432L1272.75 748.72ZM1190.83 712.264C1180.91 712.264 1176.19 716.728 1173.22 720.696L1172.97 720.696L1172.97 714L1154.37 714L1154.37 755.664C1154.37 770.048 1165.53 778.232 1182.27 778.232C1199.13 778.232 1211.66 769.552 1212.15 755.168L1192.31 755.168C1192.07 761.12 1187.6 764.096 1182.15 764.096C1176.81 764.096 1173.71 761.368 1173.71 757.4C1173.71 754.424 1175.2 752.936 1179.17 752.316L1192.56 750.208C1205.21 748.224 1213.15 742.52 1213.15 731.608C1213.15 720.2 1204.22 712.264 1190.83 712.264ZM1193.55 731.856C1193.55 735.824 1190.33 737.932 1185.87 738.8L1180.16 739.916C1176.69 740.536 1174.71 741.404 1173.47 742.52L1173.47 738.304C1173.47 729.872 1178.67 725.656 1185.37 725.656C1190.33 725.656 1193.55 727.888 1193.55 731.856ZM1147.16 714L1105.5 714C1088.14 714 1076.85 722.432 1076.85 737.808C1076.85 747.108 1081.57 755.168 1092.48 758.64C1084.05 762.608 1079.71 768.56 1079.71 778.48C1079.71 793.36 1090.99 801.296 1107.36 801.296L1147.16 801.296L1147.16 714ZM1126.33 730.864L1126.33 750.952L1110.58 750.952C1102.65 750.952 1097.69 748.1 1097.69 740.908C1097.69 733.716 1102.65 730.864 1110.58 730.864L1126.33 730.864ZM1126.33 766.328L1126.33 784.68L1112.81 784.68C1105.37 784.68 1100.66 782.448 1100.66 775.504C1100.66 768.56 1105.37 766.328 1112.81 766.328L1126.33 766.328ZM1033.9 712.264C1017.04 712.264 1006.13 725.904 1006.13 745.248C1006.13 764.592 1016.79 778.108 1033.9 778.108C1043.33 778.108 1048.91 773.644 1051.88 768.684L1052.13 768.684C1052.01 771.288 1051.76 774.016 1051.76 776.124L1051.76 800.304L1071.6 800.304L1071.6 714L1052.75 714L1052.75 714.992C1052.75 717.472 1053 719.456 1053.25 721.44L1053 721.44C1050.02 716.48 1043.82 712.264 1033.9 712.264ZM1052.26 744.876C1052.26 754.3 1048.29 762.236 1039.61 762.236C1030.93 762.236 1026.96 754.3 1026.96 744.876C1026.96 735.452 1030.93 728.136 1039.61 728.136C1048.29 728.136 1052.26 735.452 1052.26 744.876ZM958.289 712.14C936.465 712.14 919.849 725.284 918.857 746.116L939.317 746.116C941.053 735.08 947.997 729.996 958.413 729.996C972.797 729.996 982.097 741.28 982.097 757.648C982.097 774.016 972.797 785.548 958.909 785.548C948.617 785.548 941.177 779.224 939.689 770.42L919.229 770.42C920.469 789.268 935.969 803.156 959.033 803.156C984.453 803.156 1003.18 784.928 1003.18 757.648C1003.18 730.368 985.073 712.14 958.289 712.14ZM883.459 712.264C865.603 712.264 853.575 722.68 852.583 738.552L872.423 738.552C873.415 731.608 877.011 727.64 883.211 727.64C891.519 727.64 896.479 734.336 896.479 745.248C896.479 755.664 891.519 762.856 883.583 762.856C877.383 762.856 873.415 758.764 872.671 752.936L853.079 752.936C854.567 767.816 865.355 778.232 883.583 778.232C903.919 778.232 917.063 764.592 917.063 745.248C917.063 725.904 904.167 712.264 883.459 712.264ZM812.212 714L848.172 714L848.172 801.296L812.212 801.296C783.816 801.296 768.44 784.06 768.44 757.648C768.44 731.236 783.816 714 812.212 714ZM827.34 731.856L813.204 731.856C797.828 731.856 789.52 741.776 789.52 757.648C789.52 773.52 797.828 783.44 813.204 783.44L827.34 783.44L827.34 731.856ZM737.731 712.264C727.811 712.264 721.611 716.48 718.635 721.44L718.387 721.44C718.635 719.456 718.883 717.472 718.883 714.992L718.883 714L700.035 714L700.035 800.304L719.875 800.304L719.875 776.124C719.875 774.016 719.627 771.784 719.503 769.18L719.751 769.18C722.727 774.14 727.811 778.108 737.235 778.108C754.595 778.108 765.507 764.592 765.507 745.248C765.507 725.904 754.595 712.264 737.731 712.264ZM744.675 744.876C744.675 754.3 740.707 762.236 732.027 762.236C723.347 762.236 719.379 754.3 719.379 744.876C719.379 735.452 723.347 728.136 732.027 728.136C740.707 728.136 744.675 735.452 744.675 744.876ZM692.372 801.296L692.372 714L629.876 714L629.876 731.856L671.54 731.856L671.54 749.712L632.852 749.712L632.852 766.576L671.54 766.576L671.54 783.44L629.876 783.44L629.876 801.296L692.372 801.296ZM593.186 712.388C575.33 712.388 565.038 722.928 563.054 734.832L581.902 734.832C583.39 728.88 587.73 726.772 593.31 726.772C599.262 726.772 605.834 730.244 606.33 739.916L562.31 739.916C562.31 739.916 562.186 743.264 562.186 745.496C562.186 765.832 574.834 778.232 593.434 778.232C613.274 778.232 626.666 764.096 626.666 744.876C626.666 725.408 613.522 712.388 593.186 712.388ZM606.082 752.316C605.338 758.764 600.626 763.848 593.186 763.848C585.746 763.848 581.902 758.64 581.53 752.316L606.082 752.316ZM557.181 801.296L557.181 714L535.853 714L535.853 749.464L503.365 749.464L503.365 765.832L535.853 765.832L535.853 784.928L497.413 784.928L497.413 801.296L557.181 801.296ZM463.603 801.792C477.491 801.792 486.543 796.584 486.543 782.696L486.543 776.496L496.711 776.496L496.711 761.616L486.543 761.616L486.543 714L466.703 714L466.703 761.616L455.171 761.616L455.171 776.496L466.703 776.496L466.703 779.968C466.703 786.664 461.495 787.408 457.899 787.408C456.659 787.408 455.915 787.408 453.683 787.16L453.683 800.924C455.543 801.42 459.635 801.792 463.603 801.792ZM407.791 712.14C395.763 712.14 387.331 716.356 382.371 722.184L382.371 714L366.251 714L366.251 759.632L406.427 759.632L406.427 743.76L384.479 743.76C386.463 733.964 394.399 729.004 404.815 729.004C420.315 729.004 430.607 740.784 430.607 757.648C430.607 774.016 421.059 785.548 407.171 785.548C395.887 785.548 388.695 779.224 387.207 770.42L366.747 770.42C367.987 789.268 383.239 803.156 407.295 803.156C432.715 803.156 451.687 784.928 451.687 757.648C451.687 730.368 432.467 712.14 407.791 712.14ZM327.861 687.96C310.005 687.96 296.613 695.648 296.613 715.488L296.613 776.496L316.453 776.496L316.453 776.124C316.453 774.016 316.205 771.04 316.081 769.056L316.329 769.056C319.057 773.396 324.141 778.108 333.813 778.108C349.933 778.108 361.093 764.716 361.093 746.364C361.093 728.012 350.181 714.496 333.565 714.496C324.513 714.496 318.189 718.712 315.213 723.672L314.965 723.672C315.213 721.688 315.461 717.1 315.461 714.62C315.461 705.444 320.669 702.096 327.117 702.096C333.565 702.096 338.277 704.576 339.765 710.528L359.109 710.528C356.629 697.136 345.717 687.96 327.861 687.96ZM340.261 745.992C340.261 754.92 336.045 762.236 328.109 762.236C320.173 762.236 315.957 754.92 315.957 745.992C315.957 737.064 320.173 730.368 328.109 730.368C336.045 730.368 340.261 737.064 340.261 745.992ZM1333.45 677.296L1333.45 590L1312.62 590L1312.62 625.216L1276.91 625.216L1276.91 590L1256.07 590L1256.07 677.296L1276.91 677.296L1276.91 643.072L1312.62 643.072L1312.62 677.296L1333.45 677.296ZM1248.68 590L1228.84 590L1228.84 622.984C1228.84 634.144 1223.88 638.36 1217.68 638.36C1211.73 638.36 1207.76 634.64 1207.76 624.224L1207.76 590L1187.92 590L1187.92 628.44C1187.92 644.56 1196.23 654.232 1210.36 654.232C1219.04 654.232 1225.49 650.512 1229.21 644.808L1229.46 644.808C1229.21 646.048 1228.84 649.272 1228.84 652.248L1228.84 677.296L1248.68 677.296L1248.68 590ZM1180.44 677.296L1180.44 590L1159.6 590L1159.6 677.296L1180.44 677.296ZM1151.86 652.496L1151.86 590L1132.27 590L1132.27 652.496L1151.86 652.496ZM1151.86 660.432L1132.27 660.432L1132.27 677.296L1151.86 677.296L1151.86 660.432ZM1107.68 618.024L1107.68 622.736L1128.02 622.736L1128.02 617.776C1128.02 597.936 1115.24 588.016 1095.9 588.016C1076.56 588.016 1064.53 595.704 1064.53 617.28L1064.53 677.296L1085.36 677.296L1085.36 617.776C1085.36 610.336 1089.08 606.368 1096.52 606.368C1104.46 606.368 1107.68 611.948 1107.68 618.024ZM1057.09 677.296L1057.09 660.432L1037.5 660.432L1037.5 677.296L1057.09 677.296ZM1066.76 566.068C1064.78 565.82 1062.42 565.696 1059.32 565.696C1045.43 565.696 1037.5 570.904 1037.5 584.792L1037.5 652.496L1057.34 652.496L1057.34 587.644C1057.34 580.948 1061.93 581.072 1065.52 581.072L1066.76 581.072L1066.76 566.068ZM976.213 590L950.917 590L987.125 639.724L952.405 677.296L977.701 677.296L1008.95 642.204L1008.95 677.296L1029.78 677.296L1029.78 590L1008.95 590L1008.95 616.164L1000.89 624.844L976.213 590ZM907.593 590L885.397 590L911.313 625.34L886.389 652.496L909.205 652.496L929.293 629.184L929.293 677.296L949.133 677.296L949.133 590L929.293 590L929.293 607.608L924.085 613.312L907.593 590ZM881.736 677.296L881.736 590L821.224 590L821.224 608.352L860.904 608.352L860.904 677.296L881.736 677.296ZM816.952 677.296L816.952 590L797.112 590L797.112 677.296L816.952 677.296ZM789.147 677.296L789.147 590L768.811 590L768.811 655.968L750.459 590L725.163 590L706.811 655.968L706.811 590L686.475 590L686.475 677.296L719.211 677.296L737.811 609.84L756.411 677.296L789.147 677.296ZM678.595 590L658.755 590L658.755 623.728C658.755 633.648 654.291 638.36 648.339 638.36C642.883 638.36 639.411 634.144 639.411 624.968L639.411 590L620.067 590L620.067 623.728C620.067 633.648 615.727 638.36 609.775 638.36C604.071 638.36 600.475 634.144 600.599 624.968L600.847 590L581.503 590L581.379 628.44C581.379 644.56 588.447 654.232 603.823 654.232C611.387 654.232 619.199 650.76 623.663 643.816L623.787 643.816C626.763 650.636 632.715 654.232 640.775 654.232C649.083 654.232 655.407 650.512 659.127 644.808L659.375 644.808C659.127 646.048 658.755 649.272 658.755 652.248L658.755 652.496L678.595 652.496L678.595 590ZM573.901 677.296L573.901 590L553.069 590L553.069 653.488L518.721 590L493.673 590L493.673 677.296L514.505 677.296L514.505 620.752L545.133 677.296L573.901 677.296ZM485.988 590L466.148 590L466.148 622.984C466.148 634.144 461.188 638.36 454.988 638.36C449.036 638.36 445.068 634.64 445.068 624.224L445.068 590L425.228 590L425.228 628.44C425.228 644.56 433.536 654.232 447.672 654.232C456.352 654.232 462.8 650.512 466.52 644.808L466.768 644.808C466.52 646.048 466.148 649.272 466.148 652.248L466.148 652.496L485.988 652.496L485.988 590ZM376.576 588.14C351.776 588.14 332.68 606.368 332.68 633.648C332.68 660.928 351.776 679.156 376.576 679.156C401.376 679.156 420.472 660.928 420.472 633.648C420.472 606.368 401.376 588.14 376.576 588.14ZM399.392 633.648C399.392 649.024 391.456 660.804 376.576 660.804C361.696 660.804 353.76 649.024 353.76 633.648C353.76 618.272 361.696 606.492 376.576 606.492C391.456 606.492 399.392 618.272 399.392 633.648ZM296.028 588.264C275.94 588.264 262.3 601.904 262.3 621.248C262.3 640.592 275.94 654.232 296.028 654.232C316.116 654.232 329.756 640.592 329.756 621.248C329.756 601.904 316.116 588.264 296.028 588.264ZM309.42 621.248C309.42 630.672 304.956 638.36 296.028 638.36C287.1 638.36 282.636 630.672 282.636 621.248C282.636 611.824 287.1 604.136 296.028 604.136C304.956 604.136 309.42 611.824 309.42 621.248ZM1124.46 464.14C1099.79 464.14 1088.5 483.98 1088.5 509.648C1088.5 535.316 1099.79 555.156 1124.46 555.156C1149.14 555.156 1160.42 535.316 1160.42 509.648C1160.42 483.98 1149.14 464.14 1124.46 464.14ZM1140.09 509.648C1140.09 524.528 1136.37 538.292 1124.46 538.292C1112.56 538.292 1108.84 524.528 1108.84 509.648C1108.84 494.768 1112.56 481.004 1124.46 481.004C1136.37 481.004 1140.09 494.768 1140.09 509.648ZM1084.25 521.304L1084.25 539.16C1074.82 540.276 1066.27 544.74 1062.17 553.296L1043.82 553.296L1043.82 466L1063.66 466L1063.66 528.744L1063.91 528.744C1068.62 524.032 1077.8 521.676 1084.25 521.304ZM1001.42 555.032C1022.01 555.032 1035.28 543.376 1035.28 526.016L1014.94 526.016C1014.44 533.704 1009.61 538.168 1002.04 538.168C994.231 538.168 991.379 533.332 991.379 528.496C991.379 522.296 995.719 518.824 1002.79 514.608L1013.58 508.16C1027.71 499.728 1035.9 491.048 1035.9 472.448C1035.9 470.588 1035.77 467.86 1035.52 466L970.051 466L970.051 482.864L1013.82 482.864C1013.08 486.088 1010.48 490.056 1003.78 493.9L990.263 501.712C979.723 507.788 971.043 514.98 971.043 528.372C971.043 545.236 983.319 555.032 1001.42 555.032ZM934.079 480.012C943.379 480.012 947.967 485.22 948.463 493.652L968.303 493.652C968.055 476.292 955.407 464.14 934.079 464.14C913.743 464.14 901.839 473.936 901.839 488.816C901.839 499.108 906.923 507.54 918.083 511.012L918.083 511.26C910.643 514.732 904.939 520.808 904.939 530.48C904.939 545.856 916.843 555.156 934.699 555.156C954.415 555.156 967.187 544.12 967.435 527.256L947.595 527.256C947.347 534.944 942.511 539.284 935.567 539.284C928.623 539.284 924.531 534.944 924.531 529.116C924.531 522.668 928.995 518.7 935.443 518.7L941.767 518.7L941.767 502.828L934.699 502.828C926.887 502.828 921.679 498.86 921.679 491.544C921.679 483.856 926.267 480.012 934.079 480.012ZM864.312 553.296L898.288 502.58L898.288 485.716L856.624 485.716L856.624 466L836.288 466L836.288 485.716L824.384 485.716L824.384 502.58L836.536 502.58L836.536 553.296L864.312 553.296ZM878.696 502.58L878.696 502.828L856.624 537.92L856.376 537.92L856.376 502.58L878.696 502.58ZM761.672 537.424L761.672 553.296L814.868 553.296L821.812 503.572L803.832 499.48C801.724 504.936 796.268 508.78 789.572 508.78C781.14 508.78 775.064 503.2 775.064 493.9C775.064 484.6 781.14 479.144 789.696 479.144C796.144 479.144 802.716 482.74 804.452 491.048L822.184 489.064C819.704 475.424 808.544 464.264 789.944 464.264C770.724 464.264 757.208 475.176 757.208 493.9C757.208 512.624 769.856 523.536 785.356 523.536C794.16 523.536 800.36 519.692 802.964 516.22L803.212 516.344L800.484 537.424L761.672 537.424ZM701.658 528.992L684.794 530.976C686.53 544.616 695.706 555.032 714.554 555.032C738.238 555.032 752.498 537.176 752.498 507.664L752.498 507.416C752.498 477.656 735.758 464.264 715.67 464.264C697.938 464.264 684.05 476.54 684.05 493.9C684.05 511.26 696.326 523.412 712.694 523.412C722.986 523.412 731.17 517.956 734.642 510.888L734.89 510.888C734.394 529.736 726.458 540.152 715.05 540.152C707.486 540.152 703.146 536.184 701.658 528.992ZM731.17 493.9C731.17 502.952 724.722 508.656 716.538 508.656C708.354 508.656 701.906 502.952 701.906 493.9C701.906 484.848 708.354 479.144 716.538 479.144C724.722 479.144 731.17 484.848 731.17 493.9ZM682.288 553.296L682.288 535.936L639.632 535.936L639.632 535.688C653.024 518.328 662.944 493.776 665.92 466L645.708 466C642.732 493.652 634.672 514.856 617.312 535.688L617.312 553.296L682.288 553.296ZM580.93 464.264C561.09 464.264 547.822 473.564 547.822 488.816C547.822 501.96 556.254 508.408 562.95 511.012L562.95 511.136C557.246 513.616 549.806 519.196 549.806 530.48C549.806 544.864 562.578 555.032 580.93 555.032C599.406 555.032 612.302 544.864 612.302 530.48C612.302 519.196 604.738 513.616 598.91 511.136L598.91 511.012C605.73 508.408 614.286 501.96 614.286 488.816C614.286 473.564 600.894 464.264 580.93 464.264ZM594.818 491.668C594.818 499.232 588.866 503.696 581.054 503.696C573.366 503.696 567.29 499.232 567.29 491.668C567.29 484.104 573.366 479.64 581.054 479.64C588.866 479.64 594.818 484.104 594.818 491.668ZM592.958 529.488C592.958 536.432 587.254 539.904 581.054 539.904C574.978 539.904 569.15 536.432 569.15 529.488C569.15 522.544 574.978 519.072 581.054 519.072C587.254 519.072 592.958 522.544 592.958 529.488ZM541.278 553.296L539.79 493.9L524.414 493.9L522.926 553.296L541.278 553.296ZM541.526 466L522.678 466L522.678 484.848L541.526 484.848L541.526 466ZM482.395 464.016C472.847 464.016 464.911 466.62 458.587 470.96L453.255 465.504L429.199 465.504L446.559 483.236C441.847 490.676 439.119 499.604 438.499 508.532L456.355 508.532C456.727 504.192 457.719 499.852 459.207 496.132L472.971 510.02C460.943 516.468 454.495 521.304 454.495 533.208C454.495 546.352 465.655 555.156 481.651 555.156C498.143 555.156 509.427 545.484 509.427 531.968C509.427 524.28 505.955 519.692 500.375 513.864C510.047 508.532 515.503 500.844 515.503 490.676C515.503 475.176 503.351 464.016 482.395 464.016ZM494.423 491.296C494.423 495.76 492.315 498.984 488.471 501.588L470.491 483.112C473.467 481.5 476.939 480.632 480.907 480.632C489.835 480.632 494.423 485.344 494.423 491.296ZM490.083 531.968C490.083 536.804 486.363 540.028 481.899 540.028C477.435 540.028 473.839 537.052 473.839 532.34C473.839 528 476.815 525.272 482.271 522.668L484.379 521.676L486.363 523.66C488.719 526.016 490.083 528.62 490.083 531.968Z" fill="black"/>
</svg>
