<svg width="3000" height="2000" viewBox="0 0 3000 2000" fill="none" xmlns="http://www.w3.org/2000/svg">
<rect width="3000" height="2000" fill="#53E666"/>
<path d="M2102.54 1062.91C2060.99 1062.91 2027.43 1044.59 2027.43 1012.74C2027.43 980.889 2060.99 962.574 2102.54 962.574C2144.09 962.574 2177.64 980.889 2177.64 1012.74C2177.64 1044.59 2143.69 1062.91 2102.54 1062.91ZM2102.54 1118.65C2164.86 1118.65 2212 1074.06 2212 1012.74C2212 950.63 2164.86 906.833 2102.54 906.833C2040.22 906.833 1993.08 951.426 1993.08 1012.74C1993.08 1074.85 2040.62 1118.65 2102.54 1118.65ZM1844.46 831.185V1113.07H1878.82V831.185H1844.46ZM1777.35 1012.74C1777.35 1044.59 1742.19 1062.51 1701.45 1062.51C1661.5 1062.51 1627.14 1044.59 1627.14 1012.74C1627.14 980.889 1661.5 962.574 1701.45 962.574C1742.19 962.574 1777.35 980.889 1777.35 1012.74ZM1809.31 1012.74C1809.31 951.824 1767.76 906.833 1708.64 906.833C1675.08 906.833 1641.12 924.352 1626.74 961.778H1626.34V912.407H1593.98V1172H1628.34V1067.69H1628.74C1644.72 1097.94 1676.68 1117.45 1710.23 1117.45C1770.16 1117.45 1809.31 1071.67 1809.31 1012.74ZM1282.78 1113.07H1317.13V998.407C1317.13 973.324 1335.91 958.593 1359.48 958.593C1383.05 958.593 1400.23 972.926 1400.23 998.009V1113.07H1433.78V998.407C1433.78 973.324 1453.76 958.593 1477.33 958.593C1500.9 958.593 1518.08 972.926 1518.08 998.009V1113.07H1551.64V966.157C1551.64 933.509 1529.66 906.833 1494.51 906.833C1463.35 906.833 1441.77 926.343 1432.19 955.806H1431.79C1425 925.546 1406.22 906.833 1376.66 906.833C1349.09 906.833 1329.12 924.352 1317.53 951.426H1317.13V914H1282.78V1113.07ZM1138.16 1062.91C1096.61 1062.91 1063.05 1044.59 1063.05 1012.74C1063.05 980.889 1096.61 962.574 1138.16 962.574C1179.71 962.574 1213.26 980.889 1213.26 1012.74C1213.26 1044.59 1179.31 1062.91 1138.16 1062.91ZM1138.16 1118.65C1200.48 1118.65 1247.62 1074.06 1247.62 1012.74C1247.62 950.63 1200.48 906.833 1138.16 906.833C1075.84 906.833 1028.7 951.426 1028.7 1012.74C1028.7 1074.85 1075.84 1118.65 1138.16 1118.65ZM789 1012.74C789 1071.67 834.942 1118.65 897.663 1118.65C950.396 1118.65 987.149 1090.38 1001.53 1047.38L975.964 1029.86C959.584 1054.15 930.022 1062.91 898.462 1062.91C856.914 1062.91 823.357 1044.59 823.357 1012.74C823.357 980.889 857.713 962.574 899.261 962.574C930.821 962.574 957.986 970.537 974.765 995.222L1000.33 978.5C985.152 935.5 950.396 906.833 898.462 906.833C836.14 906.833 789 954.611 789 1012.74ZM1940.74 877.37C1955.52 877.37 1967.51 867.019 1967.51 853.083C1967.51 839.148 1955.12 828 1940.74 828C1926.36 828 1913.98 839.148 1913.98 853.083C1913.98 867.019 1926.36 877.37 1940.74 877.37ZM1923.56 912.407V1113.07H1957.92V912.407H1923.56Z" fill="black"/>
</svg>
