<svg width="600" height="600" viewBox="0 0 600 600" fill="none" xmlns="http://www.w3.org/2000/svg">
<rect width="600" height="600" fill="#0C6CF2"/>
<path d="M65.42 160.18V268H85.4V223.9H130.04V206.98H85.4V180.7C85.4 178.18 87.02 176.56 89.54 176.56L138.68 178.18V160.18H65.42ZM177.31 215.62L160.39 212.74C162.73 197.62 176.59 186.28 194.95 186.28C214.75 186.28 228.61 196.72 228.61 217.6V248.02C228.61 250.72 230.41 251.62 232.75 250.18L240.49 244.6L247.69 258.1L232.03 267.1C223.57 271.96 214.39 268.18 213.49 258.82L213.13 255.58H212.05C206.47 263.32 199.09 270.52 184.87 270.52C171.19 270.52 160.03 262.24 160.03 248.92V247.3C160.03 232.72 172.81 226.96 181.09 224.62L210.25 216.34V214.9C210.25 206.8 204.31 201.4 194.41 201.4C185.05 201.4 178.75 206.44 177.31 215.62ZM178.57 247.3C178.57 252.7 183.07 256.12 189.73 256.12C200.53 256.12 210.79 246.4 210.79 233.08V229.48L188.29 236.32C183.07 237.94 178.57 240.64 178.57 246.58V247.3ZM278.759 208.96V237.4C278.759 259.54 291.719 270.88 311.699 270.88C331.859 270.88 343.559 258.64 344.459 234.16L326.459 231.28C326.279 247.3 321.419 253.78 312.059 253.78C302.339 253.78 297.659 247.48 297.659 236.86V208.96C297.659 206.26 299.279 204.64 301.979 204.64L334.379 205.18V188.8H297.659V160.72H278.759V188.8H253.919V205.18L274.439 204.82C277.139 204.82 278.759 206.26 278.759 208.96ZM379.489 208.96V237.4C379.489 259.54 392.449 270.88 412.429 270.88C432.589 270.88 444.289 258.64 445.189 234.16L427.189 231.28C427.009 247.3 422.149 253.78 412.789 253.78C403.069 253.78 398.389 247.48 398.389 236.86V208.96C398.389 206.26 400.009 204.64 402.709 204.64L435.109 205.18V188.8H398.389V160.72H379.489V188.8H354.649V205.18L375.169 204.82C377.869 204.82 379.489 206.26 379.489 208.96ZM465.279 268H544.119V250.36L522.339 251.8C518.199 252.16 516.039 249.82 516.039 245.86V202.3C516.039 194.56 510.279 188.8 502.539 188.8L466.719 188.98V206.44L490.839 205.18C494.799 204.82 497.139 206.98 497.139 210.94V245.86C497.139 250 494.979 252.16 490.839 251.8L465.279 250.36V268ZM491.199 154.96C491.199 162.7 497.679 169 505.239 169C512.979 169 519.279 162.7 519.279 154.96C519.279 147.58 512.979 140.92 505.239 140.92C497.679 140.92 491.199 147.58 491.199 154.96ZM70.46 448H54.08V340.18H81.8L97.46 428.56H98.54L114.38 340.18H142.1V448H125.54V363.94H124.28L109.52 448H86.12L71.72 363.94H70.46V448ZM198.73 450.52C222.13 450.52 240.85 433.6 240.85 409.66V407.32C240.85 383.38 222.13 366.28 198.73 366.28C175.33 366.28 156.61 383.38 156.61 407.32V409.66C156.61 433.6 175.33 450.52 198.73 450.52ZM175.51 409.66V407.32C175.51 393.28 185.23 383.2 198.73 383.2C212.23 383.2 221.95 393.28 221.95 407.32V409.66C221.95 423.7 212.23 433.6 198.73 433.6C185.23 433.6 175.51 423.7 175.51 409.66ZM261.299 368.8V448H280.199V406.96C280.199 393.82 288.839 383.2 301.259 383.2C313.679 383.2 319.619 391.3 319.619 404.44V448H338.519V399.58C338.519 379.96 327.179 366.28 308.099 366.28C295.319 366.28 285.959 373.3 281.279 380.68H280.199V368.8H261.299ZM400.189 450.52C423.589 450.52 442.309 433.6 442.309 409.66V407.32C442.309 383.38 423.589 366.28 400.189 366.28C376.789 366.28 358.069 383.38 358.069 407.32V409.66C358.069 433.6 376.789 450.52 400.189 450.52ZM376.969 409.66V407.32C376.969 393.28 386.689 383.2 400.189 383.2C413.689 383.2 423.409 393.28 423.409 407.32V409.66C423.409 423.7 413.689 433.6 400.189 433.6C386.689 433.6 376.969 423.7 376.969 409.66Z" fill="white"/>
<path d="M466.68 424.04V448.12H477.64C481.92 448.12 485.12 445.88 485.12 441.84C485.12 438.16 482.68 436.4 480.04 435.8V435.48C482.48 434.72 484.44 433.08 484.44 429.96C484.44 426.64 481.56 424.04 477.8 424.04H466.68ZM471 444.36V437.6H476.56C478.92 437.6 480.64 438.52 480.64 440.96C480.64 443.44 478.92 444.36 476.56 444.36H471ZM471 434V427.8H476.48C478.52 427.8 480 428.76 480 430.92C480 433.08 478.52 434 476.48 434H471ZM506.344 439.08C506.344 433.76 503.024 429.88 497.584 429.88C492.504 429.88 488.424 433.64 488.424 439V439.48C488.424 444.84 492.624 448.6 497.944 448.6C501.384 448.6 504.704 447.04 505.984 444L502.304 442.8C501.504 444.36 499.984 445.08 498.064 445.08C494.984 445.08 492.984 443.24 492.664 440.6H506.264C506.304 440.24 506.344 439.6 506.344 439.08ZM492.664 437.4C493.024 434.96 495.064 433.36 497.584 433.36C500.304 433.36 502.024 435.16 502.144 437.4H492.664ZM519.649 448H528.449V444.2L522.249 444.48C521.369 444.56 520.889 444.08 520.889 443.2V434.64C520.889 434.04 521.209 433.76 521.809 433.76L527.809 434.04V430.4H520.889V424.8H516.689V430.4H510.729V434.04L515.729 433.76C516.329 433.76 516.689 434.04 516.689 434.64V445.04C516.689 446.72 517.929 448 519.649 448ZM537.393 436.36L533.633 435.72C534.153 432.36 537.233 429.84 541.313 429.84C545.713 429.84 548.793 432.16 548.793 436.8V443.56C548.793 444.16 549.193 444.36 549.713 444.04L551.433 442.8L553.033 445.8L549.553 447.8C547.673 448.88 545.633 448.04 545.433 445.96L545.353 445.24H545.113C543.873 446.96 542.233 448.56 539.073 448.56C536.033 448.56 533.553 446.72 533.553 443.76V443.4C533.553 440.16 536.393 438.88 538.233 438.36L544.713 436.52V436.2C544.713 434.4 543.393 433.2 541.193 433.2C539.113 433.2 537.713 434.32 537.393 436.36ZM537.673 443.4C537.673 444.6 538.673 445.36 540.153 445.36C542.553 445.36 544.833 443.2 544.833 440.24V439.44L539.833 440.96C538.673 441.32 537.673 441.92 537.673 443.24V443.4Z" fill="white"/>
</svg>
