<svg width="3000" height="1500" viewBox="0 0 3000 1500" fill="none" xmlns="http://www.w3.org/2000/svg">
<rect width="3000" height="1500" fill="white"/>
<path d="M1888 653.309V836.88H1962.7V810.655H1916.24V653.309H1888Z" fill="#F1E3F5"/>
<path d="M1841.02 582.051C1801.84 600.697 1762.66 647.633 1731.96 693.122C1703.34 735.236 1682.39 776.546 1673.6 794.709C1663.68 770.759 1658.41 733.307 1655.53 702.445C1655.21 698.909 1653.77 697.301 1651.53 697.301C1649.45 697.301 1647.53 698.748 1647.37 702.606C1646.1 726.074 1647.05 774.295 1667.36 818.659C1690.87 870.096 1738.84 900.315 1792.73 902.083C1808.08 902.565 1819.43 900.315 1819.43 892.439C1819.43 888.903 1816.23 886.813 1811.11 886.009C1806.8 885.206 1798.8 884.723 1785.21 882.794C1745.39 877.169 1714.69 861.577 1694.87 834.733C1719.33 843.896 1754.35 852.415 1788.89 851.772C1826.46 851.29 1861.8 839.234 1884.03 811.426C1887.39 807.408 1887.87 805.157 1887.87 804.032C1887.87 802.103 1886.75 800.496 1882.91 798.728C1868.84 792.137 1843.09 787.958 1818.47 787.958C1776.42 787.797 1734.2 796.156 1706.54 801.3C1788.09 768.991 1856.21 703.892 1856.37 624.165C1856.37 611.306 1854.61 597.964 1850.77 584.462C1850.13 582.533 1849.01 580.604 1845.81 580.604C1844.21 580.604 1843.25 581.087 1841.02 582.051Z" fill="#211526" fill-opacity="0.15"/>
<path d="M1963.05 653.309V836.879H2037.75V810.655H1991.29V653.309H1963.05Z" fill="#211526" fill-opacity="0.15"/>
<path d="M2146.55 836.879L2117.8 653.309H2076.48L2047.73 836.879H2073.65L2078.53 803.574H2113.18L2118.06 836.879H2146.55ZM2082.12 778.661L2095.73 685.827L2109.33 778.661H2082.12Z" fill="#211526" fill-opacity="0.15"/>
<path d="M2153.54 697.366C2153.54 749.815 2208.73 756.895 2208.73 794.658C2208.73 807.77 2203.08 812.491 2194.09 812.491C2185.11 812.491 2179.46 807.77 2179.46 794.658V781.546H2152.77V792.822C2152.77 822.194 2167.14 838.977 2194.86 838.977C2222.59 838.977 2236.96 822.194 2236.96 792.822C2236.96 740.374 2181.77 733.293 2181.77 695.53C2181.77 682.418 2186.91 677.435 2195.89 677.435C2204.88 677.435 2210.01 682.418 2210.01 695.53V703.135H2236.7V697.366C2236.7 667.995 2222.59 651.211 2195.12 651.211C2167.66 651.211 2153.54 667.995 2153.54 697.366Z" fill="#211526" fill-opacity="0.15"/>
<path d="M2278.81 836.879V758.206H2310.89V836.879H2339.64V653.309H2310.89V731.982H2278.81V653.309H2250.57V836.879H2278.81Z" fill="#211526" fill-opacity="0.15"/>
<path d="M2402.72 653.309H2360.11V836.879H2404.52C2432.75 836.879 2447.39 821.669 2447.39 793.347V778.399C2447.39 758.993 2441.48 745.094 2426.34 739.063C2438.92 733.031 2444.56 720.968 2444.56 702.086V695.53C2444.56 667.208 2431.98 653.309 2402.72 653.309ZM2388.35 679.533H2401.95C2411.96 679.533 2416.33 685.303 2416.33 698.415V708.642C2416.33 723.328 2409.91 728.048 2399.39 728.048H2388.35V679.533ZM2388.35 754.273H2400.93C2413.76 754.273 2419.15 759.518 2419.15 776.563V792.56C2419.15 806.197 2414.02 810.655 2404.52 810.655H2388.35V754.273Z" fill="#211526" fill-opacity="0.15"/>
<path d="M2553.2 836.879L2524.46 653.309H2483.13L2454.38 836.879H2480.31L2485.18 803.574H2519.84L2524.71 836.879H2553.2ZM2488.78 778.661L2502.38 685.827L2515.98 778.661H2488.78Z" fill="#211526" fill-opacity="0.15"/>
<path d="M2625.39 836.879H2654.14C2651.32 830.061 2651.06 823.505 2651.06 814.589V786.266C2651.06 767.123 2646.44 753.224 2632.32 747.192C2644.9 741.16 2650.8 728.835 2650.8 709.953V695.53C2650.8 667.208 2638.22 653.309 2608.96 653.309H2566.35V836.879H2594.59V762.14H2604.34C2617.18 762.14 2622.82 768.434 2622.82 785.48V814.326C2622.82 829.274 2623.85 832.159 2625.39 836.879ZM2594.59 679.533H2608.19C2618.2 679.533 2622.57 685.303 2622.57 698.415V716.51C2622.57 731.195 2616.15 735.916 2605.63 735.916H2594.59V679.533Z" fill="#211526" fill-opacity="0.15"/>
<line x1="2655.62" y1="525" x2="2655.62" y2="965.598" stroke="#211526" stroke-width="1.5"/>
<line x1="1963.88" y1="525" x2="1963.88" y2="965.598" stroke="#211526" stroke-width="1.5"/>
<line x1="1888.75" y1="525" x2="1888.75" y2="965.598" stroke="#211526" stroke-width="1.5"/>
<line x1="1646.75" y1="525" x2="1646.75" y2="965.598" stroke="#211526" stroke-width="1.5"/>
<path d="M922.578 454.447C883.402 473.092 844.226 520.028 813.525 565.518C784.903 607.631 763.955 648.941 755.161 667.105C745.247 643.155 739.97 605.702 737.092 574.84C736.772 571.304 735.333 569.697 733.094 569.697C731.016 569.697 729.097 571.143 728.937 575.001C727.658 598.469 728.617 646.691 748.925 691.055C772.43 742.492 820.401 772.711 874.288 774.479C889.639 774.961 900.992 772.711 900.992 764.834C900.992 761.298 897.794 759.208 892.677 758.405C888.359 757.601 880.364 757.119 866.773 755.19C826.957 749.564 796.256 733.972 776.428 707.129C800.893 716.291 835.911 724.81 870.45 724.167C908.027 723.685 943.366 711.63 965.592 683.822C968.95 679.803 969.43 677.553 969.43 676.428C969.43 674.499 968.311 672.891 964.473 671.123C950.401 664.533 924.657 660.354 900.032 660.354C857.978 660.193 815.764 668.551 788.101 673.695C869.651 641.387 937.769 576.287 937.929 496.56C937.929 483.701 936.17 470.36 932.333 456.858C931.693 454.929 930.574 453 927.376 453C925.777 453 924.817 453.482 922.578 454.447Z" fill="#211526" fill-opacity="0.15"/>
<path d="M503.35 851.331V1034.9H578.045V1008.68H531.585V851.331H503.35Z" fill="#211526" fill-opacity="0.15"/>
<path d="M686.845 1034.9L658.096 851.331H616.77L588.021 1034.9H613.946L618.823 1001.6H653.476L658.353 1034.9H686.845ZM622.417 976.684L636.021 883.85L649.626 976.684H622.417Z" fill="#211526" fill-opacity="0.15"/>
<path d="M693.833 895.388C693.833 947.837 749.021 954.918 749.021 992.681C749.021 1005.79 743.373 1010.51 734.39 1010.51C725.406 1010.51 719.759 1005.79 719.759 992.681V979.568H693.063V990.845C693.063 1020.22 707.438 1037 735.16 1037C762.881 1037 777.256 1020.22 777.256 990.845C777.256 938.396 722.069 931.316 722.069 893.553C722.069 880.44 727.202 875.458 736.186 875.458C745.17 875.458 750.304 880.44 750.304 893.553V901.158H776.999V895.388C776.999 866.017 762.882 849.233 735.416 849.233C707.951 849.233 693.833 866.017 693.833 895.388Z" fill="#211526" fill-opacity="0.15"/>
<path d="M819.101 1034.9V956.229H851.187V1034.9H879.936V851.331H851.187V930.004H819.101V851.331H790.866V1034.9H819.101Z" fill="#211526" fill-opacity="0.15"/>
<path d="M943.018 851.331H900.408V1034.9H944.815C973.05 1034.9 987.681 1019.69 987.681 991.369V976.422C987.681 957.015 981.777 943.117 966.633 937.085C979.21 931.053 984.857 918.99 984.857 900.109V893.553C984.857 865.23 972.28 851.331 943.018 851.331ZM928.643 877.556H942.248C952.258 877.556 956.622 883.325 956.622 896.437V906.665C956.622 921.35 950.205 926.071 939.681 926.071H928.643V877.556ZM928.643 952.295H941.221C954.055 952.295 959.446 957.54 959.446 974.586V990.583C959.446 1004.22 954.312 1008.68 944.815 1008.68H928.643V952.295Z" fill="#211526" fill-opacity="0.15"/>
<path d="M1093.5 1034.9L1064.75 851.331H1023.42L994.676 1034.9H1020.6L1025.48 1001.6H1060.13L1065.01 1034.9H1093.5ZM1029.07 976.684L1042.68 883.85L1056.28 976.684H1029.07Z" fill="#211526" fill-opacity="0.15"/>
<path d="M1165.69 1034.9H1194.43C1191.61 1028.08 1191.35 1021.53 1191.35 1012.61V984.289C1191.35 965.145 1186.73 951.246 1172.62 945.215C1185.19 939.183 1191.1 926.857 1191.1 907.976V893.553C1191.1 865.23 1178.52 851.331 1149.26 851.331H1106.65V1034.9H1134.88V960.162H1144.64C1157.47 960.162 1163.12 966.456 1163.12 983.502V1012.35C1163.12 1027.3 1164.15 1030.18 1165.69 1034.9ZM1134.88 877.556H1148.49C1158.5 877.556 1162.86 883.325 1162.86 896.437V914.532C1162.86 929.218 1156.44 933.938 1145.92 933.938H1134.88V877.556Z" fill="#211526" fill-opacity="0.15"/>
<line x1="408" y1="850.788" x2="1290.3" y2="850.788" stroke="#211526" stroke-width="1.5"/>
<line x1="408" y1="775.25" x2="1290.3" y2="775.25" stroke="#211526" stroke-width="1.5"/>
<line x1="408" y1="452.25" x2="1290.3" y2="452.25" stroke="#211526" stroke-width="1.5"/>
<line x1="408" y1="1034.74" x2="1290.3" y2="1034.74" stroke="#211526" stroke-width="1.5"/>
<path d="M940.57 776L757 776L757 850.695L783.224 850.695L783.224 804.235L940.57 804.235L940.57 776Z" fill="#F1E3F5"/>
<path d="M393.779 932.45L388.204 934.95V937.05L391.679 935.625V949H393.854V932.45H393.779ZM407.769 949L403.169 942.6L406.969 937.325H404.319L401.869 940.8L399.419 937.325H396.794L400.569 942.575L395.944 949H398.544L401.869 944.425L405.169 949H407.769Z" fill="#211526"/>
<path d="M362.857 603.45L357.282 605.95V608.05L360.757 606.625V620H362.932V603.45H362.857ZM367.847 620.25C368.722 620.25 369.472 619.625 369.472 618.75C369.472 617.85 368.722 617.2 367.847 617.2C366.997 617.2 366.272 617.85 366.272 618.75C366.272 619.625 366.997 620.25 367.847 620.25ZM371.701 603.65V605.725H379.301L371.426 620H374.001L382.876 603.825V603.65H371.701ZM389.777 609.5C388.502 609.5 387.202 609.95 386.227 610.625L387.152 605.725H394.027V603.65H385.377L383.952 611.8L385.302 612.925C386.552 612 387.952 611.425 389.302 611.425C391.302 611.425 392.927 612.725 392.927 614.775C392.927 616.825 391.352 618.2 389.227 618.2C387.277 618.2 385.877 617.05 385.227 615.55L383.402 616.55C384.427 618.675 386.502 620.25 389.327 620.25C392.677 620.25 395.102 618.05 395.102 614.725C395.102 611.55 392.902 609.5 389.777 609.5ZM407.769 620L403.169 613.6L406.969 608.325H404.319L401.869 611.8L399.419 608.325H396.794L400.569 613.575L395.944 620H398.544L401.869 615.425L405.169 620H407.769Z" fill="#211526"/>
</svg>
