<svg width="1800" height="900" viewBox="0 0 1800 900" fill="none" xmlns="http://www.w3.org/2000/svg">
<rect width="1800" height="900" fill="white"/>
<rect width="1800" height="900" fill="url(#paint0_linear)"/>
<path d="M654.094 323.149C622.979 337.958 591.864 375.236 567.48 411.365C544.747 444.813 528.11 477.623 521.125 492.049C513.251 473.027 509.06 443.281 506.774 418.769C506.52 415.961 505.377 414.684 503.599 414.684C501.948 414.684 500.424 415.833 500.297 418.897C499.281 437.536 500.043 475.835 516.172 511.071C534.841 551.923 572.941 575.924 615.74 577.328C627.932 577.711 636.949 575.924 636.949 569.669C636.949 566.86 634.409 565.2 630.345 564.562C626.916 563.924 620.566 563.541 609.771 562.009C578.148 557.54 553.764 545.157 538.016 523.837C557.447 531.114 585.26 537.88 612.692 537.369C642.537 536.986 670.603 527.412 688.256 505.326C690.923 502.134 691.304 500.347 691.304 499.453C691.304 497.921 690.415 496.645 687.367 495.24C676.191 490.006 655.745 486.687 636.187 486.687C602.786 486.559 569.258 493.198 547.287 497.283C612.057 471.622 666.158 419.918 666.285 356.597C666.285 346.384 664.888 335.788 661.84 325.064C661.332 323.532 660.443 322 657.904 322C656.634 322 655.872 322.383 654.094 323.149Z" fill="#FBE6FF"/>
<path d="M750.882 376.932V522.792H810.233V501.955H773.317V376.932H750.882Z" fill="#FBE6FF"/>
<path d="M896.683 522.792L873.84 376.932H841.003L818.16 522.792H838.759L842.635 496.329H870.168L874.044 522.792H896.683ZM845.49 476.534L856.3 402.77L867.109 476.534H845.49Z" fill="#FBE6FF"/>
<path d="M902.236 411.938C902.236 453.613 946.086 459.239 946.086 489.244C946.086 499.663 941.599 503.414 934.46 503.414C927.322 503.414 922.835 499.663 922.835 489.244V478.826H901.624V487.786C901.624 511.123 913.045 524.459 935.072 524.459C957.1 524.459 968.521 511.123 968.521 487.786C968.521 446.111 924.671 440.485 924.671 410.48C924.671 400.061 928.75 396.102 935.888 396.102C943.027 396.102 947.106 400.061 947.106 410.48V416.522H968.317V411.938C968.317 388.6 957.1 375.265 935.276 375.265C913.453 375.265 902.236 388.6 902.236 411.938Z" fill="#FBE6FF"/>
<path d="M1001.77 522.792V460.281H1027.26V522.792H1050.11V376.932H1027.26V439.443H1001.77V376.932H979.335V522.792H1001.77Z" fill="#FBE6FF"/>
<path d="M1100.23 376.932H1066.37V522.792H1101.66C1124.09 522.792 1135.72 510.707 1135.72 488.202V476.325C1135.72 460.906 1131.03 449.862 1119 445.069C1128.99 440.277 1133.48 430.692 1133.48 415.689V410.48C1133.48 387.975 1123.48 376.932 1100.23 376.932ZM1088.81 397.769H1099.62C1107.57 397.769 1111.04 402.353 1111.04 412.772V420.898C1111.04 432.567 1105.94 436.318 1097.58 436.318H1088.81V397.769ZM1088.81 457.155H1098.8C1109 457.155 1113.28 461.322 1113.28 474.867V487.577C1113.28 498.413 1109.21 501.955 1101.66 501.955H1088.81V457.155Z" fill="#FBE6FF"/>
<path d="M1219.8 522.792L1196.96 376.932H1164.12L1141.28 522.792H1161.88L1165.75 496.329H1193.29L1197.16 522.792H1219.8ZM1168.61 476.534L1179.42 402.77L1190.23 476.534H1168.61Z" fill="#FBE6FF"/>
<path d="M1277.16 522.792H1300C1297.76 517.375 1297.55 512.165 1297.55 505.081V482.576C1297.55 467.365 1293.88 456.321 1282.66 451.529C1292.66 446.736 1297.35 436.943 1297.35 421.94V410.48C1297.35 387.975 1287.36 376.932 1264.1 376.932H1230.25V522.792H1252.68V463.406H1260.43C1270.63 463.406 1275.12 468.407 1275.12 481.951V504.872C1275.12 516.749 1275.93 519.041 1277.16 522.792ZM1252.68 397.769H1263.49C1271.45 397.769 1274.91 402.353 1274.91 412.772V427.149C1274.91 438.818 1269.82 442.569 1261.45 442.569H1252.68V397.769Z" fill="#FBE6FF"/>
<defs>
<linearGradient id="paint0_linear" x1="333.9" y1="168" x2="1892.22" y2="1333.07" gradientUnits="userSpaceOnUse">
<stop stop-color="#DDB3E6"/>
<stop offset="0.78125" stop-color="#BB89C4"/>
</linearGradient>
</defs>
</svg>
