<svg width="3000" height="1500" viewBox="0 0 3000 1500" fill="none" xmlns="http://www.w3.org/2000/svg">
<rect width="3000" height="1500" fill="white"/>
<path d="M587 653.309V836.88H661.695V810.655H615.235V653.309H587Z" fill="#F1E3F5"/>
<path d="M540.016 582.051C500.84 600.697 461.664 647.633 430.963 693.122C402.34 735.236 381.393 776.546 372.598 794.709C362.684 770.759 357.408 733.307 354.529 702.445C354.21 698.909 352.77 697.301 350.532 697.301C348.453 697.301 346.534 698.748 346.374 702.606C345.095 726.074 346.055 774.295 366.362 818.659C389.868 870.096 437.838 900.315 491.725 902.083C507.076 902.565 518.429 900.315 518.429 892.439C518.429 888.903 515.231 886.813 510.114 886.009C505.797 885.206 497.802 884.723 484.21 882.794C444.394 877.169 413.693 861.577 393.865 834.733C418.33 843.896 453.349 852.415 487.888 851.772C525.465 851.29 560.803 839.234 583.03 811.426C586.388 807.408 586.867 805.157 586.867 804.032C586.867 802.103 585.748 800.496 581.91 798.728C567.839 792.137 542.095 787.958 517.47 787.958C475.415 787.797 433.201 796.156 405.538 801.3C487.088 768.991 555.207 703.892 555.367 624.165C555.367 611.306 553.608 597.964 549.77 584.462C549.13 582.533 548.011 580.604 544.813 580.604C543.214 580.604 542.255 581.087 540.016 582.051Z" fill="#211526" fill-opacity="0.15"/>
<path d="M662.057 653.309V836.879H736.752V810.655H690.292V653.309H662.057Z" fill="#211526" fill-opacity="0.15"/>
<path d="M845.552 836.879L816.803 653.309H775.477L746.728 836.879H772.653L777.53 803.574H812.183L817.06 836.879H845.552ZM781.124 778.661L794.728 685.827L808.333 778.661H781.124Z" fill="#211526" fill-opacity="0.15"/>
<path d="M852.54 697.366C852.54 749.815 907.728 756.895 907.728 794.658C907.728 807.77 902.081 812.491 893.097 812.491C884.113 812.491 878.466 807.77 878.466 794.658V781.546H851.77V792.822C851.77 822.194 866.145 838.977 893.867 838.977C921.589 838.977 935.963 822.194 935.963 792.822C935.963 740.374 880.776 733.293 880.776 695.53C880.776 682.418 885.909 677.435 894.893 677.435C903.877 677.435 909.011 682.418 909.011 695.53V703.135H935.706V697.366C935.706 667.995 921.589 651.211 894.123 651.211C866.658 651.211 852.54 667.995 852.54 697.366Z" fill="#211526" fill-opacity="0.15"/>
<path d="M977.808 836.879V758.206H1009.89V836.879H1038.64V653.309H1009.89V731.982H977.808V653.309H949.573V836.879H977.808Z" fill="#211526" fill-opacity="0.15"/>
<path d="M1101.72 653.309H1059.12V836.879H1103.52C1131.76 836.879 1146.39 821.669 1146.39 793.347V778.399C1146.39 758.993 1140.48 745.094 1125.34 739.063C1137.92 733.031 1143.56 720.968 1143.56 702.086V695.53C1143.56 667.208 1130.99 653.309 1101.72 653.309ZM1087.35 679.533H1100.95C1110.97 679.533 1115.33 685.303 1115.33 698.415V708.642C1115.33 723.328 1108.91 728.048 1098.39 728.048H1087.35V679.533ZM1087.35 754.273H1099.93C1112.76 754.273 1118.15 759.518 1118.15 776.563V792.56C1118.15 806.197 1113.02 810.655 1103.52 810.655H1087.35V754.273Z" fill="#211526" fill-opacity="0.15"/>
<path d="M1252.21 836.879L1223.46 653.309H1182.13L1153.38 836.879H1179.31L1184.18 803.574H1218.84L1223.71 836.879H1252.21ZM1187.78 778.661L1201.38 685.827L1214.99 778.661H1187.78Z" fill="#211526" fill-opacity="0.15"/>
<path d="M1324.39 836.879H1353.14C1350.32 830.061 1350.06 823.505 1350.06 814.589V786.266C1350.06 767.123 1345.44 753.224 1331.32 747.192C1343.9 741.16 1349.8 728.835 1349.8 709.953V695.53C1349.8 667.208 1337.23 653.309 1307.96 653.309H1265.35V836.879H1293.59V762.14H1303.34C1316.18 762.14 1321.83 768.434 1321.83 785.48V814.326C1321.83 829.274 1322.85 832.159 1324.39 836.879ZM1293.59 679.533H1307.19C1317.21 679.533 1321.57 685.303 1321.57 698.415V716.51C1321.57 731.195 1315.15 735.916 1304.63 735.916H1293.59V679.533Z" fill="#211526" fill-opacity="0.15"/>
<line x1="1354.62" y1="525" x2="1354.62" y2="965.598" stroke="#211526" stroke-width="1.5"/>
<line x1="662.877" y1="525" x2="662.877" y2="965.598" stroke="#211526" stroke-width="1.5"/>
<line x1="587.75" y1="525" x2="587.75" y2="965.598" stroke="#211526" stroke-width="1.5"/>
<line x1="345.75" y1="525" x2="345.75" y2="965.598" stroke="#211526" stroke-width="1.5"/>
<path d="M2223.58 454.447C2184.4 473.092 2145.23 520.028 2114.53 565.518C2085.9 607.631 2064.96 648.941 2056.16 667.105C2046.25 643.155 2040.97 605.702 2038.09 574.84C2037.77 571.304 2036.33 569.697 2034.09 569.697C2032.02 569.697 2030.1 571.143 2029.94 575.001C2028.66 598.469 2029.62 646.691 2049.92 691.055C2073.43 742.492 2121.4 772.711 2175.29 774.479C2190.64 774.961 2201.99 772.711 2201.99 764.834C2201.99 761.298 2198.79 759.208 2193.68 758.405C2189.36 757.601 2181.36 757.119 2167.77 755.19C2127.96 749.564 2097.26 733.972 2077.43 707.129C2101.89 716.291 2136.91 724.81 2171.45 724.167C2209.03 723.685 2244.37 711.63 2266.59 683.822C2269.95 679.803 2270.43 677.553 2270.43 676.428C2270.43 674.499 2269.31 672.891 2265.47 671.123C2251.4 664.533 2225.66 660.354 2201.03 660.354C2158.98 660.193 2116.76 668.551 2089.1 673.695C2170.65 641.386 2238.77 576.287 2238.93 496.56C2238.93 483.701 2237.17 470.36 2233.33 456.858C2232.69 454.929 2231.57 453 2228.38 453C2226.78 453 2225.82 453.482 2223.58 454.447Z" fill="#211526" fill-opacity="0.15"/>
<path d="M1804.35 851.331V1034.9H1879.05V1008.68H1832.59V851.331H1804.35Z" fill="#211526" fill-opacity="0.15"/>
<path d="M1987.85 1034.9L1959.1 851.331H1917.77L1889.02 1034.9H1914.95L1919.83 1001.6H1954.48L1959.35 1034.9H1987.85ZM1923.42 976.684L1937.02 883.85L1950.63 976.684H1923.42Z" fill="#211526" fill-opacity="0.15"/>
<path d="M1994.84 895.388C1994.84 947.837 2050.02 954.918 2050.02 992.681C2050.02 1005.79 2044.38 1010.51 2035.39 1010.51C2026.41 1010.51 2020.76 1005.79 2020.76 992.681V979.568H1994.07V990.845C1994.07 1020.22 2008.44 1037 2036.16 1037C2063.88 1037 2078.26 1020.22 2078.26 990.845C2078.26 938.396 2023.07 931.316 2023.07 893.553C2023.07 880.44 2028.2 875.458 2037.19 875.458C2046.17 875.458 2051.31 880.44 2051.31 893.553V901.158H2078V895.388C2078 866.017 2063.88 849.233 2036.42 849.233C2008.95 849.233 1994.84 866.017 1994.84 895.388Z" fill="#211526" fill-opacity="0.15"/>
<path d="M2120.1 1034.9V956.229H2152.19V1034.9H2180.94V851.331H2152.19V930.004H2120.1V851.331H2091.87V1034.9H2120.1Z" fill="#211526" fill-opacity="0.15"/>
<path d="M2244.02 851.331H2201.41V1034.9H2245.82C2274.05 1034.9 2288.68 1019.69 2288.68 991.369V976.422C2288.68 957.015 2282.78 943.117 2267.63 937.085C2280.21 931.053 2285.86 918.99 2285.86 900.109V893.553C2285.86 865.23 2273.28 851.331 2244.02 851.331ZM2229.65 877.556H2243.25C2253.26 877.556 2257.62 883.325 2257.62 896.437V906.665C2257.62 921.35 2251.21 926.071 2240.68 926.071H2229.65V877.556ZM2229.65 952.295H2242.22C2255.06 952.295 2260.45 957.54 2260.45 974.586V990.583C2260.45 1004.22 2255.31 1008.68 2245.82 1008.68H2229.65V952.295Z" fill="#211526" fill-opacity="0.15"/>
<path d="M2394.5 1034.9L2365.75 851.331H2324.43L2295.68 1034.9H2321.6L2326.48 1001.6H2361.13L2366.01 1034.9H2394.5ZM2330.07 976.684L2343.68 883.85L2357.28 976.684H2330.07Z" fill="#211526" fill-opacity="0.15"/>
<path d="M2466.69 1034.9H2495.44C2492.61 1028.08 2492.36 1021.53 2492.36 1012.61V984.289C2492.36 965.145 2487.74 951.246 2473.62 945.215C2486.2 939.183 2492.1 926.857 2492.1 907.976V893.553C2492.1 865.23 2479.52 851.331 2450.26 851.331H2407.65V1034.9H2435.89V960.162H2445.64C2458.47 960.162 2464.12 966.456 2464.12 983.502V1012.35C2464.12 1027.3 2465.15 1030.18 2466.69 1034.9ZM2435.89 877.556H2449.49C2459.5 877.556 2463.86 883.325 2463.86 896.437V914.532C2463.86 929.218 2457.45 933.938 2446.92 933.938H2435.89V877.556Z" fill="#211526" fill-opacity="0.15"/>
<line x1="1709" y1="850.788" x2="2591.3" y2="850.788" stroke="#211526" stroke-width="1.5"/>
<line x1="1709" y1="775.25" x2="2591.3" y2="775.25" stroke="#211526" stroke-width="1.5"/>
<line x1="1709" y1="452.25" x2="2591.3" y2="452.25" stroke="#211526" stroke-width="1.5"/>
<line x1="1709" y1="1034.74" x2="2591.3" y2="1034.74" stroke="#211526" stroke-width="1.5"/>
<path d="M2241.57 776L2058 776L2058 850.695L2084.22 850.695L2084.22 804.235L2241.57 804.235L2241.57 776Z" fill="#F1E3F5"/>
</svg>
