<svg width="2100" height="1400" viewBox="0 0 2100 1400" fill="none" xmlns="http://www.w3.org/2000/svg">
<rect width="2100" height="1400" fill="black"/>
<rect width="1800" height="900" transform="translate(150 250)" fill="white"/>
<path d="M301.41 1068.71C302.01 1068.34 302.415 1067.72 302.415 1066.9C302.415 1065.52 301.275 1064.47 299.61 1064.47C297.93 1064.47 296.805 1065.52 296.805 1066.9C296.805 1067.72 297.195 1068.34 297.795 1068.71C296.655 1069.15 295.92 1070.21 295.92 1071.49C295.92 1073.3 297.465 1074.55 299.61 1074.55C301.74 1074.55 303.27 1073.3 303.27 1071.47C303.27 1070.21 302.535 1069.15 301.41 1068.71ZM299.61 1065.68C300.42 1065.68 301.035 1066.28 301.035 1067.02C301.035 1067.75 300.42 1068.29 299.61 1068.29C298.8 1068.29 298.17 1067.74 298.17 1067.02C298.17 1066.28 298.8 1065.68 299.61 1065.68ZM299.61 1073.32C298.305 1073.32 297.3 1072.48 297.3 1071.37C297.3 1070.23 298.35 1069.39 299.61 1069.39C300.84 1069.39 301.89 1070.21 301.89 1071.38C301.89 1072.48 300.96 1073.32 299.61 1073.32Z" fill="#211526"/>
<path d="M308.129 1074.55C310.949 1074.55 311.684 1072.28 311.684 1069.52C311.684 1066.73 310.949 1064.47 308.129 1064.47C305.309 1064.47 304.574 1066.73 304.574 1069.52C304.574 1072.28 305.309 1074.55 308.129 1074.55ZM308.129 1073.32C306.329 1073.32 305.894 1071.56 305.894 1069.52C305.894 1067.45 306.329 1065.71 308.129 1065.71C309.929 1065.71 310.379 1067.45 310.379 1069.52C310.379 1071.56 309.929 1073.32 308.129 1073.32Z" fill="#211526"/>
<path d="M316.706 1074.55C319.526 1074.55 320.261 1072.28 320.261 1069.52C320.261 1066.73 319.526 1064.47 316.706 1064.47C313.886 1064.47 313.151 1066.73 313.151 1069.52C313.151 1072.28 313.886 1074.55 316.706 1074.55ZM316.706 1073.32C314.906 1073.32 314.471 1071.56 314.471 1069.52C314.471 1067.45 314.906 1065.71 316.706 1065.71C318.506 1065.71 318.956 1067.45 318.956 1069.52C318.956 1071.56 318.506 1073.32 316.706 1073.32Z" fill="#211526"/>
<path d="M325.778 1067.24C324.773 1067.24 323.753 1067.69 323.288 1068.5V1067.39H321.983V1077.8H323.288V1073.3C323.753 1074.13 324.743 1074.55 325.793 1074.55C327.713 1074.55 329.288 1073.12 329.288 1070.9C329.288 1068.7 327.698 1067.24 325.778 1067.24ZM325.658 1073.32C324.518 1073.32 323.288 1072.43 323.288 1070.92C323.288 1069.42 324.413 1068.47 325.658 1068.47C326.948 1068.47 327.968 1069.52 327.968 1070.92C327.968 1072.33 326.948 1073.32 325.658 1073.32Z" fill="#211526"/>
<path d="M336.591 1074.4L333.831 1070.56L336.111 1067.39H334.521L333.051 1069.48L331.581 1067.39H330.006L332.271 1070.54L329.496 1074.4H331.056L333.051 1071.65L335.031 1074.4H336.591Z" fill="#211526"/>
<path d="M774.42 1068.08C773.37 1068.08 772.53 1068.64 772.08 1069.33C771.975 1067.41 773.115 1065.71 774.63 1065.71C775.365 1065.71 776.085 1066.03 776.49 1066.94L777.675 1066.46C777.015 1064.87 775.785 1064.47 774.66 1064.47C771.555 1064.47 770.655 1067.5 770.655 1069.81C770.655 1072.91 771.9 1074.55 774.3 1074.55C776.445 1074.55 777.78 1072.99 777.78 1071.32C777.78 1069.61 776.415 1068.08 774.42 1068.08ZM774.225 1073.3C773.025 1073.27 772.095 1072.4 772.095 1071.2C772.155 1070.09 773.16 1069.31 774.375 1069.31C775.545 1069.36 776.415 1070.2 776.415 1071.29C776.415 1072.43 775.485 1073.3 774.225 1073.3Z" fill="#211526"/>
<path d="M782.729 1074.55C785.549 1074.55 786.284 1072.28 786.284 1069.52C786.284 1066.73 785.549 1064.47 782.729 1064.47C779.909 1064.47 779.174 1066.73 779.174 1069.52C779.174 1072.28 779.909 1074.55 782.729 1074.55ZM782.729 1073.32C780.929 1073.32 780.494 1071.56 780.494 1069.52C780.494 1067.45 780.929 1065.71 782.729 1065.71C784.529 1065.71 784.979 1067.45 784.979 1069.52C784.979 1071.56 784.529 1073.32 782.729 1073.32Z" fill="#211526"/>
<path d="M791.306 1074.55C794.126 1074.55 794.861 1072.28 794.861 1069.52C794.861 1066.73 794.126 1064.47 791.306 1064.47C788.486 1064.47 787.751 1066.73 787.751 1069.52C787.751 1072.28 788.486 1074.55 791.306 1074.55ZM791.306 1073.32C789.506 1073.32 789.071 1071.56 789.071 1069.52C789.071 1067.45 789.506 1065.71 791.306 1065.71C793.106 1065.71 793.556 1067.45 793.556 1069.52C793.556 1071.56 793.106 1073.32 791.306 1073.32Z" fill="#211526"/>
<path d="M800.378 1067.24C799.373 1067.24 798.353 1067.69 797.888 1068.5V1067.39H796.583V1077.8H797.888V1073.3C798.353 1074.13 799.343 1074.55 800.393 1074.55C802.313 1074.55 803.888 1073.12 803.888 1070.9C803.888 1068.7 802.298 1067.24 800.378 1067.24ZM800.258 1073.32C799.118 1073.32 797.888 1072.43 797.888 1070.92C797.888 1069.42 799.013 1068.47 800.258 1068.47C801.548 1068.47 802.568 1069.52 802.568 1070.92C802.568 1072.33 801.548 1073.32 800.258 1073.32Z" fill="#211526"/>
<path d="M811.191 1074.4L808.431 1070.56L810.711 1067.39H809.121L807.651 1069.48L806.181 1067.39H804.606L806.871 1070.54L804.096 1074.4H805.656L807.651 1071.65L809.631 1074.4H811.191Z" fill="#211526"/>
<path d="M1161.69 1071.14H1160.3V1064.59H1160.07L1153.98 1072.09V1072.37H1158.99V1074.4H1160.3V1072.37H1161.69V1071.14ZM1156.17 1071.14L1158.99 1067.77V1071.14H1156.17Z" fill="#211526"/>
<path d="M1166.48 1074.55C1169.3 1074.55 1170.04 1072.28 1170.04 1069.52C1170.04 1066.73 1169.3 1064.47 1166.48 1064.47C1163.66 1064.47 1162.93 1066.73 1162.93 1069.52C1162.93 1072.28 1163.66 1074.55 1166.48 1074.55ZM1166.48 1073.32C1164.68 1073.32 1164.25 1071.56 1164.25 1069.52C1164.25 1067.45 1164.68 1065.71 1166.48 1065.71C1168.28 1065.71 1168.73 1067.45 1168.73 1069.52C1168.73 1071.56 1168.28 1073.32 1166.48 1073.32Z" fill="#211526"/>
<path d="M1175.06 1074.55C1177.88 1074.55 1178.61 1072.28 1178.61 1069.52C1178.61 1066.73 1177.88 1064.47 1175.06 1064.47C1172.24 1064.47 1171.5 1066.73 1171.5 1069.52C1171.5 1072.28 1172.24 1074.55 1175.06 1074.55ZM1175.06 1073.32C1173.26 1073.32 1172.82 1071.56 1172.82 1069.52C1172.82 1067.45 1173.26 1065.71 1175.06 1065.71C1176.86 1065.71 1177.31 1067.45 1177.31 1069.52C1177.31 1071.56 1176.86 1073.32 1175.06 1073.32Z" fill="#211526"/>
<path d="M1184.13 1067.24C1183.12 1067.24 1182.1 1067.69 1181.64 1068.5V1067.39H1180.33V1077.8H1181.64V1073.3C1182.1 1074.13 1183.09 1074.55 1184.14 1074.55C1186.06 1074.55 1187.64 1073.12 1187.64 1070.9C1187.64 1068.7 1186.05 1067.24 1184.13 1067.24ZM1184.01 1073.32C1182.87 1073.32 1181.64 1072.43 1181.64 1070.92C1181.64 1069.42 1182.76 1068.47 1184.01 1068.47C1185.3 1068.47 1186.32 1069.52 1186.32 1070.92C1186.32 1072.33 1185.3 1073.32 1184.01 1073.32Z" fill="#211526"/>
<path d="M1194.94 1074.4L1192.18 1070.56L1194.46 1067.39H1192.87L1191.4 1069.48L1189.93 1067.39H1188.36L1190.62 1070.54L1187.85 1074.4H1189.41L1191.4 1071.65L1193.38 1074.4H1194.94Z" fill="#211526"/>
<path d="M1450.15 1073.14L1452.85 1069.9C1453.5 1069.13 1453.99 1068.13 1453.99 1067.36C1453.99 1065.62 1452.76 1064.47 1450.92 1064.47C1449.24 1064.47 1448.07 1065.46 1447.88 1066.94L1449.04 1067.2C1449.12 1066.31 1449.85 1065.71 1450.92 1065.71C1451.98 1065.71 1452.69 1066.37 1452.69 1067.36C1452.69 1067.81 1452.27 1068.61 1451.65 1069.36L1447.96 1073.81V1074.4H1454.13V1073.14H1450.15Z" fill="#211526"/>
<path d="M1459.07 1074.55C1461.89 1074.55 1462.63 1072.28 1462.63 1069.52C1462.63 1066.73 1461.89 1064.47 1459.07 1064.47C1456.25 1064.47 1455.52 1066.73 1455.52 1069.52C1455.52 1072.28 1456.25 1074.55 1459.07 1074.55ZM1459.07 1073.32C1457.27 1073.32 1456.84 1071.56 1456.84 1069.52C1456.84 1067.45 1457.27 1065.71 1459.07 1065.71C1460.87 1065.71 1461.32 1067.45 1461.32 1069.52C1461.32 1071.56 1460.87 1073.32 1459.07 1073.32Z" fill="#211526"/>
<path d="M1467.65 1074.55C1470.47 1074.55 1471.21 1072.28 1471.21 1069.52C1471.21 1066.73 1470.47 1064.47 1467.65 1064.47C1464.83 1064.47 1464.1 1066.73 1464.1 1069.52C1464.1 1072.28 1464.83 1074.55 1467.65 1074.55ZM1467.65 1073.32C1465.85 1073.32 1465.42 1071.56 1465.42 1069.52C1465.42 1067.45 1465.85 1065.71 1467.65 1065.71C1469.45 1065.71 1469.9 1067.45 1469.9 1069.52C1469.9 1071.56 1469.45 1073.32 1467.65 1073.32Z" fill="#211526"/>
<path d="M1476.72 1067.24C1475.72 1067.24 1474.7 1067.69 1474.23 1068.5V1067.39H1472.93V1077.8H1474.23V1073.3C1474.7 1074.13 1475.69 1074.55 1476.74 1074.55C1478.66 1074.55 1480.23 1073.12 1480.23 1070.9C1480.23 1068.7 1478.64 1067.24 1476.72 1067.24ZM1476.6 1073.32C1475.46 1073.32 1474.23 1072.43 1474.23 1070.92C1474.23 1069.42 1475.36 1068.47 1476.6 1068.47C1477.89 1068.47 1478.91 1069.52 1478.91 1070.92C1478.91 1072.33 1477.89 1073.32 1476.6 1073.32Z" fill="#211526"/>
<path d="M1487.54 1074.4L1484.78 1070.56L1487.06 1067.39H1485.47L1484 1069.48L1482.53 1067.39H1480.95L1483.22 1070.54L1480.44 1074.4H1482L1484 1071.65L1485.98 1074.4H1487.54Z" fill="#211526"/>
<path d="M1653.76 1064.47L1650.42 1065.97V1067.23L1652.5 1066.37V1074.4H1653.81V1064.47H1653.76Z" fill="#211526"/>
<path d="M1659.38 1074.55C1662.2 1074.55 1662.94 1072.28 1662.94 1069.52C1662.94 1066.73 1662.2 1064.47 1659.38 1064.47C1656.56 1064.47 1655.83 1066.73 1655.83 1069.52C1655.83 1072.28 1656.56 1074.55 1659.38 1074.55ZM1659.38 1073.32C1657.58 1073.32 1657.15 1071.56 1657.15 1069.52C1657.15 1067.45 1657.58 1065.71 1659.38 1065.71C1661.18 1065.71 1661.63 1067.45 1661.63 1069.52C1661.63 1071.56 1661.18 1073.32 1659.38 1073.32Z" fill="#211526"/>
<path d="M1667.96 1074.55C1670.78 1074.55 1671.52 1072.28 1671.52 1069.52C1671.52 1066.73 1670.78 1064.47 1667.96 1064.47C1665.14 1064.47 1664.41 1066.73 1664.41 1069.52C1664.41 1072.28 1665.14 1074.55 1667.96 1074.55ZM1667.96 1073.32C1666.16 1073.32 1665.73 1071.56 1665.73 1069.52C1665.73 1067.45 1666.16 1065.71 1667.96 1065.71C1669.76 1065.71 1670.21 1067.45 1670.21 1069.52C1670.21 1071.56 1669.76 1073.32 1667.96 1073.32Z" fill="#211526"/>
<path d="M1677.03 1067.24C1676.03 1067.24 1675.01 1067.69 1674.54 1068.5V1067.39H1673.24V1077.8H1674.54V1073.3C1675.01 1074.13 1676 1074.55 1677.05 1074.55C1678.97 1074.55 1680.54 1073.12 1680.54 1070.9C1680.54 1068.7 1678.95 1067.24 1677.03 1067.24ZM1676.91 1073.32C1675.77 1073.32 1674.54 1072.43 1674.54 1070.92C1674.54 1069.42 1675.67 1068.47 1676.91 1068.47C1678.2 1068.47 1679.22 1069.52 1679.22 1070.92C1679.22 1072.33 1678.2 1073.32 1676.91 1073.32Z" fill="#211526"/>
<path d="M1687.85 1074.4L1685.09 1070.56L1687.37 1067.39H1685.78L1684.31 1069.48L1682.84 1067.39H1681.26L1683.53 1070.54L1680.75 1074.4H1682.31L1684.31 1071.65L1686.29 1074.4H1687.85Z" fill="#211526"/>
<path d="M1812.24 1068.1C1811.48 1068.1 1810.7 1068.37 1810.11 1068.77L1810.67 1065.83H1814.79V1064.59H1809.6L1808.75 1069.48L1809.56 1070.15C1810.31 1069.6 1811.15 1069.25 1811.96 1069.25C1813.16 1069.25 1814.13 1070.03 1814.13 1071.26C1814.13 1072.49 1813.19 1073.32 1811.91 1073.32C1810.74 1073.32 1809.9 1072.63 1809.51 1071.73L1808.42 1072.33C1809.03 1073.6 1810.28 1074.55 1811.97 1074.55C1813.98 1074.55 1815.44 1073.23 1815.44 1071.23C1815.44 1069.33 1814.12 1068.1 1812.24 1068.1Z" fill="#211526"/>
<path d="M1820.26 1074.55C1823.08 1074.55 1823.82 1072.28 1823.82 1069.52C1823.82 1066.73 1823.08 1064.47 1820.26 1064.47C1817.44 1064.47 1816.71 1066.73 1816.71 1069.52C1816.71 1072.28 1817.44 1074.55 1820.26 1074.55ZM1820.26 1073.32C1818.46 1073.32 1818.03 1071.56 1818.03 1069.52C1818.03 1067.45 1818.46 1065.71 1820.26 1065.71C1822.06 1065.71 1822.51 1067.45 1822.51 1069.52C1822.51 1071.56 1822.06 1073.32 1820.26 1073.32Z" fill="#211526"/>
<path d="M1829.33 1067.24C1828.33 1067.24 1827.31 1067.69 1826.84 1068.5V1067.39H1825.54V1077.8H1826.84V1073.3C1827.31 1074.13 1828.3 1074.55 1829.35 1074.55C1831.27 1074.55 1832.84 1073.12 1832.84 1070.9C1832.84 1068.7 1831.25 1067.24 1829.33 1067.24ZM1829.21 1073.32C1828.07 1073.32 1826.84 1072.43 1826.84 1070.92C1826.84 1069.42 1827.97 1068.47 1829.21 1068.47C1830.5 1068.47 1831.52 1069.52 1831.52 1070.92C1831.52 1072.33 1830.5 1073.32 1829.21 1073.32Z" fill="#211526"/>
<path d="M1840.15 1074.4L1837.39 1070.56L1839.67 1067.39H1838.08L1836.61 1069.48L1835.14 1067.39H1833.56L1835.83 1070.54L1833.05 1074.4H1834.61L1836.61 1071.65L1838.59 1074.4H1840.15Z" fill="#211526"/>
<path fill-rule="evenodd" clip-rule="evenodd" d="M259.2 530.2C259.531 530.2 259.8 530.469 259.8 530.8L259.8 534.369C259.8 534.7 259.531 534.969 259.2 534.969C258.868 534.969 258.6 534.7 258.6 534.369L258.6 530.8C258.6 530.469 258.868 530.2 259.2 530.2ZM259.2 540.905C259.531 540.905 259.8 541.174 259.8 541.505L259.8 548.642C259.8 548.974 259.531 549.242 259.2 549.242C258.868 549.242 258.6 548.974 258.6 548.642L258.6 541.505C258.6 541.174 258.868 540.905 259.2 540.905ZM259.2 555.179C259.531 555.179 259.8 555.448 259.8 555.779L259.8 562.916C259.8 563.247 259.531 563.516 259.2 563.516C258.868 563.516 258.6 563.247 258.6 562.916L258.6 555.779C258.6 555.448 258.868 555.179 259.2 555.179ZM259.2 569.453C259.531 569.453 259.8 569.721 259.8 570.053L259.8 577.19C259.8 577.521 259.531 577.79 259.2 577.79C258.868 577.79 258.6 577.521 258.6 577.19L258.6 570.053C258.6 569.721 258.868 569.453 259.2 569.453ZM259.2 583.727C259.531 583.727 259.8 583.995 259.8 584.327L259.8 591.463C259.8 591.795 259.531 592.063 259.2 592.063C258.868 592.063 258.6 591.795 258.6 591.463L258.6 584.327C258.6 583.995 258.868 583.727 259.2 583.727ZM259.2 598C259.531 598 259.8 598.269 259.8 598.6L259.8 605.737C259.8 606.068 259.531 606.337 259.2 606.337C258.868 606.337 258.6 606.068 258.6 605.737L258.6 598.6C258.6 598.269 258.868 598 259.2 598ZM259.2 612.274C259.531 612.274 259.8 612.543 259.8 612.874L259.8 620.011C259.8 620.342 259.531 620.611 259.2 620.611C258.868 620.611 258.6 620.342 258.6 620.011L258.6 612.874C258.6 612.543 258.868 612.274 259.2 612.274ZM259.2 626.548C259.531 626.548 259.8 626.816 259.8 627.148L259.8 634.284C259.8 634.616 259.531 634.884 259.2 634.884C258.868 634.884 258.6 634.616 258.6 634.284L258.6 627.148C258.6 626.816 258.868 626.548 259.2 626.548ZM259.2 640.821C259.531 640.821 259.8 641.09 259.8 641.421L259.8 648.558C259.8 648.889 259.531 649.158 259.2 649.158C258.868 649.158 258.6 648.889 258.6 648.558L258.6 641.421C258.6 641.09 258.868 640.821 259.2 640.821ZM259.2 655.095C259.531 655.095 259.8 655.364 259.8 655.695L259.8 662.832C259.8 663.163 259.531 663.432 259.2 663.432C258.868 663.432 258.6 663.163 258.6 662.832L258.6 655.695C258.6 655.364 258.868 655.095 259.2 655.095ZM259.2 669.369C259.531 669.369 259.8 669.637 259.8 669.969L259.8 677.105C259.8 677.437 259.531 677.705 259.2 677.705C258.868 677.705 258.6 677.437 258.6 677.105L258.6 669.969C258.6 669.637 258.868 669.369 259.2 669.369ZM259.2 683.642C259.531 683.642 259.8 683.911 259.8 684.242L259.8 691.379C259.8 691.711 259.531 691.979 259.2 691.979C258.868 691.979 258.6 691.711 258.6 691.379L258.6 684.242C258.6 683.911 258.868 683.642 259.2 683.642ZM259.2 697.916C259.531 697.916 259.8 698.185 259.8 698.516L259.8 705.653C259.8 705.984 259.531 706.253 259.2 706.253C258.868 706.253 258.6 705.984 258.6 705.653L258.6 698.516C258.6 698.185 258.868 697.916 259.2 697.916ZM259.2 712.19C259.531 712.19 259.8 712.458 259.8 712.79L259.8 719.927C259.8 720.258 259.531 720.527 259.2 720.527C258.868 720.527 258.6 720.258 258.6 719.927L258.6 712.79C258.6 712.458 258.868 712.19 259.2 712.19ZM259.2 726.463C259.531 726.463 259.8 726.732 259.8 727.063L259.8 734.2C259.8 734.532 259.531 734.8 259.2 734.8C258.868 734.8 258.6 734.532 258.6 734.2L258.6 727.063C258.6 726.732 258.868 726.463 259.2 726.463ZM259.2 740.737C259.531 740.737 259.8 741.006 259.8 741.337L259.8 748.474C259.8 748.805 259.531 749.074 259.2 749.074C258.868 749.074 258.6 748.805 258.6 748.474L258.6 741.337C258.6 741.006 258.868 740.737 259.2 740.737ZM259.2 755.011C259.531 755.011 259.8 755.279 259.8 755.611L259.8 762.748C259.8 763.079 259.531 763.348 259.2 763.348C258.868 763.348 258.6 763.079 258.6 762.748L258.6 755.611C258.6 755.279 258.868 755.011 259.2 755.011ZM259.2 769.284C259.531 769.284 259.8 769.553 259.8 769.884L259.8 777.021C259.8 777.353 259.531 777.621 259.2 777.621C258.868 777.621 258.6 777.353 258.6 777.021L258.6 769.884C258.6 769.553 258.868 769.284 259.2 769.284ZM259.2 783.558C259.531 783.558 259.8 783.827 259.8 784.158L259.8 791.295C259.8 791.626 259.531 791.895 259.2 791.895C258.868 791.895 258.6 791.626 258.6 791.295L258.6 784.158C258.6 783.827 258.868 783.558 259.2 783.558ZM259.2 797.832C259.531 797.832 259.8 798.1 259.8 798.432L259.8 805.569C259.8 805.9 259.531 806.169 259.2 806.169C258.868 806.169 258.6 805.9 258.6 805.569L258.6 798.432C258.6 798.1 258.868 797.832 259.2 797.832ZM259.2 812.106C259.531 812.106 259.8 812.374 259.8 812.706L259.8 819.842C259.8 820.174 259.531 820.442 259.2 820.442C258.868 820.442 258.6 820.174 258.6 819.842L258.6 812.706C258.6 812.374 258.868 812.106 259.2 812.106ZM259.2 826.379C259.531 826.379 259.8 826.648 259.8 826.979L259.8 834.116C259.8 834.447 259.531 834.716 259.2 834.716C258.868 834.716 258.6 834.447 258.6 834.116L258.6 826.979C258.6 826.648 258.868 826.379 259.2 826.379ZM259.2 840.653C259.531 840.653 259.8 840.922 259.8 841.253L259.8 848.39C259.8 848.721 259.531 848.99 259.2 848.99C258.868 848.99 258.6 848.721 258.6 848.39L258.6 841.253C258.6 840.922 258.868 840.653 259.2 840.653ZM259.2 854.927C259.531 854.927 259.8 855.195 259.8 855.527L259.8 862.663C259.8 862.995 259.531 863.263 259.2 863.263C258.868 863.263 258.6 862.995 258.6 862.663L258.6 855.527C258.6 855.195 258.868 854.927 259.2 854.927ZM259.2 869.2C259.531 869.2 259.8 869.469 259.8 869.8L259.8 876.937C259.8 877.268 259.531 877.537 259.2 877.537C258.868 877.537 258.6 877.268 258.6 876.937L258.6 869.8C258.6 869.469 258.868 869.2 259.2 869.2ZM259.2 883.474C259.531 883.474 259.8 883.743 259.8 884.074L259.8 891.211C259.8 891.542 259.531 891.811 259.2 891.811C258.868 891.811 258.6 891.542 258.6 891.211L258.6 884.074C258.6 883.743 258.868 883.474 259.2 883.474ZM259.2 897.748C259.531 897.748 259.8 898.016 259.8 898.348L259.8 905.484C259.8 905.816 259.531 906.084 259.2 906.084C258.868 906.084 258.6 905.816 258.6 905.484L258.6 898.348C258.6 898.016 258.868 897.748 259.2 897.748ZM259.2 912.021C259.531 912.021 259.8 912.29 259.8 912.621L259.8 919.758C259.8 920.089 259.531 920.358 259.2 920.358C258.868 920.358 258.6 920.089 258.6 919.758L258.6 912.621C258.6 912.29 258.868 912.021 259.2 912.021ZM259.2 926.295C259.531 926.295 259.8 926.564 259.8 926.895L259.8 934.032C259.8 934.363 259.531 934.632 259.2 934.632C258.868 934.632 258.6 934.363 258.6 934.032L258.6 926.895C258.6 926.564 258.868 926.295 259.2 926.295ZM259.2 940.569C259.531 940.569 259.8 940.837 259.8 941.169L259.8 948.305C259.8 948.637 259.531 948.905 259.2 948.905C258.868 948.905 258.6 948.637 258.6 948.305L258.6 941.169C258.6 940.837 258.868 940.569 259.2 940.569ZM259.2 954.842C259.531 954.842 259.8 955.111 259.8 955.442L259.8 962.579C259.8 962.91 259.531 963.179 259.2 963.179C258.868 963.179 258.6 962.91 258.6 962.579L258.6 955.442C258.6 955.111 258.868 954.842 259.2 954.842ZM259.2 969.116C259.531 969.116 259.8 969.384 259.8 969.716L259.8 976.853C259.8 977.184 259.531 977.453 259.2 977.453C258.868 977.453 258.6 977.184 258.6 976.853L258.6 969.716C258.6 969.384 258.868 969.116 259.2 969.116ZM259.2 983.389C259.531 983.389 259.8 983.658 259.8 983.989L259.8 991.126C259.8 991.458 259.531 991.726 259.2 991.726C258.868 991.726 258.6 991.458 258.6 991.126L258.6 983.989C258.6 983.658 258.868 983.389 259.2 983.389ZM259.2 997.663C259.531 997.663 259.8 997.932 259.8 998.263L259.8 1005.4C259.8 1005.73 259.531 1006 259.2 1006C258.868 1006 258.6 1005.73 258.6 1005.4L258.6 998.263C258.6 997.932 258.868 997.663 259.2 997.663ZM259.2 1011.94C259.531 1011.94 259.8 1012.21 259.8 1012.54L259.8 1019.67C259.8 1020 259.531 1020.27 259.2 1020.27C258.868 1020.27 258.6 1020 258.6 1019.67L258.6 1012.54C258.6 1012.21 258.868 1011.94 259.2 1011.94ZM259.2 1026.21C259.531 1026.21 259.8 1026.48 259.8 1026.81L259.8 1033.95C259.8 1034.28 259.531 1034.55 259.2 1034.55C258.868 1034.55 258.6 1034.28 258.6 1033.95L258.6 1026.81C258.6 1026.48 258.868 1026.21 259.2 1026.21ZM259.2 1040.48C259.531 1040.48 259.8 1040.75 259.8 1041.08L259.8 1048.22C259.8 1048.55 259.531 1048.82 259.2 1048.82C258.868 1048.82 258.6 1048.55 258.6 1048.22L258.6 1041.08C258.6 1040.75 258.868 1040.48 259.2 1040.48ZM259.2 1054.76C259.531 1054.76 259.8 1055.03 259.8 1055.36L259.8 1062.49C259.8 1062.83 259.531 1063.09 259.2 1063.09C258.868 1063.09 258.6 1062.83 258.6 1062.49L258.6 1055.36C258.6 1055.03 258.868 1054.76 259.2 1054.76ZM259.2 1069.03C259.531 1069.03 259.8 1069.3 259.8 1069.63L259.8 1073.2C259.8 1073.53 259.531 1073.8 259.2 1073.8C258.868 1073.8 258.6 1073.53 258.6 1073.2L258.6 1069.63C258.6 1069.3 258.868 1069.03 259.2 1069.03Z" fill="#211526"/>
<path fill-rule="evenodd" clip-rule="evenodd" d="M733.8 1073.8C733.469 1073.8 733.2 1073.53 733.2 1073.2L733.2 1069.56C733.2 1069.23 733.469 1068.96 733.8 1068.96C734.132 1068.96 734.4 1069.23 734.4 1069.56L734.4 1073.2C734.4 1073.53 734.132 1073.8 733.8 1073.8ZM733.8 1062.88C733.469 1062.88 733.2 1062.61 733.2 1062.28L733.2 1054.99C733.2 1054.66 733.469 1054.39 733.8 1054.39C734.132 1054.39 734.4 1054.66 734.4 1054.99L734.4 1062.28C734.4 1062.61 734.132 1062.88 733.8 1062.88ZM733.8 1048.31C733.469 1048.31 733.2 1048.04 733.2 1047.71L733.2 1040.43C733.2 1040.1 733.469 1039.83 733.8 1039.83C734.132 1039.83 734.4 1040.1 734.4 1040.43L734.4 1047.71C734.4 1048.04 734.132 1048.31 733.8 1048.31ZM733.8 1033.74C733.469 1033.74 733.2 1033.48 733.2 1033.14L733.2 1025.86C733.2 1025.53 733.469 1025.26 733.8 1025.26C734.132 1025.26 734.4 1025.53 734.4 1025.86L734.4 1033.14C734.4 1033.48 734.132 1033.74 733.8 1033.74ZM733.8 1019.18C733.469 1019.18 733.2 1018.91 733.2 1018.58L733.2 1011.3C733.2 1010.96 733.469 1010.7 733.8 1010.7C734.132 1010.7 734.4 1010.96 734.4 1011.3L734.4 1018.58C734.4 1018.91 734.132 1019.18 733.8 1019.18ZM733.8 1004.61C733.469 1004.61 733.2 1004.34 733.2 1004.01L733.2 996.731C733.2 996.399 733.469 996.131 733.8 996.131C734.132 996.131 734.4 996.399 734.4 996.731L734.4 1004.01C734.4 1004.34 734.132 1004.61 733.8 1004.61ZM733.8 990.048C733.469 990.048 733.2 989.779 733.2 989.448L733.2 982.165C733.2 981.834 733.469 981.565 733.8 981.565C734.132 981.565 734.4 981.834 734.4 982.165L734.4 989.448C734.4 989.779 734.132 990.048 733.8 990.048ZM733.8 975.483C733.469 975.483 733.2 975.214 733.2 974.883L733.2 967.6C733.2 967.268 733.469 967 733.8 967C734.132 967 734.4 967.268 734.4 967.6L734.4 974.883C734.4 975.214 734.132 975.483 733.8 975.483ZM733.8 960.917C733.469 960.917 733.2 960.648 733.2 960.317L733.2 953.034C733.2 952.703 733.469 952.434 733.8 952.434C734.132 952.434 734.4 952.703 734.4 953.034L734.4 960.317C734.4 960.648 734.132 960.917 733.8 960.917ZM733.8 946.352C733.469 946.352 733.2 946.083 733.2 945.752L733.2 938.469C733.2 938.137 733.469 937.869 733.8 937.869C734.132 937.869 734.4 938.137 734.4 938.469L734.4 945.752C734.4 946.083 734.132 946.352 733.8 946.352ZM733.8 931.786C733.469 931.786 733.2 931.517 733.2 931.186L733.2 923.903C733.2 923.572 733.469 923.303 733.8 923.303C734.132 923.303 734.4 923.572 734.4 923.903L734.4 931.186C734.4 931.517 734.132 931.786 733.8 931.786ZM733.8 917.221C733.469 917.221 733.2 916.952 733.2 916.621L733.2 909.338C733.2 909.006 733.469 908.738 733.8 908.738C734.132 908.738 734.4 909.006 734.4 909.338L734.4 916.621C734.4 916.952 734.132 917.221 733.8 917.221ZM733.8 902.655C733.469 902.655 733.2 902.386 733.2 902.055L733.2 894.772C733.2 894.441 733.469 894.172 733.8 894.172C734.132 894.172 734.4 894.441 734.4 894.772L734.4 902.055C734.4 902.386 734.132 902.655 733.8 902.655ZM733.8 888.089C733.469 888.089 733.2 887.821 733.2 887.489L733.2 880.207C733.2 879.875 733.469 879.607 733.8 879.607C734.132 879.607 734.4 879.875 734.4 880.207L734.4 887.489C734.4 887.821 734.132 888.089 733.8 888.089ZM733.8 873.524C733.469 873.524 733.2 873.255 733.2 872.924L733.2 865.641C733.2 865.31 733.469 865.041 733.8 865.041C734.132 865.041 734.4 865.31 734.4 865.641L734.4 872.924C734.4 873.255 734.132 873.524 733.8 873.524ZM733.8 858.958C733.469 858.958 733.2 858.69 733.2 858.358L733.2 851.076C733.2 850.744 733.469 850.476 733.8 850.476C734.132 850.476 734.4 850.744 734.4 851.076L734.4 858.358C734.4 858.69 734.132 858.958 733.8 858.958ZM733.8 844.393C733.469 844.393 733.2 844.124 733.2 843.793L733.2 836.51C733.2 836.179 733.469 835.91 733.8 835.91C734.132 835.91 734.4 836.179 734.4 836.51L734.4 843.793C734.4 844.124 734.132 844.393 733.8 844.393ZM733.8 829.827C733.469 829.827 733.2 829.559 733.2 829.227L733.2 821.945C733.2 821.613 733.469 821.345 733.8 821.345C734.132 821.345 734.4 821.613 734.4 821.945L734.4 829.227C734.4 829.559 734.132 829.827 733.8 829.827ZM733.8 815.262C733.469 815.262 733.2 814.993 733.2 814.662L733.2 807.379C733.2 807.048 733.469 806.779 733.8 806.779C734.132 806.779 734.4 807.048 734.4 807.379L734.4 814.662C734.4 814.993 734.132 815.262 733.8 815.262ZM733.8 800.696C733.469 800.696 733.2 800.428 733.2 800.096L733.2 792.814C733.2 792.482 733.469 792.214 733.8 792.214C734.132 792.214 734.4 792.482 734.4 792.814L734.4 800.096C734.4 800.428 734.132 800.696 733.8 800.696ZM733.8 786.131C733.469 786.131 733.2 785.862 733.2 785.531L733.2 778.248C733.2 777.917 733.469 777.648 733.8 777.648C734.132 777.648 734.4 777.917 734.4 778.248L734.4 785.531C734.4 785.862 734.132 786.131 733.8 786.131ZM733.8 771.565C733.469 771.565 733.2 771.297 733.2 770.965L733.2 763.682C733.2 763.351 733.469 763.082 733.8 763.082C734.132 763.082 734.4 763.351 734.4 763.682L734.4 770.965C734.4 771.297 734.132 771.565 733.8 771.565ZM733.8 757C733.469 757 733.2 756.731 733.2 756.4L733.2 749.117C733.2 748.786 733.469 748.517 733.8 748.517C734.132 748.517 734.4 748.786 734.4 749.117L734.4 756.4C734.4 756.731 734.132 757 733.8 757ZM733.8 742.434C733.469 742.434 733.2 742.166 733.2 741.834L733.2 734.551C733.2 734.22 733.469 733.951 733.8 733.951C734.132 733.951 734.4 734.22 734.4 734.551L734.4 741.834C734.4 742.166 734.132 742.434 733.8 742.434ZM733.8 727.869C733.469 727.869 733.2 727.6 733.2 727.269L733.2 719.986C733.2 719.655 733.469 719.386 733.8 719.386C734.132 719.386 734.4 719.655 734.4 719.986L734.4 727.269C734.4 727.6 734.132 727.869 733.8 727.869ZM733.8 713.303C733.469 713.303 733.2 713.035 733.2 712.703L733.2 705.42C733.2 705.089 733.469 704.82 733.8 704.82C734.132 704.82 734.4 705.089 734.4 705.42L734.4 712.703C734.4 713.035 734.132 713.303 733.8 713.303ZM733.8 698.738C733.469 698.738 733.2 698.469 733.2 698.138L733.2 690.855C733.2 690.523 733.469 690.255 733.8 690.255C734.132 690.255 734.4 690.523 734.4 690.855L734.4 698.138C734.4 698.469 734.132 698.738 733.8 698.738ZM733.8 684.172C733.469 684.172 733.2 683.903 733.2 683.572L733.2 676.289C733.2 675.958 733.469 675.689 733.8 675.689C734.132 675.689 734.4 675.958 734.4 676.289L734.4 683.572C734.4 683.903 734.132 684.172 733.8 684.172ZM733.8 669.607C733.469 669.607 733.2 669.338 733.2 669.007L733.2 661.724C733.2 661.392 733.469 661.124 733.8 661.124C734.132 661.124 734.4 661.392 734.4 661.724L734.4 669.007C734.4 669.338 734.132 669.607 733.8 669.607ZM733.8 655.041C733.469 655.041 733.2 654.772 733.2 654.441L733.2 650.8C733.2 650.468 733.469 650.2 733.8 650.2C734.132 650.2 734.4 650.468 734.4 650.8L734.4 654.441C734.4 654.772 734.132 655.041 733.8 655.041Z" fill="#211526"/>
<path fill-rule="evenodd" clip-rule="evenodd" d="M1117.8 1073.8C1117.47 1073.8 1117.2 1073.53 1117.2 1073.2L1117.2 1069.6C1117.2 1069.27 1117.47 1069 1117.8 1069C1118.13 1069 1118.4 1069.27 1118.4 1069.6L1118.4 1073.2C1118.4 1073.53 1118.13 1073.8 1117.8 1073.8ZM1117.8 1063C1117.47 1063 1117.2 1062.73 1117.2 1062.4L1117.2 1055.2C1117.2 1054.87 1117.47 1054.6 1117.8 1054.6C1118.13 1054.6 1118.4 1054.87 1118.4 1055.2L1118.4 1062.4C1118.4 1062.73 1118.13 1063 1117.8 1063ZM1117.8 1048.6C1117.47 1048.6 1117.2 1048.33 1117.2 1048L1117.2 1040.8C1117.2 1040.47 1117.47 1040.2 1117.8 1040.2C1118.13 1040.2 1118.4 1040.47 1118.4 1040.8L1118.4 1048C1118.4 1048.33 1118.13 1048.6 1117.8 1048.6ZM1117.8 1034.2C1117.47 1034.2 1117.2 1033.93 1117.2 1033.6L1117.2 1026.4C1117.2 1026.07 1117.47 1025.8 1117.8 1025.8C1118.13 1025.8 1118.4 1026.07 1118.4 1026.4L1118.4 1033.6C1118.4 1033.93 1118.13 1034.2 1117.8 1034.2ZM1117.8 1019.8C1117.47 1019.8 1117.2 1019.53 1117.2 1019.2L1117.2 1012C1117.2 1011.67 1117.47 1011.4 1117.8 1011.4C1118.13 1011.4 1118.4 1011.67 1118.4 1012L1118.4 1019.2C1118.4 1019.53 1118.13 1019.8 1117.8 1019.8ZM1117.8 1005.4C1117.47 1005.4 1117.2 1005.13 1117.2 1004.8L1117.2 997.6C1117.2 997.268 1117.47 997 1117.8 997C1118.13 997 1118.4 997.268 1118.4 997.6L1118.4 1004.8C1118.4 1005.13 1118.13 1005.4 1117.8 1005.4ZM1117.8 991C1117.47 991 1117.2 990.731 1117.2 990.4L1117.2 983.2C1117.2 982.868 1117.47 982.6 1117.8 982.6C1118.13 982.6 1118.4 982.868 1118.4 983.2L1118.4 990.4C1118.4 990.731 1118.13 991 1117.8 991ZM1117.8 976.6C1117.47 976.6 1117.2 976.331 1117.2 976L1117.2 968.8C1117.2 968.468 1117.47 968.2 1117.8 968.2C1118.13 968.2 1118.4 968.468 1118.4 968.8L1118.4 976C1118.4 976.331 1118.13 976.6 1117.8 976.6ZM1117.8 962.2C1117.47 962.2 1117.2 961.931 1117.2 961.6L1117.2 954.4C1117.2 954.068 1117.47 953.8 1117.8 953.8C1118.13 953.8 1118.4 954.068 1118.4 954.4L1118.4 961.6C1118.4 961.931 1118.13 962.2 1117.8 962.2ZM1117.8 947.8C1117.47 947.8 1117.2 947.531 1117.2 947.2L1117.2 940C1117.2 939.668 1117.47 939.4 1117.8 939.4C1118.13 939.4 1118.4 939.668 1118.4 940L1118.4 947.2C1118.4 947.531 1118.13 947.8 1117.8 947.8ZM1117.8 933.4C1117.47 933.4 1117.2 933.131 1117.2 932.8L1117.2 925.6C1117.2 925.268 1117.47 925 1117.8 925C1118.13 925 1118.4 925.268 1118.4 925.6L1118.4 932.8C1118.4 933.131 1118.13 933.4 1117.8 933.4ZM1117.8 919C1117.47 919 1117.2 918.731 1117.2 918.4L1117.2 911.2C1117.2 910.868 1117.47 910.6 1117.8 910.6C1118.13 910.6 1118.4 910.868 1118.4 911.2L1118.4 918.4C1118.4 918.731 1118.13 919 1117.8 919ZM1117.8 904.6C1117.47 904.6 1117.2 904.331 1117.2 904L1117.2 896.8C1117.2 896.468 1117.47 896.2 1117.8 896.2C1118.13 896.2 1118.4 896.468 1118.4 896.8L1118.4 904C1118.4 904.331 1118.13 904.6 1117.8 904.6ZM1117.8 890.2C1117.47 890.2 1117.2 889.931 1117.2 889.6L1117.2 882.4C1117.2 882.068 1117.47 881.8 1117.8 881.8C1118.13 881.8 1118.4 882.068 1118.4 882.4L1118.4 889.6C1118.4 889.931 1118.13 890.2 1117.8 890.2ZM1117.8 875.8C1117.47 875.8 1117.2 875.531 1117.2 875.2L1117.2 868C1117.2 867.668 1117.47 867.4 1117.8 867.4C1118.13 867.4 1118.4 867.668 1118.4 868L1118.4 875.2C1118.4 875.531 1118.13 875.8 1117.8 875.8ZM1117.8 861.4C1117.47 861.4 1117.2 861.131 1117.2 860.8L1117.2 853.6C1117.2 853.268 1117.47 853 1117.8 853C1118.13 853 1118.4 853.268 1118.4 853.6L1118.4 860.8C1118.4 861.131 1118.13 861.4 1117.8 861.4ZM1117.8 847C1117.47 847 1117.2 846.731 1117.2 846.4L1117.2 839.2C1117.2 838.868 1117.47 838.6 1117.8 838.6C1118.13 838.6 1118.4 838.868 1118.4 839.2L1118.4 846.4C1118.4 846.731 1118.13 847 1117.8 847ZM1117.8 832.6C1117.47 832.6 1117.2 832.331 1117.2 832L1117.2 824.8C1117.2 824.468 1117.47 824.2 1117.8 824.2C1118.13 824.2 1118.4 824.468 1118.4 824.8L1118.4 832C1118.4 832.331 1118.13 832.6 1117.8 832.6ZM1117.8 818.2C1117.47 818.2 1117.2 817.931 1117.2 817.6L1117.2 810.4C1117.2 810.068 1117.47 809.8 1117.8 809.8C1118.13 809.8 1118.4 810.068 1118.4 810.4L1118.4 817.6C1118.4 817.931 1118.13 818.2 1117.8 818.2ZM1117.8 803.8C1117.47 803.8 1117.2 803.531 1117.2 803.2L1117.2 796C1117.2 795.668 1117.47 795.4 1117.8 795.4C1118.13 795.4 1118.4 795.668 1118.4 796L1118.4 803.2C1118.4 803.531 1118.13 803.8 1117.8 803.8ZM1117.8 789.4C1117.47 789.4 1117.2 789.131 1117.2 788.8L1117.2 781.6C1117.2 781.268 1117.47 781 1117.8 781C1118.13 781 1118.4 781.268 1118.4 781.6L1118.4 788.8C1118.4 789.131 1118.13 789.4 1117.8 789.4ZM1117.8 775C1117.47 775 1117.2 774.731 1117.2 774.4L1117.2 770.8C1117.2 770.468 1117.47 770.2 1117.8 770.2C1118.13 770.2 1118.4 770.468 1118.4 770.8L1118.4 774.4C1118.4 774.731 1118.13 775 1117.8 775Z" fill="#211526"/>
<path fill-rule="evenodd" clip-rule="evenodd" d="M1411.2 1073.8C1410.87 1073.8 1410.6 1073.53 1410.6 1073.2L1410.6 1069.69C1410.6 1069.36 1410.87 1069.09 1411.2 1069.09C1411.53 1069.09 1411.8 1069.36 1411.8 1069.69L1411.8 1073.2C1411.8 1073.53 1411.53 1073.8 1411.2 1073.8ZM1411.2 1063.28C1410.87 1063.28 1410.6 1063.01 1410.6 1062.68L1410.6 1055.66C1410.6 1055.33 1410.87 1055.06 1411.2 1055.06C1411.53 1055.06 1411.8 1055.33 1411.8 1055.66L1411.8 1062.68C1411.8 1063.01 1411.53 1063.28 1411.2 1063.28ZM1411.2 1049.25C1410.87 1049.25 1410.6 1048.98 1410.6 1048.65L1410.6 1041.63C1410.6 1041.3 1410.87 1041.03 1411.2 1041.03C1411.53 1041.03 1411.8 1041.3 1411.8 1041.63L1411.8 1048.65C1411.8 1048.98 1411.53 1049.25 1411.2 1049.25ZM1411.2 1035.22C1410.87 1035.22 1410.6 1034.95 1410.6 1034.62L1410.6 1027.6C1410.6 1027.27 1410.87 1027 1411.2 1027C1411.53 1027 1411.8 1027.27 1411.8 1027.6L1411.8 1034.62C1411.8 1034.95 1411.53 1035.22 1411.2 1035.22ZM1411.2 1021.18C1410.87 1021.18 1410.6 1020.92 1410.6 1020.58L1410.6 1013.57C1410.6 1013.24 1410.87 1012.97 1411.2 1012.97C1411.53 1012.97 1411.8 1013.24 1411.8 1013.57L1411.8 1020.58C1411.8 1020.92 1411.53 1021.18 1411.2 1021.18ZM1411.2 1007.15C1410.87 1007.15 1410.6 1006.89 1410.6 1006.55L1410.6 999.538C1410.6 999.207 1410.87 998.938 1411.2 998.938C1411.53 998.938 1411.8 999.207 1411.8 999.538L1411.8 1006.55C1411.8 1006.89 1411.53 1007.15 1411.2 1007.15ZM1411.2 993.123C1410.87 993.123 1410.6 992.854 1410.6 992.523L1410.6 985.508C1410.6 985.176 1410.87 984.908 1411.2 984.908C1411.53 984.908 1411.8 985.176 1411.8 985.508L1411.8 992.523C1411.8 992.854 1411.53 993.123 1411.2 993.123ZM1411.2 979.092C1410.87 979.092 1410.6 978.824 1410.6 978.492L1410.6 971.477C1410.6 971.145 1410.87 970.877 1411.2 970.877C1411.53 970.877 1411.8 971.145 1411.8 971.477L1411.8 978.492C1411.8 978.824 1411.53 979.092 1411.2 979.092ZM1411.2 965.061C1410.87 965.061 1410.6 964.793 1410.6 964.461L1410.6 957.446C1410.6 957.115 1410.87 956.846 1411.2 956.846C1411.53 956.846 1411.8 957.115 1411.8 957.446L1411.8 964.461C1411.8 964.793 1411.53 965.061 1411.2 965.061ZM1411.2 951.031C1410.87 951.031 1410.6 950.762 1410.6 950.431L1410.6 943.415C1410.6 943.084 1410.87 942.815 1411.2 942.815C1411.53 942.815 1411.8 943.084 1411.8 943.415L1411.8 950.431C1411.8 950.762 1411.53 951.031 1411.2 951.031ZM1411.2 937C1410.87 937 1410.6 936.731 1410.6 936.4L1410.6 929.384C1410.6 929.053 1410.87 928.784 1411.2 928.784C1411.53 928.784 1411.8 929.053 1411.8 929.384L1411.8 936.4C1411.8 936.731 1411.53 937 1411.2 937ZM1411.2 922.969C1410.87 922.969 1410.6 922.7 1410.6 922.369L1410.6 915.354C1410.6 915.022 1410.87 914.754 1411.2 914.754C1411.53 914.754 1411.8 915.022 1411.8 915.354L1411.8 922.369C1411.8 922.7 1411.53 922.969 1411.2 922.969ZM1411.2 908.938C1410.87 908.938 1410.6 908.67 1410.6 908.338L1410.6 901.323C1410.6 900.992 1410.87 900.723 1411.2 900.723C1411.53 900.723 1411.8 900.992 1411.8 901.323L1411.8 908.338C1411.8 908.67 1411.53 908.938 1411.2 908.938ZM1411.2 894.908C1410.87 894.908 1410.6 894.639 1410.6 894.308L1410.6 890.8C1410.6 890.468 1410.87 890.2 1411.2 890.2C1411.53 890.2 1411.8 890.468 1411.8 890.8L1411.8 894.308C1411.8 894.639 1411.53 894.908 1411.2 894.908Z" fill="#211526"/>
<path fill-rule="evenodd" clip-rule="evenodd" d="M1613.4 1073.2C1613.07 1073.2 1612.8 1072.93 1612.8 1072.6L1612.8 1069.2C1612.8 1068.87 1613.07 1068.6 1613.4 1068.6C1613.73 1068.6 1614 1068.87 1614 1069.2L1614 1072.6C1614 1072.93 1613.73 1073.2 1613.4 1073.2ZM1613.4 1063C1613.07 1063 1612.8 1062.73 1612.8 1062.4L1612.8 1055.6C1612.8 1055.27 1613.07 1055 1613.4 1055C1613.73 1055 1614 1055.27 1614 1055.6L1614 1062.4C1614 1062.73 1613.73 1063 1613.4 1063ZM1613.4 1049.4C1613.07 1049.4 1612.8 1049.13 1612.8 1048.8L1612.8 1042C1612.8 1041.67 1613.07 1041.4 1613.4 1041.4C1613.73 1041.4 1614 1041.67 1614 1042L1614 1048.8C1614 1049.13 1613.73 1049.4 1613.4 1049.4ZM1613.4 1035.8C1613.07 1035.8 1612.8 1035.53 1612.8 1035.2L1612.8 1028.4C1612.8 1028.07 1613.07 1027.8 1613.4 1027.8C1613.73 1027.8 1614 1028.07 1614 1028.4L1614 1035.2C1614 1035.53 1613.73 1035.8 1613.4 1035.8ZM1613.4 1022.2C1613.07 1022.2 1612.8 1021.93 1612.8 1021.6L1612.8 1014.8C1612.8 1014.47 1613.07 1014.2 1613.4 1014.2C1613.73 1014.2 1614 1014.47 1614 1014.8L1614 1021.6C1614 1021.93 1613.73 1022.2 1613.4 1022.2ZM1613.4 1008.6C1613.07 1008.6 1612.8 1008.33 1612.8 1008L1612.8 1001.2C1612.8 1000.87 1613.07 1000.6 1613.4 1000.6C1613.73 1000.6 1614 1000.87 1614 1001.2L1614 1008C1614 1008.33 1613.73 1008.6 1613.4 1008.6ZM1613.4 995C1613.07 995 1612.8 994.732 1612.8 994.4L1612.8 987.6C1612.8 987.269 1613.07 987 1613.4 987C1613.73 987 1614 987.269 1614 987.6L1614 994.4C1614 994.732 1613.73 995 1613.4 995ZM1613.4 981.4C1613.07 981.4 1612.8 981.132 1612.8 980.8L1612.8 974C1612.8 973.669 1613.07 973.4 1613.4 973.4C1613.73 973.4 1614 973.669 1614 974L1614 980.8C1614 981.132 1613.73 981.4 1613.4 981.4ZM1613.4 967.8C1613.07 967.8 1612.8 967.532 1612.8 967.2L1612.8 960.4C1612.8 960.069 1613.07 959.8 1613.4 959.8C1613.73 959.8 1614 960.069 1614 960.4L1614 967.2C1614 967.532 1613.73 967.8 1613.4 967.8ZM1613.4 954.2C1613.07 954.2 1612.8 953.932 1612.8 953.6L1612.8 950.2C1612.8 949.869 1613.07 949.6 1613.4 949.6C1613.73 949.6 1614 949.869 1614 950.2L1614 953.6C1614 953.932 1613.73 954.2 1613.4 954.2Z" fill="#211526"/>
<path fill-rule="evenodd" clip-rule="evenodd" d="M1771.8 1073.8C1771.47 1073.8 1771.2 1073.53 1771.2 1073.2L1771.2 1069.35C1771.2 1069.02 1771.47 1068.75 1771.8 1068.75C1772.13 1068.75 1772.4 1069.02 1772.4 1069.35L1772.4 1073.2C1772.4 1073.53 1772.13 1073.8 1771.8 1073.8ZM1771.8 1062.25C1771.47 1062.25 1771.2 1061.98 1771.2 1061.65L1771.2 1053.95C1771.2 1053.62 1771.47 1053.35 1771.8 1053.35C1772.13 1053.35 1772.4 1053.62 1772.4 1053.95L1772.4 1061.65C1772.4 1061.98 1772.13 1062.25 1771.8 1062.25ZM1771.8 1046.85C1771.47 1046.85 1771.2 1046.58 1771.2 1046.25L1771.2 1038.55C1771.2 1038.22 1771.47 1037.95 1771.8 1037.95C1772.13 1037.95 1772.4 1038.22 1772.4 1038.55L1772.4 1046.25C1772.4 1046.58 1772.13 1046.85 1771.8 1046.85ZM1771.8 1031.45C1771.47 1031.45 1771.2 1031.18 1771.2 1030.85L1771.2 1023.15C1771.2 1022.82 1771.47 1022.55 1771.8 1022.55C1772.13 1022.55 1772.4 1022.82 1772.4 1023.15L1772.4 1030.85C1772.4 1031.18 1772.13 1031.45 1771.8 1031.45ZM1771.8 1016.05C1771.47 1016.05 1771.2 1015.78 1771.2 1015.45L1771.2 1007.75C1771.2 1007.42 1771.47 1007.15 1771.8 1007.15C1772.13 1007.15 1772.4 1007.42 1772.4 1007.75L1772.4 1015.45C1772.4 1015.78 1772.13 1016.05 1771.8 1016.05ZM1771.8 1000.65C1771.47 1000.65 1771.2 1000.38 1771.2 1000.05L1771.2 992.35C1771.2 992.018 1771.47 991.75 1771.8 991.75C1772.13 991.75 1772.4 992.018 1772.4 992.35L1772.4 1000.05C1772.4 1000.38 1772.13 1000.65 1771.8 1000.65ZM1771.8 985.25C1771.47 985.25 1771.2 984.981 1771.2 984.65L1771.2 980.8C1771.2 980.468 1771.47 980.2 1771.8 980.2C1772.13 980.2 1772.4 980.468 1772.4 980.8L1772.4 984.65C1772.4 984.981 1772.13 985.25 1771.8 985.25Z" fill="#211526"/>
<path d="M586.346 532.959C527.557 560.794 468.769 630.861 422.697 698.767C379.746 761.635 348.312 823.303 335.114 850.418C320.237 814.665 312.319 758.756 308 712.685C307.52 707.406 305.36 705.006 302.001 705.006C298.881 705.006 296.002 707.166 295.762 712.925C293.842 747.958 295.282 819.944 325.756 886.171C361.029 962.956 433.015 1008.07 513.88 1010.71C536.915 1011.43 553.952 1008.07 553.952 996.31C553.952 991.031 549.153 987.912 541.475 986.712C534.996 985.512 522.998 984.792 502.602 981.913C442.854 973.514 396.782 950.239 367.028 910.167C403.741 923.844 456.291 936.562 508.121 935.602C564.51 934.882 617.54 916.885 650.893 875.373C655.932 869.375 656.652 866.015 656.652 864.335C656.652 861.456 654.973 859.057 649.214 856.417C628.098 846.579 589.465 840.34 552.512 840.34C489.405 840.1 426.057 852.578 384.545 860.256C506.921 812.026 609.142 714.844 609.381 595.827C609.381 576.631 606.742 556.715 600.983 536.559C600.023 533.679 598.344 530.8 593.545 530.8C591.145 530.8 589.705 531.52 586.346 532.959Z" fill="#D1A3D9"/>
<path d="M988.159 652.419C944.068 673.295 899.976 725.845 865.423 776.776C833.209 823.926 809.634 870.178 799.735 890.514C788.578 863.699 782.639 821.767 779.399 787.214C779.039 783.254 777.42 781.455 774.9 781.455C772.561 781.455 770.401 783.074 770.221 787.393C768.781 813.668 769.861 867.658 792.717 917.328C819.172 974.917 873.161 1008.75 933.81 1010.73C951.086 1011.27 963.864 1008.75 963.864 999.933C963.864 995.973 960.264 993.634 954.506 992.734C949.647 991.834 940.648 991.294 925.351 989.135C880.54 982.836 845.987 965.379 823.671 935.325C851.205 945.583 890.618 955.121 929.49 954.401C971.782 953.861 1011.55 940.364 1036.57 909.23C1040.35 904.731 1040.89 902.211 1040.89 900.952C1040.89 898.792 1039.63 896.992 1035.31 895.013C1019.47 887.634 990.499 882.955 962.784 882.955C915.453 882.775 867.942 892.133 836.808 897.892C928.591 861.719 1005.26 788.833 1005.44 699.57C1005.44 685.173 1003.46 670.236 999.137 655.119C998.417 652.959 997.157 650.8 993.558 650.8C991.758 650.8 990.679 651.34 988.159 652.419Z" fill="#D1A3D9"/>
<path d="M1299.37 771.88C1269.98 785.797 1240.58 820.83 1217.55 854.784C1196.07 886.218 1180.36 917.052 1173.76 930.609C1166.32 912.732 1162.36 884.778 1160.2 861.742C1159.96 859.103 1158.88 857.903 1157.2 857.903C1155.64 857.903 1154.2 858.983 1154.08 861.862C1153.12 879.379 1153.84 915.372 1169.08 948.486C1186.71 986.878 1222.71 1009.43 1263.14 1010.75C1274.66 1011.11 1283.18 1009.43 1283.18 1003.55C1283.18 1000.92 1280.78 999.356 1276.94 998.756C1273.7 998.156 1267.7 997.796 1257.5 996.356C1227.63 992.157 1204.59 980.519 1189.71 960.483C1208.07 967.322 1234.35 973.681 1260.26 973.201C1288.45 972.841 1314.97 963.843 1331.65 943.087C1334.17 940.087 1334.53 938.407 1334.53 937.568C1334.53 936.128 1333.69 934.928 1330.81 933.608C1320.25 928.689 1300.93 925.57 1282.46 925.57C1250.9 925.45 1219.23 931.689 1198.47 935.528C1259.66 911.413 1310.77 862.822 1310.89 803.314C1310.89 793.715 1309.57 783.757 1306.69 773.679C1306.21 772.24 1305.37 770.8 1302.97 770.8C1301.77 770.8 1301.05 771.16 1299.37 771.88Z" fill="#D1A3D9"/>
<path d="M1519.99 891.34C1505.29 898.298 1490.59 915.815 1479.07 932.792C1468.34 948.509 1460.48 963.926 1457.18 970.704C1453.46 961.766 1451.48 947.789 1450.4 936.271C1450.28 934.951 1449.74 934.351 1448.9 934.351C1448.12 934.351 1447.4 934.891 1447.34 936.331C1446.86 945.089 1447.22 963.086 1454.84 979.643C1463.66 998.839 1481.65 1010.12 1501.87 1010.78C1507.63 1010.96 1511.89 1010.12 1511.89 1007.18C1511.89 1005.86 1510.69 1005.08 1508.77 1004.78C1507.15 1004.48 1504.15 1004.3 1499.05 1003.58C1484.11 1001.48 1472.6 995.66 1465.16 985.642C1474.34 989.061 1487.47 992.24 1500.43 992C1514.53 991.82 1527.79 987.321 1536.12 976.943C1537.38 975.443 1537.56 974.604 1537.56 974.184C1537.56 973.464 1537.14 972.864 1535.7 972.204C1530.42 969.745 1520.77 968.185 1511.53 968.185C1495.75 968.125 1479.91 971.244 1469.54 973.164C1500.13 961.106 1525.69 936.811 1525.75 907.057C1525.75 902.258 1525.09 897.279 1523.65 892.24C1523.41 891.52 1522.99 890.8 1521.79 890.8C1521.19 890.8 1520.83 890.98 1519.99 891.34Z" fill="#D1A3D9"/>
<path d="M1686.39 951.07C1679.04 954.549 1671.7 963.307 1665.94 971.796C1660.57 979.654 1656.64 987.363 1654.99 990.752C1653.13 986.283 1652.14 979.294 1651.6 973.535C1651.54 972.876 1651.27 972.576 1650.85 972.576C1650.46 972.576 1650.1 972.846 1650.07 973.565C1649.83 977.945 1650.01 986.943 1653.82 995.221C1658.23 1004.82 1667.23 1010.46 1677.33 1010.79C1680.21 1010.88 1682.34 1010.46 1682.34 1008.99C1682.34 1008.33 1681.74 1007.94 1680.78 1007.79C1679.97 1007.64 1678.47 1007.55 1675.93 1007.19C1668.46 1006.14 1662.7 1003.23 1658.98 998.221C1663.57 999.93 1670.14 1001.52 1676.62 1001.4C1683.66 1001.31 1690.29 999.061 1694.46 993.872C1695.09 993.122 1695.18 992.702 1695.18 992.492C1695.18 992.132 1694.97 991.832 1694.25 991.502C1691.61 990.272 1686.78 989.492 1682.16 989.492C1674.28 989.462 1666.36 991.022 1661.17 991.982C1676.47 985.953 1689.24 973.805 1689.27 958.928C1689.27 956.529 1688.94 954.039 1688.22 951.52C1688.1 951.16 1687.89 950.8 1687.29 950.8C1686.99 950.8 1686.81 950.89 1686.39 951.07Z" fill="#D1A3D9"/>
<path d="M1826 982.135C1822.32 983.875 1818.65 988.254 1815.77 992.498C1813.08 996.427 1811.12 1000.28 1810.29 1001.98C1809.36 999.742 1808.87 996.247 1808.6 993.368C1808.57 993.038 1808.43 992.888 1808.22 992.888C1808.03 992.888 1807.85 993.023 1807.83 993.383C1807.71 995.572 1807.8 1000.07 1809.71 1004.21C1811.91 1009.01 1816.41 1011.83 1821.47 1011.99C1822.91 1012.04 1823.97 1011.83 1823.97 1011.09C1823.97 1010.76 1823.67 1010.57 1823.19 1010.49C1822.79 1010.42 1822.04 1010.37 1820.76 1010.19C1817.03 1009.67 1814.15 1008.21 1812.29 1005.71C1814.58 1006.57 1817.87 1007.36 1821.11 1007.3C1824.63 1007.26 1827.95 1006.13 1830.03 1003.54C1830.35 1003.16 1830.39 1002.95 1830.39 1002.85C1830.39 1002.67 1830.29 1002.52 1829.93 1002.35C1828.61 1001.74 1826.19 1001.35 1823.88 1001.35C1819.94 1001.33 1815.98 1002.11 1813.38 1002.59C1821.03 999.577 1827.42 993.503 1827.44 986.064C1827.44 984.864 1827.27 983.62 1826.91 982.36C1826.85 982.18 1826.75 982 1826.45 982C1826.3 982 1826.21 982.045 1826 982.135Z" fill="#D1A3D9"/>
</svg>
