<svg width="3000" height="1500" viewBox="0 0 3000 1500" fill="none" xmlns="http://www.w3.org/2000/svg">
<rect width="3000" height="1500" fill="white"/>
<path d="M2393.59 383.149C2307.85 423.742 2222.12 525.922 2154.93 624.953C2092.3 716.635 2046.45 806.568 2027.21 846.11C2005.51 793.97 1993.96 712.436 1987.67 645.249C1986.97 637.55 1983.82 634.051 1978.92 634.051C1974.37 634.051 1970.17 637.2 1969.82 645.599C1967.02 696.689 1969.12 801.669 2013.56 898.25C2065 1010.23 2169.98 1076.02 2287.91 1079.87C2321.5 1080.91 2346.35 1076.02 2346.35 1058.87C2346.35 1051.17 2339.35 1046.62 2328.15 1044.87C2318.7 1043.12 2301.21 1042.07 2271.46 1037.87C2184.33 1025.63 2117.14 991.682 2073.75 933.243C2127.29 953.19 2203.92 971.736 2279.51 970.336C2361.74 969.286 2439.08 943.042 2487.72 882.503C2495.07 873.755 2496.12 868.856 2496.12 866.406C2496.12 862.207 2493.67 858.708 2485.27 854.858C2454.48 840.511 2398.14 831.413 2344.25 831.413C2252.21 831.063 2159.83 849.26 2099.29 860.457C2277.76 790.121 2426.83 648.398 2427.18 474.832C2427.18 446.837 2423.33 417.793 2414.93 388.398C2413.53 384.199 2411.08 380 2404.09 380C2400.59 380 2398.49 381.05 2393.59 383.149Z" fill="#D1A3D9"/>
<g filter="url(#filter0_d)">
<path d="M580.027 979.319C580.027 979.319 882.903 854.701 1024.7 910.392C886.347 1136.76 580.027 979.319 580.027 979.319Z" fill="white"/>
<path d="M829.225 1032.96C704.568 1044.57 580.453 981.565 579.215 980.907L575.809 979.165L579.331 977.694C580.995 976.998 746.017 909.619 888.012 896.422C945.097 891.158 991.306 895.261 1025.36 908.613L1027.3 909.387L1026.21 911.206C981.747 984.08 915.451 1024.99 829.225 1032.96ZM584.362 979.475C605.454 989.576 717.03 1039.77 828.915 1029.44C913.245 1021.7 978.225 981.913 1022.07 911.283C988.713 898.705 943.742 894.951 888.322 900.06C758.634 912.018 609.363 969.49 584.362 979.475Z" fill="#A083B7"/>
<path d="M580.066 979.783V978.893C582.852 978.622 860.34 951.415 903.492 945.146C951.791 938.141 995.137 901.916 995.562 901.529L996.143 902.226C995.679 902.574 952.14 938.953 903.647 946.036C860.379 952.305 582.852 979.512 580.066 979.783Z" fill="#A083B7"/>
<path d="M992.853 953.931C992.273 953.931 934.415 936.709 918.276 943.017L917.928 942.166C934.298 935.78 990.686 952.383 993.086 953.079L992.853 953.931Z" fill="#211526"/>
<path d="M922.61 1006.06C921.798 1005.56 841.338 953.932 789.749 958.692H787.814V957.802L789.71 957.608C841.725 952.81 922.378 1004.59 923.191 1005.13L922.61 1006.06Z" fill="#211526"/>
<path d="M725.156 965.31V964.42C783.982 953.041 858.018 901.84 858.753 901.336L859.256 902.072C858.328 902.575 784.176 953.854 725.156 965.31Z" fill="#A083B7"/>
<path d="M839.055 1030.44C838.203 1029.75 754.686 962.872 692.3 968.522H691.68V967.632H692.261C755.034 961.827 838.861 1028.93 839.674 1029.55L839.055 1030.44Z" fill="#211526"/>
<path d="M733.207 1027.81C732.394 1027.31 649.496 976.455 620.973 975.719V974.829C649.728 975.564 732.82 1026.53 733.633 1027.04L733.207 1027.81Z" fill="#211526"/>
<path d="M807.435 997.044C800.931 997.851 794.341 997.668 787.891 996.502L788.085 995.651C813.279 1001.38 875.317 980.17 875.937 979.822L876.246 980.634C875.743 980.828 836.345 994.373 807.435 997.044Z" fill="#211526"/>
<path d="M725.699 999.87C708.138 1001.87 690.352 1000.1 673.53 994.684L673.839 993.832C719.042 1009.62 772.876 988.259 773.418 988.259L773.766 989.111C758.272 994.746 742.117 998.362 725.699 999.87Z" fill="#211526"/>
<path d="M857.399 951.494L857.167 950.643C881.471 943.986 918.044 896.461 918.392 896.074L919.089 896.616C918.741 897.08 881.974 944.76 857.399 951.494Z" fill="#A083B7"/>
<path d="M682.005 969.644V968.793C695.86 967.399 723.957 930.749 724.228 930.362L724.964 930.904C723.686 932.413 696.247 968.212 682.005 969.644Z" fill="#A083B7"/>
<path d="M892.927 988.956V988.105C924.236 982.919 962.589 945.998 962.976 945.533L963.595 946.152C963.054 946.655 924.507 983.731 892.927 988.956Z" fill="#211526"/>
<path d="M571.977 987.137C571.977 987.137 709.366 516.413 907.052 402.593C1042.51 776.021 571.977 986.982 571.977 986.982V987.137Z" fill="white"/>
<path d="M569.229 990.349L570.274 986.672C596.361 901.536 627.586 818.059 663.776 736.701C717.726 616.224 803.643 460.064 906.162 401.045L908.02 400L908.717 401.974C939.678 487.542 941.38 571.679 913.515 652.061C891.262 716.305 850.2 778.227 791.568 836.163C691.757 934.735 573.873 988.259 572.712 988.762L569.229 990.349ZM906.124 405.186C721.557 513.55 588.386 939.263 574.802 983.886C595.236 974.133 699.536 921.964 789.13 833.609C880.271 743.551 974.393 596.215 906.124 405.186Z" fill="#A083B7"/>
<path d="M572.364 987.407L571.59 986.904C573.912 983.382 801.515 633.368 834.527 577.019C871.486 513.936 869.629 429.335 869.629 428.484H870.519C870.519 429.335 872.377 514.207 835.301 577.522C802.289 633.833 574.532 983.847 572.364 987.407Z" fill="#A083B7"/>
<path d="M845.441 557.476L844.628 557.244C852.368 532.165 924.469 481.776 927.526 479.647L928.068 480.383C927.333 480.886 853.181 532.707 845.441 557.476Z" fill="#211526"/>
<path d="M742.146 724.858L741.411 724.393C782.512 657.866 921.797 610.844 923.307 610.379L923.578 611.231C922.107 611.695 783.131 658.601 742.146 724.858Z" fill="#211526"/>
<path d="M691.061 804.196L690.287 803.77C731.968 724.239 741.295 589.636 741.372 588.436H742.262C742.185 589.829 732.819 724.51 691.061 804.196Z" fill="#A083B7"/>
<path d="M663.738 846.459L663.002 845.994C689.861 804.545 745.707 775.403 787.814 758.336C815.695 747.031 844.39 737.846 873.653 730.858V731.709C844.516 738.726 815.94 747.897 788.162 759.149C746.171 776.216 690.635 805.203 663.738 846.459Z" fill="#211526"/>
<path d="M605.918 935.664L605.26 935.083C632.931 902.187 770.166 852.688 771.675 852.185L771.946 853.036C770.476 853.54 633.473 903.116 605.918 935.664Z" fill="#211526"/>
<path d="M786.266 759.922L785.686 759.226C816.028 735.115 849.04 642.464 849.388 641.535L850.24 641.845C849.891 642.774 816.802 735.657 786.266 759.922Z" fill="#211526"/>
<path d="M677.206 891.893L676.741 891.158C737.58 852.998 763.045 770.061 763.277 769.21L764.129 769.481C763.858 770.294 738.354 853.579 677.206 891.893Z" fill="#211526"/>
<path d="M798.534 636.618L797.722 636.27C812.66 601.439 791.375 514.322 791.142 513.471L791.994 513.239C792.226 514.129 813.589 601.594 798.534 636.618Z" fill="#A083B7"/>
<path d="M655.804 858.687L655.069 858.184C666.447 840.614 649.805 773.39 649.65 772.732L650.502 772.5C651.237 775.402 667.414 840.769 655.804 858.687Z" fill="#A083B7"/>
<path d="M875.588 630.04L874.814 629.614C898.035 588.088 890.72 508.673 890.643 507.899H891.533C891.61 508.596 898.925 588.281 875.588 630.04Z" fill="#211526"/>
<path d="M570.39 987.679C570.39 987.679 752.093 532.204 959.802 437.811C1058.92 822.463 570.39 987.679 570.39 987.679Z" fill="white"/>
<path d="M567.333 990.582L568.765 987.021C602.83 904.802 641.875 824.736 685.681 747.267C750.932 632.208 851.361 485.143 959.067 436.186L961.002 435.296L961.505 437.347C984.223 525.509 977.798 609.413 942.387 686.738C914.057 748.66 867.306 806.286 803.372 858.378C694.66 946.927 572.17 988.918 571.164 989.343L567.333 990.582ZM958.603 440.288C764.516 530.656 591.289 941.431 573.525 984.66C594.772 976.92 703.561 935.123 801.205 855.553C900.551 774.629 1008.3 636.968 958.603 440.288Z" fill="#A083B7"/>
<path d="M570.662 987.95L569.965 987.408C572.597 984.08 832.631 657.441 870.867 604.498C913.671 545.246 919.902 460.838 919.941 459.987H920.831C920.831 460.838 914.522 545.517 871.564 605.001C833.405 657.983 573.371 984.66 570.662 987.95Z" fill="#A083B7"/>
<path d="M883.716 586.114L882.903 585.766C893.043 561.539 969.594 518.309 972.845 516.452L973.271 517.226C972.497 517.69 893.739 562.158 883.716 586.114Z" fill="#A083B7"/>
<path d="M764.864 742.854L764.168 742.312C811.422 680.003 954.578 646.488 956.01 646.178L956.203 647.03C954.771 647.378 811.964 680.777 764.864 742.854Z" fill="#A083B7"/>
<path d="M706.425 816.891L705.69 816.426C754.763 741.269 776.9 608.291 777.132 606.937H777.984C777.79 608.446 755.614 741.578 706.425 816.891Z" fill="#A083B7"/>
<path d="M675.155 856.404L674.458 855.823C705.11 817.122 763.471 793.514 807.088 780.511C835.912 771.925 865.344 765.534 895.133 761.392V762.244C865.386 766.407 835.994 772.798 807.204 781.362C763.897 794.327 705.729 817.973 675.155 856.404Z" fill="#A083B7"/>
<path d="M609.131 939.651L608.511 939.031C639.202 908.922 780.5 872.736 781.932 872.388L782.164 873.239C780.732 873.626 639.666 909.734 609.131 939.651Z" fill="#A083B7"/>
<path d="M805.424 781.942L804.92 781.207C837.429 759.921 879.149 670.908 879.575 670.134L880.349 670.521C879.923 671.411 838.126 760.695 805.424 781.942Z" fill="#A083B7"/>
<path d="M684.211 903.116L683.824 902.303C748.068 870.142 781.312 790.069 781.622 789.218L782.474 789.527C782.125 790.147 748.687 870.607 684.211 903.116Z" fill="#A083B7"/>
<path d="M829.379 660.382L828.605 659.956C846.833 626.789 833.83 537.97 833.83 537.08H834.681C834.836 537.854 847.723 626.983 829.379 660.382Z" fill="#A083B7"/>
<path d="M666.137 867.782L665.441 867.24C678.483 850.831 668.305 782.329 668.227 781.633H669.079C669.504 784.342 679.412 851.063 666.137 867.782Z" fill="#A083B7"/>
<path d="M906.704 661.195L906.008 660.692C933.098 621.603 933.408 541.84 933.408 541.027H934.453C934.453 541.84 933.95 621.874 906.704 661.195Z" fill="#A083B7"/>
<path d="M579.794 982.221C579.794 982.221 892.81 885.971 1028.92 954.433C870.247 1167.29 579.988 982.221 579.988 982.221H579.794Z" fill="white"/>
<path d="M822.994 1058.54C697.834 1058.54 580.027 984.467 578.827 983.732L575.615 981.642L579.253 980.52C580.956 980.017 751.474 928.08 894.088 928.08C951.405 928.08 997.033 936.4 1029.54 952.848L1031.44 953.816L1030.16 955.519C979.386 1023.87 909.607 1058.54 822.994 1058.54ZM584.091 982.765C604.177 994.762 710.644 1054.98 822.994 1054.98C907.711 1054.98 976.057 1021.39 1026.21 955.093C994.169 939.613 949.74 931.601 894.088 931.601C763.82 931.601 610.059 975.14 584.091 982.765Z" fill="#A083B7"/>
<path d="M579.794 982.647V981.757C582.581 981.757 861.424 980.209 904.885 977.887C953.61 975.333 1000.09 943.056 1000.55 943.056L1001.06 943.791C1000.59 944.101 953.881 976.339 904.963 978.932C861.424 981.06 582.62 982.647 579.794 982.647Z" fill="#A083B7"/>
<path d="M993.202 994.878C992.621 994.646 936.582 972.354 919.94 977.153L919.708 976.302C936.582 971.425 991.189 993.137 993.511 994.065L993.202 994.878Z" fill="#A083B7"/>
<path d="M918.47 1040.35C917.735 1039.77 842.422 980.945 790.523 980.945H788.588V980.094H790.523C842.77 980.094 918.238 1039.07 919.089 1039.69L918.47 1040.35Z" fill="#A083B7"/>
<path d="M725.467 981.603V980.713C785.105 974.792 863.514 930.402 864.288 930.169L864.714 930.943C863.978 931.369 785.415 975.643 725.467 981.603Z" fill="#A083B7"/>
<path d="M833.017 1056.92C832.243 1056.14 755.227 981.874 692.57 981.874H691.951V980.984H692.531C755.576 980.984 832.862 1055.52 833.636 1056.26L833.017 1056.92Z" fill="#A083B7"/>
<path d="M727.905 1044.57C727.131 1043.99 649.264 985.743 620.973 982.415V981.524C649.535 984.891 727.595 1043.45 728.369 1043.87L727.905 1044.57Z" fill="#A083B7"/>
<path d="M804.61 1020.77C798.078 1020.97 791.552 1020.17 785.26 1018.41L785.531 1017.6C810.106 1025.65 873.847 1009.85 874.544 1009.85L874.776 1010.71C874.118 1010.9 833.83 1020.77 804.61 1020.77Z" fill="#A083B7"/>
<path d="M722.951 1016.05C705.28 1016.41 687.734 1013 671.479 1006.06L671.866 1005.25C715.443 1025.18 771.018 1009.12 771.56 1008.77L771.831 1009.58C755.886 1013.85 739.456 1016.02 722.951 1016.05Z" fill="#A083B7"/>
<path d="M858.521 980.015V979.125C883.367 974.713 924.12 930.865 924.545 930.4L925.203 931.02C924.623 931.445 883.638 975.526 858.521 980.015Z" fill="#A083B7"/>
<path d="M682.238 981.95V981.06C696.17 981.06 727.518 947.042 727.828 946.693L728.486 947.313C727.17 948.706 696.557 981.873 682.238 981.95Z" fill="#A083B7"/>
<path d="M890.488 1020.57V1019.68C922.146 1017.4 963.711 984.195 964.021 983.847L964.563 984.543C964.175 984.892 922.417 1018.25 890.488 1020.57Z" fill="#A083B7"/>
<path d="M771.676 1087.99C778.023 1081.45 767.341 1080.75 737.464 1084.39C645.664 1095.15 583.046 1037.95 533.74 897.93L526 876.218L531.341 899.439C538.068 922.26 546.158 944.656 555.568 966.508C583.162 1030.44 628.055 1080.17 670.627 1092.75C707.896 1103.98 758.169 1102 771.676 1087.95V1087.99Z" fill="#AC84BB" stroke="#AC84BB" stroke-miterlimit="10"/>
</g>
<path d="M1687.18 747.879H1300V752.759H1687.18V762.638L1699.56 750.319L1687.18 738V747.879Z" fill="#211526"/>
<defs>
<filter id="filter0_d" x="485.513" y="380" width="585.926" height="780.499" filterUnits="userSpaceOnUse" color-interpolation-filters="sRGB">
<feFlood flood-opacity="0" result="BackgroundImageFix"/>
<feColorMatrix in="SourceAlpha" type="matrix" values="0 0 0 0 0 0 0 0 0 0 0 0 0 0 0 0 0 0 127 0" result="hardAlpha"/>
<feOffset dy="20"/>
<feGaussianBlur stdDeviation="20"/>
<feComposite in2="hardAlpha" operator="out"/>
<feColorMatrix type="matrix" values="0 0 0 0 0 0 0 0 0 0 0 0 0 0 0 0 0 0 0.25 0"/>
<feBlend mode="normal" in2="BackgroundImageFix" result="effect1_dropShadow"/>
<feBlend mode="normal" in="SourceGraphic" in2="effect1_dropShadow" result="shape"/>
</filter>
</defs>
</svg>
