<svg width="3000" height="1500" viewBox="0 0 3000 1500" fill="none" xmlns="http://www.w3.org/2000/svg">
<rect width="3000" height="1500" fill="#211526"/>
<path d="M2231.68 1003H2237.38L2221.66 961.66H2215.9L2200.18 1003H2205.88L2209.9 992.38H2227.66L2231.68 1003ZM2211.7 987.58L2218.78 968.86L2225.86 987.58H2211.7ZM2264.74 980.98C2268.64 979.48 2269.96 975.82 2269.96 972.22C2269.96 965.74 2265.64 961.66 2258.8 961.66H2243.26V1003H2260.12C2267.68 1003 2272.18 997.3 2272.18 991.36C2272.18 986.86 2269.6 982.06 2264.74 980.98ZM2258.74 966.7C2262.52 966.7 2264.5 969.22 2264.5 972.76C2264.5 976.3 2262.64 978.88 2258.92 978.88H2248.72V966.7H2258.74ZM2258.98 997.96H2248.72V983.68H2259.28C2264.32 983.68 2266.72 987.16 2266.72 990.88C2266.72 994.72 2264.08 997.96 2258.98 997.96ZM2299.17 1003.6C2305.53 1003.6 2311.05 1000.9 2314.71 996.58L2310.75 993.22C2307.99 996.46 2303.79 998.56 2299.17 998.56C2290.47 998.56 2283.63 991.24 2283.63 982.42C2283.63 973.54 2290.47 966.28 2299.17 966.28C2303.79 966.28 2307.99 968.38 2310.75 971.62L2314.71 968.26C2311.05 963.94 2305.53 961.24 2299.17 961.24C2287.47 961.24 2278.17 970.72 2278.17 982.42C2278.17 994.12 2287.47 1003.6 2299.17 1003.6ZM2322.48 1003H2338.5C2350.26 1003 2357.16 994.12 2357.16 982.42C2357.16 970.66 2350.26 961.66 2338.5 961.66H2322.48V1003ZM2327.94 997.96V966.7H2338.5C2347.2 966.7 2351.7 973.6 2351.7 982.42C2351.7 991.24 2347.2 997.96 2338.5 997.96H2327.94ZM2371.41 997.96V985.24H2387.97V980.14H2371.41V966.7H2390.37V961.66H2366.01V1003H2390.97V997.96H2371.41ZM2423.88 966.7V961.66H2399.82V1003H2405.28V985.24H2420.04V980.14H2405.28V966.7H2423.88ZM2448.76 1003.6C2460.52 1003.6 2468.32 996.76 2468.32 982.3H2450.32V987.04H2462.32C2462.32 987.4 2462.26 987.76 2462.2 988.06C2461.36 994.48 2455.9 998.56 2448.76 998.56C2440.06 998.56 2433.34 991.3 2433.34 982.42C2433.34 973.54 2440.06 966.22 2448.76 966.22C2452.66 966.22 2456.26 967.78 2458.9 970.12L2462.68 966.58C2459.08 963.28 2454.22 961.18 2448.76 961.18C2437 961.18 2427.88 970.66 2427.88 982.42C2427.88 994.12 2437 1003.6 2448.76 1003.6ZM2501.68 961.66V979.96H2481.4V961.66H2475.94V1003H2481.4V984.94H2501.68V1003H2507.14V961.66H2501.68ZM2518.59 1003H2524.05V961.66H2518.59V1003ZM2528.69 1016.98C2537.99 1016.98 2541.47 1010.8 2541.47 1003.6V961.66H2536.01V1003.6C2536.01 1007.98 2534.03 1011.7 2528.69 1011.7C2528.21 1011.7 2525.75 1011.52 2524.85 1011.22L2524.31 1016.32C2525.69 1016.62 2527.61 1016.98 2528.69 1016.98ZM2582.15 1003L2562.89 982.36L2578.85 961.66H2572.19L2558.33 979.72V961.66H2552.93V1003H2558.33V985.3L2574.89 1003H2582.15ZM2587.21 1003H2609.59V997.96H2592.67V961.66H2587.21V1003ZM2663.72 1003L2658.62 961.66H2653.7L2639 992.32L2624.24 961.66H2619.32L2614.28 1003H2619.62L2623.4 971.5L2636.66 998.5H2641.4L2654.54 971.5L2658.38 1003H2663.72ZM2697.17 961.66V993.04L2678.21 961.66H2672.81V1003H2678.27V971.5L2697.35 1003H2702.63V961.66H2697.17ZM2732.12 1003.6C2743.94 1003.6 2753.12 994.12 2753.12 982.42C2753.12 970.66 2743.94 961.18 2732.12 961.18C2720.36 961.18 2711.24 970.66 2711.24 982.42C2711.24 994.12 2720.36 1003.6 2732.12 1003.6ZM2732.12 998.56C2723.42 998.56 2716.7 991.24 2716.7 982.42C2716.7 973.54 2723.42 966.22 2732.12 966.22C2740.94 966.22 2747.66 973.54 2747.66 982.42C2747.66 991.24 2740.94 998.56 2732.12 998.56ZM2222.2 1033.66H2205.76V1075H2211.22V1059.46H2222.2C2230.96 1059.46 2234.5 1053.1 2234.5 1046.56C2234.5 1040.14 2230.96 1033.66 2222.2 1033.66ZM2221.84 1054.36H2211.22V1038.7H2222.14C2227.06 1038.7 2229.04 1042.72 2229.04 1046.56C2229.04 1050.52 2227 1054.36 2221.84 1054.36ZM2281.38 1054.42C2281.38 1042.66 2272.2 1033.18 2260.38 1033.18C2248.62 1033.18 2239.5 1042.66 2239.5 1054.42C2239.5 1066.12 2248.62 1075.6 2260.38 1075.6C2262.72 1075.6 2265 1075.24 2267.04 1074.52L2271.66 1081.9L2275.86 1079.32L2271.54 1072.42C2277.48 1068.7 2281.38 1062.04 2281.38 1054.42ZM2260.38 1070.56C2251.68 1070.56 2244.96 1063.24 2244.96 1054.42C2244.96 1045.54 2251.68 1038.22 2260.38 1038.22C2269.2 1038.22 2275.92 1045.54 2275.92 1054.42C2275.92 1060.12 2273.16 1065.16 2268.78 1068.04L2263.98 1060.36L2259.84 1062.94L2264.28 1070.08C2263.02 1070.38 2261.76 1070.56 2260.38 1070.56ZM2311.74 1075H2318.28L2307.3 1059.34C2315.1 1058.56 2318.1 1052.56 2318.1 1046.56C2318.1 1040.14 2314.62 1033.66 2305.62 1033.66H2290.08V1075H2295.54V1059.4H2300.94L2311.74 1075ZM2295.54 1038.7H2305.74C2309.94 1038.7 2312.64 1041.94 2312.64 1046.56C2312.64 1051.24 2310.24 1054.42 2304.18 1054.42H2295.54V1038.7ZM2339.05 1075.6C2347.63 1075.6 2352.85 1069.78 2352.85 1063.36C2352.85 1057.48 2348.65 1053.64 2341.63 1051.9L2336.23 1050.58C2330.71 1049.26 2330.23 1046.26 2330.23 1044.82C2330.23 1040.74 2334.07 1038.22 2338.21 1038.22C2342.65 1038.22 2346.07 1041.04 2346.07 1045.18H2351.47C2351.47 1037.8 2345.65 1033.18 2338.39 1033.18C2331.19 1033.18 2324.77 1037.74 2324.77 1044.88C2324.77 1048.24 2326.15 1053.4 2334.91 1055.5L2340.25 1056.82C2343.73 1057.72 2347.39 1059.52 2347.39 1063.54C2347.39 1067.2 2344.45 1070.56 2339.05 1070.56C2333.53 1070.56 2330.05 1066.84 2329.87 1063.18H2324.47C2324.53 1069.6 2330.35 1075.6 2339.05 1075.6ZM2386.84 1033.66H2356.18V1038.7H2368.78V1075H2374.24V1038.7H2386.84V1033.66ZM2408.37 1075.6C2416.53 1075.6 2423.43 1070.2 2423.43 1060.84V1033.66H2417.97V1060.84C2417.97 1067.32 2413.53 1070.38 2408.37 1070.38C2403.21 1070.38 2398.77 1067.32 2398.77 1060.84V1033.66H2393.31V1060.84C2393.31 1070.2 2400.21 1075.6 2408.37 1075.6ZM2454.79 1033.66L2445.31 1065.88L2435.83 1033.66H2430.19L2442.73 1075H2447.95L2460.37 1033.66H2454.79ZM2509.37 1033.66L2498.87 1066.24L2491.13 1039.3H2486.99L2479.31 1066.36L2468.75 1033.66H2462.93L2476.91 1075H2481.65L2489.03 1048.9L2496.47 1075H2501.21L2515.19 1033.66H2509.37ZM2552.11 1075L2537.59 1052.8L2550.49 1033.66H2544.01L2534.35 1048.36L2524.75 1033.66H2518.27L2531.11 1052.74L2516.65 1075H2523.13L2534.35 1057.24L2545.57 1075H2552.11ZM2583.4 1033.66L2571.34 1050.58L2559.34 1033.66H2552.86L2568.58 1055.92V1075H2574.04V1055.92L2589.94 1033.66H2583.4ZM2621.26 1033.66H2593.24V1038.7H2614.42L2592.46 1070.32V1075H2621.26V1069.96H2599.18L2621.26 1038.34V1033.66ZM2639.1 1035.28L2625.72 1041.28V1046.32L2634.06 1042.9V1075H2639.28V1035.28H2639.1ZM2656.84 1069.96L2667.64 1057C2670.22 1053.94 2672.2 1049.92 2672.2 1046.86C2672.2 1039.9 2667.28 1035.28 2659.9 1035.28C2653.18 1035.28 2648.5 1039.24 2647.72 1045.18L2652.4 1046.2C2652.7 1042.66 2655.64 1040.26 2659.9 1040.26C2664.16 1040.26 2666.98 1042.9 2666.98 1046.86C2666.98 1048.66 2665.3 1051.84 2662.84 1054.84L2648.08 1072.66V1075H2672.74V1069.96H2656.84ZM2697.26 1053.94C2700.32 1052.5 2702.18 1049.44 2702.18 1045.72C2702.18 1039.42 2697.62 1035.28 2690.78 1035.28C2686.34 1035.28 2682.08 1037.56 2680.1 1040.98L2683.7 1043.98C2685.2 1041.7 2687.96 1040.26 2690.66 1040.26C2694.44 1040.26 2696.96 1042.48 2696.96 1045.84C2696.96 1049.38 2694.26 1051.84 2690.12 1051.84H2686.4V1056.34H2690.48C2695.34 1056.34 2698.82 1059.28 2698.82 1063.72C2698.82 1067.86 2695.22 1070.62 2690.3 1070.62C2686.94 1070.62 2683.88 1068.46 2682.14 1064.92L2677.82 1067.38C2680.16 1072.48 2684.96 1075.54 2690.48 1075.54C2698.46 1075.54 2704.1 1070.74 2704.1 1063.54C2704.1 1058.92 2701.34 1055.26 2697.26 1053.94ZM2738.81 1061.98H2733.23V1035.76H2732.33L2707.97 1065.76V1066.9H2728.01V1075H2733.23V1066.9H2738.81V1061.98ZM2716.73 1061.98L2728.01 1048.48V1061.98H2716.73ZM2226.7 1118.98V1123.36C2224.84 1120.06 2220.88 1118.38 2216.68 1118.38C2209 1118.38 2202.7 1124.08 2202.7 1132.96C2202.7 1141.78 2209.06 1147.6 2216.74 1147.6C2220.76 1147.6 2224.84 1145.8 2226.7 1142.56V1147H2231.92V1118.98H2226.7ZM2217.16 1142.68C2212.06 1142.68 2207.98 1138.48 2207.98 1132.9C2207.98 1127.26 2212.06 1123.3 2217.16 1123.3C2221.78 1123.3 2226.7 1126.84 2226.7 1132.9C2226.7 1138.9 2222.2 1142.68 2217.16 1142.68ZM2256.3 1118.38C2252.1 1118.38 2248.14 1120.06 2246.28 1123.36V1103.68H2241.06V1147H2246.28V1142.56C2248.14 1145.8 2252.22 1147.6 2256.24 1147.6C2263.92 1147.6 2270.28 1141.78 2270.28 1132.96C2270.28 1124.08 2263.98 1118.38 2256.3 1118.38ZM2255.76 1142.68C2250.78 1142.68 2246.28 1138.9 2246.28 1132.9C2246.28 1126.84 2251.2 1123.3 2255.76 1123.3C2260.92 1123.3 2265 1127.26 2265 1132.9C2265 1138.48 2260.92 1142.68 2255.76 1142.68ZM2290.65 1147.54C2295.03 1147.54 2298.87 1145.86 2301.33 1143.1L2298.03 1139.68C2296.29 1141.48 2293.77 1142.62 2290.83 1142.62C2285.31 1142.62 2280.87 1138.72 2280.87 1132.96C2280.87 1127.2 2285.31 1123.3 2290.83 1123.3C2293.77 1123.3 2296.29 1124.44 2298.03 1126.24L2301.33 1122.82C2298.87 1120.12 2295.03 1118.38 2290.65 1118.38C2282.61 1118.38 2275.59 1124.08 2275.59 1132.96C2275.59 1141.84 2282.61 1147.54 2290.65 1147.54ZM2329.36 1103.68V1123.36C2327.5 1120.06 2323.54 1118.38 2319.34 1118.38C2311.66 1118.38 2305.36 1124.08 2305.36 1132.96C2305.36 1141.78 2311.72 1147.6 2319.4 1147.6C2323.42 1147.6 2327.5 1145.8 2329.36 1142.56V1147H2334.58V1103.68H2329.36ZM2319.82 1142.68C2314.72 1142.68 2310.64 1138.48 2310.64 1132.9C2310.64 1127.26 2314.72 1123.3 2319.82 1123.3C2324.44 1123.3 2329.36 1126.84 2329.36 1132.9C2329.36 1138.9 2324.86 1142.68 2319.82 1142.68ZM2370.12 1132.9C2370.12 1124.02 2364.18 1118.38 2356.2 1118.38C2348.22 1118.38 2341.8 1124.02 2341.8 1132.9C2341.8 1141.78 2348.22 1147.6 2356.2 1147.6C2361.6 1147.6 2366.64 1145.08 2369.1 1140.22L2364.54 1138.42C2362.98 1141.24 2359.8 1142.68 2356.38 1142.68C2351.58 1142.68 2347.98 1140.22 2347.2 1135.24H2370C2370.06 1134.46 2370.12 1133.68 2370.12 1132.9ZM2347.26 1130.74C2348.1 1125.7 2351.46 1123.3 2356.2 1123.3C2360.82 1123.3 2364.24 1125.94 2364.9 1130.74H2347.26ZM2390.51 1108.6H2392.61V1103.68H2389.61C2382.11 1103.68 2379.05 1108.72 2379.05 1116.04V1118.98H2373.65V1123.48H2379.05V1147H2384.27V1123.48H2390.81V1118.98H2384.27V1115.32C2384.21 1111.66 2385.53 1108.6 2390.51 1108.6ZM2418.07 1118.98V1123.36C2416.21 1120.12 2412.25 1118.38 2408.05 1118.38C2400.37 1118.38 2394.07 1124.08 2394.07 1132.96C2394.07 1141.78 2400.43 1147.6 2408.11 1147.6C2412.13 1147.6 2416.21 1145.8 2418.07 1142.56V1143.1C2418.07 1152.58 2414.23 1156.06 2408.05 1156.06C2404.93 1156.06 2401.63 1154.32 2399.89 1151.14L2395.45 1153.48C2398.21 1158.4 2402.95 1160.98 2408.05 1160.98C2417.29 1160.98 2423.29 1156 2423.29 1142.74V1118.98H2418.07ZM2408.53 1142.68C2403.43 1142.68 2399.35 1138.48 2399.35 1132.9C2399.35 1127.26 2403.43 1123.3 2408.53 1123.3C2413.15 1123.3 2418.07 1126.84 2418.07 1132.9C2418.07 1138.9 2413.57 1142.68 2408.53 1142.68ZM2446.95 1118.38C2443.89 1118.38 2439.33 1119.82 2437.65 1123.24V1103.68H2432.43V1147H2437.65V1131.82C2437.65 1125.76 2442.33 1123.54 2446.23 1123.54C2450.13 1123.54 2453.01 1126.42 2453.01 1131.1V1147H2458.23V1130.8C2458.29 1122.94 2453.91 1118.38 2446.95 1118.38ZM2469.52 1112.14C2471.56 1112.14 2473.24 1110.64 2473.24 1108.66C2473.24 1106.68 2471.56 1105.18 2469.52 1105.18C2467.54 1105.18 2465.86 1106.68 2465.86 1108.66C2465.86 1110.64 2467.54 1112.14 2469.52 1112.14ZM2466.94 1147H2472.16V1118.98H2466.94V1147ZM2484.3 1112.14C2486.34 1112.14 2488.02 1110.64 2488.02 1108.66C2488.02 1106.68 2486.34 1105.18 2484.3 1105.18C2482.32 1105.18 2480.64 1106.68 2480.64 1108.66C2480.64 1110.64 2482.32 1112.14 2484.3 1112.14ZM2473.32 1160.62H2476.92C2484.48 1160.62 2486.94 1155.58 2486.94 1148.62V1118.98H2481.72V1148.56C2481.78 1151.86 2481.12 1155.7 2476.5 1155.7H2473.32V1160.62ZM2521.15 1147L2506.21 1131.1L2518.21 1118.98H2510.95L2501.23 1128.88V1103.68H2496.01V1147H2501.23V1133.32L2514.13 1147H2521.15ZM2525.19 1147H2530.41V1103.68H2525.19V1147ZM2572.72 1118.38C2569.9 1118.38 2565.46 1119.22 2562.94 1124.2C2561.32 1120.48 2557.78 1118.38 2553.7 1118.38C2549.74 1118.38 2546.14 1120.24 2544.7 1123.24V1118.98H2539.48V1147H2544.7V1131.82C2544.7 1125.88 2548.66 1123.42 2552.62 1123.42C2556.34 1123.42 2558.92 1126.36 2558.92 1131.1V1147H2564.14V1132.72L2564.2 1132.96C2563.72 1127.56 2566.72 1123.36 2571.7 1123.42C2575.78 1123.42 2578.36 1126.42 2578.36 1131.1V1147H2583.58V1130.8C2583.58 1122.94 2579.74 1118.38 2572.72 1118.38ZM2606.79 1118.38C2603.73 1118.38 2599.17 1119.82 2597.49 1123.24V1118.98H2592.27V1147H2597.49V1131.82C2597.49 1125.76 2602.17 1123.54 2606.07 1123.54C2609.97 1123.54 2612.85 1126.42 2612.85 1131.1V1147H2618.07V1130.8C2618.13 1122.94 2613.75 1118.38 2606.79 1118.38ZM2639.51 1147.6C2647.49 1147.6 2654.21 1141.78 2654.21 1132.9C2654.21 1124.02 2647.49 1118.38 2639.51 1118.38C2631.53 1118.38 2624.87 1124.02 2624.87 1132.9C2624.87 1141.78 2631.53 1147.6 2639.51 1147.6ZM2639.51 1142.68C2634.41 1142.68 2630.15 1138.72 2630.15 1132.9C2630.15 1127.14 2634.41 1123.3 2639.51 1123.3C2644.67 1123.3 2648.99 1127.14 2648.99 1132.9C2648.99 1138.72 2644.67 1142.68 2639.51 1142.68ZM2219.74 1190.38C2215.72 1190.38 2211.64 1192.18 2209.78 1195.42V1190.98H2204.56V1232.62H2209.78V1214.62C2211.64 1217.92 2215.6 1219.6 2219.8 1219.6C2227.48 1219.6 2233.78 1213.9 2233.78 1205.02C2233.78 1196.2 2227.42 1190.38 2219.74 1190.38ZM2219.26 1214.68C2214.7 1214.68 2209.78 1211.14 2209.78 1205.08C2209.78 1199.08 2214.28 1195.3 2219.26 1195.3C2224.42 1195.3 2228.5 1199.5 2228.5 1205.08C2228.5 1210.72 2224.42 1214.68 2219.26 1214.68ZM2263.2 1190.98V1195.42C2261.34 1192.18 2257.26 1190.38 2253.24 1190.38C2245.56 1190.38 2239.2 1196.2 2239.2 1205.02C2239.2 1213.9 2245.5 1219.6 2253.18 1219.6C2257.38 1219.6 2261.34 1217.92 2263.2 1214.62V1232.62H2268.42V1190.98H2263.2ZM2253.66 1214.68C2248.56 1214.68 2244.48 1210.72 2244.48 1205.08C2244.48 1199.5 2248.56 1195.3 2253.66 1195.3C2258.7 1195.3 2263.2 1199.08 2263.2 1205.08C2263.2 1211.14 2258.28 1214.68 2253.66 1214.68ZM2290.71 1190.38C2286.99 1190.38 2284.29 1192.42 2282.85 1197.34V1190.98H2277.57V1219H2282.85V1208.74C2282.85 1201.36 2285.07 1195.42 2290.65 1195.42C2291.73 1195.42 2293.23 1195.66 2294.73 1196.38L2295.57 1191.46C2294.73 1190.92 2292.69 1190.38 2290.71 1190.38ZM2308.64 1219.6C2314.46 1219.6 2319.5 1216.42 2319.5 1211.2C2319.5 1208.02 2318 1204.54 2312.18 1203.1L2308.04 1202.08C2306.24 1201.66 2304.44 1200.64 2304.44 1198.72C2304.44 1196.56 2306.24 1194.94 2308.94 1194.94C2311.16 1194.94 2313.38 1196.38 2313.44 1198.54H2318.48C2318.48 1192.9 2313.56 1190.38 2308.82 1190.38C2303.18 1190.38 2299.22 1193.92 2299.22 1198.54C2299.22 1203.04 2301.92 1205.32 2306.6 1206.58L2310.44 1207.48C2312.66 1207.96 2314.28 1209.04 2314.28 1211.14C2314.28 1213.42 2312.18 1215.04 2308.64 1215.04C2305.22 1215.04 2303.12 1213.06 2303.06 1210.66H2298.2C2298.44 1216.42 2303.6 1219.6 2308.64 1219.6ZM2339.99 1190.98H2333.93V1180.36H2328.71V1190.98H2323.67V1195.48H2328.71V1219H2333.93V1195.48H2339.99V1190.98ZM2366.05 1190.98V1206.16C2365.99 1212.22 2361.31 1214.44 2357.41 1214.44C2353.51 1214.44 2350.69 1211.56 2350.69 1206.88V1190.98H2345.47V1207.18C2345.41 1215.04 2349.73 1219.6 2356.75 1219.6C2359.87 1219.6 2364.37 1218.1 2366.05 1214.62V1219H2371.27V1190.98H2366.05ZM2399.48 1190.98L2390.9 1212.34L2382.26 1190.98H2376.68L2388.32 1219H2393.42L2405.12 1190.98H2399.48ZM2446.22 1190.98L2439.08 1210.9L2431.88 1190.98H2426.78L2419.64 1210.9L2412.5 1190.98H2406.86L2417.54 1219H2421.86L2429.3 1198.18L2437.04 1219H2441.42L2451.86 1190.98H2446.22ZM2481.63 1219L2470.59 1203.64L2479.71 1190.98H2473.35L2467.47 1199.32L2461.59 1190.98H2455.29L2464.35 1203.58L2453.25 1219H2459.49L2467.47 1208.02L2475.39 1219H2481.63ZM2505.89 1190.98L2497.31 1211.62L2488.85 1190.98H2483.21L2494.43 1218.22L2488.61 1232.62H2494.13L2511.53 1190.98H2505.89ZM2539.3 1190.98H2515.6V1195.9H2531.68L2514.7 1214.68V1219H2539.3V1214.08H2522.02L2539.3 1195.3V1190.98ZM2550.23 1207.06H2555.33L2555.39 1204.66C2555.39 1201.78 2557.19 1200.94 2559.71 1200.16C2564.39 1198.72 2568.41 1194.64 2568.41 1188.88C2568.41 1181.68 2563.13 1177.18 2556.65 1177.18C2550.29 1177.18 2544.35 1181.98 2544.29 1189.6H2549.27C2549.51 1184.74 2553.05 1182.1 2556.65 1182.1C2560.37 1182.1 2563.19 1184.5 2563.19 1188.88C2563.19 1192.12 2560.91 1194.22 2558.21 1195.24L2556.17 1195.96C2552.63 1197.28 2550.05 1199.26 2550.23 1204.66V1207.06ZM2552.75 1219.54C2554.85 1219.54 2556.59 1217.98 2556.59 1215.88C2556.59 1213.78 2554.85 1212.22 2552.75 1212.22C2550.65 1212.22 2548.91 1213.78 2548.91 1215.88C2548.91 1217.98 2550.65 1219.54 2552.75 1219.54ZM2576.31 1207.06H2580.45L2580.99 1177.66H2575.77L2576.31 1207.06ZM2578.29 1219.6C2580.39 1219.6 2582.19 1218.04 2582.19 1215.94C2582.19 1213.84 2580.39 1212.28 2578.29 1212.28C2576.25 1212.28 2574.51 1213.84 2574.51 1215.94C2574.51 1218.04 2576.25 1219.6 2578.29 1219.6ZM2621.35 1214.74C2616.91 1214.74 2616.13 1210.66 2616.13 1206.34V1198.42H2621.35V1194.22H2616.13V1189.18H2610.85V1194.16H2603.53C2598.61 1194.16 2596.57 1190.92 2596.57 1187.86C2596.57 1184.5 2598.97 1182.22 2602.57 1182.22C2605.09 1182.22 2607.01 1183.36 2608.27 1185.46L2612.59 1182.82C2610.55 1179.34 2606.95 1177.18 2602.57 1177.18C2596.03 1177.18 2591.47 1182.04 2591.47 1187.56C2591.47 1191.1 2593.33 1194.22 2595.73 1195.9C2591.89 1198.18 2589.19 1201.84 2589.19 1206.52C2589.19 1213.66 2594.71 1219.6 2602.69 1219.6C2606.83 1219.6 2610.85 1217.98 2612.95 1214.98C2613.79 1217.74 2617.33 1219.54 2621.29 1219.6H2622.37V1214.74H2621.35ZM2602.63 1214.56C2597.59 1214.56 2594.29 1210.96 2594.29 1206.34C2594.29 1202.02 2597.29 1198.42 2603.95 1198.42H2610.85V1206.76C2610.67 1211.14 2607.49 1214.56 2602.63 1214.56Z" fill="#FAF1E8"/>
<path d="M2211.04 401.56H2222.2L2226.16 413.44C2227.06 416.26 2226.1 417.34 2223.7 417.52L2221.78 417.64L2221.6 418H2237.32L2237.14 417.64L2235.46 417.52C2232.7 417.34 2232.04 416.38 2230.48 411.7L2219.56 379.84H2219.02C2218.36 381.28 2217.46 382.42 2215.96 382.96L2216.56 384.64L2209.12 405.34C2205.16 416.32 2204.56 417.04 2200.9 417.52L2199.94 417.64L2199.76 418H2212.78L2212.6 417.64L2211.34 417.52C2205.82 417.04 2205.94 416.26 2208.16 409.66L2211.04 401.56ZM2221.96 400.96H2211.28L2216.8 385.6H2216.86C2217.88 388.48 2218.72 391.06 2219.44 393.28L2221.96 400.96ZM2251.9 397L2248.96 397.06V381.22H2252.08C2258.38 381.22 2261.56 383.86 2261.56 389.08C2261.56 393.58 2258.38 396.82 2251.9 397ZM2253.16 417.46L2248.96 416.38V397.84C2249.92 397.66 2251.36 397.66 2252.74 397.66C2259.28 397.66 2263.78 402.04 2263.78 407.92C2263.78 412.48 2261.08 416.98 2254.48 417.28C2254.66 417.28 2254.36 417.28 2253.94 417.34C2253.76 417.4 2253.46 417.4 2253.16 417.46ZM2239.12 417.64L2238.94 418H2253.4C2263.48 418 2269 413.8 2269 407.62C2269 402.16 2264.5 397.72 2255.56 397.24V397.06C2264.08 395.8 2266.9 392.56 2266.9 388.48C2266.9 383.92 2262.88 380.5 2253.22 380.5H2239L2239.18 380.86L2240.68 381.04C2243.8 381.28 2244.16 381.46 2244.16 381.88V416.44C2244.16 416.86 2243.38 417.22 2241.28 417.4L2239.12 417.64ZM2293.63 418.9C2297.95 418.9 2302.87 417.52 2305.09 416.38L2307.13 415.96L2309.29 406.84H2308.93L2307.43 409.36C2304.25 414.94 2300.83 418.24 2293.81 418.24C2284.69 418.24 2278.09 410.44 2278.09 398.92C2278.09 388.54 2283.85 380.2 2293.93 380.2C2297.77 380.2 2301.01 381.28 2302.63 382.54L2307.61 391.66H2307.97L2307.49 380.62L2304.25 382.18C2302.03 380.98 2298.13 379.54 2293.99 379.54C2281.33 379.54 2272.81 387.88 2272.81 399.4C2272.81 411.16 2281.51 418.9 2293.63 418.9ZM2327.41 417.34L2322.91 416.26V381.04H2326.81C2338.63 381.04 2343.85 389.56 2343.85 399.82C2343.85 408.82 2338.45 417.16 2327.41 417.34ZM2313.07 417.64L2312.89 418H2325.97C2340.61 418 2349.01 409.72 2349.01 398.44C2349.01 387.58 2341.57 380.14 2327.71 380.32L2312.95 380.5L2313.13 380.86L2314.63 381.04C2317.75 381.28 2318.11 381.46 2318.11 381.88V416.44C2318.11 416.86 2317.33 417.22 2315.23 417.4L2313.07 417.64ZM2352.03 417.64L2351.85 418H2380.77L2383.23 406.66L2382.87 406.6L2382.51 407.44C2380.23 412.96 2377.83 417.22 2370.69 417.4L2361.99 417.16V398.68L2366.43 398.8C2372.37 398.98 2373.45 399.46 2373.75 403.72L2373.81 404.5L2374.17 404.56L2375.37 392.44L2375.01 392.38L2374.71 393.22C2373.57 397.18 2372.25 397.78 2366.85 398.08H2361.99V381.04H2369.73C2375.91 381.04 2377.89 384.1 2380.11 390.34L2380.47 391.18H2380.77L2379.63 380.5H2351.91L2352.09 380.86L2353.71 381.04C2356.83 381.28 2357.19 381.46 2357.19 381.88V416.44C2357.19 416.86 2356.29 417.22 2354.19 417.4L2352.03 417.64ZM2386.66 417.64L2386.48 418H2403.22L2403.04 417.58L2400.1 417.4C2396.98 417.22 2396.62 416.98 2396.62 416.56V399.04L2400.46 399.16C2406.4 399.34 2407.48 399.82 2407.78 404.08L2407.84 404.86L2408.2 404.92L2409.4 392.86L2409.04 392.8L2408.74 393.58C2407.6 397.54 2406.28 398.14 2400.88 398.44H2396.62V381.04H2403.94C2411.32 381.04 2413 384.64 2415.1 390.7L2415.4 391.48L2415.76 391.42L2414.56 380.5H2386.54L2386.72 380.86L2388.46 381.04C2391.58 381.28 2391.82 381.46 2391.82 381.88V416.44C2391.82 416.86 2391.16 417.22 2389.06 417.4L2386.66 417.64ZM2439.93 418.84C2444.91 418.84 2452.17 416.8 2456.67 415.18L2456.61 414.94L2453.25 415.3V403.24C2453.25 402.82 2454.03 402.46 2456.13 402.28L2458.29 402.04L2458.47 401.68H2442.45L2442.63 402.04L2444.97 402.22C2448.09 402.4 2448.63 402.64 2448.63 403.06V416.08C2447.01 417.34 2443.65 418.18 2440.53 418.18C2431.65 418.18 2424.63 410.56 2424.63 399.1C2424.63 388.66 2430.45 380.2 2440.35 380.2C2444.43 380.2 2447.43 381.28 2449.05 382.54L2453.61 391.54H2453.97L2453.73 380.62L2450.67 382.06C2448.51 380.86 2444.67 379.54 2440.53 379.54C2427.87 379.54 2419.35 388.06 2419.35 399.58C2419.35 411.22 2427.99 418.84 2439.93 418.84ZM2460.49 417.64L2460.31 418H2475.73L2475.55 417.64L2473.81 417.46C2470.69 417.22 2470.33 417.04 2470.33 416.62V399.22H2490.55V416.44C2490.55 416.86 2489.77 417.22 2487.67 417.4L2485.27 417.64L2485.09 418H2500.51L2500.33 417.64L2498.83 417.46C2495.71 417.22 2495.35 417.04 2495.35 416.62V382.06C2495.35 381.64 2496.13 381.28 2498.23 381.1L2500.39 380.86L2500.57 380.5H2485.15L2485.33 380.86L2487.07 381.04C2490.19 381.28 2490.55 381.46 2490.55 381.88V398.62H2470.33V382.06C2470.33 381.64 2471.11 381.28 2473.21 381.1L2475.61 380.86L2475.79 380.5H2460.37L2460.55 380.86L2462.05 381.04C2465.17 381.28 2465.53 381.46 2465.53 381.88V416.44C2465.53 416.86 2464.75 417.22 2462.65 417.4L2460.49 417.64ZM2503.97 417.64L2503.79 418H2519.45L2519.27 417.64L2517.53 417.46C2514.41 417.22 2514.05 417.04 2514.05 416.62V382.06C2514.05 381.64 2514.83 381.28 2516.93 381.1L2519.33 380.86L2519.51 380.5H2503.85L2504.03 380.86L2505.77 381.04C2508.89 381.28 2509.25 381.46 2509.25 381.88V416.44C2509.25 416.86 2508.47 417.22 2506.37 417.4L2503.97 417.64ZM2521.93 427.96C2527.39 427.96 2532.79 419.74 2532.79 417.4V382.06C2532.79 381.64 2533.57 381.28 2535.67 381.1L2538.07 380.86L2538.25 380.5H2522.59L2522.77 380.86L2524.51 381.04C2527.63 381.22 2527.99 381.46 2527.99 381.88V416.44C2527.99 423.88 2525.71 427.54 2522.35 427.12C2524.57 425.2 2523.55 421.6 2520.55 421.6C2518.69 421.6 2517.43 422.98 2517.43 424.66C2517.43 426.64 2519.29 427.96 2521.93 427.96ZM2541.05 417.64L2540.87 418H2556.59L2556.41 417.64L2554.37 417.46C2551.25 417.22 2550.89 417.04 2550.89 416.62V402.94L2557.01 396.82L2566.31 412.54C2568.17 415.84 2568.29 417.34 2565.47 417.52L2563.73 417.64L2563.55 418H2578.85L2578.67 417.64L2577.29 417.52C2574.71 417.22 2574.53 417.16 2571.89 412.9L2560.19 393.58L2561.09 392.68C2572.19 381.34 2571.59 381.4 2576.21 380.92L2576.93 380.86L2577.11 380.5H2562.47L2562.59 380.86L2564.93 381.04C2570.39 381.52 2570.39 382.3 2560.73 392.14L2550.89 402.1V382.06C2550.89 381.64 2551.67 381.28 2553.77 381.1L2556.47 380.86L2556.65 380.5H2540.93L2541.11 380.86L2542.73 381.04C2545.85 381.28 2546.09 381.46 2546.09 381.88V416.44C2546.09 416.86 2545.43 417.22 2543.33 417.4L2541.05 417.64ZM2580.55 417.64L2580.37 418H2607.49L2609.83 406.36H2609.47L2609.11 407.14C2606.59 413.2 2604.61 417.46 2597.47 417.46L2590.39 417.16V382.06C2590.39 381.64 2591.17 381.28 2593.27 381.1L2596.87 380.86L2597.05 380.5H2580.43L2580.61 380.86L2582.23 381.04C2585.35 381.28 2585.59 381.46 2585.59 381.88V416.44C2585.59 416.86 2584.93 417.22 2582.83 417.4L2580.55 417.64ZM2612.83 417.64L2612.65 418H2626.45L2626.27 417.64L2625.19 417.58C2620.93 417.4 2619.37 416.5 2619.37 415.6L2619.97 382.6C2620.27 383.02 2620.75 383.74 2621.05 384.64L2633.95 418H2634.37L2648.35 383.08H2648.41L2649.07 416.44C2649.07 416.86 2648.59 417.22 2646.61 417.4L2643.73 417.64L2643.55 418H2659.09L2658.91 417.64L2657.17 417.46C2654.23 417.16 2653.81 417.04 2653.81 416.62L2653.21 382.06C2653.21 381.64 2653.87 381.28 2655.85 381.1L2658.85 380.86L2659.03 380.5H2648.71L2636.29 411.52H2636.23L2624.35 380.5H2613.85L2614.03 380.86L2615.65 380.98C2617.27 381.16 2618.71 381.34 2619.49 381.88L2618.65 415.48C2618.65 416.62 2617.57 417.34 2614.21 417.58L2612.83 417.64ZM2668.11 384.4L2694.81 418.3H2695.23L2695.35 383.02C2695.35 381.88 2697.03 381.22 2699.61 380.98L2700.81 380.86L2700.99 380.5H2688.39L2688.57 380.86L2689.71 380.98C2693.37 381.4 2694.69 382 2694.69 382.9L2694.75 410.5H2694.69L2671.11 380.44H2661.03L2661.21 380.8L2661.99 380.92C2665.17 381.4 2666.67 382.9 2667.57 383.86L2667.45 415.42C2667.45 416.56 2665.77 417.28 2663.19 417.52L2661.99 417.64L2661.81 418H2674.41L2674.23 417.64L2673.09 417.52C2669.43 417.22 2668.11 416.44 2668.11 415.54L2668.05 384.4H2668.11ZM2722.99 418.18C2714.35 418.18 2708.29 410.5 2708.29 399.4C2708.29 387.64 2713.93 380.2 2722.69 380.2C2731.15 380.2 2737.39 388.06 2737.39 399.22C2737.39 410.92 2731.87 418.18 2722.99 418.18ZM2722.75 418.84C2733.37 418.84 2742.67 409.66 2742.67 399.28C2742.67 387.64 2734.21 379.6 2722.87 379.6C2712.31 379.6 2703.01 389.02 2703.01 399.34C2703.01 410.86 2711.47 418.84 2722.75 418.84ZM2216.68 471.16C2214.1 471.16 2212.72 470.92 2211.46 470.5V453.1L2215.72 453.04C2223.16 452.86 2225.8 456.28 2225.8 462.16C2225.8 467.92 2222.44 471.16 2216.68 471.16ZM2200.78 489.64L2200.6 490H2218.06L2217.88 489.64L2214.94 489.46C2211.82 489.28 2211.46 489.04 2211.46 488.62V471.4C2212.72 471.58 2214.82 471.82 2216.68 471.82C2225.08 471.82 2230.9 467.56 2230.9 461.44C2230.9 455.74 2226.46 452.5 2217.34 452.5H2200.66L2200.84 452.86L2203.18 453.04C2206.3 453.28 2206.66 453.46 2206.66 453.88V488.44C2206.66 488.86 2205.88 489.22 2203.78 489.4L2200.78 489.64ZM2254.53 490.18C2245.89 490.18 2239.83 482.5 2239.83 471.4C2239.83 459.7 2245.47 452.2 2254.23 452.2C2262.69 452.2 2268.93 460.18 2268.93 471.22C2268.93 482.92 2263.41 490.18 2254.53 490.18ZM2270.31 500.74C2272.23 500.74 2275.77 500.26 2277.27 499.78L2277.15 499.42C2268.81 500.38 2263.53 499.3 2259.69 490C2267.85 487.6 2274.21 479.86 2274.21 471.28C2274.21 459.7 2265.75 451.6 2254.41 451.6C2243.85 451.6 2234.55 461.02 2234.55 471.34C2234.55 482.62 2242.83 490.66 2254.05 490.84C2257.41 499.48 2264.19 500.74 2270.31 500.74ZM2292.68 470.68C2290.7 470.68 2289.2 470.38 2287.28 469.72V453.22L2290.28 453.1C2297.54 452.8 2301.32 456.4 2301.32 461.98C2301.32 467.5 2297.96 470.68 2292.68 470.68ZM2276.6 489.64L2276.42 490H2293.28L2293.1 489.64L2290.76 489.46C2289.38 489.28 2287.28 489.1 2287.28 488.62V470.26C2288.9 470.8 2290.46 471.28 2292.08 471.46L2303.12 489.22L2303.54 490H2313.38L2313.14 489.64L2312.36 489.58C2309.54 489.4 2308.22 488.5 2305.82 484.84L2297.06 471.46C2302.34 470.32 2306.42 466.66 2306.42 462.1C2306.42 455.86 2301.32 452.5 2291.9 452.5H2276.48L2276.66 452.86L2279 453.04C2282.12 453.28 2282.48 453.46 2282.48 453.88V488.44C2282.48 488.86 2280.8 489.22 2279.6 489.4L2276.6 489.64ZM2326.19 490.84C2333.87 490.84 2339.33 485.14 2339.33 479.08C2339.33 472.6 2334.47 469.66 2328.35 467.56C2323.37 465.82 2319.65 463.9 2319.65 459.28C2319.65 455.2 2322.83 452.2 2327.27 452.2C2329.97 452.2 2331.71 453.1 2333.33 454.3L2337.29 461.5H2337.65L2337.11 452.32L2334.71 453.04C2332.73 452.32 2330.27 451.66 2327.33 451.66C2320.37 451.66 2316.05 456.46 2316.05 461.86C2316.05 467.68 2320.67 470.32 2325.95 472.06C2331.89 473.98 2335.31 476.5 2335.31 481.48C2335.31 486.52 2331.65 490.24 2326.25 490.24C2321.45 490.24 2318.09 488.2 2315.99 483.16L2314.73 480.22H2314.37L2314.97 488.74C2318.27 489.88 2322.65 490.84 2326.19 490.84ZM2350.72 489.64L2350.54 490H2367.4L2367.22 489.64L2364.88 489.46C2361.76 489.22 2361.4 489.04 2361.4 488.62V453.04H2365.18C2369.92 453.28 2372.62 455.74 2375.26 461.68L2375.62 462.46H2375.98L2374.18 452.5H2344.36L2341.9 462.46H2342.32L2342.74 461.68C2344.96 457.42 2348.14 453.34 2352.76 453.04H2356.6V488.44C2356.6 488.86 2355.82 489.22 2353.72 489.4L2350.72 489.64ZM2398.95 490.84C2408.49 490.84 2412.51 485.14 2412.57 475.24L2412.63 455.02C2412.63 453.88 2414.19 453.16 2416.77 452.92L2417.97 452.8L2418.15 452.44H2405.25L2405.43 452.8L2406.57 452.92C2410.23 453.34 2411.97 454 2411.97 454.9L2412.03 475.06C2412.03 484.48 2408.07 488.86 2400.81 488.86C2392.71 488.86 2389.11 485.02 2389.11 476.32V454.06C2389.11 453.64 2389.89 453.22 2391.99 453.04L2394.99 452.8L2395.17 452.44H2378.31L2378.49 452.8L2380.83 452.98C2383.95 453.22 2384.31 453.46 2384.31 453.88V477.1C2384.31 486.94 2388.63 490.84 2398.95 490.84ZM2423.98 458.74L2436.28 490.84H2436.7L2446.84 463.24C2450.2 453.94 2450.86 453.4 2454.34 452.92L2455.3 452.8L2455.48 452.44H2442.52L2442.7 452.8L2443.96 452.92C2449.48 453.58 2449.3 454.24 2447.08 460.78L2438.5 484.18H2438.44L2427.88 456.4C2426.86 453.52 2427.7 453.04 2430.34 452.86L2432.44 452.8L2432.62 452.44H2417.02L2417.2 452.8L2418.94 452.92C2421.94 453.1 2422.06 453.82 2423.98 458.74ZM2460.08 458.74L2472.02 490.84H2472.62L2483.42 463.48H2483.48L2493.74 490.84H2494.28L2504.3 463.24C2507.48 454.12 2507.96 453.46 2511.44 452.98L2512.4 452.86L2512.58 452.5H2499.62L2499.8 452.86L2501.06 452.98C2506.58 453.46 2506.76 454.78 2504.36 461.14L2496.02 484.42H2495.9L2485.58 456.4C2484.56 453.58 2485.34 453.1 2487.98 452.92L2489.84 452.86L2490.02 452.5H2474.48L2474.66 452.86L2476.34 452.98C2479.34 453.16 2479.88 454.18 2481.62 458.74L2483.12 462.76L2474.48 484.54H2474.36L2464.1 456.4C2463.08 453.52 2464.1 452.98 2466.56 452.92L2468.48 452.86L2468.66 452.5H2453.06L2453.18 452.86L2454.92 452.98C2457.86 453.16 2458.34 454.06 2460.08 458.74ZM2508.84 489.64L2508.66 490H2522.82L2522.64 489.64L2520.96 489.46C2516.82 488.98 2516.04 488.02 2520.06 481.9C2521.2 480.1 2522.28 478.54 2523.24 477.16C2524.86 474.76 2526.42 472.48 2526.42 472.48H2526.48L2535.48 486.16C2536.98 488.5 2536.62 489.52 2533.92 489.58L2531.64 489.64L2531.46 490H2547.12L2546.94 489.64L2545.32 489.52C2542.86 489.34 2542.44 488.32 2540.52 485.44C2538.42 482.32 2536.62 479.56 2535 477.1C2533.62 475 2532.24 473.02 2531.22 471.4C2530.62 470.5 2530.08 469.6 2529.54 468.82L2535.18 460.48C2539.5 453.94 2540.7 453.1 2544.42 452.92L2545.5 452.86L2545.68 452.5H2531.52L2531.7 452.86L2533.38 453.04C2537.58 453.52 2538.48 454.12 2534.52 460.3L2529.18 468.28H2529.12L2522.46 458.08C2519.88 453.88 2520.12 452.86 2522.88 452.86L2525.22 452.8L2525.34 452.5H2509.56L2509.8 452.86L2511.48 452.98C2513.94 453.16 2514.54 454.48 2517.42 458.8L2526.12 471.88L2519.46 481.72C2514.96 488.14 2513.82 489.28 2509.92 489.58L2508.84 489.64ZM2557.19 489.64L2557.01 490H2573.87L2573.69 489.64L2571.35 489.46C2568.23 489.22 2567.87 489.04 2567.87 488.62V472.3L2574.05 460.72C2577.53 453.88 2578.73 453.16 2581.73 452.98L2583.05 452.86L2583.23 452.5H2570.03L2570.21 452.86L2571.71 452.98C2576.45 453.46 2576.33 454.84 2573.21 460.96L2567.57 471.64H2567.45L2559.29 457.18C2557.55 454 2557.61 453.1 2560.79 452.92L2562.59 452.86L2562.77 452.5H2546.93L2547.11 452.86L2548.79 452.98C2551.49 453.16 2552.45 454.3 2554.19 457.48L2563.07 473.14V488.44C2563.07 488.86 2562.29 489.22 2560.19 489.4L2557.19 489.64ZM2585.77 489.82V490H2614.27L2616.19 477.82H2615.71L2615.35 478.66C2612.95 485.32 2610.55 489.46 2602.27 489.46L2591.59 489.34V489.22L2615.35 452.74V452.5H2588.17L2586.91 463.3H2587.27L2587.57 462.58C2589.61 457 2592.31 453.04 2599.75 453.04H2609.59V453.22L2585.77 489.82ZM2621.43 489.58L2621.25 490H2635.29L2635.11 489.58L2633.31 489.52C2630.49 489.34 2630.07 489.16 2630.07 488.68V461.26L2619.99 462.7L2619.81 463L2626.05 463.84V488.56C2626.05 489.28 2625.39 489.46 2623.47 489.52L2621.43 489.58ZM2638.19 489.52L2638.37 490H2659.91L2662.37 478.9L2661.95 478.84L2661.71 479.44C2659.85 484.24 2658.47 486.34 2657.51 486.34L2643.05 486.28V486.22C2652.83 478.06 2657.81 473.74 2657.81 468.28C2657.81 464.2 2654.45 461.02 2650.07 461.02C2645.45 461.02 2641.91 464.38 2639.21 469.48L2639.63 469.72C2641.97 465.64 2644.19 464.08 2647.73 464.08C2651.33 464.08 2653.85 466.66 2653.85 470.68C2653.85 475.72 2651.15 478.96 2638.19 489.52ZM2669.79 502.06C2678.37 502.06 2684.73 495.64 2684.73 488.92C2684.73 483.1 2680.71 478.42 2673.57 478.72V478.66C2677.71 476.14 2682.03 473.26 2682.03 468.52C2682.03 464.44 2678.61 461.02 2674.11 461.02C2669.37 461.02 2666.01 464.08 2663.43 469.36L2663.85 469.6C2665.77 465.76 2668.35 464.14 2671.77 464.14C2675.61 464.14 2678.13 466.72 2678.13 470.62C2678.13 475.6 2674.05 477.82 2666.67 482.62L2666.91 482.98C2668.35 482.44 2670.09 481.84 2671.95 481.84C2677.71 481.84 2681.01 485.74 2681.01 491.2C2681.01 497.68 2676.33 501.1 2671.83 501.1C2671.29 501.1 2670.57 501.04 2670.03 500.86C2669.73 500.8 2669.37 500.68 2669.07 500.56C2669.61 497.62 2668.11 495.16 2665.77 495.16C2664.15 495.16 2663.07 496.3 2663.07 497.92C2663.07 499.9 2665.17 502.06 2669.79 502.06ZM2702.29 486.1H2689.75L2702.23 467.32H2702.29V486.1ZM2702.29 489.4V501.04H2706.25V489.4H2712.25L2713.45 486.16L2706.25 486.1V461.62H2705.29L2686.87 489.22V489.4H2702.29ZM2209.96 560.08C2207.62 560.08 2205.88 558.34 2205.88 555.64C2205.88 552.7 2207.2 550.18 2215.72 548.08L2215.36 557.62C2213.74 559.24 2211.94 560.08 2209.96 560.08ZM2219.08 562.6C2221.6 562.6 2223.28 560.02 2224.36 558.76L2224.06 558.58C2223.16 559.48 2222.32 560.2 2221.36 560.2C2219.98 560.2 2219.2 559.48 2219.38 557.5L2219.98 544.54C2220.28 537.58 2217.76 535.78 2212.78 535.78C2208.22 535.78 2201.32 539.32 2201.32 542.38C2201.32 543.82 2202.4 544.72 2203.9 544.72C2205.52 544.72 2206.48 543.58 2206.48 542.38C2206.48 540.76 2204.98 539.8 2204.98 539.38C2204.98 538.66 2207.56 537.16 2209.96 537.16C2213.08 537.16 2216.08 538.84 2215.78 544.84L2215.72 547.48C2204.5 550.18 2201.62 553.06 2201.62 556.96C2201.62 560.02 2204.02 562.54 2207.62 562.54C2210.44 562.54 2212.96 560.5 2215.3 558.34V558.4C2215.48 560.98 2216.98 562.6 2219.08 562.6ZM2238.49 562.06C2235.13 562.06 2232.13 559.6 2230.75 556.54V542.32C2232.61 540.4 2234.77 538.78 2237.71 538.78C2242.81 538.78 2246.17 543.76 2246.17 550.06C2246.17 556.78 2243.35 562.06 2238.49 562.06ZM2226.61 527.44V563.14H2226.97L2229.79 560.68H2229.85C2231.71 561.7 2234.77 562.78 2237.89 562.78C2244.01 562.78 2250.91 557.5 2250.91 548.56C2250.91 541.18 2246.29 536.14 2240.29 536.14C2236.39 536.14 2233.45 538.54 2230.87 541.42L2230.75 541.3V521.56L2222.83 523.54L2222.77 523.84L2224.15 524.08C2226.25 524.38 2226.61 525.1 2226.61 527.44ZM2265.05 562.78C2269.91 562.78 2273.09 559.9 2275.73 555.16L2275.25 554.98C2273.03 558.58 2270.81 559.78 2267.15 559.78C2261.87 559.78 2257.73 555.1 2257.73 547.96C2257.73 541.12 2261.81 536.26 2266.61 536.26C2268.83 536.26 2270.93 537.88 2270.93 538.66C2270.93 539.14 2269.73 539.74 2269.73 541.66C2269.73 543.04 2270.81 544.18 2272.43 544.18C2273.81 544.18 2275.13 542.92 2275.13 541.3C2275.13 537.94 2271.35 535.78 2266.49 535.78C2258.63 535.78 2253.17 542.08 2253.17 549.88C2253.17 557.08 2258.33 562.78 2265.05 562.78ZM2290.57 560.08C2285.47 560.08 2282.11 554.92 2282.11 548.68C2282.11 541.84 2285.05 536.8 2289.85 536.8C2293.15 536.8 2296.09 539.2 2297.47 542.26V556.54C2295.73 558.46 2293.69 560.08 2290.57 560.08ZM2297.47 557.56L2297.53 562.96L2305.45 561.28L2305.51 560.98L2303.17 560.62C2301.91 560.44 2301.67 560.08 2301.67 558.7V521.56L2293.15 523.54L2293.09 523.84L2295.07 524.08C2297.17 524.32 2297.47 525.1 2297.47 527.44V537.7H2297.41C2295.49 536.68 2293.51 536.14 2290.69 536.14C2284.21 536.14 2277.37 541.24 2277.37 550.18C2277.37 557.62 2281.99 562.78 2287.99 562.78C2291.89 562.78 2294.77 560.44 2297.35 557.5L2297.47 557.56ZM2323.78 544.12L2311.24 544.24C2312.2 539.98 2315.26 536.38 2318.56 536.38C2322.22 536.38 2323.78 540.04 2323.78 544.12ZM2318.26 562.78C2323.12 562.78 2326.36 559.9 2329.06 555.16L2328.64 554.98C2326.3 558.58 2323.96 559.78 2320.3 559.78C2315.02 559.78 2310.88 555.1 2310.88 548.02C2310.88 547.12 2310.94 545.68 2311.12 544.78L2328.34 544.84C2328.4 544.42 2328.46 544.3 2328.46 544C2328.46 539.44 2325.04 535.78 2318.98 535.78C2311.36 535.78 2306.32 542.2 2306.32 549.88C2306.32 557.08 2311.48 562.78 2318.26 562.78ZM2331.4 561.64L2331.22 562H2344.12L2343.94 561.64L2341.96 561.58C2339.32 561.52 2339.14 561.28 2339.14 560.8V538.84H2344.84L2345.68 536.68H2339.14V533.92C2339.14 528.4 2339.8 524.62 2342.86 523.48L2343.64 523.6L2343.76 524.02C2344.18 525.88 2345.56 527.32 2347.18 527.32C2348.62 527.32 2349.76 526.18 2349.76 524.98C2349.76 523.54 2348.62 522.28 2346.04 522.28C2341.24 522.28 2335.78 526.18 2335 535.12L2334.88 536.68H2331.4L2330.56 538.78L2334.94 538.84V560.74C2334.94 561.46 2334.28 561.4 2332.42 561.58L2331.4 561.64ZM2357.67 552.76C2354.37 552.76 2352.21 549.52 2352.21 544.3C2352.21 539.56 2354.55 536.38 2357.67 536.38C2361.69 536.38 2363.37 539.98 2363.37 545.08C2363.37 549.7 2360.85 552.76 2357.67 552.76ZM2358.33 575.8C2352.87 575.8 2349.15 573.1 2349.15 569.32C2349.15 566.44 2351.79 563.92 2353.83 563.14C2355.57 562.96 2358.81 562.78 2360.49 562.78C2365.95 562.96 2368.17 564.94 2368.17 568.12C2368.17 572.38 2363.67 575.8 2358.33 575.8ZM2355.57 576.88C2364.51 576.88 2370.75 571.78 2370.75 565.24C2370.75 561.1 2367.51 558.64 2361.93 558.64C2359.77 558.64 2356.83 558.82 2355.21 558.82C2351.67 558.82 2350.17 558.16 2350.17 556.24C2350.17 554.56 2351.79 553.24 2354.13 552.82C2354.79 553 2356.23 553.24 2357.49 553.24C2363.19 553.24 2367.63 549.46 2367.63 544.42C2367.63 542.32 2366.49 540.28 2365.11 539.02L2365.17 538.84L2370.81 539.38L2371.29 536.8L2364.27 538.12C2362.53 536.74 2360.31 535.9 2357.73 535.9C2352.21 535.9 2347.83 539.8 2347.83 544.9C2347.83 548.62 2350.47 551.5 2353.35 552.46V552.58C2350.17 553.06 2346.45 555.58 2346.45 558.64C2346.45 561.04 2349.03 562.48 2353.11 562.9V563.02C2350.05 564.16 2345.85 566.98 2345.85 570.4C2345.85 574.48 2349.57 576.88 2355.57 576.88ZM2371.93 561.64L2371.75 562H2383.69L2383.51 561.64L2382.67 561.58C2379.97 561.4 2379.61 561.28 2379.61 560.8V549.76V541.96C2381.53 540.1 2383.93 538.84 2386.81 538.84C2390.29 538.84 2392.03 540.58 2392.03 544.12V560.68C2392.03 561.16 2391.67 561.4 2389.51 561.58L2388.43 561.64L2388.25 562H2400.25L2400.07 561.64L2399.23 561.58C2396.23 561.4 2396.23 561.04 2396.23 560.74V543.28C2396.23 540.76 2395.57 538.84 2394.31 537.52C2393.17 536.38 2391.73 535.84 2389.87 535.84C2385.49 535.84 2382.13 539.32 2379.67 541.24L2379.61 541.12V521.62L2371.69 523.6L2371.63 523.84L2373.01 524.08C2375.11 524.5 2375.41 525.1 2375.41 527.5V560.68C2375.41 561.4 2374.81 561.4 2372.95 561.58L2371.93 561.64ZM2406.45 530.5C2408.55 530.5 2409.39 528.76 2409.39 527.56C2409.39 526.36 2408.55 524.56 2406.45 524.56C2404.35 524.56 2403.45 526.36 2403.45 527.56C2403.45 528.76 2404.35 530.5 2406.45 530.5ZM2401.29 561.64L2401.11 562H2413.11L2412.93 561.64L2412.09 561.58C2409.45 561.4 2409.09 561.28 2409.09 560.8V535.96L2401.11 538.06L2401.05 538.3L2402.43 538.54C2404.53 538.84 2404.89 539.56 2404.89 543.22V560.68C2404.89 561.4 2404.23 561.4 2402.37 561.58L2401.29 561.64ZM2419.16 530.5C2421.26 530.5 2422.1 528.76 2422.1 527.56C2422.1 526.36 2421.26 524.56 2419.16 524.56C2417.06 524.56 2416.16 526.36 2416.16 527.56C2416.16 528.76 2417.06 530.5 2419.16 530.5ZM2412.44 576.94C2417.06 576.94 2421.8 570.16 2421.8 563.68V535.96L2413.82 538.06L2413.76 538.3L2415.14 538.54C2417.24 538.84 2417.6 539.56 2417.6 543.22V567.64C2417.6 572.26 2416.76 575.08 2414.6 575.56C2414.06 573.1 2412.62 571.54 2410.88 571.54C2409.5 571.54 2408.3 572.5 2408.3 574C2408.3 575.62 2409.62 576.94 2412.44 576.94ZM2426.12 561.64L2425.94 562H2437.82L2437.64 561.64L2436.8 561.58C2434.16 561.4 2433.8 561.28 2433.8 560.8V551.08L2436.62 548.38L2444.3 561.28L2444.6 562H2452.94L2452.76 561.64L2452.1 561.58C2449.52 561.28 2449.22 560.86 2447.24 557.68L2439.74 545.32L2439.92 545.14C2440.1 544.96 2440.1 544.9 2440.28 544.72L2440.88 544.12C2445.62 539.38 2447.06 537.34 2449.82 537.16L2451.08 537.04L2451.26 536.68H2439.92L2440.04 537.04L2440.82 537.1C2442.92 537.28 2444 537.82 2444 538.78C2444 539.92 2442.08 542.2 2439.74 544.54L2433.8 550.36V521.62L2425.88 523.6L2425.82 523.84L2427.2 524.08C2429.3 524.38 2429.6 525.1 2429.6 527.5V560.68C2429.6 561.4 2429 561.4 2427.14 561.58L2426.12 561.64ZM2453.79 561.64L2453.67 562H2465.55L2465.37 561.64L2464.53 561.58C2461.83 561.4 2461.53 561.28 2461.53 560.8V521.62L2453.61 523.6L2453.55 523.84L2454.87 524.08C2456.97 524.56 2457.33 525.1 2457.33 528.82V560.68C2457.33 561.4 2456.67 561.4 2454.81 561.58L2453.79 561.64ZM2466.8 561.64L2466.62 562H2478.62L2478.44 561.64L2477.6 561.58C2474.96 561.4 2474.6 561.28 2474.6 560.8V549.52V541.66C2476.34 540.04 2478.38 538.84 2481.02 538.84C2484.56 538.84 2486 540.52 2486 544.12V560.68C2486 561.16 2485.7 561.4 2483.6 561.58L2482.52 561.64L2482.34 562H2494.22L2494.04 561.64L2493.2 561.58C2490.2 561.28 2490.2 561.1 2490.2 560.74V542.14L2490.32 541.84C2491.1 540.22 2493.98 538.84 2496.56 538.84C2500.16 538.84 2501.6 540.52 2501.6 544.12V560.68C2501.6 561.16 2501.24 561.4 2499.14 561.58L2498.06 561.64L2497.88 562H2509.82L2509.64 561.64L2508.86 561.58C2505.86 561.28 2505.86 561.1 2505.86 560.74V543.46C2505.86 541.12 2505.26 538.9 2504 537.64C2502.8 536.44 2501.42 535.84 2499.32 535.84C2495.18 535.84 2492.06 538.96 2490.02 541.18L2489.96 541.12C2489.78 539.62 2489.12 538.42 2488.4 537.64C2487.26 536.5 2485.82 535.84 2483.72 535.84C2479.58 535.84 2476.52 539.08 2474.54 541.06L2474.42 541L2474.66 535.96L2466.62 538.06L2466.56 538.3L2467.94 538.54C2470.04 538.84 2470.4 539.62 2470.4 543.28V560.68C2470.4 561.4 2469.74 561.4 2467.88 561.58L2466.8 561.64ZM2510.86 561.64L2510.68 562H2522.68L2522.5 561.64L2521.66 561.58C2519.02 561.4 2518.66 561.28 2518.66 560.8V549.76V541.96C2520.58 540.1 2522.98 538.84 2525.8 538.84C2529.34 538.84 2531.08 540.58 2531.08 544.12V560.68C2531.08 561.16 2530.72 561.4 2528.62 561.58L2527.54 561.64L2527.36 562H2539.3L2539.12 561.64L2538.28 561.58C2535.28 561.28 2535.28 561.1 2535.28 560.74V543.34C2535.28 540.76 2534.62 538.78 2533.36 537.52C2532.28 536.38 2530.78 535.84 2528.86 535.84C2524.6 535.84 2521.06 539.26 2518.72 541.24L2518.54 541.12L2518.72 535.96L2510.68 538.06L2510.62 538.3L2512 538.54C2514.1 538.84 2514.46 539.62 2514.46 543.28V560.68C2514.46 561.4 2513.8 561.4 2511.94 561.58L2510.86 561.64ZM2554.02 562.3C2552.04 562.3 2550.3 561.58 2548.92 560.2C2546.58 557.86 2545.5 553.6 2545.5 548.62C2545.5 542.14 2548.68 536.26 2553.84 536.26C2556 536.26 2557.62 537.22 2559 538.48C2561.34 540.82 2562.3 545.08 2562.3 549.7C2562.3 556.42 2559 562.3 2554.02 562.3ZM2553.96 562.78C2561.52 562.78 2567.34 556.84 2567.34 549.16C2567.34 541.6 2561.58 535.78 2553.96 535.78C2546.28 535.78 2540.52 541.9 2540.52 549.4C2540.52 556.96 2546.28 562.78 2553.96 562.78ZM2215.54 634.06C2212.18 634.06 2209.18 631.6 2207.8 628.78V614.32C2209.54 612.4 2211.76 610.78 2214.7 610.78C2219.92 610.78 2223.16 615.76 2223.16 622.06C2223.16 628.78 2220.34 634.06 2215.54 634.06ZM2200 648.82L2199.82 649.18H2213.02L2212.84 648.82L2210.8 648.76C2208.1 648.7 2207.8 648.46 2207.8 648.04V633.22H2207.86C2209.54 634 2211.88 634.78 2214.94 634.78C2221 634.78 2227.9 629.5 2227.9 620.56C2227.9 613.18 2223.28 608.14 2217.28 608.14C2213.38 608.14 2210.38 610.54 2207.92 613.42L2207.8 613.3L2207.86 607.96L2199.82 610.06L2199.76 610.3L2201.14 610.54C2203.24 610.84 2203.6 611.56 2203.6 615.22V647.92C2203.6 648.58 2202.94 648.58 2201.08 648.76L2200 648.82ZM2243.4 632.08C2238.3 632.08 2234.94 626.8 2234.94 620.56C2234.94 613.78 2237.88 608.8 2242.68 608.8C2245.98 608.8 2248.92 611.32 2250.3 614.44V628.54C2248.56 630.46 2246.52 632.08 2243.4 632.08ZM2245.32 648.82L2245.14 649.18H2258.28L2258.1 648.82L2257.02 648.76C2255.16 648.58 2254.5 648.58 2254.5 647.92V607.48H2254.14L2251.44 610.36H2251.38C2249.4 609.1 2246.58 608.14 2243.52 608.14C2237.04 608.14 2230.2 613.24 2230.2 622.18C2230.2 629.62 2234.82 634.78 2240.82 634.78C2244.72 634.78 2247.6 632.44 2250.18 629.5L2250.3 629.56V648.04C2250.3 648.46 2250 648.7 2247.3 648.76L2245.32 648.82ZM2258.67 633.64L2258.49 634H2271.39L2271.21 633.64L2269.29 633.58C2266.65 633.52 2266.47 633.28 2266.47 632.8V619.6C2268.15 613.42 2269.41 610.78 2271.99 610.24C2272.17 612.82 2273.61 613.9 2275.11 613.9C2276.97 613.9 2277.99 612.34 2277.99 610.9C2277.99 609.28 2276.55 607.84 2274.45 607.84C2270.61 607.84 2268.03 611.68 2266.41 617.92H2266.35L2266.53 607.96L2258.49 610.06L2258.43 610.3L2259.81 610.54C2261.91 610.84 2262.27 611.62 2262.27 615.28V632.68C2262.27 633.4 2261.61 633.4 2259.75 633.58L2258.67 633.64ZM2288.06 634.78C2294 634.78 2297.84 631 2297.84 626.62C2297.84 621.52 2294.06 620.02 2290.04 618.58C2286.38 617.32 2283.98 616.06 2283.98 613C2283.98 610.18 2285.72 608.38 2289.02 608.38C2290.94 608.38 2292.26 609.34 2293.16 610.06L2296.22 614.98L2296.58 614.92L2296.28 608.26L2294.36 608.92C2292.8 608.2 2291.06 607.84 2289.08 607.84C2284.46 607.84 2280.68 610.9 2280.68 615.22C2280.68 619.66 2284.34 621.52 2287.64 622.6C2291.9 623.98 2294.3 625.66 2294.3 628.96C2294.3 632.02 2292.02 634.24 2288.42 634.24C2285.54 634.24 2283.02 632.32 2281.4 628.96L2280.14 626.26L2279.78 626.32L2280.44 633.4C2282.66 634.3 2285 634.78 2288.06 634.78ZM2308.99 634.78C2312.11 634.78 2314.51 632.56 2316.91 630.16L2316.61 629.98C2315.23 631.12 2313.79 632.32 2311.45 632.32C2309.11 632.32 2307.55 631.06 2307.61 628.48L2308.03 610.72H2315.77L2316.61 608.62H2308.03L2308.09 603.28L2306.35 603.22L2302.99 608.38L2299.51 609.52L2299.09 610.78L2303.77 610.84L2303.41 628.96C2303.41 633.46 2306.05 634.78 2308.99 634.78ZM2337.47 629.5L2337.35 634.96L2345.33 632.86L2345.39 632.56L2343.05 632.2C2341.79 632.02 2341.55 631.66 2341.55 630.28V608.62H2333.27L2333.45 608.98L2334.29 609.04C2336.75 609.22 2337.29 609.64 2337.29 612.1V621.94V628.9C2335.43 630.58 2333.27 631.78 2330.45 631.78C2326.91 631.78 2325.11 630.04 2325.11 626.5V608.62H2316.83L2317.01 608.98L2317.85 609.04C2320.91 609.22 2320.91 609.52 2320.91 609.82V627.28C2320.91 629.74 2321.33 631.66 2322.71 633.04C2323.85 634.18 2325.41 634.78 2327.39 634.78C2331.65 634.78 2335.19 631.54 2337.41 629.5H2337.47ZM2349.34 612.82L2358.28 634.6H2358.88L2365.9 616.54C2368.48 610.12 2368.78 609.28 2371.54 609.1L2372.14 609.04L2372.32 608.68H2362.3L2362.48 609.04L2363.32 609.1C2367.28 609.4 2367.7 610.18 2365.48 615.88L2360.62 628.48L2354.02 612.22C2353.12 610 2353.36 609.28 2355.7 609.1L2356.72 609.04L2356.84 608.68H2344.66L2344.84 609.04L2345.98 609.1C2347.84 609.28 2348.02 609.58 2349.34 612.82ZM2374.48 613.48L2382.64 634.6H2383.3L2391.16 616.06L2399.2 634.6H2399.86L2406.1 616.72C2408.32 610.3 2408.8 609.28 2411.5 609.1L2412.04 609.04L2412.22 608.68H2402.26L2402.44 609.04L2403.22 609.1C2407.36 609.4 2407.48 610.72 2405.62 616.18L2401.24 628.72L2394.16 611.98C2393.38 609.88 2393.56 609.28 2395.9 609.1L2396.92 609.04L2397.04 608.68H2384.86L2385.1 609.04L2386.06 609.1C2388.04 609.28 2388.52 609.58 2389.66 612.52L2390.8 615.4L2385.16 628.6L2378.8 611.98C2377.9 609.76 2378.38 609.28 2380.78 609.1L2381.74 609.04L2381.92 608.68H2369.62L2369.74 609.04L2370.82 609.1C2372.8 609.28 2373.04 609.64 2374.48 613.48ZM2410.77 633.64L2410.59 634H2420.49L2420.31 633.64L2418.63 633.52C2416.47 633.34 2416.47 632.08 2418.15 629.5L2422.41 622.9H2422.47L2427.45 630.22C2428.89 632.2 2428.71 633.34 2426.85 633.52L2425.71 633.64L2425.53 634H2437.65L2437.47 633.64L2436.63 633.58C2435.01 633.4 2434.23 632.38 2432.61 630.04L2425.29 619.42L2428.83 614.26C2431.41 610.42 2432.85 609.34 2434.71 609.16L2436.09 609.04L2436.27 608.68H2426.37L2426.55 609.04L2427.99 609.16C2430.33 609.34 2430.45 610.6 2428.71 613.24L2424.99 618.94H2424.93L2420.43 612.4C2419.05 610.3 2419.23 609.34 2421.09 609.16L2422.35 609.04L2422.53 608.68H2410.47L2410.65 609.04L2411.43 609.1C2413.05 609.28 2413.83 610.24 2415.51 612.64L2422.17 622.48L2418.03 628.54C2415.45 632.2 2414.07 633.22 2412.21 633.46L2410.77 633.64ZM2440.17 649.36C2443.77 649.36 2445.75 646.42 2447.61 640.42L2449.59 634.24L2456.25 616.48C2458.65 610.18 2458.83 609.28 2461.59 609.1L2462.37 609.04L2462.55 608.68H2452.41L2452.59 609.04L2453.43 609.1C2457.45 609.4 2457.75 610.12 2455.83 615.76L2451.15 628.48L2444.37 612.22C2443.47 610 2443.65 609.28 2445.99 609.1L2447.01 609.04L2447.13 608.68H2434.95L2435.13 609.04L2436.27 609.1C2438.13 609.28 2438.37 609.58 2439.69 612.82L2448.87 634.36L2448.93 634.42L2447.31 639.34C2445.69 644.08 2444.73 646.36 2442.57 646.78C2442.27 645.16 2441.19 643.9 2439.45 643.9C2437.95 643.9 2436.75 645.16 2436.75 646.6C2436.75 648.22 2438.25 649.36 2440.17 649.36ZM2462.23 633.7V634H2482.15L2484.13 625.3H2483.89L2483.05 626.68C2480.65 630.82 2478.19 633.52 2472.73 633.52L2467.15 633.4L2483.41 608.98V608.68H2463.85L2463.67 617.32H2463.97L2464.51 616.12C2466.43 611.38 2467.87 609.16 2473.33 609.16H2476.21C2476.87 609.16 2477.59 609.16 2478.37 609.22L2462.23 633.7ZM2493.98 623.32H2494.46C2492.84 621.7 2491.34 619.84 2491.34 618.1C2491.34 615.94 2493.44 615.1 2496.32 613.84C2500.7 611.74 2502.02 610.9 2502.02 606.7C2502.02 601.06 2497.64 595.6 2491.16 595.6C2488.04 595.6 2487.14 596.38 2487.14 597.64C2487.14 598.78 2487.32 599.62 2487.74 600.16C2488.76 599.86 2490.26 599.56 2492.12 599.56C2499.14 599.56 2501.3 603.1 2501.3 605.44C2501.3 607.3 2499.68 608.2 2495.24 610.12C2490.62 612.22 2489.12 613.12 2489.12 616.36C2489.12 618.28 2491.94 621.64 2493.98 623.32ZM2494.22 634.84C2496.08 634.84 2497.34 633.34 2497.34 631.72C2497.34 630.1 2496.08 628.72 2494.22 628.72C2492.36 628.72 2491.04 630.1 2491.04 631.72C2491.04 633.34 2492.36 634.84 2494.22 634.84ZM2508.13 599.02L2510.53 623.38C2510.53 623.62 2511.01 623.62 2511.01 623.38L2513.23 599.02C2513.41 597.4 2513.47 595.6 2510.77 595.6H2510.65C2507.95 595.6 2507.95 597.4 2508.13 599.02ZM2510.71 634.9C2512.57 634.9 2513.77 633.4 2513.77 631.78C2513.77 630.16 2512.57 628.84 2510.71 628.84C2508.85 628.84 2507.47 630.16 2507.47 631.78C2507.47 633.4 2508.85 634.9 2510.71 634.9ZM2534.14 609.1C2529.64 607.12 2527.78 605.32 2527.78 601.96C2527.78 598.84 2529.94 596.08 2533 596.08C2536.3 596.08 2538.28 599.44 2538.28 602.26C2538.28 605.08 2537.5 607.42 2534.14 609.1ZM2531.74 631.3C2526.4 631.3 2522.62 627.4 2522.62 621.94C2522.62 617.92 2524.6 614.14 2529.88 611.32C2535.34 613.66 2539.96 618.82 2542.78 624.76C2539 628.84 2536.06 631.3 2531.74 631.3ZM2529.1 634.84C2534.68 634.84 2538.7 630.52 2543.02 625.24C2546.38 632.56 2548.78 634.84 2552.5 634.84C2556.16 634.84 2558.92 631.3 2560.72 629.2L2560.3 628.96C2559.28 630.34 2557.48 632.02 2555.14 632.02C2552.02 632.02 2550.4 629.44 2546.38 621.58L2552.02 614.38C2555.08 610.54 2556.16 609.4 2559.58 609.1L2560.3 609.04L2560.48 608.68H2545.96L2546.14 609.04L2546.8 609.1C2550.82 609.52 2552.02 610.36 2552.02 611.5C2552.02 613 2550.16 615.82 2546.08 621.04C2543.62 616.66 2538.94 611.56 2534.74 609.28C2539.96 607.6 2542.12 604.9 2542.12 602.08C2542.12 599.14 2539.12 595.54 2533.06 595.54C2528.32 595.54 2523.82 599.98 2523.82 603.82C2523.82 606.88 2525.92 609.22 2529.34 611.08C2522.32 613.42 2518.12 618.34 2518.12 624.16C2518.12 629.86 2522.38 634.84 2529.1 634.84Z" fill="#FAF1E8"/>
<path d="M854 567.25C889 567.25 909.5 544 909.5 519C909.5 498.5 894 485.5 873 473C850.75 459.5 842.75 452 842.75 436.75C842.75 418.75 856 406.25 876 406.25C887.75 406.25 897.5 411.25 903.5 418L913 450.25L913.75 450.5L920.5 411.5L910 413.5C901.25 408.75 888.75 404 874.5 404C845.25 404 827.25 423.25 827.25 445.5C827.25 465.5 841.5 477.5 861 489C883 502.25 892.75 511.75 892.75 528C892.75 549.75 876.5 565 853.5 565C831.75 565 816 552.75 811.25 529.75L808.75 517H807.75L802 552.25C812 559 832 567.25 854 567.25ZM972.629 431.5C978.379 431.5 983.879 424.75 983.879 416.75C984.129 410.75 980.129 406.25 973.379 406.25C967.629 406.25 962.379 413 962.379 420.75C962.379 427 965.879 431.5 972.629 431.5ZM936.629 567C943.379 567 954.629 557 967.379 531L965.879 530.25L948.379 557.5L934.379 555.75C938.129 546.5 966.879 478.5 966.879 471C966.879 463 961.379 454.5 955.379 454.5C945.379 454.5 934.129 464.75 921.379 490.5L922.879 491.25L939.879 464.25L954.129 465.5C951.129 475.5 918.879 554 918.879 558.25C918.879 561.25 931.629 567 936.629 567ZM1098.72 567C1105.47 567 1115.97 556.75 1128.72 530.75L1127.22 530L1109.47 557.5L1096.97 556C1099.47 549.75 1101.97 544 1104.22 538.25C1108.22 528.5 1112.72 516.5 1115.72 509.25C1122.72 492 1128.47 477 1128.47 470.25C1128.47 462.5 1118.47 454.75 1110.97 454.75C1105.97 454.75 1098.72 458 1092.97 463.75C1084.47 472.25 1068.47 500.25 1054.47 527.75L1052.97 527.25C1063.72 502 1072.97 479.75 1072.97 471.75C1072.97 463.25 1064.22 454.75 1056.97 454.75C1051.97 454.75 1044.72 458 1038.97 463.75C1030.22 472.5 1014.22 500.25 1000.22 527.75L998.717 527.25C1009.22 502 1017.22 477.5 1017.22 470.75C1017.22 462.75 1009.72 454.25 1004.97 454.25C995.217 454.25 985.717 464.5 972.967 490.5L974.467 491.25L991.467 464L1003.22 465L985.967 522.25L971.717 563.5L988.217 564.75L997.217 541C1019.22 493.75 1038.97 464.75 1046.47 464.75C1052.22 464.75 1057.22 469.25 1057.22 474.25C1057.22 478.5 1045.22 507 1037.72 529.25L1026.22 563.5L1042.72 564.75L1051.47 541C1073.47 493.75 1092.97 464.75 1100.22 464.75C1105.97 464.75 1112.72 469.25 1112.72 474C1112.72 478 1105.22 495.25 1099.97 509.25C1091.97 530 1081.47 554.75 1081.47 557.5C1081.47 560.75 1093.72 567 1098.72 567ZM1172.23 564.75C1163.23 564.75 1156.98 554.25 1156.98 547.25C1156.98 542.5 1157.48 539 1158.23 536.75C1167.48 502.75 1183.48 465.5 1199.73 465.5C1207.98 465.5 1213.73 473.25 1213.73 490C1213.73 510 1203.48 541 1188.48 556C1184.23 560.25 1178.98 564.75 1172.23 564.75ZM1101.48 625.75L1100.73 627.25H1155.23L1154.98 625.75L1147.23 625.5C1135.48 625.25 1132.48 624.25 1133.23 622.5L1154.23 551.75H1154.73C1157.48 559.5 1161.98 567 1172.23 567C1201.48 567 1230.48 527.25 1230.48 490C1230.48 469 1221.98 455 1208.98 455C1193.73 455 1182.48 470.75 1174.48 488.75H1173.23C1174.98 484.5 1177.73 476.75 1177.73 471C1177.73 463.75 1171.23 454.5 1165.98 454.5C1156.23 454.5 1145.98 464.75 1133.98 490.5L1135.48 491.25L1152.48 464.25L1164.23 465.25L1117.23 622C1116.48 624.75 1113.98 624.75 1106.23 625.5L1101.48 625.75ZM1243.03 567C1249.78 567 1260.28 557 1273.03 531L1271.53 530.25L1254.03 557.5L1242.03 556L1291.53 398.25L1250.28 402.5L1249.78 404L1269.78 404.75C1271.53 404.75 1271.78 407.75 1271.03 410.5C1262.78 437.75 1255.53 462.25 1248.78 483.75C1237.53 520.5 1226.53 557.25 1226.53 558C1225.78 561 1238.03 567 1243.03 567ZM1300.01 502.75L1299.51 502.5C1304.26 487.75 1311.51 473.5 1319.26 465.75C1325.01 460.5 1330.26 457.25 1335.01 457.25C1342.76 457.25 1345.76 462.75 1345.76 470.5C1345.76 487.75 1334.76 496.75 1300.01 502.75ZM1307.01 567C1325.01 567 1339.01 549 1349.76 530.25L1348.01 529.5C1336.01 549.25 1327.51 556 1315.26 556C1302.01 556 1295.01 546 1295.01 528C1295.01 520.75 1296.51 512.75 1298.76 505C1341.01 498 1361.76 488.25 1361.76 472C1361.76 461.25 1351.51 454.5 1337.51 454.5C1308.51 454.5 1277.51 495.75 1277.51 532.5C1277.51 550.5 1288.76 567 1307.01 567ZM1441.94 476.5L1429.69 476.75V410.75H1442.69C1468.94 410.75 1482.19 421.75 1482.19 443.5C1482.19 462.25 1468.94 475.75 1441.94 476.5ZM1447.19 561.75L1429.69 557.25V480C1433.69 479.25 1439.69 479.25 1445.44 479.25C1472.69 479.25 1491.44 497.5 1491.44 522C1491.44 541 1480.19 559.75 1452.69 561C1453.44 561 1452.19 561 1450.44 561.25C1449.69 561.5 1448.44 561.5 1447.19 561.75ZM1388.69 562.5L1387.94 564H1448.19C1490.19 564 1513.19 546.5 1513.19 520.75C1513.19 498 1494.44 479.5 1457.19 477.5V476.75C1492.69 471.5 1504.44 458 1504.44 441C1504.44 422 1487.69 407.75 1447.44 407.75H1388.19L1388.94 409.25L1395.19 410C1408.19 411 1409.69 411.75 1409.69 413.5V557.5C1409.69 559.25 1406.44 560.75 1397.69 561.5L1388.69 562.5ZM1597.27 489.5L1545.02 490C1549.02 472.25 1561.77 457.25 1575.52 457.25C1590.77 457.25 1597.27 472.5 1597.27 489.5ZM1574.27 567.25C1594.52 567.25 1608.02 555.25 1619.27 535.5L1617.52 534.75C1607.77 549.75 1598.02 554.75 1582.77 554.75C1560.77 554.75 1543.52 535.25 1543.52 505.75C1543.52 502 1543.77 496 1544.52 492.25L1616.27 492.5C1616.52 490.75 1616.77 490.25 1616.77 489C1616.77 470 1602.52 454.75 1577.27 454.75C1545.52 454.75 1524.52 481.5 1524.52 513.5C1524.52 543.5 1546.02 567.25 1574.27 567.25ZM1659.54 556C1649.79 556 1642.54 548.75 1642.54 537.5C1642.54 525.25 1648.04 514.75 1683.54 506L1682.04 545.75C1675.29 552.5 1667.79 556 1659.54 556ZM1697.54 566.5C1708.04 566.5 1715.04 555.75 1719.54 550.5L1718.29 549.75C1714.54 553.5 1711.04 556.5 1707.04 556.5C1701.29 556.5 1698.04 553.5 1698.79 545.25L1701.29 491.25C1702.54 462.25 1692.04 454.75 1671.29 454.75C1652.29 454.75 1623.54 469.5 1623.54 482.25C1623.54 488.25 1628.04 492 1634.29 492C1641.04 492 1645.04 487.25 1645.04 482.25C1645.04 475.5 1638.79 471.5 1638.79 469.75C1638.79 466.75 1649.54 460.5 1659.54 460.5C1672.54 460.5 1685.04 467.5 1683.79 492.5L1683.54 503.5C1636.79 514.75 1624.79 526.75 1624.79 543C1624.79 555.75 1634.79 566.25 1649.79 566.25C1661.54 566.25 1672.04 557.75 1681.79 548.75V549C1682.54 559.75 1688.79 566.5 1697.54 566.5ZM1797.4 545.25L1796.9 568L1830.15 559.25L1830.4 558L1820.65 556.5C1815.4 555.75 1814.4 554.25 1814.4 548.5V458.25H1779.9L1780.65 459.75L1784.15 460C1794.4 460.75 1796.65 462.5 1796.65 472.75V513.75V542.75C1788.9 549.75 1779.9 554.75 1768.15 554.75C1753.4 554.75 1745.9 547.5 1745.9 532.75V458.25H1711.4L1712.15 459.75L1715.65 460C1728.4 460.75 1728.4 462 1728.4 463.25V536C1728.4 546.25 1730.15 554.25 1735.9 560C1740.65 564.75 1747.15 567.25 1755.4 567.25C1773.15 567.25 1787.9 553.75 1797.15 545.25H1797.4ZM1866.86 567.25C1879.86 567.25 1889.86 558 1899.86 548L1898.61 547.25C1892.86 552 1886.86 557 1877.11 557C1867.36 557 1860.86 551.75 1861.11 541L1862.86 467H1895.11L1898.61 458.25H1862.86L1863.11 436L1855.86 435.75L1841.86 457.25L1827.36 462L1825.61 467.25L1845.11 467.5L1843.61 543C1843.61 561.75 1854.61 567.25 1866.86 567.25ZM1915.52 628C1930.52 628 1938.77 615.75 1946.52 590.75L1954.77 565L1982.52 491C1992.52 464.75 1993.27 461 2004.77 460.25L2008.02 460L2008.77 458.5H1966.52L1967.27 460L1970.77 460.25C1987.52 461.5 1988.77 464.5 1980.77 488L1961.27 541L1933.02 473.25C1929.27 464 1930.02 461 1939.77 460.25L1944.02 460L1944.52 458.5H1893.77L1894.52 460L1899.27 460.25C1907.02 461 1908.02 462.25 1913.52 475.75L1951.77 565.5L1952.02 565.75L1945.27 586.25C1938.52 606 1934.52 615.5 1925.52 617.25C1924.27 610.5 1919.77 605.25 1912.52 605.25C1906.27 605.25 1901.27 610.5 1901.27 616.5C1901.27 623.25 1907.52 628 1915.52 628Z" fill="#FAF1E8"/>
<path d="M890.5 1047.25C906.75 1041 912.25 1025.75 912.25 1010.75C912.25 983.75 894.25 966.75 865.75 966.75H801V1139H871.25C902.75 1139 921.5 1115.25 921.5 1090.5C921.5 1071.75 910.75 1051.75 890.5 1047.25ZM865.5 987.75C881.25 987.75 889.5 998.25 889.5 1013C889.5 1027.75 881.75 1038.5 866.25 1038.5H823.75V987.75H865.5ZM866.5 1118H823.75V1058.5H867.75C888.75 1058.5 898.75 1073 898.75 1088.5C898.75 1104.5 887.75 1118 866.5 1118ZM996.471 1141.5C1029.72 1141.5 1057.72 1117.25 1057.72 1080.25C1057.72 1043.25 1029.72 1019.75 996.471 1019.75C963.221 1019.75 935.471 1043.25 935.471 1080.25C935.471 1117.25 963.221 1141.5 996.471 1141.5ZM996.471 1121C975.221 1121 957.471 1104.5 957.471 1080.25C957.471 1056.25 975.221 1040.25 996.471 1040.25C1017.97 1040.25 1035.97 1056.25 1035.97 1080.25C1035.97 1104.5 1017.97 1121 996.471 1121ZM1131 1141.5C1164.25 1141.5 1192.25 1117.25 1192.25 1080.25C1192.25 1043.25 1164.25 1019.75 1131 1019.75C1097.75 1019.75 1070 1043.25 1070 1080.25C1070 1117.25 1097.75 1141.5 1131 1141.5ZM1131 1121C1109.75 1121 1092 1104.5 1092 1080.25C1092 1056.25 1109.75 1040.25 1131 1040.25C1152.5 1040.25 1170.5 1056.25 1170.5 1080.25C1170.5 1104.5 1152.5 1121 1131 1121ZM1317.28 1139L1255.03 1072.75L1305.03 1022.25H1274.78L1234.28 1063.5V958.5H1212.53V1139H1234.28V1082L1288.03 1139H1317.28ZM1477.91 966.75H1350.16V987.75H1402.66V1139H1425.41V987.75H1477.91V966.75ZM1522.64 1141.5C1555.89 1141.5 1583.89 1117.25 1583.89 1080.25C1583.89 1043.25 1555.89 1019.75 1522.64 1019.75C1489.39 1019.75 1461.64 1043.25 1461.64 1080.25C1461.64 1117.25 1489.39 1141.5 1522.64 1141.5ZM1522.64 1121C1501.39 1121 1483.64 1104.5 1483.64 1080.25C1483.64 1056.25 1501.39 1040.25 1522.64 1040.25C1544.14 1040.25 1562.14 1056.25 1562.14 1080.25C1562.14 1104.5 1544.14 1121 1522.64 1121ZM1696.42 958.5V1040.5C1688.67 1026.75 1672.17 1019.75 1654.67 1019.75C1622.67 1019.75 1596.42 1043.5 1596.42 1080.5C1596.42 1117.25 1622.92 1141.5 1654.92 1141.5C1671.67 1141.5 1688.67 1134 1696.42 1120.5V1139H1718.17V958.5H1696.42ZM1656.67 1121C1635.42 1121 1618.42 1103.5 1618.42 1080.25C1618.42 1056.75 1635.42 1040.25 1656.67 1040.25C1675.92 1040.25 1696.42 1055 1696.42 1080.25C1696.42 1105.25 1677.67 1121 1656.67 1121ZM1838.52 1022.25V1040.5C1830.77 1026.75 1814.27 1019.75 1796.77 1019.75C1764.77 1019.75 1738.52 1043.5 1738.52 1080.5C1738.52 1117.25 1765.02 1141.5 1797.02 1141.5C1813.77 1141.5 1830.77 1134 1838.52 1120.5V1139H1860.27V1022.25H1838.52ZM1798.77 1121C1777.52 1121 1760.52 1103.5 1760.52 1080.25C1760.52 1056.75 1777.52 1040.25 1798.77 1040.25C1818.02 1040.25 1838.52 1055 1838.52 1080.25C1838.52 1105.25 1819.77 1121 1798.77 1121ZM1968.12 1022.25L1932.37 1108.25L1897.12 1022.25H1873.62L1920.37 1135.75L1896.12 1195.75H1919.12L1991.62 1022.25H1968.12Z" fill="#FAF1E8"/>
<line x1="2800" y1="285" x2="200" y2="285" stroke="#FAF1E8" stroke-width="2"/>
<line x1="2800" y1="853" x2="200" y2="853" stroke="#FAF1E8" stroke-width="2"/>
<path d="M208.82 980.3C213.11 980.3 215.72 977.39 215.72 974.18C215.72 971.24 213.62 969.32 210.11 968.45L207.41 967.79C204.65 967.13 204.41 965.63 204.41 964.91C204.41 962.87 206.33 961.61 208.4 961.61C210.62 961.61 212.33 963.02 212.33 965.09H215.03C215.03 961.4 212.12 959.09 208.49 959.09C204.89 959.09 201.68 961.37 201.68 964.94C201.68 966.62 202.37 969.2 206.75 970.25L209.42 970.91C211.16 971.36 212.99 972.26 212.99 974.27C212.99 976.1 211.52 977.78 208.82 977.78C206.06 977.78 204.32 975.92 204.23 974.09H201.53C201.56 977.3 204.47 980.3 208.82 980.3ZM225.449 980.3C229.439 980.3 232.799 977.39 232.799 972.95C232.799 968.51 229.439 965.69 225.449 965.69C221.459 965.69 218.129 968.51 218.129 972.95C218.129 977.39 221.459 980.3 225.449 980.3ZM225.449 977.84C222.899 977.84 220.769 975.86 220.769 972.95C220.769 970.07 222.899 968.15 225.449 968.15C228.029 968.15 230.189 970.07 230.189 972.95C230.189 975.86 228.029 977.84 225.449 977.84ZM248.589 965.99H239.619V964.16C239.589 962.33 240.249 960.8 242.739 960.8H243.399V958.34H242.289C238.539 958.34 237.009 960.86 237.009 964.52V965.99H234.309V968.24H237.009V980H239.619V968.24H245.979V980H248.589V965.99ZM247.269 959.09C246.279 959.09 245.439 959.84 245.439 960.83C245.439 961.82 246.279 962.57 247.269 962.57C248.319 962.57 249.129 961.82 249.129 960.83C249.129 959.84 248.319 959.09 247.269 959.09ZM263.895 965.99V968.18C262.965 966.53 260.985 965.69 258.885 965.69C255.045 965.69 251.895 968.54 251.895 972.98C251.895 977.39 255.075 980.3 258.915 980.3C260.925 980.3 262.965 979.4 263.895 977.78V980H266.505V965.99H263.895ZM259.125 977.84C256.575 977.84 254.535 975.74 254.535 972.95C254.535 970.13 256.575 968.15 259.125 968.15C261.435 968.15 263.895 969.92 263.895 972.95C263.895 975.95 261.645 977.84 259.125 977.84ZM286.885 959.33H278.665V980H281.395V972.23H286.885C291.265 972.23 293.035 969.05 293.035 965.78C293.035 962.57 291.265 959.33 286.885 959.33ZM286.705 969.68H281.395V961.85H286.855C289.315 961.85 290.305 963.86 290.305 965.78C290.305 967.76 289.285 969.68 286.705 969.68ZM302.499 965.69C300.639 965.69 299.289 966.71 298.569 969.17V965.99H295.929V980H298.569V974.87C298.569 971.18 299.679 968.21 302.469 968.21C303.009 968.21 303.759 968.33 304.509 968.69L304.929 966.23C304.509 965.96 303.489 965.69 302.499 965.69ZM313.181 980.3C317.171 980.3 320.531 977.39 320.531 972.95C320.531 968.51 317.171 965.69 313.181 965.69C309.191 965.69 305.861 968.51 305.861 972.95C305.861 977.39 309.191 980.3 313.181 980.3ZM313.181 977.84C310.631 977.84 308.501 975.86 308.501 972.95C308.501 970.07 310.631 968.15 313.181 968.15C315.761 968.15 317.921 970.07 317.921 972.95C317.921 975.86 315.761 977.84 313.181 977.84ZM342.582 980H345.852L340.362 972.17C344.262 971.78 345.762 968.78 345.762 965.78C345.762 962.57 344.022 959.33 339.522 959.33H331.752V980H334.482V972.2H337.182L342.582 980ZM334.482 961.85H339.582C341.682 961.85 343.032 963.47 343.032 965.78C343.032 968.12 341.832 969.71 338.802 969.71H334.482V961.85ZM362.07 972.95C362.07 968.51 359.1 965.69 355.11 965.69C351.12 965.69 347.91 968.51 347.91 972.95C347.91 977.39 351.12 980.3 355.11 980.3C357.81 980.3 360.33 979.04 361.56 976.61L359.28 975.71C358.5 977.12 356.91 977.84 355.2 977.84C352.8 977.84 351 976.61 350.61 974.12H362.01C362.04 973.73 362.07 973.34 362.07 972.95ZM350.64 971.87C351.06 969.35 352.74 968.15 355.11 968.15C357.42 968.15 359.13 969.47 359.46 971.87H350.64ZM376.368 965.99V968.18C375.438 966.56 373.458 965.69 371.358 965.69C367.518 965.69 364.368 968.54 364.368 972.98C364.368 977.39 367.548 980.3 371.388 980.3C373.398 980.3 375.438 979.4 376.368 977.78V978.05C376.368 982.79 374.448 984.53 371.358 984.53C369.798 984.53 368.148 983.66 367.278 982.07L365.058 983.24C366.438 985.7 368.808 986.99 371.358 986.99C375.978 986.99 378.978 984.5 378.978 977.87V965.99H376.368ZM371.598 977.84C369.048 977.84 367.008 975.74 367.008 972.95C367.008 970.13 369.048 968.15 371.598 968.15C373.908 968.15 376.368 969.92 376.368 972.95C376.368 975.95 374.118 977.84 371.598 977.84ZM393.36 965.99V973.58C393.33 976.61 390.99 977.72 389.04 977.72C387.09 977.72 385.68 976.28 385.68 973.94V965.99H383.07V974.09C383.04 978.02 385.2 980.3 388.71 980.3C390.27 980.3 392.52 979.55 393.36 977.81V980H395.97V965.99H393.36ZM400.206 980H402.816V958.34H400.206V980ZM418.125 965.99V968.18C417.195 966.53 415.215 965.69 413.115 965.69C409.275 965.69 406.125 968.54 406.125 972.98C406.125 977.39 409.305 980.3 413.145 980.3C415.155 980.3 417.195 979.4 418.125 977.78V980H420.735V965.99H418.125ZM413.355 977.84C410.805 977.84 408.765 975.74 408.765 972.95C408.765 970.13 410.805 968.15 413.355 968.15C415.665 968.15 418.125 969.92 418.125 972.95C418.125 975.95 415.875 977.84 413.355 977.84ZM431.577 965.69C429.717 965.69 428.367 966.71 427.647 969.17V965.99H425.007V980H427.647V974.87C427.647 971.18 428.757 968.21 431.547 968.21C432.087 968.21 432.837 968.33 433.587 968.69L434.007 966.23C433.587 965.96 432.567 965.69 431.577 965.69ZM217.55 1019.87C215.33 1019.87 214.94 1017.83 214.94 1015.67V1011.71H217.55V1009.61H214.94V1007.09H212.3V1009.58H208.64C206.18 1009.58 205.16 1007.96 205.16 1006.43C205.16 1004.75 206.36 1003.61 208.16 1003.61C209.42 1003.61 210.38 1004.18 211.01 1005.23L213.17 1003.91C212.15 1002.17 210.35 1001.09 208.16 1001.09C204.89 1001.09 202.61 1003.52 202.61 1006.28C202.61 1008.05 203.54 1009.61 204.74 1010.45C202.82 1011.59 201.47 1013.42 201.47 1015.76C201.47 1019.33 204.23 1022.3 208.22 1022.3C210.29 1022.3 212.3 1021.49 213.35 1019.99C213.77 1021.37 215.54 1022.27 217.52 1022.3H218.06V1019.87H217.55ZM208.19 1019.78C205.67 1019.78 204.02 1017.98 204.02 1015.67C204.02 1013.51 205.52 1011.71 208.85 1011.71H212.3V1015.88C212.21 1018.07 210.62 1019.78 208.19 1019.78ZM239.768 1010.99C241.718 1010.24 242.378 1008.41 242.378 1006.61C242.378 1003.37 240.218 1001.33 236.798 1001.33H229.028V1022H237.458C241.238 1022 243.488 1019.15 243.488 1016.18C243.488 1013.93 242.198 1011.53 239.768 1010.99ZM236.768 1003.85C238.658 1003.85 239.648 1005.11 239.648 1006.88C239.648 1008.65 238.718 1009.94 236.858 1009.94H231.758V1003.85H236.768ZM236.888 1019.48H231.758V1012.34H237.038C239.558 1012.34 240.758 1014.08 240.758 1015.94C240.758 1017.86 239.438 1019.48 236.888 1019.48ZM253.385 1022.3C257.375 1022.3 260.735 1019.39 260.735 1014.95C260.735 1010.51 257.375 1007.69 253.385 1007.69C249.395 1007.69 246.065 1010.51 246.065 1014.95C246.065 1019.39 249.395 1022.3 253.385 1022.3ZM253.385 1019.84C250.835 1019.84 248.705 1017.86 248.705 1014.95C248.705 1012.07 250.835 1010.15 253.385 1010.15C255.965 1010.15 258.125 1012.07 258.125 1014.95C258.125 1017.86 255.965 1019.84 253.385 1019.84ZM264.068 1022H266.678V1000.34H264.068V1022ZM281.987 1000.34V1010.18C281.057 1008.53 279.077 1007.69 276.977 1007.69C273.137 1007.69 269.987 1010.54 269.987 1014.98C269.987 1019.39 273.167 1022.3 277.007 1022.3C279.017 1022.3 281.057 1021.4 281.987 1019.78V1022H284.597V1000.34H281.987ZM277.217 1019.84C274.667 1019.84 272.627 1017.74 272.627 1014.95C272.627 1012.13 274.667 1010.15 277.217 1010.15C279.527 1010.15 281.987 1011.92 281.987 1014.95C281.987 1017.95 279.737 1019.84 277.217 1019.84Z" fill="#FAF1E8"/>
<path d="M214.91 373.85V371.33H202.88V392H205.61V383.12H212.99V380.57H205.61V373.85H214.91ZM223.198 377.69C221.338 377.69 219.988 378.71 219.268 381.17V377.99H216.628V392H219.268V386.87C219.268 383.18 220.378 380.21 223.168 380.21C223.708 380.21 224.458 380.33 225.208 380.69L225.628 378.23C225.208 377.96 224.188 377.69 223.198 377.69ZM240.72 384.95C240.72 380.51 237.75 377.69 233.76 377.69C229.77 377.69 226.56 380.51 226.56 384.95C226.56 389.39 229.77 392.3 233.76 392.3C236.46 392.3 238.98 391.04 240.21 388.61L237.93 387.71C237.15 389.12 235.56 389.84 233.85 389.84C231.45 389.84 229.65 388.61 229.26 386.12H240.66C240.69 385.73 240.72 385.34 240.72 384.95ZM229.29 383.87C229.71 381.35 231.39 380.15 233.76 380.15C236.07 380.15 237.78 381.47 238.11 383.87H229.29ZM245.238 374.57C246.258 374.57 247.098 373.82 247.098 372.83C247.098 371.84 246.258 371.09 245.238 371.09C244.248 371.09 243.408 371.84 243.408 372.83C243.408 373.82 244.248 374.57 245.238 374.57ZM243.948 392H246.558V377.99H243.948V392ZM261.867 377.99V380.18C260.937 378.56 258.957 377.69 256.857 377.69C253.017 377.69 249.867 380.54 249.867 384.98C249.867 389.39 253.047 392.3 256.887 392.3C258.897 392.3 260.937 391.4 261.867 389.78V390.05C261.867 394.79 259.947 396.53 256.857 396.53C255.297 396.53 253.647 395.66 252.777 394.07L250.557 395.24C251.937 397.7 254.307 398.99 256.857 398.99C261.477 398.99 264.477 396.5 264.477 389.87V377.99H261.867ZM257.097 389.84C254.547 389.84 252.507 387.74 252.507 384.95C252.507 382.13 254.547 380.15 257.097 380.15C259.407 380.15 261.867 381.92 261.867 384.95C261.867 387.95 259.617 389.84 257.097 389.84ZM276.009 377.69C274.479 377.69 272.199 378.41 271.359 380.12V370.34H268.749V392H271.359V384.41C271.359 381.38 273.699 380.27 275.649 380.27C277.599 380.27 279.039 381.71 279.039 384.05V392H281.649V383.9C281.679 379.97 279.489 377.69 276.009 377.69ZM292.249 377.99H289.219V372.68H286.609V377.99H284.089V380.24H286.609V392H289.219V380.24H292.249V377.99ZM313.495 380.99C315.445 380.24 316.105 378.41 316.105 376.61C316.105 373.37 313.945 371.33 310.525 371.33H302.755V392H311.185C314.965 392 317.215 389.15 317.215 386.18C317.215 383.93 315.925 381.53 313.495 380.99ZM310.495 373.85C312.385 373.85 313.375 375.11 313.375 376.88C313.375 378.65 312.445 379.94 310.585 379.94H305.485V373.85H310.495ZM310.615 389.48H305.485V382.34H310.765C313.285 382.34 314.485 384.08 314.485 385.94C314.485 387.86 313.165 389.48 310.615 389.48ZM322.042 374.57C323.062 374.57 323.902 373.82 323.902 372.83C323.902 371.84 323.062 371.09 322.042 371.09C321.052 371.09 320.212 371.84 320.212 372.83C320.212 373.82 321.052 374.57 322.042 374.57ZM320.752 392H323.362V377.99H320.752V392ZM338.67 377.99V380.18C337.74 378.56 335.76 377.69 333.66 377.69C329.82 377.69 326.67 380.54 326.67 384.98C326.67 389.39 329.85 392.3 333.69 392.3C335.7 392.3 337.74 391.4 338.67 389.78V390.05C338.67 394.79 336.75 396.53 333.66 396.53C332.1 396.53 330.45 395.66 329.58 394.07L327.36 395.24C328.74 397.7 331.11 398.99 333.66 398.99C338.28 398.99 341.28 396.5 341.28 389.87V377.99H338.67ZM333.9 389.84C331.35 389.84 329.31 387.74 329.31 384.95C329.31 382.13 331.35 380.15 333.9 380.15C336.21 380.15 338.67 381.92 338.67 384.95C338.67 387.95 336.42 389.84 333.9 389.84ZM364.18 380.99C366.13 380.24 366.79 378.41 366.79 376.61C366.79 373.37 364.63 371.33 361.21 371.33H353.44V392H361.87C365.65 392 367.9 389.15 367.9 386.18C367.9 383.93 366.61 381.53 364.18 380.99ZM361.18 373.85C363.07 373.85 364.06 375.11 364.06 376.88C364.06 378.65 363.13 379.94 361.27 379.94H356.17V373.85H361.18ZM361.3 389.48H356.17V382.34H361.45C363.97 382.34 365.17 384.08 365.17 385.94C365.17 387.86 363.85 389.48 361.3 389.48ZM377.797 392.3C381.787 392.3 385.147 389.39 385.147 384.95C385.147 380.51 381.787 377.69 377.797 377.69C373.807 377.69 370.477 380.51 370.477 384.95C370.477 389.39 373.807 392.3 377.797 392.3ZM377.797 389.84C375.247 389.84 373.117 387.86 373.117 384.95C373.117 382.07 375.247 380.15 377.797 380.15C380.377 380.15 382.537 382.07 382.537 384.95C382.537 387.86 380.377 389.84 377.797 389.84ZM394.84 392.3C398.83 392.3 402.19 389.39 402.19 384.95C402.19 380.51 398.83 377.69 394.84 377.69C390.85 377.69 387.52 380.51 387.52 384.95C387.52 389.39 390.85 392.3 394.84 392.3ZM394.84 389.84C392.29 389.84 390.16 387.86 390.16 384.95C390.16 382.07 392.29 380.15 394.84 380.15C397.42 380.15 399.58 382.07 399.58 384.95C399.58 387.86 397.42 389.84 394.84 389.84ZM418.094 392L410.624 384.05L416.624 377.99H412.994L408.134 382.94V370.34H405.524V392H408.134V385.16L414.584 392H418.094ZM217.55 431.87C215.33 431.87 214.94 429.83 214.94 427.67V423.71H217.55V421.61H214.94V419.09H212.3V421.58H208.64C206.18 421.58 205.16 419.96 205.16 418.43C205.16 416.75 206.36 415.61 208.16 415.61C209.42 415.61 210.38 416.18 211.01 417.23L213.17 415.91C212.15 414.17 210.35 413.09 208.16 413.09C204.89 413.09 202.61 415.52 202.61 418.28C202.61 420.05 203.54 421.61 204.74 422.45C202.82 423.59 201.47 425.42 201.47 427.76C201.47 431.33 204.23 434.3 208.22 434.3C210.29 434.3 212.3 433.49 213.35 431.99C213.77 433.37 215.54 434.27 217.52 434.3H218.06V431.87H217.55ZM208.19 431.78C205.67 431.78 204.02 429.98 204.02 427.67C204.02 425.51 205.52 423.71 208.85 423.71H212.3V427.88C212.21 430.07 210.62 431.78 208.19 431.78ZM239.768 422.99C241.718 422.24 242.378 420.41 242.378 418.61C242.378 415.37 240.218 413.33 236.798 413.33H229.028V434H237.458C241.238 434 243.488 431.15 243.488 428.18C243.488 425.93 242.198 423.53 239.768 422.99ZM236.768 415.85C238.658 415.85 239.648 417.11 239.648 418.88C239.648 420.65 238.718 421.94 236.858 421.94H231.758V415.85H236.768ZM236.888 431.48H231.758V424.34H237.038C239.558 424.34 240.758 426.08 240.758 427.94C240.758 429.86 239.438 431.48 236.888 431.48ZM253.385 434.3C257.375 434.3 260.735 431.39 260.735 426.95C260.735 422.51 257.375 419.69 253.385 419.69C249.395 419.69 246.065 422.51 246.065 426.95C246.065 431.39 249.395 434.3 253.385 434.3ZM253.385 431.84C250.835 431.84 248.705 429.86 248.705 426.95C248.705 424.07 250.835 422.15 253.385 422.15C255.965 422.15 258.125 424.07 258.125 426.95C258.125 429.86 255.965 431.84 253.385 431.84ZM270.428 434.3C274.418 434.3 277.778 431.39 277.778 426.95C277.778 422.51 274.418 419.69 270.428 419.69C266.438 419.69 263.108 422.51 263.108 426.95C263.108 431.39 266.438 434.3 270.428 434.3ZM270.428 431.84C267.878 431.84 265.748 429.86 265.748 426.95C265.748 424.07 267.878 422.15 270.428 422.15C273.008 422.15 275.168 424.07 275.168 426.95C275.168 429.86 273.008 431.84 270.428 431.84ZM293.682 434L286.212 426.05L292.212 419.99H288.582L283.722 424.94V412.34H281.112V434H283.722V427.16L290.172 434H293.682ZM302.733 434H305.463V413.33H302.733V434ZM317.02 419.99H313.99V414.68H311.38V419.99H308.86V422.24H311.38V434H313.99V422.24H317.02V419.99ZM330.416 419.99V422.18C329.486 420.53 327.506 419.69 325.406 419.69C321.566 419.69 318.416 422.54 318.416 426.98C318.416 431.39 321.596 434.3 325.436 434.3C327.446 434.3 329.486 433.4 330.416 431.78V434H333.026V419.99H330.416ZM325.646 431.84C323.096 431.84 321.056 429.74 321.056 426.95C321.056 424.13 323.096 422.15 325.646 422.15C327.956 422.15 330.416 423.92 330.416 426.95C330.416 429.95 328.166 431.84 325.646 431.84ZM337.298 434H339.908V412.34H337.298V434ZM345.436 416.57C346.456 416.57 347.296 415.82 347.296 414.83C347.296 413.84 346.456 413.09 345.436 413.09C344.446 413.09 343.606 413.84 343.606 414.83C343.606 415.82 344.446 416.57 345.436 416.57ZM344.146 434H346.756V419.99H344.146V434ZM357.564 434.27C359.754 434.27 361.674 433.43 362.904 432.05L361.254 430.34C360.384 431.24 359.124 431.81 357.654 431.81C354.894 431.81 352.674 429.86 352.674 426.98C352.674 424.1 354.894 422.15 357.654 422.15C359.124 422.15 360.384 422.72 361.254 423.62L362.904 421.91C361.674 420.56 359.754 419.69 357.564 419.69C353.544 419.69 350.034 422.54 350.034 426.98C350.034 431.42 353.544 434.27 357.564 434.27Z" fill="#FAF1E8"/>
<path d="M216.08 107.33H200.6V110.6H206.51V128H210.17V110.6H216.08V107.33ZM225.007 113.99L221.407 122.87L217.777 113.99H213.967L219.547 127.04L216.397 134.84H220.057L228.757 113.99H225.007ZM238.531 113.69C236.851 113.69 234.841 114.38 233.881 115.85V113.99H230.401V134.84H233.881V126.11C234.841 127.61 236.791 128.27 238.561 128.27C242.251 128.27 245.431 125.48 245.431 120.98C245.431 116.51 242.221 113.69 238.531 113.69ZM237.991 125.03C235.981 125.03 233.941 123.47 233.941 121.01C233.941 118.55 235.861 116.93 237.991 116.93C240.151 116.93 241.951 118.67 241.951 121.01C241.951 123.35 240.151 125.03 237.991 125.03ZM254.711 128.3C258.701 128.3 262.181 125.39 262.181 120.95C262.181 116.51 258.701 113.69 254.711 113.69C250.721 113.69 247.271 116.51 247.271 120.95C247.271 125.39 250.721 128.3 254.711 128.3ZM254.711 125.06C252.551 125.06 250.781 123.41 250.781 120.95C250.781 118.55 252.551 116.93 254.711 116.93C256.871 116.93 258.671 118.55 258.671 120.95C258.671 123.41 256.871 125.06 254.711 125.06ZM275.566 113.99V115.82C274.576 114.38 272.686 113.69 270.886 113.69C267.196 113.69 264.016 116.48 264.016 120.98C264.016 125.45 267.226 128.3 270.916 128.3C272.626 128.3 274.576 127.58 275.566 126.14V126.35C275.566 130.34 273.886 131.9 271.186 131.9C269.656 131.9 268.126 131 267.436 129.62L264.556 130.94C265.786 133.49 268.306 135.05 271.186 135.05C275.986 135.05 279.046 132.32 279.046 126.02V113.99H275.566ZM271.456 125.03C269.296 125.03 267.526 123.29 267.526 120.95C267.526 118.61 269.296 116.93 271.456 116.93C273.466 116.93 275.506 118.49 275.506 120.95C275.506 123.41 273.586 125.03 271.456 125.03ZM290.095 113.69C288.355 113.69 286.825 114.65 286.075 116.99V113.99H282.595V128H286.105V123.11C286.105 119.18 287.365 116.96 289.645 116.96C290.155 116.96 290.875 117.05 291.685 117.47L292.375 114.17C291.835 113.87 290.935 113.69 290.095 113.69ZM304.424 113.99V115.85C303.464 114.38 301.514 113.69 299.744 113.69C296.054 113.69 292.874 116.48 292.874 120.98C292.874 125.45 296.084 128.3 299.774 128.3C301.484 128.3 303.464 127.61 304.424 126.11V128H307.904V113.99H304.424ZM300.314 125.03C298.154 125.03 296.384 123.29 296.384 120.95C296.384 118.61 298.154 116.93 300.314 116.93C302.324 116.93 304.364 118.49 304.364 120.95C304.364 123.41 302.444 125.03 300.314 125.03ZM319.584 113.69C317.904 113.69 315.894 114.38 314.934 115.85V113.99H311.454V134.84H314.934V126.11C315.894 127.61 317.844 128.27 319.614 128.27C323.304 128.27 326.484 125.48 326.484 120.98C326.484 116.51 323.274 113.69 319.584 113.69ZM319.044 125.03C317.034 125.03 314.994 123.47 314.994 121.01C314.994 118.55 316.914 116.93 319.044 116.93C321.204 116.93 323.004 118.67 323.004 121.01C323.004 123.35 321.204 125.03 319.044 125.03ZM337.024 113.69C335.614 113.69 333.364 114.44 332.674 116.12V106.49H329.194V128H332.674V120.68C332.674 117.98 334.654 117.11 336.244 117.11C337.804 117.11 339.154 118.25 339.154 120.47V128H342.634V120.14C342.634 116.06 340.624 113.69 337.024 113.69ZM354.943 113.99L351.343 122.87L347.713 113.99H343.903L349.483 127.04L346.333 134.84H349.993L358.693 113.99H354.943Z" fill="#FAF1E8"/>
</svg>
