<svg width="3000" height="1500" viewBox="0 0 3000 1500" fill="none" xmlns="http://www.w3.org/2000/svg">
<rect width="3000" height="1500" fill="#FAF1E8"/>
<path d="M2231.68 1003H2237.38L2221.66 961.66H2215.9L2200.18 1003H2205.88L2209.9 992.38H2227.66L2231.68 1003ZM2211.7 987.58L2218.78 968.86L2225.86 987.58H2211.7ZM2264.74 980.98C2268.64 979.48 2269.96 975.82 2269.96 972.22C2269.96 965.74 2265.64 961.66 2258.8 961.66H2243.26V1003H2260.12C2267.68 1003 2272.18 997.3 2272.18 991.36C2272.18 986.86 2269.6 982.06 2264.74 980.98ZM2258.74 966.7C2262.52 966.7 2264.5 969.22 2264.5 972.76C2264.5 976.3 2262.64 978.88 2258.92 978.88H2248.72V966.7H2258.74ZM2258.98 997.96H2248.72V983.68H2259.28C2264.32 983.68 2266.72 987.16 2266.72 990.88C2266.72 994.72 2264.08 997.96 2258.98 997.96ZM2299.17 1003.6C2305.53 1003.6 2311.05 1000.9 2314.71 996.58L2310.75 993.22C2307.99 996.46 2303.79 998.56 2299.17 998.56C2290.47 998.56 2283.63 991.24 2283.63 982.42C2283.63 973.54 2290.47 966.28 2299.17 966.28C2303.79 966.28 2307.99 968.38 2310.75 971.62L2314.71 968.26C2311.05 963.94 2305.53 961.24 2299.17 961.24C2287.47 961.24 2278.17 970.72 2278.17 982.42C2278.17 994.12 2287.47 1003.6 2299.17 1003.6ZM2322.48 1003H2338.5C2350.26 1003 2357.16 994.12 2357.16 982.42C2357.16 970.66 2350.26 961.66 2338.5 961.66H2322.48V1003ZM2327.94 997.96V966.7H2338.5C2347.2 966.7 2351.7 973.6 2351.7 982.42C2351.7 991.24 2347.2 997.96 2338.5 997.96H2327.94ZM2371.41 997.96V985.24H2387.97V980.14H2371.41V966.7H2390.37V961.66H2366.01V1003H2390.97V997.96H2371.41ZM2423.88 966.7V961.66H2399.82V1003H2405.28V985.24H2420.04V980.14H2405.28V966.7H2423.88ZM2448.76 1003.6C2460.52 1003.6 2468.32 996.76 2468.32 982.3H2450.32V987.04H2462.32C2462.32 987.4 2462.26 987.76 2462.2 988.06C2461.36 994.48 2455.9 998.56 2448.76 998.56C2440.06 998.56 2433.34 991.3 2433.34 982.42C2433.34 973.54 2440.06 966.22 2448.76 966.22C2452.66 966.22 2456.26 967.78 2458.9 970.12L2462.68 966.58C2459.08 963.28 2454.22 961.18 2448.76 961.18C2437 961.18 2427.88 970.66 2427.88 982.42C2427.88 994.12 2437 1003.6 2448.76 1003.6ZM2501.68 961.66V979.96H2481.4V961.66H2475.94V1003H2481.4V984.94H2501.68V1003H2507.14V961.66H2501.68ZM2518.59 1003H2524.05V961.66H2518.59V1003ZM2528.69 1016.98C2537.99 1016.98 2541.47 1010.8 2541.47 1003.6V961.66H2536.01V1003.6C2536.01 1007.98 2534.03 1011.7 2528.69 1011.7C2528.21 1011.7 2525.75 1011.52 2524.85 1011.22L2524.31 1016.32C2525.69 1016.62 2527.61 1016.98 2528.69 1016.98ZM2582.15 1003L2562.89 982.36L2578.85 961.66H2572.19L2558.33 979.72V961.66H2552.93V1003H2558.33V985.3L2574.89 1003H2582.15ZM2587.21 1003H2609.59V997.96H2592.67V961.66H2587.21V1003ZM2663.72 1003L2658.62 961.66H2653.7L2639 992.32L2624.24 961.66H2619.32L2614.28 1003H2619.62L2623.4 971.5L2636.66 998.5H2641.4L2654.54 971.5L2658.38 1003H2663.72ZM2697.17 961.66V993.04L2678.21 961.66H2672.81V1003H2678.27V971.5L2697.35 1003H2702.63V961.66H2697.17ZM2732.12 1003.6C2743.94 1003.6 2753.12 994.12 2753.12 982.42C2753.12 970.66 2743.94 961.18 2732.12 961.18C2720.36 961.18 2711.24 970.66 2711.24 982.42C2711.24 994.12 2720.36 1003.6 2732.12 1003.6ZM2732.12 998.56C2723.42 998.56 2716.7 991.24 2716.7 982.42C2716.7 973.54 2723.42 966.22 2732.12 966.22C2740.94 966.22 2747.66 973.54 2747.66 982.42C2747.66 991.24 2740.94 998.56 2732.12 998.56ZM2222.2 1033.66H2205.76V1075H2211.22V1059.46H2222.2C2230.96 1059.46 2234.5 1053.1 2234.5 1046.56C2234.5 1040.14 2230.96 1033.66 2222.2 1033.66ZM2221.84 1054.36H2211.22V1038.7H2222.14C2227.06 1038.7 2229.04 1042.72 2229.04 1046.56C2229.04 1050.52 2227 1054.36 2221.84 1054.36ZM2281.38 1054.42C2281.38 1042.66 2272.2 1033.18 2260.38 1033.18C2248.62 1033.18 2239.5 1042.66 2239.5 1054.42C2239.5 1066.12 2248.62 1075.6 2260.38 1075.6C2262.72 1075.6 2265 1075.24 2267.04 1074.52L2271.66 1081.9L2275.86 1079.32L2271.54 1072.42C2277.48 1068.7 2281.38 1062.04 2281.38 1054.42ZM2260.38 1070.56C2251.68 1070.56 2244.96 1063.24 2244.96 1054.42C2244.96 1045.54 2251.68 1038.22 2260.38 1038.22C2269.2 1038.22 2275.92 1045.54 2275.92 1054.42C2275.92 1060.12 2273.16 1065.16 2268.78 1068.04L2263.98 1060.36L2259.84 1062.94L2264.28 1070.08C2263.02 1070.38 2261.76 1070.56 2260.38 1070.56ZM2311.74 1075H2318.28L2307.3 1059.34C2315.1 1058.56 2318.1 1052.56 2318.1 1046.56C2318.1 1040.14 2314.62 1033.66 2305.62 1033.66H2290.08V1075H2295.54V1059.4H2300.94L2311.74 1075ZM2295.54 1038.7H2305.74C2309.94 1038.7 2312.64 1041.94 2312.64 1046.56C2312.64 1051.24 2310.24 1054.42 2304.18 1054.42H2295.54V1038.7ZM2339.05 1075.6C2347.63 1075.6 2352.85 1069.78 2352.85 1063.36C2352.85 1057.48 2348.65 1053.64 2341.63 1051.9L2336.23 1050.58C2330.71 1049.26 2330.23 1046.26 2330.23 1044.82C2330.23 1040.74 2334.07 1038.22 2338.21 1038.22C2342.65 1038.22 2346.07 1041.04 2346.07 1045.18H2351.47C2351.47 1037.8 2345.65 1033.18 2338.39 1033.18C2331.19 1033.18 2324.77 1037.74 2324.77 1044.88C2324.77 1048.24 2326.15 1053.4 2334.91 1055.5L2340.25 1056.82C2343.73 1057.72 2347.39 1059.52 2347.39 1063.54C2347.39 1067.2 2344.45 1070.56 2339.05 1070.56C2333.53 1070.56 2330.05 1066.84 2329.87 1063.18H2324.47C2324.53 1069.6 2330.35 1075.6 2339.05 1075.6ZM2386.84 1033.66H2356.18V1038.7H2368.78V1075H2374.24V1038.7H2386.84V1033.66ZM2408.37 1075.6C2416.53 1075.6 2423.43 1070.2 2423.43 1060.84V1033.66H2417.97V1060.84C2417.97 1067.32 2413.53 1070.38 2408.37 1070.38C2403.21 1070.38 2398.77 1067.32 2398.77 1060.84V1033.66H2393.31V1060.84C2393.31 1070.2 2400.21 1075.6 2408.37 1075.6ZM2454.79 1033.66L2445.31 1065.88L2435.83 1033.66H2430.19L2442.73 1075H2447.95L2460.37 1033.66H2454.79ZM2509.37 1033.66L2498.87 1066.24L2491.13 1039.3H2486.99L2479.31 1066.36L2468.75 1033.66H2462.93L2476.91 1075H2481.65L2489.03 1048.9L2496.47 1075H2501.21L2515.19 1033.66H2509.37ZM2552.11 1075L2537.59 1052.8L2550.49 1033.66H2544.01L2534.35 1048.36L2524.75 1033.66H2518.27L2531.11 1052.74L2516.65 1075H2523.13L2534.35 1057.24L2545.57 1075H2552.11ZM2583.4 1033.66L2571.34 1050.58L2559.34 1033.66H2552.86L2568.58 1055.92V1075H2574.04V1055.92L2589.94 1033.66H2583.4ZM2621.26 1033.66H2593.24V1038.7H2614.42L2592.46 1070.32V1075H2621.26V1069.96H2599.18L2621.26 1038.34V1033.66ZM2639.1 1035.28L2625.72 1041.28V1046.32L2634.06 1042.9V1075H2639.28V1035.28H2639.1ZM2656.84 1069.96L2667.64 1057C2670.22 1053.94 2672.2 1049.92 2672.2 1046.86C2672.2 1039.9 2667.28 1035.28 2659.9 1035.28C2653.18 1035.28 2648.5 1039.24 2647.72 1045.18L2652.4 1046.2C2652.7 1042.66 2655.64 1040.26 2659.9 1040.26C2664.16 1040.26 2666.98 1042.9 2666.98 1046.86C2666.98 1048.66 2665.3 1051.84 2662.84 1054.84L2648.08 1072.66V1075H2672.74V1069.96H2656.84ZM2697.26 1053.94C2700.32 1052.5 2702.18 1049.44 2702.18 1045.72C2702.18 1039.42 2697.62 1035.28 2690.78 1035.28C2686.34 1035.28 2682.08 1037.56 2680.1 1040.98L2683.7 1043.98C2685.2 1041.7 2687.96 1040.26 2690.66 1040.26C2694.44 1040.26 2696.96 1042.48 2696.96 1045.84C2696.96 1049.38 2694.26 1051.84 2690.12 1051.84H2686.4V1056.34H2690.48C2695.34 1056.34 2698.82 1059.28 2698.82 1063.72C2698.82 1067.86 2695.22 1070.62 2690.3 1070.62C2686.94 1070.62 2683.88 1068.46 2682.14 1064.92L2677.82 1067.38C2680.16 1072.48 2684.96 1075.54 2690.48 1075.54C2698.46 1075.54 2704.1 1070.74 2704.1 1063.54C2704.1 1058.92 2701.34 1055.26 2697.26 1053.94ZM2738.81 1061.98H2733.23V1035.76H2732.33L2707.97 1065.76V1066.9H2728.01V1075H2733.23V1066.9H2738.81V1061.98ZM2716.73 1061.98L2728.01 1048.48V1061.98H2716.73ZM2226.7 1118.98V1123.36C2224.84 1120.06 2220.88 1118.38 2216.68 1118.38C2209 1118.38 2202.7 1124.08 2202.7 1132.96C2202.7 1141.78 2209.06 1147.6 2216.74 1147.6C2220.76 1147.6 2224.84 1145.8 2226.7 1142.56V1147H2231.92V1118.98H2226.7ZM2217.16 1142.68C2212.06 1142.68 2207.98 1138.48 2207.98 1132.9C2207.98 1127.26 2212.06 1123.3 2217.16 1123.3C2221.78 1123.3 2226.7 1126.84 2226.7 1132.9C2226.7 1138.9 2222.2 1142.68 2217.16 1142.68ZM2256.3 1118.38C2252.1 1118.38 2248.14 1120.06 2246.28 1123.36V1103.68H2241.06V1147H2246.28V1142.56C2248.14 1145.8 2252.22 1147.6 2256.24 1147.6C2263.92 1147.6 2270.28 1141.78 2270.28 1132.96C2270.28 1124.08 2263.98 1118.38 2256.3 1118.38ZM2255.76 1142.68C2250.78 1142.68 2246.28 1138.9 2246.28 1132.9C2246.28 1126.84 2251.2 1123.3 2255.76 1123.3C2260.92 1123.3 2265 1127.26 2265 1132.9C2265 1138.48 2260.92 1142.68 2255.76 1142.68ZM2290.65 1147.54C2295.03 1147.54 2298.87 1145.86 2301.33 1143.1L2298.03 1139.68C2296.29 1141.48 2293.77 1142.62 2290.83 1142.62C2285.31 1142.62 2280.87 1138.72 2280.87 1132.96C2280.87 1127.2 2285.31 1123.3 2290.83 1123.3C2293.77 1123.3 2296.29 1124.44 2298.03 1126.24L2301.33 1122.82C2298.87 1120.12 2295.03 1118.38 2290.65 1118.38C2282.61 1118.38 2275.59 1124.08 2275.59 1132.96C2275.59 1141.84 2282.61 1147.54 2290.65 1147.54ZM2329.36 1103.68V1123.36C2327.5 1120.06 2323.54 1118.38 2319.34 1118.38C2311.66 1118.38 2305.36 1124.08 2305.36 1132.96C2305.36 1141.78 2311.72 1147.6 2319.4 1147.6C2323.42 1147.6 2327.5 1145.8 2329.36 1142.56V1147H2334.58V1103.68H2329.36ZM2319.82 1142.68C2314.72 1142.68 2310.64 1138.48 2310.64 1132.9C2310.64 1127.26 2314.72 1123.3 2319.82 1123.3C2324.44 1123.3 2329.36 1126.84 2329.36 1132.9C2329.36 1138.9 2324.86 1142.68 2319.82 1142.68ZM2370.12 1132.9C2370.12 1124.02 2364.18 1118.38 2356.2 1118.38C2348.22 1118.38 2341.8 1124.02 2341.8 1132.9C2341.8 1141.78 2348.22 1147.6 2356.2 1147.6C2361.6 1147.6 2366.64 1145.08 2369.1 1140.22L2364.54 1138.42C2362.98 1141.24 2359.8 1142.68 2356.38 1142.68C2351.58 1142.68 2347.98 1140.22 2347.2 1135.24H2370C2370.06 1134.46 2370.12 1133.68 2370.12 1132.9ZM2347.26 1130.74C2348.1 1125.7 2351.46 1123.3 2356.2 1123.3C2360.82 1123.3 2364.24 1125.94 2364.9 1130.74H2347.26ZM2390.51 1108.6H2392.61V1103.68H2389.61C2382.11 1103.68 2379.05 1108.72 2379.05 1116.04V1118.98H2373.65V1123.48H2379.05V1147H2384.27V1123.48H2390.81V1118.98H2384.27V1115.32C2384.21 1111.66 2385.53 1108.6 2390.51 1108.6ZM2418.07 1118.98V1123.36C2416.21 1120.12 2412.25 1118.38 2408.05 1118.38C2400.37 1118.38 2394.07 1124.08 2394.07 1132.96C2394.07 1141.78 2400.43 1147.6 2408.11 1147.6C2412.13 1147.6 2416.21 1145.8 2418.07 1142.56V1143.1C2418.07 1152.58 2414.23 1156.06 2408.05 1156.06C2404.93 1156.06 2401.63 1154.32 2399.89 1151.14L2395.45 1153.48C2398.21 1158.4 2402.95 1160.98 2408.05 1160.98C2417.29 1160.98 2423.29 1156 2423.29 1142.74V1118.98H2418.07ZM2408.53 1142.68C2403.43 1142.68 2399.35 1138.48 2399.35 1132.9C2399.35 1127.26 2403.43 1123.3 2408.53 1123.3C2413.15 1123.3 2418.07 1126.84 2418.07 1132.9C2418.07 1138.9 2413.57 1142.68 2408.53 1142.68ZM2446.95 1118.38C2443.89 1118.38 2439.33 1119.82 2437.65 1123.24V1103.68H2432.43V1147H2437.65V1131.82C2437.65 1125.76 2442.33 1123.54 2446.23 1123.54C2450.13 1123.54 2453.01 1126.42 2453.01 1131.1V1147H2458.23V1130.8C2458.29 1122.94 2453.91 1118.38 2446.95 1118.38ZM2469.52 1112.14C2471.56 1112.14 2473.24 1110.64 2473.24 1108.66C2473.24 1106.68 2471.56 1105.18 2469.52 1105.18C2467.54 1105.18 2465.86 1106.68 2465.86 1108.66C2465.86 1110.64 2467.54 1112.14 2469.52 1112.14ZM2466.94 1147H2472.16V1118.98H2466.94V1147ZM2484.3 1112.14C2486.34 1112.14 2488.02 1110.64 2488.02 1108.66C2488.02 1106.68 2486.34 1105.18 2484.3 1105.18C2482.32 1105.18 2480.64 1106.68 2480.64 1108.66C2480.64 1110.64 2482.32 1112.14 2484.3 1112.14ZM2473.32 1160.62H2476.92C2484.48 1160.62 2486.94 1155.58 2486.94 1148.62V1118.98H2481.72V1148.56C2481.78 1151.86 2481.12 1155.7 2476.5 1155.7H2473.32V1160.62ZM2521.15 1147L2506.21 1131.1L2518.21 1118.98H2510.95L2501.23 1128.88V1103.68H2496.01V1147H2501.23V1133.32L2514.13 1147H2521.15ZM2525.19 1147H2530.41V1103.68H2525.19V1147ZM2572.72 1118.38C2569.9 1118.38 2565.46 1119.22 2562.94 1124.2C2561.32 1120.48 2557.78 1118.38 2553.7 1118.38C2549.74 1118.38 2546.14 1120.24 2544.7 1123.24V1118.98H2539.48V1147H2544.7V1131.82C2544.7 1125.88 2548.66 1123.42 2552.62 1123.42C2556.34 1123.42 2558.92 1126.36 2558.92 1131.1V1147H2564.14V1132.72L2564.2 1132.96C2563.72 1127.56 2566.72 1123.36 2571.7 1123.42C2575.78 1123.42 2578.36 1126.42 2578.36 1131.1V1147H2583.58V1130.8C2583.58 1122.94 2579.74 1118.38 2572.72 1118.38ZM2606.79 1118.38C2603.73 1118.38 2599.17 1119.82 2597.49 1123.24V1118.98H2592.27V1147H2597.49V1131.82C2597.49 1125.76 2602.17 1123.54 2606.07 1123.54C2609.97 1123.54 2612.85 1126.42 2612.85 1131.1V1147H2618.07V1130.8C2618.13 1122.94 2613.75 1118.38 2606.79 1118.38ZM2639.51 1147.6C2647.49 1147.6 2654.21 1141.78 2654.21 1132.9C2654.21 1124.02 2647.49 1118.38 2639.51 1118.38C2631.53 1118.38 2624.87 1124.02 2624.87 1132.9C2624.87 1141.78 2631.53 1147.6 2639.51 1147.6ZM2639.51 1142.68C2634.41 1142.68 2630.15 1138.72 2630.15 1132.9C2630.15 1127.14 2634.41 1123.3 2639.51 1123.3C2644.67 1123.3 2648.99 1127.14 2648.99 1132.9C2648.99 1138.72 2644.67 1142.68 2639.51 1142.68ZM2219.74 1190.38C2215.72 1190.38 2211.64 1192.18 2209.78 1195.42V1190.98H2204.56V1232.62H2209.78V1214.62C2211.64 1217.92 2215.6 1219.6 2219.8 1219.6C2227.48 1219.6 2233.78 1213.9 2233.78 1205.02C2233.78 1196.2 2227.42 1190.38 2219.74 1190.38ZM2219.26 1214.68C2214.7 1214.68 2209.78 1211.14 2209.78 1205.08C2209.78 1199.08 2214.28 1195.3 2219.26 1195.3C2224.42 1195.3 2228.5 1199.5 2228.5 1205.08C2228.5 1210.72 2224.42 1214.68 2219.26 1214.68ZM2263.2 1190.98V1195.42C2261.34 1192.18 2257.26 1190.38 2253.24 1190.38C2245.56 1190.38 2239.2 1196.2 2239.2 1205.02C2239.2 1213.9 2245.5 1219.6 2253.18 1219.6C2257.38 1219.6 2261.34 1217.92 2263.2 1214.62V1232.62H2268.42V1190.98H2263.2ZM2253.66 1214.68C2248.56 1214.68 2244.48 1210.72 2244.48 1205.08C2244.48 1199.5 2248.56 1195.3 2253.66 1195.3C2258.7 1195.3 2263.2 1199.08 2263.2 1205.08C2263.2 1211.14 2258.28 1214.68 2253.66 1214.68ZM2290.71 1190.38C2286.99 1190.38 2284.29 1192.42 2282.85 1197.34V1190.98H2277.57V1219H2282.85V1208.74C2282.85 1201.36 2285.07 1195.42 2290.65 1195.42C2291.73 1195.42 2293.23 1195.66 2294.73 1196.38L2295.57 1191.46C2294.73 1190.92 2292.69 1190.38 2290.71 1190.38ZM2308.64 1219.6C2314.46 1219.6 2319.5 1216.42 2319.5 1211.2C2319.5 1208.02 2318 1204.54 2312.18 1203.1L2308.04 1202.08C2306.24 1201.66 2304.44 1200.64 2304.44 1198.72C2304.44 1196.56 2306.24 1194.94 2308.94 1194.94C2311.16 1194.94 2313.38 1196.38 2313.44 1198.54H2318.48C2318.48 1192.9 2313.56 1190.38 2308.82 1190.38C2303.18 1190.38 2299.22 1193.92 2299.22 1198.54C2299.22 1203.04 2301.92 1205.32 2306.6 1206.58L2310.44 1207.48C2312.66 1207.96 2314.28 1209.04 2314.28 1211.14C2314.28 1213.42 2312.18 1215.04 2308.64 1215.04C2305.22 1215.04 2303.12 1213.06 2303.06 1210.66H2298.2C2298.44 1216.42 2303.6 1219.6 2308.64 1219.6ZM2339.99 1190.98H2333.93V1180.36H2328.71V1190.98H2323.67V1195.48H2328.71V1219H2333.93V1195.48H2339.99V1190.98ZM2366.05 1190.98V1206.16C2365.99 1212.22 2361.31 1214.44 2357.41 1214.44C2353.51 1214.44 2350.69 1211.56 2350.69 1206.88V1190.98H2345.47V1207.18C2345.41 1215.04 2349.73 1219.6 2356.75 1219.6C2359.87 1219.6 2364.37 1218.1 2366.05 1214.62V1219H2371.27V1190.98H2366.05ZM2399.48 1190.98L2390.9 1212.34L2382.26 1190.98H2376.68L2388.32 1219H2393.42L2405.12 1190.98H2399.48ZM2446.22 1190.98L2439.08 1210.9L2431.88 1190.98H2426.78L2419.64 1210.9L2412.5 1190.98H2406.86L2417.54 1219H2421.86L2429.3 1198.18L2437.04 1219H2441.42L2451.86 1190.98H2446.22ZM2481.63 1219L2470.59 1203.64L2479.71 1190.98H2473.35L2467.47 1199.32L2461.59 1190.98H2455.29L2464.35 1203.58L2453.25 1219H2459.49L2467.47 1208.02L2475.39 1219H2481.63ZM2505.89 1190.98L2497.31 1211.62L2488.85 1190.98H2483.21L2494.43 1218.22L2488.61 1232.62H2494.13L2511.53 1190.98H2505.89ZM2539.3 1190.98H2515.6V1195.9H2531.68L2514.7 1214.68V1219H2539.3V1214.08H2522.02L2539.3 1195.3V1190.98ZM2550.23 1207.06H2555.33L2555.39 1204.66C2555.39 1201.78 2557.19 1200.94 2559.71 1200.16C2564.39 1198.72 2568.41 1194.64 2568.41 1188.88C2568.41 1181.68 2563.13 1177.18 2556.65 1177.18C2550.29 1177.18 2544.35 1181.98 2544.29 1189.6H2549.27C2549.51 1184.74 2553.05 1182.1 2556.65 1182.1C2560.37 1182.1 2563.19 1184.5 2563.19 1188.88C2563.19 1192.12 2560.91 1194.22 2558.21 1195.24L2556.17 1195.96C2552.63 1197.28 2550.05 1199.26 2550.23 1204.66V1207.06ZM2552.75 1219.54C2554.85 1219.54 2556.59 1217.98 2556.59 1215.88C2556.59 1213.78 2554.85 1212.22 2552.75 1212.22C2550.65 1212.22 2548.91 1213.78 2548.91 1215.88C2548.91 1217.98 2550.65 1219.54 2552.75 1219.54ZM2576.31 1207.06H2580.45L2580.99 1177.66H2575.77L2576.31 1207.06ZM2578.29 1219.6C2580.39 1219.6 2582.19 1218.04 2582.19 1215.94C2582.19 1213.84 2580.39 1212.28 2578.29 1212.28C2576.25 1212.28 2574.51 1213.84 2574.51 1215.94C2574.51 1218.04 2576.25 1219.6 2578.29 1219.6ZM2621.35 1214.74C2616.91 1214.74 2616.13 1210.66 2616.13 1206.34V1198.42H2621.35V1194.22H2616.13V1189.18H2610.85V1194.16H2603.53C2598.61 1194.16 2596.57 1190.92 2596.57 1187.86C2596.57 1184.5 2598.97 1182.22 2602.57 1182.22C2605.09 1182.22 2607.01 1183.36 2608.27 1185.46L2612.59 1182.82C2610.55 1179.34 2606.95 1177.18 2602.57 1177.18C2596.03 1177.18 2591.47 1182.04 2591.47 1187.56C2591.47 1191.1 2593.33 1194.22 2595.73 1195.9C2591.89 1198.18 2589.19 1201.84 2589.19 1206.52C2589.19 1213.66 2594.71 1219.6 2602.69 1219.6C2606.83 1219.6 2610.85 1217.98 2612.95 1214.98C2613.79 1217.74 2617.33 1219.54 2621.29 1219.6H2622.37V1214.74H2621.35ZM2602.63 1214.56C2597.59 1214.56 2594.29 1210.96 2594.29 1206.34C2594.29 1202.02 2597.29 1198.42 2603.95 1198.42H2610.85V1206.76C2610.67 1211.14 2607.49 1214.56 2602.63 1214.56Z" fill="#211526"/>
<path d="M2211.04 421.56H2222.2L2226.16 433.44C2227.06 436.26 2226.1 437.34 2223.7 437.52L2221.78 437.64L2221.6 438H2237.32L2237.14 437.64L2235.46 437.52C2232.7 437.34 2232.04 436.38 2230.48 431.7L2219.56 399.84H2219.02C2218.36 401.28 2217.46 402.42 2215.96 402.96L2216.56 404.64L2209.12 425.34C2205.16 436.32 2204.56 437.04 2200.9 437.52L2199.94 437.64L2199.76 438H2212.78L2212.6 437.64L2211.34 437.52C2205.82 437.04 2205.94 436.26 2208.16 429.66L2211.04 421.56ZM2221.96 420.96H2211.28L2216.8 405.6H2216.86C2217.88 408.48 2218.72 411.06 2219.44 413.28L2221.96 420.96ZM2251.9 417L2248.96 417.06V401.22H2252.08C2258.38 401.22 2261.56 403.86 2261.56 409.08C2261.56 413.58 2258.38 416.82 2251.9 417ZM2253.16 437.46L2248.96 436.38V417.84C2249.92 417.66 2251.36 417.66 2252.74 417.66C2259.28 417.66 2263.78 422.04 2263.78 427.92C2263.78 432.48 2261.08 436.98 2254.48 437.28C2254.66 437.28 2254.36 437.28 2253.94 437.34C2253.76 437.4 2253.46 437.4 2253.16 437.46ZM2239.12 437.64L2238.94 438H2253.4C2263.48 438 2269 433.8 2269 427.62C2269 422.16 2264.5 417.72 2255.56 417.24V417.06C2264.08 415.8 2266.9 412.56 2266.9 408.48C2266.9 403.92 2262.88 400.5 2253.22 400.5H2239L2239.18 400.86L2240.68 401.04C2243.8 401.28 2244.16 401.46 2244.16 401.88V436.44C2244.16 436.86 2243.38 437.22 2241.28 437.4L2239.12 437.64ZM2293.63 438.9C2297.95 438.9 2302.87 437.52 2305.09 436.38L2307.13 435.96L2309.29 426.84H2308.93L2307.43 429.36C2304.25 434.94 2300.83 438.24 2293.81 438.24C2284.69 438.24 2278.09 430.44 2278.09 418.92C2278.09 408.54 2283.85 400.2 2293.93 400.2C2297.77 400.2 2301.01 401.28 2302.63 402.54L2307.61 411.66H2307.97L2307.49 400.62L2304.25 402.18C2302.03 400.98 2298.13 399.54 2293.99 399.54C2281.33 399.54 2272.81 407.88 2272.81 419.4C2272.81 431.16 2281.51 438.9 2293.63 438.9ZM2327.41 437.34L2322.91 436.26V401.04H2326.81C2338.63 401.04 2343.85 409.56 2343.85 419.82C2343.85 428.82 2338.45 437.16 2327.41 437.34ZM2313.07 437.64L2312.89 438H2325.97C2340.61 438 2349.01 429.72 2349.01 418.44C2349.01 407.58 2341.57 400.14 2327.71 400.32L2312.95 400.5L2313.13 400.86L2314.63 401.04C2317.75 401.28 2318.11 401.46 2318.11 401.88V436.44C2318.11 436.86 2317.33 437.22 2315.23 437.4L2313.07 437.64ZM2352.03 437.64L2351.85 438H2380.77L2383.23 426.66L2382.87 426.6L2382.51 427.44C2380.23 432.96 2377.83 437.22 2370.69 437.4L2361.99 437.16V418.68L2366.43 418.8C2372.37 418.98 2373.45 419.46 2373.75 423.72L2373.81 424.5L2374.17 424.56L2375.37 412.44L2375.01 412.38L2374.71 413.22C2373.57 417.18 2372.25 417.78 2366.85 418.08H2361.99V401.04H2369.73C2375.91 401.04 2377.89 404.1 2380.11 410.34L2380.47 411.18H2380.77L2379.63 400.5H2351.91L2352.09 400.86L2353.71 401.04C2356.83 401.28 2357.19 401.46 2357.19 401.88V436.44C2357.19 436.86 2356.29 437.22 2354.19 437.4L2352.03 437.64ZM2386.66 437.64L2386.48 438H2403.22L2403.04 437.58L2400.1 437.4C2396.98 437.22 2396.62 436.98 2396.62 436.56V419.04L2400.46 419.16C2406.4 419.34 2407.48 419.82 2407.78 424.08L2407.84 424.86L2408.2 424.92L2409.4 412.86L2409.04 412.8L2408.74 413.58C2407.6 417.54 2406.28 418.14 2400.88 418.44H2396.62V401.04H2403.94C2411.32 401.04 2413 404.64 2415.1 410.7L2415.4 411.48L2415.76 411.42L2414.56 400.5H2386.54L2386.72 400.86L2388.46 401.04C2391.58 401.28 2391.82 401.46 2391.82 401.88V436.44C2391.82 436.86 2391.16 437.22 2389.06 437.4L2386.66 437.64ZM2439.93 438.84C2444.91 438.84 2452.17 436.8 2456.67 435.18L2456.61 434.94L2453.25 435.3V423.24C2453.25 422.82 2454.03 422.46 2456.13 422.28L2458.29 422.04L2458.47 421.68H2442.45L2442.63 422.04L2444.97 422.22C2448.09 422.4 2448.63 422.64 2448.63 423.06V436.08C2447.01 437.34 2443.65 438.18 2440.53 438.18C2431.65 438.18 2424.63 430.56 2424.63 419.1C2424.63 408.66 2430.45 400.2 2440.35 400.2C2444.43 400.2 2447.43 401.28 2449.05 402.54L2453.61 411.54H2453.97L2453.73 400.62L2450.67 402.06C2448.51 400.86 2444.67 399.54 2440.53 399.54C2427.87 399.54 2419.35 408.06 2419.35 419.58C2419.35 431.22 2427.99 438.84 2439.93 438.84ZM2460.49 437.64L2460.31 438H2475.73L2475.55 437.64L2473.81 437.46C2470.69 437.22 2470.33 437.04 2470.33 436.62V419.22H2490.55V436.44C2490.55 436.86 2489.77 437.22 2487.67 437.4L2485.27 437.64L2485.09 438H2500.51L2500.33 437.64L2498.83 437.46C2495.71 437.22 2495.35 437.04 2495.35 436.62V402.06C2495.35 401.64 2496.13 401.28 2498.23 401.1L2500.39 400.86L2500.57 400.5H2485.15L2485.33 400.86L2487.07 401.04C2490.19 401.28 2490.55 401.46 2490.55 401.88V418.62H2470.33V402.06C2470.33 401.64 2471.11 401.28 2473.21 401.1L2475.61 400.86L2475.79 400.5H2460.37L2460.55 400.86L2462.05 401.04C2465.17 401.28 2465.53 401.46 2465.53 401.88V436.44C2465.53 436.86 2464.75 437.22 2462.65 437.4L2460.49 437.64ZM2503.97 437.64L2503.79 438H2519.45L2519.27 437.64L2517.53 437.46C2514.41 437.22 2514.05 437.04 2514.05 436.62V402.06C2514.05 401.64 2514.83 401.28 2516.93 401.1L2519.33 400.86L2519.51 400.5H2503.85L2504.03 400.86L2505.77 401.04C2508.89 401.28 2509.25 401.46 2509.25 401.88V436.44C2509.25 436.86 2508.47 437.22 2506.37 437.4L2503.97 437.64ZM2521.93 447.96C2527.39 447.96 2532.79 439.74 2532.79 437.4V402.06C2532.79 401.64 2533.57 401.28 2535.67 401.1L2538.07 400.86L2538.25 400.5H2522.59L2522.77 400.86L2524.51 401.04C2527.63 401.22 2527.99 401.46 2527.99 401.88V436.44C2527.99 443.88 2525.71 447.54 2522.35 447.12C2524.57 445.2 2523.55 441.6 2520.55 441.6C2518.69 441.6 2517.43 442.98 2517.43 444.66C2517.43 446.64 2519.29 447.96 2521.93 447.96ZM2541.05 437.64L2540.87 438H2556.59L2556.41 437.64L2554.37 437.46C2551.25 437.22 2550.89 437.04 2550.89 436.62V422.94L2557.01 416.82L2566.31 432.54C2568.17 435.84 2568.29 437.34 2565.47 437.52L2563.73 437.64L2563.55 438H2578.85L2578.67 437.64L2577.29 437.52C2574.71 437.22 2574.53 437.16 2571.89 432.9L2560.19 413.58L2561.09 412.68C2572.19 401.34 2571.59 401.4 2576.21 400.92L2576.93 400.86L2577.11 400.5H2562.47L2562.59 400.86L2564.93 401.04C2570.39 401.52 2570.39 402.3 2560.73 412.14L2550.89 422.1V402.06C2550.89 401.64 2551.67 401.28 2553.77 401.1L2556.47 400.86L2556.65 400.5H2540.93L2541.11 400.86L2542.73 401.04C2545.85 401.28 2546.09 401.46 2546.09 401.88V436.44C2546.09 436.86 2545.43 437.22 2543.33 437.4L2541.05 437.64ZM2580.55 437.64L2580.37 438H2607.49L2609.83 426.36H2609.47L2609.11 427.14C2606.59 433.2 2604.61 437.46 2597.47 437.46L2590.39 437.16V402.06C2590.39 401.64 2591.17 401.28 2593.27 401.1L2596.87 400.86L2597.05 400.5H2580.43L2580.61 400.86L2582.23 401.04C2585.35 401.28 2585.59 401.46 2585.59 401.88V436.44C2585.59 436.86 2584.93 437.22 2582.83 437.4L2580.55 437.64ZM2612.83 437.64L2612.65 438H2626.45L2626.27 437.64L2625.19 437.58C2620.93 437.4 2619.37 436.5 2619.37 435.6L2619.97 402.6C2620.27 403.02 2620.75 403.74 2621.05 404.64L2633.95 438H2634.37L2648.35 403.08H2648.41L2649.07 436.44C2649.07 436.86 2648.59 437.22 2646.61 437.4L2643.73 437.64L2643.55 438H2659.09L2658.91 437.64L2657.17 437.46C2654.23 437.16 2653.81 437.04 2653.81 436.62L2653.21 402.06C2653.21 401.64 2653.87 401.28 2655.85 401.1L2658.85 400.86L2659.03 400.5H2648.71L2636.29 431.52H2636.23L2624.35 400.5H2613.85L2614.03 400.86L2615.65 400.98C2617.27 401.16 2618.71 401.34 2619.49 401.88L2618.65 435.48C2618.65 436.62 2617.57 437.34 2614.21 437.58L2612.83 437.64ZM2668.11 404.4L2694.81 438.3H2695.23L2695.35 403.02C2695.35 401.88 2697.03 401.22 2699.61 400.98L2700.81 400.86L2700.99 400.5H2688.39L2688.57 400.86L2689.71 400.98C2693.37 401.4 2694.69 402 2694.69 402.9L2694.75 430.5H2694.69L2671.11 400.44H2661.03L2661.21 400.8L2661.99 400.92C2665.17 401.4 2666.67 402.9 2667.57 403.86L2667.45 435.42C2667.45 436.56 2665.77 437.28 2663.19 437.52L2661.99 437.64L2661.81 438H2674.41L2674.23 437.64L2673.09 437.52C2669.43 437.22 2668.11 436.44 2668.11 435.54L2668.05 404.4H2668.11ZM2722.99 438.18C2714.35 438.18 2708.29 430.5 2708.29 419.4C2708.29 407.64 2713.93 400.2 2722.69 400.2C2731.15 400.2 2737.39 408.06 2737.39 419.22C2737.39 430.92 2731.87 438.18 2722.99 438.18ZM2722.75 438.84C2733.37 438.84 2742.67 429.66 2742.67 419.28C2742.67 407.64 2734.21 399.6 2722.87 399.6C2712.31 399.6 2703.01 409.02 2703.01 419.34C2703.01 430.86 2711.47 438.84 2722.75 438.84ZM2216.68 491.16C2214.1 491.16 2212.72 490.92 2211.46 490.5V473.1L2215.72 473.04C2223.16 472.86 2225.8 476.28 2225.8 482.16C2225.8 487.92 2222.44 491.16 2216.68 491.16ZM2200.78 509.64L2200.6 510H2218.06L2217.88 509.64L2214.94 509.46C2211.82 509.28 2211.46 509.04 2211.46 508.62V491.4C2212.72 491.58 2214.82 491.82 2216.68 491.82C2225.08 491.82 2230.9 487.56 2230.9 481.44C2230.9 475.74 2226.46 472.5 2217.34 472.5H2200.66L2200.84 472.86L2203.18 473.04C2206.3 473.28 2206.66 473.46 2206.66 473.88V508.44C2206.66 508.86 2205.88 509.22 2203.78 509.4L2200.78 509.64ZM2254.53 510.18C2245.89 510.18 2239.83 502.5 2239.83 491.4C2239.83 479.7 2245.47 472.2 2254.23 472.2C2262.69 472.2 2268.93 480.18 2268.93 491.22C2268.93 502.92 2263.41 510.18 2254.53 510.18ZM2270.31 520.74C2272.23 520.74 2275.77 520.26 2277.27 519.78L2277.15 519.42C2268.81 520.38 2263.53 519.3 2259.69 510C2267.85 507.6 2274.21 499.86 2274.21 491.28C2274.21 479.7 2265.75 471.6 2254.41 471.6C2243.85 471.6 2234.55 481.02 2234.55 491.34C2234.55 502.62 2242.83 510.66 2254.05 510.84C2257.41 519.48 2264.19 520.74 2270.31 520.74ZM2292.68 490.68C2290.7 490.68 2289.2 490.38 2287.28 489.72V473.22L2290.28 473.1C2297.54 472.8 2301.32 476.4 2301.32 481.98C2301.32 487.5 2297.96 490.68 2292.68 490.68ZM2276.6 509.64L2276.42 510H2293.28L2293.1 509.64L2290.76 509.46C2289.38 509.28 2287.28 509.1 2287.28 508.62V490.26C2288.9 490.8 2290.46 491.28 2292.08 491.46L2303.12 509.22L2303.54 510H2313.38L2313.14 509.64L2312.36 509.58C2309.54 509.4 2308.22 508.5 2305.82 504.84L2297.06 491.46C2302.34 490.32 2306.42 486.66 2306.42 482.1C2306.42 475.86 2301.32 472.5 2291.9 472.5H2276.48L2276.66 472.86L2279 473.04C2282.12 473.28 2282.48 473.46 2282.48 473.88V508.44C2282.48 508.86 2280.8 509.22 2279.6 509.4L2276.6 509.64ZM2326.19 510.84C2333.87 510.84 2339.33 505.14 2339.33 499.08C2339.33 492.6 2334.47 489.66 2328.35 487.56C2323.37 485.82 2319.65 483.9 2319.65 479.28C2319.65 475.2 2322.83 472.2 2327.27 472.2C2329.97 472.2 2331.71 473.1 2333.33 474.3L2337.29 481.5H2337.65L2337.11 472.32L2334.71 473.04C2332.73 472.32 2330.27 471.66 2327.33 471.66C2320.37 471.66 2316.05 476.46 2316.05 481.86C2316.05 487.68 2320.67 490.32 2325.95 492.06C2331.89 493.98 2335.31 496.5 2335.31 501.48C2335.31 506.52 2331.65 510.24 2326.25 510.24C2321.45 510.24 2318.09 508.2 2315.99 503.16L2314.73 500.22H2314.37L2314.97 508.74C2318.27 509.88 2322.65 510.84 2326.19 510.84ZM2350.72 509.64L2350.54 510H2367.4L2367.22 509.64L2364.88 509.46C2361.76 509.22 2361.4 509.04 2361.4 508.62V473.04H2365.18C2369.92 473.28 2372.62 475.74 2375.26 481.68L2375.62 482.46H2375.98L2374.18 472.5H2344.36L2341.9 482.46H2342.32L2342.74 481.68C2344.96 477.42 2348.14 473.34 2352.76 473.04H2356.6V508.44C2356.6 508.86 2355.82 509.22 2353.72 509.4L2350.72 509.64ZM2398.95 510.84C2408.49 510.84 2412.51 505.14 2412.57 495.24L2412.63 475.02C2412.63 473.88 2414.19 473.16 2416.77 472.92L2417.97 472.8L2418.15 472.44H2405.25L2405.43 472.8L2406.57 472.92C2410.23 473.34 2411.97 474 2411.97 474.9L2412.03 495.06C2412.03 504.48 2408.07 508.86 2400.81 508.86C2392.71 508.86 2389.11 505.02 2389.11 496.32V474.06C2389.11 473.64 2389.89 473.22 2391.99 473.04L2394.99 472.8L2395.17 472.44H2378.31L2378.49 472.8L2380.83 472.98C2383.95 473.22 2384.31 473.46 2384.31 473.88V497.1C2384.31 506.94 2388.63 510.84 2398.95 510.84ZM2423.98 478.74L2436.28 510.84H2436.7L2446.84 483.24C2450.2 473.94 2450.86 473.4 2454.34 472.92L2455.3 472.8L2455.48 472.44H2442.52L2442.7 472.8L2443.96 472.92C2449.48 473.58 2449.3 474.24 2447.08 480.78L2438.5 504.18H2438.44L2427.88 476.4C2426.86 473.52 2427.7 473.04 2430.34 472.86L2432.44 472.8L2432.62 472.44H2417.02L2417.2 472.8L2418.94 472.92C2421.94 473.1 2422.06 473.82 2423.98 478.74ZM2460.08 478.74L2472.02 510.84H2472.62L2483.42 483.48H2483.48L2493.74 510.84H2494.28L2504.3 483.24C2507.48 474.12 2507.96 473.46 2511.44 472.98L2512.4 472.86L2512.58 472.5H2499.62L2499.8 472.86L2501.06 472.98C2506.58 473.46 2506.76 474.78 2504.36 481.14L2496.02 504.42H2495.9L2485.58 476.4C2484.56 473.58 2485.34 473.1 2487.98 472.92L2489.84 472.86L2490.02 472.5H2474.48L2474.66 472.86L2476.34 472.98C2479.34 473.16 2479.88 474.18 2481.62 478.74L2483.12 482.76L2474.48 504.54H2474.36L2464.1 476.4C2463.08 473.52 2464.1 472.98 2466.56 472.92L2468.48 472.86L2468.66 472.5H2453.06L2453.18 472.86L2454.92 472.98C2457.86 473.16 2458.34 474.06 2460.08 478.74ZM2508.84 509.64L2508.66 510H2522.82L2522.64 509.64L2520.96 509.46C2516.82 508.98 2516.04 508.02 2520.06 501.9C2521.2 500.1 2522.28 498.54 2523.24 497.16C2524.86 494.76 2526.42 492.48 2526.42 492.48H2526.48L2535.48 506.16C2536.98 508.5 2536.62 509.52 2533.92 509.58L2531.64 509.64L2531.46 510H2547.12L2546.94 509.64L2545.32 509.52C2542.86 509.34 2542.44 508.32 2540.52 505.44C2538.42 502.32 2536.62 499.56 2535 497.1C2533.62 495 2532.24 493.02 2531.22 491.4C2530.62 490.5 2530.08 489.6 2529.54 488.82L2535.18 480.48C2539.5 473.94 2540.7 473.1 2544.42 472.92L2545.5 472.86L2545.68 472.5H2531.52L2531.7 472.86L2533.38 473.04C2537.58 473.52 2538.48 474.12 2534.52 480.3L2529.18 488.28H2529.12L2522.46 478.08C2519.88 473.88 2520.12 472.86 2522.88 472.86L2525.22 472.8L2525.34 472.5H2509.56L2509.8 472.86L2511.48 472.98C2513.94 473.16 2514.54 474.48 2517.42 478.8L2526.12 491.88L2519.46 501.72C2514.96 508.14 2513.82 509.28 2509.92 509.58L2508.84 509.64ZM2557.19 509.64L2557.01 510H2573.87L2573.69 509.64L2571.35 509.46C2568.23 509.22 2567.87 509.04 2567.87 508.62V492.3L2574.05 480.72C2577.53 473.88 2578.73 473.16 2581.73 472.98L2583.05 472.86L2583.23 472.5H2570.03L2570.21 472.86L2571.71 472.98C2576.45 473.46 2576.33 474.84 2573.21 480.96L2567.57 491.64H2567.45L2559.29 477.18C2557.55 474 2557.61 473.1 2560.79 472.92L2562.59 472.86L2562.77 472.5H2546.93L2547.11 472.86L2548.79 472.98C2551.49 473.16 2552.45 474.3 2554.19 477.48L2563.07 493.14V508.44C2563.07 508.86 2562.29 509.22 2560.19 509.4L2557.19 509.64ZM2585.77 509.82V510H2614.27L2616.19 497.82H2615.71L2615.35 498.66C2612.95 505.32 2610.55 509.46 2602.27 509.46L2591.59 509.34V509.22L2615.35 472.74V472.5H2588.17L2586.91 483.3H2587.27L2587.57 482.58C2589.61 477 2592.31 473.04 2599.75 473.04H2609.59V473.22L2585.77 509.82ZM2621.43 509.58L2621.25 510H2635.29L2635.11 509.58L2633.31 509.52C2630.49 509.34 2630.07 509.16 2630.07 508.68V481.26L2619.99 482.7L2619.81 483L2626.05 483.84V508.56C2626.05 509.28 2625.39 509.46 2623.47 509.52L2621.43 509.58ZM2638.19 509.52L2638.37 510H2659.91L2662.37 498.9L2661.95 498.84L2661.71 499.44C2659.85 504.24 2658.47 506.34 2657.51 506.34L2643.05 506.28V506.22C2652.83 498.06 2657.81 493.74 2657.81 488.28C2657.81 484.2 2654.45 481.02 2650.07 481.02C2645.45 481.02 2641.91 484.38 2639.21 489.48L2639.63 489.72C2641.97 485.64 2644.19 484.08 2647.73 484.08C2651.33 484.08 2653.85 486.66 2653.85 490.68C2653.85 495.72 2651.15 498.96 2638.19 509.52ZM2669.79 522.06C2678.37 522.06 2684.73 515.64 2684.73 508.92C2684.73 503.1 2680.71 498.42 2673.57 498.72V498.66C2677.71 496.14 2682.03 493.26 2682.03 488.52C2682.03 484.44 2678.61 481.02 2674.11 481.02C2669.37 481.02 2666.01 484.08 2663.43 489.36L2663.85 489.6C2665.77 485.76 2668.35 484.14 2671.77 484.14C2675.61 484.14 2678.13 486.72 2678.13 490.62C2678.13 495.6 2674.05 497.82 2666.67 502.62L2666.91 502.98C2668.35 502.44 2670.09 501.84 2671.95 501.84C2677.71 501.84 2681.01 505.74 2681.01 511.2C2681.01 517.68 2676.33 521.1 2671.83 521.1C2671.29 521.1 2670.57 521.04 2670.03 520.86C2669.73 520.8 2669.37 520.68 2669.07 520.56C2669.61 517.62 2668.11 515.16 2665.77 515.16C2664.15 515.16 2663.07 516.3 2663.07 517.92C2663.07 519.9 2665.17 522.06 2669.79 522.06ZM2702.29 506.1H2689.75L2702.23 487.32H2702.29V506.1ZM2702.29 509.4V521.04H2706.25V509.4H2712.25L2713.45 506.16L2706.25 506.1V481.62H2705.29L2686.87 509.22V509.4H2702.29ZM2209.96 580.08C2207.62 580.08 2205.88 578.34 2205.88 575.64C2205.88 572.7 2207.2 570.18 2215.72 568.08L2215.36 577.62C2213.74 579.24 2211.94 580.08 2209.96 580.08ZM2219.08 582.6C2221.6 582.6 2223.28 580.02 2224.36 578.76L2224.06 578.58C2223.16 579.48 2222.32 580.2 2221.36 580.2C2219.98 580.2 2219.2 579.48 2219.38 577.5L2219.98 564.54C2220.28 557.58 2217.76 555.78 2212.78 555.78C2208.22 555.78 2201.32 559.32 2201.32 562.38C2201.32 563.82 2202.4 564.72 2203.9 564.72C2205.52 564.72 2206.48 563.58 2206.48 562.38C2206.48 560.76 2204.98 559.8 2204.98 559.38C2204.98 558.66 2207.56 557.16 2209.96 557.16C2213.08 557.16 2216.08 558.84 2215.78 564.84L2215.72 567.48C2204.5 570.18 2201.62 573.06 2201.62 576.96C2201.62 580.02 2204.02 582.54 2207.62 582.54C2210.44 582.54 2212.96 580.5 2215.3 578.34V578.4C2215.48 580.98 2216.98 582.6 2219.08 582.6ZM2238.49 582.06C2235.13 582.06 2232.13 579.6 2230.75 576.54V562.32C2232.61 560.4 2234.77 558.78 2237.71 558.78C2242.81 558.78 2246.17 563.76 2246.17 570.06C2246.17 576.78 2243.35 582.06 2238.49 582.06ZM2226.61 547.44V583.14H2226.97L2229.79 580.68H2229.85C2231.71 581.7 2234.77 582.78 2237.89 582.78C2244.01 582.78 2250.91 577.5 2250.91 568.56C2250.91 561.18 2246.29 556.14 2240.29 556.14C2236.39 556.14 2233.45 558.54 2230.87 561.42L2230.75 561.3V541.56L2222.83 543.54L2222.77 543.84L2224.15 544.08C2226.25 544.38 2226.61 545.1 2226.61 547.44ZM2265.05 582.78C2269.91 582.78 2273.09 579.9 2275.73 575.16L2275.25 574.98C2273.03 578.58 2270.81 579.78 2267.15 579.78C2261.87 579.78 2257.73 575.1 2257.73 567.96C2257.73 561.12 2261.81 556.26 2266.61 556.26C2268.83 556.26 2270.93 557.88 2270.93 558.66C2270.93 559.14 2269.73 559.74 2269.73 561.66C2269.73 563.04 2270.81 564.18 2272.43 564.18C2273.81 564.18 2275.13 562.92 2275.13 561.3C2275.13 557.94 2271.35 555.78 2266.49 555.78C2258.63 555.78 2253.17 562.08 2253.17 569.88C2253.17 577.08 2258.33 582.78 2265.05 582.78ZM2290.57 580.08C2285.47 580.08 2282.11 574.92 2282.11 568.68C2282.11 561.84 2285.05 556.8 2289.85 556.8C2293.15 556.8 2296.09 559.2 2297.47 562.26V576.54C2295.73 578.46 2293.69 580.08 2290.57 580.08ZM2297.47 577.56L2297.53 582.96L2305.45 581.28L2305.51 580.98L2303.17 580.62C2301.91 580.44 2301.67 580.08 2301.67 578.7V541.56L2293.15 543.54L2293.09 543.84L2295.07 544.08C2297.17 544.32 2297.47 545.1 2297.47 547.44V557.7H2297.41C2295.49 556.68 2293.51 556.14 2290.69 556.14C2284.21 556.14 2277.37 561.24 2277.37 570.18C2277.37 577.62 2281.99 582.78 2287.99 582.78C2291.89 582.78 2294.77 580.44 2297.35 577.5L2297.47 577.56ZM2323.78 564.12L2311.24 564.24C2312.2 559.98 2315.26 556.38 2318.56 556.38C2322.22 556.38 2323.78 560.04 2323.78 564.12ZM2318.26 582.78C2323.12 582.78 2326.36 579.9 2329.06 575.16L2328.64 574.98C2326.3 578.58 2323.96 579.78 2320.3 579.78C2315.02 579.78 2310.88 575.1 2310.88 568.02C2310.88 567.12 2310.94 565.68 2311.12 564.78L2328.34 564.84C2328.4 564.42 2328.46 564.3 2328.46 564C2328.46 559.44 2325.04 555.78 2318.98 555.78C2311.36 555.78 2306.32 562.2 2306.32 569.88C2306.32 577.08 2311.48 582.78 2318.26 582.78ZM2331.4 581.64L2331.22 582H2344.12L2343.94 581.64L2341.96 581.58C2339.32 581.52 2339.14 581.28 2339.14 580.8V558.84H2344.84L2345.68 556.68H2339.14V553.92C2339.14 548.4 2339.8 544.62 2342.86 543.48L2343.64 543.6L2343.76 544.02C2344.18 545.88 2345.56 547.32 2347.18 547.32C2348.62 547.32 2349.76 546.18 2349.76 544.98C2349.76 543.54 2348.62 542.28 2346.04 542.28C2341.24 542.28 2335.78 546.18 2335 555.12L2334.88 556.68H2331.4L2330.56 558.78L2334.94 558.84V580.74C2334.94 581.46 2334.28 581.4 2332.42 581.58L2331.4 581.64ZM2357.67 572.76C2354.37 572.76 2352.21 569.52 2352.21 564.3C2352.21 559.56 2354.55 556.38 2357.67 556.38C2361.69 556.38 2363.37 559.98 2363.37 565.08C2363.37 569.7 2360.85 572.76 2357.67 572.76ZM2358.33 595.8C2352.87 595.8 2349.15 593.1 2349.15 589.32C2349.15 586.44 2351.79 583.92 2353.83 583.14C2355.57 582.96 2358.81 582.78 2360.49 582.78C2365.95 582.96 2368.17 584.94 2368.17 588.12C2368.17 592.38 2363.67 595.8 2358.33 595.8ZM2355.57 596.88C2364.51 596.88 2370.75 591.78 2370.75 585.24C2370.75 581.1 2367.51 578.64 2361.93 578.64C2359.77 578.64 2356.83 578.82 2355.21 578.82C2351.67 578.82 2350.17 578.16 2350.17 576.24C2350.17 574.56 2351.79 573.24 2354.13 572.82C2354.79 573 2356.23 573.24 2357.49 573.24C2363.19 573.24 2367.63 569.46 2367.63 564.42C2367.63 562.32 2366.49 560.28 2365.11 559.02L2365.17 558.84L2370.81 559.38L2371.29 556.8L2364.27 558.12C2362.53 556.74 2360.31 555.9 2357.73 555.9C2352.21 555.9 2347.83 559.8 2347.83 564.9C2347.83 568.62 2350.47 571.5 2353.35 572.46V572.58C2350.17 573.06 2346.45 575.58 2346.45 578.64C2346.45 581.04 2349.03 582.48 2353.11 582.9V583.02C2350.05 584.16 2345.85 586.98 2345.85 590.4C2345.85 594.48 2349.57 596.88 2355.57 596.88ZM2371.93 581.64L2371.75 582H2383.69L2383.51 581.64L2382.67 581.58C2379.97 581.4 2379.61 581.28 2379.61 580.8V569.76V561.96C2381.53 560.1 2383.93 558.84 2386.81 558.84C2390.29 558.84 2392.03 560.58 2392.03 564.12V580.68C2392.03 581.16 2391.67 581.4 2389.51 581.58L2388.43 581.64L2388.25 582H2400.25L2400.07 581.64L2399.23 581.58C2396.23 581.4 2396.23 581.04 2396.23 580.74V563.28C2396.23 560.76 2395.57 558.84 2394.31 557.52C2393.17 556.38 2391.73 555.84 2389.87 555.84C2385.49 555.84 2382.13 559.32 2379.67 561.24L2379.61 561.12V541.62L2371.69 543.6L2371.63 543.84L2373.01 544.08C2375.11 544.5 2375.41 545.1 2375.41 547.5V580.68C2375.41 581.4 2374.81 581.4 2372.95 581.58L2371.93 581.64ZM2406.45 550.5C2408.55 550.5 2409.39 548.76 2409.39 547.56C2409.39 546.36 2408.55 544.56 2406.45 544.56C2404.35 544.56 2403.45 546.36 2403.45 547.56C2403.45 548.76 2404.35 550.5 2406.45 550.5ZM2401.29 581.64L2401.11 582H2413.11L2412.93 581.64L2412.09 581.58C2409.45 581.4 2409.09 581.28 2409.09 580.8V555.96L2401.11 558.06L2401.05 558.3L2402.43 558.54C2404.53 558.84 2404.89 559.56 2404.89 563.22V580.68C2404.89 581.4 2404.23 581.4 2402.37 581.58L2401.29 581.64ZM2419.16 550.5C2421.26 550.5 2422.1 548.76 2422.1 547.56C2422.1 546.36 2421.26 544.56 2419.16 544.56C2417.06 544.56 2416.16 546.36 2416.16 547.56C2416.16 548.76 2417.06 550.5 2419.16 550.5ZM2412.44 596.94C2417.06 596.94 2421.8 590.16 2421.8 583.68V555.96L2413.82 558.06L2413.76 558.3L2415.14 558.54C2417.24 558.84 2417.6 559.56 2417.6 563.22V587.64C2417.6 592.26 2416.76 595.08 2414.6 595.56C2414.06 593.1 2412.62 591.54 2410.88 591.54C2409.5 591.54 2408.3 592.5 2408.3 594C2408.3 595.62 2409.62 596.94 2412.44 596.94ZM2426.12 581.64L2425.94 582H2437.82L2437.64 581.64L2436.8 581.58C2434.16 581.4 2433.8 581.28 2433.8 580.8V571.08L2436.62 568.38L2444.3 581.28L2444.6 582H2452.94L2452.76 581.64L2452.1 581.58C2449.52 581.28 2449.22 580.86 2447.24 577.68L2439.74 565.32L2439.92 565.14C2440.1 564.96 2440.1 564.9 2440.28 564.72L2440.88 564.12C2445.62 559.38 2447.06 557.34 2449.82 557.16L2451.08 557.04L2451.26 556.68H2439.92L2440.04 557.04L2440.82 557.1C2442.92 557.28 2444 557.82 2444 558.78C2444 559.92 2442.08 562.2 2439.74 564.54L2433.8 570.36V541.62L2425.88 543.6L2425.82 543.84L2427.2 544.08C2429.3 544.38 2429.6 545.1 2429.6 547.5V580.68C2429.6 581.4 2429 581.4 2427.14 581.58L2426.12 581.64ZM2453.79 581.64L2453.67 582H2465.55L2465.37 581.64L2464.53 581.58C2461.83 581.4 2461.53 581.28 2461.53 580.8V541.62L2453.61 543.6L2453.55 543.84L2454.87 544.08C2456.97 544.56 2457.33 545.1 2457.33 548.82V580.68C2457.33 581.4 2456.67 581.4 2454.81 581.58L2453.79 581.64ZM2466.8 581.64L2466.62 582H2478.62L2478.44 581.64L2477.6 581.58C2474.96 581.4 2474.6 581.28 2474.6 580.8V569.52V561.66C2476.34 560.04 2478.38 558.84 2481.02 558.84C2484.56 558.84 2486 560.52 2486 564.12V580.68C2486 581.16 2485.7 581.4 2483.6 581.58L2482.52 581.64L2482.34 582H2494.22L2494.04 581.64L2493.2 581.58C2490.2 581.28 2490.2 581.1 2490.2 580.74V562.14L2490.32 561.84C2491.1 560.22 2493.98 558.84 2496.56 558.84C2500.16 558.84 2501.6 560.52 2501.6 564.12V580.68C2501.6 581.16 2501.24 581.4 2499.14 581.58L2498.06 581.64L2497.88 582H2509.82L2509.64 581.64L2508.86 581.58C2505.86 581.28 2505.86 581.1 2505.86 580.74V563.46C2505.86 561.12 2505.26 558.9 2504 557.64C2502.8 556.44 2501.42 555.84 2499.32 555.84C2495.18 555.84 2492.06 558.96 2490.02 561.18L2489.96 561.12C2489.78 559.62 2489.12 558.42 2488.4 557.64C2487.26 556.5 2485.82 555.84 2483.72 555.84C2479.58 555.84 2476.52 559.08 2474.54 561.06L2474.42 561L2474.66 555.96L2466.62 558.06L2466.56 558.3L2467.94 558.54C2470.04 558.84 2470.4 559.62 2470.4 563.28V580.68C2470.4 581.4 2469.74 581.4 2467.88 581.58L2466.8 581.64ZM2510.86 581.64L2510.68 582H2522.68L2522.5 581.64L2521.66 581.58C2519.02 581.4 2518.66 581.28 2518.66 580.8V569.76V561.96C2520.58 560.1 2522.98 558.84 2525.8 558.84C2529.34 558.84 2531.08 560.58 2531.08 564.12V580.68C2531.08 581.16 2530.72 581.4 2528.62 581.58L2527.54 581.64L2527.36 582H2539.3L2539.12 581.64L2538.28 581.58C2535.28 581.28 2535.28 581.1 2535.28 580.74V563.34C2535.28 560.76 2534.62 558.78 2533.36 557.52C2532.28 556.38 2530.78 555.84 2528.86 555.84C2524.6 555.84 2521.06 559.26 2518.72 561.24L2518.54 561.12L2518.72 555.96L2510.68 558.06L2510.62 558.3L2512 558.54C2514.1 558.84 2514.46 559.62 2514.46 563.28V580.68C2514.46 581.4 2513.8 581.4 2511.94 581.58L2510.86 581.64ZM2554.02 582.3C2552.04 582.3 2550.3 581.58 2548.92 580.2C2546.58 577.86 2545.5 573.6 2545.5 568.62C2545.5 562.14 2548.68 556.26 2553.84 556.26C2556 556.26 2557.62 557.22 2559 558.48C2561.34 560.82 2562.3 565.08 2562.3 569.7C2562.3 576.42 2559 582.3 2554.02 582.3ZM2553.96 582.78C2561.52 582.78 2567.34 576.84 2567.34 569.16C2567.34 561.6 2561.58 555.78 2553.96 555.78C2546.28 555.78 2540.52 561.9 2540.52 569.4C2540.52 576.96 2546.28 582.78 2553.96 582.78ZM2215.54 654.06C2212.18 654.06 2209.18 651.6 2207.8 648.78V634.32C2209.54 632.4 2211.76 630.78 2214.7 630.78C2219.92 630.78 2223.16 635.76 2223.16 642.06C2223.16 648.78 2220.34 654.06 2215.54 654.06ZM2200 668.82L2199.82 669.18H2213.02L2212.84 668.82L2210.8 668.76C2208.1 668.7 2207.8 668.46 2207.8 668.04V653.22H2207.86C2209.54 654 2211.88 654.78 2214.94 654.78C2221 654.78 2227.9 649.5 2227.9 640.56C2227.9 633.18 2223.28 628.14 2217.28 628.14C2213.38 628.14 2210.38 630.54 2207.92 633.42L2207.8 633.3L2207.86 627.96L2199.82 630.06L2199.76 630.3L2201.14 630.54C2203.24 630.84 2203.6 631.56 2203.6 635.22V667.92C2203.6 668.58 2202.94 668.58 2201.08 668.76L2200 668.82ZM2243.4 652.08C2238.3 652.08 2234.94 646.8 2234.94 640.56C2234.94 633.78 2237.88 628.8 2242.68 628.8C2245.98 628.8 2248.92 631.32 2250.3 634.44V648.54C2248.56 650.46 2246.52 652.08 2243.4 652.08ZM2245.32 668.82L2245.14 669.18H2258.28L2258.1 668.82L2257.02 668.76C2255.16 668.58 2254.5 668.58 2254.5 667.92V627.48H2254.14L2251.44 630.36H2251.38C2249.4 629.1 2246.58 628.14 2243.52 628.14C2237.04 628.14 2230.2 633.24 2230.2 642.18C2230.2 649.62 2234.82 654.78 2240.82 654.78C2244.72 654.78 2247.6 652.44 2250.18 649.5L2250.3 649.56V668.04C2250.3 668.46 2250 668.7 2247.3 668.76L2245.32 668.82ZM2258.67 653.64L2258.49 654H2271.39L2271.21 653.64L2269.29 653.58C2266.65 653.52 2266.47 653.28 2266.47 652.8V639.6C2268.15 633.42 2269.41 630.78 2271.99 630.24C2272.17 632.82 2273.61 633.9 2275.11 633.9C2276.97 633.9 2277.99 632.34 2277.99 630.9C2277.99 629.28 2276.55 627.84 2274.45 627.84C2270.61 627.84 2268.03 631.68 2266.41 637.92H2266.35L2266.53 627.96L2258.49 630.06L2258.43 630.3L2259.81 630.54C2261.91 630.84 2262.27 631.62 2262.27 635.28V652.68C2262.27 653.4 2261.61 653.4 2259.75 653.58L2258.67 653.64ZM2288.06 654.78C2294 654.78 2297.84 651 2297.84 646.62C2297.84 641.52 2294.06 640.02 2290.04 638.58C2286.38 637.32 2283.98 636.06 2283.98 633C2283.98 630.18 2285.72 628.38 2289.02 628.38C2290.94 628.38 2292.26 629.34 2293.16 630.06L2296.22 634.98L2296.58 634.92L2296.28 628.26L2294.36 628.92C2292.8 628.2 2291.06 627.84 2289.08 627.84C2284.46 627.84 2280.68 630.9 2280.68 635.22C2280.68 639.66 2284.34 641.52 2287.64 642.6C2291.9 643.98 2294.3 645.66 2294.3 648.96C2294.3 652.02 2292.02 654.24 2288.42 654.24C2285.54 654.24 2283.02 652.32 2281.4 648.96L2280.14 646.26L2279.78 646.32L2280.44 653.4C2282.66 654.3 2285 654.78 2288.06 654.78ZM2308.99 654.78C2312.11 654.78 2314.51 652.56 2316.91 650.16L2316.61 649.98C2315.23 651.12 2313.79 652.32 2311.45 652.32C2309.11 652.32 2307.55 651.06 2307.61 648.48L2308.03 630.72H2315.77L2316.61 628.62H2308.03L2308.09 623.28L2306.35 623.22L2302.99 628.38L2299.51 629.52L2299.09 630.78L2303.77 630.84L2303.41 648.96C2303.41 653.46 2306.05 654.78 2308.99 654.78ZM2337.47 649.5L2337.35 654.96L2345.33 652.86L2345.39 652.56L2343.05 652.2C2341.79 652.02 2341.55 651.66 2341.55 650.28V628.62H2333.27L2333.45 628.98L2334.29 629.04C2336.75 629.22 2337.29 629.64 2337.29 632.1V641.94V648.9C2335.43 650.58 2333.27 651.78 2330.45 651.78C2326.91 651.78 2325.11 650.04 2325.11 646.5V628.62H2316.83L2317.01 628.98L2317.85 629.04C2320.91 629.22 2320.91 629.52 2320.91 629.82V647.28C2320.91 649.74 2321.33 651.66 2322.71 653.04C2323.85 654.18 2325.41 654.78 2327.39 654.78C2331.65 654.78 2335.19 651.54 2337.41 649.5H2337.47ZM2349.34 632.82L2358.28 654.6H2358.88L2365.9 636.54C2368.48 630.12 2368.78 629.28 2371.54 629.1L2372.14 629.04L2372.32 628.68H2362.3L2362.48 629.04L2363.32 629.1C2367.28 629.4 2367.7 630.18 2365.48 635.88L2360.62 648.48L2354.02 632.22C2353.12 630 2353.36 629.28 2355.7 629.1L2356.72 629.04L2356.84 628.68H2344.66L2344.84 629.04L2345.98 629.1C2347.84 629.28 2348.02 629.58 2349.34 632.82ZM2374.48 633.48L2382.64 654.6H2383.3L2391.16 636.06L2399.2 654.6H2399.86L2406.1 636.72C2408.32 630.3 2408.8 629.28 2411.5 629.1L2412.04 629.04L2412.22 628.68H2402.26L2402.44 629.04L2403.22 629.1C2407.36 629.4 2407.48 630.72 2405.62 636.18L2401.24 648.72L2394.16 631.98C2393.38 629.88 2393.56 629.28 2395.9 629.1L2396.92 629.04L2397.04 628.68H2384.86L2385.1 629.04L2386.06 629.1C2388.04 629.28 2388.52 629.58 2389.66 632.52L2390.8 635.4L2385.16 648.6L2378.8 631.98C2377.9 629.76 2378.38 629.28 2380.78 629.1L2381.74 629.04L2381.92 628.68H2369.62L2369.74 629.04L2370.82 629.1C2372.8 629.28 2373.04 629.64 2374.48 633.48ZM2410.77 653.64L2410.59 654H2420.49L2420.31 653.64L2418.63 653.52C2416.47 653.34 2416.47 652.08 2418.15 649.5L2422.41 642.9H2422.47L2427.45 650.22C2428.89 652.2 2428.71 653.34 2426.85 653.52L2425.71 653.64L2425.53 654H2437.65L2437.47 653.64L2436.63 653.58C2435.01 653.4 2434.23 652.38 2432.61 650.04L2425.29 639.42L2428.83 634.26C2431.41 630.42 2432.85 629.34 2434.71 629.16L2436.09 629.04L2436.27 628.68H2426.37L2426.55 629.04L2427.99 629.16C2430.33 629.34 2430.45 630.6 2428.71 633.24L2424.99 638.94H2424.93L2420.43 632.4C2419.05 630.3 2419.23 629.34 2421.09 629.16L2422.35 629.04L2422.53 628.68H2410.47L2410.65 629.04L2411.43 629.1C2413.05 629.28 2413.83 630.24 2415.51 632.64L2422.17 642.48L2418.03 648.54C2415.45 652.2 2414.07 653.22 2412.21 653.46L2410.77 653.64ZM2440.17 669.36C2443.77 669.36 2445.75 666.42 2447.61 660.42L2449.59 654.24L2456.25 636.48C2458.65 630.18 2458.83 629.28 2461.59 629.1L2462.37 629.04L2462.55 628.68H2452.41L2452.59 629.04L2453.43 629.1C2457.45 629.4 2457.75 630.12 2455.83 635.76L2451.15 648.48L2444.37 632.22C2443.47 630 2443.65 629.28 2445.99 629.1L2447.01 629.04L2447.13 628.68H2434.95L2435.13 629.04L2436.27 629.1C2438.13 629.28 2438.37 629.58 2439.69 632.82L2448.87 654.36L2448.93 654.42L2447.31 659.34C2445.69 664.08 2444.73 666.36 2442.57 666.78C2442.27 665.16 2441.19 663.9 2439.45 663.9C2437.95 663.9 2436.75 665.16 2436.75 666.6C2436.75 668.22 2438.25 669.36 2440.17 669.36ZM2462.23 653.7V654H2482.15L2484.13 645.3H2483.89L2483.05 646.68C2480.65 650.82 2478.19 653.52 2472.73 653.52L2467.15 653.4L2483.41 628.98V628.68H2463.85L2463.67 637.32H2463.97L2464.51 636.12C2466.43 631.38 2467.87 629.16 2473.33 629.16H2476.21C2476.87 629.16 2477.59 629.16 2478.37 629.22L2462.23 653.7ZM2493.98 643.32H2494.46C2492.84 641.7 2491.34 639.84 2491.34 638.1C2491.34 635.94 2493.44 635.1 2496.32 633.84C2500.7 631.74 2502.02 630.9 2502.02 626.7C2502.02 621.06 2497.64 615.6 2491.16 615.6C2488.04 615.6 2487.14 616.38 2487.14 617.64C2487.14 618.78 2487.32 619.62 2487.74 620.16C2488.76 619.86 2490.26 619.56 2492.12 619.56C2499.14 619.56 2501.3 623.1 2501.3 625.44C2501.3 627.3 2499.68 628.2 2495.24 630.12C2490.62 632.22 2489.12 633.12 2489.12 636.36C2489.12 638.28 2491.94 641.64 2493.98 643.32ZM2494.22 654.84C2496.08 654.84 2497.34 653.34 2497.34 651.72C2497.34 650.1 2496.08 648.72 2494.22 648.72C2492.36 648.72 2491.04 650.1 2491.04 651.72C2491.04 653.34 2492.36 654.84 2494.22 654.84ZM2508.13 619.02L2510.53 643.38C2510.53 643.62 2511.01 643.62 2511.01 643.38L2513.23 619.02C2513.41 617.4 2513.47 615.6 2510.77 615.6H2510.65C2507.95 615.6 2507.95 617.4 2508.13 619.02ZM2510.71 654.9C2512.57 654.9 2513.77 653.4 2513.77 651.78C2513.77 650.16 2512.57 648.84 2510.71 648.84C2508.85 648.84 2507.47 650.16 2507.47 651.78C2507.47 653.4 2508.85 654.9 2510.71 654.9ZM2534.14 629.1C2529.64 627.12 2527.78 625.32 2527.78 621.96C2527.78 618.84 2529.94 616.08 2533 616.08C2536.3 616.08 2538.28 619.44 2538.28 622.26C2538.28 625.08 2537.5 627.42 2534.14 629.1ZM2531.74 651.3C2526.4 651.3 2522.62 647.4 2522.62 641.94C2522.62 637.92 2524.6 634.14 2529.88 631.32C2535.34 633.66 2539.96 638.82 2542.78 644.76C2539 648.84 2536.06 651.3 2531.74 651.3ZM2529.1 654.84C2534.68 654.84 2538.7 650.52 2543.02 645.24C2546.38 652.56 2548.78 654.84 2552.5 654.84C2556.16 654.84 2558.92 651.3 2560.72 649.2L2560.3 648.96C2559.28 650.34 2557.48 652.02 2555.14 652.02C2552.02 652.02 2550.4 649.44 2546.38 641.58L2552.02 634.38C2555.08 630.54 2556.16 629.4 2559.58 629.1L2560.3 629.04L2560.48 628.68H2545.96L2546.14 629.04L2546.8 629.1C2550.82 629.52 2552.02 630.36 2552.02 631.5C2552.02 633 2550.16 635.82 2546.08 641.04C2543.62 636.66 2538.94 631.56 2534.74 629.28C2539.96 627.6 2542.12 624.9 2542.12 622.08C2542.12 619.14 2539.12 615.54 2533.06 615.54C2528.32 615.54 2523.82 619.98 2523.82 623.82C2523.82 626.88 2525.92 629.22 2529.34 631.08C2522.32 633.42 2518.12 638.34 2518.12 644.16C2518.12 649.86 2522.38 654.84 2529.1 654.84Z" fill="#211526"/>
<path d="M832.08 557.315C867.78 557.315 888.69 533.6 888.69 508.1C888.69 487.19 872.88 473.93 851.46 461.18C828.765 447.41 820.605 439.76 820.605 424.205C820.605 405.845 834.12 393.095 854.52 393.095C866.505 393.095 876.45 398.195 882.57 405.08L892.26 437.975L893.025 438.23L899.91 398.45L889.2 400.49C880.275 395.645 867.525 390.8 852.99 390.8C823.155 390.8 804.795 410.435 804.795 433.13C804.795 453.53 819.33 465.77 839.22 477.5C861.66 491.015 871.605 500.705 871.605 517.28C871.605 539.465 855.03 555.02 831.57 555.02C809.385 555.02 793.32 542.525 788.475 519.065L785.925 506.06H784.905L779.04 542.015C789.24 548.9 809.64 557.315 832.08 557.315ZM955.631 418.85C961.496 418.85 967.106 411.965 967.106 403.805C967.361 397.685 963.281 393.095 956.396 393.095C950.531 393.095 945.176 399.98 945.176 407.885C945.176 414.26 948.746 418.85 955.631 418.85ZM918.911 557.06C925.796 557.06 937.271 546.86 950.276 520.34L948.746 519.575L930.896 547.37L916.616 545.585C920.441 536.15 949.766 466.79 949.766 459.14C949.766 450.98 944.156 442.31 938.036 442.31C927.836 442.31 916.361 452.765 903.356 479.03L904.886 479.795L922.226 452.255L936.761 453.53C933.701 463.73 900.806 543.8 900.806 548.135C900.806 551.195 913.811 557.06 918.911 557.06ZM1086.79 557.06C1093.68 557.06 1104.39 546.605 1117.39 520.085L1115.86 519.32L1097.76 547.37L1085.01 545.84C1087.56 539.465 1090.11 533.6 1092.4 527.735C1096.48 517.79 1101.07 505.55 1104.13 498.155C1111.27 480.56 1117.14 465.26 1117.14 458.375C1117.14 450.47 1106.94 442.565 1099.29 442.565C1094.19 442.565 1086.79 445.88 1080.93 451.745C1072.26 460.415 1055.94 488.975 1041.66 517.025L1040.13 516.515C1051.09 490.76 1060.53 468.065 1060.53 459.905C1060.53 451.235 1051.6 442.565 1044.21 442.565C1039.11 442.565 1031.71 445.88 1025.85 451.745C1016.92 460.67 1000.6 488.975 986.321 517.025L984.791 516.515C995.501 490.76 1003.66 465.77 1003.66 458.885C1003.66 450.725 996.011 442.055 991.166 442.055C981.221 442.055 971.531 452.51 958.526 479.03L960.056 479.795L977.396 452L989.381 453.02L971.786 511.415L957.251 553.49L974.081 554.765L983.261 530.54C1005.7 482.345 1025.85 452.765 1033.5 452.765C1039.36 452.765 1044.46 457.355 1044.46 462.455C1044.46 466.79 1032.22 495.86 1024.57 518.555L1012.84 553.49L1029.67 554.765L1038.6 530.54C1061.04 482.345 1080.93 452.765 1088.32 452.765C1094.19 452.765 1101.07 457.355 1101.07 462.2C1101.07 466.28 1093.42 483.875 1088.07 498.155C1079.91 519.32 1069.2 544.565 1069.2 547.37C1069.2 550.685 1081.69 557.06 1086.79 557.06ZM1164.33 554.765C1155.15 554.765 1148.77 544.055 1148.77 536.915C1148.77 532.07 1149.28 528.5 1150.05 526.205C1159.48 491.525 1175.8 453.53 1192.38 453.53C1200.79 453.53 1206.66 461.435 1206.66 478.52C1206.66 498.92 1196.2 530.54 1180.9 545.84C1176.57 550.175 1171.21 554.765 1164.33 554.765ZM1092.16 616.985L1091.4 618.515H1146.99L1146.73 616.985L1138.83 616.73C1126.84 616.475 1123.78 615.455 1124.55 613.67L1145.97 541.505H1146.48C1149.28 549.41 1153.87 557.06 1164.33 557.06C1194.16 557.06 1223.74 516.515 1223.74 478.52C1223.74 457.1 1215.07 442.82 1201.81 442.82C1186.26 442.82 1174.78 458.885 1166.62 477.245H1165.35C1167.13 472.91 1169.94 465.005 1169.94 459.14C1169.94 451.745 1163.31 442.31 1157.95 442.31C1148.01 442.31 1137.55 452.765 1125.31 479.03L1126.84 479.795L1144.18 452.255L1156.17 453.275L1108.23 613.16C1107.46 615.965 1104.91 615.965 1097.01 616.73L1092.16 616.985ZM1239.09 557.06C1245.98 557.06 1256.69 546.86 1269.69 520.34L1268.16 519.575L1250.31 547.37L1238.07 545.84L1288.56 384.935L1246.49 389.27L1245.98 390.8L1266.38 391.565C1268.16 391.565 1268.42 394.625 1267.65 397.43C1259.24 425.225 1251.84 450.215 1244.96 472.145C1233.48 509.63 1222.26 547.115 1222.26 547.88C1221.5 550.94 1233.99 557.06 1239.09 557.06ZM1299.76 491.525L1299.25 491.27C1304.09 476.225 1311.49 461.69 1319.39 453.785C1325.26 448.43 1330.61 445.115 1335.46 445.115C1343.36 445.115 1346.42 450.725 1346.42 458.63C1346.42 476.225 1335.2 485.405 1299.76 491.525ZM1306.9 557.06C1325.26 557.06 1339.54 538.7 1350.5 519.575L1348.72 518.81C1336.48 538.955 1327.81 545.84 1315.31 545.84C1301.8 545.84 1294.66 535.64 1294.66 517.28C1294.66 509.885 1296.19 501.725 1298.48 493.82C1341.58 486.68 1362.74 476.735 1362.74 460.16C1362.74 449.195 1352.29 442.31 1338.01 442.31C1308.43 442.31 1276.81 484.385 1276.81 521.87C1276.81 540.23 1288.28 557.06 1306.9 557.06ZM1449.63 464.75L1437.14 465.005V397.685H1450.4C1477.17 397.685 1490.69 408.905 1490.69 431.09C1490.69 450.215 1477.17 463.985 1449.63 464.75ZM1454.99 551.705L1437.14 547.115V468.32C1441.22 467.555 1447.34 467.555 1453.2 467.555C1481 467.555 1500.12 486.17 1500.12 511.16C1500.12 530.54 1488.65 549.665 1460.6 550.94C1461.36 550.94 1460.09 550.94 1458.3 551.195C1457.54 551.45 1456.26 551.45 1454.99 551.705ZM1395.32 552.47L1394.55 554H1456.01C1498.85 554 1522.31 536.15 1522.31 509.885C1522.31 486.68 1503.18 467.81 1465.19 465.77V465.005C1501.4 459.65 1513.38 445.88 1513.38 428.54C1513.38 409.16 1496.3 394.625 1455.24 394.625H1394.81L1395.57 396.155L1401.95 396.92C1415.21 397.94 1416.74 398.705 1416.74 400.49V547.37C1416.74 549.155 1413.42 550.685 1404.5 551.45L1395.32 552.47ZM1610.61 478.01L1557.32 478.52C1561.4 460.415 1574.4 445.115 1588.43 445.115C1603.98 445.115 1610.61 460.67 1610.61 478.01ZM1587.15 557.315C1607.81 557.315 1621.58 545.075 1633.05 524.93L1631.27 524.165C1621.32 539.465 1611.38 544.565 1595.82 544.565C1573.38 544.565 1555.79 524.675 1555.79 494.585C1555.79 490.76 1556.04 484.64 1556.81 480.815L1629.99 481.07C1630.25 479.285 1630.5 478.775 1630.5 477.5C1630.5 458.12 1615.97 442.565 1590.21 442.565C1557.83 442.565 1536.41 469.85 1536.41 502.49C1536.41 533.09 1558.34 557.315 1587.15 557.315ZM1676.68 545.84C1666.73 545.84 1659.34 538.445 1659.34 526.97C1659.34 514.475 1664.95 503.765 1701.16 494.84L1699.63 535.385C1692.74 542.27 1685.09 545.84 1676.68 545.84ZM1715.44 556.55C1726.15 556.55 1733.29 545.585 1737.88 540.23L1736.6 539.465C1732.78 543.29 1729.21 546.35 1725.13 546.35C1719.26 546.35 1715.95 543.29 1716.71 534.875L1719.26 479.795C1720.54 450.215 1709.83 442.565 1688.66 442.565C1669.28 442.565 1639.96 457.61 1639.96 470.615C1639.96 476.735 1644.55 480.56 1650.92 480.56C1657.81 480.56 1661.89 475.715 1661.89 470.615C1661.89 463.73 1655.51 459.65 1655.51 457.865C1655.51 454.805 1666.48 448.43 1676.68 448.43C1689.94 448.43 1702.69 455.57 1701.41 481.07L1701.16 492.29C1653.47 503.765 1641.23 516.005 1641.23 532.58C1641.23 545.585 1651.43 556.295 1666.73 556.295C1678.72 556.295 1689.43 547.625 1699.37 538.445V538.7C1700.14 549.665 1706.51 556.55 1715.44 556.55ZM1819.85 534.875L1819.34 558.08L1853.26 549.155L1853.51 547.88L1843.57 546.35C1838.21 545.585 1837.19 544.055 1837.19 538.19V446.135H1802L1802.77 447.665L1806.34 447.92C1816.79 448.685 1819.09 450.47 1819.09 460.925V502.745V532.325C1811.18 539.465 1802 544.565 1790.02 544.565C1774.97 544.565 1767.32 537.17 1767.32 522.125V446.135H1732.13L1732.9 447.665L1736.47 447.92C1749.47 448.685 1749.47 449.96 1749.47 451.235V525.44C1749.47 535.895 1751.26 544.055 1757.12 549.92C1761.97 554.765 1768.6 557.315 1777.01 557.315C1795.12 557.315 1810.16 543.545 1819.6 534.875H1819.85ZM1893.24 557.315C1906.5 557.315 1916.7 547.88 1926.9 537.68L1925.63 536.915C1919.76 541.76 1913.64 546.86 1903.7 546.86C1893.75 546.86 1887.12 541.505 1887.38 530.54L1889.16 455.06H1922.06L1925.63 446.135H1889.16L1889.42 423.44L1882.02 423.185L1867.74 445.115L1852.95 449.96L1851.17 455.315L1871.06 455.57L1869.53 532.58C1869.53 551.705 1880.75 557.315 1893.24 557.315ZM1945.43 619.28C1960.73 619.28 1969.14 606.785 1977.05 581.285L1985.46 555.02L2013.77 479.54C2023.97 452.765 2024.73 448.94 2036.46 448.175L2039.78 447.92L2040.54 446.39H1997.45L1998.21 447.92L2001.78 448.175C2018.87 449.45 2020.14 452.51 2011.98 476.48L1992.09 530.54L1963.28 461.435C1959.45 452 1960.22 448.94 1970.16 448.175L1974.5 447.92L1975.01 446.39H1923.24L1924.01 447.92L1928.85 448.175C1936.76 448.94 1937.78 450.215 1943.39 463.985L1982.4 555.53L1982.66 555.785L1975.77 576.695C1968.89 596.84 1964.81 606.53 1955.63 608.315C1954.35 601.43 1949.76 596.075 1942.37 596.075C1935.99 596.075 1930.89 601.43 1930.89 607.55C1930.89 614.435 1937.27 619.28 1945.43 619.28Z" fill="#211526"/>
<path d="M890.5 1037.25C906.75 1031 912.25 1015.75 912.25 1000.75C912.25 973.75 894.25 956.75 865.75 956.75H801V1129H871.25C902.75 1129 921.5 1105.25 921.5 1080.5C921.5 1061.75 910.75 1041.75 890.5 1037.25ZM865.5 977.75C881.25 977.75 889.5 988.25 889.5 1003C889.5 1017.75 881.75 1028.5 866.25 1028.5H823.75V977.75H865.5ZM866.5 1108H823.75V1048.5H867.75C888.75 1048.5 898.75 1063 898.75 1078.5C898.75 1094.5 887.75 1108 866.5 1108ZM998.971 1131.5C1032.22 1131.5 1060.22 1107.25 1060.22 1070.25C1060.22 1033.25 1032.22 1009.75 998.971 1009.75C965.721 1009.75 937.971 1033.25 937.971 1070.25C937.971 1107.25 965.721 1131.5 998.971 1131.5ZM998.971 1111C977.721 1111 959.971 1094.5 959.971 1070.25C959.971 1046.25 977.721 1030.25 998.971 1030.25C1020.47 1030.25 1038.47 1046.25 1038.47 1070.25C1038.47 1094.5 1020.47 1111 998.971 1111ZM1136 1131.5C1169.25 1131.5 1197.25 1107.25 1197.25 1070.25C1197.25 1033.25 1169.25 1009.75 1136 1009.75C1102.75 1009.75 1075 1033.25 1075 1070.25C1075 1107.25 1102.75 1131.5 1136 1131.5ZM1136 1111C1114.75 1111 1097 1094.5 1097 1070.25C1097 1046.25 1114.75 1030.25 1136 1030.25C1157.5 1030.25 1175.5 1046.25 1175.5 1070.25C1175.5 1094.5 1157.5 1111 1136 1111ZM1324.78 1129L1262.53 1062.75L1312.53 1012.25H1282.28L1241.78 1053.5V948.5H1220.03V1129H1241.78V1072L1295.53 1129H1324.78ZM1500.96 956.75H1371.21V987.5H1418.71V1129H1453.46V987.5H1500.96V956.75ZM1549.36 1131.25C1582.61 1131.25 1612.11 1107.25 1612.11 1070.5C1612.11 1033.5 1582.61 1009.5 1549.36 1009.5C1516.11 1009.5 1486.61 1033.5 1486.61 1070.5C1486.61 1107.25 1516.11 1131.25 1549.36 1131.25ZM1549.36 1100.75C1533.11 1100.75 1519.86 1088.5 1519.86 1070.5C1519.86 1052.25 1533.11 1040 1549.36 1040C1565.61 1040 1578.86 1052.25 1578.86 1070.5C1578.86 1088.5 1565.61 1100.75 1549.36 1100.75ZM1718.15 950.25V1026.5C1709.9 1014.75 1694.15 1009.75 1680.65 1009.75C1650.65 1009.75 1623.4 1033 1623.4 1070.5C1623.4 1108 1650.65 1131.25 1680.65 1131.25C1693.65 1131.25 1709.9 1126 1718.15 1114.5V1129H1750.9V950.25H1718.15ZM1686.9 1100.75C1670.4 1100.75 1656.65 1087.5 1656.65 1070.5C1656.65 1053.25 1670.4 1040.5 1686.9 1040.5C1702.15 1040.5 1717.15 1052.5 1717.15 1070.5C1717.15 1088.25 1702.9 1100.75 1686.9 1100.75ZM1864.22 1012.5V1026.5C1855.97 1014.75 1840.22 1009.75 1826.72 1009.75C1796.72 1009.75 1769.47 1033 1769.47 1070.5C1769.47 1108 1796.72 1131.25 1826.72 1131.25C1839.72 1131.25 1855.97 1126 1864.22 1114.5V1129H1896.97V1012.5H1864.22ZM1832.97 1100.75C1816.47 1100.75 1802.72 1087.5 1802.72 1070.5C1802.72 1053.25 1816.47 1040.5 1832.97 1040.5C1848.22 1040.5 1863.22 1052.5 1863.22 1070.5C1863.22 1088.25 1848.97 1100.75 1832.97 1100.75ZM1997.78 1012.5L1971.03 1079.75L1943.53 1012.5H1907.53L1953.53 1118L1926.03 1186.25H1961.03L2033.03 1012.5H1997.78Z" fill="#211526"/>
<line x1="2800" y1="285" x2="200" y2="285" stroke="#211526" stroke-width="2"/>
<line x1="2800" y1="853" x2="200" y2="853" stroke="#211526" stroke-width="2"/>
<path d="M208.82 980.3C213.11 980.3 215.72 977.39 215.72 974.18C215.72 971.24 213.62 969.32 210.11 968.45L207.41 967.79C204.65 967.13 204.41 965.63 204.41 964.91C204.41 962.87 206.33 961.61 208.4 961.61C210.62 961.61 212.33 963.02 212.33 965.09H215.03C215.03 961.4 212.12 959.09 208.49 959.09C204.89 959.09 201.68 961.37 201.68 964.94C201.68 966.62 202.37 969.2 206.75 970.25L209.42 970.91C211.16 971.36 212.99 972.26 212.99 974.27C212.99 976.1 211.52 977.78 208.82 977.78C206.06 977.78 204.32 975.92 204.23 974.09H201.53C201.56 977.3 204.47 980.3 208.82 980.3ZM225.449 980.3C229.439 980.3 232.799 977.39 232.799 972.95C232.799 968.51 229.439 965.69 225.449 965.69C221.459 965.69 218.129 968.51 218.129 972.95C218.129 977.39 221.459 980.3 225.449 980.3ZM225.449 977.84C222.899 977.84 220.769 975.86 220.769 972.95C220.769 970.07 222.899 968.15 225.449 968.15C228.029 968.15 230.189 970.07 230.189 972.95C230.189 975.86 228.029 977.84 225.449 977.84ZM248.589 965.99H239.619V964.16C239.589 962.33 240.249 960.8 242.739 960.8H243.399V958.34H242.289C238.539 958.34 237.009 960.86 237.009 964.52V965.99H234.309V968.24H237.009V980H239.619V968.24H245.979V980H248.589V965.99ZM247.269 959.09C246.279 959.09 245.439 959.84 245.439 960.83C245.439 961.82 246.279 962.57 247.269 962.57C248.319 962.57 249.129 961.82 249.129 960.83C249.129 959.84 248.319 959.09 247.269 959.09ZM263.895 965.99V968.18C262.965 966.53 260.985 965.69 258.885 965.69C255.045 965.69 251.895 968.54 251.895 972.98C251.895 977.39 255.075 980.3 258.915 980.3C260.925 980.3 262.965 979.4 263.895 977.78V980H266.505V965.99H263.895ZM259.125 977.84C256.575 977.84 254.535 975.74 254.535 972.95C254.535 970.13 256.575 968.15 259.125 968.15C261.435 968.15 263.895 969.92 263.895 972.95C263.895 975.95 261.645 977.84 259.125 977.84ZM286.885 959.33H278.665V980H281.395V972.23H286.885C291.265 972.23 293.035 969.05 293.035 965.78C293.035 962.57 291.265 959.33 286.885 959.33ZM286.705 969.68H281.395V961.85H286.855C289.315 961.85 290.305 963.86 290.305 965.78C290.305 967.76 289.285 969.68 286.705 969.68ZM302.499 965.69C300.639 965.69 299.289 966.71 298.569 969.17V965.99H295.929V980H298.569V974.87C298.569 971.18 299.679 968.21 302.469 968.21C303.009 968.21 303.759 968.33 304.509 968.69L304.929 966.23C304.509 965.96 303.489 965.69 302.499 965.69ZM313.181 980.3C317.171 980.3 320.531 977.39 320.531 972.95C320.531 968.51 317.171 965.69 313.181 965.69C309.191 965.69 305.861 968.51 305.861 972.95C305.861 977.39 309.191 980.3 313.181 980.3ZM313.181 977.84C310.631 977.84 308.501 975.86 308.501 972.95C308.501 970.07 310.631 968.15 313.181 968.15C315.761 968.15 317.921 970.07 317.921 972.95C317.921 975.86 315.761 977.84 313.181 977.84ZM213.71 1022H216.98L211.49 1014.17C215.39 1013.78 216.89 1010.78 216.89 1007.78C216.89 1004.57 215.15 1001.33 210.65 1001.33H202.88V1022H205.61V1014.2H208.31L213.71 1022ZM205.61 1003.85H210.71C212.81 1003.85 214.16 1005.47 214.16 1007.78C214.16 1010.12 212.96 1011.71 209.93 1011.71H205.61V1003.85ZM233.198 1014.95C233.198 1010.51 230.228 1007.69 226.238 1007.69C222.248 1007.69 219.038 1010.51 219.038 1014.95C219.038 1019.39 222.248 1022.3 226.238 1022.3C228.938 1022.3 231.458 1021.04 232.688 1018.61L230.408 1017.71C229.628 1019.12 228.038 1019.84 226.328 1019.84C223.928 1019.84 222.128 1018.61 221.738 1016.12H233.138C233.168 1015.73 233.198 1015.34 233.198 1014.95ZM221.768 1013.87C222.188 1011.35 223.868 1010.15 226.238 1010.15C228.548 1010.15 230.258 1011.47 230.588 1013.87H221.768ZM247.496 1007.99V1010.18C246.566 1008.56 244.586 1007.69 242.486 1007.69C238.646 1007.69 235.496 1010.54 235.496 1014.98C235.496 1019.39 238.676 1022.3 242.516 1022.3C244.526 1022.3 246.566 1021.4 247.496 1019.78V1020.05C247.496 1024.79 245.576 1026.53 242.486 1026.53C240.926 1026.53 239.276 1025.66 238.406 1024.07L236.186 1025.24C237.566 1027.7 239.936 1028.99 242.486 1028.99C247.106 1028.99 250.106 1026.5 250.106 1019.87V1007.99H247.496ZM242.726 1019.84C240.176 1019.84 238.136 1017.74 238.136 1014.95C238.136 1012.13 240.176 1010.15 242.726 1010.15C245.036 1010.15 247.496 1011.92 247.496 1014.95C247.496 1017.95 245.246 1019.84 242.726 1019.84ZM264.488 1007.99V1015.58C264.458 1018.61 262.118 1019.72 260.168 1019.72C258.218 1019.72 256.808 1018.28 256.808 1015.94V1007.99H254.198V1016.09C254.168 1020.02 256.328 1022.3 259.838 1022.3C261.398 1022.3 263.648 1021.55 264.488 1019.81V1022H267.098V1007.99H264.488ZM271.334 1022H273.944V1000.34H271.334V1022ZM289.252 1007.99V1010.18C288.322 1008.53 286.342 1007.69 284.242 1007.69C280.402 1007.69 277.252 1010.54 277.252 1014.98C277.252 1019.39 280.432 1022.3 284.272 1022.3C286.282 1022.3 288.322 1021.4 289.252 1019.78V1022H291.862V1007.99H289.252ZM284.482 1019.84C281.932 1019.84 279.892 1017.74 279.892 1014.95C279.892 1012.13 281.932 1010.15 284.482 1010.15C286.792 1010.15 289.252 1011.92 289.252 1014.95C289.252 1017.95 287.002 1019.84 284.482 1019.84ZM302.704 1007.69C300.844 1007.69 299.494 1008.71 298.774 1011.17V1007.99H296.134V1022H298.774V1016.87C298.774 1013.18 299.884 1010.21 302.674 1010.21C303.214 1010.21 303.964 1010.33 304.714 1010.69L305.134 1008.23C304.714 1007.96 303.694 1007.69 302.704 1007.69ZM329.203 1019.87C326.983 1019.87 326.593 1017.83 326.593 1015.67V1011.71H329.203V1009.61H326.593V1007.09H323.953V1009.58H320.293C317.833 1009.58 316.813 1007.96 316.813 1006.43C316.813 1004.75 318.013 1003.61 319.813 1003.61C321.073 1003.61 322.033 1004.18 322.663 1005.23L324.823 1003.91C323.803 1002.17 322.003 1001.09 319.813 1001.09C316.543 1001.09 314.263 1003.52 314.263 1006.28C314.263 1008.05 315.193 1009.61 316.393 1010.45C314.473 1011.59 313.123 1013.42 313.123 1015.76C313.123 1019.33 315.883 1022.3 319.873 1022.3C321.943 1022.3 323.953 1021.49 325.003 1019.99C325.423 1021.37 327.193 1022.27 329.173 1022.3H329.713V1019.87H329.203ZM319.843 1019.78C317.323 1019.78 315.673 1017.98 315.673 1015.67C315.673 1013.51 317.173 1011.71 320.503 1011.71H323.953V1015.88C323.863 1018.07 322.273 1019.78 319.843 1019.78ZM351.421 1010.99C353.371 1010.24 354.031 1008.41 354.031 1006.61C354.031 1003.37 351.871 1001.33 348.451 1001.33H340.681V1022H349.111C352.891 1022 355.141 1019.15 355.141 1016.18C355.141 1013.93 353.851 1011.53 351.421 1010.99ZM348.421 1003.85C350.311 1003.85 351.301 1005.11 351.301 1006.88C351.301 1008.65 350.371 1009.94 348.511 1009.94H343.411V1003.85H348.421ZM348.541 1019.48H343.411V1012.34H348.691C351.211 1012.34 352.411 1014.08 352.411 1015.94C352.411 1017.86 351.091 1019.48 348.541 1019.48ZM365.037 1022.3C369.027 1022.3 372.387 1019.39 372.387 1014.95C372.387 1010.51 369.027 1007.69 365.037 1007.69C361.047 1007.69 357.717 1010.51 357.717 1014.95C357.717 1019.39 361.047 1022.3 365.037 1022.3ZM365.037 1019.84C362.487 1019.84 360.357 1017.86 360.357 1014.95C360.357 1012.07 362.487 1010.15 365.037 1010.15C367.617 1010.15 369.777 1012.07 369.777 1014.95C369.777 1017.86 367.617 1019.84 365.037 1019.84ZM375.721 1022H378.331V1000.34H375.721V1022ZM393.639 1000.34V1010.18C392.709 1008.53 390.729 1007.69 388.629 1007.69C384.789 1007.69 381.639 1010.54 381.639 1014.98C381.639 1019.39 384.819 1022.3 388.659 1022.3C390.669 1022.3 392.709 1021.4 393.639 1019.78V1022H396.249V1000.34H393.639ZM388.869 1019.84C386.319 1019.84 384.279 1017.74 384.279 1014.95C384.279 1012.13 386.319 1010.15 388.869 1010.15C391.179 1010.15 393.639 1011.92 393.639 1014.95C393.639 1017.95 391.389 1019.84 388.869 1019.84Z" fill="#211526"/>
<path d="M214.91 393.85V391.33H202.88V412H205.61V403.12H212.99V400.57H205.61V393.85H214.91ZM223.198 397.69C221.338 397.69 219.988 398.71 219.268 401.17V397.99H216.628V412H219.268V406.87C219.268 403.18 220.378 400.21 223.168 400.21C223.708 400.21 224.458 400.33 225.208 400.69L225.628 398.23C225.208 397.96 224.188 397.69 223.198 397.69ZM240.72 404.95C240.72 400.51 237.75 397.69 233.76 397.69C229.77 397.69 226.56 400.51 226.56 404.95C226.56 409.39 229.77 412.3 233.76 412.3C236.46 412.3 238.98 411.04 240.21 408.61L237.93 407.71C237.15 409.12 235.56 409.84 233.85 409.84C231.45 409.84 229.65 408.61 229.26 406.12H240.66C240.69 405.73 240.72 405.34 240.72 404.95ZM229.29 403.87C229.71 401.35 231.39 400.15 233.76 400.15C236.07 400.15 237.78 401.47 238.11 403.87H229.29ZM245.238 394.57C246.258 394.57 247.098 393.82 247.098 392.83C247.098 391.84 246.258 391.09 245.238 391.09C244.248 391.09 243.408 391.84 243.408 392.83C243.408 393.82 244.248 394.57 245.238 394.57ZM243.948 412H246.558V397.99H243.948V412ZM261.867 397.99V400.18C260.937 398.56 258.957 397.69 256.857 397.69C253.017 397.69 249.867 400.54 249.867 404.98C249.867 409.39 253.047 412.3 256.887 412.3C258.897 412.3 260.937 411.4 261.867 409.78V410.05C261.867 414.79 259.947 416.53 256.857 416.53C255.297 416.53 253.647 415.66 252.777 414.07L250.557 415.24C251.937 417.7 254.307 418.99 256.857 418.99C261.477 418.99 264.477 416.5 264.477 409.87V397.99H261.867ZM257.097 409.84C254.547 409.84 252.507 407.74 252.507 404.95C252.507 402.13 254.547 400.15 257.097 400.15C259.407 400.15 261.867 401.92 261.867 404.95C261.867 407.95 259.617 409.84 257.097 409.84ZM276.009 397.69C274.479 397.69 272.199 398.41 271.359 400.12V390.34H268.749V412H271.359V404.41C271.359 401.38 273.699 400.27 275.649 400.27C277.599 400.27 279.039 401.71 279.039 404.05V412H281.649V403.9C281.679 399.97 279.489 397.69 276.009 397.69ZM292.249 397.99H289.219V392.68H286.609V397.99H284.089V400.24H286.609V412H289.219V400.24H292.249V397.99ZM313.495 400.99C315.445 400.24 316.105 398.41 316.105 396.61C316.105 393.37 313.945 391.33 310.525 391.33H302.755V412H311.185C314.965 412 317.215 409.15 317.215 406.18C317.215 403.93 315.925 401.53 313.495 400.99ZM310.495 393.85C312.385 393.85 313.375 395.11 313.375 396.88C313.375 398.65 312.445 399.94 310.585 399.94H305.485V393.85H310.495ZM310.615 409.48H305.485V402.34H310.765C313.285 402.34 314.485 404.08 314.485 405.94C314.485 407.86 313.165 409.48 310.615 409.48ZM322.042 394.57C323.062 394.57 323.902 393.82 323.902 392.83C323.902 391.84 323.062 391.09 322.042 391.09C321.052 391.09 320.212 391.84 320.212 392.83C320.212 393.82 321.052 394.57 322.042 394.57ZM320.752 412H323.362V397.99H320.752V412ZM338.67 397.99V400.18C337.74 398.56 335.76 397.69 333.66 397.69C329.82 397.69 326.67 400.54 326.67 404.98C326.67 409.39 329.85 412.3 333.69 412.3C335.7 412.3 337.74 411.4 338.67 409.78V410.05C338.67 414.79 336.75 416.53 333.66 416.53C332.1 416.53 330.45 415.66 329.58 414.07L327.36 415.24C328.74 417.7 331.11 418.99 333.66 418.99C338.28 418.99 341.28 416.5 341.28 409.87V397.99H338.67ZM333.9 409.84C331.35 409.84 329.31 407.74 329.31 404.95C329.31 402.13 331.35 400.15 333.9 400.15C336.21 400.15 338.67 401.92 338.67 404.95C338.67 407.95 336.42 409.84 333.9 409.84ZM213.62 442.99C215.57 442.24 216.23 440.41 216.23 438.61C216.23 435.37 214.07 433.33 210.65 433.33H202.88V454H211.31C215.09 454 217.34 451.15 217.34 448.18C217.34 445.93 216.05 443.53 213.62 442.99ZM210.62 435.85C212.51 435.85 213.5 437.11 213.5 438.88C213.5 440.65 212.57 441.94 210.71 441.94H205.61V435.85H210.62ZM210.74 451.48H205.61V444.34H210.89C213.41 444.34 214.61 446.08 214.61 447.94C214.61 449.86 213.29 451.48 210.74 451.48ZM227.236 454.3C231.226 454.3 234.586 451.39 234.586 446.95C234.586 442.51 231.226 439.69 227.236 439.69C223.246 439.69 219.916 442.51 219.916 446.95C219.916 451.39 223.246 454.3 227.236 454.3ZM227.236 451.84C224.686 451.84 222.556 449.86 222.556 446.95C222.556 444.07 224.686 442.15 227.236 442.15C229.816 442.15 231.976 444.07 231.976 446.95C231.976 449.86 229.816 451.84 227.236 451.84ZM244.28 454.3C248.27 454.3 251.63 451.39 251.63 446.95C251.63 442.51 248.27 439.69 244.28 439.69C240.29 439.69 236.96 442.51 236.96 446.95C236.96 451.39 240.29 454.3 244.28 454.3ZM244.28 451.84C241.73 451.84 239.6 449.86 239.6 446.95C239.6 444.07 241.73 442.15 244.28 442.15C246.86 442.15 249.02 444.07 249.02 446.95C249.02 449.86 246.86 451.84 244.28 451.84ZM267.534 454L260.064 446.05L266.064 439.99H262.434L257.574 444.94V432.34H254.964V454H257.574V447.16L264.024 454H267.534ZM291.255 451.87C289.035 451.87 288.645 449.83 288.645 447.67V443.71H291.255V441.61H288.645V439.09H286.005V441.58H282.345C279.885 441.58 278.865 439.96 278.865 438.43C278.865 436.75 280.065 435.61 281.865 435.61C283.125 435.61 284.085 436.18 284.715 437.23L286.875 435.91C285.855 434.17 284.055 433.09 281.865 433.09C278.595 433.09 276.315 435.52 276.315 438.28C276.315 440.05 277.245 441.61 278.445 442.45C276.525 443.59 275.175 445.42 275.175 447.76C275.175 451.33 277.935 454.3 281.925 454.3C283.995 454.3 286.005 453.49 287.055 451.99C287.475 453.37 289.245 454.27 291.225 454.3H291.765V451.87H291.255ZM281.895 451.78C279.375 451.78 277.725 449.98 277.725 447.67C277.725 445.51 279.225 443.71 282.555 443.71H286.005V447.88C285.915 450.07 284.325 451.78 281.895 451.78ZM313.473 442.99C315.423 442.24 316.083 440.41 316.083 438.61C316.083 435.37 313.923 433.33 310.503 433.33H302.733V454H311.163C314.943 454 317.193 451.15 317.193 448.18C317.193 445.93 315.903 443.53 313.473 442.99ZM310.473 435.85C312.363 435.85 313.353 437.11 313.353 438.88C313.353 440.65 312.423 441.94 310.563 441.94H305.463V435.85H310.473ZM310.593 451.48H305.463V444.34H310.743C313.263 444.34 314.463 446.08 314.463 447.94C314.463 449.86 313.143 451.48 310.593 451.48ZM327.09 454.3C331.08 454.3 334.44 451.39 334.44 446.95C334.44 442.51 331.08 439.69 327.09 439.69C323.1 439.69 319.77 442.51 319.77 446.95C319.77 451.39 323.1 454.3 327.09 454.3ZM327.09 451.84C324.54 451.84 322.41 449.86 322.41 446.95C322.41 444.07 324.54 442.15 327.09 442.15C329.67 442.15 331.83 444.07 331.83 446.95C331.83 449.86 329.67 451.84 327.09 451.84ZM344.133 454.3C348.123 454.3 351.483 451.39 351.483 446.95C351.483 442.51 348.123 439.69 344.133 439.69C340.143 439.69 336.813 442.51 336.813 446.95C336.813 451.39 340.143 454.3 344.133 454.3ZM344.133 451.84C341.583 451.84 339.453 449.86 339.453 446.95C339.453 444.07 341.583 442.15 344.133 442.15C346.713 442.15 348.873 444.07 348.873 446.95C348.873 449.86 346.713 451.84 344.133 451.84ZM367.387 454L359.917 446.05L365.917 439.99H362.287L357.427 444.94V432.34H354.817V454H357.427V447.16L363.877 454H367.387ZM376.438 454H379.168V433.33H376.438V454ZM390.725 439.99H387.695V434.68H385.085V439.99H382.565V442.24H385.085V454H387.695V442.24H390.725V439.99ZM404.121 439.99V442.18C403.191 440.53 401.211 439.69 399.111 439.69C395.271 439.69 392.121 442.54 392.121 446.98C392.121 451.39 395.301 454.3 399.141 454.3C401.151 454.3 403.191 453.4 404.121 451.78V454H406.731V439.99H404.121ZM399.351 451.84C396.801 451.84 394.761 449.74 394.761 446.95C394.761 444.13 396.801 442.15 399.351 442.15C401.661 442.15 404.121 443.92 404.121 446.95C404.121 449.95 401.871 451.84 399.351 451.84ZM411.003 454H413.613V432.34H411.003V454ZM419.141 436.57C420.161 436.57 421.001 435.82 421.001 434.83C421.001 433.84 420.161 433.09 419.141 433.09C418.151 433.09 417.311 433.84 417.311 434.83C417.311 435.82 418.151 436.57 419.141 436.57ZM417.851 454H420.461V439.99H417.851V454ZM431.27 454.27C433.46 454.27 435.38 453.43 436.61 452.05L434.96 450.34C434.09 451.24 432.83 451.81 431.36 451.81C428.6 451.81 426.38 449.86 426.38 446.98C426.38 444.1 428.6 442.15 431.36 442.15C432.83 442.15 434.09 442.72 434.96 443.62L436.61 441.91C435.38 440.56 433.46 439.69 431.27 439.69C427.25 439.69 423.74 442.54 423.74 446.98C423.74 451.42 427.25 454.27 431.27 454.27Z" fill="#211526"/>
<path d="M216.08 169.33H200.6V172.6H206.51V190H210.17V172.6H216.08V169.33ZM225.007 175.99L221.407 184.87L217.777 175.99H213.967L219.547 189.04L216.397 196.84H220.057L228.757 175.99H225.007ZM238.531 175.69C236.851 175.69 234.841 176.38 233.881 177.85V175.99H230.401V196.84H233.881V188.11C234.841 189.61 236.791 190.27 238.561 190.27C242.251 190.27 245.431 187.48 245.431 182.98C245.431 178.51 242.221 175.69 238.531 175.69ZM237.991 187.03C235.981 187.03 233.941 185.47 233.941 183.01C233.941 180.55 235.861 178.93 237.991 178.93C240.151 178.93 241.951 180.67 241.951 183.01C241.951 185.35 240.151 187.03 237.991 187.03ZM254.711 190.3C258.701 190.3 262.181 187.39 262.181 182.95C262.181 178.51 258.701 175.69 254.711 175.69C250.721 175.69 247.271 178.51 247.271 182.95C247.271 187.39 250.721 190.3 254.711 190.3ZM254.711 187.06C252.551 187.06 250.781 185.41 250.781 182.95C250.781 180.55 252.551 178.93 254.711 178.93C256.871 178.93 258.671 180.55 258.671 182.95C258.671 185.41 256.871 187.06 254.711 187.06ZM275.566 175.99V177.82C274.576 176.38 272.686 175.69 270.886 175.69C267.196 175.69 264.016 178.48 264.016 182.98C264.016 187.45 267.226 190.3 270.916 190.3C272.626 190.3 274.576 189.58 275.566 188.14V188.35C275.566 192.34 273.886 193.9 271.186 193.9C269.656 193.9 268.126 193 267.436 191.62L264.556 192.94C265.786 195.49 268.306 197.05 271.186 197.05C275.986 197.05 279.046 194.32 279.046 188.02V175.99H275.566ZM271.456 187.03C269.296 187.03 267.526 185.29 267.526 182.95C267.526 180.61 269.296 178.93 271.456 178.93C273.466 178.93 275.506 180.49 275.506 182.95C275.506 185.41 273.586 187.03 271.456 187.03ZM290.095 175.69C288.355 175.69 286.825 176.65 286.075 178.99V175.99H282.595V190H286.105V185.11C286.105 181.18 287.365 178.96 289.645 178.96C290.155 178.96 290.875 179.05 291.685 179.47L292.375 176.17C291.835 175.87 290.935 175.69 290.095 175.69ZM304.424 175.99V177.85C303.464 176.38 301.514 175.69 299.744 175.69C296.054 175.69 292.874 178.48 292.874 182.98C292.874 187.45 296.084 190.3 299.774 190.3C301.484 190.3 303.464 189.61 304.424 188.11V190H307.904V175.99H304.424ZM300.314 187.03C298.154 187.03 296.384 185.29 296.384 182.95C296.384 180.61 298.154 178.93 300.314 178.93C302.324 178.93 304.364 180.49 304.364 182.95C304.364 185.41 302.444 187.03 300.314 187.03ZM319.584 175.69C317.904 175.69 315.894 176.38 314.934 177.85V175.99H311.454V196.84H314.934V188.11C315.894 189.61 317.844 190.27 319.614 190.27C323.304 190.27 326.484 187.48 326.484 182.98C326.484 178.51 323.274 175.69 319.584 175.69ZM319.044 187.03C317.034 187.03 314.994 185.47 314.994 183.01C314.994 180.55 316.914 178.93 319.044 178.93C321.204 178.93 323.004 180.67 323.004 183.01C323.004 185.35 321.204 187.03 319.044 187.03ZM337.024 175.69C335.614 175.69 333.364 176.44 332.674 178.12V168.49H329.194V190H332.674V182.68C332.674 179.98 334.654 179.11 336.244 179.11C337.804 179.11 339.154 180.25 339.154 182.47V190H342.634V182.14C342.634 178.06 340.624 175.69 337.024 175.69ZM354.943 175.99L351.343 184.87L347.713 175.99H343.903L349.483 189.04L346.333 196.84H349.993L358.693 175.99H354.943Z" fill="#211526"/>
</svg>
