<svg width="2100" height="1400" viewBox="0 0 2100 1400" fill="none" xmlns="http://www.w3.org/2000/svg">
<rect width="2100" height="1400" fill="black"/>
<rect width="1800" height="900" transform="translate(150 250)" fill="#FAF1E8"/>
<path d="M1489.01 851.8H1492.43L1483 826.996H1479.54L1470.11 851.8H1473.53L1475.94 845.428H1486.6L1489.01 851.8ZM1477.02 842.548L1481.27 831.316L1485.52 842.548H1477.02Z" fill="#211526"/>
<path d="M1508.84 838.588C1511.18 837.688 1511.98 835.492 1511.98 833.332C1511.98 829.444 1509.38 826.996 1505.28 826.996H1495.96V851.8H1506.07C1510.61 851.8 1513.31 848.38 1513.31 844.816C1513.31 842.116 1511.76 839.236 1508.84 838.588ZM1505.24 830.02C1507.51 830.02 1508.7 831.532 1508.7 833.656C1508.7 835.78 1507.58 837.328 1505.35 837.328H1499.23V830.02H1505.24ZM1505.39 848.776H1499.23V840.208H1505.57C1508.59 840.208 1510.03 842.296 1510.03 844.528C1510.03 846.832 1508.45 848.776 1505.39 848.776Z" fill="#211526"/>
<path d="M1529.5 852.16C1533.32 852.16 1536.63 850.54 1538.83 847.948L1536.45 845.932C1534.8 847.876 1532.28 849.136 1529.5 849.136C1524.28 849.136 1520.18 844.744 1520.18 839.452C1520.18 834.124 1524.28 829.768 1529.5 829.768C1532.28 829.768 1534.8 831.028 1536.45 832.972L1538.83 830.956C1536.63 828.364 1533.32 826.744 1529.5 826.744C1522.48 826.744 1516.9 832.432 1516.9 839.452C1516.9 846.472 1522.48 852.16 1529.5 852.16Z" fill="#211526"/>
<path d="M1543.49 851.8H1553.1C1560.15 851.8 1564.29 846.472 1564.29 839.452C1564.29 832.396 1560.15 826.996 1553.1 826.996H1543.49V851.8ZM1546.76 848.776V830.02H1553.1C1558.32 830.02 1561.02 834.16 1561.02 839.452C1561.02 844.744 1558.32 848.776 1553.1 848.776H1546.76Z" fill="#211526"/>
<path d="M1572.85 848.776V841.144H1582.78V838.084H1572.85V830.02H1584.22V826.996H1569.61V851.8H1584.58V848.776H1572.85Z" fill="#211526"/>
<path d="M1604.33 830.02V826.996H1589.89V851.8H1593.17V841.144H1602.02V838.084H1593.17V830.02H1604.33Z" fill="#211526"/>
<path d="M1619.26 852.16C1626.31 852.16 1630.99 848.056 1630.99 839.38H1620.19V842.224H1627.39C1627.39 842.44 1627.36 842.656 1627.32 842.836C1626.82 846.688 1623.54 849.136 1619.26 849.136C1614.04 849.136 1610 844.78 1610 839.452C1610 834.124 1614.04 829.732 1619.26 829.732C1621.6 829.732 1623.76 830.668 1625.34 832.072L1627.61 829.948C1625.45 827.968 1622.53 826.708 1619.26 826.708C1612.2 826.708 1606.73 832.396 1606.73 839.452C1606.73 846.472 1612.2 852.16 1619.26 852.16Z" fill="#211526"/>
<path d="M1651 826.996V837.976H1638.84V826.996H1635.56V851.8H1638.84V840.964H1651V851.8H1654.28V826.996H1651Z" fill="#211526"/>
<path d="M1661.15 851.8H1664.43V826.996H1661.15V851.8Z" fill="#211526"/>
<path d="M1667.21 860.188C1672.79 860.188 1674.88 856.48 1674.88 852.16V826.996H1671.6V852.16C1671.6 854.788 1670.41 857.02 1667.21 857.02C1666.92 857.02 1665.45 856.912 1664.91 856.732L1664.58 859.792C1665.41 859.972 1666.56 860.188 1667.21 860.188Z" fill="#211526"/>
<path d="M1699.29 851.8L1687.73 839.416L1697.31 826.996H1693.31L1685 837.832V826.996H1681.76V851.8H1685V841.18L1694.93 851.8H1699.29Z" fill="#211526"/>
<path d="M1702.32 851.8H1715.75V848.776H1705.6V826.996H1702.32V851.8Z" fill="#211526"/>
<path d="M1748.23 851.8L1745.17 826.996H1742.22L1733.4 845.392L1724.54 826.996H1721.59L1718.57 851.8H1721.77L1724.04 832.9L1731.99 849.1H1734.84L1742.72 832.9L1745.03 851.8H1748.23Z" fill="#211526"/>
<path d="M1768.3 826.996V845.824L1756.93 826.996H1753.69V851.8H1756.96V832.9L1768.41 851.8H1771.58V826.996H1768.3Z" fill="#211526"/>
<path d="M1789.27 852.16C1796.36 852.16 1801.87 846.472 1801.87 839.452C1801.87 832.396 1796.36 826.708 1789.27 826.708C1782.21 826.708 1776.74 832.396 1776.74 839.452C1776.74 846.472 1782.21 852.16 1789.27 852.16ZM1789.27 849.136C1784.05 849.136 1780.02 844.744 1780.02 839.452C1780.02 834.124 1784.05 829.732 1789.27 829.732C1794.56 829.732 1798.59 834.124 1798.59 839.452C1798.59 844.744 1794.56 849.136 1789.27 849.136Z" fill="#211526"/>
<path d="M1483.32 870.196H1473.46V895H1476.73V885.676H1483.32C1488.58 885.676 1490.7 881.86 1490.7 877.936C1490.7 874.084 1488.58 870.196 1483.32 870.196ZM1483.1 882.616H1476.73V873.22H1483.28C1486.24 873.22 1487.42 875.632 1487.42 877.936C1487.42 880.312 1486.2 882.616 1483.1 882.616Z" fill="#211526"/>
<path d="M1518.83 882.652C1518.83 875.596 1513.32 869.908 1506.23 869.908C1499.17 869.908 1493.7 875.596 1493.7 882.652C1493.7 889.672 1499.17 895.36 1506.23 895.36C1507.63 895.36 1509 895.144 1510.22 894.712L1513 899.14L1515.52 897.592L1512.92 893.452C1516.49 891.22 1518.83 887.224 1518.83 882.652ZM1506.23 892.336C1501.01 892.336 1496.98 887.944 1496.98 882.652C1496.98 877.324 1501.01 872.932 1506.23 872.932C1511.52 872.932 1515.55 877.324 1515.55 882.652C1515.55 886.072 1513.9 889.096 1511.27 890.824L1508.39 886.216L1505.9 887.764L1508.57 892.048C1507.81 892.228 1507.06 892.336 1506.23 892.336Z" fill="#211526"/>
<path d="M1537.04 895H1540.97L1534.38 885.604C1539.06 885.136 1540.86 881.536 1540.86 877.936C1540.86 874.084 1538.77 870.196 1533.37 870.196H1524.05V895H1527.32V885.64H1530.56L1537.04 895ZM1527.32 873.22H1533.44C1535.96 873.22 1537.58 875.164 1537.58 877.936C1537.58 880.744 1536.14 882.652 1532.51 882.652H1527.32V873.22Z" fill="#211526"/>
<path d="M1553.43 895.36C1558.58 895.36 1561.71 891.868 1561.71 888.016C1561.71 884.488 1559.19 882.184 1554.98 881.14L1551.74 880.348C1548.42 879.556 1548.14 877.756 1548.14 876.892C1548.14 874.444 1550.44 872.932 1552.92 872.932C1555.59 872.932 1557.64 874.624 1557.64 877.108H1560.88C1560.88 872.68 1557.39 869.908 1553.03 869.908C1548.71 869.908 1544.86 872.644 1544.86 876.928C1544.86 878.944 1545.69 882.04 1550.94 883.3L1554.15 884.092C1556.24 884.632 1558.43 885.712 1558.43 888.124C1558.43 890.32 1556.67 892.336 1553.43 892.336C1550.12 892.336 1548.03 890.104 1547.92 887.908H1544.68C1544.72 891.76 1548.21 895.36 1553.43 895.36Z" fill="#211526"/>
<path d="M1582.1 870.196H1563.71V873.22H1571.27V895H1574.54V873.22H1582.1V870.196Z" fill="#211526"/>
<path d="M1595.02 895.36C1599.92 895.36 1604.06 892.12 1604.06 886.504V870.196H1600.78V886.504C1600.78 890.392 1598.12 892.228 1595.02 892.228C1591.92 892.228 1589.26 890.392 1589.26 886.504V870.196H1585.98V886.504C1585.98 892.12 1590.12 895.36 1595.02 895.36Z" fill="#211526"/>
<path d="M1622.87 870.196L1617.19 889.528L1611.5 870.196H1608.11L1615.64 895H1618.77L1626.22 870.196H1622.87Z" fill="#211526"/>
<path d="M1655.62 870.196L1649.32 889.744L1644.68 873.58H1642.19L1637.59 889.816L1631.25 870.196H1627.76L1636.15 895H1638.99L1643.42 879.34L1647.88 895H1650.73L1659.11 870.196H1655.62Z" fill="#211526"/>
<path d="M1681.27 895L1672.55 881.68L1680.29 870.196H1676.41L1670.61 879.016L1664.85 870.196H1660.96L1668.67 881.644L1659.99 895H1663.88L1670.61 884.344L1677.34 895H1681.27Z" fill="#211526"/>
<path d="M1700.04 870.196L1692.8 880.348L1685.6 870.196H1681.71L1691.15 883.552V895H1694.42V883.552L1703.96 870.196H1700.04Z" fill="#211526"/>
<path d="M1722.75 870.196H1705.94V873.22H1718.65L1705.47 892.192V895H1722.75V891.976H1709.51L1722.75 873.004V870.196Z" fill="#211526"/>
<path d="M1733.46 871.168L1725.43 874.768V877.792L1730.44 875.74V895H1733.57V871.168H1733.46Z" fill="#211526"/>
<path d="M1744.1 891.976L1750.58 884.2C1752.13 882.364 1753.32 879.952 1753.32 878.116C1753.32 873.94 1750.37 871.168 1745.94 871.168C1741.91 871.168 1739.1 873.544 1738.63 877.108L1741.44 877.72C1741.62 875.596 1743.38 874.156 1745.94 874.156C1748.49 874.156 1750.19 875.74 1750.19 878.116C1750.19 879.196 1749.18 881.104 1747.7 882.904L1738.85 893.596V895H1753.64V891.976H1744.1Z" fill="#211526"/>
<path d="M1768.35 882.364C1770.19 881.5 1771.31 879.664 1771.31 877.432C1771.31 873.652 1768.57 871.168 1764.47 871.168C1761.8 871.168 1759.25 872.536 1758.06 874.588L1760.22 876.388C1761.12 875.02 1762.77 874.156 1764.39 874.156C1766.66 874.156 1768.17 875.488 1768.17 877.504C1768.17 879.628 1766.55 881.104 1764.07 881.104H1761.84V883.804H1764.29C1767.2 883.804 1769.29 885.568 1769.29 888.232C1769.29 890.716 1767.13 892.372 1764.18 892.372C1762.16 892.372 1760.33 891.076 1759.28 888.952L1756.69 890.428C1758.09 893.488 1760.97 895.324 1764.29 895.324C1769.07 895.324 1772.46 892.444 1772.46 888.124C1772.46 885.352 1770.8 883.156 1768.35 882.364Z" fill="#211526"/>
<path d="M1793.28 887.188H1789.93V871.456H1789.39L1774.78 889.456V890.14H1786.8V895H1789.93V890.14H1793.28V887.188ZM1780.03 887.188L1786.8 879.088V887.188H1780.03Z" fill="#211526"/>
<path d="M1486.02 921.388V924.016C1484.9 922.036 1482.53 921.028 1480.01 921.028C1475.4 921.028 1471.62 924.448 1471.62 929.776C1471.62 935.068 1475.44 938.56 1480.04 938.56C1482.46 938.56 1484.9 937.48 1486.02 935.536V938.2H1489.15V921.388H1486.02ZM1480.3 935.608C1477.24 935.608 1474.79 933.088 1474.79 929.74C1474.79 926.356 1477.24 923.98 1480.3 923.98C1483.07 923.98 1486.02 926.104 1486.02 929.74C1486.02 933.34 1483.32 935.608 1480.3 935.608Z" fill="#211526"/>
<path d="M1503.78 921.028C1501.26 921.028 1498.89 922.036 1497.77 924.016V912.208H1494.64V938.2H1497.77V935.536C1498.89 937.48 1501.33 938.56 1503.75 938.56C1508.35 938.56 1512.17 935.068 1512.17 929.776C1512.17 924.448 1508.39 921.028 1503.78 921.028ZM1503.46 935.608C1500.47 935.608 1497.77 933.34 1497.77 929.74C1497.77 926.104 1500.72 923.98 1503.46 923.98C1506.55 923.98 1509 926.356 1509 929.74C1509 933.088 1506.55 935.608 1503.46 935.608Z" fill="#211526"/>
<path d="M1524.39 938.524C1527.02 938.524 1529.32 937.516 1530.8 935.86L1528.82 933.808C1527.77 934.888 1526.26 935.572 1524.5 935.572C1521.18 935.572 1518.52 933.232 1518.52 929.776C1518.52 926.32 1521.18 923.98 1524.5 923.98C1526.26 923.98 1527.77 924.664 1528.82 925.744L1530.8 923.692C1529.32 922.072 1527.02 921.028 1524.39 921.028C1519.56 921.028 1515.35 924.448 1515.35 929.776C1515.35 935.104 1519.56 938.524 1524.39 938.524Z" fill="#211526"/>
<path d="M1547.61 912.208V924.016C1546.5 922.036 1544.12 921.028 1541.6 921.028C1536.99 921.028 1533.21 924.448 1533.21 929.776C1533.21 935.068 1537.03 938.56 1541.64 938.56C1544.05 938.56 1546.5 937.48 1547.61 935.536V938.2H1550.75V912.208H1547.61ZM1541.89 935.608C1538.83 935.608 1536.38 933.088 1536.38 929.74C1536.38 926.356 1538.83 923.98 1541.89 923.98C1544.66 923.98 1547.61 926.104 1547.61 929.74C1547.61 933.34 1544.91 935.608 1541.89 935.608Z" fill="#211526"/>
<path d="M1572.07 929.74C1572.07 924.412 1568.51 921.028 1563.72 921.028C1558.93 921.028 1555.08 924.412 1555.08 929.74C1555.08 935.068 1558.93 938.56 1563.72 938.56C1566.96 938.56 1569.98 937.048 1571.46 934.132L1568.72 933.052C1567.79 934.744 1565.88 935.608 1563.83 935.608C1560.95 935.608 1558.79 934.132 1558.32 931.144H1572C1572.04 930.676 1572.07 930.208 1572.07 929.74ZM1558.36 928.444C1558.86 925.42 1560.88 923.98 1563.72 923.98C1566.49 923.98 1568.54 925.564 1568.94 928.444H1558.36Z" fill="#211526"/>
<path d="M1584.3 915.16H1585.56V912.208H1583.76C1579.26 912.208 1577.43 915.232 1577.43 919.624V921.388H1574.19V924.088H1577.43V938.2H1580.56V924.088H1584.48V921.388H1580.56V919.192C1580.52 916.996 1581.32 915.16 1584.3 915.16Z" fill="#211526"/>
<path d="M1600.84 921.388V924.016C1599.72 922.072 1597.35 921.028 1594.83 921.028C1590.22 921.028 1586.44 924.448 1586.44 929.776C1586.44 935.068 1590.26 938.56 1594.86 938.56C1597.28 938.56 1599.72 937.48 1600.84 935.536V935.86C1600.84 941.548 1598.54 943.636 1594.83 943.636C1592.96 943.636 1590.98 942.592 1589.93 940.684L1587.27 942.088C1588.92 945.04 1591.77 946.588 1594.83 946.588C1600.37 946.588 1603.97 943.6 1603.97 935.644V921.388H1600.84ZM1595.12 935.608C1592.06 935.608 1589.61 933.088 1589.61 929.74C1589.61 926.356 1592.06 923.98 1595.12 923.98C1597.89 923.98 1600.84 926.104 1600.84 929.74C1600.84 933.34 1598.14 935.608 1595.12 935.608Z" fill="#211526"/>
<path d="M1618.17 921.028C1616.33 921.028 1613.6 921.892 1612.59 923.944V912.208H1609.46V938.2H1612.59V929.092C1612.59 925.456 1615.4 924.124 1617.74 924.124C1620.08 924.124 1621.81 925.852 1621.81 928.66V938.2H1624.94V928.48C1624.97 923.764 1622.35 921.028 1618.17 921.028Z" fill="#211526"/>
<path d="M1631.71 917.284C1632.94 917.284 1633.94 916.384 1633.94 915.196C1633.94 914.008 1632.94 913.108 1631.71 913.108C1630.53 913.108 1629.52 914.008 1629.52 915.196C1629.52 916.384 1630.53 917.284 1631.71 917.284ZM1630.17 938.2H1633.3V921.388H1630.17V938.2Z" fill="#211526"/>
<path d="M1640.58 917.284C1641.8 917.284 1642.81 916.384 1642.81 915.196C1642.81 914.008 1641.8 913.108 1640.58 913.108C1639.39 913.108 1638.38 914.008 1638.38 915.196C1638.38 916.384 1639.39 917.284 1640.58 917.284ZM1633.99 946.372H1636.15C1640.69 946.372 1642.16 943.348 1642.16 939.172V921.388H1639.03V939.136C1639.07 941.116 1638.67 943.42 1635.9 943.42H1633.99V946.372Z" fill="#211526"/>
<path d="M1662.69 938.2L1653.72 928.66L1660.92 921.388H1656.57L1650.73 927.328V912.208H1647.6V938.2H1650.73V929.992L1658.47 938.2H1662.69Z" fill="#211526"/>
<path d="M1665.11 938.2H1668.24V912.208H1665.11V938.2Z" fill="#211526"/>
<path d="M1693.63 921.028C1691.94 921.028 1689.28 921.532 1687.76 924.52C1686.79 922.288 1684.67 921.028 1682.22 921.028C1679.84 921.028 1677.68 922.144 1676.82 923.944V921.388H1673.69V938.2H1676.82V929.092C1676.82 925.528 1679.2 924.052 1681.57 924.052C1683.8 924.052 1685.35 925.816 1685.35 928.66V938.2H1688.48V929.632L1688.52 929.776C1688.23 926.536 1690.03 924.016 1693.02 924.052C1695.47 924.052 1697.02 925.852 1697.02 928.66V938.2H1700.15V928.48C1700.15 923.764 1697.84 921.028 1693.63 921.028Z" fill="#211526"/>
<path d="M1714.08 921.028C1712.24 921.028 1709.5 921.892 1708.5 923.944V921.388H1705.36V938.2H1708.5V929.092C1708.5 925.456 1711.3 924.124 1713.64 924.124C1715.98 924.124 1717.71 925.852 1717.71 928.66V938.2H1720.84V928.48C1720.88 923.764 1718.25 921.028 1714.08 921.028Z" fill="#211526"/>
<path d="M1733.7 938.56C1738.49 938.56 1742.52 935.068 1742.52 929.74C1742.52 924.412 1738.49 921.028 1733.7 921.028C1728.92 921.028 1724.92 924.412 1724.92 929.74C1724.92 935.068 1728.92 938.56 1733.7 938.56ZM1733.7 935.608C1730.64 935.608 1728.09 933.232 1728.09 929.74C1728.09 926.284 1730.64 923.98 1733.7 923.98C1736.8 923.98 1739.39 926.284 1739.39 929.74C1739.39 933.232 1736.8 935.608 1733.7 935.608Z" fill="#211526"/>
<path d="M1481.84 964.228C1479.43 964.228 1476.98 965.308 1475.87 967.252V964.588H1472.74V989.572H1475.87V978.772C1476.98 980.752 1479.36 981.76 1481.88 981.76C1486.49 981.76 1490.27 978.34 1490.27 973.012C1490.27 967.72 1486.45 964.228 1481.84 964.228ZM1481.56 978.808C1478.82 978.808 1475.87 976.684 1475.87 973.048C1475.87 969.448 1478.57 967.18 1481.56 967.18C1484.65 967.18 1487.1 969.7 1487.1 973.048C1487.1 976.432 1484.65 978.808 1481.56 978.808Z" fill="#211526"/>
<path d="M1507.92 964.588V967.252C1506.81 965.308 1504.36 964.228 1501.95 964.228C1497.34 964.228 1493.52 967.72 1493.52 973.012C1493.52 978.34 1497.3 981.76 1501.91 981.76C1504.43 981.76 1506.81 980.752 1507.92 978.772V989.572H1511.05V964.588H1507.92ZM1502.2 978.808C1499.14 978.808 1496.69 976.432 1496.69 973.048C1496.69 969.7 1499.14 967.18 1502.2 967.18C1505.22 967.18 1507.92 969.448 1507.92 973.048C1507.92 976.684 1504.97 978.808 1502.2 978.808Z" fill="#211526"/>
<path d="M1524.42 964.228C1522.19 964.228 1520.57 965.452 1519.71 968.404V964.588H1516.54V981.4H1519.71V975.244C1519.71 970.816 1521.04 967.252 1524.39 967.252C1525.04 967.252 1525.94 967.396 1526.84 967.828L1527.34 964.876C1526.84 964.552 1525.61 964.228 1524.42 964.228Z" fill="#211526"/>
<path d="M1535.18 981.76C1538.68 981.76 1541.7 979.852 1541.7 976.72C1541.7 974.812 1540.8 972.724 1537.31 971.86L1534.82 971.248C1533.74 970.996 1532.66 970.384 1532.66 969.232C1532.66 967.936 1533.74 966.964 1535.36 966.964C1536.7 966.964 1538.03 967.828 1538.06 969.124H1541.09C1541.09 965.74 1538.14 964.228 1535.29 964.228C1531.91 964.228 1529.53 966.352 1529.53 969.124C1529.53 971.824 1531.15 973.192 1533.96 973.948L1536.26 974.488C1537.6 974.776 1538.57 975.424 1538.57 976.684C1538.57 978.052 1537.31 979.024 1535.18 979.024C1533.13 979.024 1531.87 977.836 1531.84 976.396H1528.92C1529.06 979.852 1532.16 981.76 1535.18 981.76Z" fill="#211526"/>
<path d="M1553.99 964.588H1550.36V958.216H1547.23V964.588H1544.2V967.288H1547.23V981.4H1550.36V967.288H1553.99V964.588Z" fill="#211526"/>
<path d="M1569.63 964.588V973.696C1569.59 977.332 1566.79 978.664 1564.45 978.664C1562.11 978.664 1560.41 976.936 1560.41 974.128V964.588H1557.28V974.308C1557.25 979.024 1559.84 981.76 1564.05 981.76C1565.92 981.76 1568.62 980.86 1569.63 978.772V981.4H1572.76V964.588H1569.63Z" fill="#211526"/>
<path d="M1589.69 964.588L1584.54 977.404L1579.36 964.588H1576.01L1582.99 981.4H1586.05L1593.07 964.588H1589.69Z" fill="#211526"/>
<path d="M1617.73 964.588L1613.44 976.54L1609.12 964.588H1606.06L1601.78 976.54L1597.5 964.588H1594.11L1600.52 981.4H1603.11L1607.58 968.908L1612.22 981.4H1614.85L1621.11 964.588H1617.73Z" fill="#211526"/>
<path d="M1638.98 981.4L1632.36 972.184L1637.83 964.588H1634.01L1630.48 969.592L1626.96 964.588H1623.18L1628.61 972.148L1621.95 981.4H1625.7L1630.48 974.812L1635.24 981.4H1638.98Z" fill="#211526"/>
<path d="M1653.53 964.588L1648.38 976.972L1643.31 964.588H1639.92L1646.66 980.932L1643.16 989.572H1646.48L1656.92 964.588H1653.53Z" fill="#211526"/>
<path d="M1673.58 964.588H1659.36V967.54H1669.01L1658.82 978.808V981.4H1673.58V978.448H1663.21L1673.58 967.18V964.588Z" fill="#211526"/>
<path d="M1680.14 974.236H1683.2L1683.23 972.796C1683.23 971.068 1684.31 970.564 1685.83 970.096C1688.63 969.232 1691.05 966.784 1691.05 963.328C1691.05 959.008 1687.88 956.308 1683.99 956.308C1680.17 956.308 1676.61 959.188 1676.57 963.76H1679.56C1679.71 960.844 1681.83 959.26 1683.99 959.26C1686.22 959.26 1687.91 960.7 1687.91 963.328C1687.91 965.272 1686.55 966.532 1684.93 967.144L1683.7 967.576C1681.58 968.368 1680.03 969.556 1680.14 972.796V974.236ZM1681.65 981.724C1682.91 981.724 1683.95 980.788 1683.95 979.528C1683.95 978.268 1682.91 977.332 1681.65 977.332C1680.39 977.332 1679.35 978.268 1679.35 979.528C1679.35 980.788 1680.39 981.724 1681.65 981.724Z" fill="#211526"/>
<path d="M1695.78 974.236H1698.27L1698.59 956.596H1695.46L1695.78 974.236ZM1696.97 981.76C1698.23 981.76 1699.31 980.824 1699.31 979.564C1699.31 978.304 1698.23 977.368 1696.97 977.368C1695.75 977.368 1694.7 978.304 1694.7 979.564C1694.7 980.824 1695.75 981.76 1696.97 981.76Z" fill="#211526"/>
<path d="M1722.81 978.844C1720.15 978.844 1719.68 976.396 1719.68 973.804V969.052H1722.81V966.532H1719.68V963.508H1716.51V966.496H1712.12C1709.17 966.496 1707.94 964.552 1707.94 962.716C1707.94 960.7 1709.38 959.332 1711.54 959.332C1713.05 959.332 1714.21 960.016 1714.96 961.276L1717.55 959.692C1716.33 957.604 1714.17 956.308 1711.54 956.308C1707.62 956.308 1704.88 959.224 1704.88 962.536C1704.88 964.66 1706 966.532 1707.44 967.54C1705.13 968.908 1703.51 971.104 1703.51 973.912C1703.51 978.196 1706.83 981.76 1711.61 981.76C1714.1 981.76 1716.51 980.788 1717.77 978.988C1718.27 980.644 1720.4 981.724 1722.77 981.76H1723.42V978.844H1722.81ZM1711.58 978.736C1708.55 978.736 1706.57 976.576 1706.57 973.804C1706.57 971.212 1708.37 969.052 1712.37 969.052H1716.51V974.056C1716.4 976.684 1714.49 978.736 1711.58 978.736Z" fill="#211526"/>
<path d="M1476.62 490.936H1483.32L1485.7 498.064C1486.24 499.756 1485.66 500.404 1484.22 500.512L1483.07 500.584L1482.96 500.8H1492.39L1492.28 500.584L1491.28 500.512C1489.62 500.404 1489.22 499.828 1488.29 497.02L1481.74 477.904H1481.41C1481.02 478.768 1480.48 479.452 1479.58 479.776L1479.94 480.784L1475.47 493.204C1473.1 499.792 1472.74 500.224 1470.54 500.512L1469.96 500.584L1469.86 500.8H1477.67L1477.56 500.584L1476.8 500.512C1473.49 500.224 1473.56 499.756 1474.9 495.796L1476.62 490.936ZM1483.18 490.576H1476.77L1480.08 481.36H1480.12C1480.73 483.088 1481.23 484.636 1481.66 485.968L1483.18 490.576Z" fill="#211526"/>
<path d="M1501.14 488.2L1499.38 488.236V478.732H1501.25C1505.03 478.732 1506.94 480.316 1506.94 483.448C1506.94 486.148 1505.03 488.092 1501.14 488.2ZM1501.9 500.476L1499.38 499.828V488.704C1499.95 488.596 1500.82 488.596 1501.64 488.596C1505.57 488.596 1508.27 491.224 1508.27 494.752C1508.27 497.488 1506.65 500.188 1502.69 500.368C1502.8 500.368 1502.62 500.368 1502.36 500.404C1502.26 500.44 1502.08 500.44 1501.9 500.476ZM1493.47 500.584L1493.36 500.8H1502.04C1508.09 500.8 1511.4 498.28 1511.4 494.572C1511.4 491.296 1508.7 488.632 1503.34 488.344V488.236C1508.45 487.48 1510.14 485.536 1510.14 483.088C1510.14 480.352 1507.73 478.3 1501.93 478.3H1493.4L1493.51 478.516L1494.41 478.624C1496.28 478.768 1496.5 478.876 1496.5 479.128V499.864C1496.5 500.116 1496.03 500.332 1494.77 500.44L1493.47 500.584Z" fill="#211526"/>
<path d="M1526.18 501.34C1528.77 501.34 1531.72 500.512 1533.05 499.828L1534.28 499.576L1535.57 494.104H1535.36L1534.46 495.616C1532.55 498.964 1530.5 500.944 1526.29 500.944C1520.81 500.944 1516.85 496.264 1516.85 489.352C1516.85 483.124 1520.31 478.12 1526.36 478.12C1528.66 478.12 1530.61 478.768 1531.58 479.524L1534.57 484.996H1534.78L1534.49 478.372L1532.55 479.308C1531.22 478.588 1528.88 477.724 1526.39 477.724C1518.8 477.724 1513.69 482.728 1513.69 489.64C1513.69 496.696 1518.91 501.34 1526.18 501.34Z" fill="#211526"/>
<path d="M1546.44 500.404L1543.74 499.756V478.624H1546.08C1553.17 478.624 1556.31 483.736 1556.31 489.892C1556.31 495.292 1553.07 500.296 1546.44 500.404ZM1537.84 500.584L1537.73 500.8H1545.58C1554.36 500.8 1559.4 495.832 1559.4 489.064C1559.4 482.548 1554.94 478.084 1546.62 478.192L1537.77 478.3L1537.87 478.516L1538.77 478.624C1540.65 478.768 1540.86 478.876 1540.86 479.128V499.864C1540.86 500.116 1540.39 500.332 1539.13 500.44L1537.84 500.584Z" fill="#211526"/>
<path d="M1561.22 500.584L1561.11 500.8H1578.46L1579.94 493.996L1579.72 493.96L1579.5 494.464C1578.14 497.776 1576.7 500.332 1572.41 500.44L1567.19 500.296V489.208L1569.86 489.28C1573.42 489.388 1574.07 489.676 1574.25 492.232L1574.28 492.7L1574.5 492.736L1575.22 485.464L1575 485.428L1574.82 485.932C1574.14 488.308 1573.35 488.668 1570.11 488.848H1567.19V478.624H1571.84C1575.54 478.624 1576.73 480.46 1578.06 484.204L1578.28 484.708H1578.46L1577.78 478.3H1561.14L1561.25 478.516L1562.22 478.624C1564.1 478.768 1564.31 478.876 1564.31 479.128V499.864C1564.31 500.116 1563.77 500.332 1562.51 500.44L1561.22 500.584Z" fill="#211526"/>
<path d="M1581.99 500.584L1581.89 500.8H1591.93L1591.82 500.548L1590.06 500.44C1588.19 500.332 1587.97 500.188 1587.97 499.936V489.424L1590.27 489.496C1593.84 489.604 1594.49 489.892 1594.67 492.448L1594.7 492.916L1594.92 492.952L1595.64 485.716L1595.42 485.68L1595.24 486.148C1594.56 488.524 1593.77 488.884 1590.53 489.064H1587.97V478.624H1592.36C1596.79 478.624 1597.8 480.784 1599.06 484.42L1599.24 484.888L1599.45 484.852L1598.73 478.3H1581.92L1582.03 478.516L1583.07 478.624C1584.95 478.768 1585.09 478.876 1585.09 479.128V499.864C1585.09 500.116 1584.69 500.332 1583.43 500.44L1581.99 500.584Z" fill="#211526"/>
<path d="M1613.96 501.304C1616.95 501.304 1621.3 500.08 1624 499.108L1623.97 498.964L1621.95 499.18V491.944C1621.95 491.692 1622.42 491.476 1623.68 491.368L1624.98 491.224L1625.08 491.008H1615.47L1615.58 491.224L1616.98 491.332C1618.86 491.44 1619.18 491.584 1619.18 491.836V499.648C1618.21 500.404 1616.19 500.908 1614.32 500.908C1608.99 500.908 1604.78 496.336 1604.78 489.46C1604.78 483.196 1608.27 478.12 1614.21 478.12C1616.66 478.12 1618.46 478.768 1619.43 479.524L1622.17 484.924H1622.38L1622.24 478.372L1620.4 479.236C1619.11 478.516 1616.8 477.724 1614.32 477.724C1606.72 477.724 1601.61 482.836 1601.61 489.748C1601.61 496.732 1606.8 501.304 1613.96 501.304Z" fill="#211526"/>
<path d="M1626.29 500.584L1626.18 500.8H1635.44L1635.33 500.584L1634.28 500.476C1632.41 500.332 1632.2 500.224 1632.2 499.972V489.532H1644.33V499.864C1644.33 500.116 1643.86 500.332 1642.6 500.44L1641.16 500.584L1641.05 500.8H1650.3L1650.2 500.584L1649.3 500.476C1647.42 500.332 1647.21 500.224 1647.21 499.972V479.236C1647.21 478.984 1647.68 478.768 1648.94 478.66L1650.23 478.516L1650.34 478.3H1641.09L1641.2 478.516L1642.24 478.624C1644.11 478.768 1644.33 478.876 1644.33 479.128V489.172H1632.2V479.236C1632.2 478.984 1632.66 478.768 1633.92 478.66L1635.36 478.516L1635.47 478.3H1626.22L1626.33 478.516L1627.23 478.624C1629.1 478.768 1629.32 478.876 1629.32 479.128V499.864C1629.32 500.116 1628.85 500.332 1627.59 500.44L1626.29 500.584Z" fill="#211526"/>
<path d="M1652.38 500.584L1652.27 500.8H1661.67L1661.56 500.584L1660.52 500.476C1658.65 500.332 1658.43 500.224 1658.43 499.972V479.236C1658.43 478.984 1658.9 478.768 1660.16 478.66L1661.6 478.516L1661.71 478.3H1652.31L1652.42 478.516L1653.46 478.624C1655.33 478.768 1655.55 478.876 1655.55 479.128V499.864C1655.55 500.116 1655.08 500.332 1653.82 500.44L1652.38 500.584Z" fill="#211526"/>
<path d="M1663.16 506.776C1666.43 506.776 1669.67 501.844 1669.67 500.44V479.236C1669.67 478.984 1670.14 478.768 1671.4 478.66L1672.84 478.516L1672.95 478.3H1663.55L1663.66 478.516L1664.7 478.624C1666.58 478.732 1666.79 478.876 1666.79 479.128V499.864C1666.79 504.328 1665.42 506.524 1663.41 506.272C1664.74 505.12 1664.13 502.96 1662.33 502.96C1661.21 502.96 1660.46 503.788 1660.46 504.796C1660.46 505.984 1661.57 506.776 1663.16 506.776Z" fill="#211526"/>
<path d="M1674.63 500.584L1674.52 500.8H1683.96L1683.85 500.584L1682.62 500.476C1680.75 500.332 1680.54 500.224 1680.54 499.972V491.764L1684.21 488.092L1689.79 497.524C1690.9 499.504 1690.98 500.404 1689.28 500.512L1688.24 500.584L1688.13 500.8H1697.31L1697.2 500.584L1696.38 500.512C1694.83 500.332 1694.72 500.296 1693.14 497.74L1686.12 486.148L1686.66 485.608C1693.32 478.804 1692.96 478.84 1695.73 478.552L1696.16 478.516L1696.27 478.3H1687.48L1687.56 478.516L1688.96 478.624C1692.24 478.912 1692.24 479.38 1686.44 485.284L1680.54 491.26V479.236C1680.54 478.984 1681 478.768 1682.26 478.66L1683.88 478.516L1683.99 478.3H1674.56L1674.67 478.516L1675.64 478.624C1677.51 478.768 1677.66 478.876 1677.66 479.128V499.864C1677.66 500.116 1677.26 500.332 1676 500.44L1674.63 500.584Z" fill="#211526"/>
<path d="M1698.33 500.584L1698.22 500.8H1714.49L1715.9 493.816H1715.68L1715.46 494.284C1713.95 497.92 1712.76 500.476 1708.48 500.476L1704.23 500.296V479.236C1704.23 478.984 1704.7 478.768 1705.96 478.66L1708.12 478.516L1708.23 478.3H1698.26L1698.36 478.516L1699.34 478.624C1701.21 478.768 1701.35 478.876 1701.35 479.128V499.864C1701.35 500.116 1700.96 500.332 1699.7 500.44L1698.33 500.584Z" fill="#211526"/>
<path d="M1717.69 500.584L1717.59 500.8H1725.87L1725.76 500.584L1725.11 500.548C1722.55 500.44 1721.62 499.9 1721.62 499.36L1721.98 479.56C1722.16 479.812 1722.45 480.244 1722.63 480.784L1730.37 500.8H1730.62L1739.01 479.848H1739.04L1739.44 499.864C1739.44 500.116 1739.15 500.332 1737.96 500.44L1736.23 500.584L1736.13 500.8H1745.45L1745.34 500.584L1744.3 500.476C1742.53 500.296 1742.28 500.224 1742.28 499.972L1741.92 479.236C1741.92 478.984 1742.32 478.768 1743.51 478.66L1745.31 478.516L1745.41 478.3H1739.22L1731.77 496.912H1731.73L1724.61 478.3H1718.31L1718.41 478.516L1719.39 478.588C1720.36 478.696 1721.22 478.804 1721.69 479.128L1721.19 499.288C1721.19 499.972 1720.54 500.404 1718.52 500.548L1717.69 500.584Z" fill="#211526"/>
<path d="M1750.87 480.64L1766.89 500.98H1767.14L1767.21 479.812C1767.21 479.128 1768.22 478.732 1769.77 478.588L1770.49 478.516L1770.59 478.3H1763.03L1763.14 478.516L1763.83 478.588C1766.02 478.84 1766.81 479.2 1766.81 479.74L1766.85 496.3H1766.81L1752.67 478.264H1746.62L1746.73 478.48L1747.19 478.552C1749.1 478.84 1750 479.74 1750.54 480.316L1750.47 499.252C1750.47 499.936 1749.46 500.368 1747.91 500.512L1747.19 500.584L1747.09 500.8H1754.65L1754.54 500.584L1753.85 500.512C1751.66 500.332 1750.87 499.864 1750.87 499.324L1750.83 480.64H1750.87Z" fill="#211526"/>
<path d="M1783.79 500.908C1778.61 500.908 1774.97 496.3 1774.97 489.64C1774.97 482.584 1778.36 478.12 1783.61 478.12C1788.69 478.12 1792.43 482.836 1792.43 489.532C1792.43 496.552 1789.12 500.908 1783.79 500.908ZM1783.65 501.304C1790.02 501.304 1795.6 495.796 1795.6 489.568C1795.6 482.584 1790.52 477.76 1783.72 477.76C1777.38 477.76 1771.8 483.412 1771.8 489.604C1771.8 496.516 1776.88 501.304 1783.65 501.304Z" fill="#211526"/>
<path d="M1480.01 532.696C1478.46 532.696 1477.63 532.552 1476.88 532.3V521.86L1479.43 521.824C1483.9 521.716 1485.48 523.768 1485.48 527.296C1485.48 530.752 1483.46 532.696 1480.01 532.696ZM1470.47 543.784L1470.36 544H1480.84L1480.73 543.784L1478.96 543.676C1477.09 543.568 1476.88 543.424 1476.88 543.172V532.84C1477.63 532.948 1478.89 533.092 1480.01 533.092C1485.05 533.092 1488.54 530.536 1488.54 526.864C1488.54 523.444 1485.88 521.5 1480.4 521.5H1470.4L1470.5 521.716L1471.91 521.824C1473.78 521.968 1474 522.076 1474 522.328V543.064C1474 543.316 1473.53 543.532 1472.27 543.64L1470.47 543.784Z" fill="#211526"/>
<path d="M1502.72 544.108C1497.53 544.108 1493.9 539.5 1493.9 532.84C1493.9 525.82 1497.28 521.32 1502.54 521.32C1507.61 521.32 1511.36 526.108 1511.36 532.732C1511.36 539.752 1508.05 544.108 1502.72 544.108ZM1512.19 550.444C1513.34 550.444 1515.46 550.156 1516.36 549.868L1516.29 549.652C1511.29 550.228 1508.12 549.58 1505.81 544C1510.71 542.56 1514.53 537.916 1514.53 532.768C1514.53 525.82 1509.45 520.96 1502.65 520.96C1496.31 520.96 1490.73 526.612 1490.73 532.804C1490.73 539.572 1495.7 544.396 1502.43 544.504C1504.45 549.688 1508.51 550.444 1512.19 550.444Z" fill="#211526"/>
<path d="M1525.61 532.408C1524.42 532.408 1523.52 532.228 1522.37 531.832V521.932L1524.17 521.86C1528.52 521.68 1530.79 523.84 1530.79 527.188C1530.79 530.5 1528.78 532.408 1525.61 532.408ZM1515.96 543.784L1515.85 544H1525.97L1525.86 543.784L1524.46 543.676C1523.63 543.568 1522.37 543.46 1522.37 543.172V532.156C1523.34 532.48 1524.28 532.768 1525.25 532.876L1531.87 543.532L1532.12 544H1538.03L1537.88 543.784L1537.42 543.748C1535.72 543.64 1534.93 543.1 1533.49 540.904L1528.24 532.876C1531.4 532.192 1533.85 529.996 1533.85 527.26C1533.85 523.516 1530.79 521.5 1525.14 521.5H1515.89L1516 521.716L1517.4 521.824C1519.27 521.968 1519.49 522.076 1519.49 522.328V543.064C1519.49 543.316 1518.48 543.532 1517.76 543.64L1515.96 543.784Z" fill="#211526"/>
<path d="M1545.71 544.504C1550.32 544.504 1553.6 541.084 1553.6 537.448C1553.6 533.56 1550.68 531.796 1547.01 530.536C1544.02 529.492 1541.79 528.34 1541.79 525.568C1541.79 523.12 1543.7 521.32 1546.36 521.32C1547.98 521.32 1549.02 521.86 1550 522.58L1552.37 526.9H1552.59L1552.26 521.392L1550.82 521.824C1549.64 521.392 1548.16 520.996 1546.4 520.996C1542.22 520.996 1539.63 523.876 1539.63 527.116C1539.63 530.608 1542.4 532.192 1545.57 533.236C1549.13 534.388 1551.18 535.9 1551.18 538.888C1551.18 541.912 1548.99 544.144 1545.75 544.144C1542.87 544.144 1540.85 542.92 1539.59 539.896L1538.84 538.132H1538.62L1538.98 543.244C1540.96 543.928 1543.59 544.504 1545.71 544.504Z" fill="#211526"/>
<path d="M1560.43 543.784L1560.32 544H1570.44L1570.33 543.784L1568.93 543.676C1567.05 543.532 1566.84 543.424 1566.84 543.172V521.824H1569.11C1571.95 521.968 1573.57 523.444 1575.15 527.008L1575.37 527.476H1575.59L1574.51 521.5H1556.61L1555.14 527.476H1555.39L1555.64 527.008C1556.97 524.452 1558.88 522.004 1561.65 521.824H1563.96V543.064C1563.96 543.316 1563.49 543.532 1562.23 543.64L1560.43 543.784Z" fill="#211526"/>
<path d="M1589.37 544.504C1595.09 544.504 1597.51 541.084 1597.54 535.144L1597.58 523.012C1597.58 522.328 1598.51 521.896 1600.06 521.752L1600.78 521.68L1600.89 521.464H1593.15L1593.26 521.68L1593.94 521.752C1596.14 522.004 1597.18 522.4 1597.18 522.94L1597.22 535.036C1597.22 540.688 1594.84 543.316 1590.49 543.316C1585.63 543.316 1583.47 541.012 1583.47 535.792V522.436C1583.47 522.184 1583.93 521.932 1585.19 521.824L1586.99 521.68L1587.1 521.464H1576.99L1577.09 521.68L1578.5 521.788C1580.37 521.932 1580.59 522.076 1580.59 522.328V536.26C1580.59 542.164 1583.18 544.504 1589.37 544.504Z" fill="#211526"/>
<path d="M1604.39 525.244L1611.77 544.504H1612.02L1618.11 527.944C1620.12 522.364 1620.52 522.04 1622.61 521.752L1623.18 521.68L1623.29 521.464H1615.51L1615.62 521.68L1616.38 521.752C1619.69 522.148 1619.58 522.544 1618.25 526.468L1613.1 540.508H1613.07L1606.73 523.84C1606.12 522.112 1606.62 521.824 1608.21 521.716L1609.47 521.68L1609.57 521.464H1600.21L1600.32 521.68L1601.37 521.752C1603.17 521.86 1603.24 522.292 1604.39 525.244Z" fill="#211526"/>
<path d="M1626.05 525.244L1633.21 544.504H1633.57L1640.05 528.088H1640.09L1646.24 544.504H1646.57L1652.58 527.944C1654.49 522.472 1654.78 522.076 1656.86 521.788L1657.44 521.716L1657.55 521.5H1649.77L1649.88 521.716L1650.64 521.788C1653.95 522.076 1654.06 522.868 1652.62 526.684L1647.61 540.652H1647.54L1641.35 523.84C1640.74 522.148 1641.2 521.86 1642.79 521.752L1643.9 521.716L1644.01 521.5H1634.69L1634.8 521.716L1635.8 521.788C1637.6 521.896 1637.93 522.508 1638.97 525.244L1639.87 527.656L1634.69 540.724H1634.62L1628.46 523.84C1627.85 522.112 1628.46 521.788 1629.94 521.752L1631.09 521.716L1631.2 521.5H1621.84L1621.91 521.716L1622.95 521.788C1624.72 521.896 1625 522.436 1626.05 525.244Z" fill="#211526"/>
<path d="M1655.3 543.784L1655.2 544H1663.69L1663.58 543.784L1662.58 543.676C1660.09 543.388 1659.62 542.812 1662.04 539.14C1662.72 538.06 1663.37 537.124 1663.94 536.296C1664.92 534.856 1665.85 533.488 1665.85 533.488H1665.89L1671.29 541.696C1672.19 543.1 1671.97 543.712 1670.35 543.748L1668.98 543.784L1668.88 544H1678.27L1678.16 543.784L1677.19 543.712C1675.72 543.604 1675.46 542.992 1674.31 541.264C1673.05 539.392 1671.97 537.736 1671 536.26C1670.17 535 1669.34 533.812 1668.73 532.84C1668.37 532.3 1668.05 531.76 1667.72 531.292L1671.11 526.288C1673.7 522.364 1674.42 521.86 1676.65 521.752L1677.3 521.716L1677.41 521.5H1668.91L1669.02 521.716L1670.03 521.824C1672.55 522.112 1673.09 522.472 1670.71 526.18L1667.51 530.968H1667.47L1663.48 524.848C1661.93 522.328 1662.07 521.716 1663.73 521.716L1665.13 521.68L1665.2 521.5H1655.74L1655.88 521.716L1656.89 521.788C1658.36 521.896 1658.72 522.688 1660.45 525.28L1665.67 533.128L1661.68 539.032C1658.98 542.884 1658.29 543.568 1655.95 543.748L1655.3 543.784Z" fill="#211526"/>
<path d="M1684.31 543.784L1684.2 544H1694.32L1694.21 543.784L1692.81 543.676C1690.94 543.532 1690.72 543.424 1690.72 543.172V533.38L1694.43 526.432C1696.52 522.328 1697.24 521.896 1699.04 521.788L1699.83 521.716L1699.94 521.5H1692.02L1692.12 521.716L1693.02 521.788C1695.87 522.076 1695.8 522.904 1693.92 526.576L1690.54 532.984H1690.47L1685.57 524.308C1684.53 522.4 1684.56 521.86 1686.47 521.752L1687.55 521.716L1687.66 521.5H1678.16L1678.26 521.716L1679.27 521.788C1680.89 521.896 1681.47 522.58 1682.51 524.488L1687.84 533.884V543.064C1687.84 543.316 1687.37 543.532 1686.11 543.64L1684.31 543.784Z" fill="#211526"/>
<path d="M1701.46 543.892V544H1718.56L1719.71 536.692H1719.42L1719.21 537.196C1717.77 541.192 1716.33 543.676 1711.36 543.676L1704.95 543.604V543.532L1719.21 521.644V521.5H1702.9L1702.14 527.98H1702.36L1702.54 527.548C1703.76 524.2 1705.38 521.824 1709.85 521.824H1715.75V521.932L1701.46 543.892Z" fill="#211526"/>
<path d="M1722.86 543.748L1722.75 544H1731.17L1731.07 543.748L1729.99 543.712C1728.29 543.604 1728.04 543.496 1728.04 543.208V526.756L1721.99 527.62L1721.89 527.8L1725.63 528.304V543.136C1725.63 543.568 1725.23 543.676 1724.08 543.712L1722.86 543.748Z" fill="#211526"/>
<path d="M1732.91 543.712L1733.02 544H1745.94L1747.42 537.34L1747.17 537.304L1747.02 537.664C1745.91 540.544 1745.08 541.804 1744.5 541.804L1735.83 541.768V541.732C1741.69 536.836 1744.68 534.244 1744.68 530.968C1744.68 528.52 1742.67 526.612 1740.04 526.612C1737.27 526.612 1735.14 528.628 1733.52 531.688L1733.77 531.832C1735.18 529.384 1736.51 528.448 1738.63 528.448C1740.79 528.448 1742.31 529.996 1742.31 532.408C1742.31 535.432 1740.69 537.376 1732.91 543.712Z" fill="#211526"/>
<path d="M1751.88 551.236C1757.02 551.236 1760.84 547.384 1760.84 543.352C1760.84 539.86 1758.43 537.052 1754.14 537.232V537.196C1756.63 535.684 1759.22 533.956 1759.22 531.112C1759.22 528.664 1757.17 526.612 1754.47 526.612C1751.62 526.612 1749.61 528.448 1748.06 531.616L1748.31 531.76C1749.46 529.456 1751.01 528.484 1753.06 528.484C1755.37 528.484 1756.88 530.032 1756.88 532.372C1756.88 535.36 1754.43 536.692 1750 539.572L1750.15 539.788C1751.01 539.464 1752.06 539.104 1753.17 539.104C1756.63 539.104 1758.61 541.444 1758.61 544.72C1758.61 548.608 1755.8 550.66 1753.1 550.66C1752.78 550.66 1752.34 550.624 1752.02 550.516C1751.84 550.48 1751.62 550.408 1751.44 550.336C1751.77 548.572 1750.87 547.096 1749.46 547.096C1748.49 547.096 1747.84 547.78 1747.84 548.752C1747.84 549.94 1749.1 551.236 1751.88 551.236Z" fill="#211526"/>
<path d="M1771.37 541.66H1763.85L1771.34 530.392H1771.37V541.66ZM1771.37 543.64V550.624H1773.75V543.64H1777.35L1778.07 541.696L1773.75 541.66V526.972H1773.17L1762.12 543.532V543.64H1771.37Z" fill="#211526"/>
<path d="M1475.98 586.048C1474.57 586.048 1473.53 585.004 1473.53 583.384C1473.53 581.62 1474.32 580.108 1479.43 578.848L1479.22 584.572C1478.24 585.544 1477.16 586.048 1475.98 586.048ZM1481.45 587.56C1482.96 587.56 1483.97 586.012 1484.62 585.256L1484.44 585.148C1483.9 585.688 1483.39 586.12 1482.82 586.12C1481.99 586.12 1481.52 585.688 1481.63 584.5L1481.99 576.724C1482.17 572.548 1480.66 571.468 1477.67 571.468C1474.93 571.468 1470.79 573.592 1470.79 575.428C1470.79 576.292 1471.44 576.832 1472.34 576.832C1473.31 576.832 1473.89 576.148 1473.89 575.428C1473.89 574.456 1472.99 573.88 1472.99 573.628C1472.99 573.196 1474.54 572.296 1475.98 572.296C1477.85 572.296 1479.65 573.304 1479.47 576.904L1479.43 578.488C1472.7 580.108 1470.97 581.836 1470.97 584.176C1470.97 586.012 1472.41 587.524 1474.57 587.524C1476.26 587.524 1477.78 586.3 1479.18 585.004V585.04C1479.29 586.588 1480.19 587.56 1481.45 587.56Z" fill="#211526"/>
<path d="M1493.09 587.236C1491.08 587.236 1489.28 585.76 1488.45 583.924V575.392C1489.56 574.24 1490.86 573.268 1492.62 573.268C1495.68 573.268 1497.7 576.256 1497.7 580.036C1497.7 584.068 1496.01 587.236 1493.09 587.236ZM1485.96 566.464V587.884H1486.18L1487.87 586.408H1487.91C1489.02 587.02 1490.86 587.668 1492.73 587.668C1496.4 587.668 1500.54 584.5 1500.54 579.136C1500.54 574.708 1497.77 571.684 1494.17 571.684C1491.83 571.684 1490.07 573.124 1488.52 574.852L1488.45 574.78V562.936L1483.7 564.124L1483.66 564.304L1484.49 564.448C1485.75 564.628 1485.96 565.06 1485.96 566.464Z" fill="#211526"/>
<path d="M1509.03 587.668C1511.95 587.668 1513.85 585.94 1515.44 583.096L1515.15 582.988C1513.82 585.148 1512.49 585.868 1510.29 585.868C1507.12 585.868 1504.64 583.06 1504.64 578.776C1504.64 574.672 1507.09 571.756 1509.97 571.756C1511.3 571.756 1512.56 572.728 1512.56 573.196C1512.56 573.484 1511.84 573.844 1511.84 574.996C1511.84 575.824 1512.49 576.508 1513.46 576.508C1514.29 576.508 1515.08 575.752 1515.08 574.78C1515.08 572.764 1512.81 571.468 1509.89 571.468C1505.18 571.468 1501.9 575.248 1501.9 579.928C1501.9 584.248 1505 587.668 1509.03 587.668Z" fill="#211526"/>
<path d="M1524.34 586.048C1521.28 586.048 1519.27 582.952 1519.27 579.208C1519.27 575.104 1521.03 572.08 1523.91 572.08C1525.89 572.08 1527.65 573.52 1528.48 575.356V583.924C1527.44 585.076 1526.21 586.048 1524.34 586.048ZM1528.48 584.536L1528.52 587.776L1533.27 586.768L1533.31 586.588L1531.9 586.372C1531.15 586.264 1531 586.048 1531 585.22V562.936L1525.89 564.124L1525.85 564.304L1527.04 564.448C1528.3 564.592 1528.48 565.06 1528.48 566.464V572.62H1528.45C1527.29 572.008 1526.11 571.684 1524.41 571.684C1520.53 571.684 1516.42 574.744 1516.42 580.108C1516.42 584.572 1519.19 587.668 1522.79 587.668C1525.13 587.668 1526.86 586.264 1528.41 584.5L1528.48 584.536Z" fill="#211526"/>
<path d="M1544.26 576.472L1536.74 576.544C1537.32 573.988 1539.15 571.828 1541.13 571.828C1543.33 571.828 1544.26 574.024 1544.26 576.472ZM1540.95 587.668C1543.87 587.668 1545.81 585.94 1547.43 583.096L1547.18 582.988C1545.78 585.148 1544.37 585.868 1542.18 585.868C1539.01 585.868 1536.52 583.06 1536.52 578.812C1536.52 578.272 1536.56 577.408 1536.67 576.868L1547 576.904C1547.04 576.652 1547.07 576.58 1547.07 576.4C1547.07 573.664 1545.02 571.468 1541.38 571.468C1536.81 571.468 1533.79 575.32 1533.79 579.928C1533.79 584.248 1536.88 587.668 1540.95 587.668Z" fill="#211526"/>
<path d="M1548.84 586.984L1548.73 587.2H1556.47L1556.36 586.984L1555.18 586.948C1553.59 586.912 1553.48 586.768 1553.48 586.48V573.304H1556.9L1557.41 572.008H1553.48V570.352C1553.48 567.04 1553.88 564.772 1555.72 564.088L1556.18 564.16L1556.26 564.412C1556.51 565.528 1557.34 566.392 1558.31 566.392C1559.17 566.392 1559.86 565.708 1559.86 564.988C1559.86 564.124 1559.17 563.368 1557.62 563.368C1554.74 563.368 1551.47 565.708 1551 571.072L1550.93 572.008H1548.84L1548.34 573.268L1550.96 573.304V586.444C1550.96 586.876 1550.57 586.84 1549.45 586.948L1548.84 586.984Z" fill="#211526"/>
<path d="M1564.6 581.656C1562.62 581.656 1561.33 579.712 1561.33 576.58C1561.33 573.736 1562.73 571.828 1564.6 571.828C1567.01 571.828 1568.02 573.988 1568.02 577.048C1568.02 579.82 1566.51 581.656 1564.6 581.656ZM1565 595.48C1561.72 595.48 1559.49 593.86 1559.49 591.592C1559.49 589.864 1561.07 588.352 1562.3 587.884C1563.34 587.776 1565.29 587.668 1566.29 587.668C1569.57 587.776 1570.9 588.964 1570.9 590.872C1570.9 593.428 1568.2 595.48 1565 595.48ZM1563.34 596.128C1568.71 596.128 1572.45 593.068 1572.45 589.144C1572.45 586.66 1570.51 585.184 1567.16 585.184C1565.86 585.184 1564.1 585.292 1563.13 585.292C1561 585.292 1560.1 584.896 1560.1 583.744C1560.1 582.736 1561.07 581.944 1562.48 581.692C1562.87 581.8 1563.74 581.944 1564.49 581.944C1567.91 581.944 1570.58 579.676 1570.58 576.652C1570.58 575.392 1569.89 574.168 1569.07 573.412L1569.1 573.304L1572.49 573.628L1572.77 572.08L1568.56 572.872C1567.52 572.044 1566.19 571.54 1564.64 571.54C1561.33 571.54 1558.7 573.88 1558.7 576.94C1558.7 579.172 1560.28 580.9 1562.01 581.476V581.548C1560.1 581.836 1557.87 583.348 1557.87 585.184C1557.87 586.624 1559.42 587.488 1561.87 587.74V587.812C1560.03 588.496 1557.51 590.188 1557.51 592.24C1557.51 594.688 1559.74 596.128 1563.34 596.128Z" fill="#211526"/>
<path d="M1573.15 586.984L1573.05 587.2H1580.21L1580.1 586.984L1579.6 586.948C1577.98 586.84 1577.76 586.768 1577.76 586.48V579.856V575.176C1578.91 574.06 1580.35 573.304 1582.08 573.304C1584.17 573.304 1585.21 574.348 1585.21 576.472V586.408C1585.21 586.696 1585 586.84 1583.7 586.948L1583.05 586.984L1582.95 587.2H1590.15L1590.04 586.984L1589.53 586.948C1587.73 586.84 1587.73 586.624 1587.73 586.444V575.968C1587.73 574.456 1587.34 573.304 1586.58 572.512C1585.9 571.828 1585.03 571.504 1583.92 571.504C1581.29 571.504 1579.27 573.592 1577.8 574.744L1577.76 574.672V562.972L1573.01 564.16L1572.97 564.304L1573.8 564.448C1575.06 564.7 1575.24 565.06 1575.24 566.5V586.408C1575.24 586.84 1574.88 586.84 1573.77 586.948L1573.15 586.984Z" fill="#211526"/>
<path d="M1593.87 568.3C1595.13 568.3 1595.63 567.256 1595.63 566.536C1595.63 565.816 1595.13 564.736 1593.87 564.736C1592.61 564.736 1592.07 565.816 1592.07 566.536C1592.07 567.256 1592.61 568.3 1593.87 568.3ZM1590.77 586.984L1590.67 587.2H1597.87L1597.76 586.984L1597.25 586.948C1595.67 586.84 1595.45 586.768 1595.45 586.48V571.576L1590.67 572.836L1590.63 572.98L1591.46 573.124C1592.72 573.304 1592.93 573.736 1592.93 575.932V586.408C1592.93 586.84 1592.54 586.84 1591.42 586.948L1590.77 586.984Z" fill="#211526"/>
<path d="M1601.49 568.3C1602.75 568.3 1603.26 567.256 1603.26 566.536C1603.26 565.816 1602.75 564.736 1601.49 564.736C1600.23 564.736 1599.69 565.816 1599.69 566.536C1599.69 567.256 1600.23 568.3 1601.49 568.3ZM1597.46 596.164C1600.23 596.164 1603.08 592.096 1603.08 588.208V571.576L1598.29 572.836L1598.25 572.98L1599.08 573.124C1600.34 573.304 1600.56 573.736 1600.56 575.932V590.584C1600.56 593.356 1600.05 595.048 1598.76 595.336C1598.43 593.86 1597.57 592.924 1596.53 592.924C1595.7 592.924 1594.98 593.5 1594.98 594.4C1594.98 595.372 1595.77 596.164 1597.46 596.164Z" fill="#211526"/>
<path d="M1605.67 586.984L1605.57 587.2H1612.69L1612.59 586.984L1612.08 586.948C1610.5 586.84 1610.28 586.768 1610.28 586.48V580.648L1611.97 579.028L1616.58 586.768L1616.76 587.2H1621.77L1621.66 586.984L1621.26 586.948C1619.71 586.768 1619.53 586.516 1618.35 584.608L1613.85 577.192L1613.95 577.084C1614.06 576.976 1614.06 576.94 1614.17 576.832L1614.53 576.472C1617.37 573.628 1618.24 572.404 1619.89 572.296L1620.65 572.224L1620.76 572.008H1613.95L1614.03 572.224L1614.49 572.26C1615.75 572.368 1616.4 572.692 1616.4 573.268C1616.4 573.952 1615.25 575.32 1613.85 576.724L1610.28 580.216V562.972L1605.53 564.16L1605.49 564.304L1606.32 564.448C1607.58 564.628 1607.76 565.06 1607.76 566.5V586.408C1607.76 586.84 1607.4 586.84 1606.29 586.948L1605.67 586.984Z" fill="#211526"/>
<path d="M1622.27 586.984L1622.2 587.2H1629.33L1629.22 586.984L1628.72 586.948C1627.1 586.84 1626.92 586.768 1626.92 586.48V562.972L1622.16 564.16L1622.13 564.304L1622.92 564.448C1624.18 564.736 1624.4 565.06 1624.4 567.292V586.408C1624.4 586.84 1624 586.84 1622.88 586.948L1622.27 586.984Z" fill="#211526"/>
<path d="M1630.08 586.984L1629.97 587.2H1637.17L1637.06 586.984L1636.56 586.948C1634.98 586.84 1634.76 586.768 1634.76 586.48V579.712V574.996C1635.8 574.024 1637.03 573.304 1638.61 573.304C1640.74 573.304 1641.6 574.312 1641.6 576.472V586.408C1641.6 586.696 1641.42 586.84 1640.16 586.948L1639.51 586.984L1639.4 587.2H1646.53L1646.42 586.984L1645.92 586.948C1644.12 586.768 1644.12 586.66 1644.12 586.444V575.284L1644.19 575.104C1644.66 574.132 1646.39 573.304 1647.94 573.304C1650.1 573.304 1650.96 574.312 1650.96 576.472V586.408C1650.96 586.696 1650.74 586.84 1649.48 586.948L1648.84 586.984L1648.73 587.2H1655.89L1655.78 586.984L1655.32 586.948C1653.52 586.768 1653.52 586.66 1653.52 586.444V576.076C1653.52 574.672 1653.16 573.34 1652.4 572.584C1651.68 571.864 1650.85 571.504 1649.59 571.504C1647.11 571.504 1645.24 573.376 1644.01 574.708L1643.98 574.672C1643.87 573.772 1643.47 573.052 1643.04 572.584C1642.36 571.9 1641.49 571.504 1640.23 571.504C1637.75 571.504 1635.91 573.448 1634.72 574.636L1634.65 574.6L1634.8 571.576L1629.97 572.836L1629.94 572.98L1630.76 573.124C1632.02 573.304 1632.24 573.772 1632.24 575.968V586.408C1632.24 586.84 1631.84 586.84 1630.73 586.948L1630.08 586.984Z" fill="#211526"/>
<path d="M1656.52 586.984L1656.41 587.2H1663.61L1663.5 586.984L1663 586.948C1661.41 586.84 1661.2 586.768 1661.2 586.48V579.856V575.176C1662.35 574.06 1663.79 573.304 1665.48 573.304C1667.6 573.304 1668.65 574.348 1668.65 576.472V586.408C1668.65 586.696 1668.43 586.84 1667.17 586.948L1666.52 586.984L1666.42 587.2H1673.58L1673.47 586.984L1672.97 586.948C1671.17 586.768 1671.17 586.66 1671.17 586.444V576.004C1671.17 574.456 1670.77 573.268 1670.02 572.512C1669.37 571.828 1668.47 571.504 1667.32 571.504C1664.76 571.504 1662.64 573.556 1661.23 574.744L1661.12 574.672L1661.23 571.576L1656.41 572.836L1656.37 572.98L1657.2 573.124C1658.46 573.304 1658.68 573.772 1658.68 575.968V586.408C1658.68 586.84 1658.28 586.84 1657.16 586.948L1656.52 586.984Z" fill="#211526"/>
<path d="M1682.41 587.38C1681.22 587.38 1680.18 586.948 1679.35 586.12C1677.94 584.716 1677.3 582.16 1677.3 579.172C1677.3 575.284 1679.2 571.756 1682.3 571.756C1683.6 571.756 1684.57 572.332 1685.4 573.088C1686.8 574.492 1687.38 577.048 1687.38 579.82C1687.38 583.852 1685.4 587.38 1682.41 587.38ZM1682.37 587.668C1686.91 587.668 1690.4 584.104 1690.4 579.496C1690.4 574.96 1686.94 571.468 1682.37 571.468C1677.76 571.468 1674.31 575.14 1674.31 579.64C1674.31 584.176 1677.76 587.668 1682.37 587.668Z" fill="#211526"/>
<path d="M1479.32 630.436C1477.31 630.436 1475.51 628.96 1474.68 627.268V618.592C1475.72 617.44 1477.06 616.468 1478.82 616.468C1481.95 616.468 1483.9 619.456 1483.9 623.236C1483.9 627.268 1482.2 630.436 1479.32 630.436ZM1470 639.292L1469.89 639.508H1477.81L1477.7 639.292L1476.48 639.256C1474.86 639.22 1474.68 639.076 1474.68 638.824V629.932H1474.72C1475.72 630.4 1477.13 630.868 1478.96 630.868C1482.6 630.868 1486.74 627.7 1486.74 622.336C1486.74 617.908 1483.97 614.884 1480.37 614.884C1478.03 614.884 1476.23 616.324 1474.75 618.052L1474.68 617.98L1474.72 614.776L1469.89 616.036L1469.86 616.18L1470.68 616.324C1471.94 616.504 1472.16 616.936 1472.16 619.132V638.752C1472.16 639.148 1471.76 639.148 1470.65 639.256L1470 639.292Z" fill="#211526"/>
<path d="M1496.04 629.248C1492.98 629.248 1490.96 626.08 1490.96 622.336C1490.96 618.268 1492.73 615.28 1495.61 615.28C1497.59 615.28 1499.35 616.792 1500.18 618.664V627.124C1499.14 628.276 1497.91 629.248 1496.04 629.248ZM1497.19 639.292L1497.08 639.508H1504.97L1504.86 639.292L1504.21 639.256C1503.1 639.148 1502.7 639.148 1502.7 638.752V614.488H1502.48L1500.86 616.216H1500.83C1499.64 615.46 1497.95 614.884 1496.11 614.884C1492.22 614.884 1488.12 617.944 1488.12 623.308C1488.12 627.772 1490.89 630.868 1494.49 630.868C1496.83 630.868 1498.56 629.464 1500.11 627.7L1500.18 627.736V638.824C1500.18 639.076 1500 639.22 1498.38 639.256L1497.19 639.292Z" fill="#211526"/>
<path d="M1505.2 630.184L1505.1 630.4H1512.84L1512.73 630.184L1511.58 630.148C1509.99 630.112 1509.88 629.968 1509.88 629.68V621.76C1510.89 618.052 1511.65 616.468 1513.2 616.144C1513.3 617.692 1514.17 618.34 1515.07 618.34C1516.18 618.34 1516.8 617.404 1516.8 616.54C1516.8 615.568 1515.93 614.704 1514.67 614.704C1512.37 614.704 1510.82 617.008 1509.85 620.752H1509.81L1509.92 614.776L1505.1 616.036L1505.06 616.18L1505.89 616.324C1507.15 616.504 1507.36 616.972 1507.36 619.168V629.608C1507.36 630.04 1506.97 630.04 1505.85 630.148L1505.2 630.184Z" fill="#211526"/>
<path d="M1522.83 630.868C1526.4 630.868 1528.7 628.6 1528.7 625.972C1528.7 622.912 1526.43 622.012 1524.02 621.148C1521.83 620.392 1520.39 619.636 1520.39 617.8C1520.39 616.108 1521.43 615.028 1523.41 615.028C1524.56 615.028 1525.35 615.604 1525.89 616.036L1527.73 618.988L1527.95 618.952L1527.77 614.956L1526.61 615.352C1525.68 614.92 1524.63 614.704 1523.45 614.704C1520.67 614.704 1518.41 616.54 1518.41 619.132C1518.41 621.796 1520.6 622.912 1522.58 623.56C1525.14 624.388 1526.58 625.396 1526.58 627.376C1526.58 629.212 1525.21 630.544 1523.05 630.544C1521.32 630.544 1519.81 629.392 1518.84 627.376L1518.08 625.756L1517.87 625.792L1518.26 630.04C1519.59 630.58 1521 630.868 1522.83 630.868Z" fill="#211526"/>
<path d="M1535.39 630.868C1537.27 630.868 1538.71 629.536 1540.15 628.096L1539.97 627.988C1539.14 628.672 1538.27 629.392 1536.87 629.392C1535.47 629.392 1534.53 628.636 1534.57 627.088L1534.82 616.432H1539.46L1539.97 615.172H1534.82L1534.85 611.968L1533.81 611.932L1531.79 615.028L1529.71 615.712L1529.45 616.468L1532.26 616.504L1532.05 627.376C1532.05 630.076 1533.63 630.868 1535.39 630.868Z" fill="#211526"/>
<path d="M1552.48 627.7L1552.41 630.976L1557.2 629.716L1557.23 629.536L1555.83 629.32C1555.07 629.212 1554.93 628.996 1554.93 628.168V615.172H1549.96L1550.07 615.388L1550.57 615.424C1552.05 615.532 1552.37 615.784 1552.37 617.26V623.164V627.34C1551.26 628.348 1549.96 629.068 1548.27 629.068C1546.15 629.068 1545.07 628.024 1545.07 625.9V615.172H1540.1L1540.21 615.388L1540.71 615.424C1542.55 615.532 1542.55 615.712 1542.55 615.892V626.368C1542.55 627.844 1542.8 628.996 1543.63 629.824C1544.31 630.508 1545.25 630.868 1546.43 630.868C1548.99 630.868 1551.11 628.924 1552.45 627.7H1552.48Z" fill="#211526"/>
<path d="M1559.6 617.692L1564.97 630.76H1565.33L1569.54 619.924C1571.09 616.072 1571.27 615.568 1572.92 615.46L1573.28 615.424L1573.39 615.208H1567.38L1567.49 615.424L1567.99 615.46C1570.37 615.64 1570.62 616.108 1569.29 619.528L1566.37 627.088L1562.41 617.332C1561.87 616 1562.02 615.568 1563.42 615.46L1564.03 615.424L1564.1 615.208H1556.8L1556.9 615.424L1557.59 615.46C1558.7 615.568 1558.81 615.748 1559.6 617.692Z" fill="#211526"/>
<path d="M1574.69 618.088L1579.58 630.76H1579.98L1584.7 619.636L1589.52 630.76H1589.92L1593.66 620.032C1594.99 616.18 1595.28 615.568 1596.9 615.46L1597.22 615.424L1597.33 615.208H1591.36L1591.46 615.424L1591.93 615.46C1594.42 615.64 1594.49 616.432 1593.37 619.708L1590.74 627.232L1586.5 617.188C1586.03 615.928 1586.14 615.568 1587.54 615.46L1588.15 615.424L1588.22 615.208H1580.92L1581.06 615.424L1581.64 615.46C1582.82 615.568 1583.11 615.748 1583.8 617.512L1584.48 619.24L1581.1 627.16L1577.28 617.188C1576.74 615.856 1577.03 615.568 1578.47 615.46L1579.04 615.424L1579.15 615.208H1571.77L1571.84 615.424L1572.49 615.46C1573.68 615.568 1573.82 615.784 1574.69 618.088Z" fill="#211526"/>
<path d="M1596.46 630.184L1596.35 630.4H1602.29L1602.18 630.184L1601.18 630.112C1599.88 630.004 1599.88 629.248 1600.89 627.7L1603.44 623.74H1603.48L1606.47 628.132C1607.33 629.32 1607.22 630.004 1606.11 630.112L1605.42 630.184L1605.32 630.4H1612.59L1612.48 630.184L1611.98 630.148C1611 630.04 1610.54 629.428 1609.56 628.024L1605.17 621.652L1607.3 618.556C1608.84 616.252 1609.71 615.604 1610.82 615.496L1611.65 615.424L1611.76 615.208H1605.82L1605.93 615.424L1606.79 615.496C1608.2 615.604 1608.27 616.36 1607.22 617.944L1604.99 621.364H1604.96L1602.26 617.44C1601.43 616.18 1601.54 615.604 1602.65 615.496L1603.41 615.424L1603.52 615.208H1596.28L1596.39 615.424L1596.86 615.46C1597.83 615.568 1598.3 616.144 1599.3 617.584L1603.3 623.488L1600.82 627.124C1599.27 629.32 1598.44 629.932 1597.32 630.076L1596.46 630.184Z" fill="#211526"/>
<path d="M1614.1 639.616C1616.26 639.616 1617.45 637.852 1618.57 634.252L1619.75 630.544L1623.75 619.888C1625.19 616.108 1625.3 615.568 1626.95 615.46L1627.42 615.424L1627.53 615.208H1621.45L1621.55 615.424L1622.06 615.46C1624.47 615.64 1624.65 616.072 1623.5 619.456L1620.69 627.088L1616.62 617.332C1616.08 616 1616.19 615.568 1617.59 615.46L1618.21 615.424L1618.28 615.208H1610.97L1611.08 615.424L1611.76 615.46C1612.88 615.568 1613.02 615.748 1613.81 617.692L1619.32 630.616L1619.36 630.652L1618.39 633.604C1617.41 636.448 1616.84 637.816 1615.54 638.068C1615.36 637.096 1614.71 636.34 1613.67 636.34C1612.77 636.34 1612.05 637.096 1612.05 637.96C1612.05 638.932 1612.95 639.616 1614.1 639.616Z" fill="#211526"/>
<path d="M1627.34 630.22V630.4H1639.29L1640.48 625.18H1640.34L1639.83 626.008C1638.39 628.492 1636.92 630.112 1633.64 630.112L1630.29 630.04L1640.05 615.388V615.208H1628.31L1628.2 620.392H1628.38L1628.71 619.672C1629.86 616.828 1630.72 615.496 1634 615.496H1635.73C1636.12 615.496 1636.56 615.496 1637.02 615.532L1627.34 630.22Z" fill="#211526"/>
<path d="M1646.39 623.992H1646.68C1645.71 623.02 1644.81 621.904 1644.81 620.86C1644.81 619.564 1646.07 619.06 1647.79 618.304C1650.42 617.044 1651.21 616.54 1651.21 614.02C1651.21 610.636 1648.59 607.36 1644.7 607.36C1642.83 607.36 1642.29 607.828 1642.29 608.584C1642.29 609.268 1642.39 609.772 1642.65 610.096C1643.26 609.916 1644.16 609.736 1645.27 609.736C1649.49 609.736 1650.78 611.86 1650.78 613.264C1650.78 614.38 1649.81 614.92 1647.15 616.072C1644.37 617.332 1643.47 617.872 1643.47 619.816C1643.47 620.968 1645.17 622.984 1646.39 623.992ZM1646.53 630.904C1647.65 630.904 1648.41 630.004 1648.41 629.032C1648.41 628.06 1647.65 627.232 1646.53 627.232C1645.42 627.232 1644.63 628.06 1644.63 629.032C1644.63 630.004 1645.42 630.904 1646.53 630.904Z" fill="#211526"/>
<path d="M1654.88 609.412L1656.32 624.028C1656.32 624.172 1656.61 624.172 1656.61 624.028L1657.94 609.412C1658.05 608.44 1658.08 607.36 1656.46 607.36H1656.39C1654.77 607.36 1654.77 608.44 1654.88 609.412ZM1656.43 630.94C1657.54 630.94 1658.26 630.04 1658.26 629.068C1658.26 628.096 1657.54 627.304 1656.43 627.304C1655.31 627.304 1654.48 628.096 1654.48 629.068C1654.48 630.04 1655.31 630.94 1656.43 630.94Z" fill="#211526"/>
<path d="M1670.48 615.46C1667.78 614.272 1666.66 613.192 1666.66 611.176C1666.66 609.304 1667.96 607.648 1669.8 607.648C1671.78 607.648 1672.96 609.664 1672.96 611.356C1672.96 613.048 1672.5 614.452 1670.48 615.46ZM1669.04 628.78C1665.84 628.78 1663.57 626.44 1663.57 623.164C1663.57 620.752 1664.76 618.484 1667.92 616.792C1671.2 618.196 1673.97 621.292 1675.66 624.856C1673.4 627.304 1671.63 628.78 1669.04 628.78ZM1667.46 630.904C1670.8 630.904 1673.22 628.312 1675.81 625.144C1677.82 629.536 1679.26 630.904 1681.5 630.904C1683.69 630.904 1685.35 628.78 1686.43 627.52L1686.18 627.376C1685.56 628.204 1684.48 629.212 1683.08 629.212C1681.21 629.212 1680.24 627.664 1677.82 622.948L1681.21 618.628C1683.04 616.324 1683.69 615.64 1685.74 615.46L1686.18 615.424L1686.28 615.208H1677.57L1677.68 615.424L1678.08 615.46C1680.49 615.712 1681.21 616.216 1681.21 616.9C1681.21 617.8 1680.09 619.492 1677.64 622.624C1676.17 619.996 1673.36 616.936 1670.84 615.568C1673.97 614.56 1675.27 612.94 1675.27 611.248C1675.27 609.484 1673.47 607.324 1669.83 607.324C1666.99 607.324 1664.29 609.988 1664.29 612.292C1664.29 614.128 1665.55 615.532 1667.6 616.648C1663.39 618.052 1660.87 621.004 1660.87 624.496C1660.87 627.916 1663.42 630.904 1667.46 630.904Z" fill="#211526"/>
<path d="M662.4 590.35C683.4 590.35 695.7 576.4 695.7 561.4C695.7 549.1 686.4 541.3 673.8 533.8C660.45 525.7 655.65 521.2 655.65 512.05C655.65 501.25 663.6 493.75 675.6 493.75C682.65 493.75 688.5 496.75 692.1 500.8L697.8 520.15L698.25 520.3L702.3 496.9L696 498.1C690.75 495.25 683.25 492.4 674.7 492.4C657.15 492.4 646.35 503.95 646.35 517.3C646.35 529.3 654.9 536.5 666.6 543.4C679.8 551.35 685.65 557.05 685.65 566.8C685.65 579.85 675.9 589 662.1 589C649.05 589 639.6 581.65 636.75 567.85L635.25 560.2H634.65L631.2 581.35C637.2 585.4 649.2 590.35 662.4 590.35Z" fill="#211526"/>
<path d="M733.578 508.9C737.028 508.9 740.328 504.85 740.328 500.05C740.478 496.45 738.078 493.75 734.028 493.75C730.578 493.75 727.428 497.8 727.428 502.45C727.428 506.2 729.528 508.9 733.578 508.9ZM711.978 590.2C716.028 590.2 722.778 584.2 730.428 568.6L729.528 568.15L719.028 584.5L710.628 583.45C712.878 577.9 730.128 537.1 730.128 532.6C730.128 527.8 726.828 522.7 723.228 522.7C717.228 522.7 710.478 528.85 702.828 544.3L703.728 544.75L713.928 528.55L722.478 529.3C720.678 535.3 701.328 582.4 701.328 584.95C701.328 586.75 708.978 590.2 711.978 590.2Z" fill="#211526"/>
<path d="M809.23 590.2C813.28 590.2 819.58 584.05 827.23 568.45L826.33 568L815.68 584.5L808.18 583.6C809.68 579.85 811.18 576.4 812.53 572.95C814.93 567.1 817.63 559.9 819.43 555.55C823.63 545.2 827.08 536.2 827.08 532.15C827.08 527.5 821.08 522.85 816.58 522.85C813.58 522.85 809.23 524.8 805.78 528.25C800.68 533.35 791.08 550.15 782.68 566.65L781.78 566.35C788.23 551.2 793.78 537.85 793.78 533.05C793.78 527.95 788.53 522.85 784.18 522.85C781.18 522.85 776.83 524.8 773.38 528.25C768.13 533.5 758.53 550.15 750.13 566.65L749.23 566.35C755.53 551.2 760.33 536.5 760.33 532.45C760.33 527.65 755.83 522.55 752.98 522.55C747.13 522.55 741.43 528.7 733.78 544.3L734.68 544.75L744.88 528.4L751.93 529L741.58 563.35L733.03 588.1L742.93 588.85L748.33 574.6C761.53 546.25 773.38 528.85 777.88 528.85C781.33 528.85 784.33 531.55 784.33 534.55C784.33 537.1 777.13 554.2 772.63 567.55L765.73 588.1L775.63 588.85L780.88 574.6C794.08 546.25 805.78 528.85 810.13 528.85C813.58 528.85 817.63 531.55 817.63 534.4C817.63 536.8 813.13 547.15 809.98 555.55C805.18 568 798.88 582.85 798.88 584.5C798.88 586.45 806.23 590.2 809.23 590.2Z" fill="#211526"/>
<path d="M853.34 588.85C847.94 588.85 844.19 582.55 844.19 578.35C844.19 575.5 844.49 573.4 844.94 572.05C850.49 551.65 860.09 529.3 869.84 529.3C874.79 529.3 878.24 533.95 878.24 544C878.24 556 872.09 574.6 863.09 583.6C860.54 586.15 857.39 588.85 853.34 588.85ZM810.89 625.45L810.44 626.35H843.14L842.99 625.45L838.34 625.3C831.29 625.15 829.49 624.55 829.94 623.5L842.54 581.05H842.84C844.49 585.7 847.19 590.2 853.34 590.2C870.89 590.2 888.29 566.35 888.29 544C888.29 531.4 883.19 523 875.39 523C866.24 523 859.49 532.45 854.69 543.25H853.94C854.99 540.7 856.64 536.05 856.64 532.6C856.64 528.25 852.74 522.7 849.59 522.7C843.74 522.7 837.59 528.85 830.39 544.3L831.29 544.75L841.49 528.55L848.54 529.15L820.34 623.2C819.89 624.85 818.39 624.85 813.74 625.3L810.89 625.45Z" fill="#211526"/>
<path d="M895.82 590.2C899.87 590.2 906.17 584.2 913.82 568.6L912.92 568.15L902.42 584.5L895.22 583.6L924.92 488.95L900.17 491.5L899.87 492.4L911.87 492.85C912.92 492.85 913.07 494.65 912.62 496.3C907.67 512.65 903.32 527.35 899.27 540.25C892.52 562.3 885.92 584.35 885.92 584.8C885.47 586.6 892.82 590.2 895.82 590.2Z" fill="#211526"/>
<path d="M930.004 551.65L929.704 551.5C932.554 542.65 936.904 534.1 941.554 529.45C945.004 526.3 948.154 524.35 951.004 524.35C955.654 524.35 957.454 527.65 957.454 532.3C957.454 542.65 950.854 548.05 930.004 551.65ZM934.204 590.2C945.004 590.2 953.404 579.4 959.854 568.15L958.804 567.7C951.604 579.55 946.504 583.6 939.154 583.6C931.204 583.6 927.004 577.6 927.004 566.8C927.004 562.45 927.904 557.65 929.254 553C954.604 548.8 967.054 542.95 967.054 533.2C967.054 526.75 960.904 522.7 952.504 522.7C935.104 522.7 916.504 547.45 916.504 569.5C916.504 580.3 923.254 590.2 934.204 590.2Z" fill="#211526"/>
<path d="M1015.17 535.9L1007.82 536.05V496.45H1015.62C1031.37 496.45 1039.32 503.05 1039.32 516.1C1039.32 527.35 1031.37 535.45 1015.17 535.9ZM1018.32 587.05L1007.82 584.35V538C1010.22 537.55 1013.82 537.55 1017.27 537.55C1033.62 537.55 1044.87 548.5 1044.87 563.2C1044.87 574.6 1038.12 585.85 1021.62 586.6C1022.07 586.6 1021.32 586.6 1020.27 586.75C1019.82 586.9 1019.07 586.9 1018.32 587.05ZM983.216 587.5L982.766 588.4H1018.92C1044.12 588.4 1057.92 577.9 1057.92 562.45C1057.92 548.8 1046.67 537.7 1024.32 536.5V536.05C1045.62 532.9 1052.67 524.8 1052.67 514.6C1052.67 503.2 1042.62 494.65 1018.47 494.65H982.916L983.366 495.55L987.116 496C994.916 496.6 995.816 497.05 995.816 498.1V584.5C995.816 585.55 993.866 586.45 988.616 586.9L983.216 587.5Z" fill="#211526"/>
<path d="M1108.36 543.7L1077.01 544C1079.41 533.35 1087.06 524.35 1095.31 524.35C1104.46 524.35 1108.36 533.5 1108.36 543.7ZM1094.56 590.35C1106.71 590.35 1114.81 583.15 1121.56 571.3L1120.51 570.85C1114.66 579.85 1108.81 582.85 1099.66 582.85C1086.46 582.85 1076.11 571.15 1076.11 553.45C1076.11 551.2 1076.26 547.6 1076.71 545.35L1119.76 545.5C1119.91 544.45 1120.06 544.15 1120.06 543.4C1120.06 532 1111.51 522.85 1096.36 522.85C1077.31 522.85 1064.71 538.9 1064.71 558.1C1064.71 576.1 1077.61 590.35 1094.56 590.35Z" fill="#211526"/>
<path d="M1145.72 583.6C1139.87 583.6 1135.52 579.25 1135.52 572.5C1135.52 565.15 1138.82 558.85 1160.12 553.6L1159.22 577.45C1155.17 581.5 1150.67 583.6 1145.72 583.6ZM1168.52 589.9C1174.82 589.9 1179.02 583.45 1181.72 580.3L1180.97 579.85C1178.72 582.1 1176.62 583.9 1174.22 583.9C1170.77 583.9 1168.82 582.1 1169.27 577.15L1170.77 544.75C1171.52 527.35 1165.22 522.85 1152.77 522.85C1141.37 522.85 1124.12 531.7 1124.12 539.35C1124.12 542.95 1126.82 545.2 1130.57 545.2C1134.62 545.2 1137.02 542.35 1137.02 539.35C1137.02 535.3 1133.27 532.9 1133.27 531.85C1133.27 530.05 1139.72 526.3 1145.72 526.3C1153.52 526.3 1161.02 530.5 1160.27 545.5L1160.12 552.1C1132.07 558.85 1124.87 566.05 1124.87 575.8C1124.87 583.45 1130.87 589.75 1139.87 589.75C1146.92 589.75 1153.22 584.65 1159.07 579.25V579.4C1159.52 585.85 1163.27 589.9 1168.52 589.9Z" fill="#211526"/>
<path d="M1228.44 577.15L1228.14 590.8L1248.09 585.55L1248.24 584.8L1242.39 583.9C1239.24 583.45 1238.64 582.55 1238.64 579.1V524.95H1217.94L1218.39 525.85L1220.49 526C1226.64 526.45 1227.99 527.5 1227.99 533.65V558.25V575.65C1223.34 579.85 1217.94 582.85 1210.89 582.85C1202.04 582.85 1197.54 578.5 1197.54 569.65V524.95H1176.84L1177.29 525.85L1179.39 526C1187.04 526.45 1187.04 527.2 1187.04 527.95V571.6C1187.04 577.75 1188.09 582.55 1191.54 586C1194.39 588.85 1198.29 590.35 1203.24 590.35C1213.89 590.35 1222.74 582.25 1228.29 577.15H1228.44Z" fill="#211526"/>
<path d="M1270.11 590.35C1277.91 590.35 1283.91 584.8 1289.91 578.8L1289.16 578.35C1285.71 581.2 1282.11 584.2 1276.26 584.2C1270.41 584.2 1266.51 581.05 1266.66 574.6L1267.71 530.2H1287.06L1289.16 524.95H1267.71L1267.86 511.6L1263.51 511.45L1255.11 524.35L1246.41 527.2L1245.36 530.35L1257.06 530.5L1256.16 575.8C1256.16 587.05 1262.76 590.35 1270.11 590.35Z" fill="#211526"/>
<path d="M1299.31 626.8C1308.31 626.8 1313.26 619.45 1317.91 604.45L1322.86 589L1339.51 544.6C1345.51 528.85 1345.96 526.6 1352.86 526.15L1354.81 526L1355.26 525.1H1329.91L1330.36 526L1332.46 526.15C1342.51 526.9 1343.26 528.7 1338.46 542.8L1326.76 574.6L1309.81 533.95C1307.56 528.4 1308.01 526.6 1313.86 526.15L1316.41 526L1316.71 525.1H1286.26L1286.71 526L1289.56 526.15C1294.21 526.6 1294.81 527.35 1298.11 535.45L1321.06 589.3L1321.21 589.45L1317.16 601.75C1313.11 613.6 1310.71 619.3 1305.31 620.35C1304.56 616.3 1301.86 613.15 1297.51 613.15C1293.76 613.15 1290.76 616.3 1290.76 619.9C1290.76 623.95 1294.51 626.8 1299.31 626.8Z" fill="#211526"/>
<path d="M684.3 878.35C694.05 874.6 697.35 865.45 697.35 856.45C697.35 840.25 686.55 830.05 669.45 830.05H630.6V933.4H672.75C691.65 933.4 702.9 919.15 702.9 904.3C702.9 893.05 696.45 881.05 684.3 878.35ZM669.3 842.65C678.75 842.65 683.7 848.95 683.7 857.8C683.7 866.65 679.05 873.1 669.75 873.1H644.25V842.65H669.3ZM669.9 920.8H644.25V885.1H670.65C683.25 885.1 689.25 893.8 689.25 903.1C689.25 912.7 682.65 920.8 669.9 920.8Z" fill="#211526"/>
<path d="M747.882 934.9C767.832 934.9 784.632 920.35 784.632 898.15C784.632 875.95 767.832 861.85 747.882 861.85C727.932 861.85 711.282 875.95 711.282 898.15C711.282 920.35 727.932 934.9 747.882 934.9ZM747.882 922.6C735.132 922.6 724.482 912.7 724.482 898.15C724.482 883.75 735.132 874.15 747.882 874.15C760.782 874.15 771.582 883.75 771.582 898.15C771.582 912.7 760.782 922.6 747.882 922.6Z" fill="#211526"/>
<path d="M828.601 934.9C848.551 934.9 865.351 920.35 865.351 898.15C865.351 875.95 848.551 861.85 828.601 861.85C808.651 861.85 792.001 875.95 792.001 898.15C792.001 920.35 808.651 934.9 828.601 934.9ZM828.601 922.6C815.851 922.6 805.201 912.7 805.201 898.15C805.201 883.75 815.851 874.15 828.601 874.15C841.501 874.15 852.301 883.75 852.301 898.15C852.301 912.7 841.501 922.6 828.601 922.6Z" fill="#211526"/>
<path d="M940.37 933.4L903.02 893.65L933.02 863.35H914.87L890.57 888.1V825.1H877.52V933.4H890.57V899.2L922.82 933.4H940.37Z" fill="#211526"/>
<path d="M1036.75 830.05H960.098V842.65H991.598V933.4H1005.25V842.65H1036.75V830.05Z" fill="#211526"/>
<path d="M1063.59 934.9C1083.54 934.9 1100.34 920.35 1100.34 898.15C1100.34 875.95 1083.54 861.85 1063.59 861.85C1043.64 861.85 1026.99 875.95 1026.99 898.15C1026.99 920.35 1043.64 934.9 1063.59 934.9ZM1063.59 922.6C1050.84 922.6 1040.19 912.7 1040.19 898.15C1040.19 883.75 1050.84 874.15 1063.59 874.15C1076.49 874.15 1087.29 883.75 1087.29 898.15C1087.29 912.7 1076.49 922.6 1063.59 922.6Z" fill="#211526"/>
<path d="M1167.85 825.1V874.3C1163.2 866.05 1153.3 861.85 1142.8 861.85C1123.6 861.85 1107.85 876.1 1107.85 898.3C1107.85 920.35 1123.75 934.9 1142.95 934.9C1153 934.9 1163.2 930.4 1167.85 922.3V933.4H1180.9V825.1H1167.85ZM1144 922.6C1131.25 922.6 1121.05 912.1 1121.05 898.15C1121.05 884.05 1131.25 874.15 1144 874.15C1155.55 874.15 1167.85 883 1167.85 898.15C1167.85 913.15 1156.6 922.6 1144 922.6Z" fill="#211526"/>
<path d="M1253.11 863.35V874.3C1248.46 866.05 1238.56 861.85 1228.06 861.85C1208.86 861.85 1193.11 876.1 1193.11 898.3C1193.11 920.35 1209.01 934.9 1228.21 934.9C1238.26 934.9 1248.46 930.4 1253.11 922.3V933.4H1266.16V863.35H1253.11ZM1229.26 922.6C1216.51 922.6 1206.31 912.1 1206.31 898.15C1206.31 884.05 1216.51 874.15 1229.26 874.15C1240.81 874.15 1253.11 883 1253.11 898.15C1253.11 913.15 1241.86 922.6 1229.26 922.6Z" fill="#211526"/>
<path d="M1330.87 863.35L1309.42 914.95L1288.27 863.35H1274.17L1302.22 931.45L1287.67 967.45H1301.47L1344.97 863.35H1330.87Z" fill="#211526"/>
<path fill-rule="evenodd" clip-rule="evenodd" d="M270 420.4L1830 420.4L1830 421.6L270 421.6L270 420.4Z" fill="#211526"/>
<path fill-rule="evenodd" clip-rule="evenodd" d="M270 761.2L1830 761.2L1830 762.4L270 762.4L270 761.2Z" fill="#211526"/>
<path d="M275.292 838.18C277.866 838.18 279.432 836.434 279.432 834.508C279.432 832.744 278.172 831.592 276.066 831.07L274.446 830.674C272.79 830.278 272.646 829.378 272.646 828.946C272.646 827.722 273.798 826.966 275.04 826.966C276.372 826.966 277.398 827.812 277.398 829.054H279.018C279.018 826.84 277.272 825.454 275.094 825.454C272.934 825.454 271.008 826.822 271.008 828.964C271.008 829.972 271.422 831.52 274.05 832.15L275.652 832.546C276.696 832.816 277.794 833.356 277.794 834.562C277.794 835.66 276.912 836.668 275.292 836.668C273.636 836.668 272.592 835.552 272.538 834.454H270.918C270.936 836.38 272.682 838.18 275.292 838.18Z" fill="#211526"/>
<path d="M285.269 838.18C287.663 838.18 289.679 836.434 289.679 833.77C289.679 831.106 287.663 829.414 285.269 829.414C282.875 829.414 280.877 831.106 280.877 833.77C280.877 836.434 282.875 838.18 285.269 838.18ZM285.269 836.704C283.739 836.704 282.461 835.516 282.461 833.77C282.461 832.042 283.739 830.89 285.269 830.89C286.817 830.89 288.113 832.042 288.113 833.77C288.113 835.516 286.817 836.704 285.269 836.704Z" fill="#211526"/>
<path d="M299.154 829.594H293.772V828.496C293.754 827.398 294.15 826.48 295.644 826.48H296.04V825.004H295.374C293.124 825.004 292.206 826.516 292.206 828.712V829.594H290.586V830.944H292.206V838H293.772V830.944H297.588V838H299.154V829.594ZM298.362 825.454C297.768 825.454 297.264 825.904 297.264 826.498C297.264 827.092 297.768 827.542 298.362 827.542C298.992 827.542 299.478 827.092 299.478 826.498C299.478 825.904 298.992 825.454 298.362 825.454Z" fill="#211526"/>
<path d="M308.337 829.594V830.908C307.779 829.918 306.591 829.414 305.331 829.414C303.027 829.414 301.137 831.124 301.137 833.788C301.137 836.434 303.045 838.18 305.349 838.18C306.555 838.18 307.779 837.64 308.337 836.668V838H309.903V829.594H308.337ZM305.475 836.704C303.945 836.704 302.721 835.444 302.721 833.77C302.721 832.078 303.945 830.89 305.475 830.89C306.861 830.89 308.337 831.952 308.337 833.77C308.337 835.57 306.987 836.704 305.475 836.704Z" fill="#211526"/>
<path d="M322.131 825.598H317.199V838H318.837V833.338H322.131C324.759 833.338 325.821 831.43 325.821 829.468C325.821 827.542 324.759 825.598 322.131 825.598ZM322.023 831.808H318.837V827.11H322.113C323.589 827.11 324.183 828.316 324.183 829.468C324.183 830.656 323.571 831.808 322.023 831.808Z" fill="#211526"/>
<path d="M331.499 829.414C330.383 829.414 329.573 830.026 329.141 831.502V829.594H327.557V838H329.141V834.922C329.141 832.708 329.807 830.926 331.481 830.926C331.805 830.926 332.255 830.998 332.705 831.214L332.957 829.738C332.705 829.576 332.093 829.414 331.499 829.414Z" fill="#211526"/>
<path d="M337.908 838.18C340.302 838.18 342.318 836.434 342.318 833.77C342.318 831.106 340.302 829.414 337.908 829.414C335.514 829.414 333.516 831.106 333.516 833.77C333.516 836.434 335.514 838.18 337.908 838.18ZM337.908 836.704C336.378 836.704 335.1 835.516 335.1 833.77C335.1 832.042 336.378 830.89 337.908 830.89C339.456 830.89 340.752 832.042 340.752 833.77C340.752 835.516 339.456 836.704 337.908 836.704Z" fill="#211526"/>
<path d="M355.549 838H357.511L354.217 833.302C356.557 833.068 357.457 831.268 357.457 829.468C357.457 827.542 356.413 825.598 353.713 825.598H349.051V838H350.689V833.32H352.309L355.549 838ZM350.689 827.11H353.749C355.009 827.11 355.819 828.082 355.819 829.468C355.819 830.872 355.099 831.826 353.281 831.826H350.689V827.11Z" fill="#211526"/>
<path d="M367.242 833.77C367.242 831.106 365.46 829.414 363.066 829.414C360.672 829.414 358.746 831.106 358.746 833.77C358.746 836.434 360.672 838.18 363.066 838.18C364.686 838.18 366.198 837.424 366.936 835.966L365.568 835.426C365.1 836.272 364.146 836.704 363.12 836.704C361.68 836.704 360.6 835.966 360.366 834.472H367.206C367.224 834.238 367.242 834.004 367.242 833.77ZM360.384 833.122C360.636 831.61 361.644 830.89 363.066 830.89C364.452 830.89 365.478 831.682 365.676 833.122H360.384Z" fill="#211526"/>
<path d="M375.821 829.594V830.908C375.263 829.936 374.075 829.414 372.815 829.414C370.511 829.414 368.621 831.124 368.621 833.788C368.621 836.434 370.529 838.18 372.833 838.18C374.039 838.18 375.263 837.64 375.821 836.668V836.83C375.821 839.674 374.669 840.718 372.815 840.718C371.879 840.718 370.889 840.196 370.367 839.242L369.035 839.944C369.863 841.42 371.285 842.194 372.815 842.194C375.587 842.194 377.387 840.7 377.387 836.722V829.594H375.821ZM372.959 836.704C371.429 836.704 370.205 835.444 370.205 833.77C370.205 832.078 371.429 830.89 372.959 830.89C374.345 830.89 375.821 831.952 375.821 833.77C375.821 835.57 374.471 836.704 372.959 836.704Z" fill="#211526"/>
<path d="M386.016 829.594V834.148C385.998 835.966 384.594 836.632 383.424 836.632C382.254 836.632 381.408 835.768 381.408 834.364V829.594H379.842V834.454C379.824 836.812 381.12 838.18 383.226 838.18C384.162 838.18 385.512 837.73 386.016 836.686V838H387.582V829.594H386.016Z" fill="#211526"/>
<path d="M390.124 838H391.69V825.004H390.124V838Z" fill="#211526"/>
<path d="M400.875 829.594V830.908C400.317 829.918 399.129 829.414 397.869 829.414C395.565 829.414 393.675 831.124 393.675 833.788C393.675 836.434 395.583 838.18 397.887 838.18C399.093 838.18 400.317 837.64 400.875 836.668V838H402.441V829.594H400.875ZM398.013 836.704C396.483 836.704 395.259 835.444 395.259 833.77C395.259 832.078 396.483 830.89 398.013 830.89C399.399 830.89 400.875 831.952 400.875 833.77C400.875 835.57 399.525 836.704 398.013 836.704Z" fill="#211526"/>
<path d="M408.946 829.414C407.83 829.414 407.02 830.026 406.588 831.502V829.594H405.004V838H406.588V834.922C406.588 832.708 407.254 830.926 408.928 830.926C409.252 830.926 409.702 830.998 410.152 831.214L410.404 829.738C410.152 829.576 409.54 829.414 408.946 829.414Z" fill="#211526"/>
<path d="M280.53 861.922C279.198 861.922 278.964 860.698 278.964 859.402V857.026H280.53V855.766H278.964V854.254H277.38V855.748H275.184C273.708 855.748 273.096 854.776 273.096 853.858C273.096 852.85 273.816 852.166 274.896 852.166C275.652 852.166 276.228 852.508 276.606 853.138L277.902 852.346C277.29 851.302 276.21 850.654 274.896 850.654C272.934 850.654 271.566 852.112 271.566 853.768C271.566 854.83 272.124 855.766 272.844 856.27C271.692 856.954 270.882 858.052 270.882 859.456C270.882 861.598 272.538 863.38 274.932 863.38C276.174 863.38 277.38 862.894 278.01 861.994C278.262 862.822 279.324 863.362 280.512 863.38H280.836V861.922H280.53ZM274.914 861.868C273.402 861.868 272.412 860.788 272.412 859.402C272.412 858.106 273.312 857.026 275.31 857.026H277.38V859.528C277.326 860.842 276.372 861.868 274.914 861.868Z" fill="#211526"/>
<path d="M293.861 856.594C295.031 856.144 295.427 855.046 295.427 853.966C295.427 852.022 294.131 850.798 292.079 850.798H287.417V863.2H292.475C294.743 863.2 296.093 861.49 296.093 859.708C296.093 858.358 295.319 856.918 293.861 856.594ZM292.061 852.31C293.195 852.31 293.789 853.066 293.789 854.128C293.789 855.19 293.231 855.964 292.115 855.964H289.055V852.31H292.061ZM292.133 861.688H289.055V857.404H292.223C293.735 857.404 294.455 858.448 294.455 859.564C294.455 860.716 293.663 861.688 292.133 861.688Z" fill="#211526"/>
<path d="M302.031 863.38C304.425 863.38 306.441 861.634 306.441 858.97C306.441 856.306 304.425 854.614 302.031 854.614C299.637 854.614 297.639 856.306 297.639 858.97C297.639 861.634 299.637 863.38 302.031 863.38ZM302.031 861.904C300.501 861.904 299.223 860.716 299.223 858.97C299.223 857.242 300.501 856.09 302.031 856.09C303.579 856.09 304.875 857.242 304.875 858.97C304.875 860.716 303.579 861.904 302.031 861.904Z" fill="#211526"/>
<path d="M308.441 863.2H310.007V850.204H308.441V863.2Z" fill="#211526"/>
<path d="M319.192 850.204V856.108C318.634 855.118 317.446 854.614 316.186 854.614C313.882 854.614 311.992 856.324 311.992 858.988C311.992 861.634 313.9 863.38 316.204 863.38C317.41 863.38 318.634 862.84 319.192 861.868V863.2H320.758V850.204H319.192ZM316.33 861.904C314.8 861.904 313.576 860.644 313.576 858.97C313.576 857.278 314.8 856.09 316.33 856.09C317.716 856.09 319.192 857.152 319.192 858.97C319.192 860.77 317.842 861.904 316.33 861.904Z" fill="#211526"/>
<path d="M278.946 474.31V472.798H271.728V485.2H273.366V479.872H277.794V478.342H273.366V474.31H278.946Z" fill="#211526"/>
<path d="M283.919 476.614C282.803 476.614 281.993 477.226 281.561 478.702V476.794H279.977V485.2H281.561V482.122C281.561 479.908 282.227 478.126 283.901 478.126C284.225 478.126 284.675 478.198 285.125 478.414L285.377 476.938C285.125 476.776 284.513 476.614 283.919 476.614Z" fill="#211526"/>
<path d="M294.432 480.97C294.432 478.306 292.65 476.614 290.256 476.614C287.862 476.614 285.936 478.306 285.936 480.97C285.936 483.634 287.862 485.38 290.256 485.38C291.876 485.38 293.388 484.624 294.126 483.166L292.758 482.626C292.29 483.472 291.336 483.904 290.31 483.904C288.87 483.904 287.79 483.166 287.556 481.672H294.396C294.414 481.438 294.432 481.204 294.432 480.97ZM287.574 480.322C287.826 478.81 288.834 478.09 290.256 478.09C291.642 478.09 292.668 478.882 292.866 480.322H287.574Z" fill="#211526"/>
<path d="M297.143 474.742C297.755 474.742 298.259 474.292 298.259 473.698C298.259 473.104 297.755 472.654 297.143 472.654C296.549 472.654 296.045 473.104 296.045 473.698C296.045 474.292 296.549 474.742 297.143 474.742ZM296.369 485.2H297.935V476.794H296.369V485.2Z" fill="#211526"/>
<path d="M307.12 476.794V478.108C306.562 477.136 305.374 476.614 304.114 476.614C301.81 476.614 299.92 478.324 299.92 480.988C299.92 483.634 301.828 485.38 304.132 485.38C305.338 485.38 306.562 484.84 307.12 483.868V484.03C307.12 486.874 305.968 487.918 304.114 487.918C303.178 487.918 302.188 487.396 301.666 486.442L300.334 487.144C301.162 488.62 302.584 489.394 304.114 489.394C306.886 489.394 308.686 487.9 308.686 483.922V476.794H307.12ZM304.258 483.904C302.728 483.904 301.504 482.644 301.504 480.97C301.504 479.278 302.728 478.09 304.258 478.09C305.644 478.09 307.12 479.152 307.12 480.97C307.12 482.77 305.77 483.904 304.258 483.904Z" fill="#211526"/>
<path d="M315.605 476.614C314.687 476.614 313.319 477.046 312.815 478.072V472.204H311.249V485.2H312.815V480.646C312.815 478.828 314.219 478.162 315.389 478.162C316.559 478.162 317.423 479.026 317.423 480.43V485.2H318.989V480.34C319.007 477.982 317.693 476.614 315.605 476.614Z" fill="#211526"/>
<path d="M325.349 476.794H323.531V473.608H321.965V476.794H320.453V478.144H321.965V485.2H323.531V478.144H325.349V476.794Z" fill="#211526"/>
<path d="M338.097 478.594C339.267 478.144 339.663 477.046 339.663 475.966C339.663 474.022 338.367 472.798 336.315 472.798H331.653V485.2H336.711C338.979 485.2 340.329 483.49 340.329 481.708C340.329 480.358 339.555 478.918 338.097 478.594ZM336.297 474.31C337.431 474.31 338.025 475.066 338.025 476.128C338.025 477.19 337.467 477.964 336.351 477.964H333.291V474.31H336.297ZM336.369 483.688H333.291V479.404H336.459C337.971 479.404 338.691 480.448 338.691 481.564C338.691 482.716 337.899 483.688 336.369 483.688Z" fill="#211526"/>
<path d="M343.225 474.742C343.837 474.742 344.341 474.292 344.341 473.698C344.341 473.104 343.837 472.654 343.225 472.654C342.631 472.654 342.127 473.104 342.127 473.698C342.127 474.292 342.631 474.742 343.225 474.742ZM342.451 485.2H344.017V476.794H342.451V485.2Z" fill="#211526"/>
<path d="M353.202 476.794V478.108C352.644 477.136 351.456 476.614 350.196 476.614C347.892 476.614 346.002 478.324 346.002 480.988C346.002 483.634 347.91 485.38 350.214 485.38C351.42 485.38 352.644 484.84 353.202 483.868V484.03C353.202 486.874 352.05 487.918 350.196 487.918C349.26 487.918 348.27 487.396 347.748 486.442L346.416 487.144C347.244 488.62 348.666 489.394 350.196 489.394C352.968 489.394 354.768 487.9 354.768 483.922V476.794H353.202ZM350.34 483.904C348.81 483.904 347.586 482.644 347.586 480.97C347.586 479.278 348.81 478.09 350.34 478.09C351.726 478.09 353.202 479.152 353.202 480.97C353.202 482.77 351.852 483.904 350.34 483.904Z" fill="#211526"/>
<path d="M368.508 478.594C369.678 478.144 370.074 477.046 370.074 475.966C370.074 474.022 368.778 472.798 366.726 472.798H362.064V485.2H367.122C369.39 485.2 370.74 483.49 370.74 481.708C370.74 480.358 369.966 478.918 368.508 478.594ZM366.708 474.31C367.842 474.31 368.436 475.066 368.436 476.128C368.436 477.19 367.878 477.964 366.762 477.964H363.702V474.31H366.708ZM366.78 483.688H363.702V479.404H366.87C368.382 479.404 369.102 480.448 369.102 481.564C369.102 482.716 368.31 483.688 366.78 483.688Z" fill="#211526"/>
<path d="M376.678 485.38C379.072 485.38 381.088 483.634 381.088 480.97C381.088 478.306 379.072 476.614 376.678 476.614C374.284 476.614 372.286 478.306 372.286 480.97C372.286 483.634 374.284 485.38 376.678 485.38ZM376.678 483.904C375.148 483.904 373.87 482.716 373.87 480.97C373.87 479.242 375.148 478.09 376.678 478.09C378.226 478.09 379.522 479.242 379.522 480.97C379.522 482.716 378.226 483.904 376.678 483.904Z" fill="#211526"/>
<path d="M386.904 485.38C389.298 485.38 391.314 483.634 391.314 480.97C391.314 478.306 389.298 476.614 386.904 476.614C384.51 476.614 382.512 478.306 382.512 480.97C382.512 483.634 384.51 485.38 386.904 485.38ZM386.904 483.904C385.374 483.904 384.096 482.716 384.096 480.97C384.096 479.242 385.374 478.09 386.904 478.09C388.452 478.09 389.748 479.242 389.748 480.97C389.748 482.716 388.452 483.904 386.904 483.904Z" fill="#211526"/>
<path d="M400.856 485.2L396.374 480.43L399.974 476.794H397.796L394.88 479.764V472.204H393.314V485.2H394.88V481.096L398.75 485.2H400.856Z" fill="#211526"/>
<path d="M280.53 509.122C279.198 509.122 278.964 507.898 278.964 506.602V504.226H280.53V502.966H278.964V501.454H277.38V502.948H275.184C273.708 502.948 273.096 501.976 273.096 501.058C273.096 500.05 273.816 499.366 274.896 499.366C275.652 499.366 276.228 499.708 276.606 500.338L277.902 499.546C277.29 498.502 276.21 497.854 274.896 497.854C272.934 497.854 271.566 499.312 271.566 500.968C271.566 502.03 272.124 502.966 272.844 503.47C271.692 504.154 270.882 505.252 270.882 506.656C270.882 508.798 272.538 510.58 274.932 510.58C276.174 510.58 277.38 510.094 278.01 509.194C278.262 510.022 279.324 510.562 280.512 510.58H280.836V509.122H280.53ZM274.914 509.068C273.402 509.068 272.412 507.988 272.412 506.602C272.412 505.306 273.312 504.226 275.31 504.226H277.38V506.728C277.326 508.042 276.372 509.068 274.914 509.068Z" fill="#211526"/>
<path d="M293.861 503.794C295.031 503.344 295.427 502.246 295.427 501.166C295.427 499.222 294.131 497.998 292.079 497.998H287.417V510.4H292.475C294.743 510.4 296.093 508.69 296.093 506.908C296.093 505.558 295.319 504.118 293.861 503.794ZM292.061 499.51C293.195 499.51 293.789 500.266 293.789 501.328C293.789 502.39 293.231 503.164 292.115 503.164H289.055V499.51H292.061ZM292.133 508.888H289.055V504.604H292.223C293.735 504.604 294.455 505.648 294.455 506.764C294.455 507.916 293.663 508.888 292.133 508.888Z" fill="#211526"/>
<path d="M302.031 510.58C304.425 510.58 306.441 508.834 306.441 506.17C306.441 503.506 304.425 501.814 302.031 501.814C299.637 501.814 297.639 503.506 297.639 506.17C297.639 508.834 299.637 510.58 302.031 510.58ZM302.031 509.104C300.501 509.104 299.223 507.916 299.223 506.17C299.223 504.442 300.501 503.29 302.031 503.29C303.579 503.29 304.875 504.442 304.875 506.17C304.875 507.916 303.579 509.104 302.031 509.104Z" fill="#211526"/>
<path d="M312.257 510.58C314.651 510.58 316.667 508.834 316.667 506.17C316.667 503.506 314.651 501.814 312.257 501.814C309.863 501.814 307.865 503.506 307.865 506.17C307.865 508.834 309.863 510.58 312.257 510.58ZM312.257 509.104C310.727 509.104 309.449 507.916 309.449 506.17C309.449 504.442 310.727 503.29 312.257 503.29C313.805 503.29 315.101 504.442 315.101 506.17C315.101 507.916 313.805 509.104 312.257 509.104Z" fill="#211526"/>
<path d="M326.209 510.4L321.727 505.63L325.327 501.994H323.149L320.233 504.964V497.404H318.667V510.4H320.233V506.296L324.103 510.4H326.209Z" fill="#211526"/>
<path d="M331.64 510.4H333.278V497.998H331.64V510.4Z" fill="#211526"/>
<path d="M340.212 501.994H338.394V498.808H336.828V501.994H335.316V503.344H336.828V510.4H338.394V503.344H340.212V501.994Z" fill="#211526"/>
<path d="M348.249 501.994V503.308C347.691 502.318 346.503 501.814 345.243 501.814C342.939 501.814 341.049 503.524 341.049 506.188C341.049 508.834 342.957 510.58 345.261 510.58C346.467 510.58 347.691 510.04 348.249 509.068V510.4H349.815V501.994H348.249ZM345.387 509.104C343.857 509.104 342.633 507.844 342.633 506.17C342.633 504.478 343.857 503.29 345.387 503.29C346.773 503.29 348.249 504.352 348.249 506.17C348.249 507.97 346.899 509.104 345.387 509.104Z" fill="#211526"/>
<path d="M352.378 510.4H353.944V497.404H352.378V510.4Z" fill="#211526"/>
<path d="M357.261 499.942C357.873 499.942 358.377 499.492 358.377 498.898C358.377 498.304 357.873 497.854 357.261 497.854C356.667 497.854 356.163 498.304 356.163 498.898C356.163 499.492 356.667 499.942 357.261 499.942ZM356.487 510.4H358.053V501.994H356.487V510.4Z" fill="#211526"/>
<path d="M364.538 510.562C365.852 510.562 367.004 510.058 367.742 509.23L366.752 508.204C366.23 508.744 365.474 509.086 364.592 509.086C362.936 509.086 361.604 507.916 361.604 506.188C361.604 504.46 362.936 503.29 364.592 503.29C365.474 503.29 366.23 503.632 366.752 504.172L367.742 503.146C367.004 502.336 365.852 501.814 364.538 501.814C362.126 501.814 360.02 503.524 360.02 506.188C360.02 508.852 362.126 510.562 364.538 510.562Z" fill="#211526"/>
<path d="M279.648 314.398H270.36V316.36H273.906V326.8H276.102V316.36H279.648V314.398Z" fill="#211526"/>
<path d="M285.004 318.394L282.844 323.722L280.666 318.394H278.38L281.728 326.224L279.838 330.904H282.034L287.254 318.394H285.004Z" fill="#211526"/>
<path d="M293.119 318.214C292.111 318.214 290.905 318.628 290.329 319.51V318.394H288.241V330.904H290.329V325.666C290.905 326.566 292.075 326.962 293.137 326.962C295.351 326.962 297.259 325.288 297.259 322.588C297.259 319.906 295.333 318.214 293.119 318.214ZM292.795 325.018C291.589 325.018 290.365 324.082 290.365 322.606C290.365 321.13 291.517 320.158 292.795 320.158C294.091 320.158 295.171 321.202 295.171 322.606C295.171 324.01 294.091 325.018 292.795 325.018Z" fill="#211526"/>
<path d="M302.827 326.98C305.221 326.98 307.309 325.234 307.309 322.57C307.309 319.906 305.221 318.214 302.827 318.214C300.433 318.214 298.363 319.906 298.363 322.57C298.363 325.234 300.433 326.98 302.827 326.98ZM302.827 325.036C301.531 325.036 300.469 324.046 300.469 322.57C300.469 321.13 301.531 320.158 302.827 320.158C304.123 320.158 305.203 321.13 305.203 322.57C305.203 324.046 304.123 325.036 302.827 325.036Z" fill="#211526"/>
<path d="M315.34 318.394V319.492C314.746 318.628 313.612 318.214 312.532 318.214C310.318 318.214 308.41 319.888 308.41 322.588C308.41 325.27 310.336 326.98 312.55 326.98C313.576 326.98 314.746 326.548 315.34 325.684V325.81C315.34 328.204 314.332 329.14 312.712 329.14C311.794 329.14 310.876 328.6 310.462 327.772L308.734 328.564C309.472 330.094 310.984 331.03 312.712 331.03C315.592 331.03 317.428 329.392 317.428 325.612V318.394H315.34ZM312.874 325.018C311.578 325.018 310.516 323.974 310.516 322.57C310.516 321.166 311.578 320.158 312.874 320.158C314.08 320.158 315.304 321.094 315.304 322.57C315.304 324.046 314.152 325.018 312.874 325.018Z" fill="#211526"/>
<path d="M324.058 318.214C323.014 318.214 322.096 318.79 321.646 320.194V318.394H319.558V326.8H321.664V323.866C321.664 321.508 322.42 320.176 323.788 320.176C324.094 320.176 324.526 320.23 325.012 320.482L325.426 318.502C325.102 318.322 324.562 318.214 324.058 318.214Z" fill="#211526"/>
<path d="M332.655 318.394V319.51C332.079 318.628 330.909 318.214 329.847 318.214C327.633 318.214 325.725 319.888 325.725 322.588C325.725 325.27 327.651 326.98 329.865 326.98C330.891 326.98 332.079 326.566 332.655 325.666V326.8H334.743V318.394H332.655ZM330.189 325.018C328.893 325.018 327.831 323.974 327.831 322.57C327.831 321.166 328.893 320.158 330.189 320.158C331.395 320.158 332.619 321.094 332.619 322.57C332.619 324.046 331.467 325.018 330.189 325.018Z" fill="#211526"/>
<path d="M341.751 318.214C340.743 318.214 339.537 318.628 338.961 319.51V318.394H336.873V330.904H338.961V325.666C339.537 326.566 340.707 326.962 341.769 326.962C343.983 326.962 345.891 325.288 345.891 322.588C345.891 319.906 343.965 318.214 341.751 318.214ZM341.427 325.018C340.221 325.018 338.997 324.082 338.997 322.606C338.997 321.13 340.149 320.158 341.427 320.158C342.723 320.158 343.803 321.202 343.803 322.606C343.803 324.01 342.723 325.018 341.427 325.018Z" fill="#211526"/>
<path d="M352.215 318.214C351.369 318.214 350.019 318.664 349.605 319.672V313.894H347.517V326.8H349.605V322.408C349.605 320.788 350.793 320.266 351.747 320.266C352.683 320.266 353.493 320.95 353.493 322.282V326.8H355.581V322.084C355.581 319.636 354.375 318.214 352.215 318.214Z" fill="#211526"/>
<path d="M362.966 318.394L360.806 323.722L358.628 318.394H356.342L359.69 326.224L357.8 330.904H359.996L365.216 318.394H362.966Z" fill="#211526"/>
</svg>
