<svg width="1600" height="900" viewBox="0 0 1600 900" fill="none" xmlns="http://www.w3.org/2000/svg">
<rect width="1600" height="900" fill="#7EE5E5"/>
<path d="M877.233 632.697C776.167 632.697 736.74 547.734 748.401 461.661C760.063 375.588 822.813 290.071 923.879 290.071C1024.95 290.071 1064.37 375.588 1052.71 461.661C1041.05 547.734 978.299 632.697 877.233 632.697ZM873.901 655.465C998.291 655.465 1093.8 568.836 1108.24 461.661C1122.68 353.931 1051.6 267.303 927.211 267.303C802.822 267.303 707.308 353.931 692.87 461.661C678.432 568.836 749.512 655.465 873.901 655.465ZM637.895 572.723C627.344 613.261 607.908 663.794 589.583 701H655.664C659.552 663.794 671.768 613.261 686.762 572.723H637.895ZM676.211 564.394C575.145 564.394 535.718 479.431 547.379 392.803C559.041 306.73 621.791 221.768 722.857 221.768C823.923 221.768 863.35 306.73 851.689 392.803C840.027 479.431 777.277 564.394 676.211 564.394ZM672.879 587.161C797.268 587.161 892.782 500.533 907.22 392.803C921.658 285.628 850.578 199 726.189 199C601.799 199 506.286 285.628 491.848 392.803C477.41 500.533 548.49 587.161 672.879 587.161Z" fill="#00334C"/>
</svg>
