<svg width="1600" height="900" viewBox="0 0 1600 900" fill="none" xmlns="http://www.w3.org/2000/svg">
<rect width="1600" height="900" fill="#F7F7F7"/>
<path d="M352.29 339.6C291.09 339 252.69 369.9 252.69 441.9C252.69 513.9 290.19 544.2 352.29 544.2C413.19 544.2 439.29 516.6 439.29 464.4C439.29 454.2 437.79 438.3 425.49 445.2C417.99 449.4 408.09 451.8 395.19 451.8C381.69 451.8 370.59 448.8 363.69 445.2C355.59 441.3 347.49 442.2 347.79 460.5C348.09 488.4 354.39 509.7 356.19 516.9C357.09 519.9 355.59 521.1 354.09 521.4C352.29 521.7 350.79 520.8 350.19 518.7C344.49 502.2 339.99 474.6 340.29 437.1C340.59 396.9 346.59 375.9 351.39 362.4C352.29 360.6 353.79 359.4 355.89 359.7C357.39 360.3 358.29 361.8 357.69 363.9C353.79 376.2 350.19 389.4 350.19 403.2C349.29 427.5 359.19 446.1 396.99 446.1C423.39 446.1 439.29 434.4 439.29 402.6C439.29 361.5 403.29 339.9 352.29 339.6ZM496.435 544.2C524.035 544.2 535.135 534 533.335 518.7C531.835 506.4 530.035 493.2 530.335 468C530.935 431.1 541.735 404.4 545.935 395.4C547.435 393 549.235 392.1 551.035 392.7C551.935 393 553.135 394.5 552.235 396.9C548.635 407.1 538.135 428.1 537.235 468.3C536.635 495.6 539.035 515.1 545.635 526.8C551.635 538.2 562.735 544.2 581.935 544.2C607.735 544.2 622.735 532.2 622.735 496.2V433.8C622.735 394.8 605.935 374.7 570.535 374.7C522.235 374.7 512.935 409.8 511.435 440.7C511.435 443.1 509.935 444.6 507.835 444.6C506.335 444.3 504.835 443.1 505.135 440.4C505.435 418.8 509.935 399 525.235 383.7C532.135 376.8 534.235 374.1 534.235 366.9C534.235 334.8 518.635 322.5 492.235 322.5C465.835 322.5 446.635 335.4 446.635 370.8V494.7C446.635 532.2 464.635 544.2 496.435 544.2ZM675.934 373.5C642.634 373.5 630.034 390.9 630.034 426.9V483.9C630.034 522.9 646.834 543.9 683.134 543.9C725.434 543.9 736.534 512.4 740.134 478.2C740.134 476.7 741.334 474.9 743.734 474.9C745.534 474.9 746.734 476.7 746.734 478.8C744.634 502.5 739.534 512.4 734.734 523.5C729.334 536.4 743.434 543.9 763.534 543.9C792.334 543.9 806.134 531.9 806.134 489.9V427.5C806.134 387 789.334 373.5 756.334 373.5C738.634 373.5 712.534 377.1 717.334 398.1C719.134 405.3 723.034 416.7 723.034 440.4C723.034 483.6 710.734 508.5 706.234 517.2C705.334 519 703.534 519.6 701.734 519C700.534 518.7 699.634 517.5 700.234 515.1C703.534 505.8 716.434 486 716.434 440.7C716.434 420.9 714.034 406.2 707.434 391.8C700.834 378 687.934 373.5 675.934 373.5ZM860.232 322.8C833.832 322.8 813.732 334.8 813.732 370.8L813.432 496.2C813.432 532.2 821.532 544.2 851.832 544.2C866.532 544.2 885.732 539.7 879.432 519C876.732 510.9 874.032 502.5 873.132 492.3C872.832 489 874.032 487.5 875.832 487.2C877.932 487.2 879.132 488.7 879.132 490.2C883.932 525.6 896.232 544.2 931.932 544.2C971.232 544.2 994.332 515.1 994.332 458.7C994.332 402.3 971.232 373.8 931.932 373.8C904.932 373.8 881.232 388.8 879.732 426.3C879.432 429 878.232 430.2 876.432 430.2C874.632 430.2 873.432 429 873.432 426.6C873.732 399.3 885.432 387 892.632 380.7C898.032 375.6 902.232 372.9 902.232 365.4C902.232 335.4 886.632 322.8 860.232 322.8ZM900.432 458.7C900.432 441.9 902.232 418.5 907.332 402.6C908.232 399.9 910.032 398.7 911.832 399C913.332 399.3 914.832 400.5 913.932 403.8C909.732 418.5 907.632 441.9 907.632 458.7C907.632 476.4 909.732 498.9 913.932 514.2C914.532 516.9 913.332 518.4 911.532 518.7C909.732 518.7 908.232 518.1 907.632 516C902.232 498.9 900.432 476.4 900.432 458.7ZM1047.44 322.8C1021.04 322.8 1000.94 334.8 1000.94 370.8L1000.64 496.2C1000.64 532.2 1008.74 544.2 1039.04 544.2C1053.74 544.2 1072.94 539.7 1066.64 519C1063.94 510.9 1061.24 502.5 1060.34 492.3C1060.04 489 1061.24 487.5 1063.04 487.2C1065.14 487.2 1066.34 488.7 1066.34 490.2C1071.14 525.6 1083.44 544.2 1119.14 544.2C1158.44 544.2 1181.54 515.1 1181.54 458.7C1181.54 402.3 1158.44 373.8 1119.14 373.8C1092.14 373.8 1068.44 388.8 1066.94 426.3C1066.64 429 1065.44 430.2 1063.64 430.2C1061.84 430.2 1060.64 429 1060.64 426.6C1060.94 399.3 1072.64 387 1079.84 380.7C1085.24 375.6 1089.44 372.9 1089.44 365.4C1089.44 335.4 1073.84 322.8 1047.44 322.8ZM1087.64 458.7C1087.64 441.9 1089.44 418.5 1094.54 402.6C1095.44 399.9 1097.24 398.7 1099.04 399C1100.54 399.3 1102.04 400.5 1101.14 403.8C1096.94 418.5 1094.84 441.9 1094.84 458.7C1094.84 476.4 1096.94 498.9 1101.14 514.2C1101.74 516.9 1100.54 518.4 1098.74 518.7C1096.94 518.7 1095.44 518.1 1094.84 516C1089.44 498.9 1087.64 476.4 1087.64 458.7ZM1268.85 373.8C1316.85 374.7 1347.45 388.8 1347.45 434.7V490.2C1347.45 526.2 1342.65 544.2 1313.85 544.2C1287.45 544.2 1288.95 534 1292.55 527.4C1296.45 521.1 1299.45 513.6 1300.95 505.2C1303.35 494.1 1303.35 480.9 1302.45 468.9C1302.45 467.1 1301.55 465.3 1299.15 465.6C1297.35 465.9 1296.45 467.4 1296.45 469.5C1297.05 479.4 1297.05 488.1 1295.55 500.1C1292.85 521.7 1281.75 544.2 1240.35 544.2C1200.45 544.2 1184.25 524.7 1184.25 493.2C1184.25 468.9 1197.45 456 1209.15 459.3C1217.85 462 1224.75 462.3 1230.75 462.3C1264.65 462.3 1279.65 439.5 1279.35 416.1C1279.05 406.5 1276.65 399.6 1274.55 394.5C1273.65 392.4 1272.15 391.5 1270.65 392.1C1268.85 392.7 1268.55 394.2 1269.15 396.6C1270.95 401.7 1273.05 407.1 1273.05 415.5C1273.05 434.7 1261.35 456.3 1229.85 456.3C1204.05 456.3 1186.95 442.8 1186.95 421.2C1186.95 387.3 1220.85 372.9 1268.85 373.8ZM1262.85 492C1262.85 496.5 1262.85 501.9 1263.15 507C1263.15 508.8 1264.05 510.3 1266.15 510.3C1267.95 510.3 1269.15 508.8 1269.15 507C1269.45 501.9 1269.45 496.5 1269.45 492C1269.45 487.5 1269.45 482.1 1269.15 477C1269.15 474.9 1267.65 473.7 1266.15 473.7C1264.05 473.7 1263.15 474.9 1263.15 477C1262.85 482.1 1262.85 487.2 1262.85 492Z" fill="black"/>
</svg>
