<svg width="1600" height="900" viewBox="0 0 1600 900" fill="none" xmlns="http://www.w3.org/2000/svg">
<rect width="1600" height="900" fill="#FAE6EB"/>
<path d="M1122.09 461.773L1098.9 477.47C1080.7 489.6 1063.94 501.016 1063.94 525.989C1063.94 546.681 1075.35 560.595 1096.04 560.595C1118.16 560.595 1129.22 542.043 1132.08 527.773L1122.09 461.773ZM1139.21 574.865L1134.57 546.324C1126.72 567.016 1110.67 582 1080.35 582C1044.31 582 1023.98 561.308 1023.98 534.551C1023.98 503.87 1047.52 492.811 1071.43 479.254L1119.95 451.784L1115.31 425.384C1112.81 410.757 1111.03 398.627 1101.04 398.627C1081.06 398.627 1090.34 445.005 1054.3 445.005C1035.75 445.005 1026.83 432.519 1022.55 416.822C1065.36 413.968 1075.35 388.995 1109.6 388.995C1145.99 388.995 1155.98 413.254 1160.97 443.222L1178.45 546.324C1180.24 557.027 1182.02 567.73 1189.16 574.865H1139.21ZM956.551 442.508C956.551 416.822 944.422 398.627 921.589 398.627C893.762 398.627 872.357 431.449 872.357 473.546C872.357 527.773 895.903 556.314 925.87 556.314C941.924 556.314 951.557 548.108 956.551 539.546V442.508ZM909.459 579.859C863.795 579.859 833.47 544.541 833.47 493.881C833.47 431.092 872 389.351 922.659 389.351C939.784 389.351 950.13 393.989 955.838 397.557V364.378C955.838 351.535 953.697 340.119 947.276 332.27L997.935 318V542.757C997.935 557.027 1000.08 567.016 1006.5 574.865H957.265V552.746C950.13 567.016 934.432 579.859 909.459 579.859ZM816.346 574.865H757.124C762.832 567.016 764.973 557.027 764.973 542.757V446.432C764.973 425.027 756.054 408.973 734.649 408.973C713.243 408.973 696.476 428.951 696.476 454.995L696.119 542.757C696.119 557.027 698.259 567.016 703.968 574.865H645.103C651.524 567.016 655.092 557.027 655.092 542.757V435.73C655.092 422.886 652.951 411.47 646.53 403.622L696.476 389.351V419.319C707.892 405.049 727.157 389.351 752.13 389.351C787.805 389.351 807.07 410.043 807.07 453.568V542.757C807.07 557.027 809.924 567.016 816.346 574.865ZM452.097 503.87H556.627V514.573H452.097V503.87ZM445.319 532.054C436.043 555.957 441.038 568.086 444.962 574.865H410C416.422 567.73 422.13 560.595 427.124 547.751L515.6 322.281H520.238L613.708 547.751C617.989 557.741 624.411 567.73 632.259 574.865H561.622C567.33 560.595 565.903 545.254 559.124 528.13L502.757 384L445.319 532.054Z" fill="#D91435"/>
</svg>
