<svg width="900" height="900" viewBox="0 0 900 900" fill="none" xmlns="http://www.w3.org/2000/svg">
<rect width="900" height="900" fill="black"/>
<path d="M129.216 446.504C132.288 441.456 136.128 437.741 140.736 435.357C145.484 432.833 150.371 431.571 155.398 431.571C162.24 431.571 167.756 433.675 171.945 437.881C176.134 442.087 178.229 448.046 178.229 455.758V470.06C156.306 472.864 141.085 477.351 132.567 483.52C124.189 489.549 120 496.77 120 505.183C120 510.651 121.396 515.278 124.189 519.064C126.982 522.709 130.403 525.373 134.453 527.056C138.642 528.738 142.761 529.579 146.81 529.579C155.049 529.579 161.821 527.616 167.128 523.69C172.434 519.624 176.902 513.876 180.533 506.444V526.635H212.58V524.111L195.823 514.016V454.917C195.823 442.718 192.681 433.464 186.398 427.155C180.114 420.845 171.666 417.69 161.053 417.69C152.396 417.69 144.786 420.355 138.223 425.683C131.66 430.87 127.54 437.53 125.865 445.663L129.216 446.504ZM178.648 480.155C178.648 488.287 177.321 495.017 174.668 500.345C172.015 505.673 168.664 509.599 164.614 512.123C160.704 514.507 156.725 515.698 152.675 515.698C148.486 515.698 145.065 514.647 142.412 512.544C139.759 510.44 138.432 507.566 138.432 503.921C138.432 498.032 141.714 493.124 148.277 489.198C154.84 485.273 164.963 482.258 178.648 480.155Z" fill="white"/>
<path d="M286.698 442.929C284.883 437.32 280.903 434.516 274.759 434.516C270.43 434.516 266.52 435.918 263.029 438.722C259.538 441.526 256.676 445.312 254.442 450.079V513.175L271.198 524.111V526.635H219.672V524.111L236.428 513.175V434.095L219.672 424V421.476H254.442V438.722C257.234 432.272 261.144 427.155 266.171 423.369C271.198 419.583 276.644 417.69 282.509 417.69C288.094 417.69 292.702 418.742 296.333 420.845L288.793 442.929H286.698Z" fill="white"/>
<path d="M398.24 496.98C396.983 506.655 392.794 514.577 385.673 520.746C378.551 526.915 369.335 530 358.024 530C347.412 530 338.056 527.546 329.957 522.639C321.858 517.591 315.575 510.861 311.106 502.448C306.638 493.896 304.404 484.431 304.404 474.056C304.404 463.82 306.568 454.426 310.897 445.873C315.365 437.32 321.509 430.59 329.329 425.683C337.288 420.635 346.225 418.111 356.139 418.111C365.495 418.111 373.664 419.653 380.646 422.738C387.767 425.683 393.492 429.188 397.821 433.254L386.72 456.81H384.207C381.693 448.677 377.923 442.368 372.896 437.881C367.869 433.394 361.655 431.151 354.254 431.151C344.899 431.151 337.428 434.937 331.842 442.508C326.397 449.939 323.674 459.193 323.674 470.27C323.674 478.262 325.419 485.693 328.91 492.563C332.401 499.294 337.149 504.692 343.153 508.758C349.297 512.824 356.209 514.857 363.889 514.857C370.592 514.857 376.666 513.245 382.112 510.02C387.697 506.655 391.956 502.028 394.889 496.139L398.24 496.98Z" fill="white"/>
<path d="M437.618 438.722C441.109 432.132 445.577 427.015 451.023 423.369C456.609 419.583 462.892 417.69 469.874 417.69C479.23 417.69 486.84 420.705 492.705 426.734C498.709 432.763 501.712 441.807 501.712 453.865V514.016L518.468 524.111V526.635H469.455V524.111L483.698 514.016V454.706C483.698 446.854 481.813 440.966 478.043 437.04C474.273 432.974 469.386 430.94 463.381 430.94C458.773 430.94 454.095 432.693 449.348 436.198C444.6 439.563 440.69 444.751 437.618 451.762V514.016L451.861 524.111V526.635H402.848V524.111L419.605 514.016V384.46L402.848 374.365V371.841H437.618V438.722Z" fill="white"/>
<path d="M560.297 514.016L577.054 524.111V526.635H525.528V524.111L542.284 514.016V434.095L525.528 424V421.476H560.297V514.016ZM551.291 397.079C547.8 397.079 544.728 395.817 542.075 393.294C539.561 390.63 538.304 387.545 538.304 384.04C538.304 380.394 539.561 377.31 542.075 374.786C544.728 372.262 547.8 371 551.291 371C554.921 371 557.993 372.262 560.507 374.786C563.02 377.31 564.277 380.394 564.277 384.04C564.277 387.545 563.02 390.63 560.507 393.294C557.993 395.817 554.921 397.079 551.291 397.079Z" fill="white"/>
<path d="M628.999 529.159L587.527 434.095L570.77 424V421.476H619.783V424L607.216 434.095L633.817 496.349L656.228 434.095L641.566 424V421.476H684.715V424L667.958 434.095L632.35 529.159H628.999Z" fill="white"/>
<path d="M684.256 474.056C684.256 463.82 686.421 454.426 690.749 445.873C695.218 437.32 701.362 430.59 709.182 425.683C717.141 420.635 726.078 418.111 735.992 418.111C748.001 418.111 758.194 422.247 766.573 430.52C775.091 438.652 779.35 451.972 779.35 470.48H693.891V459.544H758.823C758.404 451.131 755.96 444.261 751.492 438.933C747.023 433.464 740.81 430.73 732.85 430.73C724.053 430.73 716.932 434.376 711.486 441.667C706.179 448.958 703.526 458.492 703.526 470.27C703.526 478.542 705.272 486.114 708.763 492.984C712.254 499.714 717.071 505.042 723.215 508.968C729.499 512.894 736.62 514.857 744.58 514.857C751.422 514.857 757.496 513.315 762.803 510.23C768.248 507.146 772.368 502.729 775.161 496.98L778.512 497.821C777.255 507.356 772.996 515.138 765.735 521.167C758.613 527.056 749.328 530 737.877 530C727.265 530 717.909 527.546 709.81 522.639C701.711 517.591 695.427 510.861 690.959 502.448C686.491 493.896 684.256 484.431 684.256 474.056Z" fill="white"/>
</svg>
