<svg width="900" height="900" viewBox="0 0 900 900" fill="none" xmlns="http://www.w3.org/2000/svg">
<g clip-path="url(#clip0)">
<rect width="900" height="900" fill="#0D0C0D"/>
<path fill-rule="evenodd" clip-rule="evenodd" d="M-35.5 29.5H25.5V270.5H-35.5V29.5ZM-34.5 30.5V269.5H24.5V30.5H-34.5Z" fill="#807680"/>
<path fill-rule="evenodd" clip-rule="evenodd" d="M-5 222.5C-14.665 222.5 -22.5 230.335 -22.5 240C-22.5 249.665 -14.665 257.5 -5 257.5C4.66498 257.5 12.5 249.665 12.5 240C12.5 230.335 4.66498 222.5 -5 222.5ZM-23.5 240C-23.5 229.783 -15.2173 221.5 -5 221.5C5.21727 221.5 13.5 229.783 13.5 240C13.5 250.217 5.21727 258.5 -5 258.5C-15.2173 258.5 -23.5 250.217 -23.5 240Z" fill="#807680"/>
<path fill-rule="evenodd" clip-rule="evenodd" d="M-25.5 39.5H15.5V180.5H-25.5V39.5ZM-24.5 40.5V179.5H14.5V40.5H-24.5Z" fill="#807680"/>
<path fill-rule="evenodd" clip-rule="evenodd" d="M24.5 29.5H85.5V270.5H24.5V29.5ZM25.5 30.5V269.5H84.5V30.5H25.5Z" fill="#807680"/>
<path fill-rule="evenodd" clip-rule="evenodd" d="M55 222.5C45.335 222.5 37.5 230.335 37.5 240C37.5 249.665 45.335 257.5 55 257.5C64.665 257.5 72.5 249.665 72.5 240C72.5 230.335 64.665 222.5 55 222.5ZM36.5 240C36.5 229.783 44.7827 221.5 55 221.5C65.2173 221.5 73.5 229.783 73.5 240C73.5 250.217 65.2173 258.5 55 258.5C44.7827 258.5 36.5 250.217 36.5 240Z" fill="#807680"/>
<path fill-rule="evenodd" clip-rule="evenodd" d="M34.5 39.5H75.5V180.5H34.5V39.5ZM35.5 40.5V179.5H74.5V40.5H35.5Z" fill="#807680"/>
<path fill-rule="evenodd" clip-rule="evenodd" d="M84.5 29.5H145.5V270.5H84.5V29.5ZM85.5 30.5V269.5H144.5V30.5H85.5Z" fill="#807680"/>
<path fill-rule="evenodd" clip-rule="evenodd" d="M115 222.5C105.335 222.5 97.5 230.335 97.5 240C97.5 249.665 105.335 257.5 115 257.5C124.665 257.5 132.5 249.665 132.5 240C132.5 230.335 124.665 222.5 115 222.5ZM96.5 240C96.5 229.783 104.783 221.5 115 221.5C125.217 221.5 133.5 229.783 133.5 240C133.5 250.217 125.217 258.5 115 258.5C104.783 258.5 96.5 250.217 96.5 240Z" fill="#807680"/>
<path fill-rule="evenodd" clip-rule="evenodd" d="M94.5 39.5H135.5V180.5H94.5V39.5ZM95.5 40.5V179.5H134.5V40.5H95.5Z" fill="#807680"/>
<path fill-rule="evenodd" clip-rule="evenodd" d="M144.5 29.5H205.5V270.5H144.5V29.5ZM145.5 30.5V269.5H204.5V30.5H145.5Z" fill="#807680"/>
<path fill-rule="evenodd" clip-rule="evenodd" d="M175 222.5C165.335 222.5 157.5 230.335 157.5 240C157.5 249.665 165.335 257.5 175 257.5C184.665 257.5 192.5 249.665 192.5 240C192.5 230.335 184.665 222.5 175 222.5ZM156.5 240C156.5 229.783 164.783 221.5 175 221.5C185.217 221.5 193.5 229.783 193.5 240C193.5 250.217 185.217 258.5 175 258.5C164.783 258.5 156.5 250.217 156.5 240Z" fill="#807680"/>
<path fill-rule="evenodd" clip-rule="evenodd" d="M154.5 39.5H195.5V180.5H154.5V39.5ZM155.5 40.5V179.5H194.5V40.5H155.5Z" fill="#807680"/>
<path fill-rule="evenodd" clip-rule="evenodd" d="M204.5 29.5H265.5V270.5H204.5V29.5ZM205.5 30.5V269.5H264.5V30.5H205.5Z" fill="#807680"/>
<path fill-rule="evenodd" clip-rule="evenodd" d="M235 222.5C225.335 222.5 217.5 230.335 217.5 240C217.5 249.665 225.335 257.5 235 257.5C244.665 257.5 252.5 249.665 252.5 240C252.5 230.335 244.665 222.5 235 222.5ZM216.5 240C216.5 229.783 224.783 221.5 235 221.5C245.217 221.5 253.5 229.783 253.5 240C253.5 250.217 245.217 258.5 235 258.5C224.783 258.5 216.5 250.217 216.5 240Z" fill="#807680"/>
<path fill-rule="evenodd" clip-rule="evenodd" d="M214.5 39.5H255.5V180.5H214.5V39.5ZM215.5 40.5V179.5H254.5V40.5H215.5Z" fill="#807680"/>
<path fill-rule="evenodd" clip-rule="evenodd" d="M264.5 29.5H325.5V270.5H264.5V29.5ZM265.5 30.5V269.5H324.5V30.5H265.5Z" fill="#807680"/>
<path fill-rule="evenodd" clip-rule="evenodd" d="M295 222.5C285.335 222.5 277.5 230.335 277.5 240C277.5 249.665 285.335 257.5 295 257.5C304.665 257.5 312.5 249.665 312.5 240C312.5 230.335 304.665 222.5 295 222.5ZM276.5 240C276.5 229.783 284.783 221.5 295 221.5C305.217 221.5 313.5 229.783 313.5 240C313.5 250.217 305.217 258.5 295 258.5C284.783 258.5 276.5 250.217 276.5 240Z" fill="#807680"/>
<path fill-rule="evenodd" clip-rule="evenodd" d="M274.5 39.5H315.5V180.5H274.5V39.5ZM275.5 40.5V179.5H314.5V40.5H275.5Z" fill="#807680"/>
<path fill-rule="evenodd" clip-rule="evenodd" d="M324.5 29.5H385.5V270.5H324.5V29.5ZM325.5 30.5V269.5H384.5V30.5H325.5Z" fill="#807680"/>
<path fill-rule="evenodd" clip-rule="evenodd" d="M355 222.5C345.335 222.5 337.5 230.335 337.5 240C337.5 249.665 345.335 257.5 355 257.5C364.665 257.5 372.5 249.665 372.5 240C372.5 230.335 364.665 222.5 355 222.5ZM336.5 240C336.5 229.783 344.783 221.5 355 221.5C365.217 221.5 373.5 229.783 373.5 240C373.5 250.217 365.217 258.5 355 258.5C344.783 258.5 336.5 250.217 336.5 240Z" fill="#807680"/>
<path fill-rule="evenodd" clip-rule="evenodd" d="M334.5 39.5H375.5V180.5H334.5V39.5ZM335.5 40.5V179.5H374.5V40.5H335.5Z" fill="#807680"/>
<path fill-rule="evenodd" clip-rule="evenodd" d="M384.5 29.5H445.5V270.5H384.5V29.5ZM385.5 30.5V269.5H444.5V30.5H385.5Z" fill="#807680"/>
<path fill-rule="evenodd" clip-rule="evenodd" d="M415 222.5C405.335 222.5 397.5 230.335 397.5 240C397.5 249.665 405.335 257.5 415 257.5C424.665 257.5 432.5 249.665 432.5 240C432.5 230.335 424.665 222.5 415 222.5ZM396.5 240C396.5 229.783 404.783 221.5 415 221.5C425.217 221.5 433.5 229.783 433.5 240C433.5 250.217 425.217 258.5 415 258.5C404.783 258.5 396.5 250.217 396.5 240Z" fill="#807680"/>
<path fill-rule="evenodd" clip-rule="evenodd" d="M394.5 39.5H435.5V180.5H394.5V39.5ZM395.5 40.5V179.5H434.5V40.5H395.5Z" fill="#807680"/>
<path fill-rule="evenodd" clip-rule="evenodd" d="M444.5 29.5H505.5V270.5H444.5V29.5ZM445.5 30.5V269.5H504.5V30.5H445.5Z" fill="#807680"/>
<path fill-rule="evenodd" clip-rule="evenodd" d="M475 222.5C465.335 222.5 457.5 230.335 457.5 240C457.5 249.665 465.335 257.5 475 257.5C484.665 257.5 492.5 249.665 492.5 240C492.5 230.335 484.665 222.5 475 222.5ZM456.5 240C456.5 229.783 464.783 221.5 475 221.5C485.217 221.5 493.5 229.783 493.5 240C493.5 250.217 485.217 258.5 475 258.5C464.783 258.5 456.5 250.217 456.5 240Z" fill="#807680"/>
<path fill-rule="evenodd" clip-rule="evenodd" d="M454.5 39.5H495.5V180.5H454.5V39.5ZM455.5 40.5V179.5H494.5V40.5H455.5Z" fill="#807680"/>
<path fill-rule="evenodd" clip-rule="evenodd" d="M504.5 29.5H565.5V270.5H504.5V29.5ZM505.5 30.5V269.5H564.5V30.5H505.5Z" fill="#807680"/>
<path fill-rule="evenodd" clip-rule="evenodd" d="M535 222.5C525.335 222.5 517.5 230.335 517.5 240C517.5 249.665 525.335 257.5 535 257.5C544.665 257.5 552.5 249.665 552.5 240C552.5 230.335 544.665 222.5 535 222.5ZM516.5 240C516.5 229.783 524.783 221.5 535 221.5C545.217 221.5 553.5 229.783 553.5 240C553.5 250.217 545.217 258.5 535 258.5C524.783 258.5 516.5 250.217 516.5 240Z" fill="#807680"/>
<path fill-rule="evenodd" clip-rule="evenodd" d="M514.5 39.5H555.5V180.5H514.5V39.5ZM515.5 40.5V179.5H554.5V40.5H515.5Z" fill="#807680"/>
<path fill-rule="evenodd" clip-rule="evenodd" d="M564.5 29.5H625.5V270.5H564.5V29.5ZM565.5 30.5V269.5H624.5V30.5H565.5Z" fill="#807680"/>
<path fill-rule="evenodd" clip-rule="evenodd" d="M595 222.5C585.335 222.5 577.5 230.335 577.5 240C577.5 249.665 585.335 257.5 595 257.5C604.665 257.5 612.5 249.665 612.5 240C612.5 230.335 604.665 222.5 595 222.5ZM576.5 240C576.5 229.783 584.783 221.5 595 221.5C605.217 221.5 613.5 229.783 613.5 240C613.5 250.217 605.217 258.5 595 258.5C584.783 258.5 576.5 250.217 576.5 240Z" fill="#807680"/>
<path fill-rule="evenodd" clip-rule="evenodd" d="M574.5 39.5H615.5V180.5H574.5V39.5ZM575.5 40.5V179.5H614.5V40.5H575.5Z" fill="#807680"/>
<path fill-rule="evenodd" clip-rule="evenodd" d="M624.5 29.5H685.5V270.5H624.5V29.5ZM625.5 30.5V269.5H684.5V30.5H625.5Z" fill="#807680"/>
<path fill-rule="evenodd" clip-rule="evenodd" d="M655 222.5C645.335 222.5 637.5 230.335 637.5 240C637.5 249.665 645.335 257.5 655 257.5C664.665 257.5 672.5 249.665 672.5 240C672.5 230.335 664.665 222.5 655 222.5ZM636.5 240C636.5 229.783 644.783 221.5 655 221.5C665.217 221.5 673.5 229.783 673.5 240C673.5 250.217 665.217 258.5 655 258.5C644.783 258.5 636.5 250.217 636.5 240Z" fill="#807680"/>
<path fill-rule="evenodd" clip-rule="evenodd" d="M634.5 39.5H675.5V180.5H634.5V39.5ZM635.5 40.5V179.5H674.5V40.5H635.5Z" fill="#807680"/>
<path fill-rule="evenodd" clip-rule="evenodd" d="M684.5 29.5H745.5V270.5H684.5V29.5ZM685.5 30.5V269.5H744.5V30.5H685.5Z" fill="#807680"/>
<path fill-rule="evenodd" clip-rule="evenodd" d="M715 222.5C705.335 222.5 697.5 230.335 697.5 240C697.5 249.665 705.335 257.5 715 257.5C724.665 257.5 732.5 249.665 732.5 240C732.5 230.335 724.665 222.5 715 222.5ZM696.5 240C696.5 229.783 704.783 221.5 715 221.5C725.217 221.5 733.5 229.783 733.5 240C733.5 250.217 725.217 258.5 715 258.5C704.783 258.5 696.5 250.217 696.5 240Z" fill="#807680"/>
<path fill-rule="evenodd" clip-rule="evenodd" d="M694.5 39.5H735.5V180.5H694.5V39.5ZM695.5 40.5V179.5H734.5V40.5H695.5Z" fill="#807680"/>
<path fill-rule="evenodd" clip-rule="evenodd" d="M744.5 29.5H805.5V270.5H744.5V29.5ZM745.5 30.5V269.5H804.5V30.5H745.5Z" fill="#807680"/>
<path fill-rule="evenodd" clip-rule="evenodd" d="M775 222.5C765.335 222.5 757.5 230.335 757.5 240C757.5 249.665 765.335 257.5 775 257.5C784.665 257.5 792.5 249.665 792.5 240C792.5 230.335 784.665 222.5 775 222.5ZM756.5 240C756.5 229.783 764.783 221.5 775 221.5C785.217 221.5 793.5 229.783 793.5 240C793.5 250.217 785.217 258.5 775 258.5C764.783 258.5 756.5 250.217 756.5 240Z" fill="#807680"/>
<path fill-rule="evenodd" clip-rule="evenodd" d="M754.5 39.5H795.5V180.5H754.5V39.5ZM755.5 40.5V179.5H794.5V40.5H755.5Z" fill="#807680"/>
<path fill-rule="evenodd" clip-rule="evenodd" d="M804.5 29.5H865.5V270.5H804.5V29.5ZM805.5 30.5V269.5H864.5V30.5H805.5Z" fill="#807680"/>
<path fill-rule="evenodd" clip-rule="evenodd" d="M835 222.5C825.335 222.5 817.5 230.335 817.5 240C817.5 249.665 825.335 257.5 835 257.5C844.665 257.5 852.5 249.665 852.5 240C852.5 230.335 844.665 222.5 835 222.5ZM816.5 240C816.5 229.783 824.783 221.5 835 221.5C845.217 221.5 853.5 229.783 853.5 240C853.5 250.217 845.217 258.5 835 258.5C824.783 258.5 816.5 250.217 816.5 240Z" fill="#807680"/>
<path fill-rule="evenodd" clip-rule="evenodd" d="M814.5 39.5H855.5V180.5H814.5V39.5ZM815.5 40.5V179.5H854.5V40.5H815.5Z" fill="#807680"/>
<path fill-rule="evenodd" clip-rule="evenodd" d="M864.5 29.5H925.5V270.5H864.5V29.5ZM865.5 30.5V269.5H924.5V30.5H865.5Z" fill="#807680"/>
<path fill-rule="evenodd" clip-rule="evenodd" d="M895 222.5C885.335 222.5 877.5 230.335 877.5 240C877.5 249.665 885.335 257.5 895 257.5C904.665 257.5 912.5 249.665 912.5 240C912.5 230.335 904.665 222.5 895 222.5ZM876.5 240C876.5 229.783 884.783 221.5 895 221.5C905.217 221.5 913.5 229.783 913.5 240C913.5 250.217 905.217 258.5 895 258.5C884.783 258.5 876.5 250.217 876.5 240Z" fill="#807680"/>
<path fill-rule="evenodd" clip-rule="evenodd" d="M874.5 39.5H915.5V180.5H874.5V39.5ZM875.5 40.5V179.5H914.5V40.5H875.5Z" fill="#807680"/>
<path fill-rule="evenodd" clip-rule="evenodd" d="M-143.5 269.5H1812.5V290.5H-143.5V269.5ZM-142.5 270.5V289.5H1811.5V270.5H-142.5Z" fill="#807680"/>
<path fill-rule="evenodd" clip-rule="evenodd" d="M-18.5 319.5H42.5V560.5H-18.5V319.5ZM-17.5 320.5V559.5H41.5V320.5H-17.5Z" fill="#807680"/>
<path fill-rule="evenodd" clip-rule="evenodd" d="M12 512.5C2.33502 512.5 -5.5 520.335 -5.5 530C-5.5 539.665 2.33502 547.5 12 547.5C21.665 547.5 29.5 539.665 29.5 530C29.5 520.335 21.665 512.5 12 512.5ZM-6.5 530C-6.5 519.783 1.78273 511.5 12 511.5C22.2173 511.5 30.5 519.783 30.5 530C30.5 540.217 22.2173 548.5 12 548.5C1.78273 548.5 -6.5 540.217 -6.5 530Z" fill="#807680"/>
<path fill-rule="evenodd" clip-rule="evenodd" d="M-8.5 329.5H32.5V470.5H-8.5V329.5ZM-7.5 330.5V469.5H31.5V330.5H-7.5Z" fill="#807680"/>
<path fill-rule="evenodd" clip-rule="evenodd" d="M41.5 319.5H102.5V560.5H41.5V319.5ZM42.5 320.5V559.5H101.5V320.5H42.5Z" fill="#807680"/>
<path fill-rule="evenodd" clip-rule="evenodd" d="M72 512.5C62.335 512.5 54.5 520.335 54.5 530C54.5 539.665 62.335 547.5 72 547.5C81.665 547.5 89.5 539.665 89.5 530C89.5 520.335 81.665 512.5 72 512.5ZM53.5 530C53.5 519.783 61.7827 511.5 72 511.5C82.2173 511.5 90.5 519.783 90.5 530C90.5 540.217 82.2173 548.5 72 548.5C61.7827 548.5 53.5 540.217 53.5 530Z" fill="#807680"/>
<path fill-rule="evenodd" clip-rule="evenodd" d="M51.5 329.5H92.5V470.5H51.5V329.5ZM52.5 330.5V469.5H91.5V330.5H52.5Z" fill="#807680"/>
<path fill-rule="evenodd" clip-rule="evenodd" d="M101.5 319.5H162.5V560.5H101.5V319.5ZM102.5 320.5V559.5H161.5V320.5H102.5Z" fill="#807680"/>
<path fill-rule="evenodd" clip-rule="evenodd" d="M132 512.5C122.335 512.5 114.5 520.335 114.5 530C114.5 539.665 122.335 547.5 132 547.5C141.665 547.5 149.5 539.665 149.5 530C149.5 520.335 141.665 512.5 132 512.5ZM113.5 530C113.5 519.783 121.783 511.5 132 511.5C142.217 511.5 150.5 519.783 150.5 530C150.5 540.217 142.217 548.5 132 548.5C121.783 548.5 113.5 540.217 113.5 530Z" fill="#807680"/>
<path fill-rule="evenodd" clip-rule="evenodd" d="M111.5 329.5H152.5V470.5H111.5V329.5ZM112.5 330.5V469.5H151.5V330.5H112.5Z" fill="#807680"/>
<path fill-rule="evenodd" clip-rule="evenodd" d="M161.5 319.5H222.5V560.5H161.5V319.5ZM162.5 320.5V559.5H221.5V320.5H162.5Z" fill="#807680"/>
<path fill-rule="evenodd" clip-rule="evenodd" d="M192 512.5C182.335 512.5 174.5 520.335 174.5 530C174.5 539.665 182.335 547.5 192 547.5C201.665 547.5 209.5 539.665 209.5 530C209.5 520.335 201.665 512.5 192 512.5ZM173.5 530C173.5 519.783 181.783 511.5 192 511.5C202.217 511.5 210.5 519.783 210.5 530C210.5 540.217 202.217 548.5 192 548.5C181.783 548.5 173.5 540.217 173.5 530Z" fill="#807680"/>
<path fill-rule="evenodd" clip-rule="evenodd" d="M171.5 329.5H212.5V470.5H171.5V329.5ZM172.5 330.5V469.5H211.5V330.5H172.5Z" fill="#807680"/>
<path fill-rule="evenodd" clip-rule="evenodd" d="M221.5 319.5H282.5V560.5H221.5V319.5ZM222.5 320.5V559.5H281.5V320.5H222.5Z" fill="#807680"/>
<path fill-rule="evenodd" clip-rule="evenodd" d="M252 512.5C242.335 512.5 234.5 520.335 234.5 530C234.5 539.665 242.335 547.5 252 547.5C261.665 547.5 269.5 539.665 269.5 530C269.5 520.335 261.665 512.5 252 512.5ZM233.5 530C233.5 519.783 241.783 511.5 252 511.5C262.217 511.5 270.5 519.783 270.5 530C270.5 540.217 262.217 548.5 252 548.5C241.783 548.5 233.5 540.217 233.5 530Z" fill="#807680"/>
<path fill-rule="evenodd" clip-rule="evenodd" d="M231.5 329.5H272.5V470.5H231.5V329.5ZM232.5 330.5V469.5H271.5V330.5H232.5Z" fill="#807680"/>
<path fill-rule="evenodd" clip-rule="evenodd" d="M281.5 319.5H342.5V560.5H281.5V319.5ZM282.5 320.5V559.5H341.5V320.5H282.5Z" fill="#807680"/>
<path fill-rule="evenodd" clip-rule="evenodd" d="M312 512.5C302.335 512.5 294.5 520.335 294.5 530C294.5 539.665 302.335 547.5 312 547.5C321.665 547.5 329.5 539.665 329.5 530C329.5 520.335 321.665 512.5 312 512.5ZM293.5 530C293.5 519.783 301.783 511.5 312 511.5C322.217 511.5 330.5 519.783 330.5 530C330.5 540.217 322.217 548.5 312 548.5C301.783 548.5 293.5 540.217 293.5 530Z" fill="#807680"/>
<path fill-rule="evenodd" clip-rule="evenodd" d="M291.5 329.5H332.5V470.5H291.5V329.5ZM292.5 330.5V469.5H331.5V330.5H292.5Z" fill="#807680"/>
<path fill-rule="evenodd" clip-rule="evenodd" d="M341.5 319.5H402.5V560.5H341.5V319.5ZM342.5 320.5V559.5H401.5V320.5H342.5Z" fill="#807680"/>
<path fill-rule="evenodd" clip-rule="evenodd" d="M372 512.5C362.335 512.5 354.5 520.335 354.5 530C354.5 539.665 362.335 547.5 372 547.5C381.665 547.5 389.5 539.665 389.5 530C389.5 520.335 381.665 512.5 372 512.5ZM353.5 530C353.5 519.783 361.783 511.5 372 511.5C382.217 511.5 390.5 519.783 390.5 530C390.5 540.217 382.217 548.5 372 548.5C361.783 548.5 353.5 540.217 353.5 530Z" fill="#807680"/>
<path fill-rule="evenodd" clip-rule="evenodd" d="M351.5 329.5H392.5V470.5H351.5V329.5ZM352.5 330.5V469.5H391.5V330.5H352.5Z" fill="#807680"/>
<path fill-rule="evenodd" clip-rule="evenodd" d="M401.5 319.5H462.5V560.5H401.5V319.5ZM402.5 320.5V559.5H461.5V320.5H402.5Z" fill="#807680"/>
<path fill-rule="evenodd" clip-rule="evenodd" d="M432 512.5C422.335 512.5 414.5 520.335 414.5 530C414.5 539.665 422.335 547.5 432 547.5C441.665 547.5 449.5 539.665 449.5 530C449.5 520.335 441.665 512.5 432 512.5ZM413.5 530C413.5 519.783 421.783 511.5 432 511.5C442.217 511.5 450.5 519.783 450.5 530C450.5 540.217 442.217 548.5 432 548.5C421.783 548.5 413.5 540.217 413.5 530Z" fill="#807680"/>
<path fill-rule="evenodd" clip-rule="evenodd" d="M411.5 329.5H452.5V470.5H411.5V329.5ZM412.5 330.5V469.5H451.5V330.5H412.5Z" fill="#807680"/>
<path fill-rule="evenodd" clip-rule="evenodd" d="M461.5 319.5H522.5V560.5H461.5V319.5ZM462.5 320.5V559.5H521.5V320.5H462.5Z" fill="#807680"/>
<path fill-rule="evenodd" clip-rule="evenodd" d="M492 512.5C482.335 512.5 474.5 520.335 474.5 530C474.5 539.665 482.335 547.5 492 547.5C501.665 547.5 509.5 539.665 509.5 530C509.5 520.335 501.665 512.5 492 512.5ZM473.5 530C473.5 519.783 481.783 511.5 492 511.5C502.217 511.5 510.5 519.783 510.5 530C510.5 540.217 502.217 548.5 492 548.5C481.783 548.5 473.5 540.217 473.5 530Z" fill="#807680"/>
<path fill-rule="evenodd" clip-rule="evenodd" d="M471.5 329.5H512.5V470.5H471.5V329.5ZM472.5 330.5V469.5H511.5V330.5H472.5Z" fill="#807680"/>
<path fill-rule="evenodd" clip-rule="evenodd" d="M521.5 319.5H582.5V560.5H521.5V319.5ZM522.5 320.5V559.5H581.5V320.5H522.5Z" fill="#807680"/>
<path fill-rule="evenodd" clip-rule="evenodd" d="M552 512.5C542.335 512.5 534.5 520.335 534.5 530C534.5 539.665 542.335 547.5 552 547.5C561.665 547.5 569.5 539.665 569.5 530C569.5 520.335 561.665 512.5 552 512.5ZM533.5 530C533.5 519.783 541.783 511.5 552 511.5C562.217 511.5 570.5 519.783 570.5 530C570.5 540.217 562.217 548.5 552 548.5C541.783 548.5 533.5 540.217 533.5 530Z" fill="#807680"/>
<path fill-rule="evenodd" clip-rule="evenodd" d="M531.5 329.5H572.5V470.5H531.5V329.5ZM532.5 330.5V469.5H571.5V330.5H532.5Z" fill="#807680"/>
<path fill-rule="evenodd" clip-rule="evenodd" d="M581.5 319.5H642.5V560.5H581.5V319.5ZM582.5 320.5V559.5H641.5V320.5H582.5Z" fill="#807680"/>
<path fill-rule="evenodd" clip-rule="evenodd" d="M612 512.5C602.335 512.5 594.5 520.335 594.5 530C594.5 539.665 602.335 547.5 612 547.5C621.665 547.5 629.5 539.665 629.5 530C629.5 520.335 621.665 512.5 612 512.5ZM593.5 530C593.5 519.783 601.783 511.5 612 511.5C622.217 511.5 630.5 519.783 630.5 530C630.5 540.217 622.217 548.5 612 548.5C601.783 548.5 593.5 540.217 593.5 530Z" fill="#807680"/>
<path fill-rule="evenodd" clip-rule="evenodd" d="M591.5 329.5H632.5V470.5H591.5V329.5ZM592.5 330.5V469.5H631.5V330.5H592.5Z" fill="#807680"/>
<path fill-rule="evenodd" clip-rule="evenodd" d="M641.5 319.5H702.5V560.5H641.5V319.5ZM642.5 320.5V559.5H701.5V320.5H642.5Z" fill="#807680"/>
<path fill-rule="evenodd" clip-rule="evenodd" d="M672 512.5C662.335 512.5 654.5 520.335 654.5 530C654.5 539.665 662.335 547.5 672 547.5C681.665 547.5 689.5 539.665 689.5 530C689.5 520.335 681.665 512.5 672 512.5ZM653.5 530C653.5 519.783 661.783 511.5 672 511.5C682.217 511.5 690.5 519.783 690.5 530C690.5 540.217 682.217 548.5 672 548.5C661.783 548.5 653.5 540.217 653.5 530Z" fill="#807680"/>
<path fill-rule="evenodd" clip-rule="evenodd" d="M651.5 329.5H692.5V470.5H651.5V329.5ZM652.5 330.5V469.5H691.5V330.5H652.5Z" fill="#807680"/>
<path fill-rule="evenodd" clip-rule="evenodd" d="M701.5 319.5H762.5V560.5H701.5V319.5ZM702.5 320.5V559.5H761.5V320.5H702.5Z" fill="#807680"/>
<path fill-rule="evenodd" clip-rule="evenodd" d="M732 512.5C722.335 512.5 714.5 520.335 714.5 530C714.5 539.665 722.335 547.5 732 547.5C741.665 547.5 749.5 539.665 749.5 530C749.5 520.335 741.665 512.5 732 512.5ZM713.5 530C713.5 519.783 721.783 511.5 732 511.5C742.217 511.5 750.5 519.783 750.5 530C750.5 540.217 742.217 548.5 732 548.5C721.783 548.5 713.5 540.217 713.5 530Z" fill="#807680"/>
<path fill-rule="evenodd" clip-rule="evenodd" d="M711.5 329.5H752.5V470.5H711.5V329.5ZM712.5 330.5V469.5H751.5V330.5H712.5Z" fill="#807680"/>
<path fill-rule="evenodd" clip-rule="evenodd" d="M761.5 319.5H822.5V560.5H761.5V319.5ZM762.5 320.5V559.5H821.5V320.5H762.5Z" fill="#807680"/>
<path fill-rule="evenodd" clip-rule="evenodd" d="M792 512.5C782.335 512.5 774.5 520.335 774.5 530C774.5 539.665 782.335 547.5 792 547.5C801.665 547.5 809.5 539.665 809.5 530C809.5 520.335 801.665 512.5 792 512.5ZM773.5 530C773.5 519.783 781.783 511.5 792 511.5C802.217 511.5 810.5 519.783 810.5 530C810.5 540.217 802.217 548.5 792 548.5C781.783 548.5 773.5 540.217 773.5 530Z" fill="#807680"/>
<path fill-rule="evenodd" clip-rule="evenodd" d="M771.5 329.5H812.5V470.5H771.5V329.5ZM772.5 330.5V469.5H811.5V330.5H772.5Z" fill="#807680"/>
<path fill-rule="evenodd" clip-rule="evenodd" d="M821.5 319.5H882.5V560.5H821.5V319.5ZM822.5 320.5V559.5H881.5V320.5H822.5Z" fill="#807680"/>
<path fill-rule="evenodd" clip-rule="evenodd" d="M852 512.5C842.335 512.5 834.5 520.335 834.5 530C834.5 539.665 842.335 547.5 852 547.5C861.665 547.5 869.5 539.665 869.5 530C869.5 520.335 861.665 512.5 852 512.5ZM833.5 530C833.5 519.783 841.783 511.5 852 511.5C862.217 511.5 870.5 519.783 870.5 530C870.5 540.217 862.217 548.5 852 548.5C841.783 548.5 833.5 540.217 833.5 530Z" fill="#807680"/>
<path fill-rule="evenodd" clip-rule="evenodd" d="M831.5 329.5H872.5V470.5H831.5V329.5ZM832.5 330.5V469.5H871.5V330.5H832.5Z" fill="#807680"/>
<path fill-rule="evenodd" clip-rule="evenodd" d="M881.5 319.5H942.5V560.5H881.5V319.5ZM882.5 320.5V559.5H941.5V320.5H882.5Z" fill="#807680"/>
<path fill-rule="evenodd" clip-rule="evenodd" d="M912 512.5C902.335 512.5 894.5 520.335 894.5 530C894.5 539.665 902.335 547.5 912 547.5C921.665 547.5 929.5 539.665 929.5 530C929.5 520.335 921.665 512.5 912 512.5ZM893.5 530C893.5 519.783 901.783 511.5 912 511.5C922.217 511.5 930.5 519.783 930.5 530C930.5 540.217 922.217 548.5 912 548.5C901.783 548.5 893.5 540.217 893.5 530Z" fill="#807680"/>
<path fill-rule="evenodd" clip-rule="evenodd" d="M891.5 329.5H932.5V470.5H891.5V329.5ZM892.5 330.5V469.5H931.5V330.5H892.5Z" fill="#807680"/>
<path fill-rule="evenodd" clip-rule="evenodd" d="M-108.5 559.5H1847.5V580.5H-108.5V559.5ZM-107.5 560.5V579.5H1846.5V560.5H-107.5Z" fill="#807680"/>
<path fill-rule="evenodd" clip-rule="evenodd" d="M-42.5 609.5H18.5V850.5H-42.5V609.5ZM-41.5 610.5V849.5H17.5V610.5H-41.5Z" fill="#807680"/>
<path fill-rule="evenodd" clip-rule="evenodd" d="M-12 802.5C-21.665 802.5 -29.5 810.335 -29.5 820C-29.5 829.665 -21.665 837.5 -12 837.5C-2.33502 837.5 5.5 829.665 5.5 820C5.5 810.335 -2.33502 802.5 -12 802.5ZM-30.5 820C-30.5 809.783 -22.2173 801.5 -12 801.5C-1.78273 801.5 6.5 809.783 6.5 820C6.5 830.217 -1.78273 838.5 -12 838.5C-22.2173 838.5 -30.5 830.217 -30.5 820Z" fill="#807680"/>
<path fill-rule="evenodd" clip-rule="evenodd" d="M-32.5 619.5H8.5V760.5H-32.5V619.5ZM-31.5 620.5V759.5H7.5V620.5H-31.5Z" fill="#807680"/>
<path fill-rule="evenodd" clip-rule="evenodd" d="M17.5 609.5H78.5V850.5H17.5V609.5ZM18.5 610.5V849.5H77.5V610.5H18.5Z" fill="#807680"/>
<path fill-rule="evenodd" clip-rule="evenodd" d="M48 802.5C38.335 802.5 30.5 810.335 30.5 820C30.5 829.665 38.335 837.5 48 837.5C57.665 837.5 65.5 829.665 65.5 820C65.5 810.335 57.665 802.5 48 802.5ZM29.5 820C29.5 809.783 37.7827 801.5 48 801.5C58.2173 801.5 66.5 809.783 66.5 820C66.5 830.217 58.2173 838.5 48 838.5C37.7827 838.5 29.5 830.217 29.5 820Z" fill="#807680"/>
<path fill-rule="evenodd" clip-rule="evenodd" d="M27.5 619.5H68.5V760.5H27.5V619.5ZM28.5 620.5V759.5H67.5V620.5H28.5Z" fill="#807680"/>
<path fill-rule="evenodd" clip-rule="evenodd" d="M77.5 609.5H138.5V850.5H77.5V609.5ZM78.5 610.5V849.5H137.5V610.5H78.5Z" fill="#807680"/>
<path fill-rule="evenodd" clip-rule="evenodd" d="M108 802.5C98.335 802.5 90.5 810.335 90.5 820C90.5 829.665 98.335 837.5 108 837.5C117.665 837.5 125.5 829.665 125.5 820C125.5 810.335 117.665 802.5 108 802.5ZM89.5 820C89.5 809.783 97.7827 801.5 108 801.5C118.217 801.5 126.5 809.783 126.5 820C126.5 830.217 118.217 838.5 108 838.5C97.7827 838.5 89.5 830.217 89.5 820Z" fill="#807680"/>
<path fill-rule="evenodd" clip-rule="evenodd" d="M87.5 619.5H128.5V760.5H87.5V619.5ZM88.5 620.5V759.5H127.5V620.5H88.5Z" fill="#807680"/>
<path fill-rule="evenodd" clip-rule="evenodd" d="M137.5 609.5H198.5V850.5H137.5V609.5ZM138.5 610.5V849.5H197.5V610.5H138.5Z" fill="#807680"/>
<path fill-rule="evenodd" clip-rule="evenodd" d="M168 802.5C158.335 802.5 150.5 810.335 150.5 820C150.5 829.665 158.335 837.5 168 837.5C177.665 837.5 185.5 829.665 185.5 820C185.5 810.335 177.665 802.5 168 802.5ZM149.5 820C149.5 809.783 157.783 801.5 168 801.5C178.217 801.5 186.5 809.783 186.5 820C186.5 830.217 178.217 838.5 168 838.5C157.783 838.5 149.5 830.217 149.5 820Z" fill="#807680"/>
<path fill-rule="evenodd" clip-rule="evenodd" d="M147.5 619.5H188.5V760.5H147.5V619.5ZM148.5 620.5V759.5H187.5V620.5H148.5Z" fill="#807680"/>
<path fill-rule="evenodd" clip-rule="evenodd" d="M197.5 609.5H258.5V850.5H197.5V609.5ZM198.5 610.5V849.5H257.5V610.5H198.5Z" fill="#807680"/>
<path fill-rule="evenodd" clip-rule="evenodd" d="M228 802.5C218.335 802.5 210.5 810.335 210.5 820C210.5 829.665 218.335 837.5 228 837.5C237.665 837.5 245.5 829.665 245.5 820C245.5 810.335 237.665 802.5 228 802.5ZM209.5 820C209.5 809.783 217.783 801.5 228 801.5C238.217 801.5 246.5 809.783 246.5 820C246.5 830.217 238.217 838.5 228 838.5C217.783 838.5 209.5 830.217 209.5 820Z" fill="#807680"/>
<path fill-rule="evenodd" clip-rule="evenodd" d="M207.5 619.5H248.5V760.5H207.5V619.5ZM208.5 620.5V759.5H247.5V620.5H208.5Z" fill="#807680"/>
<path fill-rule="evenodd" clip-rule="evenodd" d="M257.5 609.5H318.5V850.5H257.5V609.5ZM258.5 610.5V849.5H317.5V610.5H258.5Z" fill="#807680"/>
<path fill-rule="evenodd" clip-rule="evenodd" d="M288 802.5C278.335 802.5 270.5 810.335 270.5 820C270.5 829.665 278.335 837.5 288 837.5C297.665 837.5 305.5 829.665 305.5 820C305.5 810.335 297.665 802.5 288 802.5ZM269.5 820C269.5 809.783 277.783 801.5 288 801.5C298.217 801.5 306.5 809.783 306.5 820C306.5 830.217 298.217 838.5 288 838.5C277.783 838.5 269.5 830.217 269.5 820Z" fill="#807680"/>
<path fill-rule="evenodd" clip-rule="evenodd" d="M267.5 619.5H308.5V760.5H267.5V619.5ZM268.5 620.5V759.5H307.5V620.5H268.5Z" fill="#807680"/>
<path fill-rule="evenodd" clip-rule="evenodd" d="M317.5 609.5H378.5V850.5H317.5V609.5ZM318.5 610.5V849.5H377.5V610.5H318.5Z" fill="#807680"/>
<path fill-rule="evenodd" clip-rule="evenodd" d="M348 802.5C338.335 802.5 330.5 810.335 330.5 820C330.5 829.665 338.335 837.5 348 837.5C357.665 837.5 365.5 829.665 365.5 820C365.5 810.335 357.665 802.5 348 802.5ZM329.5 820C329.5 809.783 337.783 801.5 348 801.5C358.217 801.5 366.5 809.783 366.5 820C366.5 830.217 358.217 838.5 348 838.5C337.783 838.5 329.5 830.217 329.5 820Z" fill="#807680"/>
<path fill-rule="evenodd" clip-rule="evenodd" d="M327.5 619.5H368.5V760.5H327.5V619.5ZM328.5 620.5V759.5H367.5V620.5H328.5Z" fill="#807680"/>
<path fill-rule="evenodd" clip-rule="evenodd" d="M377.5 609.5H438.5V850.5H377.5V609.5ZM378.5 610.5V849.5H437.5V610.5H378.5Z" fill="#807680"/>
<path fill-rule="evenodd" clip-rule="evenodd" d="M408 802.5C398.335 802.5 390.5 810.335 390.5 820C390.5 829.665 398.335 837.5 408 837.5C417.665 837.5 425.5 829.665 425.5 820C425.5 810.335 417.665 802.5 408 802.5ZM389.5 820C389.5 809.783 397.783 801.5 408 801.5C418.217 801.5 426.5 809.783 426.5 820C426.5 830.217 418.217 838.5 408 838.5C397.783 838.5 389.5 830.217 389.5 820Z" fill="#807680"/>
<path fill-rule="evenodd" clip-rule="evenodd" d="M387.5 619.5H428.5V760.5H387.5V619.5ZM388.5 620.5V759.5H427.5V620.5H388.5Z" fill="#807680"/>
<path fill-rule="evenodd" clip-rule="evenodd" d="M437.5 609.5H498.5V850.5H437.5V609.5ZM438.5 610.5V849.5H497.5V610.5H438.5Z" fill="#807680"/>
<path fill-rule="evenodd" clip-rule="evenodd" d="M468 802.5C458.335 802.5 450.5 810.335 450.5 820C450.5 829.665 458.335 837.5 468 837.5C477.665 837.5 485.5 829.665 485.5 820C485.5 810.335 477.665 802.5 468 802.5ZM449.5 820C449.5 809.783 457.783 801.5 468 801.5C478.217 801.5 486.5 809.783 486.5 820C486.5 830.217 478.217 838.5 468 838.5C457.783 838.5 449.5 830.217 449.5 820Z" fill="#807680"/>
<path fill-rule="evenodd" clip-rule="evenodd" d="M447.5 619.5H488.5V760.5H447.5V619.5ZM448.5 620.5V759.5H487.5V620.5H448.5Z" fill="#807680"/>
<path fill-rule="evenodd" clip-rule="evenodd" d="M497.5 609.5H558.5V850.5H497.5V609.5ZM498.5 610.5V849.5H557.5V610.5H498.5Z" fill="#807680"/>
<path fill-rule="evenodd" clip-rule="evenodd" d="M528 802.5C518.335 802.5 510.5 810.335 510.5 820C510.5 829.665 518.335 837.5 528 837.5C537.665 837.5 545.5 829.665 545.5 820C545.5 810.335 537.665 802.5 528 802.5ZM509.5 820C509.5 809.783 517.783 801.5 528 801.5C538.217 801.5 546.5 809.783 546.5 820C546.5 830.217 538.217 838.5 528 838.5C517.783 838.5 509.5 830.217 509.5 820Z" fill="#807680"/>
<path fill-rule="evenodd" clip-rule="evenodd" d="M507.5 619.5H548.5V760.5H507.5V619.5ZM508.5 620.5V759.5H547.5V620.5H508.5Z" fill="#807680"/>
<path fill-rule="evenodd" clip-rule="evenodd" d="M557.5 609.5H618.5V850.5H557.5V609.5ZM558.5 610.5V849.5H617.5V610.5H558.5Z" fill="#807680"/>
<path fill-rule="evenodd" clip-rule="evenodd" d="M588 802.5C578.335 802.5 570.5 810.335 570.5 820C570.5 829.665 578.335 837.5 588 837.5C597.665 837.5 605.5 829.665 605.5 820C605.5 810.335 597.665 802.5 588 802.5ZM569.5 820C569.5 809.783 577.783 801.5 588 801.5C598.217 801.5 606.5 809.783 606.5 820C606.5 830.217 598.217 838.5 588 838.5C577.783 838.5 569.5 830.217 569.5 820Z" fill="#807680"/>
<path fill-rule="evenodd" clip-rule="evenodd" d="M567.5 619.5H608.5V760.5H567.5V619.5ZM568.5 620.5V759.5H607.5V620.5H568.5Z" fill="#807680"/>
<path fill-rule="evenodd" clip-rule="evenodd" d="M617.5 609.5H678.5V850.5H617.5V609.5ZM618.5 610.5V849.5H677.5V610.5H618.5Z" fill="#807680"/>
<path fill-rule="evenodd" clip-rule="evenodd" d="M648 802.5C638.335 802.5 630.5 810.335 630.5 820C630.5 829.665 638.335 837.5 648 837.5C657.665 837.5 665.5 829.665 665.5 820C665.5 810.335 657.665 802.5 648 802.5ZM629.5 820C629.5 809.783 637.783 801.5 648 801.5C658.217 801.5 666.5 809.783 666.5 820C666.5 830.217 658.217 838.5 648 838.5C637.783 838.5 629.5 830.217 629.5 820Z" fill="#807680"/>
<path fill-rule="evenodd" clip-rule="evenodd" d="M627.5 619.5H668.5V760.5H627.5V619.5ZM628.5 620.5V759.5H667.5V620.5H628.5Z" fill="#807680"/>
<path fill-rule="evenodd" clip-rule="evenodd" d="M677.5 609.5H738.5V850.5H677.5V609.5ZM678.5 610.5V849.5H737.5V610.5H678.5Z" fill="#807680"/>
<path fill-rule="evenodd" clip-rule="evenodd" d="M708 802.5C698.335 802.5 690.5 810.335 690.5 820C690.5 829.665 698.335 837.5 708 837.5C717.665 837.5 725.5 829.665 725.5 820C725.5 810.335 717.665 802.5 708 802.5ZM689.5 820C689.5 809.783 697.783 801.5 708 801.5C718.217 801.5 726.5 809.783 726.5 820C726.5 830.217 718.217 838.5 708 838.5C697.783 838.5 689.5 830.217 689.5 820Z" fill="#807680"/>
<path fill-rule="evenodd" clip-rule="evenodd" d="M687.5 619.5H728.5V760.5H687.5V619.5ZM688.5 620.5V759.5H727.5V620.5H688.5Z" fill="#807680"/>
<path fill-rule="evenodd" clip-rule="evenodd" d="M737.5 609.5H798.5V850.5H737.5V609.5ZM738.5 610.5V849.5H797.5V610.5H738.5Z" fill="#807680"/>
<path fill-rule="evenodd" clip-rule="evenodd" d="M768 802.5C758.335 802.5 750.5 810.335 750.5 820C750.5 829.665 758.335 837.5 768 837.5C777.665 837.5 785.5 829.665 785.5 820C785.5 810.335 777.665 802.5 768 802.5ZM749.5 820C749.5 809.783 757.783 801.5 768 801.5C778.217 801.5 786.5 809.783 786.5 820C786.5 830.217 778.217 838.5 768 838.5C757.783 838.5 749.5 830.217 749.5 820Z" fill="#807680"/>
<path fill-rule="evenodd" clip-rule="evenodd" d="M747.5 619.5H788.5V760.5H747.5V619.5ZM748.5 620.5V759.5H787.5V620.5H748.5Z" fill="#807680"/>
<path fill-rule="evenodd" clip-rule="evenodd" d="M797.5 609.5H858.5V850.5H797.5V609.5ZM798.5 610.5V849.5H857.5V610.5H798.5Z" fill="#807680"/>
<path fill-rule="evenodd" clip-rule="evenodd" d="M828 802.5C818.335 802.5 810.5 810.335 810.5 820C810.5 829.665 818.335 837.5 828 837.5C837.665 837.5 845.5 829.665 845.5 820C845.5 810.335 837.665 802.5 828 802.5ZM809.5 820C809.5 809.783 817.783 801.5 828 801.5C838.217 801.5 846.5 809.783 846.5 820C846.5 830.217 838.217 838.5 828 838.5C817.783 838.5 809.5 830.217 809.5 820Z" fill="#807680"/>
<path fill-rule="evenodd" clip-rule="evenodd" d="M807.5 619.5H848.5V760.5H807.5V619.5ZM808.5 620.5V759.5H847.5V620.5H808.5Z" fill="#807680"/>
<path fill-rule="evenodd" clip-rule="evenodd" d="M857.5 609.5H918.5V850.5H857.5V609.5ZM858.5 610.5V849.5H917.5V610.5H858.5Z" fill="#807680"/>
<path fill-rule="evenodd" clip-rule="evenodd" d="M888 802.5C878.335 802.5 870.5 810.335 870.5 820C870.5 829.665 878.335 837.5 888 837.5C897.665 837.5 905.5 829.665 905.5 820C905.5 810.335 897.665 802.5 888 802.5ZM869.5 820C869.5 809.783 877.783 801.5 888 801.5C898.217 801.5 906.5 809.783 906.5 820C906.5 830.217 898.217 838.5 888 838.5C877.783 838.5 869.5 830.217 869.5 820Z" fill="#807680"/>
<path fill-rule="evenodd" clip-rule="evenodd" d="M867.5 619.5H908.5V760.5H867.5V619.5ZM868.5 620.5V759.5H907.5V620.5H868.5Z" fill="#807680"/>
<path fill-rule="evenodd" clip-rule="evenodd" d="M-150.5 849.5H1805.5V870.5H-150.5V849.5ZM-149.5 850.5V869.5H1804.5V850.5H-149.5Z" fill="#807680"/>
<path d="M40 829.668H42.31L44.29 823.794H52.606L54.586 829.668H56.896L49.966 810H46.93L40 829.668ZM45.214 821.055L48.25 811.98H48.646L51.682 821.055C51.847 821.517 51.616 821.814 51.154 821.814H45.742C45.28 821.814 45.049 821.517 45.214 821.055Z" fill="#807680"/>
<path d="M109.854 810H102V829.668H104.079V821.847H108.633L114.045 829.668H116.355L110.976 821.781C114.144 821.319 116.157 818.976 116.157 815.907C116.157 812.475 113.682 810 109.854 810ZM104.079 819.933V812.541C104.079 812.112 104.31 811.881 104.739 811.881H109.59C112.23 811.881 114.045 813.267 114.045 815.907C114.045 818.547 112.23 819.933 109.59 819.933H104.079Z" fill="#807680"/>
<path d="M168.887 830.592C172.55 830.592 175.718 828.414 175.982 823.464L174.035 822.936C173.903 826.896 171.725 828.612 168.887 828.612C165.29 828.612 163.079 825.972 163.079 822.408V818.184C163.079 814.62 165.29 811.98 168.887 811.98C171.725 811.98 173.903 813.696 174.035 817.656L175.982 817.128C175.718 812.178 172.55 810 168.887 810C164.135 810 161 813.432 161 818.118V822.474C161 827.16 164.135 830.592 168.887 830.592Z" fill="#807680"/>
<path d="M221 810V829.668H223.079V821.319C223.079 820.89 223.31 820.659 223.739 820.659H232.253C232.682 820.659 232.913 820.89 232.913 821.319V829.668H234.992V810H232.913V818.085C232.913 818.514 232.682 818.745 232.253 818.745H223.739C223.31 818.745 223.079 818.514 223.079 818.085V810H221Z" fill="#807680"/>
<path d="M294.728 810H281V811.98L285.818 811.815C286.445 811.782 286.841 812.178 286.841 812.805V826.863C286.841 827.49 286.445 827.886 285.818 827.853L281 827.688V829.668H294.728V827.688L289.943 827.853C289.316 827.886 288.92 827.49 288.92 826.863V812.805C288.92 812.178 289.316 811.782 289.943 811.815L294.728 811.98V810Z" fill="#807680"/>
<path d="M340 811L346.6 830.668H349.9L356.5 811H354.322L348.448 829.15H348.052L342.178 811H340Z" fill="#807680"/>
<path d="M402 810V829.668H414.936V827.688L404.739 827.886C404.31 827.886 404.079 827.655 404.079 827.226V820.527H413.352V818.613H404.079V812.442C404.079 812.013 404.31 811.782 404.739 811.782L414.936 811.98V810H402Z" fill="#807680"/>
</g>
<defs>
<clipPath id="clip0">
<rect width="900" height="900" fill="white"/>
</clipPath>
</defs>
</svg>
