<svg width="900" height="900" viewBox="0 0 900 900" fill="none" xmlns="http://www.w3.org/2000/svg">
<g clip-path="url(#clip0)">
<rect width="900" height="900" fill="#0D0C0D"/>
<path fill-rule="evenodd" clip-rule="evenodd" d="M-51 29H51V271H-51V29ZM-49 31V269H49V31H-49Z" fill="#4D474D"/>
<path fill-rule="evenodd" clip-rule="evenodd" d="M0 211C-10.4934 211 -19 219.507 -19 230C-19 240.493 -10.4934 249 0 249C10.4934 249 19 240.493 19 230C19 219.507 10.4934 211 0 211ZM-21 230C-21 218.402 -11.598 209 0 209C11.598 209 21 218.402 21 230C21 241.598 11.598 251 0 251C-11.598 251 -21 241.598 -21 230Z" fill="#4D474D"/>
<path fill-rule="evenodd" clip-rule="evenodd" d="M-31 49.0002H31V163H-31V49.0002ZM-29 51.0002V161H29V51.0002H-29Z" fill="#4D474D"/>
<path fill-rule="evenodd" clip-rule="evenodd" d="M49 29H151V271H49V29ZM51 31V269H149V31H51Z" fill="#4D474D"/>
<path fill-rule="evenodd" clip-rule="evenodd" d="M100 211C89.5066 211 81 219.507 81 230C81 240.493 89.5066 249 100 249C110.493 249 119 240.493 119 230C119 219.507 110.493 211 100 211ZM79 230C79 218.402 88.402 209 100 209C111.598 209 121 218.402 121 230C121 241.598 111.598 251 100 251C88.402 251 79 241.598 79 230Z" fill="#4D474D"/>
<path fill-rule="evenodd" clip-rule="evenodd" d="M69 49.0002H131V163H69V49.0002ZM71 51.0002V161H129V51.0002H71Z" fill="#4D474D"/>
<path fill-rule="evenodd" clip-rule="evenodd" d="M149 29H251V271H149V29ZM151 31V269H249V31H151Z" fill="#4D474D"/>
<path fill-rule="evenodd" clip-rule="evenodd" d="M200 211C189.507 211 181 219.507 181 230C181 240.493 189.507 249 200 249C210.493 249 219 240.493 219 230C219 219.507 210.493 211 200 211ZM179 230C179 218.402 188.402 209 200 209C211.598 209 221 218.402 221 230C221 241.598 211.598 251 200 251C188.402 251 179 241.598 179 230Z" fill="#4D474D"/>
<path fill-rule="evenodd" clip-rule="evenodd" d="M169 49.0002H231V163H169V49.0002ZM171 51.0002V161H229V51.0002H171Z" fill="#4D474D"/>
<path fill-rule="evenodd" clip-rule="evenodd" d="M249 29H351V271H249V29ZM251 31V269H349V31H251Z" fill="#4D474D"/>
<path fill-rule="evenodd" clip-rule="evenodd" d="M300 211C289.507 211 281 219.507 281 230C281 240.493 289.507 249 300 249C310.493 249 319 240.493 319 230C319 219.507 310.493 211 300 211ZM279 230C279 218.402 288.402 209 300 209C311.598 209 321 218.402 321 230C321 241.598 311.598 251 300 251C288.402 251 279 241.598 279 230Z" fill="#4D474D"/>
<path fill-rule="evenodd" clip-rule="evenodd" d="M269 49.0002H331V163H269V49.0002ZM271 51.0002V161H329V51.0002H271Z" fill="#4D474D"/>
<path fill-rule="evenodd" clip-rule="evenodd" d="M349 29H451V271H349V29ZM351 31V269H449V31H351Z" fill="#4D474D"/>
<path fill-rule="evenodd" clip-rule="evenodd" d="M400 211C389.507 211 381 219.507 381 230C381 240.493 389.507 249 400 249C410.493 249 419 240.493 419 230C419 219.507 410.493 211 400 211ZM379 230C379 218.402 388.402 209 400 209C411.598 209 421 218.402 421 230C421 241.598 411.598 251 400 251C388.402 251 379 241.598 379 230Z" fill="#4D474D"/>
<path fill-rule="evenodd" clip-rule="evenodd" d="M369 49.0002H431V163H369V49.0002ZM371 51.0002V161H429V51.0002H371Z" fill="#4D474D"/>
<path fill-rule="evenodd" clip-rule="evenodd" d="M449 29H551V271H449V29ZM451 31V269H549V31H451Z" fill="#4D474D"/>
<path fill-rule="evenodd" clip-rule="evenodd" d="M500 211C489.507 211 481 219.507 481 230C481 240.493 489.507 249 500 249C510.493 249 519 240.493 519 230C519 219.507 510.493 211 500 211ZM479 230C479 218.402 488.402 209 500 209C511.598 209 521 218.402 521 230C521 241.598 511.598 251 500 251C488.402 251 479 241.598 479 230Z" fill="#4D474D"/>
<path fill-rule="evenodd" clip-rule="evenodd" d="M469 49.0002H531V163H469V49.0002ZM471 51.0002V161H529V51.0002H471Z" fill="#4D474D"/>
<path fill-rule="evenodd" clip-rule="evenodd" d="M549 29H651V271H549V29ZM551 31V269H649V31H551Z" fill="#4D474D"/>
<path fill-rule="evenodd" clip-rule="evenodd" d="M600 211C589.507 211 581 219.507 581 230C581 240.493 589.507 249 600 249C610.493 249 619 240.493 619 230C619 219.507 610.493 211 600 211ZM579 230C579 218.402 588.402 209 600 209C611.598 209 621 218.402 621 230C621 241.598 611.598 251 600 251C588.402 251 579 241.598 579 230Z" fill="#4D474D"/>
<path fill-rule="evenodd" clip-rule="evenodd" d="M569 49.0002H631V163H569V49.0002ZM571 51.0002V161H629V51.0002H571Z" fill="#4D474D"/>
<path fill-rule="evenodd" clip-rule="evenodd" d="M649 29H751V271H649V29ZM651 31V269H749V31H651Z" fill="#4D474D"/>
<path fill-rule="evenodd" clip-rule="evenodd" d="M700 211C689.507 211 681 219.507 681 230C681 240.493 689.507 249 700 249C710.493 249 719 240.493 719 230C719 219.507 710.493 211 700 211ZM679 230C679 218.402 688.402 209 700 209C711.598 209 721 218.402 721 230C721 241.598 711.598 251 700 251C688.402 251 679 241.598 679 230Z" fill="#4D474D"/>
<path fill-rule="evenodd" clip-rule="evenodd" d="M669 49.0002H731V163H669V49.0002ZM671 51.0002V161H729V51.0002H671Z" fill="#4D474D"/>
<path fill-rule="evenodd" clip-rule="evenodd" d="M749 29H851V271H749V29ZM751 31V269H849V31H751Z" fill="#4D474D"/>
<path fill-rule="evenodd" clip-rule="evenodd" d="M800 211C789.507 211 781 219.507 781 230C781 240.493 789.507 249 800 249C810.493 249 819 240.493 819 230C819 219.507 810.493 211 800 211ZM779 230C779 218.402 788.402 209 800 209C811.598 209 821 218.402 821 230C821 241.598 811.598 251 800 251C788.402 251 779 241.598 779 230Z" fill="#4D474D"/>
<path fill-rule="evenodd" clip-rule="evenodd" d="M769 49.0002H831V163H769V49.0002ZM771 51.0002V161H829V51.0002H771Z" fill="#4D474D"/>
<path fill-rule="evenodd" clip-rule="evenodd" d="M849 29H951V271H849V29ZM851 31V269H949V31H851Z" fill="#4D474D"/>
<path fill-rule="evenodd" clip-rule="evenodd" d="M900 211C889.507 211 881 219.507 881 230C881 240.493 889.507 249 900 249C910.493 249 919 240.493 919 230C919 219.507 910.493 211 900 211ZM879 230C879 218.402 888.402 209 900 209C911.598 209 921 218.402 921 230C921 241.598 911.598 251 900 251C888.402 251 879 241.598 879 230Z" fill="#4D474D"/>
<path fill-rule="evenodd" clip-rule="evenodd" d="M869 49.0002H931V163H869V49.0002ZM871 51.0002V161H929V51.0002H871Z" fill="#4D474D"/>
<path fill-rule="evenodd" clip-rule="evenodd" d="M-73 269H1673V291H-73V269ZM-71 271V289H1671V271H-71Z" fill="#4D474D"/>
<path fill-rule="evenodd" clip-rule="evenodd" d="M-51 609H51V851H-51V609ZM-49 611V849H49V611H-49Z" fill="#4D474D"/>
<path fill-rule="evenodd" clip-rule="evenodd" d="M0 791C-10.4934 791 -19 799.507 -19 810C-19 820.493 -10.4934 829 0 829C10.4934 829 19 820.493 19 810C19 799.507 10.4934 791 0 791ZM-21 810C-21 798.402 -11.598 789 0 789C11.598 789 21 798.402 21 810C21 821.598 11.598 831 0 831C-11.598 831 -21 821.598 -21 810Z" fill="#4D474D"/>
<path fill-rule="evenodd" clip-rule="evenodd" d="M-31 629H31V743H-31V629ZM-29 631V741H29V631H-29Z" fill="#4D474D"/>
<path fill-rule="evenodd" clip-rule="evenodd" d="M49 609H151V851H49V609ZM51 611V849H149V611H51Z" fill="#4D474D"/>
<path fill-rule="evenodd" clip-rule="evenodd" d="M100 791C89.5066 791 81 799.507 81 810C81 820.493 89.5066 829 100 829C110.493 829 119 820.493 119 810C119 799.507 110.493 791 100 791ZM79 810C79 798.402 88.402 789 100 789C111.598 789 121 798.402 121 810C121 821.598 111.598 831 100 831C88.402 831 79 821.598 79 810Z" fill="#4D474D"/>
<path fill-rule="evenodd" clip-rule="evenodd" d="M69 629H131V743H69V629ZM71 631V741H129V631H71Z" fill="#4D474D"/>
<path fill-rule="evenodd" clip-rule="evenodd" d="M149 609H251V851H149V609ZM151 611V849H249V611H151Z" fill="#4D474D"/>
<path fill-rule="evenodd" clip-rule="evenodd" d="M200 791C189.507 791 181 799.507 181 810C181 820.493 189.507 829 200 829C210.493 829 219 820.493 219 810C219 799.507 210.493 791 200 791ZM179 810C179 798.402 188.402 789 200 789C211.598 789 221 798.402 221 810C221 821.598 211.598 831 200 831C188.402 831 179 821.598 179 810Z" fill="#4D474D"/>
<path fill-rule="evenodd" clip-rule="evenodd" d="M169 629H231V743H169V629ZM171 631V741H229V631H171Z" fill="#4D474D"/>
<path fill-rule="evenodd" clip-rule="evenodd" d="M249 609H351V851H249V609ZM251 611V849H349V611H251Z" fill="#4D474D"/>
<path fill-rule="evenodd" clip-rule="evenodd" d="M300 791C289.507 791 281 799.507 281 810C281 820.493 289.507 829 300 829C310.493 829 319 820.493 319 810C319 799.507 310.493 791 300 791ZM279 810C279 798.402 288.402 789 300 789C311.598 789 321 798.402 321 810C321 821.598 311.598 831 300 831C288.402 831 279 821.598 279 810Z" fill="#4D474D"/>
<path fill-rule="evenodd" clip-rule="evenodd" d="M269 629H331V743H269V629ZM271 631V741H329V631H271Z" fill="#4D474D"/>
<path fill-rule="evenodd" clip-rule="evenodd" d="M349 609H451V851H349V609ZM351 611V849H449V611H351Z" fill="#4D474D"/>
<path fill-rule="evenodd" clip-rule="evenodd" d="M400 791C389.507 791 381 799.507 381 810C381 820.493 389.507 829 400 829C410.493 829 419 820.493 419 810C419 799.507 410.493 791 400 791ZM379 810C379 798.402 388.402 789 400 789C411.598 789 421 798.402 421 810C421 821.598 411.598 831 400 831C388.402 831 379 821.598 379 810Z" fill="#4D474D"/>
<path fill-rule="evenodd" clip-rule="evenodd" d="M369 629H431V743H369V629ZM371 631V741H429V631H371Z" fill="#4D474D"/>
<path fill-rule="evenodd" clip-rule="evenodd" d="M449 609H551V851H449V609ZM451 611V849H549V611H451Z" fill="#4D474D"/>
<path fill-rule="evenodd" clip-rule="evenodd" d="M500 791C489.507 791 481 799.507 481 810C481 820.493 489.507 829 500 829C510.493 829 519 820.493 519 810C519 799.507 510.493 791 500 791ZM479 810C479 798.402 488.402 789 500 789C511.598 789 521 798.402 521 810C521 821.598 511.598 831 500 831C488.402 831 479 821.598 479 810Z" fill="#4D474D"/>
<path fill-rule="evenodd" clip-rule="evenodd" d="M469 629H531V743H469V629ZM471 631V741H529V631H471Z" fill="#4D474D"/>
<path fill-rule="evenodd" clip-rule="evenodd" d="M549 609H651V851H549V609ZM551 611V849H649V611H551Z" fill="#4D474D"/>
<path fill-rule="evenodd" clip-rule="evenodd" d="M600 791C589.507 791 581 799.507 581 810C581 820.493 589.507 829 600 829C610.493 829 619 820.493 619 810C619 799.507 610.493 791 600 791ZM579 810C579 798.402 588.402 789 600 789C611.598 789 621 798.402 621 810C621 821.598 611.598 831 600 831C588.402 831 579 821.598 579 810Z" fill="#4D474D"/>
<path fill-rule="evenodd" clip-rule="evenodd" d="M569 629H631V743H569V629ZM571 631V741H629V631H571Z" fill="#4D474D"/>
<path fill-rule="evenodd" clip-rule="evenodd" d="M649 609H751V851H649V609ZM651 611V849H749V611H651Z" fill="#4D474D"/>
<path fill-rule="evenodd" clip-rule="evenodd" d="M700 791C689.507 791 681 799.507 681 810C681 820.493 689.507 829 700 829C710.493 829 719 820.493 719 810C719 799.507 710.493 791 700 791ZM679 810C679 798.402 688.402 789 700 789C711.598 789 721 798.402 721 810C721 821.598 711.598 831 700 831C688.402 831 679 821.598 679 810Z" fill="#4D474D"/>
<path fill-rule="evenodd" clip-rule="evenodd" d="M669 629H731V743H669V629ZM671 631V741H729V631H671Z" fill="#4D474D"/>
<path fill-rule="evenodd" clip-rule="evenodd" d="M749 609H851V851H749V609ZM751 611V849H849V611H751Z" fill="#4D474D"/>
<path fill-rule="evenodd" clip-rule="evenodd" d="M800 791C789.507 791 781 799.507 781 810C781 820.493 789.507 829 800 829C810.493 829 819 820.493 819 810C819 799.507 810.493 791 800 791ZM779 810C779 798.402 788.402 789 800 789C811.598 789 821 798.402 821 810C821 821.598 811.598 831 800 831C788.402 831 779 821.598 779 810Z" fill="#4D474D"/>
<path fill-rule="evenodd" clip-rule="evenodd" d="M769 629H831V743H769V629ZM771 631V741H829V631H771Z" fill="#4D474D"/>
<path fill-rule="evenodd" clip-rule="evenodd" d="M849 609H951V851H849V609ZM851 611V849H949V611H851Z" fill="#4D474D"/>
<path fill-rule="evenodd" clip-rule="evenodd" d="M900 791C889.507 791 881 799.507 881 810C881 820.493 889.507 829 900 829C910.493 829 919 820.493 919 810C919 799.507 910.493 791 900 791ZM879 810C879 798.402 888.402 789 900 789C911.598 789 921 798.402 921 810C921 821.598 911.598 831 900 831C888.402 831 879 821.598 879 810Z" fill="#4D474D"/>
<path fill-rule="evenodd" clip-rule="evenodd" d="M869 629H931V743H869V629ZM871 631V741H929V631H871Z" fill="#4D474D"/>
<path fill-rule="evenodd" clip-rule="evenodd" d="M-73 849H1673V871H-73V849ZM-71 851V869H1671V851H-71Z" fill="#4D474D"/>
<path fill-rule="evenodd" clip-rule="evenodd" d="M-51 319H51V561H-51V319ZM-49 321V559H49V321H-49Z" fill="#4D474D"/>
<path fill-rule="evenodd" clip-rule="evenodd" d="M0 501C-10.4934 501 -19 509.507 -19 520C-19 530.493 -10.4934 539 0 539C10.4934 539 19 530.493 19 520C19 509.507 10.4934 501 0 501ZM-21 520C-21 508.402 -11.598 499 0 499C11.598 499 21 508.402 21 520C21 531.598 11.598 541 0 541C-11.598 541 -21 531.598 -21 520Z" fill="#4D474D"/>
<path fill-rule="evenodd" clip-rule="evenodd" d="M-31 339H31V453H-31V339ZM-29 341V451H29V341H-29Z" fill="#4D474D"/>
<path fill-rule="evenodd" clip-rule="evenodd" d="M49 319H151V561H49V319ZM51 321V559H149V321H51Z" fill="#4D474D"/>
<path fill-rule="evenodd" clip-rule="evenodd" d="M100 501C89.5066 501 81 509.507 81 520C81 530.493 89.5066 539 100 539C110.493 539 119 530.493 119 520C119 509.507 110.493 501 100 501ZM79 520C79 508.402 88.402 499 100 499C111.598 499 121 508.402 121 520C121 531.598 111.598 541 100 541C88.402 541 79 531.598 79 520Z" fill="#4D474D"/>
<path fill-rule="evenodd" clip-rule="evenodd" d="M69 339H131V453H69V339ZM71 341V451H129V341H71Z" fill="#4D474D"/>
<path fill-rule="evenodd" clip-rule="evenodd" d="M149 319H251V561H149V319ZM151 321V559H249V321H151Z" fill="#4D474D"/>
<path fill-rule="evenodd" clip-rule="evenodd" d="M200 501C189.507 501 181 509.507 181 520C181 530.493 189.507 539 200 539C210.493 539 219 530.493 219 520C219 509.507 210.493 501 200 501ZM179 520C179 508.402 188.402 499 200 499C211.598 499 221 508.402 221 520C221 531.598 211.598 541 200 541C188.402 541 179 531.598 179 520Z" fill="#4D474D"/>
<path fill-rule="evenodd" clip-rule="evenodd" d="M169 339H231V453H169V339ZM171 341V451H229V341H171Z" fill="#4D474D"/>
<path fill-rule="evenodd" clip-rule="evenodd" d="M249 319H351V561H249V319ZM251 321V559H349V321H251Z" fill="#4D474D"/>
<path fill-rule="evenodd" clip-rule="evenodd" d="M300 501C289.507 501 281 509.507 281 520C281 530.493 289.507 539 300 539C310.493 539 319 530.493 319 520C319 509.507 310.493 501 300 501ZM279 520C279 508.402 288.402 499 300 499C311.598 499 321 508.402 321 520C321 531.598 311.598 541 300 541C288.402 541 279 531.598 279 520Z" fill="#4D474D"/>
<path fill-rule="evenodd" clip-rule="evenodd" d="M269 339H331V453H269V339ZM271 341V451H329V341H271Z" fill="#4D474D"/>
<path fill-rule="evenodd" clip-rule="evenodd" d="M349 319H451V561H349V319ZM351 321V559H449V321H351Z" fill="#4D474D"/>
<path fill-rule="evenodd" clip-rule="evenodd" d="M400 501C389.507 501 381 509.507 381 520C381 530.493 389.507 539 400 539C410.493 539 419 530.493 419 520C419 509.507 410.493 501 400 501ZM379 520C379 508.402 388.402 499 400 499C411.598 499 421 508.402 421 520C421 531.598 411.598 541 400 541C388.402 541 379 531.598 379 520Z" fill="#4D474D"/>
<path fill-rule="evenodd" clip-rule="evenodd" d="M369 339H431V453H369V339ZM371 341V451H429V341H371Z" fill="#4D474D"/>
<path fill-rule="evenodd" clip-rule="evenodd" d="M449 319H551V561H449V319ZM451 321V559H549V321H451Z" fill="#4D474D"/>
<path fill-rule="evenodd" clip-rule="evenodd" d="M500 501C489.507 501 481 509.507 481 520C481 530.493 489.507 539 500 539C510.493 539 519 530.493 519 520C519 509.507 510.493 501 500 501ZM479 520C479 508.402 488.402 499 500 499C511.598 499 521 508.402 521 520C521 531.598 511.598 541 500 541C488.402 541 479 531.598 479 520Z" fill="#4D474D"/>
<path fill-rule="evenodd" clip-rule="evenodd" d="M469 339H531V453H469V339ZM471 341V451H529V341H471Z" fill="#4D474D"/>
<path fill-rule="evenodd" clip-rule="evenodd" d="M549 319H651V561H549V319ZM551 321V559H649V321H551Z" fill="#4D474D"/>
<path fill-rule="evenodd" clip-rule="evenodd" d="M600 501C589.507 501 581 509.507 581 520C581 530.493 589.507 539 600 539C610.493 539 619 530.493 619 520C619 509.507 610.493 501 600 501ZM579 520C579 508.402 588.402 499 600 499C611.598 499 621 508.402 621 520C621 531.598 611.598 541 600 541C588.402 541 579 531.598 579 520Z" fill="#4D474D"/>
<path fill-rule="evenodd" clip-rule="evenodd" d="M569 339H631V453H569V339ZM571 341V451H629V341H571Z" fill="#4D474D"/>
<path fill-rule="evenodd" clip-rule="evenodd" d="M649 319H751V561H649V319ZM651 321V559H749V321H651Z" fill="#4D474D"/>
<path fill-rule="evenodd" clip-rule="evenodd" d="M700 501C689.507 501 681 509.507 681 520C681 530.493 689.507 539 700 539C710.493 539 719 530.493 719 520C719 509.507 710.493 501 700 501ZM679 520C679 508.402 688.402 499 700 499C711.598 499 721 508.402 721 520C721 531.598 711.598 541 700 541C688.402 541 679 531.598 679 520Z" fill="#4D474D"/>
<path fill-rule="evenodd" clip-rule="evenodd" d="M669 339H731V453H669V339ZM671 341V451H729V341H671Z" fill="#4D474D"/>
<path fill-rule="evenodd" clip-rule="evenodd" d="M749 319H851V561H749V319ZM751 321V559H849V321H751Z" fill="#4D474D"/>
<path fill-rule="evenodd" clip-rule="evenodd" d="M800 501C789.507 501 781 509.507 781 520C781 530.493 789.507 539 800 539C810.493 539 819 530.493 819 520C819 509.507 810.493 501 800 501ZM779 520C779 508.402 788.402 499 800 499C811.598 499 821 508.402 821 520C821 531.598 811.598 541 800 541C788.402 541 779 531.598 779 520Z" fill="#4D474D"/>
<path fill-rule="evenodd" clip-rule="evenodd" d="M769 339H831V453H769V339ZM771 341V451H829V341H771Z" fill="#4D474D"/>
<path fill-rule="evenodd" clip-rule="evenodd" d="M849 319H951V561H849V319ZM851 321V559H949V321H851Z" fill="#4D474D"/>
<path fill-rule="evenodd" clip-rule="evenodd" d="M900 501C889.507 501 881 509.507 881 520C881 530.493 889.507 539 900 539C910.493 539 919 530.493 919 520C919 509.507 910.493 501 900 501ZM879 520C879 508.402 888.402 499 900 499C911.598 499 921 508.402 921 520C921 531.598 911.598 541 900 541C888.402 541 879 531.598 879 520Z" fill="#4D474D"/>
<path fill-rule="evenodd" clip-rule="evenodd" d="M869 339H931V453H869V339ZM871 341V451H929V341H871Z" fill="#4D474D"/>
<path fill-rule="evenodd" clip-rule="evenodd" d="M-73 559H1673V581H-73V559ZM-71 561V579H1671V561H-71Z" fill="#4D474D"/>
<path d="M91.5586 819H93.8686L95.8486 813.126H104.165L106.145 819H108.455L101.525 799.332H98.4886L91.5586 819ZM96.7726 810.387L99.8086 801.312H100.205L103.241 810.387C103.406 810.849 103.175 811.146 102.713 811.146H97.3006C96.8386 811.146 96.6076 810.849 96.7726 810.387Z" fill="#4D474D"/>
<path d="M201.36 799.332H193.506V819H195.585V811.179H200.139L205.551 819H207.861L202.482 811.113C205.65 810.651 207.663 808.308 207.663 805.239C207.663 801.807 205.188 799.332 201.36 799.332ZM195.585 809.265V801.873C195.585 801.444 195.816 801.213 196.245 801.213H201.096C203.736 801.213 205.551 802.599 205.551 805.239C205.551 807.879 203.736 809.265 201.096 809.265H195.585Z" fill="#4D474D"/>
<path d="M300.7 819.462C304.363 819.462 307.53 817.284 307.794 812.334L305.848 811.806C305.716 815.766 303.537 817.482 300.7 817.482C297.103 817.482 294.892 814.842 294.892 811.278V807.054C294.892 803.49 297.103 800.85 300.7 800.85C303.537 800.85 305.716 802.566 305.848 806.526L307.794 805.998C307.53 801.048 304.363 798.87 300.7 798.87C295.947 798.87 292.812 802.302 292.812 806.988V811.344C292.812 816.03 295.947 819.462 300.7 819.462Z" fill="#4D474D"/>
<path d="M393.011 799.332V819H395.09V810.651C395.09 810.222 395.321 809.991 395.75 809.991H404.264C404.693 809.991 404.924 810.222 404.924 810.651V819H407.003V799.332H404.924V807.417C404.924 807.846 404.693 808.077 404.264 808.077H395.75C395.321 808.077 395.09 807.846 395.09 807.417V799.332H393.011Z" fill="#4D474D"/>
<path d="M506.871 799.332H493.143V801.312L497.961 801.147C498.588 801.114 498.984 801.51 498.984 802.137V816.195C498.984 816.822 498.588 817.218 497.961 817.185L493.143 817.02V819H506.871V817.02L502.086 817.185C501.459 817.218 501.063 816.822 501.063 816.195V802.137C501.063 801.51 501.459 801.114 502.086 801.147L506.871 801.312V799.332Z" fill="#4D474D"/>
<path d="M591.757 799.332L598.357 819H601.657L608.257 799.332H606.079L600.205 817.482H599.809L593.935 799.332H591.757Z" fill="#4D474D"/>
<path d="M693.803 799.332V819H706.739V817.02L696.542 817.218C696.113 817.218 695.882 816.987 695.882 816.558V809.859H705.155V807.945H695.882V801.774C695.882 801.345 696.113 801.114 696.542 801.114L706.739 801.312V799.332H693.803Z" fill="#4D474D"/>
</g>
<defs>
<clipPath id="clip0">
<rect width="900" height="900" fill="white"/>
</clipPath>
</defs>
</svg>
