<svg width="1600" height="900" viewBox="0 0 1600 900" fill="none" xmlns="http://www.w3.org/2000/svg">
<g clip-path="url(#clip0)">
<rect width="1600" height="900" fill="#0D0C0D"/>
<path fill-rule="evenodd" clip-rule="evenodd" d="M-51 29H51V271H-51V29ZM-49 31V269H49V31H-49Z" fill="#4D474D"/>
<path fill-rule="evenodd" clip-rule="evenodd" d="M0 211C-10.4934 211 -19 219.507 -19 230C-19 240.493 -10.4934 249 0 249C10.4934 249 19 240.493 19 230C19 219.507 10.4934 211 0 211ZM-21 230C-21 218.402 -11.598 209 0 209C11.598 209 21 218.402 21 230C21 241.598 11.598 251 0 251C-11.598 251 -21 241.598 -21 230Z" fill="#4D474D"/>
<path fill-rule="evenodd" clip-rule="evenodd" d="M-31 49.0002H31V163H-31V49.0002ZM-29 51.0002V161H29V51.0002H-29Z" fill="#4D474D"/>
<path fill-rule="evenodd" clip-rule="evenodd" d="M49 29H151V271H49V29ZM51 31V269H149V31H51Z" fill="#4D474D"/>
<path fill-rule="evenodd" clip-rule="evenodd" d="M100 211C89.5066 211 81 219.507 81 230C81 240.493 89.5066 249 100 249C110.493 249 119 240.493 119 230C119 219.507 110.493 211 100 211ZM79 230C79 218.402 88.402 209 100 209C111.598 209 121 218.402 121 230C121 241.598 111.598 251 100 251C88.402 251 79 241.598 79 230Z" fill="#4D474D"/>
<path fill-rule="evenodd" clip-rule="evenodd" d="M69 49.0002H131V163H69V49.0002ZM71 51.0002V161H129V51.0002H71Z" fill="#4D474D"/>
<path fill-rule="evenodd" clip-rule="evenodd" d="M149 29H251V271H149V29ZM151 31V269H249V31H151Z" fill="#4D474D"/>
<path fill-rule="evenodd" clip-rule="evenodd" d="M200 211C189.507 211 181 219.507 181 230C181 240.493 189.507 249 200 249C210.493 249 219 240.493 219 230C219 219.507 210.493 211 200 211ZM179 230C179 218.402 188.402 209 200 209C211.598 209 221 218.402 221 230C221 241.598 211.598 251 200 251C188.402 251 179 241.598 179 230Z" fill="#4D474D"/>
<path fill-rule="evenodd" clip-rule="evenodd" d="M169 49.0002H231V163H169V49.0002ZM171 51.0002V161H229V51.0002H171Z" fill="#4D474D"/>
<path fill-rule="evenodd" clip-rule="evenodd" d="M249 29H351V271H249V29ZM251 31V269H349V31H251Z" fill="#4D474D"/>
<path fill-rule="evenodd" clip-rule="evenodd" d="M300 211C289.507 211 281 219.507 281 230C281 240.493 289.507 249 300 249C310.493 249 319 240.493 319 230C319 219.507 310.493 211 300 211ZM279 230C279 218.402 288.402 209 300 209C311.598 209 321 218.402 321 230C321 241.598 311.598 251 300 251C288.402 251 279 241.598 279 230Z" fill="#4D474D"/>
<path fill-rule="evenodd" clip-rule="evenodd" d="M269 49.0002H331V163H269V49.0002ZM271 51.0002V161H329V51.0002H271Z" fill="#4D474D"/>
<path fill-rule="evenodd" clip-rule="evenodd" d="M349 29H451V271H349V29ZM351 31V269H449V31H351Z" fill="#4D474D"/>
<path fill-rule="evenodd" clip-rule="evenodd" d="M400 211C389.507 211 381 219.507 381 230C381 240.493 389.507 249 400 249C410.493 249 419 240.493 419 230C419 219.507 410.493 211 400 211ZM379 230C379 218.402 388.402 209 400 209C411.598 209 421 218.402 421 230C421 241.598 411.598 251 400 251C388.402 251 379 241.598 379 230Z" fill="#4D474D"/>
<path fill-rule="evenodd" clip-rule="evenodd" d="M369 49.0002H431V163H369V49.0002ZM371 51.0002V161H429V51.0002H371Z" fill="#4D474D"/>
<path fill-rule="evenodd" clip-rule="evenodd" d="M449 29H551V271H449V29ZM451 31V269H549V31H451Z" fill="#4D474D"/>
<path fill-rule="evenodd" clip-rule="evenodd" d="M500 211C489.507 211 481 219.507 481 230C481 240.493 489.507 249 500 249C510.493 249 519 240.493 519 230C519 219.507 510.493 211 500 211ZM479 230C479 218.402 488.402 209 500 209C511.598 209 521 218.402 521 230C521 241.598 511.598 251 500 251C488.402 251 479 241.598 479 230Z" fill="#4D474D"/>
<path fill-rule="evenodd" clip-rule="evenodd" d="M469 49.0002H531V163H469V49.0002ZM471 51.0002V161H529V51.0002H471Z" fill="#4D474D"/>
<path fill-rule="evenodd" clip-rule="evenodd" d="M549 29H651V271H549V29ZM551 31V269H649V31H551Z" fill="#4D474D"/>
<path fill-rule="evenodd" clip-rule="evenodd" d="M600 211C589.507 211 581 219.507 581 230C581 240.493 589.507 249 600 249C610.493 249 619 240.493 619 230C619 219.507 610.493 211 600 211ZM579 230C579 218.402 588.402 209 600 209C611.598 209 621 218.402 621 230C621 241.598 611.598 251 600 251C588.402 251 579 241.598 579 230Z" fill="#4D474D"/>
<path fill-rule="evenodd" clip-rule="evenodd" d="M569 49.0002H631V163H569V49.0002ZM571 51.0002V161H629V51.0002H571Z" fill="#4D474D"/>
<path fill-rule="evenodd" clip-rule="evenodd" d="M649 29H751V271H649V29ZM651 31V269H749V31H651Z" fill="#4D474D"/>
<path fill-rule="evenodd" clip-rule="evenodd" d="M700 211C689.507 211 681 219.507 681 230C681 240.493 689.507 249 700 249C710.493 249 719 240.493 719 230C719 219.507 710.493 211 700 211ZM679 230C679 218.402 688.402 209 700 209C711.598 209 721 218.402 721 230C721 241.598 711.598 251 700 251C688.402 251 679 241.598 679 230Z" fill="#4D474D"/>
<path fill-rule="evenodd" clip-rule="evenodd" d="M669 49.0002H731V163H669V49.0002ZM671 51.0002V161H729V51.0002H671Z" fill="#4D474D"/>
<path fill-rule="evenodd" clip-rule="evenodd" d="M749 29H851V271H749V29ZM751 31V269H849V31H751Z" fill="#4D474D"/>
<path fill-rule="evenodd" clip-rule="evenodd" d="M800 211C789.507 211 781 219.507 781 230C781 240.493 789.507 249 800 249C810.493 249 819 240.493 819 230C819 219.507 810.493 211 800 211ZM779 230C779 218.402 788.402 209 800 209C811.598 209 821 218.402 821 230C821 241.598 811.598 251 800 251C788.402 251 779 241.598 779 230Z" fill="#4D474D"/>
<path fill-rule="evenodd" clip-rule="evenodd" d="M769 49.0002H831V163H769V49.0002ZM771 51.0002V161H829V51.0002H771Z" fill="#4D474D"/>
<path fill-rule="evenodd" clip-rule="evenodd" d="M849 29H951V271H849V29ZM851 31V269H949V31H851Z" fill="#4D474D"/>
<path fill-rule="evenodd" clip-rule="evenodd" d="M900 211C889.507 211 881 219.507 881 230C881 240.493 889.507 249 900 249C910.493 249 919 240.493 919 230C919 219.507 910.493 211 900 211ZM879 230C879 218.402 888.402 209 900 209C911.598 209 921 218.402 921 230C921 241.598 911.598 251 900 251C888.402 251 879 241.598 879 230Z" fill="#4D474D"/>
<path fill-rule="evenodd" clip-rule="evenodd" d="M869 49.0002H931V163H869V49.0002ZM871 51.0002V161H929V51.0002H871Z" fill="#4D474D"/>
<path fill-rule="evenodd" clip-rule="evenodd" d="M949 29H1051V271H949V29ZM951 31V269H1049V31H951Z" fill="#4D474D"/>
<path fill-rule="evenodd" clip-rule="evenodd" d="M1000 211C989.507 211 981 219.507 981 230C981 240.493 989.507 249 1000 249C1010.49 249 1019 240.493 1019 230C1019 219.507 1010.49 211 1000 211ZM979 230C979 218.402 988.402 209 1000 209C1011.6 209 1021 218.402 1021 230C1021 241.598 1011.6 251 1000 251C988.402 251 979 241.598 979 230Z" fill="#4D474D"/>
<path fill-rule="evenodd" clip-rule="evenodd" d="M969 49.0002H1031V163H969V49.0002ZM971 51.0002V161H1029V51.0002H971Z" fill="#4D474D"/>
<path fill-rule="evenodd" clip-rule="evenodd" d="M1049 29H1151V271H1049V29ZM1051 31V269H1149V31H1051Z" fill="#4D474D"/>
<path fill-rule="evenodd" clip-rule="evenodd" d="M1100 211C1089.51 211 1081 219.507 1081 230C1081 240.493 1089.51 249 1100 249C1110.49 249 1119 240.493 1119 230C1119 219.507 1110.49 211 1100 211ZM1079 230C1079 218.402 1088.4 209 1100 209C1111.6 209 1121 218.402 1121 230C1121 241.598 1111.6 251 1100 251C1088.4 251 1079 241.598 1079 230Z" fill="#4D474D"/>
<path fill-rule="evenodd" clip-rule="evenodd" d="M1069 49.0002H1131V163H1069V49.0002ZM1071 51.0002V161H1129V51.0002H1071Z" fill="#4D474D"/>
<path fill-rule="evenodd" clip-rule="evenodd" d="M1149 29H1251V271H1149V29ZM1151 31V269H1249V31H1151Z" fill="#4D474D"/>
<path fill-rule="evenodd" clip-rule="evenodd" d="M1200 211C1189.51 211 1181 219.507 1181 230C1181 240.493 1189.51 249 1200 249C1210.49 249 1219 240.493 1219 230C1219 219.507 1210.49 211 1200 211ZM1179 230C1179 218.402 1188.4 209 1200 209C1211.6 209 1221 218.402 1221 230C1221 241.598 1211.6 251 1200 251C1188.4 251 1179 241.598 1179 230Z" fill="#4D474D"/>
<path fill-rule="evenodd" clip-rule="evenodd" d="M1169 49.0002H1231V163H1169V49.0002ZM1171 51.0002V161H1229V51.0002H1171Z" fill="#4D474D"/>
<path fill-rule="evenodd" clip-rule="evenodd" d="M1249 29H1351V271H1249V29ZM1251 31V269H1349V31H1251Z" fill="#4D474D"/>
<path fill-rule="evenodd" clip-rule="evenodd" d="M1300 211C1289.51 211 1281 219.507 1281 230C1281 240.493 1289.51 249 1300 249C1310.49 249 1319 240.493 1319 230C1319 219.507 1310.49 211 1300 211ZM1279 230C1279 218.402 1288.4 209 1300 209C1311.6 209 1321 218.402 1321 230C1321 241.598 1311.6 251 1300 251C1288.4 251 1279 241.598 1279 230Z" fill="#4D474D"/>
<path fill-rule="evenodd" clip-rule="evenodd" d="M1269 49.0002H1331V163H1269V49.0002ZM1271 51.0002V161H1329V51.0002H1271Z" fill="#4D474D"/>
<path fill-rule="evenodd" clip-rule="evenodd" d="M1349 29H1451V271H1349V29ZM1351 31V269H1449V31H1351Z" fill="#4D474D"/>
<path fill-rule="evenodd" clip-rule="evenodd" d="M1400 211C1389.51 211 1381 219.507 1381 230C1381 240.493 1389.51 249 1400 249C1410.49 249 1419 240.493 1419 230C1419 219.507 1410.49 211 1400 211ZM1379 230C1379 218.402 1388.4 209 1400 209C1411.6 209 1421 218.402 1421 230C1421 241.598 1411.6 251 1400 251C1388.4 251 1379 241.598 1379 230Z" fill="#4D474D"/>
<path fill-rule="evenodd" clip-rule="evenodd" d="M1369 49.0002H1431V163H1369V49.0002ZM1371 51.0002V161H1429V51.0002H1371Z" fill="#4D474D"/>
<path fill-rule="evenodd" clip-rule="evenodd" d="M1449 29H1551V271H1449V29ZM1451 31V269H1549V31H1451Z" fill="#4D474D"/>
<path fill-rule="evenodd" clip-rule="evenodd" d="M1500 211C1489.51 211 1481 219.507 1481 230C1481 240.493 1489.51 249 1500 249C1510.49 249 1519 240.493 1519 230C1519 219.507 1510.49 211 1500 211ZM1479 230C1479 218.402 1488.4 209 1500 209C1511.6 209 1521 218.402 1521 230C1521 241.598 1511.6 251 1500 251C1488.4 251 1479 241.598 1479 230Z" fill="#4D474D"/>
<path fill-rule="evenodd" clip-rule="evenodd" d="M1469 49.0002H1531V163H1469V49.0002ZM1471 51.0002V161H1529V51.0002H1471Z" fill="#4D474D"/>
<path fill-rule="evenodd" clip-rule="evenodd" d="M1549 29H1651V271H1549V29ZM1551 31V269H1649V31H1551Z" fill="#4D474D"/>
<path fill-rule="evenodd" clip-rule="evenodd" d="M1600 211C1589.51 211 1581 219.507 1581 230C1581 240.493 1589.51 249 1600 249C1610.49 249 1619 240.493 1619 230C1619 219.507 1610.49 211 1600 211ZM1579 230C1579 218.402 1588.4 209 1600 209C1611.6 209 1621 218.402 1621 230C1621 241.598 1611.6 251 1600 251C1588.4 251 1579 241.598 1579 230Z" fill="#4D474D"/>
<path fill-rule="evenodd" clip-rule="evenodd" d="M1569 49.0002H1631V163H1569V49.0002ZM1571 51.0002V161H1629V51.0002H1571Z" fill="#4D474D"/>
<path fill-rule="evenodd" clip-rule="evenodd" d="M-73 269H1673V291H-73V269ZM-71 271V289H1671V271H-71Z" fill="#4D474D"/>
<path fill-rule="evenodd" clip-rule="evenodd" d="M-51 609H51V851H-51V609ZM-49 611V849H49V611H-49Z" fill="#4D474D"/>
<path fill-rule="evenodd" clip-rule="evenodd" d="M0 791C-10.4934 791 -19 799.507 -19 810C-19 820.493 -10.4934 829 0 829C10.4934 829 19 820.493 19 810C19 799.507 10.4934 791 0 791ZM-21 810C-21 798.402 -11.598 789 0 789C11.598 789 21 798.402 21 810C21 821.598 11.598 831 0 831C-11.598 831 -21 821.598 -21 810Z" fill="#4D474D"/>
<path fill-rule="evenodd" clip-rule="evenodd" d="M-31 629H31V743H-31V629ZM-29 631V741H29V631H-29Z" fill="#4D474D"/>
<path fill-rule="evenodd" clip-rule="evenodd" d="M49 609H151V851H49V609ZM51 611V849H149V611H51Z" fill="#4D474D"/>
<path fill-rule="evenodd" clip-rule="evenodd" d="M100 791C89.5066 791 81 799.507 81 810C81 820.493 89.5066 829 100 829C110.493 829 119 820.493 119 810C119 799.507 110.493 791 100 791ZM79 810C79 798.402 88.402 789 100 789C111.598 789 121 798.402 121 810C121 821.598 111.598 831 100 831C88.402 831 79 821.598 79 810Z" fill="#4D474D"/>
<path fill-rule="evenodd" clip-rule="evenodd" d="M69 629H131V743H69V629ZM71 631V741H129V631H71Z" fill="#4D474D"/>
<path fill-rule="evenodd" clip-rule="evenodd" d="M149 609H251V851H149V609ZM151 611V849H249V611H151Z" fill="#4D474D"/>
<path fill-rule="evenodd" clip-rule="evenodd" d="M200 791C189.507 791 181 799.507 181 810C181 820.493 189.507 829 200 829C210.493 829 219 820.493 219 810C219 799.507 210.493 791 200 791ZM179 810C179 798.402 188.402 789 200 789C211.598 789 221 798.402 221 810C221 821.598 211.598 831 200 831C188.402 831 179 821.598 179 810Z" fill="#4D474D"/>
<path fill-rule="evenodd" clip-rule="evenodd" d="M169 629H231V743H169V629ZM171 631V741H229V631H171Z" fill="#4D474D"/>
<path fill-rule="evenodd" clip-rule="evenodd" d="M249 609H351V851H249V609ZM251 611V849H349V611H251Z" fill="#4D474D"/>
<path fill-rule="evenodd" clip-rule="evenodd" d="M300 791C289.507 791 281 799.507 281 810C281 820.493 289.507 829 300 829C310.493 829 319 820.493 319 810C319 799.507 310.493 791 300 791ZM279 810C279 798.402 288.402 789 300 789C311.598 789 321 798.402 321 810C321 821.598 311.598 831 300 831C288.402 831 279 821.598 279 810Z" fill="#4D474D"/>
<path fill-rule="evenodd" clip-rule="evenodd" d="M269 629H331V743H269V629ZM271 631V741H329V631H271Z" fill="#4D474D"/>
<path fill-rule="evenodd" clip-rule="evenodd" d="M349 609H451V851H349V609ZM351 611V849H449V611H351Z" fill="#4D474D"/>
<path fill-rule="evenodd" clip-rule="evenodd" d="M400 791C389.507 791 381 799.507 381 810C381 820.493 389.507 829 400 829C410.493 829 419 820.493 419 810C419 799.507 410.493 791 400 791ZM379 810C379 798.402 388.402 789 400 789C411.598 789 421 798.402 421 810C421 821.598 411.598 831 400 831C388.402 831 379 821.598 379 810Z" fill="#4D474D"/>
<path fill-rule="evenodd" clip-rule="evenodd" d="M369 629H431V743H369V629ZM371 631V741H429V631H371Z" fill="#4D474D"/>
<path fill-rule="evenodd" clip-rule="evenodd" d="M449 609H551V851H449V609ZM451 611V849H549V611H451Z" fill="#4D474D"/>
<path fill-rule="evenodd" clip-rule="evenodd" d="M500 791C489.507 791 481 799.507 481 810C481 820.493 489.507 829 500 829C510.493 829 519 820.493 519 810C519 799.507 510.493 791 500 791ZM479 810C479 798.402 488.402 789 500 789C511.598 789 521 798.402 521 810C521 821.598 511.598 831 500 831C488.402 831 479 821.598 479 810Z" fill="#4D474D"/>
<path fill-rule="evenodd" clip-rule="evenodd" d="M469 629H531V743H469V629ZM471 631V741H529V631H471Z" fill="#4D474D"/>
<path fill-rule="evenodd" clip-rule="evenodd" d="M549 609H651V851H549V609ZM551 611V849H649V611H551Z" fill="#4D474D"/>
<path fill-rule="evenodd" clip-rule="evenodd" d="M600 791C589.507 791 581 799.507 581 810C581 820.493 589.507 829 600 829C610.493 829 619 820.493 619 810C619 799.507 610.493 791 600 791ZM579 810C579 798.402 588.402 789 600 789C611.598 789 621 798.402 621 810C621 821.598 611.598 831 600 831C588.402 831 579 821.598 579 810Z" fill="#4D474D"/>
<path fill-rule="evenodd" clip-rule="evenodd" d="M569 629H631V743H569V629ZM571 631V741H629V631H571Z" fill="#4D474D"/>
<path fill-rule="evenodd" clip-rule="evenodd" d="M649 609H751V851H649V609ZM651 611V849H749V611H651Z" fill="#4D474D"/>
<path fill-rule="evenodd" clip-rule="evenodd" d="M700 791C689.507 791 681 799.507 681 810C681 820.493 689.507 829 700 829C710.493 829 719 820.493 719 810C719 799.507 710.493 791 700 791ZM679 810C679 798.402 688.402 789 700 789C711.598 789 721 798.402 721 810C721 821.598 711.598 831 700 831C688.402 831 679 821.598 679 810Z" fill="#4D474D"/>
<path fill-rule="evenodd" clip-rule="evenodd" d="M669 629H731V743H669V629ZM671 631V741H729V631H671Z" fill="#4D474D"/>
<path fill-rule="evenodd" clip-rule="evenodd" d="M749 609H851V851H749V609ZM751 611V849H849V611H751Z" fill="#4D474D"/>
<path fill-rule="evenodd" clip-rule="evenodd" d="M800 791C789.507 791 781 799.507 781 810C781 820.493 789.507 829 800 829C810.493 829 819 820.493 819 810C819 799.507 810.493 791 800 791ZM779 810C779 798.402 788.402 789 800 789C811.598 789 821 798.402 821 810C821 821.598 811.598 831 800 831C788.402 831 779 821.598 779 810Z" fill="#4D474D"/>
<path fill-rule="evenodd" clip-rule="evenodd" d="M769 629H831V743H769V629ZM771 631V741H829V631H771Z" fill="#4D474D"/>
<path fill-rule="evenodd" clip-rule="evenodd" d="M849 609H951V851H849V609ZM851 611V849H949V611H851Z" fill="#4D474D"/>
<path fill-rule="evenodd" clip-rule="evenodd" d="M900 791C889.507 791 881 799.507 881 810C881 820.493 889.507 829 900 829C910.493 829 919 820.493 919 810C919 799.507 910.493 791 900 791ZM879 810C879 798.402 888.402 789 900 789C911.598 789 921 798.402 921 810C921 821.598 911.598 831 900 831C888.402 831 879 821.598 879 810Z" fill="#4D474D"/>
<path fill-rule="evenodd" clip-rule="evenodd" d="M869 629H931V743H869V629ZM871 631V741H929V631H871Z" fill="#4D474D"/>
<path fill-rule="evenodd" clip-rule="evenodd" d="M949 609H1051V851H949V609ZM951 611V849H1049V611H951Z" fill="#4D474D"/>
<path fill-rule="evenodd" clip-rule="evenodd" d="M1000 791C989.507 791 981 799.507 981 810C981 820.493 989.507 829 1000 829C1010.49 829 1019 820.493 1019 810C1019 799.507 1010.49 791 1000 791ZM979 810C979 798.402 988.402 789 1000 789C1011.6 789 1021 798.402 1021 810C1021 821.598 1011.6 831 1000 831C988.402 831 979 821.598 979 810Z" fill="#4D474D"/>
<path fill-rule="evenodd" clip-rule="evenodd" d="M969 629H1031V743H969V629ZM971 631V741H1029V631H971Z" fill="#4D474D"/>
<path fill-rule="evenodd" clip-rule="evenodd" d="M1049 609H1151V851H1049V609ZM1051 611V849H1149V611H1051Z" fill="#4D474D"/>
<path fill-rule="evenodd" clip-rule="evenodd" d="M1100 791C1089.51 791 1081 799.507 1081 810C1081 820.493 1089.51 829 1100 829C1110.49 829 1119 820.493 1119 810C1119 799.507 1110.49 791 1100 791ZM1079 810C1079 798.402 1088.4 789 1100 789C1111.6 789 1121 798.402 1121 810C1121 821.598 1111.6 831 1100 831C1088.4 831 1079 821.598 1079 810Z" fill="#4D474D"/>
<path fill-rule="evenodd" clip-rule="evenodd" d="M1069 629H1131V743H1069V629ZM1071 631V741H1129V631H1071Z" fill="#4D474D"/>
<path fill-rule="evenodd" clip-rule="evenodd" d="M1149 609H1251V851H1149V609ZM1151 611V849H1249V611H1151Z" fill="#4D474D"/>
<path fill-rule="evenodd" clip-rule="evenodd" d="M1200 791C1189.51 791 1181 799.507 1181 810C1181 820.493 1189.51 829 1200 829C1210.49 829 1219 820.493 1219 810C1219 799.507 1210.49 791 1200 791ZM1179 810C1179 798.402 1188.4 789 1200 789C1211.6 789 1221 798.402 1221 810C1221 821.598 1211.6 831 1200 831C1188.4 831 1179 821.598 1179 810Z" fill="#4D474D"/>
<path fill-rule="evenodd" clip-rule="evenodd" d="M1169 629H1231V743H1169V629ZM1171 631V741H1229V631H1171Z" fill="#4D474D"/>
<path fill-rule="evenodd" clip-rule="evenodd" d="M1249 609H1351V851H1249V609ZM1251 611V849H1349V611H1251Z" fill="#4D474D"/>
<path fill-rule="evenodd" clip-rule="evenodd" d="M1300 791C1289.51 791 1281 799.507 1281 810C1281 820.493 1289.51 829 1300 829C1310.49 829 1319 820.493 1319 810C1319 799.507 1310.49 791 1300 791ZM1279 810C1279 798.402 1288.4 789 1300 789C1311.6 789 1321 798.402 1321 810C1321 821.598 1311.6 831 1300 831C1288.4 831 1279 821.598 1279 810Z" fill="#4D474D"/>
<path fill-rule="evenodd" clip-rule="evenodd" d="M1269 629H1331V743H1269V629ZM1271 631V741H1329V631H1271Z" fill="#4D474D"/>
<path fill-rule="evenodd" clip-rule="evenodd" d="M1349 609H1451V851H1349V609ZM1351 611V849H1449V611H1351Z" fill="#4D474D"/>
<path fill-rule="evenodd" clip-rule="evenodd" d="M1400 791C1389.51 791 1381 799.507 1381 810C1381 820.493 1389.51 829 1400 829C1410.49 829 1419 820.493 1419 810C1419 799.507 1410.49 791 1400 791ZM1379 810C1379 798.402 1388.4 789 1400 789C1411.6 789 1421 798.402 1421 810C1421 821.598 1411.6 831 1400 831C1388.4 831 1379 821.598 1379 810Z" fill="#4D474D"/>
<path fill-rule="evenodd" clip-rule="evenodd" d="M1369 629H1431V743H1369V629ZM1371 631V741H1429V631H1371Z" fill="#4D474D"/>
<path fill-rule="evenodd" clip-rule="evenodd" d="M1449 609H1551V851H1449V609ZM1451 611V849H1549V611H1451Z" fill="#4D474D"/>
<path fill-rule="evenodd" clip-rule="evenodd" d="M1500 791C1489.51 791 1481 799.507 1481 810C1481 820.493 1489.51 829 1500 829C1510.49 829 1519 820.493 1519 810C1519 799.507 1510.49 791 1500 791ZM1479 810C1479 798.402 1488.4 789 1500 789C1511.6 789 1521 798.402 1521 810C1521 821.598 1511.6 831 1500 831C1488.4 831 1479 821.598 1479 810Z" fill="#4D474D"/>
<path fill-rule="evenodd" clip-rule="evenodd" d="M1469 629H1531V743H1469V629ZM1471 631V741H1529V631H1471Z" fill="#4D474D"/>
<path fill-rule="evenodd" clip-rule="evenodd" d="M1549 609H1651V851H1549V609ZM1551 611V849H1649V611H1551Z" fill="#4D474D"/>
<path fill-rule="evenodd" clip-rule="evenodd" d="M1600 791C1589.51 791 1581 799.507 1581 810C1581 820.493 1589.51 829 1600 829C1610.49 829 1619 820.493 1619 810C1619 799.507 1610.49 791 1600 791ZM1579 810C1579 798.402 1588.4 789 1600 789C1611.6 789 1621 798.402 1621 810C1621 821.598 1611.6 831 1600 831C1588.4 831 1579 821.598 1579 810Z" fill="#4D474D"/>
<path fill-rule="evenodd" clip-rule="evenodd" d="M1569 629H1631V743H1569V629ZM1571 631V741H1629V631H1571Z" fill="#4D474D"/>
<path fill-rule="evenodd" clip-rule="evenodd" d="M-73 849H1673V871H-73V849ZM-71 851V869H1671V851H-71Z" fill="#4D474D"/>
<path fill-rule="evenodd" clip-rule="evenodd" d="M-51 319H51V561H-51V319ZM-49 321V559H49V321H-49Z" fill="#4D474D"/>
<path fill-rule="evenodd" clip-rule="evenodd" d="M0 501C-10.4934 501 -19 509.507 -19 520C-19 530.493 -10.4934 539 0 539C10.4934 539 19 530.493 19 520C19 509.507 10.4934 501 0 501ZM-21 520C-21 508.402 -11.598 499 0 499C11.598 499 21 508.402 21 520C21 531.598 11.598 541 0 541C-11.598 541 -21 531.598 -21 520Z" fill="#4D474D"/>
<path fill-rule="evenodd" clip-rule="evenodd" d="M-31 339H31V453H-31V339ZM-29 341V451H29V341H-29Z" fill="#4D474D"/>
<path fill-rule="evenodd" clip-rule="evenodd" d="M49 319H151V561H49V319ZM51 321V559H149V321H51Z" fill="#4D474D"/>
<path fill-rule="evenodd" clip-rule="evenodd" d="M100 501C89.5066 501 81 509.507 81 520C81 530.493 89.5066 539 100 539C110.493 539 119 530.493 119 520C119 509.507 110.493 501 100 501ZM79 520C79 508.402 88.402 499 100 499C111.598 499 121 508.402 121 520C121 531.598 111.598 541 100 541C88.402 541 79 531.598 79 520Z" fill="#4D474D"/>
<path fill-rule="evenodd" clip-rule="evenodd" d="M69 339H131V453H69V339ZM71 341V451H129V341H71Z" fill="#4D474D"/>
<path fill-rule="evenodd" clip-rule="evenodd" d="M149 319H251V561H149V319ZM151 321V559H249V321H151Z" fill="#4D474D"/>
<path fill-rule="evenodd" clip-rule="evenodd" d="M200 501C189.507 501 181 509.507 181 520C181 530.493 189.507 539 200 539C210.493 539 219 530.493 219 520C219 509.507 210.493 501 200 501ZM179 520C179 508.402 188.402 499 200 499C211.598 499 221 508.402 221 520C221 531.598 211.598 541 200 541C188.402 541 179 531.598 179 520Z" fill="#4D474D"/>
<path fill-rule="evenodd" clip-rule="evenodd" d="M169 339H231V453H169V339ZM171 341V451H229V341H171Z" fill="#4D474D"/>
<path fill-rule="evenodd" clip-rule="evenodd" d="M249 319H351V561H249V319ZM251 321V559H349V321H251Z" fill="#4D474D"/>
<path fill-rule="evenodd" clip-rule="evenodd" d="M300 501C289.507 501 281 509.507 281 520C281 530.493 289.507 539 300 539C310.493 539 319 530.493 319 520C319 509.507 310.493 501 300 501ZM279 520C279 508.402 288.402 499 300 499C311.598 499 321 508.402 321 520C321 531.598 311.598 541 300 541C288.402 541 279 531.598 279 520Z" fill="#4D474D"/>
<path fill-rule="evenodd" clip-rule="evenodd" d="M269 339H331V453H269V339ZM271 341V451H329V341H271Z" fill="#4D474D"/>
<path fill-rule="evenodd" clip-rule="evenodd" d="M349 319H451V561H349V319ZM351 321V559H449V321H351Z" fill="#4D474D"/>
<path fill-rule="evenodd" clip-rule="evenodd" d="M400 501C389.507 501 381 509.507 381 520C381 530.493 389.507 539 400 539C410.493 539 419 530.493 419 520C419 509.507 410.493 501 400 501ZM379 520C379 508.402 388.402 499 400 499C411.598 499 421 508.402 421 520C421 531.598 411.598 541 400 541C388.402 541 379 531.598 379 520Z" fill="#4D474D"/>
<path fill-rule="evenodd" clip-rule="evenodd" d="M369 339H431V453H369V339ZM371 341V451H429V341H371Z" fill="#4D474D"/>
<path fill-rule="evenodd" clip-rule="evenodd" d="M449 319H551V561H449V319ZM451 321V559H549V321H451Z" fill="#4D474D"/>
<path fill-rule="evenodd" clip-rule="evenodd" d="M500 501C489.507 501 481 509.507 481 520C481 530.493 489.507 539 500 539C510.493 539 519 530.493 519 520C519 509.507 510.493 501 500 501ZM479 520C479 508.402 488.402 499 500 499C511.598 499 521 508.402 521 520C521 531.598 511.598 541 500 541C488.402 541 479 531.598 479 520Z" fill="#4D474D"/>
<path fill-rule="evenodd" clip-rule="evenodd" d="M469 339H531V453H469V339ZM471 341V451H529V341H471Z" fill="#4D474D"/>
<path fill-rule="evenodd" clip-rule="evenodd" d="M549 319H651V561H549V319ZM551 321V559H649V321H551Z" fill="#4D474D"/>
<path fill-rule="evenodd" clip-rule="evenodd" d="M600 501C589.507 501 581 509.507 581 520C581 530.493 589.507 539 600 539C610.493 539 619 530.493 619 520C619 509.507 610.493 501 600 501ZM579 520C579 508.402 588.402 499 600 499C611.598 499 621 508.402 621 520C621 531.598 611.598 541 600 541C588.402 541 579 531.598 579 520Z" fill="#4D474D"/>
<path fill-rule="evenodd" clip-rule="evenodd" d="M569 339H631V453H569V339ZM571 341V451H629V341H571Z" fill="#4D474D"/>
<path fill-rule="evenodd" clip-rule="evenodd" d="M649 319H751V561H649V319ZM651 321V559H749V321H651Z" fill="#4D474D"/>
<path fill-rule="evenodd" clip-rule="evenodd" d="M700 501C689.507 501 681 509.507 681 520C681 530.493 689.507 539 700 539C710.493 539 719 530.493 719 520C719 509.507 710.493 501 700 501ZM679 520C679 508.402 688.402 499 700 499C711.598 499 721 508.402 721 520C721 531.598 711.598 541 700 541C688.402 541 679 531.598 679 520Z" fill="#4D474D"/>
<path fill-rule="evenodd" clip-rule="evenodd" d="M669 339H731V453H669V339ZM671 341V451H729V341H671Z" fill="#4D474D"/>
<path fill-rule="evenodd" clip-rule="evenodd" d="M749 319H851V561H749V319ZM751 321V559H849V321H751Z" fill="#4D474D"/>
<path fill-rule="evenodd" clip-rule="evenodd" d="M800 501C789.507 501 781 509.507 781 520C781 530.493 789.507 539 800 539C810.493 539 819 530.493 819 520C819 509.507 810.493 501 800 501ZM779 520C779 508.402 788.402 499 800 499C811.598 499 821 508.402 821 520C821 531.598 811.598 541 800 541C788.402 541 779 531.598 779 520Z" fill="#4D474D"/>
<path fill-rule="evenodd" clip-rule="evenodd" d="M769 339H831V453H769V339ZM771 341V451H829V341H771Z" fill="#4D474D"/>
<path fill-rule="evenodd" clip-rule="evenodd" d="M849 319H951V561H849V319ZM851 321V559H949V321H851Z" fill="#4D474D"/>
<path fill-rule="evenodd" clip-rule="evenodd" d="M900 501C889.507 501 881 509.507 881 520C881 530.493 889.507 539 900 539C910.493 539 919 530.493 919 520C919 509.507 910.493 501 900 501ZM879 520C879 508.402 888.402 499 900 499C911.598 499 921 508.402 921 520C921 531.598 911.598 541 900 541C888.402 541 879 531.598 879 520Z" fill="#4D474D"/>
<path fill-rule="evenodd" clip-rule="evenodd" d="M869 339H931V453H869V339ZM871 341V451H929V341H871Z" fill="#4D474D"/>
<path fill-rule="evenodd" clip-rule="evenodd" d="M949 319H1051V561H949V319ZM951 321V559H1049V321H951Z" fill="#4D474D"/>
<path fill-rule="evenodd" clip-rule="evenodd" d="M1000 501C989.507 501 981 509.507 981 520C981 530.493 989.507 539 1000 539C1010.49 539 1019 530.493 1019 520C1019 509.507 1010.49 501 1000 501ZM979 520C979 508.402 988.402 499 1000 499C1011.6 499 1021 508.402 1021 520C1021 531.598 1011.6 541 1000 541C988.402 541 979 531.598 979 520Z" fill="#4D474D"/>
<path fill-rule="evenodd" clip-rule="evenodd" d="M969 339H1031V453H969V339ZM971 341V451H1029V341H971Z" fill="#4D474D"/>
<path fill-rule="evenodd" clip-rule="evenodd" d="M1049 319H1151V561H1049V319ZM1051 321V559H1149V321H1051Z" fill="#4D474D"/>
<path fill-rule="evenodd" clip-rule="evenodd" d="M1100 501C1089.51 501 1081 509.507 1081 520C1081 530.493 1089.51 539 1100 539C1110.49 539 1119 530.493 1119 520C1119 509.507 1110.49 501 1100 501ZM1079 520C1079 508.402 1088.4 499 1100 499C1111.6 499 1121 508.402 1121 520C1121 531.598 1111.6 541 1100 541C1088.4 541 1079 531.598 1079 520Z" fill="#4D474D"/>
<path fill-rule="evenodd" clip-rule="evenodd" d="M1069 339H1131V453H1069V339ZM1071 341V451H1129V341H1071Z" fill="#4D474D"/>
<path fill-rule="evenodd" clip-rule="evenodd" d="M1149 319H1251V561H1149V319ZM1151 321V559H1249V321H1151Z" fill="#4D474D"/>
<path fill-rule="evenodd" clip-rule="evenodd" d="M1200 501C1189.51 501 1181 509.507 1181 520C1181 530.493 1189.51 539 1200 539C1210.49 539 1219 530.493 1219 520C1219 509.507 1210.49 501 1200 501ZM1179 520C1179 508.402 1188.4 499 1200 499C1211.6 499 1221 508.402 1221 520C1221 531.598 1211.6 541 1200 541C1188.4 541 1179 531.598 1179 520Z" fill="#4D474D"/>
<path fill-rule="evenodd" clip-rule="evenodd" d="M1169 339H1231V453H1169V339ZM1171 341V451H1229V341H1171Z" fill="#4D474D"/>
<path fill-rule="evenodd" clip-rule="evenodd" d="M1249 319H1351V561H1249V319ZM1251 321V559H1349V321H1251Z" fill="#4D474D"/>
<path fill-rule="evenodd" clip-rule="evenodd" d="M1300 501C1289.51 501 1281 509.507 1281 520C1281 530.493 1289.51 539 1300 539C1310.49 539 1319 530.493 1319 520C1319 509.507 1310.49 501 1300 501ZM1279 520C1279 508.402 1288.4 499 1300 499C1311.6 499 1321 508.402 1321 520C1321 531.598 1311.6 541 1300 541C1288.4 541 1279 531.598 1279 520Z" fill="#4D474D"/>
<path fill-rule="evenodd" clip-rule="evenodd" d="M1269 339H1331V453H1269V339ZM1271 341V451H1329V341H1271Z" fill="#4D474D"/>
<path fill-rule="evenodd" clip-rule="evenodd" d="M1349 319H1451V561H1349V319ZM1351 321V559H1449V321H1351Z" fill="#4D474D"/>
<path fill-rule="evenodd" clip-rule="evenodd" d="M1400 501C1389.51 501 1381 509.507 1381 520C1381 530.493 1389.51 539 1400 539C1410.49 539 1419 530.493 1419 520C1419 509.507 1410.49 501 1400 501ZM1379 520C1379 508.402 1388.4 499 1400 499C1411.6 499 1421 508.402 1421 520C1421 531.598 1411.6 541 1400 541C1388.4 541 1379 531.598 1379 520Z" fill="#4D474D"/>
<path fill-rule="evenodd" clip-rule="evenodd" d="M1369 339H1431V453H1369V339ZM1371 341V451H1429V341H1371Z" fill="#4D474D"/>
<path fill-rule="evenodd" clip-rule="evenodd" d="M1449 319H1551V561H1449V319ZM1451 321V559H1549V321H1451Z" fill="#4D474D"/>
<path fill-rule="evenodd" clip-rule="evenodd" d="M1500 501C1489.51 501 1481 509.507 1481 520C1481 530.493 1489.51 539 1500 539C1510.49 539 1519 530.493 1519 520C1519 509.507 1510.49 501 1500 501ZM1479 520C1479 508.402 1488.4 499 1500 499C1511.6 499 1521 508.402 1521 520C1521 531.598 1511.6 541 1500 541C1488.4 541 1479 531.598 1479 520Z" fill="#4D474D"/>
<path fill-rule="evenodd" clip-rule="evenodd" d="M1469 339H1531V453H1469V339ZM1471 341V451H1529V341H1471Z" fill="#4D474D"/>
<path fill-rule="evenodd" clip-rule="evenodd" d="M1549 319H1651V561H1549V319ZM1551 321V559H1649V321H1551Z" fill="#4D474D"/>
<path fill-rule="evenodd" clip-rule="evenodd" d="M1600 501C1589.51 501 1581 509.507 1581 520C1581 530.493 1589.51 539 1600 539C1610.49 539 1619 530.493 1619 520C1619 509.507 1610.49 501 1600 501ZM1579 520C1579 508.402 1588.4 499 1600 499C1611.6 499 1621 508.402 1621 520C1621 531.598 1611.6 541 1600 541C1588.4 541 1579 531.598 1579 520Z" fill="#4D474D"/>
<path fill-rule="evenodd" clip-rule="evenodd" d="M1569 339H1631V453H1569V339ZM1571 341V451H1629V341H1571Z" fill="#4D474D"/>
<path fill-rule="evenodd" clip-rule="evenodd" d="M-73 559H1673V581H-73V559ZM-71 561V579H1671V561H-71Z" fill="#4D474D"/>
<path d="M91.5586 819H93.8686L95.8486 813.126H104.165L106.145 819H108.455L101.525 799.332H98.4886L91.5586 819ZM96.7726 810.387L99.8086 801.312H100.205L103.241 810.387C103.406 810.849 103.175 811.146 102.713 811.146H97.3006C96.8386 811.146 96.6076 810.849 96.7726 810.387Z" fill="#4D474D"/>
<path d="M201.36 799.332H193.506V819H195.585V811.179H200.139L205.551 819H207.861L202.482 811.113C205.65 810.651 207.663 808.308 207.663 805.239C207.663 801.807 205.188 799.332 201.36 799.332ZM195.585 809.265V801.873C195.585 801.444 195.816 801.213 196.245 801.213H201.096C203.736 801.213 205.551 802.599 205.551 805.239C205.551 807.879 203.736 809.265 201.096 809.265H195.585Z" fill="#4D474D"/>
<path d="M300.7 819.462C304.363 819.462 307.53 817.284 307.794 812.334L305.848 811.806C305.716 815.766 303.537 817.482 300.7 817.482C297.103 817.482 294.892 814.842 294.892 811.278V807.054C294.892 803.49 297.103 800.85 300.7 800.85C303.537 800.85 305.716 802.566 305.848 806.526L307.794 805.998C307.53 801.048 304.363 798.87 300.7 798.87C295.947 798.87 292.812 802.302 292.812 806.988V811.344C292.812 816.03 295.947 819.462 300.7 819.462Z" fill="#4D474D"/>
<path d="M393.011 799.332V819H395.09V810.651C395.09 810.222 395.321 809.991 395.75 809.991H404.264C404.693 809.991 404.924 810.222 404.924 810.651V819H407.003V799.332H404.924V807.417C404.924 807.846 404.693 808.077 404.264 808.077H395.75C395.321 808.077 395.09 807.846 395.09 807.417V799.332H393.011Z" fill="#4D474D"/>
<path d="M506.871 799.332H493.143V801.312L497.961 801.147C498.588 801.114 498.984 801.51 498.984 802.137V816.195C498.984 816.822 498.588 817.218 497.961 817.185L493.143 817.02V819H506.871V817.02L502.086 817.185C501.459 817.218 501.063 816.822 501.063 816.195V802.137C501.063 801.51 501.459 801.114 502.086 801.147L506.871 801.312V799.332Z" fill="#4D474D"/>
<path d="M591.757 799.332L598.357 819H601.657L608.257 799.332H606.079L600.205 817.482H599.809L593.935 799.332H591.757Z" fill="#4D474D"/>
<path d="M693.803 799.332V819H706.739V817.02L696.542 817.218C696.113 817.218 695.882 816.987 695.882 816.558V809.859H705.155V807.945H695.882V801.774C695.882 801.345 696.113 801.114 696.542 801.114L706.739 801.312V799.332H693.803Z" fill="#4D474D"/>
</g>
<defs>
<clipPath id="clip0">
<rect width="1600" height="900" fill="white"/>
</clipPath>
</defs>
</svg>
