<svg width="1600" height="900" viewBox="0 0 1600 900" fill="none" xmlns="http://www.w3.org/2000/svg">
<g clip-path="url(#clip0)">
<rect width="1600" height="900" fill="#0D0C0D"/>
<path fill-rule="evenodd" clip-rule="evenodd" d="M-51.5 29.5H9.5V270.5H-51.5V29.5ZM-50.5 30.5V269.5H8.5V30.5H-50.5Z" fill="#807680"/>
<path fill-rule="evenodd" clip-rule="evenodd" d="M8.5 29.5H69.5V270.5H8.5V29.5ZM9.5 30.5V269.5H68.5V30.5H9.5Z" fill="#807680"/>
<path fill-rule="evenodd" clip-rule="evenodd" d="M39 222.5C29.335 222.5 21.5 230.335 21.5 240C21.5 249.665 29.335 257.5 39 257.5C48.665 257.5 56.5 249.665 56.5 240C56.5 230.335 48.665 222.5 39 222.5ZM20.5 240C20.5 229.783 28.7827 221.5 39 221.5C49.2173 221.5 57.5 229.783 57.5 240C57.5 250.217 49.2173 258.5 39 258.5C28.7827 258.5 20.5 250.217 20.5 240Z" fill="#807680"/>
<path fill-rule="evenodd" clip-rule="evenodd" d="M18.5 39.5H59.5V180.5H18.5V39.5ZM19.5 40.5V179.5H58.5V40.5H19.5Z" fill="#807680"/>
<path fill-rule="evenodd" clip-rule="evenodd" d="M68.5 29.5H129.5V270.5H68.5V29.5ZM69.5 30.5V269.5H128.5V30.5H69.5Z" fill="#807680"/>
<path fill-rule="evenodd" clip-rule="evenodd" d="M99 222.5C89.335 222.5 81.5 230.335 81.5 240C81.5 249.665 89.335 257.5 99 257.5C108.665 257.5 116.5 249.665 116.5 240C116.5 230.335 108.665 222.5 99 222.5ZM80.5 240C80.5 229.783 88.7827 221.5 99 221.5C109.217 221.5 117.5 229.783 117.5 240C117.5 250.217 109.217 258.5 99 258.5C88.7827 258.5 80.5 250.217 80.5 240Z" fill="#807680"/>
<path fill-rule="evenodd" clip-rule="evenodd" d="M78.5 39.5H119.5V180.5H78.5V39.5ZM79.5 40.5V179.5H118.5V40.5H79.5Z" fill="#807680"/>
<path fill-rule="evenodd" clip-rule="evenodd" d="M128.5 29.5H189.5V270.5H128.5V29.5ZM129.5 30.5V269.5H188.5V30.5H129.5Z" fill="#807680"/>
<path fill-rule="evenodd" clip-rule="evenodd" d="M159 222.5C149.335 222.5 141.5 230.335 141.5 240C141.5 249.665 149.335 257.5 159 257.5C168.665 257.5 176.5 249.665 176.5 240C176.5 230.335 168.665 222.5 159 222.5ZM140.5 240C140.5 229.783 148.783 221.5 159 221.5C169.217 221.5 177.5 229.783 177.5 240C177.5 250.217 169.217 258.5 159 258.5C148.783 258.5 140.5 250.217 140.5 240Z" fill="#807680"/>
<path fill-rule="evenodd" clip-rule="evenodd" d="M138.5 39.5H179.5V180.5H138.5V39.5ZM139.5 40.5V179.5H178.5V40.5H139.5Z" fill="#807680"/>
<path fill-rule="evenodd" clip-rule="evenodd" d="M188.5 29.5H249.5V270.5H188.5V29.5ZM189.5 30.5V269.5H248.5V30.5H189.5Z" fill="#807680"/>
<path fill-rule="evenodd" clip-rule="evenodd" d="M219 222.5C209.335 222.5 201.5 230.335 201.5 240C201.5 249.665 209.335 257.5 219 257.5C228.665 257.5 236.5 249.665 236.5 240C236.5 230.335 228.665 222.5 219 222.5ZM200.5 240C200.5 229.783 208.783 221.5 219 221.5C229.217 221.5 237.5 229.783 237.5 240C237.5 250.217 229.217 258.5 219 258.5C208.783 258.5 200.5 250.217 200.5 240Z" fill="#807680"/>
<path fill-rule="evenodd" clip-rule="evenodd" d="M198.5 39.5H239.5V180.5H198.5V39.5ZM199.5 40.5V179.5H238.5V40.5H199.5Z" fill="#807680"/>
<path fill-rule="evenodd" clip-rule="evenodd" d="M248.5 29.5H309.5V270.5H248.5V29.5ZM249.5 30.5V269.5H308.5V30.5H249.5Z" fill="#807680"/>
<path fill-rule="evenodd" clip-rule="evenodd" d="M279 222.5C269.335 222.5 261.5 230.335 261.5 240C261.5 249.665 269.335 257.5 279 257.5C288.665 257.5 296.5 249.665 296.5 240C296.5 230.335 288.665 222.5 279 222.5ZM260.5 240C260.5 229.783 268.783 221.5 279 221.5C289.217 221.5 297.5 229.783 297.5 240C297.5 250.217 289.217 258.5 279 258.5C268.783 258.5 260.5 250.217 260.5 240Z" fill="#807680"/>
<path fill-rule="evenodd" clip-rule="evenodd" d="M258.5 39.5H299.5V180.5H258.5V39.5ZM259.5 40.5V179.5H298.5V40.5H259.5Z" fill="#807680"/>
<path fill-rule="evenodd" clip-rule="evenodd" d="M308.5 29.5H369.5V270.5H308.5V29.5ZM309.5 30.5V269.5H368.5V30.5H309.5Z" fill="#807680"/>
<path fill-rule="evenodd" clip-rule="evenodd" d="M339 222.5C329.335 222.5 321.5 230.335 321.5 240C321.5 249.665 329.335 257.5 339 257.5C348.665 257.5 356.5 249.665 356.5 240C356.5 230.335 348.665 222.5 339 222.5ZM320.5 240C320.5 229.783 328.783 221.5 339 221.5C349.217 221.5 357.5 229.783 357.5 240C357.5 250.217 349.217 258.5 339 258.5C328.783 258.5 320.5 250.217 320.5 240Z" fill="#807680"/>
<path fill-rule="evenodd" clip-rule="evenodd" d="M318.5 39.5H359.5V180.5H318.5V39.5ZM319.5 40.5V179.5H358.5V40.5H319.5Z" fill="#807680"/>
<path fill-rule="evenodd" clip-rule="evenodd" d="M368.5 29.5H429.5V270.5H368.5V29.5ZM369.5 30.5V269.5H428.5V30.5H369.5Z" fill="#807680"/>
<path fill-rule="evenodd" clip-rule="evenodd" d="M399 222.5C389.335 222.5 381.5 230.335 381.5 240C381.5 249.665 389.335 257.5 399 257.5C408.665 257.5 416.5 249.665 416.5 240C416.5 230.335 408.665 222.5 399 222.5ZM380.5 240C380.5 229.783 388.783 221.5 399 221.5C409.217 221.5 417.5 229.783 417.5 240C417.5 250.217 409.217 258.5 399 258.5C388.783 258.5 380.5 250.217 380.5 240Z" fill="#807680"/>
<path fill-rule="evenodd" clip-rule="evenodd" d="M378.5 39.5H419.5V180.5H378.5V39.5ZM379.5 40.5V179.5H418.5V40.5H379.5Z" fill="#807680"/>
<path fill-rule="evenodd" clip-rule="evenodd" d="M428.5 29.5H489.5V270.5H428.5V29.5ZM429.5 30.5V269.5H488.5V30.5H429.5Z" fill="#807680"/>
<path fill-rule="evenodd" clip-rule="evenodd" d="M459 222.5C449.335 222.5 441.5 230.335 441.5 240C441.5 249.665 449.335 257.5 459 257.5C468.665 257.5 476.5 249.665 476.5 240C476.5 230.335 468.665 222.5 459 222.5ZM440.5 240C440.5 229.783 448.783 221.5 459 221.5C469.217 221.5 477.5 229.783 477.5 240C477.5 250.217 469.217 258.5 459 258.5C448.783 258.5 440.5 250.217 440.5 240Z" fill="#807680"/>
<path fill-rule="evenodd" clip-rule="evenodd" d="M438.5 39.5H479.5V180.5H438.5V39.5ZM439.5 40.5V179.5H478.5V40.5H439.5Z" fill="#807680"/>
<path fill-rule="evenodd" clip-rule="evenodd" d="M488.5 29.5H549.5V270.5H488.5V29.5ZM489.5 30.5V269.5H548.5V30.5H489.5Z" fill="#807680"/>
<path fill-rule="evenodd" clip-rule="evenodd" d="M519 222.5C509.335 222.5 501.5 230.335 501.5 240C501.5 249.665 509.335 257.5 519 257.5C528.665 257.5 536.5 249.665 536.5 240C536.5 230.335 528.665 222.5 519 222.5ZM500.5 240C500.5 229.783 508.783 221.5 519 221.5C529.217 221.5 537.5 229.783 537.5 240C537.5 250.217 529.217 258.5 519 258.5C508.783 258.5 500.5 250.217 500.5 240Z" fill="#807680"/>
<path fill-rule="evenodd" clip-rule="evenodd" d="M498.5 39.5H539.5V180.5H498.5V39.5ZM499.5 40.5V179.5H538.5V40.5H499.5Z" fill="#807680"/>
<path fill-rule="evenodd" clip-rule="evenodd" d="M548.5 29.5H609.5V270.5H548.5V29.5ZM549.5 30.5V269.5H608.5V30.5H549.5Z" fill="#807680"/>
<path fill-rule="evenodd" clip-rule="evenodd" d="M579 222.5C569.335 222.5 561.5 230.335 561.5 240C561.5 249.665 569.335 257.5 579 257.5C588.665 257.5 596.5 249.665 596.5 240C596.5 230.335 588.665 222.5 579 222.5ZM560.5 240C560.5 229.783 568.783 221.5 579 221.5C589.217 221.5 597.5 229.783 597.5 240C597.5 250.217 589.217 258.5 579 258.5C568.783 258.5 560.5 250.217 560.5 240Z" fill="#807680"/>
<path fill-rule="evenodd" clip-rule="evenodd" d="M558.5 39.5H599.5V180.5H558.5V39.5ZM559.5 40.5V179.5H598.5V40.5H559.5Z" fill="#807680"/>
<path fill-rule="evenodd" clip-rule="evenodd" d="M608.5 29.5H669.5V270.5H608.5V29.5ZM609.5 30.5V269.5H668.5V30.5H609.5Z" fill="#807680"/>
<path fill-rule="evenodd" clip-rule="evenodd" d="M639 222.5C629.335 222.5 621.5 230.335 621.5 240C621.5 249.665 629.335 257.5 639 257.5C648.665 257.5 656.5 249.665 656.5 240C656.5 230.335 648.665 222.5 639 222.5ZM620.5 240C620.5 229.783 628.783 221.5 639 221.5C649.217 221.5 657.5 229.783 657.5 240C657.5 250.217 649.217 258.5 639 258.5C628.783 258.5 620.5 250.217 620.5 240Z" fill="#807680"/>
<path fill-rule="evenodd" clip-rule="evenodd" d="M618.5 39.5H659.5V180.5H618.5V39.5ZM619.5 40.5V179.5H658.5V40.5H619.5Z" fill="#807680"/>
<path fill-rule="evenodd" clip-rule="evenodd" d="M668.5 29.5H729.5V270.5H668.5V29.5ZM669.5 30.5V269.5H728.5V30.5H669.5Z" fill="#807680"/>
<path fill-rule="evenodd" clip-rule="evenodd" d="M699 222.5C689.335 222.5 681.5 230.335 681.5 240C681.5 249.665 689.335 257.5 699 257.5C708.665 257.5 716.5 249.665 716.5 240C716.5 230.335 708.665 222.5 699 222.5ZM680.5 240C680.5 229.783 688.783 221.5 699 221.5C709.217 221.5 717.5 229.783 717.5 240C717.5 250.217 709.217 258.5 699 258.5C688.783 258.5 680.5 250.217 680.5 240Z" fill="#807680"/>
<path fill-rule="evenodd" clip-rule="evenodd" d="M678.5 39.5H719.5V180.5H678.5V39.5ZM679.5 40.5V179.5H718.5V40.5H679.5Z" fill="#807680"/>
<path fill-rule="evenodd" clip-rule="evenodd" d="M728.5 29.5H789.5V270.5H728.5V29.5ZM729.5 30.5V269.5H788.5V30.5H729.5Z" fill="#807680"/>
<path fill-rule="evenodd" clip-rule="evenodd" d="M759 222.5C749.335 222.5 741.5 230.335 741.5 240C741.5 249.665 749.335 257.5 759 257.5C768.665 257.5 776.5 249.665 776.5 240C776.5 230.335 768.665 222.5 759 222.5ZM740.5 240C740.5 229.783 748.783 221.5 759 221.5C769.217 221.5 777.5 229.783 777.5 240C777.5 250.217 769.217 258.5 759 258.5C748.783 258.5 740.5 250.217 740.5 240Z" fill="#807680"/>
<path fill-rule="evenodd" clip-rule="evenodd" d="M738.5 39.5H779.5V180.5H738.5V39.5ZM739.5 40.5V179.5H778.5V40.5H739.5Z" fill="#807680"/>
<path fill-rule="evenodd" clip-rule="evenodd" d="M788.5 29.5H849.5V270.5H788.5V29.5ZM789.5 30.5V269.5H848.5V30.5H789.5Z" fill="#807680"/>
<path fill-rule="evenodd" clip-rule="evenodd" d="M819 222.5C809.335 222.5 801.5 230.335 801.5 240C801.5 249.665 809.335 257.5 819 257.5C828.665 257.5 836.5 249.665 836.5 240C836.5 230.335 828.665 222.5 819 222.5ZM800.5 240C800.5 229.783 808.783 221.5 819 221.5C829.217 221.5 837.5 229.783 837.5 240C837.5 250.217 829.217 258.5 819 258.5C808.783 258.5 800.5 250.217 800.5 240Z" fill="#807680"/>
<path fill-rule="evenodd" clip-rule="evenodd" d="M798.5 39.5H839.5V180.5H798.5V39.5ZM799.5 40.5V179.5H838.5V40.5H799.5Z" fill="#807680"/>
<path fill-rule="evenodd" clip-rule="evenodd" d="M848.5 29.5H909.5V270.5H848.5V29.5ZM849.5 30.5V269.5H908.5V30.5H849.5Z" fill="#807680"/>
<path fill-rule="evenodd" clip-rule="evenodd" d="M879 222.5C869.335 222.5 861.5 230.335 861.5 240C861.5 249.665 869.335 257.5 879 257.5C888.665 257.5 896.5 249.665 896.5 240C896.5 230.335 888.665 222.5 879 222.5ZM860.5 240C860.5 229.783 868.783 221.5 879 221.5C889.217 221.5 897.5 229.783 897.5 240C897.5 250.217 889.217 258.5 879 258.5C868.783 258.5 860.5 250.217 860.5 240Z" fill="#807680"/>
<path fill-rule="evenodd" clip-rule="evenodd" d="M858.5 39.5H899.5V180.5H858.5V39.5ZM859.5 40.5V179.5H898.5V40.5H859.5Z" fill="#807680"/>
<path fill-rule="evenodd" clip-rule="evenodd" d="M908.5 29.5H969.5V270.5H908.5V29.5ZM909.5 30.5V269.5H968.5V30.5H909.5Z" fill="#807680"/>
<path fill-rule="evenodd" clip-rule="evenodd" d="M939 222.5C929.335 222.5 921.5 230.335 921.5 240C921.5 249.665 929.335 257.5 939 257.5C948.665 257.5 956.5 249.665 956.5 240C956.5 230.335 948.665 222.5 939 222.5ZM920.5 240C920.5 229.783 928.783 221.5 939 221.5C949.217 221.5 957.5 229.783 957.5 240C957.5 250.217 949.217 258.5 939 258.5C928.783 258.5 920.5 250.217 920.5 240Z" fill="#807680"/>
<path fill-rule="evenodd" clip-rule="evenodd" d="M918.5 39.5H959.5V180.5H918.5V39.5ZM919.5 40.5V179.5H958.5V40.5H919.5Z" fill="#807680"/>
<path fill-rule="evenodd" clip-rule="evenodd" d="M968.5 29.5H1029.5V270.5H968.5V29.5ZM969.5 30.5V269.5H1028.5V30.5H969.5Z" fill="#807680"/>
<path fill-rule="evenodd" clip-rule="evenodd" d="M999 222.5C989.335 222.5 981.5 230.335 981.5 240C981.5 249.665 989.335 257.5 999 257.5C1008.66 257.5 1016.5 249.665 1016.5 240C1016.5 230.335 1008.66 222.5 999 222.5ZM980.5 240C980.5 229.783 988.783 221.5 999 221.5C1009.22 221.5 1017.5 229.783 1017.5 240C1017.5 250.217 1009.22 258.5 999 258.5C988.783 258.5 980.5 250.217 980.5 240Z" fill="#807680"/>
<path fill-rule="evenodd" clip-rule="evenodd" d="M978.5 39.5H1019.5V180.5H978.5V39.5ZM979.5 40.5V179.5H1018.5V40.5H979.5Z" fill="#807680"/>
<path fill-rule="evenodd" clip-rule="evenodd" d="M1028.5 29.5H1089.5V270.5H1028.5V29.5ZM1029.5 30.5V269.5H1088.5V30.5H1029.5Z" fill="#807680"/>
<path fill-rule="evenodd" clip-rule="evenodd" d="M1059 222.5C1049.34 222.5 1041.5 230.335 1041.5 240C1041.5 249.665 1049.34 257.5 1059 257.5C1068.66 257.5 1076.5 249.665 1076.5 240C1076.5 230.335 1068.66 222.5 1059 222.5ZM1040.5 240C1040.5 229.783 1048.78 221.5 1059 221.5C1069.22 221.5 1077.5 229.783 1077.5 240C1077.5 250.217 1069.22 258.5 1059 258.5C1048.78 258.5 1040.5 250.217 1040.5 240Z" fill="#807680"/>
<path fill-rule="evenodd" clip-rule="evenodd" d="M1038.5 39.5H1079.5V180.5H1038.5V39.5ZM1039.5 40.5V179.5H1078.5V40.5H1039.5Z" fill="#807680"/>
<path fill-rule="evenodd" clip-rule="evenodd" d="M1088.5 29.5H1149.5V270.5H1088.5V29.5ZM1089.5 30.5V269.5H1148.5V30.5H1089.5Z" fill="#807680"/>
<path fill-rule="evenodd" clip-rule="evenodd" d="M1119 222.5C1109.34 222.5 1101.5 230.335 1101.5 240C1101.5 249.665 1109.34 257.5 1119 257.5C1128.66 257.5 1136.5 249.665 1136.5 240C1136.5 230.335 1128.66 222.5 1119 222.5ZM1100.5 240C1100.5 229.783 1108.78 221.5 1119 221.5C1129.22 221.5 1137.5 229.783 1137.5 240C1137.5 250.217 1129.22 258.5 1119 258.5C1108.78 258.5 1100.5 250.217 1100.5 240Z" fill="#807680"/>
<path fill-rule="evenodd" clip-rule="evenodd" d="M1098.5 39.5H1139.5V180.5H1098.5V39.5ZM1099.5 40.5V179.5H1138.5V40.5H1099.5Z" fill="#807680"/>
<path fill-rule="evenodd" clip-rule="evenodd" d="M1148.5 29.5H1209.5V270.5H1148.5V29.5ZM1149.5 30.5V269.5H1208.5V30.5H1149.5Z" fill="#807680"/>
<path fill-rule="evenodd" clip-rule="evenodd" d="M1179 222.5C1169.34 222.5 1161.5 230.335 1161.5 240C1161.5 249.665 1169.34 257.5 1179 257.5C1188.66 257.5 1196.5 249.665 1196.5 240C1196.5 230.335 1188.66 222.5 1179 222.5ZM1160.5 240C1160.5 229.783 1168.78 221.5 1179 221.5C1189.22 221.5 1197.5 229.783 1197.5 240C1197.5 250.217 1189.22 258.5 1179 258.5C1168.78 258.5 1160.5 250.217 1160.5 240Z" fill="#807680"/>
<path fill-rule="evenodd" clip-rule="evenodd" d="M1158.5 39.5H1199.5V180.5H1158.5V39.5ZM1159.5 40.5V179.5H1198.5V40.5H1159.5Z" fill="#807680"/>
<path fill-rule="evenodd" clip-rule="evenodd" d="M1208.5 29.5H1269.5V270.5H1208.5V29.5ZM1209.5 30.5V269.5H1268.5V30.5H1209.5Z" fill="#807680"/>
<path fill-rule="evenodd" clip-rule="evenodd" d="M1239 222.5C1229.34 222.5 1221.5 230.335 1221.5 240C1221.5 249.665 1229.34 257.5 1239 257.5C1248.66 257.5 1256.5 249.665 1256.5 240C1256.5 230.335 1248.66 222.5 1239 222.5ZM1220.5 240C1220.5 229.783 1228.78 221.5 1239 221.5C1249.22 221.5 1257.5 229.783 1257.5 240C1257.5 250.217 1249.22 258.5 1239 258.5C1228.78 258.5 1220.5 250.217 1220.5 240Z" fill="#807680"/>
<path fill-rule="evenodd" clip-rule="evenodd" d="M1218.5 39.5H1259.5V180.5H1218.5V39.5ZM1219.5 40.5V179.5H1258.5V40.5H1219.5Z" fill="#807680"/>
<path fill-rule="evenodd" clip-rule="evenodd" d="M1268.5 29.5H1329.5V270.5H1268.5V29.5ZM1269.5 30.5V269.5H1328.5V30.5H1269.5Z" fill="#807680"/>
<path fill-rule="evenodd" clip-rule="evenodd" d="M1299 222.5C1289.34 222.5 1281.5 230.335 1281.5 240C1281.5 249.665 1289.34 257.5 1299 257.5C1308.66 257.5 1316.5 249.665 1316.5 240C1316.5 230.335 1308.66 222.5 1299 222.5ZM1280.5 240C1280.5 229.783 1288.78 221.5 1299 221.5C1309.22 221.5 1317.5 229.783 1317.5 240C1317.5 250.217 1309.22 258.5 1299 258.5C1288.78 258.5 1280.5 250.217 1280.5 240Z" fill="#807680"/>
<path fill-rule="evenodd" clip-rule="evenodd" d="M1278.5 39.5H1319.5V180.5H1278.5V39.5ZM1279.5 40.5V179.5H1318.5V40.5H1279.5Z" fill="#807680"/>
<path fill-rule="evenodd" clip-rule="evenodd" d="M1328.5 29.5H1389.5V270.5H1328.5V29.5ZM1329.5 30.5V269.5H1388.5V30.5H1329.5Z" fill="#807680"/>
<path fill-rule="evenodd" clip-rule="evenodd" d="M1359 222.5C1349.34 222.5 1341.5 230.335 1341.5 240C1341.5 249.665 1349.34 257.5 1359 257.5C1368.66 257.5 1376.5 249.665 1376.5 240C1376.5 230.335 1368.66 222.5 1359 222.5ZM1340.5 240C1340.5 229.783 1348.78 221.5 1359 221.5C1369.22 221.5 1377.5 229.783 1377.5 240C1377.5 250.217 1369.22 258.5 1359 258.5C1348.78 258.5 1340.5 250.217 1340.5 240Z" fill="#807680"/>
<path fill-rule="evenodd" clip-rule="evenodd" d="M1338.5 39.5H1379.5V180.5H1338.5V39.5ZM1339.5 40.5V179.5H1378.5V40.5H1339.5Z" fill="#807680"/>
<path fill-rule="evenodd" clip-rule="evenodd" d="M1388.5 29.5H1449.5V270.5H1388.5V29.5ZM1389.5 30.5V269.5H1448.5V30.5H1389.5Z" fill="#807680"/>
<path fill-rule="evenodd" clip-rule="evenodd" d="M1419 222.5C1409.34 222.5 1401.5 230.335 1401.5 240C1401.5 249.665 1409.34 257.5 1419 257.5C1428.66 257.5 1436.5 249.665 1436.5 240C1436.5 230.335 1428.66 222.5 1419 222.5ZM1400.5 240C1400.5 229.783 1408.78 221.5 1419 221.5C1429.22 221.5 1437.5 229.783 1437.5 240C1437.5 250.217 1429.22 258.5 1419 258.5C1408.78 258.5 1400.5 250.217 1400.5 240Z" fill="#807680"/>
<path fill-rule="evenodd" clip-rule="evenodd" d="M1398.5 39.5H1439.5V180.5H1398.5V39.5ZM1399.5 40.5V179.5H1438.5V40.5H1399.5Z" fill="#807680"/>
<path fill-rule="evenodd" clip-rule="evenodd" d="M1448.5 29.5H1509.5V270.5H1448.5V29.5ZM1449.5 30.5V269.5H1508.5V30.5H1449.5Z" fill="#807680"/>
<path fill-rule="evenodd" clip-rule="evenodd" d="M1479 222.5C1469.34 222.5 1461.5 230.335 1461.5 240C1461.5 249.665 1469.34 257.5 1479 257.5C1488.66 257.5 1496.5 249.665 1496.5 240C1496.5 230.335 1488.66 222.5 1479 222.5ZM1460.5 240C1460.5 229.783 1468.78 221.5 1479 221.5C1489.22 221.5 1497.5 229.783 1497.5 240C1497.5 250.217 1489.22 258.5 1479 258.5C1468.78 258.5 1460.5 250.217 1460.5 240Z" fill="#807680"/>
<path fill-rule="evenodd" clip-rule="evenodd" d="M1458.5 39.5H1499.5V180.5H1458.5V39.5ZM1459.5 40.5V179.5H1498.5V40.5H1459.5Z" fill="#807680"/>
<path fill-rule="evenodd" clip-rule="evenodd" d="M1508.5 29.5H1569.5V270.5H1508.5V29.5ZM1509.5 30.5V269.5H1568.5V30.5H1509.5Z" fill="#807680"/>
<path fill-rule="evenodd" clip-rule="evenodd" d="M1539 222.5C1529.34 222.5 1521.5 230.335 1521.5 240C1521.5 249.665 1529.34 257.5 1539 257.5C1548.66 257.5 1556.5 249.665 1556.5 240C1556.5 230.335 1548.66 222.5 1539 222.5ZM1520.5 240C1520.5 229.783 1528.78 221.5 1539 221.5C1549.22 221.5 1557.5 229.783 1557.5 240C1557.5 250.217 1549.22 258.5 1539 258.5C1528.78 258.5 1520.5 250.217 1520.5 240Z" fill="#807680"/>
<path fill-rule="evenodd" clip-rule="evenodd" d="M1518.5 39.5H1559.5V180.5H1518.5V39.5ZM1519.5 40.5V179.5H1558.5V40.5H1519.5Z" fill="#807680"/>
<path fill-rule="evenodd" clip-rule="evenodd" d="M1568.5 29.5H1629.5V270.5H1568.5V29.5ZM1569.5 30.5V269.5H1628.5V30.5H1569.5Z" fill="#807680"/>
<path fill-rule="evenodd" clip-rule="evenodd" d="M1599 222.5C1589.34 222.5 1581.5 230.335 1581.5 240C1581.5 249.665 1589.34 257.5 1599 257.5C1608.66 257.5 1616.5 249.665 1616.5 240C1616.5 230.335 1608.66 222.5 1599 222.5ZM1580.5 240C1580.5 229.783 1588.78 221.5 1599 221.5C1609.22 221.5 1617.5 229.783 1617.5 240C1617.5 250.217 1609.22 258.5 1599 258.5C1588.78 258.5 1580.5 250.217 1580.5 240Z" fill="#807680"/>
<path fill-rule="evenodd" clip-rule="evenodd" d="M1578.5 39.5H1619.5V180.5H1578.5V39.5ZM1579.5 40.5V179.5H1618.5V40.5H1579.5Z" fill="#807680"/>
<path fill-rule="evenodd" clip-rule="evenodd" d="M-159.5 269.5H1796.5V290.5H-159.5V269.5ZM-158.5 270.5V289.5H1795.5V270.5H-158.5Z" fill="#807680"/>
<path fill-rule="evenodd" clip-rule="evenodd" d="M-60.5 319.5H0.5V560.5H-60.5V319.5ZM-59.5 320.5V559.5H-0.5V320.5H-59.5Z" fill="#807680"/>
<path fill-rule="evenodd" clip-rule="evenodd" d="M-0.5 319.5H60.5V560.5H-0.5V319.5ZM0.5 320.5V559.5H59.5V320.5H0.5Z" fill="#807680"/>
<path fill-rule="evenodd" clip-rule="evenodd" d="M30 512.5C20.335 512.5 12.5 520.335 12.5 530C12.5 539.665 20.335 547.5 30 547.5C39.665 547.5 47.5 539.665 47.5 530C47.5 520.335 39.665 512.5 30 512.5ZM11.5 530C11.5 519.783 19.7827 511.5 30 511.5C40.2173 511.5 48.5 519.783 48.5 530C48.5 540.217 40.2173 548.5 30 548.5C19.7827 548.5 11.5 540.217 11.5 530Z" fill="#807680"/>
<path fill-rule="evenodd" clip-rule="evenodd" d="M9.5 329.5H50.5V470.5H9.5V329.5ZM10.5 330.5V469.5H49.5V330.5H10.5Z" fill="#807680"/>
<path fill-rule="evenodd" clip-rule="evenodd" d="M59.5 319.5H120.5V560.5H59.5V319.5ZM60.5 320.5V559.5H119.5V320.5H60.5Z" fill="#807680"/>
<path fill-rule="evenodd" clip-rule="evenodd" d="M90 512.5C80.335 512.5 72.5 520.335 72.5 530C72.5 539.665 80.335 547.5 90 547.5C99.665 547.5 107.5 539.665 107.5 530C107.5 520.335 99.665 512.5 90 512.5ZM71.5 530C71.5 519.783 79.7827 511.5 90 511.5C100.217 511.5 108.5 519.783 108.5 530C108.5 540.217 100.217 548.5 90 548.5C79.7827 548.5 71.5 540.217 71.5 530Z" fill="#807680"/>
<path fill-rule="evenodd" clip-rule="evenodd" d="M69.5 329.5H110.5V470.5H69.5V329.5ZM70.5 330.5V469.5H109.5V330.5H70.5Z" fill="#807680"/>
<path fill-rule="evenodd" clip-rule="evenodd" d="M119.5 319.5H180.5V560.5H119.5V319.5ZM120.5 320.5V559.5H179.5V320.5H120.5Z" fill="#807680"/>
<path fill-rule="evenodd" clip-rule="evenodd" d="M150 512.5C140.335 512.5 132.5 520.335 132.5 530C132.5 539.665 140.335 547.5 150 547.5C159.665 547.5 167.5 539.665 167.5 530C167.5 520.335 159.665 512.5 150 512.5ZM131.5 530C131.5 519.783 139.783 511.5 150 511.5C160.217 511.5 168.5 519.783 168.5 530C168.5 540.217 160.217 548.5 150 548.5C139.783 548.5 131.5 540.217 131.5 530Z" fill="#807680"/>
<path fill-rule="evenodd" clip-rule="evenodd" d="M129.5 329.5H170.5V470.5H129.5V329.5ZM130.5 330.5V469.5H169.5V330.5H130.5Z" fill="#807680"/>
<path fill-rule="evenodd" clip-rule="evenodd" d="M179.5 319.5H240.5V560.5H179.5V319.5ZM180.5 320.5V559.5H239.5V320.5H180.5Z" fill="#807680"/>
<path fill-rule="evenodd" clip-rule="evenodd" d="M210 512.5C200.335 512.5 192.5 520.335 192.5 530C192.5 539.665 200.335 547.5 210 547.5C219.665 547.5 227.5 539.665 227.5 530C227.5 520.335 219.665 512.5 210 512.5ZM191.5 530C191.5 519.783 199.783 511.5 210 511.5C220.217 511.5 228.5 519.783 228.5 530C228.5 540.217 220.217 548.5 210 548.5C199.783 548.5 191.5 540.217 191.5 530Z" fill="#807680"/>
<path fill-rule="evenodd" clip-rule="evenodd" d="M189.5 329.5H230.5V470.5H189.5V329.5ZM190.5 330.5V469.5H229.5V330.5H190.5Z" fill="#807680"/>
<path fill-rule="evenodd" clip-rule="evenodd" d="M239.5 319.5H300.5V560.5H239.5V319.5ZM240.5 320.5V559.5H299.5V320.5H240.5Z" fill="#807680"/>
<path fill-rule="evenodd" clip-rule="evenodd" d="M270 512.5C260.335 512.5 252.5 520.335 252.5 530C252.5 539.665 260.335 547.5 270 547.5C279.665 547.5 287.5 539.665 287.5 530C287.5 520.335 279.665 512.5 270 512.5ZM251.5 530C251.5 519.783 259.783 511.5 270 511.5C280.217 511.5 288.5 519.783 288.5 530C288.5 540.217 280.217 548.5 270 548.5C259.783 548.5 251.5 540.217 251.5 530Z" fill="#807680"/>
<path fill-rule="evenodd" clip-rule="evenodd" d="M249.5 329.5H290.5V470.5H249.5V329.5ZM250.5 330.5V469.5H289.5V330.5H250.5Z" fill="#807680"/>
<path fill-rule="evenodd" clip-rule="evenodd" d="M299.5 319.5H360.5V560.5H299.5V319.5ZM300.5 320.5V559.5H359.5V320.5H300.5Z" fill="#807680"/>
<path fill-rule="evenodd" clip-rule="evenodd" d="M330 512.5C320.335 512.5 312.5 520.335 312.5 530C312.5 539.665 320.335 547.5 330 547.5C339.665 547.5 347.5 539.665 347.5 530C347.5 520.335 339.665 512.5 330 512.5ZM311.5 530C311.5 519.783 319.783 511.5 330 511.5C340.217 511.5 348.5 519.783 348.5 530C348.5 540.217 340.217 548.5 330 548.5C319.783 548.5 311.5 540.217 311.5 530Z" fill="#807680"/>
<path fill-rule="evenodd" clip-rule="evenodd" d="M309.5 329.5H350.5V470.5H309.5V329.5ZM310.5 330.5V469.5H349.5V330.5H310.5Z" fill="#807680"/>
<path fill-rule="evenodd" clip-rule="evenodd" d="M359.5 319.5H420.5V560.5H359.5V319.5ZM360.5 320.5V559.5H419.5V320.5H360.5Z" fill="#807680"/>
<path fill-rule="evenodd" clip-rule="evenodd" d="M390 512.5C380.335 512.5 372.5 520.335 372.5 530C372.5 539.665 380.335 547.5 390 547.5C399.665 547.5 407.5 539.665 407.5 530C407.5 520.335 399.665 512.5 390 512.5ZM371.5 530C371.5 519.783 379.783 511.5 390 511.5C400.217 511.5 408.5 519.783 408.5 530C408.5 540.217 400.217 548.5 390 548.5C379.783 548.5 371.5 540.217 371.5 530Z" fill="#807680"/>
<path fill-rule="evenodd" clip-rule="evenodd" d="M369.5 329.5H410.5V470.5H369.5V329.5ZM370.5 330.5V469.5H409.5V330.5H370.5Z" fill="#807680"/>
<path fill-rule="evenodd" clip-rule="evenodd" d="M419.5 319.5H480.5V560.5H419.5V319.5ZM420.5 320.5V559.5H479.5V320.5H420.5Z" fill="#807680"/>
<path fill-rule="evenodd" clip-rule="evenodd" d="M450 512.5C440.335 512.5 432.5 520.335 432.5 530C432.5 539.665 440.335 547.5 450 547.5C459.665 547.5 467.5 539.665 467.5 530C467.5 520.335 459.665 512.5 450 512.5ZM431.5 530C431.5 519.783 439.783 511.5 450 511.5C460.217 511.5 468.5 519.783 468.5 530C468.5 540.217 460.217 548.5 450 548.5C439.783 548.5 431.5 540.217 431.5 530Z" fill="#807680"/>
<path fill-rule="evenodd" clip-rule="evenodd" d="M429.5 329.5H470.5V470.5H429.5V329.5ZM430.5 330.5V469.5H469.5V330.5H430.5Z" fill="#807680"/>
<path fill-rule="evenodd" clip-rule="evenodd" d="M479.5 319.5H540.5V560.5H479.5V319.5ZM480.5 320.5V559.5H539.5V320.5H480.5Z" fill="#807680"/>
<path fill-rule="evenodd" clip-rule="evenodd" d="M510 512.5C500.335 512.5 492.5 520.335 492.5 530C492.5 539.665 500.335 547.5 510 547.5C519.665 547.5 527.5 539.665 527.5 530C527.5 520.335 519.665 512.5 510 512.5ZM491.5 530C491.5 519.783 499.783 511.5 510 511.5C520.217 511.5 528.5 519.783 528.5 530C528.5 540.217 520.217 548.5 510 548.5C499.783 548.5 491.5 540.217 491.5 530Z" fill="#807680"/>
<path fill-rule="evenodd" clip-rule="evenodd" d="M489.5 329.5H530.5V470.5H489.5V329.5ZM490.5 330.5V469.5H529.5V330.5H490.5Z" fill="#807680"/>
<path fill-rule="evenodd" clip-rule="evenodd" d="M539.5 319.5H600.5V560.5H539.5V319.5ZM540.5 320.5V559.5H599.5V320.5H540.5Z" fill="#807680"/>
<path fill-rule="evenodd" clip-rule="evenodd" d="M570 512.5C560.335 512.5 552.5 520.335 552.5 530C552.5 539.665 560.335 547.5 570 547.5C579.665 547.5 587.5 539.665 587.5 530C587.5 520.335 579.665 512.5 570 512.5ZM551.5 530C551.5 519.783 559.783 511.5 570 511.5C580.217 511.5 588.5 519.783 588.5 530C588.5 540.217 580.217 548.5 570 548.5C559.783 548.5 551.5 540.217 551.5 530Z" fill="#807680"/>
<path fill-rule="evenodd" clip-rule="evenodd" d="M549.5 329.5H590.5V470.5H549.5V329.5ZM550.5 330.5V469.5H589.5V330.5H550.5Z" fill="#807680"/>
<path fill-rule="evenodd" clip-rule="evenodd" d="M599.5 319.5H660.5V560.5H599.5V319.5ZM600.5 320.5V559.5H659.5V320.5H600.5Z" fill="#807680"/>
<path fill-rule="evenodd" clip-rule="evenodd" d="M630 512.5C620.335 512.5 612.5 520.335 612.5 530C612.5 539.665 620.335 547.5 630 547.5C639.665 547.5 647.5 539.665 647.5 530C647.5 520.335 639.665 512.5 630 512.5ZM611.5 530C611.5 519.783 619.783 511.5 630 511.5C640.217 511.5 648.5 519.783 648.5 530C648.5 540.217 640.217 548.5 630 548.5C619.783 548.5 611.5 540.217 611.5 530Z" fill="#807680"/>
<path fill-rule="evenodd" clip-rule="evenodd" d="M609.5 329.5H650.5V470.5H609.5V329.5ZM610.5 330.5V469.5H649.5V330.5H610.5Z" fill="#807680"/>
<path fill-rule="evenodd" clip-rule="evenodd" d="M659.5 319.5H720.5V560.5H659.5V319.5ZM660.5 320.5V559.5H719.5V320.5H660.5Z" fill="#807680"/>
<path fill-rule="evenodd" clip-rule="evenodd" d="M690 512.5C680.335 512.5 672.5 520.335 672.5 530C672.5 539.665 680.335 547.5 690 547.5C699.665 547.5 707.5 539.665 707.5 530C707.5 520.335 699.665 512.5 690 512.5ZM671.5 530C671.5 519.783 679.783 511.5 690 511.5C700.217 511.5 708.5 519.783 708.5 530C708.5 540.217 700.217 548.5 690 548.5C679.783 548.5 671.5 540.217 671.5 530Z" fill="#807680"/>
<path fill-rule="evenodd" clip-rule="evenodd" d="M669.5 329.5H710.5V470.5H669.5V329.5ZM670.5 330.5V469.5H709.5V330.5H670.5Z" fill="#807680"/>
<path fill-rule="evenodd" clip-rule="evenodd" d="M719.5 319.5H780.5V560.5H719.5V319.5ZM720.5 320.5V559.5H779.5V320.5H720.5Z" fill="#807680"/>
<path fill-rule="evenodd" clip-rule="evenodd" d="M750 512.5C740.335 512.5 732.5 520.335 732.5 530C732.5 539.665 740.335 547.5 750 547.5C759.665 547.5 767.5 539.665 767.5 530C767.5 520.335 759.665 512.5 750 512.5ZM731.5 530C731.5 519.783 739.783 511.5 750 511.5C760.217 511.5 768.5 519.783 768.5 530C768.5 540.217 760.217 548.5 750 548.5C739.783 548.5 731.5 540.217 731.5 530Z" fill="#807680"/>
<path fill-rule="evenodd" clip-rule="evenodd" d="M729.5 329.5H770.5V470.5H729.5V329.5ZM730.5 330.5V469.5H769.5V330.5H730.5Z" fill="#807680"/>
<path fill-rule="evenodd" clip-rule="evenodd" d="M779.5 319.5H840.5V560.5H779.5V319.5ZM780.5 320.5V559.5H839.5V320.5H780.5Z" fill="#807680"/>
<path fill-rule="evenodd" clip-rule="evenodd" d="M810 512.5C800.335 512.5 792.5 520.335 792.5 530C792.5 539.665 800.335 547.5 810 547.5C819.665 547.5 827.5 539.665 827.5 530C827.5 520.335 819.665 512.5 810 512.5ZM791.5 530C791.5 519.783 799.783 511.5 810 511.5C820.217 511.5 828.5 519.783 828.5 530C828.5 540.217 820.217 548.5 810 548.5C799.783 548.5 791.5 540.217 791.5 530Z" fill="#807680"/>
<path fill-rule="evenodd" clip-rule="evenodd" d="M789.5 329.5H830.5V470.5H789.5V329.5ZM790.5 330.5V469.5H829.5V330.5H790.5Z" fill="#807680"/>
<path fill-rule="evenodd" clip-rule="evenodd" d="M839.5 319.5H900.5V560.5H839.5V319.5ZM840.5 320.5V559.5H899.5V320.5H840.5Z" fill="#807680"/>
<path fill-rule="evenodd" clip-rule="evenodd" d="M870 512.5C860.335 512.5 852.5 520.335 852.5 530C852.5 539.665 860.335 547.5 870 547.5C879.665 547.5 887.5 539.665 887.5 530C887.5 520.335 879.665 512.5 870 512.5ZM851.5 530C851.5 519.783 859.783 511.5 870 511.5C880.217 511.5 888.5 519.783 888.5 530C888.5 540.217 880.217 548.5 870 548.5C859.783 548.5 851.5 540.217 851.5 530Z" fill="#807680"/>
<path fill-rule="evenodd" clip-rule="evenodd" d="M849.5 329.5H890.5V470.5H849.5V329.5ZM850.5 330.5V469.5H889.5V330.5H850.5Z" fill="#807680"/>
<path fill-rule="evenodd" clip-rule="evenodd" d="M899.5 319.5H960.5V560.5H899.5V319.5ZM900.5 320.5V559.5H959.5V320.5H900.5Z" fill="#807680"/>
<path fill-rule="evenodd" clip-rule="evenodd" d="M930 512.5C920.335 512.5 912.5 520.335 912.5 530C912.5 539.665 920.335 547.5 930 547.5C939.665 547.5 947.5 539.665 947.5 530C947.5 520.335 939.665 512.5 930 512.5ZM911.5 530C911.5 519.783 919.783 511.5 930 511.5C940.217 511.5 948.5 519.783 948.5 530C948.5 540.217 940.217 548.5 930 548.5C919.783 548.5 911.5 540.217 911.5 530Z" fill="#807680"/>
<path fill-rule="evenodd" clip-rule="evenodd" d="M909.5 329.5H950.5V470.5H909.5V329.5ZM910.5 330.5V469.5H949.5V330.5H910.5Z" fill="#807680"/>
<path fill-rule="evenodd" clip-rule="evenodd" d="M959.5 319.5H1020.5V560.5H959.5V319.5ZM960.5 320.5V559.5H1019.5V320.5H960.5Z" fill="#807680"/>
<path fill-rule="evenodd" clip-rule="evenodd" d="M990 512.5C980.335 512.5 972.5 520.335 972.5 530C972.5 539.665 980.335 547.5 990 547.5C999.665 547.5 1007.5 539.665 1007.5 530C1007.5 520.335 999.665 512.5 990 512.5ZM971.5 530C971.5 519.783 979.783 511.5 990 511.5C1000.22 511.5 1008.5 519.783 1008.5 530C1008.5 540.217 1000.22 548.5 990 548.5C979.783 548.5 971.5 540.217 971.5 530Z" fill="#807680"/>
<path fill-rule="evenodd" clip-rule="evenodd" d="M969.5 329.5H1010.5V470.5H969.5V329.5ZM970.5 330.5V469.5H1009.5V330.5H970.5Z" fill="#807680"/>
<path fill-rule="evenodd" clip-rule="evenodd" d="M1019.5 319.5H1080.5V560.5H1019.5V319.5ZM1020.5 320.5V559.5H1079.5V320.5H1020.5Z" fill="#807680"/>
<path fill-rule="evenodd" clip-rule="evenodd" d="M1050 512.5C1040.34 512.5 1032.5 520.335 1032.5 530C1032.5 539.665 1040.34 547.5 1050 547.5C1059.66 547.5 1067.5 539.665 1067.5 530C1067.5 520.335 1059.66 512.5 1050 512.5ZM1031.5 530C1031.5 519.783 1039.78 511.5 1050 511.5C1060.22 511.5 1068.5 519.783 1068.5 530C1068.5 540.217 1060.22 548.5 1050 548.5C1039.78 548.5 1031.5 540.217 1031.5 530Z" fill="#807680"/>
<path fill-rule="evenodd" clip-rule="evenodd" d="M1029.5 329.5H1070.5V470.5H1029.5V329.5ZM1030.5 330.5V469.5H1069.5V330.5H1030.5Z" fill="#807680"/>
<path fill-rule="evenodd" clip-rule="evenodd" d="M1079.5 319.5H1140.5V560.5H1079.5V319.5ZM1080.5 320.5V559.5H1139.5V320.5H1080.5Z" fill="#807680"/>
<path fill-rule="evenodd" clip-rule="evenodd" d="M1110 512.5C1100.34 512.5 1092.5 520.335 1092.5 530C1092.5 539.665 1100.34 547.5 1110 547.5C1119.66 547.5 1127.5 539.665 1127.5 530C1127.5 520.335 1119.66 512.5 1110 512.5ZM1091.5 530C1091.5 519.783 1099.78 511.5 1110 511.5C1120.22 511.5 1128.5 519.783 1128.5 530C1128.5 540.217 1120.22 548.5 1110 548.5C1099.78 548.5 1091.5 540.217 1091.5 530Z" fill="#807680"/>
<path fill-rule="evenodd" clip-rule="evenodd" d="M1089.5 329.5H1130.5V470.5H1089.5V329.5ZM1090.5 330.5V469.5H1129.5V330.5H1090.5Z" fill="#807680"/>
<path fill-rule="evenodd" clip-rule="evenodd" d="M1139.5 319.5H1200.5V560.5H1139.5V319.5ZM1140.5 320.5V559.5H1199.5V320.5H1140.5Z" fill="#807680"/>
<path fill-rule="evenodd" clip-rule="evenodd" d="M1170 512.5C1160.34 512.5 1152.5 520.335 1152.5 530C1152.5 539.665 1160.34 547.5 1170 547.5C1179.66 547.5 1187.5 539.665 1187.5 530C1187.5 520.335 1179.66 512.5 1170 512.5ZM1151.5 530C1151.5 519.783 1159.78 511.5 1170 511.5C1180.22 511.5 1188.5 519.783 1188.5 530C1188.5 540.217 1180.22 548.5 1170 548.5C1159.78 548.5 1151.5 540.217 1151.5 530Z" fill="#807680"/>
<path fill-rule="evenodd" clip-rule="evenodd" d="M1149.5 329.5H1190.5V470.5H1149.5V329.5ZM1150.5 330.5V469.5H1189.5V330.5H1150.5Z" fill="#807680"/>
<path fill-rule="evenodd" clip-rule="evenodd" d="M1199.5 319.5H1260.5V560.5H1199.5V319.5ZM1200.5 320.5V559.5H1259.5V320.5H1200.5Z" fill="#807680"/>
<path fill-rule="evenodd" clip-rule="evenodd" d="M1230 512.5C1220.34 512.5 1212.5 520.335 1212.5 530C1212.5 539.665 1220.34 547.5 1230 547.5C1239.66 547.5 1247.5 539.665 1247.5 530C1247.5 520.335 1239.66 512.5 1230 512.5ZM1211.5 530C1211.5 519.783 1219.78 511.5 1230 511.5C1240.22 511.5 1248.5 519.783 1248.5 530C1248.5 540.217 1240.22 548.5 1230 548.5C1219.78 548.5 1211.5 540.217 1211.5 530Z" fill="#807680"/>
<path fill-rule="evenodd" clip-rule="evenodd" d="M1209.5 329.5H1250.5V470.5H1209.5V329.5ZM1210.5 330.5V469.5H1249.5V330.5H1210.5Z" fill="#807680"/>
<path fill-rule="evenodd" clip-rule="evenodd" d="M1259.5 319.5H1320.5V560.5H1259.5V319.5ZM1260.5 320.5V559.5H1319.5V320.5H1260.5Z" fill="#807680"/>
<path fill-rule="evenodd" clip-rule="evenodd" d="M1290 512.5C1280.34 512.5 1272.5 520.335 1272.5 530C1272.5 539.665 1280.34 547.5 1290 547.5C1299.66 547.5 1307.5 539.665 1307.5 530C1307.5 520.335 1299.66 512.5 1290 512.5ZM1271.5 530C1271.5 519.783 1279.78 511.5 1290 511.5C1300.22 511.5 1308.5 519.783 1308.5 530C1308.5 540.217 1300.22 548.5 1290 548.5C1279.78 548.5 1271.5 540.217 1271.5 530Z" fill="#807680"/>
<path fill-rule="evenodd" clip-rule="evenodd" d="M1269.5 329.5H1310.5V470.5H1269.5V329.5ZM1270.5 330.5V469.5H1309.5V330.5H1270.5Z" fill="#807680"/>
<path fill-rule="evenodd" clip-rule="evenodd" d="M1319.5 319.5H1380.5V560.5H1319.5V319.5ZM1320.5 320.5V559.5H1379.5V320.5H1320.5Z" fill="#807680"/>
<path fill-rule="evenodd" clip-rule="evenodd" d="M1350 512.5C1340.34 512.5 1332.5 520.335 1332.5 530C1332.5 539.665 1340.34 547.5 1350 547.5C1359.66 547.5 1367.5 539.665 1367.5 530C1367.5 520.335 1359.66 512.5 1350 512.5ZM1331.5 530C1331.5 519.783 1339.78 511.5 1350 511.5C1360.22 511.5 1368.5 519.783 1368.5 530C1368.5 540.217 1360.22 548.5 1350 548.5C1339.78 548.5 1331.5 540.217 1331.5 530Z" fill="#807680"/>
<path fill-rule="evenodd" clip-rule="evenodd" d="M1329.5 329.5H1370.5V470.5H1329.5V329.5ZM1330.5 330.5V469.5H1369.5V330.5H1330.5Z" fill="#807680"/>
<path fill-rule="evenodd" clip-rule="evenodd" d="M1379.5 319.5H1440.5V560.5H1379.5V319.5ZM1380.5 320.5V559.5H1439.5V320.5H1380.5Z" fill="#807680"/>
<path fill-rule="evenodd" clip-rule="evenodd" d="M1410 512.5C1400.34 512.5 1392.5 520.335 1392.5 530C1392.5 539.665 1400.34 547.5 1410 547.5C1419.66 547.5 1427.5 539.665 1427.5 530C1427.5 520.335 1419.66 512.5 1410 512.5ZM1391.5 530C1391.5 519.783 1399.78 511.5 1410 511.5C1420.22 511.5 1428.5 519.783 1428.5 530C1428.5 540.217 1420.22 548.5 1410 548.5C1399.78 548.5 1391.5 540.217 1391.5 530Z" fill="#807680"/>
<path fill-rule="evenodd" clip-rule="evenodd" d="M1389.5 329.5H1430.5V470.5H1389.5V329.5ZM1390.5 330.5V469.5H1429.5V330.5H1390.5Z" fill="#807680"/>
<path fill-rule="evenodd" clip-rule="evenodd" d="M1439.5 319.5H1500.5V560.5H1439.5V319.5ZM1440.5 320.5V559.5H1499.5V320.5H1440.5Z" fill="#807680"/>
<path fill-rule="evenodd" clip-rule="evenodd" d="M1470 512.5C1460.34 512.5 1452.5 520.335 1452.5 530C1452.5 539.665 1460.34 547.5 1470 547.5C1479.66 547.5 1487.5 539.665 1487.5 530C1487.5 520.335 1479.66 512.5 1470 512.5ZM1451.5 530C1451.5 519.783 1459.78 511.5 1470 511.5C1480.22 511.5 1488.5 519.783 1488.5 530C1488.5 540.217 1480.22 548.5 1470 548.5C1459.78 548.5 1451.5 540.217 1451.5 530Z" fill="#807680"/>
<path fill-rule="evenodd" clip-rule="evenodd" d="M1449.5 329.5H1490.5V470.5H1449.5V329.5ZM1450.5 330.5V469.5H1489.5V330.5H1450.5Z" fill="#807680"/>
<path fill-rule="evenodd" clip-rule="evenodd" d="M1499.5 319.5H1560.5V560.5H1499.5V319.5ZM1500.5 320.5V559.5H1559.5V320.5H1500.5Z" fill="#807680"/>
<path fill-rule="evenodd" clip-rule="evenodd" d="M1530 512.5C1520.34 512.5 1512.5 520.335 1512.5 530C1512.5 539.665 1520.34 547.5 1530 547.5C1539.66 547.5 1547.5 539.665 1547.5 530C1547.5 520.335 1539.66 512.5 1530 512.5ZM1511.5 530C1511.5 519.783 1519.78 511.5 1530 511.5C1540.22 511.5 1548.5 519.783 1548.5 530C1548.5 540.217 1540.22 548.5 1530 548.5C1519.78 548.5 1511.5 540.217 1511.5 530Z" fill="#807680"/>
<path fill-rule="evenodd" clip-rule="evenodd" d="M1509.5 329.5H1550.5V470.5H1509.5V329.5ZM1510.5 330.5V469.5H1549.5V330.5H1510.5Z" fill="#807680"/>
<path fill-rule="evenodd" clip-rule="evenodd" d="M1559.5 319.5H1620.5V560.5H1559.5V319.5ZM1560.5 320.5V559.5H1619.5V320.5H1560.5Z" fill="#807680"/>
<path fill-rule="evenodd" clip-rule="evenodd" d="M1590 512.5C1580.34 512.5 1572.5 520.335 1572.5 530C1572.5 539.665 1580.34 547.5 1590 547.5C1599.66 547.5 1607.5 539.665 1607.5 530C1607.5 520.335 1599.66 512.5 1590 512.5ZM1571.5 530C1571.5 519.783 1579.78 511.5 1590 511.5C1600.22 511.5 1608.5 519.783 1608.5 530C1608.5 540.217 1600.22 548.5 1590 548.5C1579.78 548.5 1571.5 540.217 1571.5 530Z" fill="#807680"/>
<path fill-rule="evenodd" clip-rule="evenodd" d="M1569.5 329.5H1610.5V470.5H1569.5V329.5ZM1570.5 330.5V469.5H1609.5V330.5H1570.5Z" fill="#807680"/>
<path fill-rule="evenodd" clip-rule="evenodd" d="M-108.5 559.5H1847.5V580.5H-108.5V559.5ZM-107.5 560.5V579.5H1846.5V560.5H-107.5Z" fill="#807680"/>
<path fill-rule="evenodd" clip-rule="evenodd" d="M-42.5 609.5H18.5V850.5H-42.5V609.5ZM-41.5 610.5V849.5H17.5V610.5H-41.5Z" fill="#807680"/>
<path fill-rule="evenodd" clip-rule="evenodd" d="M-12 802.5C-21.665 802.5 -29.5 810.335 -29.5 820C-29.5 829.665 -21.665 837.5 -12 837.5C-2.33502 837.5 5.5 829.665 5.5 820C5.5 810.335 -2.33502 802.5 -12 802.5ZM-30.5 820C-30.5 809.783 -22.2173 801.5 -12 801.5C-1.78273 801.5 6.5 809.783 6.5 820C6.5 830.217 -1.78273 838.5 -12 838.5C-22.2173 838.5 -30.5 830.217 -30.5 820Z" fill="#807680"/>
<path fill-rule="evenodd" clip-rule="evenodd" d="M-32.5 619.5H8.5V760.5H-32.5V619.5ZM-31.5 620.5V759.5H7.5V620.5H-31.5Z" fill="#807680"/>
<path fill-rule="evenodd" clip-rule="evenodd" d="M17.5 609.5H78.5V850.5H17.5V609.5ZM18.5 610.5V849.5H77.5V610.5H18.5Z" fill="#807680"/>
<path fill-rule="evenodd" clip-rule="evenodd" d="M48 802.5C38.335 802.5 30.5 810.335 30.5 820C30.5 829.665 38.335 837.5 48 837.5C57.665 837.5 65.5 829.665 65.5 820C65.5 810.335 57.665 802.5 48 802.5ZM29.5 820C29.5 809.783 37.7827 801.5 48 801.5C58.2173 801.5 66.5 809.783 66.5 820C66.5 830.217 58.2173 838.5 48 838.5C37.7827 838.5 29.5 830.217 29.5 820Z" fill="#807680"/>
<path fill-rule="evenodd" clip-rule="evenodd" d="M27.5 619.5H68.5V760.5H27.5V619.5ZM28.5 620.5V759.5H67.5V620.5H28.5Z" fill="#807680"/>
<path fill-rule="evenodd" clip-rule="evenodd" d="M77.5 609.5H138.5V850.5H77.5V609.5ZM78.5 610.5V849.5H137.5V610.5H78.5Z" fill="#807680"/>
<path fill-rule="evenodd" clip-rule="evenodd" d="M108 802.5C98.335 802.5 90.5 810.335 90.5 820C90.5 829.665 98.335 837.5 108 837.5C117.665 837.5 125.5 829.665 125.5 820C125.5 810.335 117.665 802.5 108 802.5ZM89.5 820C89.5 809.783 97.7827 801.5 108 801.5C118.217 801.5 126.5 809.783 126.5 820C126.5 830.217 118.217 838.5 108 838.5C97.7827 838.5 89.5 830.217 89.5 820Z" fill="#807680"/>
<path fill-rule="evenodd" clip-rule="evenodd" d="M87.5 619.5H128.5V760.5H87.5V619.5ZM88.5 620.5V759.5H127.5V620.5H88.5Z" fill="#807680"/>
<path fill-rule="evenodd" clip-rule="evenodd" d="M137.5 609.5H198.5V850.5H137.5V609.5ZM138.5 610.5V849.5H197.5V610.5H138.5Z" fill="#807680"/>
<path fill-rule="evenodd" clip-rule="evenodd" d="M168 802.5C158.335 802.5 150.5 810.335 150.5 820C150.5 829.665 158.335 837.5 168 837.5C177.665 837.5 185.5 829.665 185.5 820C185.5 810.335 177.665 802.5 168 802.5ZM149.5 820C149.5 809.783 157.783 801.5 168 801.5C178.217 801.5 186.5 809.783 186.5 820C186.5 830.217 178.217 838.5 168 838.5C157.783 838.5 149.5 830.217 149.5 820Z" fill="#807680"/>
<path fill-rule="evenodd" clip-rule="evenodd" d="M147.5 619.5H188.5V760.5H147.5V619.5ZM148.5 620.5V759.5H187.5V620.5H148.5Z" fill="#807680"/>
<path fill-rule="evenodd" clip-rule="evenodd" d="M197.5 609.5H258.5V850.5H197.5V609.5ZM198.5 610.5V849.5H257.5V610.5H198.5Z" fill="#807680"/>
<path fill-rule="evenodd" clip-rule="evenodd" d="M228 802.5C218.335 802.5 210.5 810.335 210.5 820C210.5 829.665 218.335 837.5 228 837.5C237.665 837.5 245.5 829.665 245.5 820C245.5 810.335 237.665 802.5 228 802.5ZM209.5 820C209.5 809.783 217.783 801.5 228 801.5C238.217 801.5 246.5 809.783 246.5 820C246.5 830.217 238.217 838.5 228 838.5C217.783 838.5 209.5 830.217 209.5 820Z" fill="#807680"/>
<path fill-rule="evenodd" clip-rule="evenodd" d="M207.5 619.5H248.5V760.5H207.5V619.5ZM208.5 620.5V759.5H247.5V620.5H208.5Z" fill="#807680"/>
<path fill-rule="evenodd" clip-rule="evenodd" d="M257.5 609.5H318.5V850.5H257.5V609.5ZM258.5 610.5V849.5H317.5V610.5H258.5Z" fill="#807680"/>
<path fill-rule="evenodd" clip-rule="evenodd" d="M288 802.5C278.335 802.5 270.5 810.335 270.5 820C270.5 829.665 278.335 837.5 288 837.5C297.665 837.5 305.5 829.665 305.5 820C305.5 810.335 297.665 802.5 288 802.5ZM269.5 820C269.5 809.783 277.783 801.5 288 801.5C298.217 801.5 306.5 809.783 306.5 820C306.5 830.217 298.217 838.5 288 838.5C277.783 838.5 269.5 830.217 269.5 820Z" fill="#807680"/>
<path fill-rule="evenodd" clip-rule="evenodd" d="M267.5 619.5H308.5V760.5H267.5V619.5ZM268.5 620.5V759.5H307.5V620.5H268.5Z" fill="#807680"/>
<path fill-rule="evenodd" clip-rule="evenodd" d="M317.5 609.5H378.5V850.5H317.5V609.5ZM318.5 610.5V849.5H377.5V610.5H318.5Z" fill="#807680"/>
<path fill-rule="evenodd" clip-rule="evenodd" d="M348 802.5C338.335 802.5 330.5 810.335 330.5 820C330.5 829.665 338.335 837.5 348 837.5C357.665 837.5 365.5 829.665 365.5 820C365.5 810.335 357.665 802.5 348 802.5ZM329.5 820C329.5 809.783 337.783 801.5 348 801.5C358.217 801.5 366.5 809.783 366.5 820C366.5 830.217 358.217 838.5 348 838.5C337.783 838.5 329.5 830.217 329.5 820Z" fill="#807680"/>
<path fill-rule="evenodd" clip-rule="evenodd" d="M327.5 619.5H368.5V760.5H327.5V619.5ZM328.5 620.5V759.5H367.5V620.5H328.5Z" fill="#807680"/>
<path fill-rule="evenodd" clip-rule="evenodd" d="M377.5 609.5H438.5V850.5H377.5V609.5ZM378.5 610.5V849.5H437.5V610.5H378.5Z" fill="#807680"/>
<path fill-rule="evenodd" clip-rule="evenodd" d="M408 802.5C398.335 802.5 390.5 810.335 390.5 820C390.5 829.665 398.335 837.5 408 837.5C417.665 837.5 425.5 829.665 425.5 820C425.5 810.335 417.665 802.5 408 802.5ZM389.5 820C389.5 809.783 397.783 801.5 408 801.5C418.217 801.5 426.5 809.783 426.5 820C426.5 830.217 418.217 838.5 408 838.5C397.783 838.5 389.5 830.217 389.5 820Z" fill="#807680"/>
<path fill-rule="evenodd" clip-rule="evenodd" d="M387.5 619.5H428.5V760.5H387.5V619.5ZM388.5 620.5V759.5H427.5V620.5H388.5Z" fill="#807680"/>
<path fill-rule="evenodd" clip-rule="evenodd" d="M437.5 609.5H498.5V850.5H437.5V609.5ZM438.5 610.5V849.5H497.5V610.5H438.5Z" fill="#807680"/>
<path fill-rule="evenodd" clip-rule="evenodd" d="M468 802.5C458.335 802.5 450.5 810.335 450.5 820C450.5 829.665 458.335 837.5 468 837.5C477.665 837.5 485.5 829.665 485.5 820C485.5 810.335 477.665 802.5 468 802.5ZM449.5 820C449.5 809.783 457.783 801.5 468 801.5C478.217 801.5 486.5 809.783 486.5 820C486.5 830.217 478.217 838.5 468 838.5C457.783 838.5 449.5 830.217 449.5 820Z" fill="#807680"/>
<path fill-rule="evenodd" clip-rule="evenodd" d="M447.5 619.5H488.5V760.5H447.5V619.5ZM448.5 620.5V759.5H487.5V620.5H448.5Z" fill="#807680"/>
<path fill-rule="evenodd" clip-rule="evenodd" d="M497.5 609.5H558.5V850.5H497.5V609.5ZM498.5 610.5V849.5H557.5V610.5H498.5Z" fill="#807680"/>
<path fill-rule="evenodd" clip-rule="evenodd" d="M528 802.5C518.335 802.5 510.5 810.335 510.5 820C510.5 829.665 518.335 837.5 528 837.5C537.665 837.5 545.5 829.665 545.5 820C545.5 810.335 537.665 802.5 528 802.5ZM509.5 820C509.5 809.783 517.783 801.5 528 801.5C538.217 801.5 546.5 809.783 546.5 820C546.5 830.217 538.217 838.5 528 838.5C517.783 838.5 509.5 830.217 509.5 820Z" fill="#807680"/>
<path fill-rule="evenodd" clip-rule="evenodd" d="M507.5 619.5H548.5V760.5H507.5V619.5ZM508.5 620.5V759.5H547.5V620.5H508.5Z" fill="#807680"/>
<path fill-rule="evenodd" clip-rule="evenodd" d="M557.5 609.5H618.5V850.5H557.5V609.5ZM558.5 610.5V849.5H617.5V610.5H558.5Z" fill="#807680"/>
<path fill-rule="evenodd" clip-rule="evenodd" d="M588 802.5C578.335 802.5 570.5 810.335 570.5 820C570.5 829.665 578.335 837.5 588 837.5C597.665 837.5 605.5 829.665 605.5 820C605.5 810.335 597.665 802.5 588 802.5ZM569.5 820C569.5 809.783 577.783 801.5 588 801.5C598.217 801.5 606.5 809.783 606.5 820C606.5 830.217 598.217 838.5 588 838.5C577.783 838.5 569.5 830.217 569.5 820Z" fill="#807680"/>
<path fill-rule="evenodd" clip-rule="evenodd" d="M567.5 619.5H608.5V760.5H567.5V619.5ZM568.5 620.5V759.5H607.5V620.5H568.5Z" fill="#807680"/>
<path fill-rule="evenodd" clip-rule="evenodd" d="M617.5 609.5H678.5V850.5H617.5V609.5ZM618.5 610.5V849.5H677.5V610.5H618.5Z" fill="#807680"/>
<path fill-rule="evenodd" clip-rule="evenodd" d="M648 802.5C638.335 802.5 630.5 810.335 630.5 820C630.5 829.665 638.335 837.5 648 837.5C657.665 837.5 665.5 829.665 665.5 820C665.5 810.335 657.665 802.5 648 802.5ZM629.5 820C629.5 809.783 637.783 801.5 648 801.5C658.217 801.5 666.5 809.783 666.5 820C666.5 830.217 658.217 838.5 648 838.5C637.783 838.5 629.5 830.217 629.5 820Z" fill="#807680"/>
<path fill-rule="evenodd" clip-rule="evenodd" d="M627.5 619.5H668.5V760.5H627.5V619.5ZM628.5 620.5V759.5H667.5V620.5H628.5Z" fill="#807680"/>
<path fill-rule="evenodd" clip-rule="evenodd" d="M677.5 609.5H738.5V850.5H677.5V609.5ZM678.5 610.5V849.5H737.5V610.5H678.5Z" fill="#807680"/>
<path fill-rule="evenodd" clip-rule="evenodd" d="M708 802.5C698.335 802.5 690.5 810.335 690.5 820C690.5 829.665 698.335 837.5 708 837.5C717.665 837.5 725.5 829.665 725.5 820C725.5 810.335 717.665 802.5 708 802.5ZM689.5 820C689.5 809.783 697.783 801.5 708 801.5C718.217 801.5 726.5 809.783 726.5 820C726.5 830.217 718.217 838.5 708 838.5C697.783 838.5 689.5 830.217 689.5 820Z" fill="#807680"/>
<path fill-rule="evenodd" clip-rule="evenodd" d="M687.5 619.5H728.5V760.5H687.5V619.5ZM688.5 620.5V759.5H727.5V620.5H688.5Z" fill="#807680"/>
<path fill-rule="evenodd" clip-rule="evenodd" d="M737.5 609.5H798.5V850.5H737.5V609.5ZM738.5 610.5V849.5H797.5V610.5H738.5Z" fill="#807680"/>
<path fill-rule="evenodd" clip-rule="evenodd" d="M768 802.5C758.335 802.5 750.5 810.335 750.5 820C750.5 829.665 758.335 837.5 768 837.5C777.665 837.5 785.5 829.665 785.5 820C785.5 810.335 777.665 802.5 768 802.5ZM749.5 820C749.5 809.783 757.783 801.5 768 801.5C778.217 801.5 786.5 809.783 786.5 820C786.5 830.217 778.217 838.5 768 838.5C757.783 838.5 749.5 830.217 749.5 820Z" fill="#807680"/>
<path fill-rule="evenodd" clip-rule="evenodd" d="M747.5 619.5H788.5V760.5H747.5V619.5ZM748.5 620.5V759.5H787.5V620.5H748.5Z" fill="#807680"/>
<path fill-rule="evenodd" clip-rule="evenodd" d="M797.5 609.5H858.5V850.5H797.5V609.5ZM798.5 610.5V849.5H857.5V610.5H798.5Z" fill="#807680"/>
<path fill-rule="evenodd" clip-rule="evenodd" d="M828 802.5C818.335 802.5 810.5 810.335 810.5 820C810.5 829.665 818.335 837.5 828 837.5C837.665 837.5 845.5 829.665 845.5 820C845.5 810.335 837.665 802.5 828 802.5ZM809.5 820C809.5 809.783 817.783 801.5 828 801.5C838.217 801.5 846.5 809.783 846.5 820C846.5 830.217 838.217 838.5 828 838.5C817.783 838.5 809.5 830.217 809.5 820Z" fill="#807680"/>
<path fill-rule="evenodd" clip-rule="evenodd" d="M807.5 619.5H848.5V760.5H807.5V619.5ZM808.5 620.5V759.5H847.5V620.5H808.5Z" fill="#807680"/>
<path fill-rule="evenodd" clip-rule="evenodd" d="M857.5 609.5H918.5V850.5H857.5V609.5ZM858.5 610.5V849.5H917.5V610.5H858.5Z" fill="#807680"/>
<path fill-rule="evenodd" clip-rule="evenodd" d="M888 802.5C878.335 802.5 870.5 810.335 870.5 820C870.5 829.665 878.335 837.5 888 837.5C897.665 837.5 905.5 829.665 905.5 820C905.5 810.335 897.665 802.5 888 802.5ZM869.5 820C869.5 809.783 877.783 801.5 888 801.5C898.217 801.5 906.5 809.783 906.5 820C906.5 830.217 898.217 838.5 888 838.5C877.783 838.5 869.5 830.217 869.5 820Z" fill="#807680"/>
<path fill-rule="evenodd" clip-rule="evenodd" d="M867.5 619.5H908.5V760.5H867.5V619.5ZM868.5 620.5V759.5H907.5V620.5H868.5Z" fill="#807680"/>
<path fill-rule="evenodd" clip-rule="evenodd" d="M917.5 609.5H978.5V850.5H917.5V609.5ZM918.5 610.5V849.5H977.5V610.5H918.5Z" fill="#807680"/>
<path fill-rule="evenodd" clip-rule="evenodd" d="M948 802.5C938.335 802.5 930.5 810.335 930.5 820C930.5 829.665 938.335 837.5 948 837.5C957.665 837.5 965.5 829.665 965.5 820C965.5 810.335 957.665 802.5 948 802.5ZM929.5 820C929.5 809.783 937.783 801.5 948 801.5C958.217 801.5 966.5 809.783 966.5 820C966.5 830.217 958.217 838.5 948 838.5C937.783 838.5 929.5 830.217 929.5 820Z" fill="#807680"/>
<path fill-rule="evenodd" clip-rule="evenodd" d="M927.5 619.5H968.5V760.5H927.5V619.5ZM928.5 620.5V759.5H967.5V620.5H928.5Z" fill="#807680"/>
<path fill-rule="evenodd" clip-rule="evenodd" d="M977.5 609.5H1038.5V850.5H977.5V609.5ZM978.5 610.5V849.5H1037.5V610.5H978.5Z" fill="#807680"/>
<path fill-rule="evenodd" clip-rule="evenodd" d="M1008 802.5C998.335 802.5 990.5 810.335 990.5 820C990.5 829.665 998.335 837.5 1008 837.5C1017.66 837.5 1025.5 829.665 1025.5 820C1025.5 810.335 1017.66 802.5 1008 802.5ZM989.5 820C989.5 809.783 997.783 801.5 1008 801.5C1018.22 801.5 1026.5 809.783 1026.5 820C1026.5 830.217 1018.22 838.5 1008 838.5C997.783 838.5 989.5 830.217 989.5 820Z" fill="#807680"/>
<path fill-rule="evenodd" clip-rule="evenodd" d="M987.5 619.5H1028.5V760.5H987.5V619.5ZM988.5 620.5V759.5H1027.5V620.5H988.5Z" fill="#807680"/>
<path fill-rule="evenodd" clip-rule="evenodd" d="M1037.5 609.5H1098.5V850.5H1037.5V609.5ZM1038.5 610.5V849.5H1097.5V610.5H1038.5Z" fill="#807680"/>
<path fill-rule="evenodd" clip-rule="evenodd" d="M1068 802.5C1058.34 802.5 1050.5 810.335 1050.5 820C1050.5 829.665 1058.34 837.5 1068 837.5C1077.66 837.5 1085.5 829.665 1085.5 820C1085.5 810.335 1077.66 802.5 1068 802.5ZM1049.5 820C1049.5 809.783 1057.78 801.5 1068 801.5C1078.22 801.5 1086.5 809.783 1086.5 820C1086.5 830.217 1078.22 838.5 1068 838.5C1057.78 838.5 1049.5 830.217 1049.5 820Z" fill="#807680"/>
<path fill-rule="evenodd" clip-rule="evenodd" d="M1047.5 619.5H1088.5V760.5H1047.5V619.5ZM1048.5 620.5V759.5H1087.5V620.5H1048.5Z" fill="#807680"/>
<path fill-rule="evenodd" clip-rule="evenodd" d="M1097.5 609.5H1158.5V850.5H1097.5V609.5ZM1098.5 610.5V849.5H1157.5V610.5H1098.5Z" fill="#807680"/>
<path fill-rule="evenodd" clip-rule="evenodd" d="M1128 802.5C1118.34 802.5 1110.5 810.335 1110.5 820C1110.5 829.665 1118.34 837.5 1128 837.5C1137.66 837.5 1145.5 829.665 1145.5 820C1145.5 810.335 1137.66 802.5 1128 802.5ZM1109.5 820C1109.5 809.783 1117.78 801.5 1128 801.5C1138.22 801.5 1146.5 809.783 1146.5 820C1146.5 830.217 1138.22 838.5 1128 838.5C1117.78 838.5 1109.5 830.217 1109.5 820Z" fill="#807680"/>
<path fill-rule="evenodd" clip-rule="evenodd" d="M1107.5 619.5H1148.5V760.5H1107.5V619.5ZM1108.5 620.5V759.5H1147.5V620.5H1108.5Z" fill="#807680"/>
<path fill-rule="evenodd" clip-rule="evenodd" d="M1157.5 609.5H1218.5V850.5H1157.5V609.5ZM1158.5 610.5V849.5H1217.5V610.5H1158.5Z" fill="#807680"/>
<path fill-rule="evenodd" clip-rule="evenodd" d="M1188 802.5C1178.34 802.5 1170.5 810.335 1170.5 820C1170.5 829.665 1178.34 837.5 1188 837.5C1197.66 837.5 1205.5 829.665 1205.5 820C1205.5 810.335 1197.66 802.5 1188 802.5ZM1169.5 820C1169.5 809.783 1177.78 801.5 1188 801.5C1198.22 801.5 1206.5 809.783 1206.5 820C1206.5 830.217 1198.22 838.5 1188 838.5C1177.78 838.5 1169.5 830.217 1169.5 820Z" fill="#807680"/>
<path fill-rule="evenodd" clip-rule="evenodd" d="M1167.5 619.5H1208.5V760.5H1167.5V619.5ZM1168.5 620.5V759.5H1207.5V620.5H1168.5Z" fill="#807680"/>
<path fill-rule="evenodd" clip-rule="evenodd" d="M1217.5 609.5H1278.5V850.5H1217.5V609.5ZM1218.5 610.5V849.5H1277.5V610.5H1218.5Z" fill="#807680"/>
<path fill-rule="evenodd" clip-rule="evenodd" d="M1248 802.5C1238.34 802.5 1230.5 810.335 1230.5 820C1230.5 829.665 1238.34 837.5 1248 837.5C1257.66 837.5 1265.5 829.665 1265.5 820C1265.5 810.335 1257.66 802.5 1248 802.5ZM1229.5 820C1229.5 809.783 1237.78 801.5 1248 801.5C1258.22 801.5 1266.5 809.783 1266.5 820C1266.5 830.217 1258.22 838.5 1248 838.5C1237.78 838.5 1229.5 830.217 1229.5 820Z" fill="#807680"/>
<path fill-rule="evenodd" clip-rule="evenodd" d="M1227.5 619.5H1268.5V760.5H1227.5V619.5ZM1228.5 620.5V759.5H1267.5V620.5H1228.5Z" fill="#807680"/>
<path fill-rule="evenodd" clip-rule="evenodd" d="M1277.5 609.5H1338.5V850.5H1277.5V609.5ZM1278.5 610.5V849.5H1337.5V610.5H1278.5Z" fill="#807680"/>
<path fill-rule="evenodd" clip-rule="evenodd" d="M1308 802.5C1298.34 802.5 1290.5 810.335 1290.5 820C1290.5 829.665 1298.34 837.5 1308 837.5C1317.66 837.5 1325.5 829.665 1325.5 820C1325.5 810.335 1317.66 802.5 1308 802.5ZM1289.5 820C1289.5 809.783 1297.78 801.5 1308 801.5C1318.22 801.5 1326.5 809.783 1326.5 820C1326.5 830.217 1318.22 838.5 1308 838.5C1297.78 838.5 1289.5 830.217 1289.5 820Z" fill="#807680"/>
<path fill-rule="evenodd" clip-rule="evenodd" d="M1287.5 619.5H1328.5V760.5H1287.5V619.5ZM1288.5 620.5V759.5H1327.5V620.5H1288.5Z" fill="#807680"/>
<path fill-rule="evenodd" clip-rule="evenodd" d="M1337.5 609.5H1398.5V850.5H1337.5V609.5ZM1338.5 610.5V849.5H1397.5V610.5H1338.5Z" fill="#807680"/>
<path fill-rule="evenodd" clip-rule="evenodd" d="M1368 802.5C1358.34 802.5 1350.5 810.335 1350.5 820C1350.5 829.665 1358.34 837.5 1368 837.5C1377.66 837.5 1385.5 829.665 1385.5 820C1385.5 810.335 1377.66 802.5 1368 802.5ZM1349.5 820C1349.5 809.783 1357.78 801.5 1368 801.5C1378.22 801.5 1386.5 809.783 1386.5 820C1386.5 830.217 1378.22 838.5 1368 838.5C1357.78 838.5 1349.5 830.217 1349.5 820Z" fill="#807680"/>
<path fill-rule="evenodd" clip-rule="evenodd" d="M1347.5 619.5H1388.5V760.5H1347.5V619.5ZM1348.5 620.5V759.5H1387.5V620.5H1348.5Z" fill="#807680"/>
<path fill-rule="evenodd" clip-rule="evenodd" d="M1397.5 609.5H1458.5V850.5H1397.5V609.5ZM1398.5 610.5V849.5H1457.5V610.5H1398.5Z" fill="#807680"/>
<path fill-rule="evenodd" clip-rule="evenodd" d="M1428 802.5C1418.34 802.5 1410.5 810.335 1410.5 820C1410.5 829.665 1418.34 837.5 1428 837.5C1437.66 837.5 1445.5 829.665 1445.5 820C1445.5 810.335 1437.66 802.5 1428 802.5ZM1409.5 820C1409.5 809.783 1417.78 801.5 1428 801.5C1438.22 801.5 1446.5 809.783 1446.5 820C1446.5 830.217 1438.22 838.5 1428 838.5C1417.78 838.5 1409.5 830.217 1409.5 820Z" fill="#807680"/>
<path fill-rule="evenodd" clip-rule="evenodd" d="M1407.5 619.5H1448.5V760.5H1407.5V619.5ZM1408.5 620.5V759.5H1447.5V620.5H1408.5Z" fill="#807680"/>
<path fill-rule="evenodd" clip-rule="evenodd" d="M1457.5 609.5H1518.5V850.5H1457.5V609.5ZM1458.5 610.5V849.5H1517.5V610.5H1458.5Z" fill="#807680"/>
<path fill-rule="evenodd" clip-rule="evenodd" d="M1488 802.5C1478.34 802.5 1470.5 810.335 1470.5 820C1470.5 829.665 1478.34 837.5 1488 837.5C1497.66 837.5 1505.5 829.665 1505.5 820C1505.5 810.335 1497.66 802.5 1488 802.5ZM1469.5 820C1469.5 809.783 1477.78 801.5 1488 801.5C1498.22 801.5 1506.5 809.783 1506.5 820C1506.5 830.217 1498.22 838.5 1488 838.5C1477.78 838.5 1469.5 830.217 1469.5 820Z" fill="#807680"/>
<path fill-rule="evenodd" clip-rule="evenodd" d="M1467.5 619.5H1508.5V760.5H1467.5V619.5ZM1468.5 620.5V759.5H1507.5V620.5H1468.5Z" fill="#807680"/>
<path fill-rule="evenodd" clip-rule="evenodd" d="M1517.5 609.5H1578.5V850.5H1517.5V609.5ZM1518.5 610.5V849.5H1577.5V610.5H1518.5Z" fill="#807680"/>
<path fill-rule="evenodd" clip-rule="evenodd" d="M1548 802.5C1538.34 802.5 1530.5 810.335 1530.5 820C1530.5 829.665 1538.34 837.5 1548 837.5C1557.66 837.5 1565.5 829.665 1565.5 820C1565.5 810.335 1557.66 802.5 1548 802.5ZM1529.5 820C1529.5 809.783 1537.78 801.5 1548 801.5C1558.22 801.5 1566.5 809.783 1566.5 820C1566.5 830.217 1558.22 838.5 1548 838.5C1537.78 838.5 1529.5 830.217 1529.5 820Z" fill="#807680"/>
<path fill-rule="evenodd" clip-rule="evenodd" d="M1527.5 619.5H1568.5V760.5H1527.5V619.5ZM1528.5 620.5V759.5H1567.5V620.5H1528.5Z" fill="#807680"/>
<path fill-rule="evenodd" clip-rule="evenodd" d="M1577.5 609.5H1638.5V850.5H1577.5V609.5ZM1578.5 610.5V849.5H1637.5V610.5H1578.5Z" fill="#807680"/>
<path fill-rule="evenodd" clip-rule="evenodd" d="M1608 802.5C1598.34 802.5 1590.5 810.335 1590.5 820C1590.5 829.665 1598.34 837.5 1608 837.5C1617.66 837.5 1625.5 829.665 1625.5 820C1625.5 810.335 1617.66 802.5 1608 802.5ZM1589.5 820C1589.5 809.783 1597.78 801.5 1608 801.5C1618.22 801.5 1626.5 809.783 1626.5 820C1626.5 830.217 1618.22 838.5 1608 838.5C1597.78 838.5 1589.5 830.217 1589.5 820Z" fill="#807680"/>
<path fill-rule="evenodd" clip-rule="evenodd" d="M1587.5 619.5H1628.5V760.5H1587.5V619.5ZM1588.5 620.5V759.5H1627.5V620.5H1588.5Z" fill="#807680"/>
<path fill-rule="evenodd" clip-rule="evenodd" d="M-150.5 849.5H1805.5V870.5H-150.5V849.5ZM-149.5 850.5V869.5H1804.5V850.5H-149.5Z" fill="#807680"/>
<path d="M40 829.668H42.31L44.29 823.794H52.606L54.586 829.668H56.896L49.966 810H46.93L40 829.668ZM45.214 821.055L48.25 811.98H48.646L51.682 821.055C51.847 821.517 51.616 821.814 51.154 821.814H45.742C45.28 821.814 45.049 821.517 45.214 821.055Z" fill="#807680"/>
<path d="M109.854 810H102V829.668H104.079V821.847H108.633L114.045 829.668H116.355L110.976 821.781C114.144 821.319 116.157 818.976 116.157 815.907C116.157 812.475 113.682 810 109.854 810ZM104.079 819.933V812.541C104.079 812.112 104.31 811.881 104.739 811.881H109.59C112.23 811.881 114.045 813.267 114.045 815.907C114.045 818.547 112.23 819.933 109.59 819.933H104.079Z" fill="#807680"/>
<path d="M168.887 830.592C172.55 830.592 175.718 828.414 175.982 823.464L174.035 822.936C173.903 826.896 171.725 828.612 168.887 828.612C165.29 828.612 163.079 825.972 163.079 822.408V818.184C163.079 814.62 165.29 811.98 168.887 811.98C171.725 811.98 173.903 813.696 174.035 817.656L175.982 817.128C175.718 812.178 172.55 810 168.887 810C164.135 810 161 813.432 161 818.118V822.474C161 827.16 164.135 830.592 168.887 830.592Z" fill="#807680"/>
<path d="M221 810V829.668H223.079V821.319C223.079 820.89 223.31 820.659 223.739 820.659H232.253C232.682 820.659 232.913 820.89 232.913 821.319V829.668H234.992V810H232.913V818.085C232.913 818.514 232.682 818.745 232.253 818.745H223.739C223.31 818.745 223.079 818.514 223.079 818.085V810H221Z" fill="#807680"/>
<path d="M294.728 810H281V811.98L285.818 811.815C286.445 811.782 286.841 812.178 286.841 812.805V826.863C286.841 827.49 286.445 827.886 285.818 827.853L281 827.688V829.668H294.728V827.688L289.943 827.853C289.316 827.886 288.92 827.49 288.92 826.863V812.805C288.92 812.178 289.316 811.782 289.943 811.815L294.728 811.98V810Z" fill="#807680"/>
<path d="M340 811L346.6 830.668H349.9L356.5 811H354.322L348.448 829.15H348.052L342.178 811H340Z" fill="#807680"/>
<path d="M402 810V829.668H414.936V827.688L404.739 827.886C404.31 827.886 404.079 827.655 404.079 827.226V820.527H413.352V818.613H404.079V812.442C404.079 812.013 404.31 811.782 404.739 811.782L414.936 811.98V810H402Z" fill="#807680"/>
</g>
<defs>
<clipPath id="clip0">
<rect width="1600" height="900" fill="white"/>
</clipPath>
</defs>
</svg>
