<svg width="1600" height="900" viewBox="0 0 1600 900" fill="none" xmlns="http://www.w3.org/2000/svg">
<g clip-path="url(#clip0)">
<rect width="1600" height="900" fill="#F25700"/>
<path d="M92.32 419L71.04 361.56H63.2L41.92 419H49.92L55.2 403.88H79.12L84.48 419H92.32ZM67.12 370.04L76.88 397.64H57.44L67.12 370.04ZM132.314 420.12C140.474 420.12 147.514 415.72 149.914 407.24L143.754 405.16C142.154 411.08 137.834 413.88 132.234 413.88C124.714 413.88 119.354 407.56 119.354 399.24C119.354 391 124.714 384.6 132.234 384.6C137.834 384.6 141.834 387.4 143.434 393.32L149.594 391.24C147.194 382.76 140.314 378.36 132.154 378.36C120.954 378.36 112.314 387.4 112.314 399.24C112.314 411.08 120.794 420.12 132.314 420.12ZM160.458 371.64C163.178 371.64 165.338 369.48 165.338 366.76C165.338 364.04 163.178 361.88 160.458 361.88C157.738 361.88 155.578 364.04 155.578 366.76C155.578 369.48 157.738 371.64 160.458 371.64ZM163.818 419V379.48H156.938V419H163.818ZM191.734 378.68C187.254 378.68 183.654 380.6 181.734 384.92V379.48H174.854V419H181.734V395.96C181.734 389.88 184.934 385.72 190.694 385.72C192.374 385.72 193.654 386.12 194.534 386.52L196.294 379.56C195.414 379.08 193.654 378.68 191.734 378.68ZM217.457 420.12C225.618 420.12 232.658 415.72 235.057 407.24L228.898 405.16C227.298 411.08 222.978 413.88 217.378 413.88C209.858 413.88 204.497 407.56 204.497 399.24C204.497 391 209.858 384.6 217.378 384.6C222.978 384.6 226.978 387.4 228.578 393.32L234.738 391.24C232.338 382.76 225.458 378.36 217.298 378.36C206.098 378.36 197.458 387.4 197.458 399.24C197.458 411.08 205.938 420.12 217.457 420.12ZM249.122 419V361.56H242.242V419H249.122ZM294.554 399C294.554 387.16 287.914 378.36 275.914 378.36C264.714 378.36 256.954 387.48 256.954 399.32C256.954 411.32 265.034 420.12 276.554 420.12C283.594 420.12 291.034 416.36 293.914 408.84L287.834 406.52C286.074 411.08 282.314 413.88 276.554 413.88C269.674 413.88 264.074 409 263.914 401.32H294.394C294.474 400.68 294.554 399.32 294.554 399ZM263.914 395.8C264.394 388.92 269.354 384.44 275.914 384.44C282.634 384.44 287.434 388.92 287.754 395.8H263.914ZM322.855 371.64C325.575 371.64 327.735 369.48 327.735 366.76C327.735 364.04 325.575 361.88 322.855 361.88C320.135 361.88 317.975 364.04 317.975 366.76C317.975 369.48 320.135 371.64 322.855 371.64ZM326.215 419V379.48H319.335V419H326.215ZM349.731 420.12C357.971 420.12 363.971 415.56 363.971 408.04C363.971 401 359.091 397.56 353.491 396.52L347.571 395.4C344.211 394.76 342.051 393.56 342.051 390.2C342.051 386.84 345.011 384.28 349.171 384.28C353.651 384.28 356.691 386.36 357.811 391.16L363.731 389.24C362.051 382.28 356.851 378.36 349.251 378.36C341.891 378.36 335.331 383.48 335.331 390.44C335.331 396.84 340.291 400.44 345.731 401.48L351.651 402.6C355.011 403.24 357.251 404.92 357.251 408.28C357.251 412.12 353.971 414.2 349.971 414.2C345.171 414.2 341.731 411.8 340.291 406.84L334.211 408.76C335.811 415.48 341.571 420.12 349.731 420.12ZM410.532 393.88L397.812 396.68C391.412 398.12 387.012 402.12 387.012 408.36C387.012 415.48 392.292 419.96 399.412 419.96C404.692 419.96 408.372 417.56 410.772 413.56C410.772 415.64 411.092 418.28 411.252 419H418.212V418.52C417.892 417.24 417.412 413.72 417.412 410.52V393.08C417.412 383.64 410.932 378.36 401.812 378.36C393.172 378.36 386.852 384.36 386.052 391.24L392.292 392.84C392.932 387.4 396.852 384.36 401.972 384.36C407.172 384.36 410.532 387.48 410.532 392.12V393.88ZM400.292 414.2C396.932 414.2 393.652 412.36 393.652 408.28C393.652 404.28 397.092 402.68 400.532 401.88L410.772 399.48V403.4C410.772 408.92 406.692 414.2 400.292 414.2ZM457.164 420.12C466.284 420.12 472.764 415.24 472.764 407.16C472.764 399.24 466.924 395.8 461.004 394.76L455.644 393.8C453.404 393.4 452.044 392.44 452.044 390.52C452.044 388.28 454.124 386.6 457.084 386.6C460.844 386.6 462.684 388.84 463.324 391.96L472.444 389.8C470.844 382.6 465.404 378.36 457.004 378.36C448.604 378.36 441.884 383.96 441.884 391.24C441.884 398.44 447.324 401.96 453.004 403L458.364 403.96C460.844 404.44 462.444 405.48 462.444 407.8C462.444 410.04 460.524 411.64 457.324 411.64C453.244 411.64 451.004 409.32 450.204 405.72L440.844 407.88C442.124 414.76 448.044 420.12 457.164 420.12ZM500.653 378.36C496.333 378.36 492.493 379.96 489.853 383V361.56H478.973V419H489.853V397.08C489.853 391.4 492.813 388.04 497.293 388.04C502.013 388.04 504.253 391.4 504.253 397V419H515.133V393.4C515.133 384.6 509.373 378.36 500.653 378.36ZM543.538 393.88L532.418 396.28C525.938 397.72 521.378 401.8 521.378 408.28C521.378 415.56 526.738 419.96 533.538 419.96C538.018 419.96 541.698 418.28 543.938 414.6C543.938 416.44 544.258 418.6 544.418 419H555.058V418.28C554.738 416.84 554.258 413.56 554.258 410.12V393.32C554.258 384.2 547.858 378.36 537.618 378.36C528.018 378.36 521.698 384.44 520.418 391.48L530.178 393.56C530.898 389.16 533.858 387.16 537.458 387.16C541.298 387.16 543.538 389.48 543.538 392.6V393.88ZM536.338 411.56C533.778 411.56 531.778 410.04 531.778 407.48C531.778 404.84 534.018 403.48 536.178 402.92L543.698 401.08V403.8C543.698 407.96 541.058 411.56 536.338 411.56ZM572.944 415.4C575.184 417.8 578.944 420.12 584.544 420.12C595.264 420.12 603.024 410.84 603.024 399.08C603.024 387.24 595.104 378.36 584.384 378.36C579.104 378.36 574.864 380.76 572.384 383.96V379.48H562.224V434.52H572.944V415.4ZM582.544 388.04C588.384 388.04 592.144 392.6 592.144 399.24C592.144 405.8 588.384 410.36 582.544 410.36C576.784 410.36 572.624 405.8 572.624 399.24C572.624 392.6 576.784 388.04 582.544 388.04ZM645.437 399.16C645.437 387 638.477 378.36 626.237 378.36C613.757 378.36 606.557 388.52 606.557 399.24C606.557 410.28 613.757 420.12 626.877 420.12C635.677 420.12 642.877 415.24 644.797 408.2L635.037 405.4C633.837 409 630.717 410.76 626.717 410.76C621.197 410.76 617.757 407.16 617.357 402.2H645.277C645.357 401.32 645.437 400.04 645.437 399.16ZM617.357 395C617.757 390.28 621.357 387.16 626.237 387.16C631.117 387.16 634.397 390.28 634.717 395H617.357ZM686.457 420.12C694.618 420.12 701.658 415.72 704.057 407.24L697.898 405.16C696.298 411.08 691.978 413.88 686.378 413.88C678.858 413.88 673.497 407.56 673.497 399.24C673.497 391 678.858 384.6 686.378 384.6C691.978 384.6 695.978 387.4 697.578 393.32L703.738 391.24C701.338 382.76 694.458 378.36 686.298 378.36C675.098 378.36 666.458 387.4 666.458 399.24C666.458 411.08 674.938 420.12 686.457 420.12ZM728.042 420.12C739.482 420.12 748.042 411.08 748.042 399.24C748.042 387.4 739.482 378.36 728.042 378.36C716.682 378.36 708.042 387.4 708.042 399.24C708.042 411.08 716.682 420.12 728.042 420.12ZM728.042 413.88C720.042 413.88 715.082 407.4 715.082 399.24C715.082 391.08 720.042 384.6 728.042 384.6C736.042 384.6 741.002 391.08 741.002 399.24C741.002 407.4 736.042 413.88 728.042 413.88ZM774.433 378.36C769.473 378.36 765.153 380.44 762.593 384.92V379.48H755.873V419H762.753V395.48C762.753 389.56 766.673 384.52 772.593 384.52C779.313 384.52 782.113 389.4 782.113 395V419H788.993V393.8C788.993 384.2 783.393 378.36 774.433 378.36ZM811.734 420.12C819.974 420.12 825.974 415.56 825.974 408.04C825.974 401 821.094 397.56 815.494 396.52L809.574 395.4C806.214 394.76 804.054 393.56 804.054 390.2C804.054 386.84 807.014 384.28 811.174 384.28C815.654 384.28 818.694 386.36 819.814 391.16L825.734 389.24C824.054 382.28 818.854 378.36 811.254 378.36C803.894 378.36 797.334 383.48 797.334 390.44C797.334 396.84 802.294 400.44 807.734 401.48L813.654 402.6C817.014 403.24 819.254 404.92 819.254 408.28C819.254 412.12 815.974 414.2 811.974 414.2C807.174 414.2 803.734 411.8 802.294 406.84L796.214 408.76C797.814 415.48 803.574 420.12 811.734 420.12ZM837.48 371.64C840.2 371.64 842.36 369.48 842.36 366.76C842.36 364.04 840.2 361.88 837.48 361.88C834.76 361.88 832.6 364.04 832.6 366.76C832.6 369.48 834.76 371.64 837.48 371.64ZM840.84 419V379.48H833.96V419H840.84ZM864.356 420.12C872.596 420.12 878.596 415.56 878.596 408.04C878.596 401 873.716 397.56 868.116 396.52L862.196 395.4C858.836 394.76 856.676 393.56 856.676 390.2C856.676 386.84 859.636 384.28 863.796 384.28C868.276 384.28 871.316 386.36 872.436 391.16L878.356 389.24C876.676 382.28 871.476 378.36 863.876 378.36C856.516 378.36 849.956 383.48 849.956 390.44C849.956 396.84 854.916 400.44 860.356 401.48L866.276 402.6C869.636 403.24 871.876 404.92 871.876 408.28C871.876 412.12 868.596 414.2 864.596 414.2C859.796 414.2 856.356 411.8 854.916 406.84L848.836 408.76C850.436 415.48 856.196 420.12 864.356 420.12ZM903.884 379.48H895.404V367.32L888.524 368.92V379.48H881.004V385.24H888.524V407.48C888.524 416.44 894.204 419.64 899.804 419.64C902.204 419.64 904.204 419.16 905.804 418.12L903.884 412.44C902.764 413.08 901.724 413.4 900.524 413.4C897.644 413.4 895.404 411.64 895.404 407.24V385.24H903.884V379.48ZM916.061 371.64C918.781 371.64 920.941 369.48 920.941 366.76C920.941 364.04 918.781 361.88 916.061 361.88C913.341 361.88 911.181 364.04 911.181 366.76C911.181 369.48 913.341 371.64 916.061 371.64ZM919.421 419V379.48H912.541V419H919.421ZM949.017 378.36C944.057 378.36 939.737 380.44 937.177 384.92V379.48H930.457V419H937.337V395.48C937.337 389.56 941.257 384.52 947.177 384.52C953.897 384.52 956.697 389.4 956.697 395V419H963.577V393.8C963.577 384.2 957.977 378.36 949.017 378.36ZM1002.48 385.08C1000.08 381.08 994.959 378.52 989.359 378.52C979.119 378.52 970.639 386.6 970.639 397.96C970.639 409.32 979.199 417.4 989.519 417.4C994.959 417.4 999.919 415.16 1002.64 410.84V417.32C1002.64 426.84 996.559 429.56 990.239 429.56C984.959 429.56 979.999 427.16 977.919 421.16L971.919 423.64C974.319 430.44 980.799 435.64 990.159 435.64C1000.56 435.64 1009.36 430.2 1009.36 417.32V379.48H1002.48V385.08ZM990.159 411.16C983.279 411.16 977.599 406.12 977.599 397.96C977.599 389.8 983.279 384.76 990.159 384.76C996.959 384.76 1002.64 389.8 1002.64 397.96C1002.64 406.12 996.959 411.16 990.159 411.16ZM1054.2 420.12C1065.64 420.12 1074.2 411.08 1074.2 399.24C1074.2 387.4 1065.64 378.36 1054.2 378.36C1042.84 378.36 1034.2 387.4 1034.2 399.24C1034.2 411.08 1042.84 420.12 1054.2 420.12ZM1054.2 413.88C1046.2 413.88 1041.24 407.4 1041.24 399.24C1041.24 391.08 1046.2 384.6 1054.2 384.6C1062.2 384.6 1067.16 391.08 1067.16 399.24C1067.16 407.4 1062.2 413.88 1054.2 413.88ZM1091.32 379.48V372.76C1091.32 368.6 1093.88 366.52 1097.08 366.52C1098.52 366.52 1099.8 367.08 1100.76 367.72L1102.68 362.2C1101.4 361.24 1099.16 360.44 1096.6 360.44C1090.92 360.44 1084.44 364.12 1084.44 372.76V379.48H1077.24V385.24H1084.44V419H1091.32V385.24H1100.76V379.48H1091.32ZM1146.09 393.88L1133.37 396.68C1126.97 398.12 1122.57 402.12 1122.57 408.36C1122.57 415.48 1127.85 419.96 1134.97 419.96C1140.25 419.96 1143.93 417.56 1146.33 413.56C1146.33 415.64 1146.65 418.28 1146.81 419H1153.77V418.52C1153.45 417.24 1152.97 413.72 1152.97 410.52V393.08C1152.97 383.64 1146.49 378.36 1137.37 378.36C1128.73 378.36 1122.41 384.36 1121.61 391.24L1127.85 392.84C1128.49 387.4 1132.41 384.36 1137.53 384.36C1142.73 384.36 1146.09 387.48 1146.09 392.12V393.88ZM1135.85 414.2C1132.49 414.2 1129.21 412.36 1129.21 408.28C1129.21 404.28 1132.65 402.68 1136.09 401.88L1146.33 399.48V403.4C1146.33 408.92 1142.25 414.2 1135.85 414.2ZM1170.07 419V361.56H1163.19V419H1170.07ZM1187.98 419V361.56H1181.1V419H1187.98ZM56.4 499.4C58.64 501.8 62.4 504.12 68 504.12C78.72 504.12 86.48 494.84 86.48 483.08C86.48 471.24 78.56 462.36 67.84 462.36C62.56 462.36 58.32 464.76 55.84 467.96V463.48H45.68V518.52H56.4V499.4ZM66 472.04C71.84 472.04 75.6 476.6 75.6 483.24C75.6 489.8 71.84 494.36 66 494.36C60.24 494.36 56.08 489.8 56.08 483.24C56.08 476.6 60.24 472.04 66 472.04ZM110.733 504.12C122.333 504.12 131.453 495.16 131.453 483.24C131.453 471.24 122.333 462.36 110.733 462.36C99.1331 462.36 90.0131 471.24 90.0131 483.24C90.0131 495.16 99.1331 504.12 110.733 504.12ZM110.733 494.36C104.893 494.36 100.893 489.8 100.893 483.24C100.893 476.6 104.893 472.04 110.733 472.04C116.573 472.04 120.573 476.6 120.573 483.24C120.573 489.8 116.573 494.36 110.733 494.36ZM142.799 458.28C146.319 458.28 149.199 455.48 149.199 451.8C149.199 448.28 146.319 445.4 142.799 445.4C139.199 445.4 136.319 448.28 136.319 451.8C136.319 455.48 139.199 458.28 142.799 458.28ZM148.159 503V463.48H137.359V503H148.159ZM178.516 462.36C174.196 462.36 169.876 463.8 167.316 467.8V463.48H156.836V503H167.716V480.28C167.716 475.72 170.596 472.04 175.076 472.04C179.956 472.04 182.116 475.64 182.116 479.96V503H192.996V477.4C192.996 468.6 187.236 462.36 178.516 462.36ZM221.895 463.48H213.895V450.36L203.175 452.92V463.48H196.215V472.84H203.175V489.96C203.175 499.32 209.095 503.8 216.295 503.8C219.255 503.8 222.055 503.16 224.135 501.88L221.255 493.24C220.375 493.72 219.575 494.04 218.215 494.04C215.735 494.04 213.895 492.68 213.895 488.84V472.84H221.895V463.48ZM242.671 504.12C251.791 504.12 258.271 499.24 258.271 491.16C258.271 483.24 252.431 479.8 246.511 478.76L241.151 477.8C238.911 477.4 237.551 476.44 237.551 474.52C237.551 472.28 239.631 470.6 242.591 470.6C246.351 470.6 248.191 472.84 248.831 475.96L257.951 473.8C256.351 466.6 250.911 462.36 242.511 462.36C234.111 462.36 227.391 467.96 227.391 475.24C227.391 482.44 232.831 485.96 238.511 487L243.871 487.96C246.351 488.44 247.951 489.48 247.951 491.8C247.951 494.04 246.031 495.64 242.831 495.64C238.751 495.64 236.511 493.32 235.711 489.72L226.351 491.88C227.631 498.76 233.551 504.12 242.671 504.12ZM286.014 455.64C288.734 455.64 290.894 453.48 290.894 450.76C290.894 448.04 288.734 445.88 286.014 445.88C283.294 445.88 281.134 448.04 281.134 450.76C281.134 453.48 283.294 455.64 286.014 455.64ZM289.374 503V463.48H282.494V503H289.374ZM318.971 462.36C314.011 462.36 309.691 464.44 307.131 468.92V463.48H300.411V503H307.291V479.48C307.291 473.56 311.211 468.52 317.131 468.52C323.851 468.52 326.651 473.4 326.651 479V503H333.531V477.8C333.531 468.2 327.931 462.36 318.971 462.36ZM382.207 477.88L369.487 480.68C363.087 482.12 358.687 486.12 358.687 492.36C358.687 499.48 363.967 503.96 371.087 503.96C376.367 503.96 380.047 501.56 382.447 497.56C382.447 499.64 382.767 502.28 382.927 503H389.887V502.52C389.567 501.24 389.087 497.72 389.087 494.52V477.08C389.087 467.64 382.607 462.36 373.487 462.36C364.847 462.36 358.527 468.36 357.727 475.24L363.967 476.84C364.607 471.4 368.527 468.36 373.647 468.36C378.847 468.36 382.207 471.48 382.207 476.12V477.88ZM371.967 498.2C368.607 498.2 365.327 496.36 365.327 492.28C365.327 488.28 368.767 486.68 372.207 485.88L382.447 483.48V487.4C382.447 492.92 378.367 498.2 371.967 498.2ZM425.959 499.4C428.199 501.8 431.959 504.12 437.559 504.12C448.279 504.12 456.039 494.84 456.039 483.08C456.039 471.24 448.119 462.36 437.399 462.36C432.119 462.36 427.879 464.76 425.399 467.96V463.48H415.239V518.52H425.959V499.4ZM435.559 472.04C441.399 472.04 445.159 476.6 445.159 483.24C445.159 489.8 441.399 494.36 435.559 494.36C429.799 494.36 425.639 489.8 425.639 483.24C425.639 476.6 429.799 472.04 435.559 472.04ZM473.012 503V445.56H462.292V503H473.012ZM502.244 477.88L491.124 480.28C484.644 481.72 480.084 485.8 480.084 492.28C480.084 499.56 485.444 503.96 492.244 503.96C496.724 503.96 500.404 502.28 502.644 498.6C502.644 500.44 502.964 502.6 503.124 503H513.764V502.28C513.444 500.84 512.964 497.56 512.964 494.12V477.32C512.964 468.2 506.564 462.36 496.324 462.36C486.724 462.36 480.404 468.44 479.124 475.48L488.884 477.56C489.604 473.16 492.564 471.16 496.164 471.16C500.004 471.16 502.244 473.48 502.244 476.6V477.88ZM495.044 495.56C492.484 495.56 490.484 494.04 490.484 491.48C490.484 488.84 492.724 487.48 494.884 486.92L502.404 485.08V487.8C502.404 491.96 499.764 495.56 495.044 495.56ZM542.45 462.36C538.13 462.36 533.81 463.8 531.25 467.8V463.48H520.77V503H531.65V480.28C531.65 475.72 534.53 472.04 539.01 472.04C543.89 472.04 546.05 475.64 546.05 479.96V503H556.93V477.4C556.93 468.6 551.17 462.36 542.45 462.36ZM601.174 483.16C601.174 471 594.214 462.36 581.974 462.36C569.494 462.36 562.294 472.52 562.294 483.24C562.294 494.28 569.494 504.12 582.614 504.12C591.414 504.12 598.614 499.24 600.534 492.2L590.774 489.4C589.574 493 586.454 494.76 582.454 494.76C576.934 494.76 573.494 491.16 573.094 486.2H601.014C601.094 485.32 601.174 484.04 601.174 483.16ZM573.094 479C573.494 474.28 577.094 471.16 581.974 471.16C586.854 471.16 590.134 474.28 590.454 479H573.094ZM643.475 463.48H634.995V451.32L628.115 452.92V463.48H620.595V469.24H628.115V491.48C628.115 500.44 633.795 503.64 639.395 503.64C641.795 503.64 643.795 503.16 645.395 502.12L643.475 496.44C642.355 497.08 641.315 497.4 640.115 497.4C637.235 497.4 634.995 495.64 634.995 491.24V469.24H643.475V463.48ZM670.227 462.36C665.267 462.36 661.107 464.52 658.547 468.52V445.56H651.667V503H658.547V479.24C658.547 473.32 662.467 468.52 668.387 468.52C675.107 468.52 677.907 473.16 677.907 478.76V503H684.787V477.8C684.787 468.2 679.187 462.36 670.227 462.36ZM716.488 477.88L703.768 480.68C697.368 482.12 692.968 486.12 692.968 492.36C692.968 499.48 698.248 503.96 705.368 503.96C710.648 503.96 714.328 501.56 716.728 497.56C716.728 499.64 717.048 502.28 717.208 503H724.168V502.52C723.848 501.24 723.368 497.72 723.368 494.52V477.08C723.368 467.64 716.888 462.36 707.768 462.36C699.128 462.36 692.808 468.36 692.008 475.24L698.248 476.84C698.888 471.4 702.808 468.36 707.928 468.36C713.128 468.36 716.488 471.48 716.488 476.12V477.88ZM706.248 498.2C702.888 498.2 699.608 496.36 699.608 492.28C699.608 488.28 703.048 486.68 706.488 485.88L716.728 483.48V487.4C716.728 492.92 712.648 498.2 706.248 498.2ZM751.041 463.48H742.561V451.32L735.681 452.92V463.48H728.161V469.24H735.681V491.48C735.681 500.44 741.361 503.64 746.961 503.64C749.361 503.64 751.361 503.16 752.961 502.12L751.041 496.44C749.921 497.08 748.881 497.4 747.681 497.4C744.801 497.4 742.561 495.64 742.561 491.24V469.24H751.041V463.48ZM797.647 477.88L784.927 480.68C778.527 482.12 774.127 486.12 774.127 492.36C774.127 499.48 779.407 503.96 786.527 503.96C791.807 503.96 795.487 501.56 797.887 497.56C797.887 499.64 798.207 502.28 798.367 503H805.327V502.52C805.007 501.24 804.527 497.72 804.527 494.52V477.08C804.527 467.64 798.047 462.36 788.927 462.36C780.287 462.36 773.967 468.36 773.167 475.24L779.407 476.84C780.047 471.4 783.967 468.36 789.087 468.36C794.287 468.36 797.647 471.48 797.647 476.12V477.88ZM787.407 498.2C784.047 498.2 780.767 496.36 780.767 492.28C780.767 488.28 784.207 486.68 787.647 485.88L797.887 483.48V487.4C797.887 492.92 793.807 498.2 787.407 498.2ZM831.625 462.68C827.145 462.68 823.545 464.6 821.625 468.92V463.48H814.745V503H821.625V479.96C821.625 473.88 824.825 469.72 830.585 469.72C832.265 469.72 833.545 470.12 834.425 470.52L836.185 463.56C835.305 463.08 833.545 462.68 831.625 462.68ZM874.948 483C874.948 471.16 868.308 462.36 856.308 462.36C845.108 462.36 837.348 471.48 837.348 483.32C837.348 495.32 845.428 504.12 856.948 504.12C863.988 504.12 871.428 500.36 874.308 492.84L868.228 490.52C866.468 495.08 862.708 497.88 856.948 497.88C850.068 497.88 844.468 493 844.308 485.32H874.788C874.868 484.68 874.948 483.32 874.948 483ZM844.308 479.8C844.788 472.92 849.748 468.44 856.308 468.44C863.028 468.44 867.828 472.92 868.148 479.8H844.308ZM921.329 477.88L908.609 480.68C902.209 482.12 897.809 486.12 897.809 492.36C897.809 499.48 903.089 503.96 910.209 503.96C915.489 503.96 919.169 501.56 921.569 497.56C921.569 499.64 921.889 502.28 922.049 503H929.009V502.52C928.689 501.24 928.209 497.72 928.209 494.52V477.08C928.209 467.64 921.729 462.36 912.609 462.36C903.969 462.36 897.649 468.36 896.849 475.24L903.089 476.84C903.729 471.4 907.649 468.36 912.769 468.36C917.969 468.36 921.329 471.48 921.329 476.12V477.88ZM911.089 498.2C907.729 498.2 904.449 496.36 904.449 492.28C904.449 488.28 907.889 486.68 911.329 485.88L921.569 483.48V487.4C921.569 492.92 917.489 498.2 911.089 498.2ZM955.881 463.48H947.401V451.32L940.521 452.92V463.48H933.001V469.24H940.521V491.48C940.521 500.44 946.201 503.64 951.801 503.64C954.201 503.64 956.201 503.16 957.801 502.12L955.881 496.44C954.761 497.08 953.721 497.4 952.521 497.4C949.641 497.4 947.401 495.64 947.401 491.24V469.24H955.881V463.48ZM1002.49 477.88L989.768 480.68C983.368 482.12 978.968 486.12 978.968 492.36C978.968 499.48 984.248 503.96 991.368 503.96C996.648 503.96 1000.33 501.56 1002.73 497.56C1002.73 499.64 1003.05 502.28 1003.21 503H1010.17V502.52C1009.85 501.24 1009.37 497.72 1009.37 494.52V477.08C1009.37 467.64 1002.89 462.36 993.768 462.36C985.128 462.36 978.808 468.36 978.008 475.24L984.248 476.84C984.888 471.4 988.808 468.36 993.928 468.36C999.128 468.36 1002.49 471.48 1002.49 476.12V477.88ZM992.248 498.2C988.888 498.2 985.608 496.36 985.608 492.28C985.608 488.28 989.048 486.68 992.488 485.88L1002.73 483.48V487.4C1002.73 492.92 998.648 498.2 992.248 498.2ZM1065.2 469.08C1062.8 465.08 1057.68 462.52 1052.08 462.52C1041.84 462.52 1033.36 470.6 1033.36 481.96C1033.36 493.32 1041.92 501.4 1052.24 501.4C1057.68 501.4 1062.64 499.16 1065.36 494.84V501.32C1065.36 510.84 1059.28 513.56 1052.96 513.56C1047.68 513.56 1042.72 511.16 1040.64 505.16L1034.64 507.64C1037.04 514.44 1043.52 519.64 1052.88 519.64C1063.28 519.64 1072.08 514.2 1072.08 501.32V463.48H1065.2V469.08ZM1052.88 495.16C1046 495.16 1040.32 490.12 1040.32 481.96C1040.32 473.8 1046 468.76 1052.88 468.76C1059.68 468.76 1065.36 473.8 1065.36 481.96C1065.36 490.12 1059.68 495.16 1052.88 495.16ZM1086.51 455.64C1089.23 455.64 1091.39 453.48 1091.39 450.76C1091.39 448.04 1089.23 445.88 1086.51 445.88C1083.79 445.88 1081.63 448.04 1081.63 450.76C1081.63 453.48 1083.79 455.64 1086.51 455.64ZM1089.87 503V463.48H1082.99V503H1089.87ZM1118.34 503L1134.34 463.48H1126.98L1115.14 494.12L1103.3 463.48H1095.78L1111.78 503H1118.34ZM1173.76 483C1173.76 471.16 1167.12 462.36 1155.12 462.36C1143.92 462.36 1136.16 471.48 1136.16 483.32C1136.16 495.32 1144.24 504.12 1155.76 504.12C1162.8 504.12 1170.24 500.36 1173.12 492.84L1167.04 490.52C1165.28 495.08 1161.52 497.88 1155.76 497.88C1148.88 497.88 1143.28 493 1143.12 485.32H1173.6C1173.68 484.68 1173.76 483.32 1173.76 483ZM1143.12 479.8C1143.6 472.92 1148.56 468.44 1155.12 468.44C1161.84 468.44 1166.64 472.92 1166.96 479.8H1143.12ZM1200.29 462.36C1195.33 462.36 1191.01 464.44 1188.45 468.92V463.48H1181.73V503H1188.61V479.48C1188.61 473.56 1192.53 468.52 1198.45 468.52C1205.17 468.52 1207.97 473.4 1207.97 479V503H1214.85V477.8C1214.85 468.2 1209.25 462.36 1200.29 462.36ZM75.68 552.76C73.12 548.76 68.32 546.36 62.72 546.36C52.16 546.36 43.52 555.48 43.52 567.32C43.52 579.16 52 588.12 62.72 588.12C68.24 588.12 73.12 585.72 75.84 581.4C75.84 583.48 76.16 586.28 76.32 587H83.36V586.52C83.04 585.24 82.56 581.72 82.56 578.52V529.56H75.68V552.76ZM63.36 581.88C55.52 581.88 50.56 575.4 50.56 567.24C50.56 559.08 55.68 552.6 63.52 552.6C71.36 552.6 75.84 559.08 75.84 567.24C75.84 575.4 71.2 581.88 63.36 581.88ZM96.9769 539.64C99.6969 539.64 101.857 537.48 101.857 534.76C101.857 532.04 99.6969 529.88 96.9769 529.88C94.2569 529.88 92.0969 532.04 92.0969 534.76C92.0969 537.48 94.2569 539.64 96.9769 539.64ZM100.337 587V547.48H93.4569V587H100.337ZM123.853 588.12C132.093 588.12 138.093 583.56 138.093 576.04C138.093 569 133.213 565.56 127.613 564.52L121.693 563.4C118.333 562.76 116.173 561.56 116.173 558.2C116.173 554.84 119.133 552.28 123.293 552.28C127.773 552.28 130.813 554.36 131.933 559.16L137.853 557.24C136.173 550.28 130.973 546.36 123.373 546.36C116.013 546.36 109.453 551.48 109.453 558.44C109.453 564.84 114.413 568.44 119.853 569.48L125.773 570.6C129.133 571.24 131.373 572.92 131.373 576.28C131.373 580.12 128.093 582.2 124.093 582.2C119.293 582.2 115.853 579.8 114.413 574.84L108.333 576.76C109.933 583.48 115.693 588.12 123.853 588.12ZM163.381 547.48H154.901V535.32L148.021 536.92V547.48H140.501V553.24H148.021V575.48C148.021 584.44 153.701 587.64 159.301 587.64C161.701 587.64 163.701 587.16 165.301 586.12L163.381 580.44C162.261 581.08 161.221 581.4 160.021 581.4C157.141 581.4 154.901 579.64 154.901 575.24V553.24H163.381V547.48ZM193.013 561.88L180.293 564.68C173.893 566.12 169.493 570.12 169.493 576.36C169.493 583.48 174.773 587.96 181.893 587.96C187.173 587.96 190.853 585.56 193.253 581.56C193.253 583.64 193.573 586.28 193.733 587H200.693V586.52C200.373 585.24 199.893 581.72 199.893 578.52V561.08C199.893 551.64 193.413 546.36 184.293 546.36C175.653 546.36 169.333 552.36 168.533 559.24L174.773 560.84C175.413 555.4 179.333 552.36 184.453 552.36C189.653 552.36 193.013 555.48 193.013 560.12V561.88ZM182.773 582.2C179.413 582.2 176.133 580.36 176.133 576.28C176.133 572.28 179.573 570.68 183.013 569.88L193.253 567.48V571.4C193.253 576.92 189.173 582.2 182.773 582.2ZM228.671 546.36C223.711 546.36 219.391 548.44 216.831 552.92V547.48H210.111V587H216.991V563.48C216.991 557.56 220.911 552.52 226.831 552.52C233.551 552.52 236.351 557.4 236.351 563V587H243.231V561.8C243.231 552.2 237.631 546.36 228.671 546.36ZM270.292 588.12C278.452 588.12 285.492 583.72 287.892 575.24L281.732 573.16C280.132 579.08 275.812 581.88 270.212 581.88C262.692 581.88 257.332 575.56 257.332 567.24C257.332 559 262.692 552.6 270.212 552.6C275.812 552.6 279.812 555.4 281.412 561.32L287.572 559.24C285.172 550.76 278.292 546.36 270.132 546.36C258.932 546.36 250.292 555.4 250.292 567.24C250.292 579.08 258.772 588.12 270.292 588.12ZM329.476 567C329.476 555.16 322.836 546.36 310.836 546.36C299.636 546.36 291.876 555.48 291.876 567.32C291.876 579.32 299.956 588.12 311.476 588.12C318.516 588.12 325.956 584.36 328.836 576.84L322.756 574.52C320.996 579.08 317.236 581.88 311.476 581.88C304.596 581.88 298.996 577 298.836 569.32H329.316C329.396 568.68 329.476 567.32 329.476 567ZM298.836 563.8C299.316 556.92 304.276 552.44 310.836 552.44C317.556 552.44 322.356 556.92 322.676 563.8H298.836ZM364.337 547.48V540.76C364.337 536.6 366.897 534.52 370.097 534.52C371.537 534.52 372.817 535.08 373.777 535.72L375.697 530.2C374.417 529.24 372.177 528.44 369.617 528.44C363.937 528.44 357.457 532.12 357.457 540.76V547.48H350.257V553.24H357.457V587H364.337V553.24H373.777V547.48H364.337ZM397.569 546.68C393.089 546.68 389.489 548.6 387.569 552.92V547.48H380.689V587H387.569V563.96C387.569 557.88 390.769 553.72 396.529 553.72C398.209 553.72 399.489 554.12 400.369 554.52L402.129 547.56C401.249 547.08 399.489 546.68 397.569 546.68ZM423.292 588.12C434.732 588.12 443.292 579.08 443.292 567.24C443.292 555.4 434.732 546.36 423.292 546.36C411.932 546.36 403.292 555.4 403.292 567.24C403.292 579.08 411.932 588.12 423.292 588.12ZM423.292 581.88C415.292 581.88 410.332 575.4 410.332 567.24C410.332 559.08 415.292 552.6 423.292 552.6C431.292 552.6 436.252 559.08 436.252 567.24C436.252 575.4 431.292 581.88 423.292 581.88ZM492.643 546.36C487.923 546.36 483.043 548.84 480.563 553.48C478.483 549.08 474.723 546.36 468.963 546.36C464.323 546.36 460.403 548.52 457.843 552.52V547.48H451.123V587H458.083V562.92C458.083 556.76 461.763 552.52 467.043 552.52C473.123 552.52 475.443 556.92 475.443 562.6V587H482.243V562.92C482.243 556.76 485.923 552.52 491.203 552.52C497.283 552.52 499.603 556.92 499.603 562.6V587H506.483V561.96C506.483 552.52 501.443 546.36 492.643 546.36ZM555.107 561.88L542.387 564.68C535.987 566.12 531.587 570.12 531.587 576.36C531.587 583.48 536.867 587.96 543.987 587.96C549.267 587.96 552.947 585.56 555.347 581.56C555.347 583.64 555.667 586.28 555.827 587H562.787V586.52C562.467 585.24 561.987 581.72 561.987 578.52V561.08C561.987 551.64 555.507 546.36 546.387 546.36C537.747 546.36 531.427 552.36 530.627 559.24L536.867 560.84C537.507 555.4 541.427 552.36 546.547 552.36C551.747 552.36 555.107 555.48 555.107 560.12V561.88ZM544.867 582.2C541.507 582.2 538.227 580.36 538.227 576.28C538.227 572.28 541.667 570.68 545.107 569.88L555.347 567.48V571.4C555.347 576.92 551.267 582.2 544.867 582.2ZM617.819 553.08C615.419 549.08 610.299 546.52 604.699 546.52C594.459 546.52 585.979 554.6 585.979 565.96C585.979 577.32 594.539 585.4 604.859 585.4C610.299 585.4 615.259 583.16 617.979 578.84V585.32C617.979 594.84 611.899 597.56 605.579 597.56C600.299 597.56 595.339 595.16 593.259 589.16L587.259 591.64C589.659 598.44 596.139 603.64 605.499 603.64C615.899 603.64 624.699 598.2 624.699 585.32V547.48H617.819V553.08ZM605.499 579.16C598.619 579.16 592.939 574.12 592.939 565.96C592.939 557.8 598.619 552.76 605.499 552.76C612.299 552.76 617.979 557.8 617.979 565.96C617.979 574.12 612.299 579.16 605.499 579.16ZM639.124 539.64C641.844 539.64 644.004 537.48 644.004 534.76C644.004 532.04 641.844 529.88 639.124 529.88C636.404 529.88 634.244 532.04 634.244 534.76C634.244 537.48 636.404 539.64 639.124 539.64ZM642.484 587V547.48H635.604V587H642.484ZM670.96 587L686.96 547.48H679.6L667.76 578.12L655.92 547.48H648.4L664.4 587H670.96ZM726.379 567C726.379 555.16 719.739 546.36 707.739 546.36C696.539 546.36 688.779 555.48 688.779 567.32C688.779 579.32 696.859 588.12 708.379 588.12C715.419 588.12 722.859 584.36 725.739 576.84L719.659 574.52C717.899 579.08 714.139 581.88 708.379 581.88C701.499 581.88 695.899 577 695.739 569.32H726.219C726.299 568.68 726.379 567.32 726.379 567ZM695.739 563.8C696.219 556.92 701.179 552.44 707.739 552.44C714.459 552.44 719.259 556.92 719.579 563.8H695.739ZM752.905 546.36C747.945 546.36 743.625 548.44 741.065 552.92V547.48H734.345V587H741.225V563.48C741.225 557.56 745.145 552.52 751.065 552.52C757.785 552.52 760.585 557.4 760.585 563V587H767.465V561.8C767.465 552.2 761.865 546.36 752.905 546.36ZM801.581 581.72C804.781 585.72 809.261 588.12 815.021 588.12C825.581 588.12 833.741 579 833.741 567.16C833.741 555.32 825.581 546.36 814.861 546.36C809.101 546.36 804.461 548.92 801.421 553.08V547.48H794.701V602.52H801.581V581.72ZM814.301 552.6C822.141 552.6 826.701 559.08 826.701 567.24C826.701 575.4 822.141 581.88 814.301 581.88C806.461 581.88 801.421 575.4 801.421 567.24C801.421 559.08 806.461 552.6 814.301 552.6ZM858.398 588.12C869.838 588.12 878.398 579.08 878.398 567.24C878.398 555.4 869.838 546.36 858.398 546.36C847.038 546.36 838.398 555.4 838.398 567.24C838.398 579.08 847.038 588.12 858.398 588.12ZM858.398 581.88C850.398 581.88 845.438 575.4 845.438 567.24C845.438 559.08 850.398 552.6 858.398 552.6C866.398 552.6 871.358 559.08 871.358 567.24C871.358 575.4 866.398 581.88 858.398 581.88ZM889.589 539.64C892.309 539.64 894.469 537.48 894.469 534.76C894.469 532.04 892.309 529.88 889.589 529.88C886.869 529.88 884.709 532.04 884.709 534.76C884.709 537.48 886.869 539.64 889.589 539.64ZM892.949 587V547.48H886.069V587H892.949ZM922.546 546.36C917.586 546.36 913.266 548.44 910.706 552.92V547.48H903.986V587H910.866V563.48C910.866 557.56 914.786 552.52 920.706 552.52C927.426 552.52 930.226 557.4 930.226 563V587H937.106V561.8C937.106 552.2 931.506 546.36 922.546 546.36ZM964.822 547.48H956.342V535.32L949.462 536.92V547.48H941.942V553.24H949.462V575.48C949.462 584.44 955.142 587.64 960.742 587.64C963.142 587.64 965.142 587.16 966.742 586.12L964.822 580.44C963.702 581.08 962.662 581.4 961.462 581.4C958.582 581.4 956.342 579.64 956.342 575.24V553.24H964.822V547.48ZM969.174 597.8L972.934 599.96L979.174 589.4C980.854 586.52 981.654 584.92 981.654 582.2C981.654 579.4 979.334 577.08 976.534 577.08C973.734 577.08 971.414 579.4 971.414 582.2C971.414 585 973.254 586.68 975.654 587L969.174 597.8ZM1026.14 547.48H1017.66V535.32L1010.78 536.92V547.48H1003.26V553.24H1010.78V575.48C1010.78 584.44 1016.46 587.64 1022.06 587.64C1024.46 587.64 1026.46 587.16 1028.06 586.12L1026.14 580.44C1025.02 581.08 1023.98 581.4 1022.78 581.4C1019.9 581.4 1017.66 579.64 1017.66 575.24V553.24H1026.14V547.48ZM1052.89 546.36C1047.93 546.36 1043.77 548.52 1041.21 552.52V529.56H1034.33V587H1041.21V563.24C1041.21 557.32 1045.13 552.52 1051.05 552.52C1057.77 552.52 1060.57 557.16 1060.57 562.76V587H1067.45V561.8C1067.45 552.2 1061.85 546.36 1052.89 546.36ZM1112.11 567C1112.11 555.16 1105.47 546.36 1093.47 546.36C1082.27 546.36 1074.51 555.48 1074.51 567.32C1074.51 579.32 1082.59 588.12 1094.11 588.12C1101.15 588.12 1108.59 584.36 1111.47 576.84L1105.39 574.52C1103.63 579.08 1099.87 581.88 1094.11 581.88C1087.23 581.88 1081.63 577 1081.47 569.32H1111.95C1112.03 568.68 1112.11 567.32 1112.11 567ZM1081.47 563.8C1081.95 556.92 1086.91 552.44 1093.47 552.44C1100.19 552.44 1104.99 556.92 1105.31 563.8H1081.47ZM1153.77 588.12C1162.25 588.12 1169.77 583.56 1172.33 574.6L1162.49 571.88C1161.37 576.04 1158.41 578.36 1153.93 578.36C1148.57 578.36 1144.09 573.88 1144.09 567.24C1144.09 560.6 1148.57 556.04 1153.77 556.04C1158.09 556.04 1161.05 558.52 1162.17 562.6L1172.01 559.8C1169.45 550.84 1162.01 546.36 1153.45 546.36C1142.17 546.36 1133.29 555.24 1133.29 567.24C1133.29 579.16 1142.33 588.12 1153.77 588.12ZM1213.91 567.16C1213.91 555 1206.95 546.36 1194.71 546.36C1182.23 546.36 1175.03 556.52 1175.03 567.24C1175.03 578.28 1182.23 588.12 1195.35 588.12C1204.15 588.12 1211.35 583.24 1213.27 576.2L1203.51 573.4C1202.31 577 1199.19 578.76 1195.19 578.76C1189.67 578.76 1186.23 575.16 1185.83 570.2H1213.75C1213.83 569.32 1213.91 568.04 1213.91 567.16ZM1185.83 563C1186.23 558.28 1189.83 555.16 1194.71 555.16C1199.59 555.16 1202.87 558.28 1203.19 563H1185.83ZM1241.64 546.36C1237.32 546.36 1233 547.8 1230.44 551.8V547.48H1219.96V587H1230.84V564.28C1230.84 559.72 1233.72 556.04 1238.2 556.04C1243.08 556.04 1245.24 559.64 1245.24 563.96V587H1256.12V561.4C1256.12 552.6 1250.36 546.36 1241.64 546.36ZM1285.02 547.48H1277.02V534.36L1266.3 536.92V547.48H1259.34V556.84H1266.3V573.96C1266.3 583.32 1272.22 587.8 1279.42 587.8C1282.38 587.8 1285.18 587.16 1287.26 585.88L1284.38 577.24C1283.5 577.72 1282.7 578.04 1281.34 578.04C1278.86 578.04 1277.02 576.68 1277.02 572.84V556.84H1285.02V547.48ZM1311.8 546.68C1307.8 546.68 1304.36 548.2 1302.28 552.2V547.48H1291.8V587H1302.68V565.64C1302.68 560.28 1306.12 557.32 1310.44 557.32C1312.2 557.32 1313.32 557.64 1314.28 557.96L1316.6 547.64C1315.64 547.16 1313.88 546.68 1311.8 546.68ZM1355.8 567.16C1355.8 555 1348.84 546.36 1336.6 546.36C1324.12 546.36 1316.92 556.52 1316.92 567.24C1316.92 578.28 1324.12 588.12 1337.24 588.12C1346.04 588.12 1353.24 583.24 1355.16 576.2L1345.4 573.4C1344.2 577 1341.08 578.76 1337.08 578.76C1331.56 578.76 1328.12 575.16 1327.72 570.2H1355.64C1355.72 569.32 1355.8 568.04 1355.8 567.16ZM1327.72 563C1328.12 558.28 1331.72 555.16 1336.6 555.16C1341.48 555.16 1344.76 558.28 1345.08 563H1327.72ZM1367.36 560.76C1371.2 560.76 1374.4 557.56 1374.4 553.72C1374.4 549.96 1371.2 546.76 1367.36 546.76C1363.6 546.76 1360.4 549.96 1360.4 553.72C1360.4 557.56 1363.6 560.76 1367.36 560.76ZM1359.2 598.68L1364.16 601.56L1371.28 589.56C1373.44 585.88 1374.4 584.04 1374.4 580.6C1374.4 576.76 1371.2 573.56 1367.36 573.56C1363.6 573.56 1360.4 576.76 1360.4 580.6C1360.4 584.36 1363.36 586.68 1366.32 587L1359.2 598.68ZM81.12 651C81.12 639.16 74.48 630.36 62.48 630.36C51.28 630.36 43.52 639.48 43.52 651.32C43.52 663.32 51.6 672.12 63.12 672.12C70.16 672.12 77.6 668.36 80.48 660.84L74.4 658.52C72.64 663.08 68.88 665.88 63.12 665.88C56.24 665.88 50.64 661 50.48 653.32H80.96C81.04 652.68 81.12 651.32 81.12 651ZM50.48 647.8C50.96 640.92 55.92 636.44 62.48 636.44C69.2 636.44 74 640.92 74.32 647.8H50.48ZM124.926 686.52V631.48H118.206V637.08C115.486 632.76 110.606 630.36 105.086 630.36C94.3656 630.36 85.8856 639.32 85.8856 651.16C85.8856 663 94.5256 672.12 105.086 672.12C110.686 672.12 115.486 669.72 118.046 665.72V686.52H124.926ZM105.726 636.6C113.566 636.6 118.206 643.08 118.206 651.24C118.206 659.4 113.726 665.88 105.886 665.88C98.0456 665.88 92.9256 659.4 92.9256 651.24C92.9256 643.08 97.8856 636.6 105.726 636.6ZM150.055 672.12C155.015 672.12 159.255 670.04 161.815 665.56C161.815 667.64 162.135 670.28 162.295 671H169.335V670.6C169.015 669.32 168.535 665.72 168.535 662.52V631.48H161.655V655C161.655 660.92 157.815 665.96 151.895 665.96C145.175 665.96 142.375 661.08 142.375 655.48V631.48H135.495V656.68C135.495 666.28 141.095 672.12 150.055 672.12ZM182.958 623.64C185.678 623.64 187.838 621.48 187.838 618.76C187.838 616.04 185.678 613.88 182.958 613.88C180.238 613.88 178.078 616.04 178.078 618.76C178.078 621.48 180.238 623.64 182.958 623.64ZM186.318 671V631.48H179.438V671H186.318ZM214.794 671L230.794 631.48H223.434L211.594 662.12L199.754 631.48H192.234L208.234 671H214.794ZM256.941 645.88L244.221 648.68C237.821 650.12 233.421 654.12 233.421 660.36C233.421 667.48 238.701 671.96 245.821 671.96C251.101 671.96 254.781 669.56 257.181 665.56C257.181 667.64 257.501 670.28 257.661 671H264.621V670.52C264.301 669.24 263.821 665.72 263.821 662.52V645.08C263.821 635.64 257.341 630.36 248.221 630.36C239.581 630.36 233.261 636.36 232.461 643.24L238.701 644.84C239.341 639.4 243.261 636.36 248.381 636.36C253.581 636.36 256.941 639.48 256.941 644.12V645.88ZM246.701 666.2C243.341 666.2 240.061 664.36 240.061 660.28C240.061 656.28 243.501 654.68 246.941 653.88L257.181 651.48V655.4C257.181 660.92 253.101 666.2 246.701 666.2ZM280.919 671V613.56H274.039V671H280.919ZM326.351 651C326.351 639.16 319.711 630.36 307.711 630.36C296.511 630.36 288.751 639.48 288.751 651.32C288.751 663.32 296.831 672.12 308.351 672.12C315.391 672.12 322.831 668.36 325.711 660.84L319.631 658.52C317.871 663.08 314.111 665.88 308.351 665.88C301.471 665.88 295.871 661 295.711 653.32H326.191C326.271 652.68 326.351 651.32 326.351 651ZM295.711 647.8C296.191 640.92 301.151 636.44 307.711 636.44C314.431 636.44 319.231 640.92 319.551 647.8H295.711ZM352.877 630.36C347.917 630.36 343.597 632.44 341.037 636.92V631.48H334.317V671H341.197V647.48C341.197 641.56 345.117 636.52 351.037 636.52C357.757 636.52 360.557 641.4 360.557 647V671H367.437V645.8C367.437 636.2 361.837 630.36 352.877 630.36ZM395.153 631.48H386.673V619.32L379.793 620.92V631.48H372.273V637.24H379.793V659.48C379.793 668.44 385.473 671.64 391.073 671.64C393.473 671.64 395.473 671.16 397.073 670.12L395.153 664.44C394.033 665.08 392.993 665.4 391.793 665.4C388.913 665.4 386.673 663.64 386.673 659.24V637.24H395.153V631.48ZM410.225 671V613.56H403.345V671H410.225ZM422.538 686.52H430.218L454.698 631.48H447.338L435.338 658.92L423.338 631.48H415.818L431.738 666.68L422.538 686.52ZM480.599 623.64C483.319 623.64 485.479 621.48 485.479 618.76C485.479 616.04 483.319 613.88 480.599 613.88C477.879 613.88 475.719 616.04 475.719 618.76C475.719 621.48 477.879 623.64 480.599 623.64ZM483.959 671V631.48H477.079V671H483.959ZM513.075 631.48H504.595V619.32L497.715 620.92V631.48H490.195V637.24H497.715V659.48C497.715 668.44 503.395 671.64 508.995 671.64C511.395 671.64 513.395 671.16 514.995 670.12L513.075 664.44C511.955 665.08 510.915 665.4 509.715 665.4C506.835 665.4 504.595 663.64 504.595 659.24V637.24H513.075V631.48ZM541.602 623.64C544.322 623.64 546.482 621.48 546.482 618.76C546.482 616.04 544.322 613.88 541.602 613.88C538.882 613.88 536.722 616.04 536.722 618.76C536.722 621.48 538.882 623.64 541.602 623.64ZM544.962 671V631.48H538.082V671H544.962ZM568.478 672.12C576.718 672.12 582.718 667.56 582.718 660.04C582.718 653 577.838 649.56 572.238 648.52L566.318 647.4C562.958 646.76 560.798 645.56 560.798 642.2C560.798 638.84 563.758 636.28 567.918 636.28C572.398 636.28 575.438 638.36 576.558 643.16L582.478 641.24C580.798 634.28 575.598 630.36 567.998 630.36C560.638 630.36 554.078 635.48 554.078 642.44C554.078 648.84 559.038 652.44 564.478 653.48L570.398 654.6C573.758 655.24 575.998 656.92 575.998 660.28C575.998 664.12 572.718 666.2 568.718 666.2C563.918 666.2 560.478 663.8 559.038 658.84L552.958 660.76C554.558 667.48 560.318 672.12 568.478 672.12ZM625.919 631.48H617.439V619.32L610.559 620.92V631.48H603.039V637.24H610.559V659.48C610.559 668.44 616.239 671.64 621.839 671.64C624.239 671.64 626.239 671.16 627.839 670.12L625.919 664.44C624.799 665.08 623.759 665.4 622.559 665.4C619.679 665.4 617.439 663.64 617.439 659.24V637.24H625.919V631.48ZM652.671 630.36C647.711 630.36 643.551 632.52 640.991 636.52V613.56H634.111V671H640.991V647.24C640.991 641.32 644.911 636.52 650.831 636.52C657.551 636.52 660.351 641.16 660.351 646.76V671H667.231V645.8C667.231 636.2 661.631 630.36 652.671 630.36ZM711.892 651C711.892 639.16 705.252 630.36 693.252 630.36C682.052 630.36 674.292 639.48 674.292 651.32C674.292 663.32 682.372 672.12 693.892 672.12C700.932 672.12 708.372 668.36 711.252 660.84L705.172 658.52C703.412 663.08 699.652 665.88 693.892 665.88C687.012 665.88 681.412 661 681.252 653.32H711.732C711.812 652.68 711.892 651.32 711.892 651ZM681.252 647.8C681.732 640.92 686.692 636.44 693.252 636.44C699.972 636.44 704.772 640.92 705.092 647.8H681.252ZM753.552 672.12C762.032 672.12 769.552 667.56 772.112 658.6L762.272 655.88C761.152 660.04 758.192 662.36 753.712 662.36C748.352 662.36 743.872 657.88 743.872 651.24C743.872 644.6 748.352 640.04 753.552 640.04C757.872 640.04 760.832 642.52 761.952 646.6L771.792 643.8C769.232 634.84 761.792 630.36 753.232 630.36C741.952 630.36 733.072 639.24 733.072 651.24C733.072 663.16 742.112 672.12 753.552 672.12ZM790.821 672.12C795.221 672.12 799.461 670.6 802.021 666.6C802.021 668.44 802.341 670.6 802.501 671H813.221V670.28C812.901 668.92 812.421 665.56 812.421 662.12V631.48H801.621V654.12C801.621 658.76 798.741 662.44 794.261 662.44C789.381 662.44 787.221 658.76 787.221 654.52V631.48H776.421V657.08C776.421 665.88 782.101 672.12 790.821 672.12ZM841.067 630.68C837.067 630.68 833.627 632.2 831.547 636.2V631.48H821.067V671H831.947V649.64C831.947 644.28 835.387 641.32 839.707 641.32C841.467 641.32 842.587 641.64 843.547 641.96L845.867 631.64C844.907 631.16 843.147 630.68 841.067 630.68ZM873.172 671L888.852 631.48H877.252L867.812 658.12L858.292 631.48H846.532L862.452 671H873.172ZM927.978 651.16C927.978 639 921.018 630.36 908.778 630.36C896.298 630.36 889.098 640.52 889.098 651.24C889.098 662.28 896.298 672.12 909.418 672.12C918.218 672.12 925.418 667.24 927.338 660.2L917.578 657.4C916.378 661 913.258 662.76 909.258 662.76C903.738 662.76 900.298 659.16 899.898 654.2H927.818C927.898 653.32 927.978 652.04 927.978 651.16ZM899.898 647C900.298 642.28 903.898 639.16 908.778 639.16C913.658 639.16 916.938 642.28 917.258 647H899.898ZM970.278 631.48H961.798V619.32L954.918 620.92V631.48H947.398V637.24H954.918V659.48C954.918 668.44 960.598 671.64 966.198 671.64C968.598 671.64 970.598 671.16 972.198 670.12L970.278 664.44C969.158 665.08 968.118 665.4 966.918 665.4C964.038 665.4 961.798 663.64 961.798 659.24V637.24H970.278V631.48ZM995.35 630.68C990.87 630.68 987.27 632.6 985.35 636.92V631.48H978.47V671H985.35V647.96C985.35 641.88 988.55 637.72 994.31 637.72C995.99 637.72 997.27 638.12 998.15 638.52L999.91 631.56C999.03 631.08 997.27 630.68 995.35 630.68ZM1026.65 645.88L1013.93 648.68C1007.53 650.12 1003.13 654.12 1003.13 660.36C1003.13 667.48 1008.41 671.96 1015.53 671.96C1020.81 671.96 1024.49 669.56 1026.89 665.56C1026.89 667.64 1027.21 670.28 1027.37 671H1034.33V670.52C1034.01 669.24 1033.53 665.72 1033.53 662.52V645.08C1033.53 635.64 1027.05 630.36 1017.93 630.36C1009.29 630.36 1002.97 636.36 1002.17 643.24L1008.41 644.84C1009.05 639.4 1012.97 636.36 1018.09 636.36C1023.29 636.36 1026.65 639.48 1026.65 644.12V645.88ZM1016.41 666.2C1013.05 666.2 1009.77 664.36 1009.77 660.28C1009.77 656.28 1013.21 654.68 1016.65 653.88L1026.89 651.48V655.4C1026.89 660.92 1022.81 666.2 1016.41 666.2ZM1060.55 672.12C1068.71 672.12 1075.75 667.72 1078.15 659.24L1071.99 657.16C1070.39 663.08 1066.07 665.88 1060.47 665.88C1052.95 665.88 1047.59 659.56 1047.59 651.24C1047.59 643 1052.95 636.6 1060.47 636.6C1066.07 636.6 1070.07 639.4 1071.67 645.32L1077.83 643.24C1075.43 634.76 1068.55 630.36 1060.39 630.36C1049.19 630.36 1040.55 639.4 1040.55 651.24C1040.55 663.08 1049.03 672.12 1060.55 672.12ZM1119.73 651C1119.73 639.16 1113.09 630.36 1101.09 630.36C1089.89 630.36 1082.13 639.48 1082.13 651.32C1082.13 663.32 1090.21 672.12 1101.73 672.12C1108.77 672.12 1116.21 668.36 1119.09 660.84L1113.01 658.52C1111.25 663.08 1107.49 665.88 1101.73 665.88C1094.85 665.88 1089.25 661 1089.09 653.32H1119.57C1119.65 652.68 1119.73 651.32 1119.73 651ZM1089.09 647.8C1089.57 640.92 1094.53 636.44 1101.09 636.44C1107.81 636.44 1112.61 640.92 1112.93 647.8H1089.09ZM1156.66 636.76C1154.1 632.76 1149.3 630.36 1143.7 630.36C1133.14 630.36 1124.5 639.48 1124.5 651.32C1124.5 663.16 1132.98 672.12 1143.7 672.12C1149.22 672.12 1154.1 669.72 1156.82 665.4C1156.82 667.48 1157.14 670.28 1157.3 671H1164.34V670.52C1164.02 669.24 1163.54 665.72 1163.54 662.52V613.56H1156.66V636.76ZM1144.34 665.88C1136.5 665.88 1131.54 659.4 1131.54 651.24C1131.54 643.08 1136.66 636.6 1144.5 636.6C1152.34 636.6 1156.82 643.08 1156.82 651.24C1156.82 659.4 1152.18 665.88 1144.34 665.88ZM1208.37 672.12C1219.81 672.12 1228.37 663.08 1228.37 651.24C1228.37 639.4 1219.81 630.36 1208.37 630.36C1197.01 630.36 1188.37 639.4 1188.37 651.24C1188.37 663.08 1197.01 672.12 1208.37 672.12ZM1208.37 665.88C1200.37 665.88 1195.41 659.4 1195.41 651.24C1195.41 643.08 1200.37 636.6 1208.37 636.6C1216.37 636.6 1221.33 643.08 1221.33 651.24C1221.33 659.4 1216.37 665.88 1208.37 665.88ZM1249.65 672.12C1254.61 672.12 1258.85 670.04 1261.41 665.56C1261.41 667.64 1261.73 670.28 1261.89 671H1268.93V670.6C1268.61 669.32 1268.13 665.72 1268.13 662.52V631.48H1261.25V655C1261.25 660.92 1257.41 665.96 1251.49 665.96C1244.77 665.96 1241.97 661.08 1241.97 655.48V631.48H1235.09V656.68C1235.09 666.28 1240.69 672.12 1249.65 672.12ZM1297.27 631.48H1288.79V619.32L1281.91 620.92V631.48H1274.39V637.24H1281.91V659.48C1281.91 668.44 1287.59 671.64 1293.19 671.64C1295.59 671.64 1297.59 671.16 1299.19 670.12L1297.27 664.44C1296.15 665.08 1295.11 665.4 1293.91 665.4C1291.03 665.4 1288.79 663.64 1288.79 659.24V637.24H1297.27V631.48ZM1322.44 613.56V671H1329.16V665.4C1332.2 669.56 1336.84 672.12 1342.6 672.12C1353.32 672.12 1361.48 663.16 1361.48 651.32C1361.48 639.48 1353.32 630.36 1342.76 630.36C1337 630.36 1332.52 632.76 1329.32 636.76V613.56H1322.44ZM1342.04 665.88C1334.2 665.88 1329.16 659.4 1329.16 651.24C1329.16 643.08 1334.2 636.6 1342.04 636.6C1349.88 636.6 1354.44 643.08 1354.44 651.24C1354.44 659.4 1349.88 665.88 1342.04 665.88ZM1369.68 686.52H1377.36L1401.84 631.48H1394.48L1382.48 658.92L1370.48 631.48H1362.96L1378.88 666.68L1369.68 686.52ZM68.16 729.88L55.44 732.68C49.04 734.12 44.64 738.12 44.64 744.36C44.64 751.48 49.92 755.96 57.04 755.96C62.32 755.96 66 753.56 68.4 749.56C68.4 751.64 68.72 754.28 68.88 755H75.84V754.52C75.52 753.24 75.04 749.72 75.04 746.52V729.08C75.04 719.64 68.56 714.36 59.44 714.36C50.8 714.36 44.48 720.36 43.68 727.24L49.92 728.84C50.56 723.4 54.48 720.36 59.6 720.36C64.8 720.36 68.16 723.48 68.16 728.12V729.88ZM57.92 750.2C54.56 750.2 51.28 748.36 51.28 744.28C51.28 740.28 54.72 738.68 58.16 737.88L68.4 735.48V739.4C68.4 744.92 64.32 750.2 57.92 750.2ZM109.113 749.72C112.313 753.72 116.793 756.12 122.553 756.12C133.113 756.12 141.273 747 141.273 735.16C141.273 723.32 133.113 714.36 122.393 714.36C116.633 714.36 111.993 716.92 108.953 721.08V715.48H102.233V770.52H109.113V749.72ZM121.833 720.6C129.673 720.6 134.233 727.08 134.233 735.24C134.233 743.4 129.673 749.88 121.833 749.88C113.993 749.88 108.953 743.4 108.953 735.24C108.953 727.08 113.993 720.6 121.833 720.6ZM165.929 756.12C177.369 756.12 185.929 747.08 185.929 735.24C185.929 723.4 177.369 714.36 165.929 714.36C154.569 714.36 145.929 723.4 145.929 735.24C145.929 747.08 154.569 756.12 165.929 756.12ZM165.929 749.88C157.929 749.88 152.969 743.4 152.969 735.24C152.969 727.08 157.929 720.6 165.929 720.6C173.929 720.6 178.889 727.08 178.889 735.24C178.889 743.4 173.929 749.88 165.929 749.88ZM197.121 707.64C199.841 707.64 202.001 705.48 202.001 702.76C202.001 700.04 199.841 697.88 197.121 697.88C194.401 697.88 192.241 700.04 192.241 702.76C192.241 705.48 194.401 707.64 197.121 707.64ZM200.481 755V715.48H193.601V755H200.481ZM230.077 714.36C225.117 714.36 220.797 716.44 218.237 720.92V715.48H211.517V755H218.397V731.48C218.397 725.56 222.317 720.52 228.237 720.52C234.957 720.52 237.757 725.4 237.757 731V755H244.637V729.8C244.637 720.2 239.037 714.36 230.077 714.36ZM272.353 715.48H263.873V703.32L256.993 704.92V715.48H249.473V721.24H256.993V743.48C256.993 752.44 262.673 755.64 268.273 755.64C270.673 755.64 272.673 755.16 274.273 754.12L272.353 748.44C271.233 749.08 270.193 749.4 268.993 749.4C266.113 749.4 263.873 747.64 263.873 743.24V721.24H272.353V715.48ZM315.6 715.48H307.12V703.32L300.24 704.92V715.48H292.72V721.24H300.24V743.48C300.24 752.44 305.92 755.64 311.52 755.64C313.92 755.64 315.92 755.16 317.52 754.12L315.6 748.44C314.48 749.08 313.44 749.4 312.24 749.4C309.36 749.4 307.12 747.64 307.12 743.24V721.24H315.6V715.48ZM342.352 714.36C337.392 714.36 333.232 716.52 330.672 720.52V697.56H323.792V755H330.672V731.24C330.672 725.32 334.592 720.52 340.512 720.52C347.232 720.52 350.032 725.16 350.032 730.76V755H356.912V729.8C356.912 720.2 351.312 714.36 342.352 714.36ZM388.613 729.88L375.893 732.68C369.493 734.12 365.093 738.12 365.093 744.36C365.093 751.48 370.373 755.96 377.493 755.96C382.773 755.96 386.453 753.56 388.853 749.56C388.853 751.64 389.173 754.28 389.333 755H396.293V754.52C395.973 753.24 395.493 749.72 395.493 746.52V729.08C395.493 719.64 389.013 714.36 379.893 714.36C371.253 714.36 364.933 720.36 364.133 727.24L370.373 728.84C371.013 723.4 374.933 720.36 380.053 720.36C385.253 720.36 388.613 723.48 388.613 728.12V729.88ZM378.373 750.2C375.013 750.2 371.733 748.36 371.733 744.28C371.733 740.28 375.173 738.68 378.613 737.88L388.853 735.48V739.4C388.853 744.92 384.773 750.2 378.373 750.2ZM423.166 715.48H414.686V703.32L407.806 704.92V715.48H400.286V721.24H407.806V743.48C407.806 752.44 413.486 755.64 419.086 755.64C421.486 755.64 423.486 755.16 425.086 754.12L423.166 748.44C422.046 749.08 421.006 749.4 419.806 749.4C416.926 749.4 414.686 747.64 414.686 743.24V721.24H423.166V715.48ZM489.852 714.36C485.132 714.36 480.252 716.84 477.772 721.48C475.692 717.08 471.932 714.36 466.172 714.36C461.532 714.36 457.612 716.52 455.052 720.52V715.48H448.332V755H455.292V730.92C455.292 724.76 458.972 720.52 464.252 720.52C470.332 720.52 472.652 724.92 472.652 730.6V755H479.452V730.92C479.452 724.76 483.132 720.52 488.412 720.52C494.492 720.52 496.812 724.92 496.812 730.6V755H503.692V729.96C503.692 720.52 498.652 714.36 489.852 714.36ZM530.701 756.12C542.141 756.12 550.701 747.08 550.701 735.24C550.701 723.4 542.141 714.36 530.701 714.36C519.341 714.36 510.701 723.4 510.701 735.24C510.701 747.08 519.341 756.12 530.701 756.12ZM530.701 749.88C522.701 749.88 517.741 743.4 517.741 735.24C517.741 727.08 522.701 720.6 530.701 720.6C538.701 720.6 543.661 727.08 543.661 735.24C543.661 743.4 538.701 749.88 530.701 749.88ZM575.035 755L591.035 715.48H583.675L571.835 746.12L559.995 715.48H552.475L568.475 755H575.035ZM630.454 735C630.454 723.16 623.814 714.36 611.814 714.36C600.614 714.36 592.854 723.48 592.854 735.32C592.854 747.32 600.934 756.12 612.454 756.12C619.494 756.12 626.934 752.36 629.814 744.84L623.734 742.52C621.974 747.08 618.214 749.88 612.454 749.88C605.574 749.88 599.974 745 599.814 737.32H630.294C630.374 736.68 630.454 735.32 630.454 735ZM599.814 731.8C600.294 724.92 605.254 720.44 611.814 720.44C618.534 720.44 623.334 724.92 623.654 731.8H599.814ZM650.9 756.12C659.14 756.12 665.14 751.56 665.14 744.04C665.14 737 660.26 733.56 654.66 732.52L648.74 731.4C645.38 730.76 643.22 729.56 643.22 726.2C643.22 722.84 646.18 720.28 650.34 720.28C654.82 720.28 657.86 722.36 658.98 727.16L664.9 725.24C663.22 718.28 658.02 714.36 650.42 714.36C643.06 714.36 636.5 719.48 636.5 726.44C636.5 732.84 641.46 736.44 646.9 737.48L652.82 738.6C656.18 739.24 658.42 740.92 658.42 744.28C658.42 748.12 655.14 750.2 651.14 750.2C646.34 750.2 642.9 747.8 641.46 742.84L635.38 744.76C636.98 751.48 642.74 756.12 650.9 756.12ZM693.621 707.64C696.341 707.64 698.501 705.48 698.501 702.76C698.501 700.04 696.341 697.88 693.621 697.88C690.901 697.88 688.741 700.04 688.741 702.76C688.741 705.48 690.901 707.64 693.621 707.64ZM696.981 755V715.48H690.101V755H696.981ZM726.577 714.36C721.617 714.36 717.297 716.44 714.737 720.92V715.48H708.017V755H714.897V731.48C714.897 725.56 718.817 720.52 724.737 720.52C731.457 720.52 734.257 725.4 734.257 731V755H741.137V729.8C741.137 720.2 735.537 714.36 726.577 714.36ZM789.813 729.88L777.093 732.68C770.693 734.12 766.293 738.12 766.293 744.36C766.293 751.48 771.573 755.96 778.693 755.96C783.973 755.96 787.653 753.56 790.053 749.56C790.053 751.64 790.373 754.28 790.533 755H797.493V754.52C797.173 753.24 796.693 749.72 796.693 746.52V729.08C796.693 719.64 790.213 714.36 781.093 714.36C772.453 714.36 766.133 720.36 765.333 727.24L771.573 728.84C772.213 723.4 776.133 720.36 781.253 720.36C786.453 720.36 789.813 723.48 789.813 728.12V729.88ZM779.573 750.2C776.213 750.2 772.933 748.36 772.933 744.28C772.933 740.28 776.373 738.68 779.813 737.88L790.053 735.48V739.4C790.053 744.92 785.973 750.2 779.573 750.2ZM830.766 749.72C833.966 753.72 838.446 756.12 844.206 756.12C854.766 756.12 862.926 747 862.926 735.16C862.926 723.32 854.766 714.36 844.046 714.36C838.286 714.36 833.646 716.92 830.606 721.08V715.48H823.886V770.52H830.766V749.72ZM843.486 720.6C851.326 720.6 855.886 727.08 855.886 735.24C855.886 743.4 851.326 749.88 843.486 749.88C835.646 749.88 830.606 743.4 830.606 735.24C830.606 727.08 835.646 720.6 843.486 720.6ZM877.663 755V697.56H870.783V755H877.663ZM910.135 729.88L897.415 732.68C891.015 734.12 886.615 738.12 886.615 744.36C886.615 751.48 891.895 755.96 899.015 755.96C904.295 755.96 907.975 753.56 910.375 749.56C910.375 751.64 910.695 754.28 910.855 755H917.815V754.52C917.495 753.24 917.015 749.72 917.015 746.52V729.08C917.015 719.64 910.535 714.36 901.415 714.36C892.775 714.36 886.455 720.36 885.655 727.24L891.895 728.84C892.535 723.4 896.455 720.36 901.575 720.36C906.775 720.36 910.135 723.48 910.135 728.12V729.88ZM899.895 750.2C896.535 750.2 893.255 748.36 893.255 744.28C893.255 740.28 896.695 738.68 900.135 737.88L910.375 735.48V739.4C910.375 744.92 906.295 750.2 899.895 750.2ZM945.793 714.36C940.833 714.36 936.513 716.44 933.953 720.92V715.48H927.233V755H934.113V731.48C934.113 725.56 938.033 720.52 943.953 720.52C950.673 720.52 953.473 725.4 953.473 731V755H960.353V729.8C960.353 720.2 954.753 714.36 945.793 714.36ZM1005.01 735C1005.01 723.16 998.374 714.36 986.374 714.36C975.174 714.36 967.414 723.48 967.414 735.32C967.414 747.32 975.494 756.12 987.014 756.12C994.054 756.12 1001.49 752.36 1004.37 744.84L998.294 742.52C996.534 747.08 992.774 749.88 987.014 749.88C980.134 749.88 974.534 745 974.374 737.32H1004.85C1004.93 736.68 1005.01 735.32 1005.01 735ZM974.374 731.8C974.854 724.92 979.814 720.44 986.374 720.44C993.094 720.44 997.894 724.92 998.214 731.8H974.374ZM1042.43 756.12C1050.67 756.12 1056.67 751.56 1056.67 744.04C1056.67 737 1051.79 733.56 1046.19 732.52L1040.27 731.4C1036.91 730.76 1034.75 729.56 1034.75 726.2C1034.75 722.84 1037.71 720.28 1041.87 720.28C1046.35 720.28 1049.39 722.36 1050.51 727.16L1056.43 725.24C1054.75 718.28 1049.55 714.36 1041.95 714.36C1034.59 714.36 1028.03 719.48 1028.03 726.44C1028.03 732.84 1032.99 736.44 1038.43 737.48L1044.35 738.6C1047.71 739.24 1049.95 740.92 1049.95 744.28C1049.95 748.12 1046.67 750.2 1042.67 750.2C1037.87 750.2 1034.43 747.8 1032.99 742.84L1026.91 744.76C1028.51 751.48 1034.27 756.12 1042.43 756.12ZM1081.62 756.12C1093.06 756.12 1101.62 747.08 1101.62 735.24C1101.62 723.4 1093.06 714.36 1081.62 714.36C1070.26 714.36 1061.62 723.4 1061.62 735.24C1061.62 747.08 1070.26 756.12 1081.62 756.12ZM1081.62 749.88C1073.62 749.88 1068.66 743.4 1068.66 735.24C1068.66 727.08 1073.62 720.6 1081.62 720.6C1089.62 720.6 1094.58 727.08 1094.58 735.24C1094.58 743.4 1089.62 749.88 1081.62 749.88ZM1144.51 715.48H1136.03V703.32L1129.15 704.92V715.48H1121.63V721.24H1129.15V743.48C1129.15 752.44 1134.83 755.64 1140.43 755.64C1142.83 755.64 1144.83 755.16 1146.43 754.12L1144.51 748.44C1143.39 749.08 1142.35 749.4 1141.15 749.4C1138.27 749.4 1136.03 747.64 1136.03 743.24V721.24H1144.51V715.48ZM1171.26 714.36C1166.3 714.36 1162.14 716.52 1159.58 720.52V697.56H1152.7V755H1159.58V731.24C1159.58 725.32 1163.5 720.52 1169.42 720.52C1176.14 720.52 1178.94 725.16 1178.94 730.76V755H1185.82V729.8C1185.82 720.2 1180.22 714.36 1171.26 714.36ZM1217.52 729.88L1204.8 732.68C1198.4 734.12 1194 738.12 1194 744.36C1194 751.48 1199.28 755.96 1206.4 755.96C1211.68 755.96 1215.36 753.56 1217.76 749.56C1217.76 751.64 1218.08 754.28 1218.24 755H1225.2V754.52C1224.88 753.24 1224.4 749.72 1224.4 746.52V729.08C1224.4 719.64 1217.92 714.36 1208.8 714.36C1200.16 714.36 1193.84 720.36 1193.04 727.24L1199.28 728.84C1199.92 723.4 1203.84 720.36 1208.96 720.36C1214.16 720.36 1217.52 723.48 1217.52 728.12V729.88ZM1207.28 750.2C1203.92 750.2 1200.64 748.36 1200.64 744.28C1200.64 740.28 1204.08 738.68 1207.52 737.88L1217.76 735.48V739.4C1217.76 744.92 1213.68 750.2 1207.28 750.2ZM1252.07 715.48H1243.59V703.32L1236.71 704.92V715.48H1229.19V721.24H1236.71V743.48C1236.71 752.44 1242.39 755.64 1247.99 755.64C1250.39 755.64 1252.39 755.16 1253.99 754.12L1252.07 748.44C1250.95 749.08 1249.91 749.4 1248.71 749.4C1245.83 749.4 1243.59 747.64 1243.59 743.24V721.24H1252.07V715.48ZM1280.6 707.64C1283.32 707.64 1285.48 705.48 1285.48 702.76C1285.48 700.04 1283.32 697.88 1280.6 697.88C1277.88 697.88 1275.72 700.04 1275.72 702.76C1275.72 705.48 1277.88 707.64 1280.6 707.64ZM1283.96 755V715.48H1277.08V755H1283.96ZM1313.08 715.48H1304.6V703.32L1297.72 704.92V715.48H1290.2V721.24H1297.72V743.48C1297.72 752.44 1303.4 755.64 1309 755.64C1311.4 755.64 1313.4 755.16 1315 754.12L1313.08 748.44C1311.96 749.08 1310.92 749.4 1309.72 749.4C1306.84 749.4 1304.6 747.64 1304.6 743.24V721.24H1313.08V715.48ZM1333.75 756.12C1341.99 756.12 1347.99 751.56 1347.99 744.04C1347.99 737 1343.11 733.56 1337.51 732.52L1331.59 731.4C1328.23 730.76 1326.07 729.56 1326.07 726.2C1326.07 722.84 1329.03 720.28 1333.19 720.28C1337.67 720.28 1340.71 722.36 1341.83 727.16L1347.75 725.24C1346.07 718.28 1340.87 714.36 1333.27 714.36C1325.91 714.36 1319.35 719.48 1319.35 726.44C1319.35 732.84 1324.31 736.44 1329.75 737.48L1335.67 738.6C1339.03 739.24 1341.27 740.92 1341.27 744.28C1341.27 748.12 1337.99 750.2 1333.99 750.2C1329.19 750.2 1325.75 747.8 1324.31 742.84L1318.23 744.76C1319.83 751.48 1325.59 756.12 1333.75 756.12ZM75.68 804.76C73.12 800.76 68.32 798.36 62.72 798.36C52.16 798.36 43.52 807.48 43.52 819.32C43.52 831.16 52 840.12 62.72 840.12C68.24 840.12 73.12 837.72 75.84 833.4C75.84 835.48 76.16 838.28 76.32 839H83.36V838.52C83.04 837.24 82.56 833.72 82.56 830.52V781.56H75.68V804.76ZM63.36 833.88C55.52 833.88 50.56 827.4 50.56 819.24C50.56 811.08 55.68 804.6 63.52 804.6C71.36 804.6 75.84 811.08 75.84 819.24C75.84 827.4 71.2 833.88 63.36 833.88ZM96.9769 791.64C99.6969 791.64 101.857 789.48 101.857 786.76C101.857 784.04 99.6969 781.88 96.9769 781.88C94.2569 781.88 92.0969 784.04 92.0969 786.76C92.0969 789.48 94.2569 791.64 96.9769 791.64ZM100.337 839V799.48H93.4569V839H100.337ZM123.853 840.12C132.093 840.12 138.093 835.56 138.093 828.04C138.093 821 133.213 817.56 127.613 816.52L121.693 815.4C118.333 814.76 116.173 813.56 116.173 810.2C116.173 806.84 119.133 804.28 123.293 804.28C127.773 804.28 130.813 806.36 131.933 811.16L137.853 809.24C136.173 802.28 130.973 798.36 123.373 798.36C116.013 798.36 109.453 803.48 109.453 810.44C109.453 816.84 114.413 820.44 119.853 821.48L125.773 822.6C129.133 823.24 131.373 824.92 131.373 828.28C131.373 832.12 128.093 834.2 124.093 834.2C119.293 834.2 115.853 831.8 114.413 826.84L108.333 828.76C109.933 835.48 115.693 840.12 123.853 840.12ZM163.381 799.48H154.901V787.32L148.021 788.92V799.48H140.501V805.24H148.021V827.48C148.021 836.44 153.701 839.64 159.301 839.64C161.701 839.64 163.701 839.16 165.301 838.12L163.381 832.44C162.261 833.08 161.221 833.4 160.021 833.4C157.141 833.4 154.901 831.64 154.901 827.24V805.24H163.381V799.48ZM193.013 813.88L180.293 816.68C173.893 818.12 169.493 822.12 169.493 828.36C169.493 835.48 174.773 839.96 181.893 839.96C187.173 839.96 190.853 837.56 193.253 833.56C193.253 835.64 193.573 838.28 193.733 839H200.693V838.52C200.373 837.24 199.893 833.72 199.893 830.52V813.08C199.893 803.64 193.413 798.36 184.293 798.36C175.653 798.36 169.333 804.36 168.533 811.24L174.773 812.84C175.413 807.4 179.333 804.36 184.453 804.36C189.653 804.36 193.013 807.48 193.013 812.12V813.88ZM182.773 834.2C179.413 834.2 176.133 832.36 176.133 828.28C176.133 824.28 179.573 822.68 183.013 821.88L193.253 819.48V823.4C193.253 828.92 189.173 834.2 182.773 834.2ZM228.671 798.36C223.711 798.36 219.391 800.44 216.831 804.92V799.48H210.111V839H216.991V815.48C216.991 809.56 220.911 804.52 226.831 804.52C233.551 804.52 236.351 809.4 236.351 815V839H243.231V813.8C243.231 804.2 237.631 798.36 228.671 798.36ZM270.292 840.12C278.452 840.12 285.492 835.72 287.892 827.24L281.732 825.16C280.132 831.08 275.812 833.88 270.212 833.88C262.692 833.88 257.332 827.56 257.332 819.24C257.332 811 262.692 804.6 270.212 804.6C275.812 804.6 279.812 807.4 281.412 813.32L287.572 811.24C285.172 802.76 278.292 798.36 270.132 798.36C258.932 798.36 250.292 807.4 250.292 819.24C250.292 831.08 258.772 840.12 270.292 840.12ZM329.476 819C329.476 807.16 322.836 798.36 310.836 798.36C299.636 798.36 291.876 807.48 291.876 819.32C291.876 831.32 299.956 840.12 311.476 840.12C318.516 840.12 325.956 836.36 328.836 828.84L322.756 826.52C320.996 831.08 317.236 833.88 311.476 833.88C304.596 833.88 298.996 829 298.836 821.32H329.316C329.396 820.68 329.476 819.32 329.476 819ZM298.836 815.8C299.316 808.92 304.276 804.44 310.836 804.44C317.556 804.44 322.356 808.92 322.676 815.8H298.836ZM364.337 799.48V792.76C364.337 788.6 366.897 786.52 370.097 786.52C371.537 786.52 372.817 787.08 373.777 787.72L375.697 782.2C374.417 781.24 372.177 780.44 369.617 780.44C363.937 780.44 357.457 784.12 357.457 792.76V799.48H350.257V805.24H357.457V839H364.337V805.24H373.777V799.48H364.337ZM397.569 798.68C393.089 798.68 389.489 800.6 387.569 804.92V799.48H380.689V839H387.569V815.96C387.569 809.88 390.769 805.72 396.529 805.72C398.209 805.72 399.489 806.12 400.369 806.52L402.129 799.56C401.249 799.08 399.489 798.68 397.569 798.68ZM423.292 840.12C434.732 840.12 443.292 831.08 443.292 819.24C443.292 807.4 434.732 798.36 423.292 798.36C411.932 798.36 403.292 807.4 403.292 819.24C403.292 831.08 411.932 840.12 423.292 840.12ZM423.292 833.88C415.292 833.88 410.332 827.4 410.332 819.24C410.332 811.08 415.292 804.6 423.292 804.6C431.292 804.6 436.252 811.08 436.252 819.24C436.252 827.4 431.292 833.88 423.292 833.88ZM492.643 798.36C487.923 798.36 483.043 800.84 480.563 805.48C478.483 801.08 474.723 798.36 468.963 798.36C464.323 798.36 460.403 800.52 457.843 804.52V799.48H451.123V839H458.083V814.92C458.083 808.76 461.763 804.52 467.043 804.52C473.123 804.52 475.443 808.92 475.443 814.6V839H482.243V814.92C482.243 808.76 485.923 804.52 491.203 804.52C497.283 804.52 499.603 808.92 499.603 814.6V839H506.483V813.96C506.483 804.52 501.443 798.36 492.643 798.36ZM555.107 813.88L542.387 816.68C535.987 818.12 531.587 822.12 531.587 828.36C531.587 835.48 536.867 839.96 543.987 839.96C549.267 839.96 552.947 837.56 555.347 833.56C555.347 835.64 555.667 838.28 555.827 839H562.787V838.52C562.467 837.24 561.987 833.72 561.987 830.52V813.08C561.987 803.64 555.507 798.36 546.387 798.36C537.747 798.36 531.427 804.36 530.627 811.24L536.867 812.84C537.507 807.4 541.427 804.36 546.547 804.36C551.747 804.36 555.107 807.48 555.107 812.12V813.88ZM544.867 834.2C541.507 834.2 538.227 832.36 538.227 828.28C538.227 824.28 541.667 822.68 545.107 821.88L555.347 819.48V823.4C555.347 828.92 551.267 834.2 544.867 834.2ZM617.819 805.08C615.419 801.08 610.299 798.52 604.699 798.52C594.459 798.52 585.979 806.6 585.979 817.96C585.979 829.32 594.539 837.4 604.859 837.4C610.299 837.4 615.259 835.16 617.979 830.84V837.32C617.979 846.84 611.899 849.56 605.579 849.56C600.299 849.56 595.339 847.16 593.259 841.16L587.259 843.64C589.659 850.44 596.139 855.64 605.499 855.64C615.899 855.64 624.699 850.2 624.699 837.32V799.48H617.819V805.08ZM605.499 831.16C598.619 831.16 592.939 826.12 592.939 817.96C592.939 809.8 598.619 804.76 605.499 804.76C612.299 804.76 617.979 809.8 617.979 817.96C617.979 826.12 612.299 831.16 605.499 831.16ZM639.124 791.64C641.844 791.64 644.004 789.48 644.004 786.76C644.004 784.04 641.844 781.88 639.124 781.88C636.404 781.88 634.244 784.04 634.244 786.76C634.244 789.48 636.404 791.64 639.124 791.64ZM642.484 839V799.48H635.604V839H642.484ZM670.96 839L686.96 799.48H679.6L667.76 830.12L655.92 799.48H648.4L664.4 839H670.96ZM726.379 819C726.379 807.16 719.739 798.36 707.739 798.36C696.539 798.36 688.779 807.48 688.779 819.32C688.779 831.32 696.859 840.12 708.379 840.12C715.419 840.12 722.859 836.36 725.739 828.84L719.659 826.52C717.899 831.08 714.139 833.88 708.379 833.88C701.499 833.88 695.899 829 695.739 821.32H726.219C726.299 820.68 726.379 819.32 726.379 819ZM695.739 815.8C696.219 808.92 701.179 804.44 707.739 804.44C714.459 804.44 719.259 808.92 719.579 815.8H695.739ZM752.905 798.36C747.945 798.36 743.625 800.44 741.065 804.92V799.48H734.345V839H741.225V815.48C741.225 809.56 745.145 804.52 751.065 804.52C757.785 804.52 760.585 809.4 760.585 815V839H767.465V813.8C767.465 804.2 761.865 798.36 752.905 798.36ZM801.581 833.72C804.781 837.72 809.261 840.12 815.021 840.12C825.581 840.12 833.741 831 833.741 819.16C833.741 807.32 825.581 798.36 814.861 798.36C809.101 798.36 804.461 800.92 801.421 805.08V799.48H794.701V854.52H801.581V833.72ZM814.301 804.6C822.141 804.6 826.701 811.08 826.701 819.24C826.701 827.4 822.141 833.88 814.301 833.88C806.461 833.88 801.421 827.4 801.421 819.24C801.421 811.08 806.461 804.6 814.301 804.6ZM858.398 840.12C869.838 840.12 878.398 831.08 878.398 819.24C878.398 807.4 869.838 798.36 858.398 798.36C847.038 798.36 838.398 807.4 838.398 819.24C838.398 831.08 847.038 840.12 858.398 840.12ZM858.398 833.88C850.398 833.88 845.438 827.4 845.438 819.24C845.438 811.08 850.398 804.6 858.398 804.6C866.398 804.6 871.358 811.08 871.358 819.24C871.358 827.4 866.398 833.88 858.398 833.88ZM889.589 791.64C892.309 791.64 894.469 789.48 894.469 786.76C894.469 784.04 892.309 781.88 889.589 781.88C886.869 781.88 884.709 784.04 884.709 786.76C884.709 789.48 886.869 791.64 889.589 791.64ZM892.949 839V799.48H886.069V839H892.949ZM922.546 798.36C917.586 798.36 913.266 800.44 910.706 804.92V799.48H903.986V839H910.866V815.48C910.866 809.56 914.786 804.52 920.706 804.52C927.426 804.52 930.226 809.4 930.226 815V839H937.106V813.8C937.106 804.2 931.506 798.36 922.546 798.36ZM964.822 799.48H956.342V787.32L949.462 788.92V799.48H941.942V805.24H949.462V827.48C949.462 836.44 955.142 839.64 960.742 839.64C963.142 839.64 965.142 839.16 966.742 838.12L964.822 832.44C963.702 833.08 962.662 833.4 961.462 833.4C958.582 833.4 956.342 831.64 956.342 827.24V805.24H964.822V799.48ZM993.349 791.64C996.069 791.64 998.229 789.48 998.229 786.76C998.229 784.04 996.069 781.88 993.349 781.88C990.629 781.88 988.469 784.04 988.469 786.76C988.469 789.48 990.629 791.64 993.349 791.64ZM996.709 839V799.48H989.829V839H996.709ZM1020.23 840.12C1028.47 840.12 1034.47 835.56 1034.47 828.04C1034.47 821 1029.59 817.56 1023.99 816.52L1018.07 815.4C1014.71 814.76 1012.55 813.56 1012.55 810.2C1012.55 806.84 1015.51 804.28 1019.67 804.28C1024.15 804.28 1027.19 806.36 1028.31 811.16L1034.23 809.24C1032.55 802.28 1027.35 798.36 1019.75 798.36C1012.39 798.36 1005.83 803.48 1005.83 810.44C1005.83 816.84 1010.79 820.44 1016.23 821.48L1022.15 822.6C1025.51 823.24 1027.75 824.92 1027.75 828.28C1027.75 832.12 1024.47 834.2 1020.47 834.2C1015.67 834.2 1012.23 831.8 1010.79 826.84L1004.71 828.76C1006.31 835.48 1012.07 840.12 1020.23 840.12ZM1076.31 840.12C1084.79 840.12 1092.31 835.56 1094.87 826.6L1085.03 823.88C1083.91 828.04 1080.95 830.36 1076.47 830.36C1071.11 830.36 1066.63 825.88 1066.63 819.24C1066.63 812.6 1071.11 808.04 1076.31 808.04C1080.63 808.04 1083.59 810.52 1084.71 814.6L1094.55 811.8C1091.99 802.84 1084.55 798.36 1075.99 798.36C1064.71 798.36 1055.83 807.24 1055.83 819.24C1055.83 831.16 1064.87 840.12 1076.31 840.12ZM1118.29 840.12C1129.89 840.12 1139.01 831.16 1139.01 819.24C1139.01 807.24 1129.89 798.36 1118.29 798.36C1106.69 798.36 1097.57 807.24 1097.57 819.24C1097.57 831.16 1106.69 840.12 1118.29 840.12ZM1118.29 830.36C1112.45 830.36 1108.45 825.8 1108.45 819.24C1108.45 812.6 1112.45 808.04 1118.29 808.04C1124.13 808.04 1128.13 812.6 1128.13 819.24C1128.13 825.8 1124.13 830.36 1118.29 830.36ZM1166.67 798.36C1162.35 798.36 1158.03 799.8 1155.47 803.8V799.48H1144.99V839H1155.87V816.28C1155.87 811.72 1158.75 808.04 1163.23 808.04C1168.11 808.04 1170.27 811.64 1170.27 815.96V839H1181.15V813.4C1181.15 804.6 1175.39 798.36 1166.67 798.36ZM1202.84 840.12C1211.96 840.12 1218.44 835.24 1218.44 827.16C1218.44 819.24 1212.6 815.8 1206.68 814.76L1201.32 813.8C1199.08 813.4 1197.72 812.44 1197.72 810.52C1197.72 808.28 1199.8 806.6 1202.76 806.6C1206.52 806.6 1208.36 808.84 1209 811.96L1218.12 809.8C1216.52 802.6 1211.08 798.36 1202.68 798.36C1194.28 798.36 1187.56 803.96 1187.56 811.24C1187.56 818.44 1193 821.96 1198.68 823L1204.04 823.96C1206.52 824.44 1208.12 825.48 1208.12 827.8C1208.12 830.04 1206.2 831.64 1203 831.64C1198.92 831.64 1196.68 829.32 1195.88 825.72L1186.52 827.88C1187.8 834.76 1193.72 840.12 1202.84 840.12ZM1245.54 799.48H1237.54V786.36L1226.82 788.92V799.48H1219.86V808.84H1226.82V825.96C1226.82 835.32 1232.74 839.8 1239.94 839.8C1242.9 839.8 1245.7 839.16 1247.78 837.88L1244.9 829.24C1244.02 829.72 1243.22 830.04 1241.86 830.04C1239.38 830.04 1237.54 828.68 1237.54 824.84V808.84H1245.54V799.48ZM1272.8 813.88L1261.68 816.28C1255.2 817.72 1250.64 821.8 1250.64 828.28C1250.64 835.56 1256 839.96 1262.8 839.96C1267.28 839.96 1270.96 838.28 1273.2 834.6C1273.2 836.44 1273.52 838.6 1273.68 839H1284.32V838.28C1284 836.84 1283.52 833.56 1283.52 830.12V813.32C1283.52 804.2 1277.12 798.36 1266.88 798.36C1257.28 798.36 1250.96 804.44 1249.68 811.48L1259.44 813.56C1260.16 809.16 1263.12 807.16 1266.72 807.16C1270.56 807.16 1272.8 809.48 1272.8 812.6V813.88ZM1265.6 831.56C1263.04 831.56 1261.04 830.04 1261.04 827.48C1261.04 824.84 1263.28 823.48 1265.44 822.92L1272.96 821.08V823.8C1272.96 827.96 1270.32 831.56 1265.6 831.56ZM1313.01 798.36C1308.69 798.36 1304.37 799.8 1301.81 803.8V799.48H1291.33V839H1302.21V816.28C1302.21 811.72 1305.09 808.04 1309.57 808.04C1314.45 808.04 1316.61 811.64 1316.61 815.96V839H1327.49V813.4C1327.49 804.6 1321.73 798.36 1313.01 798.36ZM1356.39 799.48H1348.39V786.36L1337.67 788.92V799.48H1330.71V808.84H1337.67V825.96C1337.67 835.32 1343.59 839.8 1350.79 839.8C1353.75 839.8 1356.55 839.16 1358.63 837.88L1355.75 829.24C1354.87 829.72 1354.07 830.04 1352.71 830.04C1350.23 830.04 1348.39 828.68 1348.39 824.84V808.84H1356.39V799.48ZM1368.77 839.56C1372.61 839.56 1375.81 836.36 1375.81 832.6C1375.81 828.76 1372.61 825.56 1368.77 825.56C1365.01 825.56 1361.81 828.76 1361.81 832.6C1361.81 836.36 1365.01 839.56 1368.77 839.56Z" fill="#FFDCAB"/>
<path d="M46.4 59.28C48.6 59.28 50.7 58.02 50.86 54.88L49.32 54.52C49.24 56.8 48.02 57.76 46.4 57.76C44.38 57.76 43.16 56.32 43.16 54.3V51.76C43.16 49.74 44.38 48.3 46.4 48.3C48.02 48.3 49.22 49.24 49.3 51.52L50.86 51.16C50.7 48.02 48.6 46.78 46.4 46.78C43.46 46.78 41.52 48.84 41.52 51.72V54.34C41.52 57.2 43.46 59.28 46.4 59.28ZM53.6922 59H62.0922V57.5L59.5522 57.62C59.1522 57.64 58.9122 57.4 58.9122 57V51.64C58.9122 50.88 58.3322 50.3 57.5722 50.3L53.8522 50.32V51.82L56.6922 51.7C57.0922 51.66 57.3522 51.9 57.3522 52.32V57C57.3522 57.4 57.1122 57.64 56.7122 57.62L53.6922 57.5V59ZM56.6922 46.54C56.6922 47.26 57.2922 47.86 58.0122 47.86C58.7522 47.86 59.3322 47.26 59.3322 46.54C59.3322 45.84 58.7522 45.22 58.0122 45.22C57.2922 45.22 56.6922 45.84 56.6922 46.54ZM66.9044 50.3H64.3044V51.8L66.0244 51.68C66.4244 51.66 66.6644 51.9 66.6644 52.3V57C66.6644 57.4 66.4244 57.64 66.0244 57.62L64.2244 57.5V59H72.1244V57.5L68.8644 57.62C68.4644 57.64 68.2244 57.42 68.2244 57.02V54.98C68.2244 52.68 69.4044 51.44 70.7244 51.44C71.8244 51.44 72.3244 52.12 72.3244 53.24V53.78L73.8244 53.68V53C73.8244 51.3 72.9844 50.02 71.1244 50.02C69.8044 50.02 68.8244 50.86 68.2844 51.94H68.1844V51.58C68.1844 50.76 67.7244 50.3 66.9044 50.3ZM80.1766 59.28C82.7366 59.28 84.7366 57.38 84.7366 54.78V54.52C84.7366 51.92 82.7366 50.02 80.1766 50.02C77.6366 50.02 75.6366 51.92 75.6366 54.52V54.78C75.6366 57.38 77.6366 59.28 80.1766 59.28ZM77.1966 54.78V54.52C77.1966 52.72 78.4566 51.44 80.1766 51.44C81.9166 51.44 83.1766 52.72 83.1766 54.52V54.78C83.1766 56.58 81.9166 57.86 80.1766 57.86C78.4566 57.86 77.1966 56.58 77.1966 54.78ZM92.0287 59.28C93.9087 59.28 95.5287 58.28 96.0687 56.32L94.6287 55.96C94.3287 57.16 93.3287 57.86 92.0287 57.86C90.3087 57.86 89.0087 56.58 89.0087 54.78V54.52C89.0087 52.72 90.3087 51.42 92.0287 51.42C93.3287 51.42 94.3287 52.12 94.6287 53.32L96.0687 52.96C95.5287 51 93.9087 50.02 92.0287 50.02C89.4887 50.02 87.4487 51.92 87.4487 54.52V54.78C87.4487 57.36 89.4887 59.28 92.0287 59.28ZM103.421 59.28C105.301 59.28 106.921 58.28 107.461 56.32L106.021 55.96C105.721 57.16 104.721 57.86 103.421 57.86C101.701 57.86 100.401 56.58 100.401 54.78V54.52C100.401 52.72 101.701 51.42 103.421 51.42C104.721 51.42 105.721 52.12 106.021 53.32L107.461 52.96C106.921 51 105.301 50.02 103.421 50.02C100.881 50.02 98.8409 51.92 98.8409 54.52V54.78C98.8409 57.36 100.881 59.28 103.421 59.28ZM111.773 53.16L110.313 52.9C110.553 51.36 111.913 50.02 113.953 50.02C116.033 50.02 117.513 51.18 117.513 53.32V57.4C117.513 57.66 117.693 57.76 117.913 57.6L118.953 56.9L119.553 58.06L118.033 58.94C117.173 59.44 116.193 59.1 116.153 58.02V57.54H116.053C115.473 58.38 114.593 59.28 112.953 59.28C111.493 59.28 110.293 58.38 110.293 56.96V56.74C110.293 55.14 111.673 54.54 112.593 54.28L115.973 53.32V53.14C115.973 51.98 115.113 51.34 113.933 51.34C112.773 51.34 111.933 52 111.773 53.16ZM111.813 56.82C111.813 57.58 112.393 58.02 113.253 58.02C114.693 58.02 116.013 56.64 116.013 55V54.52L113.133 55.36C112.433 55.58 111.813 55.94 111.813 56.72V56.82ZM137.777 60.6L139.077 59.82C138.197 58.56 136.757 56.2 136.757 52.68C136.757 49.14 138.197 46.82 139.077 45.56L137.777 44.78C136.717 46.4 135.197 48.86 135.197 52.68C135.197 56.5 136.717 58.96 137.777 60.6ZM143.65 50.3L147.39 59H149.69L153.41 50.3H151.57L148.69 57.5H148.39L145.49 50.3H143.65ZM158.602 47.06C158.542 48.76 157.982 49.56 156.302 49.56H156.042V51.08H156.602C158.002 51.08 159.502 50.36 159.762 48.42H159.862V56.96C159.862 57.36 159.642 57.58 159.222 57.56L156.042 57.44V59H165.002V57.44L162.142 57.56C161.742 57.58 161.502 57.34 161.502 56.94V47.06H158.602ZM171.314 59.16C172.174 59.16 172.894 58.46 172.894 57.58C172.894 56.76 172.174 56.02 171.314 56.02C170.454 56.02 169.754 56.76 169.754 57.58C169.754 58.46 170.454 59.16 171.314 59.16ZM182.706 54.32C183.406 54.32 183.966 53.74 183.966 53.06C183.966 52.38 183.406 51.8 182.706 51.8C182.026 51.8 181.446 52.38 181.446 53.06C181.446 53.74 182.026 54.32 182.706 54.32ZM178.066 54.44C178.066 57.26 179.806 59.32 182.706 59.32C185.606 59.32 187.346 57.26 187.346 54.44V51.68C187.346 48.84 185.606 46.8 182.706 46.8C179.806 46.8 178.066 48.84 178.066 51.68V54.44ZM179.706 54.38V51.74C179.706 49.74 180.706 48.32 182.706 48.32C184.706 48.32 185.726 49.74 185.726 51.74V54.38C185.726 56.36 184.706 57.78 182.706 57.78C180.706 57.78 179.706 56.36 179.706 54.38ZM192.158 59.82L193.458 60.6C194.538 58.96 196.038 56.5 196.038 52.68C196.038 48.86 194.538 46.4 193.458 44.78L192.158 45.56C193.038 46.82 194.478 49.14 194.478 52.68C194.478 56.2 193.038 58.56 192.158 59.82Z" fill="#FFDCAB"/>
</g>
<defs>
<clipPath id="clip0">
<rect width="1600" height="900" fill="white"/>
</clipPath>
</defs>
</svg>
