<svg width="1600" height="900" viewBox="0 0 1600 900" fill="none" xmlns="http://www.w3.org/2000/svg">
<rect width="1600" height="900" fill="#0D0A08"/>
<path d="M46.66 61.32C49.76 61.32 51.76 59.16 51.76 56.06V46.64H50.12V55.98C50.12 58.22 48.9 59.8 46.66 59.8C44.42 59.8 43.2 58.22 43.2 55.98V46.64H41.58V56.06C41.58 59.16 43.56 61.32 46.66 61.32ZM59.3603 50.84C58.1003 50.84 57.0203 51.38 56.3803 52.52V51.12H54.8603V61H56.4003V55.08C56.4003 53.54 57.4203 52.24 58.9603 52.24C60.7203 52.24 61.4603 53.5 61.4603 54.96V61H63.0003V54.72C63.0003 52.28 61.6203 50.84 59.3603 50.84ZM66.8261 49.04C67.4861 49.04 67.9861 48.54 67.9861 47.9C67.9861 47.24 67.4861 46.74 66.8261 46.74C66.1861 46.74 65.6861 47.24 65.6861 47.9C65.6861 48.54 66.1861 49.04 66.8261 49.04ZM67.5861 61V51.12H66.0261V61H67.5861ZM75.2266 51.12H73.0866V48.12L71.5266 48.48V51.12H69.6266V52.4H71.5266V58.18C71.5266 60.4 72.9466 61.16 74.2666 61.16C74.8466 61.16 75.3266 61.04 75.7066 60.78L75.2666 59.5C74.9666 59.66 74.7066 59.74 74.4066 59.74C73.6666 59.74 73.0866 59.28 73.0866 58.16V52.4H75.2266V51.12ZM78.6331 49.04C79.2931 49.04 79.7931 48.54 79.7931 47.9C79.7931 47.24 79.2931 46.74 78.6331 46.74C77.9931 46.74 77.4931 47.24 77.4931 47.9C77.4931 48.54 77.9931 49.04 78.6331 49.04ZM79.3931 61V51.12H77.8331V61H79.3931ZM87.0336 51.12H84.8936V48.12L83.3336 48.48V51.12H81.4336V52.4H83.3336V58.18C83.3336 60.4 84.7536 61.16 86.0736 61.16C86.6536 61.16 87.1336 61.04 87.5136 60.78L87.0736 59.5C86.7736 59.66 86.5136 59.74 86.2136 59.74C85.4736 59.74 84.8936 59.28 84.8936 58.16V52.4H87.0336V51.12ZM91.0839 61V46.64H89.5239V61H91.0839ZM102.883 56C102.883 53.04 101.223 50.84 98.2434 50.84C95.4834 50.84 93.5234 53.08 93.5234 56.08C93.5234 59.12 95.5834 61.28 98.4034 61.28C100.083 61.28 101.963 60.38 102.723 58.48L101.343 57.92C100.883 59.1 99.9234 59.84 98.4034 59.84C96.6234 59.84 95.1434 58.58 95.1034 56.54H102.843C102.863 56.4 102.883 56.04 102.883 56ZM95.1034 55.24C95.2234 53.42 96.5234 52.24 98.2434 52.24C100.003 52.24 101.263 53.42 101.343 55.24H95.1034ZM112.655 52.5C111.975 51.44 110.735 50.84 109.335 50.84C106.695 50.84 104.515 53.12 104.515 56.08C104.515 59.04 106.655 61.28 109.335 61.28C110.735 61.28 111.975 60.68 112.675 59.54C112.675 60.08 112.755 60.8 112.795 61H114.415V60.88C114.335 60.58 114.215 59.68 114.215 58.9V46.64H112.655V52.5ZM109.455 59.86C107.395 59.86 106.115 58.16 106.115 56.06C106.115 53.96 107.455 52.26 109.495 52.26C111.535 52.26 112.675 53.96 112.675 56.06C112.675 58.16 111.495 59.86 109.455 59.86ZM126.962 61.32C129.782 61.32 131.762 59.72 131.762 57.1C131.762 54.84 130.062 53.5 128.002 53.1L126.262 52.78C124.462 52.44 123.762 51.62 123.762 50.46C123.762 48.82 125.182 47.82 126.802 47.82C128.362 47.82 129.682 48.58 130.142 50.56L131.642 50.08C131.002 47.48 129.142 46.32 126.822 46.32C124.202 46.32 122.182 48.24 122.182 50.5C122.182 52.7 123.822 54.02 125.722 54.38L127.562 54.72C129.022 55 130.102 55.76 130.102 57.2C130.102 58.88 128.822 59.82 126.982 59.82C125.082 59.82 123.662 58.82 123.082 56.76L121.582 57.24C122.142 59.58 124.182 61.32 126.962 61.32ZM143.08 56C143.08 53.04 141.42 50.84 138.44 50.84C135.68 50.84 133.72 53.08 133.72 56.08C133.72 59.12 135.78 61.28 138.6 61.28C140.28 61.28 142.16 60.38 142.92 58.48L141.54 57.92C141.08 59.1 140.12 59.84 138.6 59.84C136.82 59.84 135.34 58.58 135.3 56.54H143.04C143.06 56.4 143.08 56.04 143.08 56ZM135.3 55.24C135.42 53.42 136.72 52.24 138.44 52.24C140.2 52.24 141.46 53.42 141.54 55.24H135.3ZM149.631 50.92C148.491 50.92 147.591 51.42 147.111 52.5V51.12H145.551V61H147.091V55.16C147.091 53.62 147.891 52.52 149.391 52.52C149.811 52.52 150.131 52.64 150.351 52.74L150.771 51.14C150.551 51.02 150.111 50.92 149.631 50.92ZM153.298 49.04C153.958 49.04 154.458 48.54 154.458 47.9C154.458 47.24 153.958 46.74 153.298 46.74C152.658 46.74 152.158 47.24 152.158 47.9C152.158 48.54 152.658 49.04 153.298 49.04ZM154.058 61V51.12H152.498V61H154.058ZM159.638 51.12V49.34C159.638 48.26 160.298 47.72 161.118 47.72C161.478 47.72 161.818 47.86 162.058 48.04L162.498 46.8C162.178 46.56 161.638 46.36 161.038 46.36C159.658 46.36 158.078 47.24 158.078 49.36V51.12H156.258V52.4H158.078V61H159.638V52.4H162.038V51.12H159.638ZM172.832 63C170.812 60.78 169.572 57.84 169.572 54.44C169.572 51.06 170.812 48.12 172.832 45.88L171.692 44.98C169.612 47.4 168.092 50.62 168.092 54.44C168.092 58.26 169.612 61.48 171.692 63.9L172.832 63ZM186.573 58.6L183.253 46.54H181.613L178.293 58.6L175.093 46.54H173.393L177.393 61H179.033L182.433 48.88L185.833 61H187.473L191.473 46.54H189.773L186.573 58.6ZM195.507 61V46.64H193.887V61H195.507ZM200.755 61V55.08H203.815C206.775 55.08 208.435 53.42 208.435 50.86C208.435 48.3 206.795 46.64 203.815 46.64H199.155V61H200.755ZM200.755 48.08H203.655C205.555 48.08 206.835 48.92 206.835 50.86C206.835 52.8 205.575 53.62 203.655 53.62H200.755V48.08ZM210.247 63.9C212.347 61.48 213.867 58.26 213.867 54.44C213.867 50.62 212.347 47.4 210.247 44.98L209.127 45.88C211.147 48.12 212.387 51.06 212.387 54.44C212.387 57.84 211.147 60.78 209.127 63L210.247 63.9Z" fill="#FFF3E6"/>
<path d="M106.48 446H60.64C62.08 460.88 62.56 483.92 62.56 498.8V561.2C62.56 576.08 62.08 599.12 60.64 614H113.68C153.04 614 174.16 593.6 174.16 563.84C174.16 546.08 165.76 531.92 151.12 523.52C158.32 515.84 162.64 505.52 162.64 492.8C162.64 463.04 141.52 446 106.48 446ZM77.2 561.2V534.08C85.6 537.2 95.68 539.6 107.2 539.6C120.4 539.6 132.16 536.72 141.52 531.2C153.28 538.4 157.84 550.64 157.84 563.84C157.84 584.48 145.36 603.92 110.08 603.92H78.4C77.44 590 77.2 572.96 77.2 561.2ZM77.2 524.48V498.8C77.2 487.04 77.44 470 78.4 456.08H102.88C133.84 456.08 146.32 472.16 146.32 492.8C146.32 513.44 135.04 529.52 107.68 529.52C95.92 529.52 86.8 527.84 77.2 524.48ZM250.559 616.88C285.599 616.88 310.079 589.04 310.079 554C310.079 518.96 285.599 491.12 250.559 491.12C215.519 491.12 191.039 518.96 191.039 554C191.039 589.04 215.519 616.88 250.559 616.88ZM206.879 554C206.879 524.48 224.639 501.2 250.559 501.2C276.479 501.2 294.239 524.48 294.239 554C294.239 583.52 276.479 606.8 250.559 606.8C224.639 606.8 206.879 583.52 206.879 554ZM385.39 616.88C420.43 616.88 444.91 589.04 444.91 554C444.91 518.96 420.43 491.12 385.39 491.12C350.35 491.12 325.87 518.96 325.87 554C325.87 589.04 350.35 616.88 385.39 616.88ZM341.71 554C341.71 524.48 359.47 501.2 385.39 501.2C411.31 501.2 429.07 524.48 429.07 554C429.07 583.52 411.31 606.8 385.39 606.8C359.47 606.8 341.71 583.52 341.71 554ZM484.221 443.6L466.461 448.4C467.901 463.28 468.381 486.32 468.381 501.2V561.2C468.381 576.08 467.901 599.12 466.461 614H484.221C482.781 599.12 482.301 576.08 482.301 561.2V496.4C482.301 481.52 482.781 458.48 484.221 443.6ZM617.489 548.72C618.689 515.84 597.329 491.12 565.169 491.12C529.169 491.12 505.889 519.44 505.889 554.48C505.889 589.52 531.809 616.88 566.849 616.88C592.289 616.88 609.089 602.96 616.289 589.52L607.409 582.32C600.209 596.72 588.449 606.8 568.289 606.8C541.169 606.8 521.729 584 521.729 554.48C521.729 552.56 521.729 550.64 521.969 548.72H617.489ZM523.169 539.12C527.249 516.56 541.169 501.2 563.249 501.2C585.329 501.2 601.649 515.6 601.649 539.12H523.169ZM648.1 529.28L633.22 521.6C640.66 504.32 659.14 491.12 679.78 491.12C700.42 491.12 721.54 501.68 721.54 528.56V561.2C721.54 576.08 722.02 599.12 723.46 614H707.38C707.62 609.2 707.86 599.12 707.86 594.32C701.62 607.76 689.38 616.88 672.1 616.88C653.86 616.88 635.38 606.32 635.38 583.28C635.38 563.12 651.94 554 669.22 550.64L697.06 545.36C704.98 543.92 707.14 539.6 707.14 529.52C707.14 512.24 697.06 500.72 678.82 500.72C661.54 500.72 651.94 513.92 648.1 529.28ZM650.26 584C650.26 598.4 659.86 606.8 674.74 606.8C695.86 606.8 707.38 587.6 707.38 564.56V551.12C703.54 553.04 699.94 554.24 694.9 555.2L676.9 558.32C660.58 561.2 650.26 569.36 650.26 584ZM767.151 491.6L750.831 496.4C752.271 511.28 752.751 534.32 752.751 549.2V561.2C752.751 576.08 752.271 599.12 750.831 614H768.591C767.151 599.12 766.671 576.08 766.671 561.2V536.48C766.671 516.8 779.391 502.64 799.071 502.64C818.751 502.64 831.471 516.8 831.471 536.48V561.2C831.471 576.08 830.991 599.12 829.551 614H847.311C845.871 599.12 845.391 576.08 845.391 561.2V534.08C845.391 508.64 828.351 491.12 802.911 491.12C783.711 491.12 772.431 501.2 766.671 510.8C766.671 506 766.911 496.4 767.151 491.6ZM135.28 833.36C183.76 833.36 218.08 794.96 218.08 746C218.08 697.76 183.76 658.64 135.28 658.64C86.8 658.64 52.48 697.04 52.48 746C52.48 794.96 86.8 833.36 135.28 833.36ZM69.28 746C69.28 705.2 96.88 669.44 135.28 669.44C173.68 669.44 201.28 705.2 201.28 746C201.28 786.8 173.68 822.56 135.28 822.56C96.88 822.56 69.28 786.8 69.28 746ZM351.507 770C351.507 734.96 330.387 707.12 295.347 707.12C275.187 707.12 259.827 718.4 254.067 729.92C254.067 724.16 254.307 715.28 254.547 710H237.747C239.187 724.88 239.667 747.92 239.667 762.8V825.2C239.667 840.08 239.187 863.12 237.747 878L255.507 873.2C254.067 858.32 253.587 835.28 253.587 820.4V810.08C261.267 821.6 274.707 832.88 295.347 832.88C330.387 832.88 351.507 805.04 351.507 770ZM252.627 770C252.627 741.2 268.227 717.2 294.147 717.2C320.067 717.2 335.667 741.2 335.667 770C335.667 798.8 320.067 822.8 294.147 822.8C268.227 822.8 252.627 798.8 252.627 770ZM476.967 764.72C478.167 731.84 456.807 707.12 424.647 707.12C388.647 707.12 365.367 735.44 365.367 770.48C365.367 805.52 391.287 832.88 426.327 832.88C451.767 832.88 468.567 818.96 475.767 805.52L466.887 798.32C459.687 812.72 447.927 822.8 427.767 822.8C400.647 822.8 381.207 800 381.207 770.48C381.207 768.56 381.207 766.64 381.447 764.72H476.967ZM382.647 755.12C386.727 732.56 400.647 717.2 422.727 717.2C444.807 717.2 461.127 731.6 461.127 755.12H382.647ZM514.298 707.6L497.978 712.4C499.418 727.28 499.898 750.32 499.898 765.2V777.2C499.898 792.08 499.418 815.12 497.978 830H515.738C514.298 815.12 513.818 792.08 513.818 777.2V752.48C513.818 732.8 523.178 720.56 536.618 720.56C546.218 720.56 550.778 724.64 554.138 729.44L563.738 717.92C558.938 712.16 551.498 708.08 541.418 708.08C528.938 708.08 517.658 715.76 513.818 726.8C513.818 722 514.058 712.4 514.298 707.6ZM586.806 745.28L571.926 737.6C579.366 720.32 597.846 707.12 618.486 707.12C639.126 707.12 660.246 717.68 660.246 744.56V777.2C660.246 792.08 660.726 815.12 662.166 830H646.086C646.326 825.2 646.566 815.12 646.566 810.32C640.326 823.76 628.086 832.88 610.806 832.88C592.566 832.88 574.086 822.32 574.086 799.28C574.086 779.12 590.646 770 607.926 766.64L635.766 761.36C643.686 759.92 645.846 755.6 645.846 745.52C645.846 728.24 635.766 716.72 617.526 716.72C600.246 716.72 590.646 729.92 586.806 745.28ZM588.966 800C588.966 814.4 598.566 822.8 613.446 822.8C634.566 822.8 646.086 803.6 646.086 780.56V767.12C642.246 769.04 638.646 770.24 633.606 771.2L615.606 774.32C599.286 777.2 588.966 785.36 588.966 800ZM672.325 720.08L674.725 710H680.485C696.805 710 700.165 706.64 700.165 690.32V679.76L712.165 675.44V720.08H696.805V715.04L680.485 710H744.325L741.925 720.08H712.165V801.2C712.165 813.68 717.685 821.84 729.205 821.84C738.325 821.84 741.685 817.04 744.565 813.2L747.925 816.08C746.005 821.84 738.325 831.92 724.885 831.92C706.645 831.92 696.805 820.4 696.805 802.16V720.08H672.325ZM782.815 707.6L765.055 712.4C766.495 727.28 766.975 750.32 766.975 765.2V777.2C766.975 792.08 766.495 815.12 765.055 830H782.815C781.375 815.12 780.895 792.08 780.895 777.2V760.4C780.895 745.52 781.375 722.48 782.815 707.6ZM762.895 672.08C762.895 678.08 767.935 683.12 773.935 683.12C779.935 683.12 784.975 678.08 784.975 672.08C784.975 666.08 779.935 661.04 773.935 661.04C767.935 661.04 762.895 666.08 762.895 672.08ZM865.146 832.88C900.186 832.88 924.666 805.04 924.666 770C924.666 734.96 900.186 707.12 865.146 707.12C830.106 707.12 805.626 734.96 805.626 770C805.626 805.04 830.106 832.88 865.146 832.88ZM821.466 770C821.466 740.48 839.226 717.2 865.146 717.2C891.066 717.2 908.826 740.48 908.826 770C908.826 799.52 891.066 822.8 865.146 822.8C839.226 822.8 821.466 799.52 821.466 770ZM962.057 707.6L945.737 712.4C947.177 727.28 947.657 750.32 947.657 765.2V777.2C947.657 792.08 947.177 815.12 945.737 830H963.497C962.057 815.12 961.577 792.08 961.577 777.2V752.48C961.577 732.8 974.297 718.64 993.977 718.64C1013.66 718.64 1026.38 732.8 1026.38 752.48V777.2C1026.38 792.08 1025.9 815.12 1024.46 830H1042.22C1040.78 815.12 1040.3 792.08 1040.3 777.2V750.08C1040.3 724.64 1023.26 707.12 997.817 707.12C978.617 707.12 967.337 717.2 961.577 726.8C961.577 722 961.817 712.4 962.057 707.6ZM1076.22 794.72L1062.3 801.92C1069.5 823.04 1089.66 832.88 1111.26 832.88C1131.9 832.88 1153.02 820.64 1153.02 797.6C1153.02 777.44 1136.22 767.36 1117.98 763.52L1102.14 760.16C1091.58 758 1080.06 753.68 1080.06 740.24C1080.06 725.36 1093.5 716.72 1106.46 716.72C1123.74 716.72 1135.26 725.84 1138.62 742.16L1152.06 734.96C1144.86 716.72 1128.54 707.12 1107.42 707.12C1087.74 707.12 1066.62 720.56 1066.62 743.12C1066.62 761.36 1080.3 770.72 1098.54 774.56L1114.38 777.92C1127.34 780.56 1139.58 785.12 1139.58 800C1139.58 814.88 1128.06 823.28 1111.74 823.28C1093.5 823.28 1080.54 812.96 1076.22 794.72Z" fill="#FFF3E6"/>
</svg>
