<svg width="1600" height="900" viewBox="0 0 1600 900" fill="none" xmlns="http://www.w3.org/2000/svg">
<rect width="1600" height="900" fill="#0D0C0D"/>
<path d="M342.482 268.12C354.002 268.12 364.802 271.96 366.722 283.48C368.162 291.88 374.162 294.28 378.722 294.28C388.082 294.28 391.922 285.4 400.082 276.04C407.762 267.16 416.882 259.72 416.882 252.52C416.882 245.8 411.842 241.24 404.162 241.24C395.282 241.24 391.922 251.8 382.322 251.8C372.482 251.8 362.882 243.16 341.042 243.16C314.162 243.16 287.042 258.04 287.042 289C287.042 315.4 306.002 326.68 325.922 331.96L363.362 341.8C377.762 345.64 389.042 352.84 389.042 367C389.042 384.52 372.962 393.4 354.962 393.4C335.762 393.4 326.162 386.92 325.202 379C324.242 371.56 328.322 366.52 328.322 361.48C328.322 355 321.602 349.72 313.442 349.72C304.802 349.72 301.202 358.6 291.362 371.32C282.722 382.6 270.962 391.48 270.962 401.08C270.962 408.76 277.202 414.52 284.882 414.52C294.242 414.52 296.402 403.48 305.042 403.48C313.682 403.48 325.682 418.84 356.162 418.84C392.402 418.84 420.722 397.48 420.722 364.84C420.722 333.16 401.042 321.88 368.402 313L332.642 303.4C324.002 301 318.722 295.24 318.722 287.08C318.722 274.84 330.482 268.12 342.482 268.12ZM522.887 362.92C509.207 362.92 486.407 363.16 486.407 379.96C486.407 394.36 497.447 393.4 497.447 403.96C497.447 415.72 479.927 417.4 466.727 417.4C448.727 417.4 432.647 415.48 432.647 403.24C432.647 388.6 454.247 382.6 459.767 365.56L481.607 298.84C489.047 276.28 466.967 276.04 466.967 262.6C466.967 244.36 507.287 244.6 522.887 244.6C538.487 244.6 578.807 244.36 578.807 262.6C578.807 276.04 556.727 276.28 564.167 298.84L586.007 365.56C591.527 382.6 613.127 388.6 613.127 403.24C613.127 415.48 597.047 417.4 579.047 417.4C565.847 417.4 548.327 415.72 548.327 403.96C548.327 393.4 559.367 394.36 559.367 379.96C559.367 363.16 536.567 362.92 522.887 362.92ZM499.607 327.16C499.607 339.64 508.727 340.84 522.887 340.84C537.047 340.84 546.167 339.64 546.167 327.16C546.167 317.56 534.887 280.84 526.247 274.36C525.287 273.64 524.087 273.4 522.887 273.4C521.687 273.4 520.727 273.64 519.527 274.36C510.407 279.88 499.607 317.56 499.607 327.16ZM707.445 243.16C668.085 243.16 619.365 271.96 619.365 332.44C619.365 392.92 667.125 418.84 709.365 418.84C748.725 418.84 782.325 397 782.325 376.6C782.325 366.04 772.485 360.52 764.805 360.52C746.565 360.52 748.725 388.6 709.365 388.6C684.405 388.6 652.485 372.76 652.485 331.48C652.485 290.2 684.405 273.4 709.125 273.4C723.525 273.4 728.565 280.12 728.565 285.16C728.565 290.2 723.045 297.88 723.045 303.88C723.045 312.28 728.565 317.8 737.205 317.8C748.245 317.8 755.685 300.28 765.525 287.56C774.165 276.28 785.205 265.24 785.205 255.64C785.205 248.44 779.925 242.92 770.805 242.92C760.245 242.92 756.885 250.84 748.245 250.84C739.605 250.84 731.205 243.16 707.445 243.16ZM802.96 402.52C802.96 389.08 821.2 388.12 821.2 365.08V297.16C821.2 272.2 804.88 279.16 804.88 264.28C804.88 249.4 827.92 243.16 870.16 243.16C912.4 243.16 950.8 252.04 950.8 291.4C950.8 314.44 935.68 327.64 913.84 340.84C910 343.24 908.32 347.08 909.04 352.84C910.96 367.24 917.2 388.12 931.6 388.12C941.68 388.12 940.72 377.8 950.32 377.8C958 377.8 965.2 384.28 965.2 392.92C965.2 403.48 951.28 416.92 931.6 416.92C906.64 416.92 892.72 399.64 884.56 371.32C880.72 357.88 872.08 353.08 860.56 356.92C853.36 359.32 850 364.36 850 377.08C850 392.44 859.6 392.68 859.6 403.48C859.6 415.96 844.72 417.88 831.28 417.88C817.84 417.88 802.96 415.96 802.96 402.52ZM850 320.2C850 326.44 853.6 334.12 868.24 330.04C899.68 321.4 918.16 309.64 918.16 290.44C918.16 273.64 899.44 270.04 877.84 270.04C857.68 270.04 850 277.96 850 293.32V320.2ZM1050.15 316.12C1035.27 316.12 1026.87 309.88 1026.87 296.92C1026.87 286.36 1033.11 273.16 1051.35 272.68C1071.51 272.2 1097.19 287.08 1111.59 287.08C1126.95 287.08 1131.75 279.4 1131.75 270.04C1131.75 258.52 1125.51 247 1113.75 247C1103.67 247 1103.19 252.52 1089.03 252.52C1074.15 252.52 1059.27 243.88 1041.03 243.88C1018.95 243.88 979.588 258.76 979.588 277.48C979.588 293.32 998.068 289 998.068 306.52V366.76C998.068 386.2 978.148 388.12 978.148 403.96C978.148 412.6 984.628 418.36 995.668 418.36C1006.71 418.36 1011.51 404.68 1031.91 404.68C1051.11 404.68 1055.67 416.92 1089.75 416.92C1109.91 416.92 1131.75 405.88 1131.75 391.48C1131.75 382.84 1125.27 374.68 1114.71 374.68C1104.63 374.68 1095.27 387.64 1075.11 387.64C1051.11 387.64 1026.87 378.28 1026.87 354.28C1026.87 344.68 1031.43 337.24 1041.51 337.24C1054.95 337.24 1056.39 351.64 1067.43 351.64C1080.87 351.64 1088.55 319.48 1088.55 312.76C1088.55 307.96 1084.47 304.6 1079.43 304.6C1069.59 304.6 1068.39 316.12 1050.15 316.12ZM1244.72 416.92C1219.28 416.92 1207.76 406.36 1196.24 406.36C1181.12 406.36 1177.04 417.88 1166 417.88C1159.28 417.88 1148.48 410.68 1148.48 399.16C1148.48 378.52 1178 383.32 1178 357.4V292.84C1178 275.32 1161.68 274.84 1161.68 259.96C1161.68 252.28 1170.56 243.16 1179.2 243.16C1192.64 243.16 1196 254.68 1208 254.68C1216.4 254.68 1230.56 245.08 1253.12 245.08C1297.28 245.08 1328.96 279.88 1328.96 328.84C1328.96 377.8 1296.56 416.92 1244.72 416.92ZM1206.8 363.88C1206.8 379.24 1223.12 388.6 1243.04 388.6C1277.6 388.6 1295.84 362.68 1295.84 328.12C1295.84 295.96 1279.52 273.4 1251.68 273.4C1228.64 273.4 1206.8 286.12 1206.8 313.48V363.88ZM389.989 483.16C350.629 483.16 301.909 511.96 301.909 572.44C301.909 632.92 349.669 658.84 391.909 658.84C431.269 658.84 464.869 637 464.869 616.6C464.869 606.04 455.029 600.52 447.349 600.52C429.109 600.52 431.269 628.6 391.909 628.6C366.949 628.6 335.029 612.76 335.029 571.48C335.029 530.2 366.949 513.4 391.669 513.4C406.069 513.4 411.109 520.12 411.109 525.16C411.109 530.2 405.589 537.88 405.589 543.88C405.589 552.28 411.109 557.8 419.749 557.8C430.789 557.8 438.229 540.28 448.069 527.56C456.709 516.28 467.749 505.24 467.749 495.64C467.749 488.44 462.469 482.92 453.349 482.92C442.789 482.92 439.429 490.84 430.789 490.84C422.149 490.84 413.749 483.16 389.989 483.16ZM568.131 602.92C554.451 602.92 531.651 603.16 531.651 619.96C531.651 634.36 542.691 633.4 542.691 643.96C542.691 655.72 525.171 657.4 511.971 657.4C493.971 657.4 477.891 655.48 477.891 643.24C477.891 628.6 499.491 622.6 505.011 605.56L526.851 538.84C534.291 516.28 512.211 516.04 512.211 502.6C512.211 484.36 552.531 484.6 568.131 484.6C583.731 484.6 624.051 484.36 624.051 502.6C624.051 516.04 601.971 516.28 609.411 538.84L631.251 605.56C636.771 622.6 658.371 628.6 658.371 643.24C658.371 655.48 642.291 657.4 624.291 657.4C611.091 657.4 593.571 655.72 593.571 643.96C593.571 633.4 604.611 634.36 604.611 619.96C604.611 603.16 581.811 602.92 568.131 602.92ZM544.851 567.16C544.851 579.64 553.971 580.84 568.131 580.84C582.291 580.84 591.411 579.64 591.411 567.16C591.411 557.56 580.131 520.84 571.491 514.36C570.531 513.64 569.331 513.4 568.131 513.4C566.931 513.4 565.971 513.64 564.771 514.36C555.651 519.88 544.851 557.56 544.851 567.16ZM741.988 508.12C753.508 508.12 764.308 511.96 766.228 523.48C767.668 531.88 773.668 534.28 778.228 534.28C787.588 534.28 791.428 525.4 799.588 516.04C807.268 507.16 816.388 499.72 816.388 492.52C816.388 485.8 811.348 481.24 803.668 481.24C794.788 481.24 791.428 491.8 781.828 491.8C771.988 491.8 762.388 483.16 740.548 483.16C713.668 483.16 686.548 498.04 686.548 529C686.548 555.4 705.508 566.68 725.428 571.96L762.868 581.8C777.268 585.64 788.548 592.84 788.548 607C788.548 624.52 772.468 633.4 754.468 633.4C735.268 633.4 725.668 626.92 724.708 619C723.748 611.56 727.828 606.52 727.828 601.48C727.828 595 721.108 589.72 712.948 589.72C704.308 589.72 700.708 598.6 690.868 611.32C682.228 622.6 670.468 631.48 670.468 641.08C670.468 648.76 676.708 654.52 684.388 654.52C693.748 654.52 695.908 643.48 704.548 643.48C713.188 643.48 725.188 658.84 755.668 658.84C791.908 658.84 820.228 637.48 820.228 604.84C820.228 573.16 800.548 561.88 767.908 553L732.148 543.4C723.508 541 718.228 535.24 718.228 527.08C718.228 514.84 729.988 508.12 741.988 508.12ZM863.353 596.68L863.593 535.24C863.593 512.92 847.273 514.84 847.273 499.96C847.273 485.08 867.913 482.2 877.993 482.2C888.073 482.2 908.713 485.08 908.713 499.96C908.713 514.84 892.393 512.92 892.393 535.24V593.08C892.393 617.08 907.753 625 928.873 625C949.993 625 958.153 612.04 968.713 612.04C979.273 612.04 986.233 620.2 986.233 629.8C986.233 644.2 965.593 656.92 945.433 656.92C916.153 656.92 901.753 646.36 882.553 646.36C867.193 646.36 862.633 656.92 851.593 656.92C844.873 656.92 834.793 649.96 834.793 638.44C834.553 617.8 863.353 622.36 863.353 596.68ZM1045.53 657.88C1034.49 657.88 1012.89 655.96 1012.89 642.52C1012.89 629.08 1031.13 628.12 1031.13 605.08V533.08C1031.13 520.84 1026.57 512.92 1015.53 512.92C992.967 512.92 985.287 538.36 968.007 538.36C961.287 538.36 956.247 533.8 956.247 527.08C956.247 518.44 962.247 514.6 970.407 505.48C979.047 496.36 981.207 484.12 991.767 484.12C1000.41 484.12 1002.57 490.84 1013.37 490.84C1022.97 490.84 1032.57 484.12 1043.13 484.12C1062.57 484.12 1070.01 494.68 1087.05 494.68C1102.41 494.68 1109.37 481.24 1120.17 481.24C1126.89 481.24 1132.41 486.76 1132.41 492.52C1132.41 498.28 1126.41 505.24 1119.21 514.6C1112.25 523.72 1107.93 531.64 1098.81 531.64C1088.97 531.64 1084.17 517.96 1073.13 517.72C1064.97 517.48 1059.93 522.76 1059.93 533.32V605.08C1059.93 628.12 1078.17 629.08 1078.17 642.52C1078.17 655.96 1056.57 657.88 1045.53 657.88ZM1213.68 556.12C1198.8 556.12 1190.4 549.88 1190.4 536.92C1190.4 526.36 1196.64 513.16 1214.88 512.68C1235.04 512.2 1260.72 527.08 1275.12 527.08C1290.48 527.08 1295.28 519.4 1295.28 510.04C1295.28 498.52 1289.04 487 1277.28 487C1267.2 487 1266.72 492.52 1252.56 492.52C1237.68 492.52 1222.8 483.88 1204.56 483.88C1182.48 483.88 1143.12 498.76 1143.12 517.48C1143.12 533.32 1161.6 529 1161.6 546.52V606.76C1161.6 626.2 1141.68 628.12 1141.68 643.96C1141.68 652.6 1148.16 658.36 1159.2 658.36C1170.24 658.36 1175.04 644.68 1195.44 644.68C1214.64 644.68 1219.2 656.92 1253.28 656.92C1273.44 656.92 1295.28 645.88 1295.28 631.48C1295.28 622.84 1288.8 614.68 1278.24 614.68C1268.16 614.68 1258.8 627.64 1238.64 627.64C1214.64 627.64 1190.4 618.28 1190.4 594.28C1190.4 584.68 1194.96 577.24 1205.04 577.24C1218.48 577.24 1219.92 591.64 1230.96 591.64C1244.4 591.64 1252.08 559.48 1252.08 552.76C1252.08 547.96 1248 544.6 1242.96 544.6C1233.12 544.6 1231.92 556.12 1213.68 556.12Z" fill="#EBEBEB"/>
<path d="M40.78 59H42.58L43.64 55.72H48.36L49.42 59H51.24L47.16 47.06H44.84L40.78 59ZM44.24 53.82L45.88 48.8H46.14L47.76 53.82C47.84 54.08 47.72 54.24 47.44 54.24H44.56C44.3 54.24 44.16 54.08 44.24 53.82ZM52.7122 50.3V59H54.1522V53.16C54.1522 52.22 54.7122 51.4 55.5522 51.4C56.4322 51.4 56.7122 52.12 56.7122 53.04V59H58.1522V53.16C58.1522 52.22 58.7122 51.4 59.5722 51.4C60.4322 51.4 60.7122 52.12 60.7122 53.04V59H62.1722V52.6C62.1722 51.28 61.7122 50.02 60.2122 50.02C59.0722 50.02 58.4122 50.78 58.0922 51.42H57.9722C57.8122 50.8 57.2722 50.02 56.2122 50.02C55.2122 50.02 54.5722 50.6 54.2522 51.28H54.1522V50.3H52.7122ZM68.7844 59.28C71.3444 59.28 73.3444 57.38 73.3444 54.78V54.52C73.3444 51.92 71.3444 50.02 68.7844 50.02C66.2444 50.02 64.2444 51.92 64.2444 54.52V54.78C64.2444 57.38 66.2444 59.28 68.7844 59.28ZM65.8044 54.78V54.52C65.8044 52.72 67.0644 51.44 68.7844 51.44C70.5244 51.44 71.7844 52.72 71.7844 54.52V54.78C71.7844 56.58 70.5244 57.86 68.7844 57.86C67.0644 57.86 65.8044 56.58 65.8044 54.78ZM84.5166 54.52C84.5166 51.92 82.9166 50.04 80.2966 50.04C77.7966 50.04 75.8366 51.94 75.8366 54.54V54.82C75.8366 57.42 77.8766 59.32 80.4766 59.32C82.1966 59.32 83.6766 58.5 84.3166 57.18L82.9766 56.6C82.5366 57.46 81.6766 57.94 80.4966 57.94C78.7566 57.94 77.5566 56.8 77.4166 55.16H84.4966C84.5166 54.94 84.5166 54.72 84.5166 54.52ZM77.4166 53.86C77.6166 52.36 78.8366 51.42 80.2966 51.42C81.9966 51.42 82.9366 52.54 82.9566 53.86H77.4166ZM91.9487 59.28C94.3087 59.28 96.2887 57.4 96.2887 54.8V54.5C96.2887 51.9 94.3087 50.02 91.9487 50.02C90.4287 50.02 89.4287 50.78 88.9287 51.54H88.8287V45.98H87.2287V59H88.7687V57.7H88.8687C89.3887 58.5 90.3687 59.28 91.9487 59.28ZM88.7087 54.8V54.5C88.7087 52.7 89.9887 51.44 91.7087 51.44C93.4487 51.44 94.7287 52.7 94.7287 54.5V54.8C94.7287 56.6 93.4487 57.86 91.7087 57.86C89.9887 57.86 88.7087 56.6 88.7087 54.8ZM100.381 53.16L98.9209 52.9C99.1609 51.36 100.521 50.02 102.561 50.02C104.641 50.02 106.121 51.18 106.121 53.32V57.4C106.121 57.66 106.301 57.76 106.521 57.6L107.561 56.9L108.161 58.06L106.641 58.94C105.781 59.44 104.801 59.1 104.761 58.02V57.54H104.661C104.081 58.38 103.201 59.28 101.561 59.28C100.101 59.28 98.9009 58.38 98.9009 56.96V56.74C98.9009 55.14 100.281 54.54 101.201 54.28L104.581 53.32V53.14C104.581 51.98 103.721 51.34 102.541 51.34C101.381 51.34 100.541 52 100.381 53.16ZM100.421 56.82C100.421 57.58 101.001 58.02 101.861 58.02C103.301 58.02 104.621 56.64 104.621 55V54.52L101.741 55.36C101.041 55.58 100.421 55.94 100.421 56.72V56.82ZM126.385 60.6L127.685 59.82C126.805 58.56 125.365 56.2 125.365 52.68C125.365 49.14 126.805 46.82 127.685 45.56L126.385 44.78C125.325 46.4 123.805 48.86 123.805 52.68C123.805 56.5 125.325 58.96 126.385 60.6ZM133.437 47.06L134.417 56.94H134.697L136.057 47.06H138.237L139.797 56.94H140.077L141.057 47.06H142.457L141.157 59H138.857L137.297 49.06H136.997L135.617 59H133.317L132.037 47.06H133.437ZM153.025 47.06H144.545V48.58L147.305 48.46C147.725 48.44 147.965 48.68 147.965 49.08V56.96C147.965 57.38 147.725 57.62 147.305 57.58L144.545 57.46V59H153.025V57.46L150.265 57.58C149.845 57.62 149.605 57.38 149.605 56.96V49.08C149.605 48.68 149.845 48.44 150.265 48.46L153.025 48.58V47.06ZM156.317 47.06V59H157.957V54.78H161.317C163.677 54.78 165.177 53 165.177 50.9C165.177 48.8 163.677 47.06 161.317 47.06H156.317ZM157.957 53.3V48.52H161.017C162.477 48.52 163.517 49.42 163.517 50.9C163.517 52.4 162.477 53.3 161.017 53.3H157.957ZM169.589 59.82L170.889 60.6C171.969 58.96 173.469 56.5 173.469 52.68C173.469 48.86 171.969 46.4 170.889 44.78L169.589 45.56C170.469 46.82 171.909 49.14 171.909 52.68C171.909 56.2 170.469 58.56 169.589 59.82Z" fill="#EBEBEB"/>
</svg>
