<svg width="1600" height="900" viewBox="0 0 1600 900" fill="none" xmlns="http://www.w3.org/2000/svg">
<rect width="1600" height="900" fill="#7EE5E5"/>
<path d="M128.08 441.12L194.32 597.6L213.52 609.12V612H155.92V609.12L170.32 597.6L104.8 441.12H123.76H128.08ZM167.2 563.04H87.04L91.84 549.6H162.4L167.2 563.04ZM77.44 597.6L91.84 609.12V612H43.84V609.12L63.04 597.6L118.96 466.32L125.68 482.16L77.44 597.6ZM255.822 511.68C259.822 504.16 264.942 498.32 271.182 494.16C277.582 489.84 284.782 487.68 292.782 487.68C303.502 487.68 312.222 491.12 318.942 498C325.822 504.88 329.262 515.2 329.262 528.96V597.6L348.462 609.12V612H292.302V609.12L308.622 597.6V529.92C308.622 520.96 306.462 514.24 302.142 509.76C297.822 505.12 292.222 502.8 285.342 502.8C280.062 502.8 274.702 504.8 269.262 508.8C263.822 512.64 259.342 518.56 255.822 526.56V597.6L272.142 609.12V612H215.982V609.12L235.182 597.6V506.4L215.982 494.88V492H255.822V511.68ZM446.824 531.36V598.56H513.544L529.864 561.12H532.744V612H405.064V609.12L425.224 596.64V459.36L405.064 446.88V444H532.744V494.88H529.864L513.544 457.44H446.824V517.92H495.304L507.784 497.76H510.664V551.52H507.784L495.304 531.36H446.824ZM610.42 614.88L562.9 506.4L543.7 494.88V492H599.86V494.88L585.46 506.4L615.94 577.44L641.62 506.4L624.82 494.88V492H674.26V494.88L655.06 506.4L614.26 614.88H610.42ZM668.935 552C668.935 540.32 671.415 529.6 676.375 519.84C681.495 510.08 688.535 502.4 697.495 496.8C706.615 491.04 716.855 488.16 728.215 488.16C741.975 488.16 753.655 492.88 763.255 502.32C773.015 511.6 777.895 526.8 777.895 547.92H679.975V535.44H754.375C753.895 525.84 751.095 518 745.975 511.92C740.855 505.68 733.735 502.56 724.615 502.56C714.535 502.56 706.375 506.72 700.135 515.04C694.055 523.36 691.015 534.24 691.015 547.68C691.015 557.12 693.015 565.76 697.015 573.6C701.015 581.28 706.535 587.36 713.575 591.84C720.775 596.32 728.935 598.56 738.055 598.56C745.895 598.56 752.855 596.8 758.935 593.28C765.175 589.76 769.895 584.72 773.095 578.16L776.935 579.12C775.495 590 770.615 598.88 762.295 605.76C754.135 612.48 743.495 615.84 730.375 615.84C718.215 615.84 707.495 613.04 698.215 607.44C688.935 601.68 681.735 594 676.615 584.4C671.495 574.64 668.935 563.84 668.935 552ZM821.697 511.68C825.697 504.16 830.817 498.32 837.057 494.16C843.457 489.84 850.657 487.68 858.657 487.68C869.377 487.68 878.097 491.12 884.817 498C891.697 504.88 895.137 515.2 895.137 528.96V597.6L914.337 609.12V612H858.177V609.12L874.497 597.6V529.92C874.497 520.96 872.337 514.24 868.017 509.76C863.697 505.12 858.097 502.8 851.217 502.8C845.937 502.8 840.577 504.8 835.137 508.8C829.697 512.64 825.217 518.56 821.697 526.56V597.6L838.017 609.12V612H781.857V609.12L801.057 597.6V506.4L781.857 494.88V492H821.697V511.68ZM957.466 597.6L976.666 609.12V612H917.626V609.12L936.826 597.6V506.4L917.626 494.88V492H957.466V597.6ZM947.146 464.16C943.146 464.16 939.626 462.72 936.586 459.84C933.706 456.8 932.266 453.28 932.266 449.28C932.266 445.12 933.706 441.6 936.586 438.72C939.626 435.84 943.146 434.4 947.146 434.4C951.306 434.4 954.826 435.84 957.706 438.72C960.586 441.6 962.026 445.12 962.026 449.28C962.026 453.28 960.586 456.8 957.706 459.84C954.826 462.72 951.306 464.16 947.146 464.16ZM1019.88 511.68C1023.88 504.16 1029 498.32 1035.24 494.16C1041.64 489.84 1048.84 487.68 1056.84 487.68C1067.56 487.68 1076.28 491.12 1083 498C1089.88 504.88 1093.32 515.2 1093.32 528.96V597.6L1112.52 609.12V612H1056.36V609.12L1072.68 597.6V529.92C1072.68 520.96 1070.52 514.24 1066.2 509.76C1061.88 505.12 1056.28 502.8 1049.4 502.8C1044.12 502.8 1038.76 504.8 1033.32 508.8C1027.88 512.64 1023.4 518.56 1019.88 526.56V597.6L1036.2 609.12V612H980.035V609.12L999.235 597.6V506.4L980.035 494.88V492H1019.88V511.68ZM1142.2 625.68C1138.52 633.2 1138.84 639.12 1143.16 643.44C1147.64 647.76 1156.68 649.92 1170.28 649.92C1181 649.92 1189.48 648.08 1195.72 644.4C1201.96 640.88 1205.08 636.48 1205.08 631.2C1205.08 626.4 1202.6 622.72 1197.64 620.16C1192.68 617.76 1186.36 616.24 1178.68 615.6L1148.44 612.96L1142.2 625.68ZM1228.84 492V494.88L1204.84 506.4L1190.68 498.24L1176.76 492H1228.84ZM1159.96 570.24L1143.64 594.96L1185.64 599.04C1198.28 600.16 1208.12 603.44 1215.16 608.88C1222.2 614.16 1225.72 621.04 1225.72 629.52C1225.72 639.92 1220.44 648 1209.88 653.76C1199.48 659.52 1185.16 662.4 1166.92 662.4C1146.76 662.4 1128.12 658.72 1111 651.36V649.44L1138.6 611.52L1116.28 609.12V607.2L1152.76 567.36L1159.96 570.24ZM1167.4 578.4C1157.96 578.4 1149.56 576.4 1142.2 572.4C1134.84 568.4 1129.08 562.96 1124.92 556.08C1120.92 549.2 1118.92 541.68 1118.92 533.52C1118.92 525.04 1120.92 517.36 1124.92 510.48C1129.08 503.6 1134.84 498.16 1142.2 494.16C1149.56 490.16 1157.96 488.16 1167.4 488.16C1176.84 488.16 1185.24 490.16 1192.6 494.16C1199.96 498.16 1205.64 503.6 1209.64 510.48C1213.8 517.36 1215.88 525.04 1215.88 533.52C1215.88 541.68 1213.8 549.2 1209.64 556.08C1205.48 562.96 1199.72 568.4 1192.36 572.4C1185 576.4 1176.68 578.4 1167.4 578.4ZM1138.6 530.4C1138.6 540 1141.4 548.24 1147 555.12C1152.6 562 1160.36 565.44 1170.28 565.44C1178.28 565.44 1184.6 562.72 1189.24 557.28C1193.88 551.84 1196.2 544.88 1196.2 536.4C1196.2 526.48 1193.4 518.16 1187.8 511.44C1182.36 504.56 1174.68 501.12 1164.76 501.12C1156.76 501.12 1150.36 503.92 1145.56 509.52C1140.92 514.96 1138.6 521.92 1138.6 530.4ZM1298.87 520.56C1302.39 514.8 1306.79 510.56 1312.07 507.84C1317.51 504.96 1323.11 503.52 1328.87 503.52C1336.71 503.52 1343.03 505.92 1347.83 510.72C1352.63 515.52 1355.03 522.32 1355.03 531.12V547.44C1329.91 550.64 1312.47 555.76 1302.71 562.8C1293.11 569.68 1288.31 577.92 1288.31 587.52C1288.31 593.76 1289.91 599.04 1293.11 603.36C1296.31 607.52 1300.23 610.56 1304.87 612.48C1309.67 614.4 1314.39 615.36 1319.03 615.36C1328.47 615.36 1336.23 613.12 1342.31 608.64C1348.39 604 1353.51 597.44 1357.67 588.96V612H1394.39V609.12L1375.19 597.6V530.16C1375.19 516.24 1371.59 505.68 1364.39 498.48C1357.19 491.28 1347.51 487.68 1335.35 487.68C1325.43 487.68 1316.71 490.72 1309.19 496.8C1301.67 502.72 1296.95 510.32 1295.03 519.6L1298.87 520.56ZM1355.51 558.96C1355.51 568.24 1353.99 575.92 1350.95 582C1347.91 588.08 1344.07 592.56 1339.43 595.44C1334.95 598.16 1330.39 599.52 1325.75 599.52C1320.95 599.52 1317.03 598.32 1313.99 595.92C1310.95 593.52 1309.43 590.24 1309.43 586.08C1309.43 579.36 1313.19 573.76 1320.71 569.28C1328.23 564.8 1339.83 561.36 1355.51 558.96ZM1433.62 464.16H1430.74L1389.94 503.04V505.92H1412.98V580.32C1412.98 591.68 1415.62 600.4 1420.9 606.48C1426.34 612.4 1433.94 615.36 1443.7 615.36C1451.06 615.36 1457.14 613.44 1461.94 609.6C1466.9 605.76 1470.26 600.8 1472.02 594.72L1468.9 593.76C1464.26 598.56 1458.74 600.96 1452.34 600.96C1447.22 600.96 1442.82 599.28 1439.14 595.92C1435.46 592.4 1433.62 586.88 1433.62 579.36V464.16ZM1427.38 505.92H1469.14V492H1427.38V505.92ZM198.4 780C197.12 789.92 193.76 798.8 188.32 806.64C183.04 814.48 175.84 820.64 166.72 825.12C157.6 829.6 147.04 831.84 135.04 831.84C118.56 831.84 103.92 827.92 91.12 820.08C78.32 812.24 68.32 801.68 61.12 788.4C54.08 774.96 50.56 760.16 50.56 744C50.56 727.84 54 713.12 60.88 699.84C67.92 686.4 77.68 675.76 90.16 667.92C102.64 660.08 116.8 656.16 132.64 656.16C147.04 656.16 159.6 658.48 170.32 663.12C181.04 667.76 189.92 673.36 196.96 679.92L182.08 712.08H179.2C170.72 686.32 154.24 673.44 129.76 673.44C119.52 673.44 110.24 676.32 101.92 682.08C93.6 687.68 87.04 695.44 82.24 705.36C77.44 715.12 75.04 726 75.04 738C75.04 751.44 77.92 763.84 83.68 775.2C89.6 786.56 97.84 795.6 108.4 802.32C118.96 808.88 130.96 812.16 144.4 812.16C156.08 812.16 166.08 809.12 174.4 803.04C182.88 796.8 189.6 788.8 194.56 779.04L198.4 780ZM244.572 813.6L263.772 825.12V828H204.732V825.12L223.932 813.6V722.4L204.732 710.88V708H244.572V813.6ZM234.252 680.16C230.252 680.16 226.732 678.72 223.692 675.84C220.812 672.8 219.372 669.28 219.372 665.28C219.372 661.12 220.812 657.6 223.692 654.72C226.732 651.84 230.252 650.4 234.252 650.4C238.412 650.4 241.932 651.84 244.812 654.72C247.692 657.6 249.132 661.12 249.132 665.28C249.132 669.28 247.692 672.8 244.812 675.84C241.932 678.72 238.412 680.16 234.252 680.16ZM303.042 680.16H300.162L259.362 719.04V721.92H282.402V796.32C282.402 807.68 285.042 816.4 290.322 822.48C295.762 828.4 303.362 831.36 313.122 831.36C320.482 831.36 326.562 829.44 331.362 825.6C336.322 821.76 339.682 816.8 341.442 810.72L338.322 809.76C333.682 814.56 328.162 816.96 321.762 816.96C316.642 816.96 312.242 815.28 308.562 811.92C304.882 808.4 303.042 802.88 303.042 795.36V680.16ZM296.802 721.92H338.562V708H296.802V721.92ZM350.567 862.08V859.2C363.047 857.76 373.287 854.4 381.287 849.12C389.287 843.84 396.087 835.52 401.687 824.16L357.287 722.4L338.087 710.88V708H394.247V710.88L379.847 722.4L410.328 794.4L436.007 722.4L419.208 710.88V708H468.648V710.88L449.447 722.4L407.207 833.76C404.487 841.12 400.647 848.64 395.687 856.32C390.727 864.16 385.607 870.72 380.327 876L350.567 862.08ZM621.308 795.36L681.788 660H721.628V662.88L701.468 675.36V812.64L721.628 825.12V828H659.708V825.12L679.868 812.64V694.32L618.428 830.88H615.548L554.108 708.24V812.64L574.268 825.12V828H520.508V825.12L540.668 812.64V675.36L520.508 662.88V660H554.108L621.308 795.36ZM743.311 736.56C746.831 730.8 751.231 726.56 756.511 723.84C761.951 720.96 767.551 719.52 773.311 719.52C781.151 719.52 787.471 721.92 792.271 726.72C797.071 731.52 799.471 738.32 799.471 747.12V763.44C774.351 766.64 756.911 771.76 747.151 778.8C737.551 785.68 732.751 793.92 732.751 803.52C732.751 809.76 734.351 815.04 737.551 819.36C740.751 823.52 744.671 826.56 749.311 828.48C754.111 830.4 758.831 831.36 763.471 831.36C772.911 831.36 780.671 829.12 786.751 824.64C792.831 820 797.951 813.44 802.111 804.96V828H838.831V825.12L819.631 813.6V746.16C819.631 732.24 816.031 721.68 808.831 714.48C801.631 707.28 791.951 703.68 779.791 703.68C769.871 703.68 761.151 706.72 753.631 712.8C746.111 718.72 741.391 726.32 739.471 735.6L743.311 736.56ZM799.951 774.96C799.951 784.24 798.431 791.92 795.391 798C792.351 804.08 788.511 808.56 783.871 811.44C779.391 814.16 774.831 815.52 770.191 815.52C765.391 815.52 761.471 814.32 758.431 811.92C755.391 809.52 753.871 806.24 753.871 802.08C753.871 795.36 757.631 789.76 765.151 785.28C772.671 780.8 784.271 777.36 799.951 774.96ZM918.957 732.48C916.877 726.08 912.317 722.88 905.277 722.88C900.317 722.88 895.837 724.48 891.837 727.68C887.837 730.88 884.557 735.2 881.997 740.64V812.64L901.197 825.12V828H842.157V825.12L861.357 812.64V722.4L842.157 710.88V708H881.997V727.68C885.197 720.32 889.677 714.48 895.437 710.16C901.197 705.84 907.437 703.68 914.157 703.68C920.557 703.68 925.837 704.88 929.997 707.28L921.357 732.48H918.957ZM969.484 813.6L988.684 825.12V828H929.644V825.12L948.844 813.6V665.76L929.644 654.24V651.36H969.484V813.6ZM967.324 740.16C971.164 729.28 977.324 720.56 985.804 714C994.444 707.44 1003.88 704.16 1014.12 704.16C1022.44 704.16 1029.48 706.32 1035.24 710.64C1041 714.96 1043.88 721.76 1043.88 731.04C1043.88 741.76 1038.28 751.44 1027.08 760.08C1016.04 768.56 996.844 774.96 969.484 779.28L967.324 740.16ZM969.484 767.04C987.084 763.84 1000.36 759.28 1009.32 753.36C1018.28 747.28 1022.76 740.48 1022.76 732.96C1022.76 728.96 1021.32 726 1018.44 724.08C1015.56 722 1011.88 720.96 1007.4 720.96C1001.8 720.96 996.044 722.88 990.124 726.72C984.364 730.4 979.484 735.76 975.484 742.8C971.484 749.84 969.484 757.92 969.484 767.04ZM1003.32 763.68L1028.52 801.6C1033.32 808.8 1037.4 814.08 1040.76 817.44C1044.12 820.8 1048.36 823.76 1053.48 826.32L1052.52 828C1045.32 828.32 1039.56 828.24 1035.24 827.76C1031.08 827.28 1027.32 826 1023.96 823.92C1020.6 821.84 1017.48 818.48 1014.6 813.84L985.084 767.52L1003.32 763.68ZM1056.85 768C1056.85 756.32 1059.33 745.6 1064.29 735.84C1069.41 726.08 1076.45 718.4 1085.41 712.8C1094.53 707.04 1104.77 704.16 1116.13 704.16C1129.89 704.16 1141.57 708.88 1151.17 718.32C1160.93 727.6 1165.81 742.8 1165.81 763.92H1067.89V751.44H1142.29C1141.81 741.84 1139.01 734 1133.89 727.92C1128.77 721.68 1121.65 718.56 1112.53 718.56C1102.45 718.56 1094.29 722.72 1088.05 731.04C1081.97 739.36 1078.93 750.24 1078.93 763.68C1078.93 773.12 1080.93 781.76 1084.93 789.6C1088.93 797.28 1094.45 803.36 1101.49 807.84C1108.69 812.32 1116.85 814.56 1125.97 814.56C1133.81 814.56 1140.77 812.8 1146.85 809.28C1153.09 805.76 1157.81 800.72 1161.01 794.16L1164.85 795.12C1163.41 806 1158.53 814.88 1150.21 821.76C1142.05 828.48 1131.41 831.84 1118.29 831.84C1106.13 831.84 1095.41 829.04 1086.13 823.44C1076.85 817.68 1069.65 810 1064.53 800.4C1059.41 790.64 1056.85 779.84 1056.85 768ZM1212.47 680.16H1209.59L1168.79 719.04V721.92H1191.83V796.32C1191.83 807.68 1194.47 816.4 1199.75 822.48C1205.19 828.4 1212.79 831.36 1222.55 831.36C1229.91 831.36 1235.99 829.44 1240.79 825.6C1245.75 821.76 1249.11 816.8 1250.87 810.72L1247.75 809.76C1243.11 814.56 1237.59 816.96 1231.19 816.96C1226.07 816.96 1221.67 815.28 1217.99 811.92C1214.31 808.4 1212.47 802.88 1212.47 795.36V680.16ZM1206.23 721.92H1247.99V708H1206.23V721.92ZM1276.8 828.96C1272.32 828.96 1268.56 827.44 1265.52 824.4C1262.48 821.36 1260.96 817.6 1260.96 813.12C1260.96 808.64 1262.48 804.88 1265.52 801.84C1268.56 798.8 1272.32 797.28 1276.8 797.28C1281.12 797.28 1284.8 798.8 1287.84 801.84C1291.04 804.88 1292.64 808.64 1292.64 813.12C1292.64 817.6 1291.04 821.36 1287.84 824.4C1284.8 827.44 1281.12 828.96 1276.8 828.96Z" fill="#00334C"/>
<path d="M42.7 59H41.26V47.06H43.74L45.96 57.56H46.06L48.26 47.06H50.74V59H49.32V48.8H49.22L47.06 59H44.92L42.8 48.8H42.7V59ZM54.8122 53.16L53.3522 52.9C53.5922 51.36 54.9522 50.02 56.9922 50.02C59.0722 50.02 60.5522 51.18 60.5522 53.32V57.4C60.5522 57.66 60.7322 57.76 60.9522 57.6L61.9922 56.9L62.5922 58.06L61.0722 58.94C60.2122 59.44 59.2322 59.1 59.1922 58.02V57.54H59.0922C58.5122 58.38 57.6322 59.28 55.9922 59.28C54.5322 59.28 53.3322 58.38 53.3322 56.96V56.74C53.3322 55.14 54.7122 54.54 55.6322 54.28L59.0122 53.32V53.14C59.0122 51.98 58.1522 51.34 56.9722 51.34C55.8122 51.34 54.9722 52 54.8122 53.16ZM54.8522 56.82C54.8522 57.58 55.4322 58.02 56.2922 58.02C57.7322 58.02 59.0522 56.64 59.0522 55V54.52L56.1722 55.36C55.4722 55.58 54.8522 55.94 54.8522 56.72V56.82ZM66.9044 50.3H64.3044V51.8L66.0244 51.68C66.4244 51.66 66.6644 51.9 66.6644 52.3V57C66.6644 57.4 66.4244 57.64 66.0244 57.62L64.2244 57.5V59H72.1244V57.5L68.8644 57.62C68.4644 57.64 68.2244 57.42 68.2244 57.02V54.98C68.2244 52.68 69.4044 51.44 70.7244 51.44C71.8244 51.44 72.3244 52.12 72.3244 53.24V53.78L73.8244 53.68V53C73.8244 51.3 72.9844 50.02 71.1244 50.02C69.8044 50.02 68.8244 50.86 68.2844 51.94H68.1844V51.58C68.1844 50.76 67.7244 50.3 66.9044 50.3ZM76.5566 45.98V59H78.1566V56.16L79.8166 54.72L83.2566 59H85.1966L81.0166 53.8L85.0366 50.3H82.8566L78.1566 54.42V45.98H76.5566ZM95.9087 54.52C95.9087 51.92 94.3087 50.04 91.6887 50.04C89.1887 50.04 87.2287 51.94 87.2287 54.54V54.82C87.2287 57.42 89.2687 59.32 91.8687 59.32C93.5887 59.32 95.0687 58.5 95.7087 57.18L94.3687 56.6C93.9287 57.46 93.0687 57.94 91.8887 57.94C90.1487 57.94 88.9487 56.8 88.8087 55.16H95.8887C95.9087 54.94 95.9087 54.72 95.9087 54.52ZM88.8087 53.86C89.0087 52.36 90.2287 51.42 91.6887 51.42C93.3887 51.42 94.3287 52.54 94.3487 53.86H88.8087ZM101.081 52.12V55.68C101.081 58.1 102.421 59.32 104.521 59.32C106.561 59.32 107.761 58.04 107.841 55.58L106.361 55.26C106.321 57.1 105.721 57.88 104.521 57.88C103.341 57.88 102.641 57.12 102.641 55.62V52.12C102.641 51.82 102.821 51.64 103.121 51.64L106.621 51.7V50.3H102.641V47.18H101.081V50.3H97.8609V51.7L100.601 51.66C100.901 51.66 101.081 51.82 101.081 52.12ZM126.385 60.6L127.685 59.82C126.805 58.56 125.365 56.2 125.365 52.68C125.365 49.14 126.805 46.82 127.685 45.56L126.385 44.78C125.325 46.4 123.805 48.86 123.805 52.68C123.805 56.5 125.325 58.96 126.385 60.6ZM133.437 47.06L134.417 56.94H134.697L136.057 47.06H138.237L139.797 56.94H140.077L141.057 47.06H142.457L141.157 59H138.857L137.297 49.06H136.997L135.617 59H133.317L132.037 47.06H133.437ZM153.025 47.06H144.545V48.58L147.305 48.46C147.725 48.44 147.965 48.68 147.965 49.08V56.96C147.965 57.38 147.725 57.62 147.305 57.58L144.545 57.46V59H153.025V57.46L150.265 57.58C149.845 57.62 149.605 57.38 149.605 56.96V49.08C149.605 48.68 149.845 48.44 150.265 48.46L153.025 48.58V47.06ZM156.317 47.06V59H157.957V54.78H161.317C163.677 54.78 165.177 53 165.177 50.9C165.177 48.8 163.677 47.06 161.317 47.06H156.317ZM157.957 53.3V48.52H161.017C162.477 48.52 163.517 49.42 163.517 50.9C163.517 52.4 162.477 53.3 161.017 53.3H157.957ZM169.589 59.82L170.889 60.6C171.969 58.96 173.469 56.5 173.469 52.68C173.469 48.86 171.969 46.4 170.889 44.78L169.589 45.56C170.469 46.82 171.909 49.14 171.909 52.68C171.909 56.2 170.469 58.56 169.589 59.82Z" fill="#00334C"/>
</svg>
