<svg width="1600" height="900" viewBox="0 0 1600 900" fill="none" xmlns="http://www.w3.org/2000/svg">
<rect width="1600" height="900" fill="#7EE5E5"/>
<path d="M58.08 78.56L68.16 56H74.8V56.48L71.44 58.56V81.44L74.8 83.52V84H64.48V83.52L67.84 81.44V61.72L57.6 84.48H57.12L46.88 64.04V81.44L50.24 83.52V84H41.28V83.52L44.64 81.44V58.56L41.28 56.48V56H46.88L58.08 78.56ZM79.2137 68.76C79.8004 67.8 80.5337 67.0933 81.4137 66.64C82.3204 66.16 83.2537 65.92 84.2137 65.92C85.5204 65.92 86.5737 66.32 87.3737 67.12C88.1737 67.92 88.5737 69.0533 88.5737 70.52V73.24C84.3871 73.7733 81.4804 74.6267 79.8537 75.8C78.2537 76.9467 77.4537 78.32 77.4537 79.92C77.4537 80.96 77.7204 81.84 78.2537 82.56C78.7871 83.2533 79.4404 83.76 80.2137 84.08C81.0137 84.4 81.8004 84.56 82.5737 84.56C84.1471 84.56 85.4404 84.1867 86.4537 83.44C87.4671 82.6667 88.3204 81.5733 89.0137 80.16V84H95.1337V83.52L91.9337 81.6V70.36C91.9337 68.04 91.3337 66.28 90.1337 65.08C88.9337 63.88 87.3204 63.28 85.2937 63.28C83.6404 63.28 82.1871 63.7867 80.9337 64.8C79.6804 65.7867 78.8937 67.0533 78.5737 68.6L79.2137 68.76ZM88.6537 75.16C88.6537 76.7067 88.4004 77.9867 87.8937 79C87.3871 80.0133 86.7471 80.76 85.9737 81.24C85.2271 81.6933 84.4671 81.92 83.6937 81.92C82.8937 81.92 82.2404 81.72 81.7337 81.32C81.2271 80.92 80.9737 80.3733 80.9737 79.68C80.9737 78.56 81.6004 77.6267 82.8537 76.88C84.1071 76.1333 86.0404 75.56 88.6537 75.16ZM109.288 68.08C108.941 67.0133 108.181 66.48 107.008 66.48C106.181 66.48 105.435 66.7467 104.768 67.28C104.101 67.8133 103.555 68.5333 103.128 69.44V81.44L106.328 83.52V84H96.4881V83.52L99.6881 81.44V66.4L96.4881 64.48V64H103.128V67.28C103.661 66.0533 104.408 65.08 105.368 64.36C106.328 63.64 107.368 63.28 108.488 63.28C109.555 63.28 110.435 63.48 111.128 63.88L109.688 68.08H109.288ZM118.509 81.6L121.709 83.52V84H111.869V83.52L115.069 81.6V56.96L111.869 55.04V54.56H118.509V81.6ZM118.149 69.36C118.789 67.5467 119.816 66.0933 121.229 65C122.669 63.9067 124.243 63.36 125.949 63.36C127.336 63.36 128.509 63.72 129.469 64.44C130.429 65.16 130.909 66.2933 130.909 67.84C130.909 69.6267 129.976 71.24 128.109 72.68C126.269 74.0933 123.069 75.16 118.509 75.88L118.149 69.36ZM118.509 73.84C121.443 73.3067 123.656 72.5467 125.149 71.56C126.643 70.5467 127.389 69.4133 127.389 68.16C127.389 67.4933 127.149 67 126.669 66.68C126.189 66.3333 125.576 66.16 124.829 66.16C123.896 66.16 122.936 66.48 121.949 67.12C120.989 67.7333 120.176 68.6267 119.509 69.8C118.843 70.9733 118.509 72.32 118.509 73.84ZM124.149 73.28L128.349 79.6C129.149 80.8 129.829 81.68 130.389 82.24C130.949 82.8 131.656 83.2933 132.509 83.72L132.349 84C131.149 84.0533 130.189 84.04 129.469 83.96C128.776 83.88 128.149 83.6667 127.589 83.32C127.029 82.9733 126.509 82.4133 126.029 81.64L121.109 73.92L124.149 73.28ZM133.871 74C133.871 72.0533 134.284 70.2667 135.111 68.64C135.964 67.0133 137.138 65.7333 138.631 64.8C140.151 63.84 141.858 63.36 143.751 63.36C146.044 63.36 147.991 64.1467 149.591 65.72C151.218 67.2667 152.031 69.8 152.031 73.32H135.711V71.24H148.111C148.031 69.64 147.564 68.3333 146.711 67.32C145.858 66.28 144.671 65.76 143.151 65.76C141.471 65.76 140.111 66.4533 139.071 67.84C138.058 69.2267 137.551 71.04 137.551 73.28C137.551 74.8533 137.884 76.2933 138.551 77.6C139.218 78.88 140.138 79.8933 141.311 80.64C142.511 81.3867 143.871 81.76 145.391 81.76C146.698 81.76 147.858 81.4667 148.871 80.88C149.911 80.2933 150.698 79.4533 151.231 78.36L151.871 78.52C151.631 80.3333 150.818 81.8133 149.431 82.96C148.071 84.08 146.298 84.64 144.111 84.64C142.084 84.64 140.298 84.1733 138.751 83.24C137.204 82.28 136.004 81 135.151 79.4C134.298 77.7733 133.871 75.9733 133.871 74ZM160.608 59.36H160.128L153.328 65.84V66.32H157.168V78.72C157.168 80.6133 157.608 82.0667 158.488 83.08C159.394 84.0667 160.661 84.56 162.288 84.56C163.514 84.56 164.528 84.24 165.328 83.6C166.154 82.96 166.714 82.1333 167.008 81.12L166.488 80.96C165.714 81.76 164.794 82.16 163.728 82.16C162.874 82.16 162.141 81.88 161.528 81.32C160.914 80.7333 160.608 79.8133 160.608 78.56V59.36ZM159.568 66.32H166.528V64H159.568V66.32ZM187.734 84.48L179.814 66.4L176.614 64.48V64H185.974V64.48L183.574 66.4L188.654 78.24L192.934 66.4L190.134 64.48V64H198.374V64.48L195.174 66.4L188.374 84.48H187.734ZM202.852 84.16C202.105 84.16 201.479 83.9067 200.972 83.4C200.465 82.8933 200.212 82.2667 200.212 81.52C200.212 80.7733 200.465 80.1467 200.972 79.64C201.479 79.1333 202.105 78.88 202.852 78.88C203.572 78.88 204.185 79.1333 204.692 79.64C205.225 80.1467 205.492 80.7733 205.492 81.52C205.492 82.2667 205.225 82.8933 204.692 83.4C204.185 83.9067 203.572 84.16 202.852 84.16ZM218.796 84.64C216.663 84.64 214.81 84.0133 213.236 82.76C211.69 81.48 210.503 79.7333 209.676 77.52C208.876 75.3067 208.476 72.8 208.476 70C208.476 67.2 208.876 64.6933 209.676 62.48C210.503 60.24 211.69 58.4933 213.236 57.24C214.81 55.96 216.663 55.32 218.796 55.32C220.93 55.32 222.77 55.96 224.316 57.24C225.89 58.4933 227.076 60.24 227.876 62.48C228.703 64.6933 229.116 67.2 229.116 70C229.116 72.8 228.703 75.3067 227.876 77.52C227.076 79.7333 225.89 81.48 224.316 82.76C222.77 84.0133 220.93 84.64 218.796 84.64ZM211.156 69C211.156 71.2133 211.49 73.2267 212.156 75.04C212.823 76.8533 213.783 78.2933 215.036 79.36C216.29 80.4267 217.77 80.96 219.476 80.96C221.69 80.96 223.396 80.04 224.596 78.2C225.823 76.36 226.436 74.0267 226.436 71.2C226.436 68.9867 226.103 66.96 225.436 65.12C224.796 63.2533 223.85 61.7733 222.596 60.68C221.343 59.56 219.863 59 218.156 59C216.69 59 215.423 59.4533 214.356 60.36C213.316 61.24 212.516 62.44 211.956 63.96C211.423 65.48 211.156 67.16 211.156 69ZM243.045 84.64C240.911 84.64 239.058 84.0133 237.485 82.76C235.938 81.48 234.751 79.7333 233.925 77.52C233.125 75.3067 232.725 72.8 232.725 70C232.725 67.2 233.125 64.6933 233.925 62.48C234.751 60.24 235.938 58.4933 237.485 57.24C239.058 55.96 240.911 55.32 243.045 55.32C245.178 55.32 247.018 55.96 248.565 57.24C250.138 58.4933 251.325 60.24 252.125 62.48C252.951 64.6933 253.365 67.2 253.365 70C253.365 72.8 252.951 75.3067 252.125 77.52C251.325 79.7333 250.138 81.48 248.565 82.76C247.018 84.0133 245.178 84.64 243.045 84.64ZM235.405 69C235.405 71.2133 235.738 73.2267 236.405 75.04C237.071 76.8533 238.031 78.2933 239.285 79.36C240.538 80.4267 242.018 80.96 243.725 80.96C245.938 80.96 247.645 80.04 248.845 78.2C250.071 76.36 250.685 74.0267 250.685 71.2C250.685 68.9867 250.351 66.96 249.685 65.12C249.045 63.2533 248.098 61.7733 246.845 60.68C245.591 59.56 244.111 59 242.405 59C240.938 59 239.671 59.4533 238.605 60.36C237.565 61.24 236.765 62.44 236.205 63.96C235.671 65.48 235.405 67.16 235.405 69ZM264.017 81.44L267.217 83.52V84H257.377V83.52L260.577 81.44V61.04L256.257 60.32V59.84L263.537 55.52H264.017V81.44ZM279.72 73.04C279.72 69.7867 280.187 66.6533 281.12 63.64C282.08 60.6 283.574 57.8667 285.6 55.44H288.92C287.054 57.9467 285.64 60.7067 284.68 63.72C283.747 66.7333 283.28 69.8267 283.28 73C283.28 76.0933 283.747 79.1333 284.68 82.12C285.64 85.08 287.04 87.8133 288.88 90.32H285.6C283.574 87.9733 282.08 85.32 281.12 82.36C280.187 79.3733 279.72 76.2667 279.72 73.04ZM303.792 63.36C305.659 63.36 307.286 63.84 308.672 64.8C310.086 65.7333 311.166 67.0133 311.912 68.64C312.686 70.24 313.072 72.0267 313.072 74C313.072 75.9467 312.672 77.7333 311.872 79.36C311.072 80.9867 309.966 82.28 308.552 83.24C307.166 84.1733 305.579 84.64 303.792 84.64C302.352 84.64 301.072 84.2667 299.952 83.52C298.859 82.7733 297.979 81.76 297.312 80.48L294.352 84.48H293.872V56.96L290.672 55.04V54.56H297.312V67.32C297.899 66.0933 298.739 65.1333 299.832 64.44C300.926 63.72 302.246 63.36 303.792 63.36ZM309.232 74.72C309.232 73.2533 308.979 71.84 308.472 70.48C307.966 69.12 307.219 68.0133 306.232 67.16C305.246 66.3067 304.072 65.88 302.712 65.88C301.059 65.88 299.712 66.56 298.672 67.92C297.659 69.28 297.152 71 297.152 73.08C297.152 75.8267 297.712 78.0267 298.832 79.68C299.952 81.3067 301.499 82.12 303.472 82.12C305.259 82.12 306.659 81.4267 307.672 80.04C308.712 78.6267 309.232 76.8533 309.232 74.72ZM316.19 74C316.19 72.0533 316.603 70.2667 317.43 68.64C318.283 67.0133 319.456 65.7333 320.95 64.8C322.47 63.84 324.176 63.36 326.07 63.36C328.363 63.36 330.31 64.1467 331.91 65.72C333.536 67.2667 334.35 69.8 334.35 73.32H318.03V71.24H330.43C330.35 69.64 329.883 68.3333 329.03 67.32C328.176 66.28 326.99 65.76 325.47 65.76C323.79 65.76 322.43 66.4533 321.39 67.84C320.376 69.2267 319.87 71.04 319.87 73.28C319.87 74.8533 320.203 76.2933 320.87 77.6C321.536 78.88 322.456 79.8933 323.63 80.64C324.83 81.3867 326.19 81.76 327.71 81.76C329.016 81.76 330.176 81.4667 331.19 80.88C332.23 80.2933 333.016 79.4533 333.55 78.36L334.19 78.52C333.95 80.3333 333.136 81.8133 331.75 82.96C330.39 84.08 328.616 84.64 326.43 84.64C324.403 84.64 322.616 84.1733 321.07 83.24C319.523 82.28 318.323 81 317.47 79.4C316.616 77.7733 316.19 75.9733 316.19 74ZM342.926 59.36H342.446L335.646 65.84V66.32H339.486V78.72C339.486 80.6133 339.926 82.0667 340.806 83.08C341.713 84.0667 342.98 84.56 344.606 84.56C345.833 84.56 346.846 84.24 347.646 83.6C348.473 82.96 349.033 82.1333 349.326 81.12L348.806 80.96C348.033 81.76 347.113 82.16 346.046 82.16C345.193 82.16 344.46 81.88 343.846 81.32C343.233 80.7333 342.926 79.8133 342.926 78.56V59.36ZM341.886 66.32H348.846V64H341.886V66.32ZM353.087 68.76C353.674 67.8 354.407 67.0933 355.287 66.64C356.194 66.16 357.127 65.92 358.087 65.92C359.394 65.92 360.447 66.32 361.247 67.12C362.047 67.92 362.447 69.0533 362.447 70.52V73.24C358.261 73.7733 355.354 74.6267 353.727 75.8C352.127 76.9467 351.327 78.32 351.327 79.92C351.327 80.96 351.594 81.84 352.127 82.56C352.661 83.2533 353.314 83.76 354.087 84.08C354.887 84.4 355.674 84.56 356.447 84.56C358.021 84.56 359.314 84.1867 360.327 83.44C361.341 82.6667 362.194 81.5733 362.887 80.16V84H369.007V83.52L365.807 81.6V70.36C365.807 68.04 365.207 66.28 364.007 65.08C362.807 63.88 361.194 63.28 359.167 63.28C357.514 63.28 356.061 63.7867 354.807 64.8C353.554 65.7867 352.767 67.0533 352.447 68.6L353.087 68.76ZM362.527 75.16C362.527 76.7067 362.274 77.9867 361.767 79C361.261 80.0133 360.621 80.76 359.847 81.24C359.101 81.6933 358.341 81.92 357.567 81.92C356.767 81.92 356.114 81.72 355.607 81.32C355.101 80.92 354.847 80.3733 354.847 79.68C354.847 78.56 355.474 77.6267 356.727 76.88C357.981 76.1333 359.914 75.56 362.527 75.16ZM379.802 73.04C379.802 76.2667 379.322 79.3733 378.362 82.36C377.428 85.32 375.948 87.9733 373.922 90.32H370.642C372.482 87.8133 373.868 85.08 374.802 82.12C375.762 79.1333 376.242 76.0933 376.242 73C376.242 69.8267 375.762 66.7333 374.802 63.72C373.868 60.7067 372.468 57.9467 370.602 55.44H373.922C375.948 57.8667 377.428 60.6 378.362 63.64C379.322 66.6533 379.802 69.7867 379.802 73.04Z" fill="#00334C"/>
<path d="M128.08 453.12L194.32 609.6L213.52 621.12V624H155.92V621.12L170.32 609.6L104.8 453.12H123.76H128.08ZM167.2 575.04H87.04L91.84 561.6H162.4L167.2 575.04ZM77.44 609.6L91.84 621.12V624H43.84V621.12L63.04 609.6L118.96 478.32L125.68 494.16L77.44 609.6ZM336.736 626.88L288.976 470.4L269.776 458.88V456H324.976V458.88L310.576 470.4L343.216 581.76L380.416 473.28L387.376 491.28L340.576 626.88H336.736ZM420.976 626.88L366.736 470.4L352.336 458.88V456H402.496V458.88L388.096 470.4L425.776 581.28L458.416 470.4L441.616 458.88V456H490.576V458.88L471.376 470.4L424.816 626.88H420.976ZM479.194 564C479.194 552.32 481.674 541.6 486.634 531.84C491.754 522.08 498.794 514.4 507.754 508.8C516.874 503.04 527.114 500.16 538.474 500.16C552.234 500.16 563.914 504.88 573.514 514.32C583.274 523.6 588.154 538.8 588.154 559.92H490.234V547.44H564.634C564.154 537.84 561.354 530 556.234 523.92C551.114 517.68 543.994 514.56 534.874 514.56C524.794 514.56 516.634 518.72 510.394 527.04C504.314 535.36 501.274 546.24 501.274 559.68C501.274 569.12 503.274 577.76 507.274 585.6C511.274 593.28 516.794 599.36 523.834 603.84C531.034 608.32 539.194 610.56 548.314 610.56C556.154 610.56 563.114 608.8 569.194 605.28C575.434 601.76 580.154 596.72 583.354 590.16L587.194 591.12C585.754 602 580.874 610.88 572.554 617.76C564.394 624.48 553.754 627.84 540.634 627.84C528.474 627.84 517.754 625.04 508.474 619.44C499.194 613.68 491.994 606 486.874 596.4C481.754 586.64 479.194 575.84 479.194 564ZM631.956 609.6L651.156 621.12V624H592.116V621.12L611.316 609.6V461.76L592.116 450.24V447.36H631.956V609.6ZM694.366 609.6L713.566 621.12V624H654.526V621.12L673.726 609.6V461.76L654.526 450.24V447.36H694.366V609.6ZM793.255 550.56H715.495V538.08H793.255V550.56ZM892.116 627.84C876.436 627.84 862.356 623.92 849.876 616.08C837.556 608.24 827.876 597.68 820.836 584.4C813.956 570.96 810.516 556.16 810.516 540C810.516 523.84 813.956 509.12 820.836 495.84C827.876 482.4 837.556 471.76 849.876 463.92C862.356 456.08 876.436 452.16 892.116 452.16C907.796 452.16 921.796 456.08 934.116 463.92C946.596 471.76 956.276 482.4 963.156 495.84C970.196 509.12 973.716 523.84 973.716 540C973.716 556.16 970.196 570.96 963.156 584.4C956.276 597.68 946.596 608.24 934.116 616.08C921.796 623.92 907.796 627.84 892.116 627.84ZM834.996 532.8C834.996 546.4 837.316 559.12 841.956 570.96C846.756 582.8 853.876 592.4 863.316 599.76C872.756 606.96 884.036 610.56 897.156 610.56C907.236 610.56 916.196 607.92 924.036 602.64C932.036 597.2 938.196 589.68 942.516 580.08C946.996 570.48 949.236 559.6 949.236 547.44C949.236 533.84 946.836 521.12 942.036 509.28C937.396 497.44 930.436 487.84 921.156 480.48C911.876 473.12 900.676 469.44 887.556 469.44C877.316 469.44 868.196 472.16 860.196 477.6C852.356 483.04 846.196 490.56 841.716 500.16C837.236 509.76 834.996 520.64 834.996 532.8ZM1022.57 609.6L1041.77 621.12V624H982.735V621.12L1001.93 609.6V518.4L982.735 506.88V504H1022.57V609.6ZM1012.25 476.16C1008.25 476.16 1004.73 474.72 1001.69 471.84C998.815 468.8 997.375 465.28 997.375 461.28C997.375 457.12 998.815 453.6 1001.69 450.72C1004.73 447.84 1008.25 446.4 1012.25 446.4C1016.41 446.4 1019.93 447.84 1022.81 450.72C1025.69 453.6 1027.13 457.12 1027.13 461.28C1027.13 465.28 1025.69 468.8 1022.81 471.84C1019.93 474.72 1016.41 476.16 1012.25 476.16ZM1084.98 609.6L1104.18 621.12V624H1045.14V621.12L1064.34 609.6V461.76L1045.14 450.24V447.36H1084.98V609.6ZM1107.67 564C1107.67 552.32 1110.15 541.6 1115.11 531.84C1120.23 522.08 1127.27 514.4 1136.23 508.8C1145.35 503.04 1155.59 500.16 1166.95 500.16C1180.71 500.16 1192.39 504.88 1201.99 514.32C1211.75 523.6 1216.63 538.8 1216.63 559.92H1118.71V547.44H1193.11C1192.63 537.84 1189.83 530 1184.71 523.92C1179.59 517.68 1172.47 514.56 1163.35 514.56C1153.27 514.56 1145.11 518.72 1138.87 527.04C1132.79 535.36 1129.75 546.24 1129.75 559.68C1129.75 569.12 1131.75 577.76 1135.75 585.6C1139.75 593.28 1145.27 599.36 1152.31 603.84C1159.51 608.32 1167.67 610.56 1176.79 610.56C1184.63 610.56 1191.59 608.8 1197.67 605.28C1203.91 601.76 1208.63 596.72 1211.83 590.16L1215.67 591.12C1214.23 602 1209.35 610.88 1201.03 617.76C1192.87 624.48 1182.23 627.84 1169.11 627.84C1156.95 627.84 1146.23 625.04 1136.95 619.44C1127.67 613.68 1120.47 606 1115.35 596.4C1110.23 586.64 1107.67 575.84 1107.67 564ZM1285.76 627.84C1274.56 627.84 1264.72 625.04 1256.24 619.44C1247.92 613.68 1241.44 606 1236.8 596.4C1232.32 586.64 1230.08 575.84 1230.08 564C1230.08 552.32 1232.48 541.6 1237.28 531.84C1242.08 522.08 1248.64 514.4 1256.96 508.8C1265.44 503.04 1275.04 500.16 1285.76 500.16C1294.56 500.16 1302.32 502.48 1309.04 507.12C1315.92 511.6 1321.12 517.6 1324.64 525.12V461.76L1305.44 450.24V447.36H1345.28V609.6L1364.48 621.12V624H1324.64V604.08C1316.16 619.92 1303.2 627.84 1285.76 627.84ZM1253.12 559.68C1253.12 568.48 1254.64 576.96 1257.68 585.12C1260.72 593.28 1265.2 599.92 1271.12 605.04C1277.04 610.16 1284.08 612.72 1292.24 612.72C1302.16 612.72 1310.16 608.64 1316.24 600.48C1322.48 592.32 1325.6 582 1325.6 569.52C1325.6 553.04 1322.24 539.92 1315.52 530.16C1308.8 520.24 1299.52 515.28 1287.68 515.28C1276.96 515.28 1268.48 519.52 1262.24 528C1256.16 536.32 1253.12 546.88 1253.12 559.68ZM148.48 807.36L208.96 672H248.8V674.88L228.64 687.36V824.64L248.8 837.12V840H186.88V837.12L207.04 824.64V706.32L145.6 842.88H142.72L81.28 720.24V824.64L101.44 837.12V840H47.68V837.12L67.84 824.64V687.36L47.68 674.88V672H81.28L148.48 807.36ZM270.483 748.56C274.003 742.8 278.403 738.56 283.683 735.84C289.123 732.96 294.723 731.52 300.483 731.52C308.323 731.52 314.643 733.92 319.443 738.72C324.243 743.52 326.643 750.32 326.643 759.12V775.44C301.523 778.64 284.083 783.76 274.323 790.8C264.723 797.68 259.923 805.92 259.923 815.52C259.923 821.76 261.523 827.04 264.723 831.36C267.923 835.52 271.843 838.56 276.483 840.48C281.283 842.4 286.003 843.36 290.643 843.36C300.083 843.36 307.843 841.12 313.923 836.64C320.003 832 325.123 825.44 329.283 816.96V840H366.003V837.12L346.803 825.6V758.16C346.803 744.24 343.203 733.68 336.003 726.48C328.803 719.28 319.123 715.68 306.963 715.68C297.043 715.68 288.323 718.72 280.803 724.8C273.283 730.72 268.563 738.32 266.643 747.6L270.483 748.56ZM327.123 786.96C327.123 796.24 325.603 803.92 322.563 810C319.523 816.08 315.683 820.56 311.043 823.44C306.563 826.16 302.003 827.52 297.363 827.52C292.563 827.52 288.643 826.32 285.603 823.92C282.563 821.52 281.043 818.24 281.043 814.08C281.043 807.36 284.803 801.76 292.323 797.28C299.843 792.8 311.443 789.36 327.123 786.96ZM476.961 806.16C475.521 817.2 470.721 826.24 462.561 833.28C454.401 840.32 443.841 843.84 430.881 843.84C418.721 843.84 408.001 841.04 398.721 835.44C389.441 829.68 382.241 822 377.121 812.4C372.001 802.64 369.441 791.84 369.441 780C369.441 768.32 371.921 757.6 376.881 747.84C382.001 738.08 389.041 730.4 398.001 724.8C407.121 719.04 417.361 716.16 428.721 716.16C439.441 716.16 448.801 717.92 456.801 721.44C464.961 724.8 471.521 728.8 476.481 733.44L463.761 760.32H460.881C458.001 751.04 453.681 743.84 447.921 738.72C442.161 733.6 435.041 731.04 426.561 731.04C415.841 731.04 407.281 735.36 400.881 744C394.641 752.48 391.521 763.04 391.521 775.68C391.521 784.8 393.521 793.28 397.521 801.12C401.521 808.8 406.961 814.96 413.841 819.6C420.881 824.24 428.801 826.56 437.601 826.56C445.281 826.56 452.241 824.72 458.481 821.04C464.881 817.2 469.761 811.92 473.121 805.2L476.961 806.16ZM517.281 739.68C521.281 732.16 526.401 726.32 532.641 722.16C539.041 717.84 546.241 715.68 554.241 715.68C564.961 715.68 573.681 719.12 580.401 726C587.281 732.88 590.721 743.2 590.721 756.96V825.6L609.921 837.12V840H553.761V837.12L570.081 825.6V757.92C570.081 748.96 567.921 742.24 563.601 737.76C559.281 733.12 553.681 730.8 546.801 730.8C541.521 730.8 536.161 732.8 530.721 736.8C525.281 740.64 520.801 746.56 517.281 754.56V825.6L533.601 837.12V840H477.441V837.12L496.641 825.6V677.76L477.441 666.24V663.36H517.281V739.68ZM653.05 825.6L672.25 837.12V840H613.21V837.12L632.41 825.6V734.4L613.21 722.88V720H653.05V825.6ZM642.73 692.16C638.73 692.16 635.21 690.72 632.17 687.84C629.29 684.8 627.85 681.28 627.85 677.28C627.85 673.12 629.29 669.6 632.17 666.72C635.21 663.84 638.73 662.4 642.73 662.4C646.89 662.4 650.41 663.84 653.29 666.72C656.17 669.6 657.61 673.12 657.61 677.28C657.61 681.28 656.17 684.8 653.29 687.84C650.41 690.72 646.89 692.16 642.73 692.16ZM715.459 739.68C719.459 732.16 724.579 726.32 730.819 722.16C737.219 717.84 744.419 715.68 752.419 715.68C763.139 715.68 771.859 719.12 778.579 726C785.459 732.88 788.899 743.2 788.899 756.96V825.6L808.099 837.12V840H751.939V837.12L768.259 825.6V757.92C768.259 748.96 766.099 742.24 761.779 737.76C757.459 733.12 751.859 730.8 744.979 730.8C739.699 730.8 734.339 732.8 728.899 736.8C723.459 740.64 718.979 746.56 715.459 754.56V825.6L731.779 837.12V840H675.619V837.12L694.819 825.6V734.4L675.619 722.88V720H715.459V739.68ZM811.501 780C811.501 768.32 813.981 757.6 818.941 747.84C824.061 738.08 831.101 730.4 840.061 724.8C849.181 719.04 859.421 716.16 870.781 716.16C884.541 716.16 896.221 720.88 905.821 730.32C915.581 739.6 920.461 754.8 920.461 775.92H822.541V763.44H896.941C896.461 753.84 893.661 746 888.541 739.92C883.421 733.68 876.301 730.56 867.181 730.56C857.101 730.56 848.941 734.72 842.701 743.04C836.621 751.36 833.581 762.24 833.581 775.68C833.581 785.12 835.581 793.76 839.581 801.6C843.581 809.28 849.101 815.36 856.141 819.84C863.341 824.32 871.501 826.56 880.621 826.56C888.461 826.56 895.421 824.8 901.501 821.28C907.741 817.76 912.461 812.72 915.661 806.16L919.501 807.12C918.061 818 913.181 826.88 904.861 833.76C896.701 840.48 886.061 843.84 872.941 843.84C860.781 843.84 850.061 841.04 840.781 835.44C831.501 829.68 824.301 822 819.181 812.4C814.061 802.64 811.501 791.84 811.501 780ZM952.63 840.96C948.15 840.96 944.39 839.44 941.35 836.4C938.31 833.36 936.79 829.6 936.79 825.12C936.79 820.64 938.31 816.88 941.35 813.84C944.39 810.8 948.15 809.28 952.63 809.28C956.95 809.28 960.63 810.8 963.67 813.84C966.87 816.88 968.47 820.64 968.47 825.12C968.47 829.6 966.87 833.36 963.67 836.4C960.63 839.44 956.95 840.96 952.63 840.96Z" fill="#00334C"/>
<path d="M1291.68 55.52L1302.72 81.6L1305.92 83.52V84H1296.32V83.52L1298.72 81.6L1287.8 55.52H1290.96H1291.68ZM1298.2 75.84H1284.84L1285.64 73.6H1297.4L1298.2 75.84ZM1283.24 81.6L1285.64 83.52V84H1277.64V83.52L1280.84 81.6L1290.16 59.72L1291.28 62.36L1283.24 81.6ZM1309.69 68.76C1310.28 67.8 1311.01 67.0933 1311.89 66.64C1312.8 66.16 1313.73 65.92 1314.69 65.92C1316 65.92 1317.05 66.32 1317.85 67.12C1318.65 67.92 1319.05 69.0533 1319.05 70.52V73.24C1314.86 73.7733 1311.96 74.6267 1310.33 75.8C1308.73 76.9467 1307.93 78.32 1307.93 79.92C1307.93 80.96 1308.2 81.84 1308.73 82.56C1309.26 83.2533 1309.92 83.76 1310.69 84.08C1311.49 84.4 1312.28 84.56 1313.05 84.56C1314.62 84.56 1315.92 84.1867 1316.93 83.44C1317.94 82.6667 1318.8 81.5733 1319.49 80.16V84H1325.61V83.52L1322.41 81.6V70.36C1322.41 68.04 1321.81 66.28 1320.61 65.08C1319.41 63.88 1317.8 63.28 1315.77 63.28C1314.12 63.28 1312.66 63.7867 1311.41 64.8C1310.16 65.7867 1309.37 67.0533 1309.05 68.6L1309.69 68.76ZM1319.13 75.16C1319.13 76.7067 1318.88 77.9867 1318.37 79C1317.86 80.0133 1317.22 80.76 1316.45 81.24C1315.7 81.6933 1314.94 81.92 1314.17 81.92C1313.37 81.92 1312.72 81.72 1312.21 81.32C1311.7 80.92 1311.45 80.3733 1311.45 79.68C1311.45 78.56 1312.08 77.6267 1313.33 76.88C1314.58 76.1333 1316.52 75.56 1319.13 75.16ZM1334.24 84H1327.28V83.52L1330.64 81.44V58.56L1327.28 56.48V56H1334.24V84ZM1337.16 56C1340.28 56 1342.68 56.5867 1344.36 57.76C1346.04 58.9067 1346.88 60.6667 1346.88 63.04C1346.88 65.1733 1346.11 66.7333 1344.56 67.72C1343.04 68.68 1341.14 69.16 1338.84 69.16H1332.8V67.92H1336.84C1338.92 67.92 1340.47 67.4933 1341.48 66.64C1342.52 65.7867 1343.04 64.5867 1343.04 63.04C1343.04 61.52 1342.52 60.3333 1341.48 59.48C1340.47 58.6267 1338.92 58.2 1336.84 58.2H1332.8V56H1337.16ZM1340.72 68.72C1342.19 68.72 1343.55 68.9867 1344.8 69.52C1346.06 70.0533 1347.06 70.8667 1347.8 71.96C1348.58 73.0533 1348.96 74.3867 1348.96 75.96C1348.96 78.5733 1348.07 80.5733 1346.28 81.96C1344.52 83.32 1342.06 84 1338.88 84H1332.8V81.76H1338.56C1340.67 81.76 1342.28 81.2267 1343.4 80.16C1344.55 79.0933 1345.12 77.6933 1345.12 75.96C1345.12 74.2267 1344.55 72.8267 1343.4 71.76C1342.28 70.6933 1340.67 70.16 1338.56 70.16H1332.8V68.72H1340.72ZM1364.41 63.36C1366.28 63.36 1367.9 63.84 1369.29 64.8C1370.7 65.7333 1371.78 67.0133 1372.53 68.64C1373.3 70.24 1373.69 72.0267 1373.69 74C1373.69 75.9467 1373.29 77.7333 1372.49 79.36C1371.69 80.9867 1370.58 82.28 1369.17 83.24C1367.78 84.1733 1366.2 84.64 1364.41 84.64C1362.97 84.64 1361.69 84.2667 1360.57 83.52C1359.48 82.7733 1358.6 81.76 1357.93 80.48L1354.97 84.48H1354.49V56.96L1351.29 55.04V54.56H1357.93V67.32C1358.52 66.0933 1359.36 65.1333 1360.45 64.44C1361.54 63.72 1362.86 63.36 1364.41 63.36ZM1369.85 74.72C1369.85 73.2533 1369.6 71.84 1369.09 70.48C1368.58 69.12 1367.84 68.0133 1366.85 67.16C1365.86 66.3067 1364.69 65.88 1363.33 65.88C1361.68 65.88 1360.33 66.56 1359.29 67.92C1358.28 69.28 1357.77 71 1357.77 73.08C1357.77 75.8267 1358.33 78.0267 1359.45 79.68C1360.57 81.3067 1362.12 82.12 1364.09 82.12C1365.88 82.12 1367.28 81.4267 1368.29 80.04C1369.33 78.6267 1369.85 76.8533 1369.85 74.72ZM1401.45 76C1401.24 77.6533 1400.68 79.1333 1399.77 80.44C1398.89 81.7467 1397.69 82.7733 1396.17 83.52C1394.65 84.2667 1392.89 84.64 1390.89 84.64C1388.14 84.64 1385.7 83.9867 1383.57 82.68C1381.44 81.3733 1379.77 79.6133 1378.57 77.4C1377.4 75.16 1376.81 72.6933 1376.81 70C1376.81 67.3067 1377.38 64.8533 1378.53 62.64C1379.7 60.4 1381.33 58.6267 1383.41 57.32C1385.49 56.0133 1387.85 55.36 1390.49 55.36C1392.89 55.36 1394.98 55.7467 1396.77 56.52C1398.56 57.2933 1400.04 58.2267 1401.21 59.32L1398.73 64.68H1398.25C1396.84 60.3867 1394.09 58.24 1390.01 58.24C1388.3 58.24 1386.76 58.72 1385.37 59.68C1383.98 60.6133 1382.89 61.9067 1382.09 63.56C1381.29 65.1867 1380.89 67 1380.89 69C1380.89 71.24 1381.37 73.3067 1382.33 75.2C1383.32 77.0933 1384.69 78.6 1386.45 79.72C1388.21 80.8133 1390.21 81.36 1392.45 81.36C1394.4 81.36 1396.06 80.8533 1397.45 79.84C1398.86 78.8 1399.98 77.4667 1400.81 75.84L1401.45 76ZM1422.02 78.36C1421.78 80.2 1420.98 81.7067 1419.62 82.88C1418.26 84.0533 1416.5 84.64 1414.34 84.64C1412.32 84.64 1410.53 84.1733 1408.98 83.24C1407.44 82.28 1406.24 81 1405.38 79.4C1404.53 77.7733 1404.1 75.9733 1404.1 74C1404.1 72.0533 1404.52 70.2667 1405.34 68.64C1406.2 67.0133 1407.37 65.7333 1408.86 64.8C1410.38 63.84 1412.09 63.36 1413.98 63.36C1415.77 63.36 1417.33 63.6533 1418.66 64.24C1420.02 64.8 1421.12 65.4667 1421.94 66.24L1419.82 70.72H1419.34C1418.86 69.1733 1418.14 67.9733 1417.18 67.12C1416.22 66.2667 1415.04 65.84 1413.62 65.84C1411.84 65.84 1410.41 66.56 1409.34 68C1408.3 69.4133 1407.78 71.1733 1407.78 73.28C1407.78 74.8 1408.12 76.2133 1408.78 77.52C1409.45 78.8 1410.36 79.8267 1411.5 80.6C1412.68 81.3733 1414 81.76 1415.46 81.76C1416.74 81.76 1417.9 81.4533 1418.94 80.84C1420.01 80.2 1420.82 79.32 1421.38 78.2L1422.02 78.36ZM1430.97 84H1424.01V83.52L1427.37 81.44V58.56L1424.01 56.48V56H1430.97V84ZM1436.09 56C1438.91 56 1441.35 56.6133 1443.41 57.84C1445.46 59.04 1447.03 60.6933 1448.13 62.8C1449.22 64.9067 1449.77 67.3067 1449.77 70C1449.77 72.6933 1449.22 75.0933 1448.13 77.2C1447.03 79.3067 1445.45 80.9733 1443.37 82.2C1441.31 83.4 1438.89 84 1436.09 84H1429.53V81.76H1435.61C1437.77 81.76 1439.61 81.2267 1441.13 80.16C1442.65 79.0933 1443.78 77.6667 1444.53 75.88C1445.3 74.0933 1445.69 72.1333 1445.69 70C1445.69 66.5333 1444.89 63.7067 1443.29 61.52C1441.69 59.3333 1439.13 58.24 1435.61 58.24H1429.53V56H1436.09ZM1462.15 84.64C1460.29 84.64 1458.65 84.1733 1457.23 83.24C1455.85 82.28 1454.77 81 1453.99 79.4C1453.25 77.7733 1452.87 75.9733 1452.87 74C1452.87 72.0533 1453.27 70.2667 1454.07 68.64C1454.87 67.0133 1455.97 65.7333 1457.35 64.8C1458.77 63.84 1460.37 63.36 1462.15 63.36C1463.62 63.36 1464.91 63.7467 1466.03 64.52C1467.18 65.2667 1468.05 66.2667 1468.63 67.52V56.96L1465.43 55.04V54.56H1472.07V81.6L1475.27 83.52V84H1468.63V80.68C1467.22 83.32 1465.06 84.64 1462.15 84.64ZM1456.71 73.28C1456.71 74.7467 1456.97 76.16 1457.47 77.52C1457.98 78.88 1458.73 79.9867 1459.71 80.84C1460.7 81.6933 1461.87 82.12 1463.23 82.12C1464.89 82.12 1466.22 81.44 1467.23 80.08C1468.27 78.72 1468.79 77 1468.79 74.92C1468.79 72.1733 1468.23 69.9867 1467.11 68.36C1465.99 66.7067 1464.45 65.88 1462.47 65.88C1460.69 65.88 1459.27 66.5867 1458.23 68C1457.22 69.3867 1456.71 71.1467 1456.71 73.28ZM1483.76 70.56V81.76H1494.88L1497.6 75.52H1498.08V84H1476.8V83.52L1480.16 81.44V58.56L1476.8 56.48V56H1498.08V64.48H1497.6L1494.88 58.24H1483.76V68.32H1491.84L1493.92 64.96H1494.4V73.92H1493.92L1491.84 70.56H1483.76ZM1502.46 74C1502.46 72.0533 1502.88 70.2667 1503.7 68.64C1504.56 67.0133 1505.73 65.7333 1507.22 64.8C1508.74 63.84 1510.45 63.36 1512.34 63.36C1514.64 63.36 1516.58 64.1467 1518.18 65.72C1519.81 67.2667 1520.62 69.8 1520.62 73.32H1504.3V71.24H1516.7C1516.62 69.64 1516.16 68.3333 1515.3 67.32C1514.45 66.28 1513.26 65.76 1511.74 65.76C1510.06 65.76 1508.7 66.4533 1507.66 67.84C1506.65 69.2267 1506.14 71.04 1506.14 73.28C1506.14 74.8533 1506.48 76.2933 1507.14 77.6C1507.81 78.88 1508.73 79.8933 1509.9 80.64C1511.1 81.3867 1512.46 81.76 1513.98 81.76C1515.29 81.76 1516.45 81.4667 1517.46 80.88C1518.5 80.2933 1519.29 79.4533 1519.82 78.36L1520.46 78.52C1520.22 80.3333 1519.41 81.8133 1518.02 82.96C1516.66 84.08 1514.89 84.64 1512.7 84.64C1510.68 84.64 1508.89 84.1733 1507.34 83.24C1505.8 82.28 1504.6 81 1503.74 79.4C1502.89 77.7733 1502.46 75.9733 1502.46 74ZM1533.51 84H1523.19V83.52L1526.55 81.44V58.56L1523.19 56.48V56H1543.35V64.48H1542.87L1540.15 58.24H1530.15V81.44L1533.51 83.52V84ZM1528.63 70.56L1528.15 68.32H1537.43L1539.51 64.96H1539.99V73.92H1539.51L1537.43 70.56H1528.63ZM1548.21 63.92L1550.85 64H1557.57V66.32H1544.53V65.84L1548.21 63.92ZM1548.21 59.36C1548.21 57.1733 1548.82 55.4267 1550.05 54.12C1551.3 52.8133 1552.94 52.16 1554.97 52.16C1556.81 52.16 1558.53 52.76 1560.13 53.96L1558.33 57.68H1558.13C1557.49 55.6533 1556.41 54.64 1554.89 54.64C1553.74 54.64 1552.92 55.08 1552.41 55.96C1551.9 56.84 1551.65 57.9733 1551.65 59.36V81.44L1554.85 83.52V84H1545.01V83.52L1548.21 81.44V59.36Z" fill="#00334C"/>
</svg>
