<svg width="1600" height="900" viewBox="0 0 1600 900" fill="none" xmlns="http://www.w3.org/2000/svg">
<rect width="1600" height="900" fill="#0D0C0D"/>
<rect x="50" y="150" width="100" height="100" stroke="#EBEBEB"/>
<rect x="50" y="50" width="1500" height="100" stroke="#EBEBEB"/>
<rect x="150" y="150" width="100" height="100" stroke="#EBEBEB"/>
<rect x="50" y="250" width="100" height="100" stroke="#EBEBEB"/>
<rect x="50" y="350" width="100" height="100" stroke="#EBEBEB"/>
<rect x="150" y="250" width="100" height="100" stroke="#EBEBEB"/>
<rect x="150" y="350" width="100" height="100" stroke="#EBEBEB"/>
<rect x="250" y="150" width="100" height="100" stroke="#EBEBEB"/>
<rect x="350" y="150" width="100" height="100" stroke="#EBEBEB"/>
<rect x="250" y="250" width="100" height="100" stroke="#EBEBEB"/>
<rect x="250" y="350" width="100" height="100" stroke="#EBEBEB"/>
<rect x="350" y="250" width="100" height="100" stroke="#EBEBEB"/>
<rect x="350" y="350" width="100" height="100" stroke="#EBEBEB"/>
<rect x="450" y="150" width="100" height="100" stroke="#EBEBEB"/>
<rect x="550" y="150" width="100" height="100" stroke="#EBEBEB"/>
<rect x="450" y="250" width="100" height="100" stroke="#EBEBEB"/>
<rect x="450" y="350" width="100" height="100" stroke="#EBEBEB"/>
<rect x="550" y="250" width="100" height="100" stroke="#EBEBEB"/>
<rect x="550" y="350" width="100" height="100" stroke="#EBEBEB"/>
<rect x="650" y="150" width="100" height="100" stroke="#EBEBEB"/>
<rect x="750" y="150" width="100" height="100" stroke="#EBEBEB"/>
<rect x="650" y="250" width="100" height="100" stroke="#EBEBEB"/>
<rect x="650" y="350" width="100" height="100" stroke="#EBEBEB"/>
<rect x="750" y="250" width="100" height="100" stroke="#EBEBEB"/>
<rect x="750" y="350" width="100" height="100" stroke="#EBEBEB"/>
<rect x="50" y="450" width="100" height="100" stroke="#EBEBEB"/>
<rect x="50" y="550" width="100" height="100" stroke="#EBEBEB"/>
<rect x="150" y="450" width="100" height="100" stroke="#EBEBEB"/>
<rect x="150" y="550" width="100" height="100" stroke="#EBEBEB"/>
<rect x="50" y="650" width="100" height="100" stroke="#EBEBEB"/>
<rect x="50" y="750" width="100" height="100" stroke="#EBEBEB"/>
<rect x="150" y="650" width="100" height="100" stroke="#EBEBEB"/>
<rect x="150" y="750" width="100" height="100" stroke="#EBEBEB"/>
<rect x="250" y="450" width="100" height="100" stroke="#EBEBEB"/>
<rect x="250" y="550" width="100" height="100" stroke="#EBEBEB"/>
<rect x="350" y="450" width="100" height="100" stroke="#EBEBEB"/>
<rect x="350" y="550" width="100" height="100" stroke="#EBEBEB"/>
<rect x="250" y="650" width="100" height="100" stroke="#EBEBEB"/>
<rect x="250" y="750" width="100" height="100" stroke="#EBEBEB"/>
<rect x="350" y="650" width="100" height="100" stroke="#EBEBEB"/>
<rect x="350" y="750" width="100" height="100" stroke="#EBEBEB"/>
<rect x="450" y="450" width="100" height="100" stroke="#EBEBEB"/>
<rect x="450" y="550" width="100" height="100" stroke="#EBEBEB"/>
<rect x="550" y="450" width="100" height="100" stroke="#EBEBEB"/>
<rect x="550" y="550" width="1000" height="100" stroke="#EBEBEB"/>
<rect x="450" y="650" width="100" height="100" stroke="#EBEBEB"/>
<rect x="450" y="750" width="100" height="100" stroke="#EBEBEB"/>
<rect x="550" y="650" width="100" height="100" stroke="#EBEBEB"/>
<rect x="550" y="750" width="100" height="100" stroke="#EBEBEB"/>
<rect x="650" y="450" width="100" height="100" stroke="#EBEBEB"/>
<rect x="750" y="450" width="100" height="100" stroke="#EBEBEB"/>
<rect x="650" y="650" width="100" height="100" stroke="#EBEBEB"/>
<rect x="650" y="750" width="100" height="100" stroke="#EBEBEB"/>
<rect x="750" y="650" width="100" height="100" stroke="#EBEBEB"/>
<rect x="750" y="750" width="100" height="100" stroke="#EBEBEB"/>
<rect x="850" y="150" width="100" height="100" stroke="#EBEBEB"/>
<rect x="950" y="150" width="100" height="100" stroke="#EBEBEB"/>
<rect x="850" y="250" width="100" height="100" stroke="#EBEBEB"/>
<rect x="850" y="350" width="100" height="100" stroke="#EBEBEB"/>
<rect x="950" y="250" width="100" height="100" stroke="#EBEBEB"/>
<rect x="950" y="350" width="100" height="100" stroke="#EBEBEB"/>
<rect x="1050" y="150" width="100" height="100" stroke="#EBEBEB"/>
<rect x="1150" y="150" width="100" height="100" stroke="#EBEBEB"/>
<rect x="1050" y="250" width="100" height="100" stroke="#EBEBEB"/>
<rect x="1050" y="350" width="100" height="100" stroke="#EBEBEB"/>
<rect x="1150" y="250" width="100" height="100" stroke="#EBEBEB"/>
<rect x="1150" y="350" width="100" height="100" stroke="#EBEBEB"/>
<rect x="1250" y="150" width="100" height="100" stroke="#EBEBEB"/>
<rect x="1350" y="150" width="100" height="100" stroke="#EBEBEB"/>
<rect x="1250" y="250" width="300" height="100" stroke="#EBEBEB"/>
<rect x="1250" y="350" width="100" height="100" stroke="#EBEBEB"/>
<rect x="1350" y="350" width="100" height="100" stroke="#EBEBEB"/>
<rect x="850" y="450" width="100" height="100" stroke="#EBEBEB"/>
<rect x="950" y="450" width="100" height="100" stroke="#EBEBEB"/>
<rect x="850" y="650" width="100" height="100" stroke="#EBEBEB"/>
<rect x="850" y="750" width="100" height="100" stroke="#EBEBEB"/>
<rect x="950" y="650" width="100" height="100" stroke="#EBEBEB"/>
<rect x="950" y="750" width="100" height="100" stroke="#EBEBEB"/>
<rect x="1050" y="450" width="100" height="100" stroke="#EBEBEB"/>
<rect x="1150" y="450" width="100" height="100" stroke="#EBEBEB"/>
<rect x="1050" y="650" width="500" height="100" stroke="#EBEBEB"/>
<rect x="1050" y="750" width="100" height="100" stroke="#EBEBEB"/>
<rect x="1150" y="750" width="100" height="100" stroke="#EBEBEB"/>
<rect x="1250" y="450" width="100" height="100" stroke="#EBEBEB"/>
<rect x="1350" y="450" width="100" height="100" stroke="#EBEBEB"/>
<rect x="1250" y="750" width="100" height="100" stroke="#EBEBEB"/>
<rect x="1350" y="750" width="100" height="100" stroke="#EBEBEB"/>
<rect x="1450" y="150" width="100" height="100" stroke="#EBEBEB"/>
<rect x="1450" y="350" width="100" height="100" stroke="#EBEBEB"/>
<rect x="1450" y="450" width="100" height="100" stroke="#EBEBEB"/>
<rect x="1450" y="750" width="100" height="100" stroke="#EBEBEB"/>
<path d="M70.78 105H72.58L73.64 101.72H78.36L79.42 105H81.24L77.16 93.06H74.84L70.78 105ZM74.24 99.82L75.88 94.8H76.14L77.76 99.82C77.84 100.08 77.72 100.24 77.44 100.24H74.56C74.3 100.24 74.16 100.08 74.24 99.82ZM83.7522 93.06V105H92.3522V103.46L85.3922 103.62V93.06H83.7522ZM95.3644 93.06V105H97.0044V99.88H102.364V98.44H97.0044V94.86C97.0044 94.58 97.1644 94.42 97.4444 94.44L103.324 94.58V93.06H95.3644ZM118.269 105H116.829V93.06H119.309L121.529 103.56H121.629L123.829 93.06H126.309V105H124.889V94.8H124.789L122.629 105H120.489L118.369 94.8H118.269V105ZM132.961 105.32C135.861 105.32 137.721 103.26 137.721 100.44V97.68C137.721 94.84 135.861 92.8 132.961 92.8C130.061 92.8 128.201 94.84 128.201 97.68V100.44C128.201 103.26 130.061 105.32 132.961 105.32ZM129.861 100.38V97.74C129.861 95.74 130.961 94.32 132.961 94.32C134.961 94.32 136.081 95.74 136.081 97.74V100.38C136.081 102.36 134.961 103.78 132.961 103.78C130.961 103.78 129.861 102.36 129.861 100.38ZM139.873 93.06V105H141.513V95.08H141.753L146.413 105H148.833V93.06H147.193V102.98H146.953L142.293 93.06H139.873ZM155.745 105.32C158.645 105.32 160.505 103.26 160.505 100.44V97.68C160.505 94.84 158.645 92.8 155.745 92.8C152.845 92.8 150.985 94.84 150.985 97.68V100.44C150.985 103.26 152.845 105.32 155.745 105.32ZM152.645 100.38V97.74C152.645 95.74 153.745 94.32 155.745 94.32C157.745 94.32 158.865 95.74 158.865 97.74V100.38C158.865 102.36 157.745 103.78 155.745 103.78C153.745 103.78 152.645 102.36 152.645 100.38ZM179.17 106.6L180.47 105.82C179.59 104.56 178.15 102.2 178.15 98.68C178.15 95.14 179.59 92.82 180.47 91.56L179.17 90.78C178.11 92.4 176.59 94.86 176.59 98.68C176.59 102.5 178.11 104.96 179.17 106.6ZM185.042 96.3L188.782 105H191.082L194.802 96.3H192.962L190.082 103.5H189.782L186.882 96.3H185.042ZM199.994 93.06C199.934 94.76 199.374 95.56 197.694 95.56H197.434V97.08H197.994C199.394 97.08 200.894 96.36 201.154 94.42H201.254V102.96C201.254 103.36 201.034 103.58 200.614 103.56L197.434 103.44V105H206.394V103.44L203.534 103.56C203.134 103.58 202.894 103.34 202.894 102.94V93.06H199.994ZM212.706 105.16C213.566 105.16 214.286 104.46 214.286 103.58C214.286 102.76 213.566 102.02 212.706 102.02C211.846 102.02 211.146 102.76 211.146 103.58C211.146 104.46 211.846 105.16 212.706 105.16ZM224.398 92.78C221.918 92.78 219.778 94.56 220.058 97.06L221.638 97.28C221.418 95.34 222.738 94.24 224.438 94.24C225.978 94.24 226.998 95.12 226.998 96.64C226.998 98.04 226.158 98.66 224.858 99.24L222.638 100.24C220.938 100.98 219.878 102.18 219.878 103.82V105H228.718V103.5H221.718C221.718 102.44 222.378 101.94 223.538 101.42L225.738 100.42C227.678 99.54 228.618 98.44 228.618 96.56C228.618 94.5 227.098 92.78 224.398 92.78ZM233.551 105.82L234.851 106.6C235.931 104.96 237.431 102.5 237.431 98.68C237.431 94.86 235.931 92.4 234.851 90.78L233.551 91.56C234.431 92.82 235.871 95.14 235.871 98.68C235.871 102.2 234.431 104.56 233.551 105.82Z" fill="#EBEBEB"/>
<path d="M81.7437 220H88.0437L91.7537 208.52H108.274L111.984 220H118.354L104.074 178.21H95.9537L81.7437 220ZM93.8537 201.87L99.5937 184.3H100.504L106.174 201.87C106.454 202.78 106.034 203.34 105.054 203.34H94.9737C94.0637 203.34 93.5737 202.78 93.8537 201.87Z" fill="#EBEBEB"/>
<path d="M185.944 178.21V220.07H204.424C211.774 220.07 217.514 216.22 217.514 209.01C217.514 202.5 212.894 199.28 208.274 198.51V197.88C212.544 196.69 215.974 193.82 215.974 188.5C215.974 182.48 210.724 178.21 204.354 178.21H185.944ZM191.614 215.1V200.75H203.444C208.204 200.75 211.704 203.06 211.704 207.96C211.704 212.86 208.204 215.1 203.444 215.1H191.614ZM191.614 196.06V183.18H203.234C207.294 183.18 210.234 185.42 210.234 189.62C210.234 193.89 207.294 196.06 203.234 196.06H191.614Z" fill="#EBEBEB"/>
<path d="M301.414 220.98C309.114 220.98 316.464 216.57 317.024 205.58L311.634 204.32C311.354 212.3 307.084 215.66 301.414 215.66C294.344 215.66 290.074 210.62 290.074 203.55V194.66C290.074 187.59 294.344 182.55 301.414 182.55C307.084 182.55 311.284 185.84 311.564 193.82L317.024 192.56C316.464 181.57 309.114 177.23 301.414 177.23C291.124 177.23 284.334 184.44 284.334 194.52V203.69C284.334 213.7 291.124 220.98 301.414 220.98Z" fill="#EBEBEB"/>
<path d="M400.014 178.21H385.944V220H400.014C410.024 220 417.304 212.72 417.304 202.71V195.5C417.304 185.42 410.024 178.21 400.014 178.21ZM391.894 213.21V184.93C391.894 184.02 392.384 183.46 393.364 183.46H399.874C406.804 183.46 411.494 188.5 411.494 195.57V202.57C411.494 209.64 406.804 214.68 399.874 214.68H393.364C392.384 214.68 391.894 214.12 391.894 213.21Z" fill="#EBEBEB"/>
<path d="M486.574 178.21V220H514.434V214.68L493.854 215.17C492.874 215.17 492.314 214.68 492.314 213.7V201.17H511.074V196.06H492.314V184.51C492.314 183.53 492.874 182.97 493.854 183.04L514.434 183.53V178.21H486.574Z" fill="#EBEBEB"/>
<path d="M588.044 178.21V220H593.784V202.08H612.544V197.04H593.784V184.51C593.784 183.53 594.344 182.97 595.324 183.04L615.904 183.53V178.21H588.044Z" fill="#EBEBEB"/>
<path d="M689.864 203.69V194.66C689.864 187.59 694.134 182.55 700.994 182.55C706.664 182.55 710.794 186.05 711.074 192.98L716.534 191.72C715.974 181.64 708.554 177.23 700.924 177.23C690.844 177.23 684.124 184.44 684.124 194.52V203.83C684.124 213.84 691.124 221.12 701.134 221.12C711.634 221.12 716.884 214.54 716.884 204.53V203.2C716.884 200.68 715.064 198.93 712.684 198.93H700.994V204.25L709.954 203.9C710.864 203.9 711.284 204.32 711.284 205.3V206.21C711.284 211.95 708.204 215.87 701.204 215.87C694.414 215.87 689.864 210.76 689.864 203.69Z" fill="#EBEBEB"/>
<path d="M784.544 178.21V220H790.284V202.92C790.284 201.94 790.844 201.45 791.754 201.45H808.274C809.184 201.45 809.744 201.94 809.744 202.92V220H815.484V178.21H809.744V194.73C809.744 195.71 809.184 196.2 808.274 196.2H791.754C790.844 196.2 790.284 195.71 790.284 194.73V178.21H784.544Z" fill="#EBEBEB"/>
<path d="M914.994 178.21H885.314V183.53L894.974 183.11C896.444 183.04 897.284 183.88 897.284 185.28V212.86C897.284 214.33 896.444 215.17 894.974 215.03L885.314 214.61V220H914.994V214.61L905.334 215.03C903.864 215.17 903.024 214.33 903.024 212.86V185.28C903.024 183.88 903.864 183.04 905.334 183.11L914.994 183.53V178.21Z" fill="#EBEBEB"/>
<path d="M985.664 202.78V206.21C985.664 214.54 991.124 221.12 1000.57 221.12C1010.02 221.12 1014.78 214.54 1014.78 205.65V182.76C1014.78 179.82 1013.17 178.21 1010.23 178.21H993.644V183.6L1006.73 183.18C1008.13 183.11 1008.97 183.95 1008.97 185.35V205.51C1008.97 211.25 1006.87 215.8 1000.57 215.8C994.274 215.8 991.474 211.25 991.474 206.07V202.43L985.664 202.78Z" fill="#EBEBEB"/>
<path d="M1086.29 178.21V220H1092.03V205.51L1097.49 199.7L1111.63 220H1118.35L1101.13 195.71L1117.79 178.21H1110.79L1092.03 198.16V178.21H1086.29Z" fill="#EBEBEB"/>
<path d="M1186.64 178.21V220H1192.38V199.84L1211.63 220H1218.7L1197.84 198.3L1218.14 178.21H1211.14L1192.38 196.83V178.21H1186.64Z" fill="#EBEBEB"/>
<path d="M186.644 278.21V320H192.384V305.23H204.144C212.404 305.23 217.654 299 217.654 291.65C217.654 284.3 212.404 278.21 204.144 278.21H186.644ZM192.384 300.05V283.32H203.094C208.204 283.32 211.844 286.47 211.844 291.65C211.844 296.9 208.204 300.05 203.094 300.05H192.384Z" fill="#EBEBEB"/>
<path d="M100.014 321.12C110.164 321.12 116.674 313.91 116.674 304.04V294.38C116.674 284.44 110.164 277.3 100.014 277.3C89.8637 277.3 83.3537 284.44 83.3537 294.38V304.04C83.3537 313.91 89.8637 321.12 100.014 321.12ZM89.1637 303.83V294.59C89.1637 287.59 93.0137 282.62 100.014 282.62C107.014 282.62 110.934 287.59 110.934 294.59V303.83C110.934 310.76 107.014 315.73 100.014 315.73C93.0137 315.73 89.1637 310.76 89.1637 303.83Z" fill="#EBEBEB"/>
<path d="M1484.33 178.21V220H1490.07V185.28H1490.91L1507.22 220H1515.69V178.21H1509.95V212.93H1509.11L1492.8 178.21H1484.33Z" fill="#EBEBEB"/>
<path d="M300.014 315.73C293.014 315.73 289.164 310.76 289.164 303.83V294.59C289.164 287.59 293.014 282.62 300.014 282.62C307.014 282.62 310.934 287.59 310.934 294.59V303.83C310.934 310.76 307.014 315.73 300.014 315.73ZM283.354 304.04C283.354 313 288.674 319.72 297.214 320.91V329.1C297.214 331.76 299.174 333.72 301.834 333.72H310.584V328.96H302.674V320.98C311.284 319.79 316.674 313 316.674 304.04V294.38C316.674 284.44 310.164 277.3 300.014 277.3C289.864 277.3 283.354 284.44 283.354 294.38V304.04Z" fill="#EBEBEB"/>
<path d="M1388.46 220H1383.42V178.21H1392.1L1399.87 214.96H1400.22L1407.92 178.21H1416.6V220H1411.63V184.3H1411.28L1403.72 220H1396.23L1388.81 184.3H1388.46V220Z" fill="#EBEBEB"/>
<path d="M403.234 278.21H385.734V320H391.474V304.04H400.154L410.794 320H417.094L406.314 303.76C412.754 302.57 416.744 297.46 416.744 291.09C416.744 283.74 411.494 278.21 403.234 278.21ZM391.474 298.86V284.79C391.474 283.88 392.034 283.32 392.944 283.32H402.184C407.364 283.32 410.934 285.84 410.934 291.09C410.934 296.27 407.364 298.86 402.184 298.86H391.474Z" fill="#EBEBEB"/>
<path d="M486.084 289.76C486.084 282.62 492.104 277.23 500.644 277.23C508.274 277.23 514.644 281.15 515.974 289.41L510.724 290.74C509.604 284.23 505.754 282.27 500.644 282.27C495.324 282.27 491.684 285.14 491.684 289.41C491.684 293.26 494.414 295.01 498.054 295.5L504.774 296.48C512.054 297.6 515.974 302.01 515.974 308.45C515.974 315.73 510.234 320.98 501.204 320.98C493.504 320.98 486.854 316.99 485.034 308.1L490.284 306.7C491.544 313.49 495.674 315.87 501.484 315.87C507.154 315.87 510.444 313.07 510.444 308.45C510.444 304.53 507.994 302.29 504.074 301.66L497.004 300.68C490.494 299.7 486.084 295.71 486.084 289.76Z" fill="#EBEBEB"/>
<path d="M582.444 278.21V283.32H597.144V320H602.954V283.32H617.584V278.21H582.444Z" fill="#EBEBEB"/>
<path d="M684.194 278.21V305.37C684.194 315.24 690.424 321.12 700.014 321.12C709.604 321.12 715.904 315.24 715.904 305.37V278.21H710.094V305.02C710.094 311.81 706.594 315.8 700.014 315.8C693.504 315.8 690.004 311.81 690.004 305.02V278.21H684.194Z" fill="#EBEBEB"/>
<path d="M782.444 278.21L795.954 320H804.844L818.354 278.21H812.264L800.924 315.24H799.874L788.534 278.21H782.444Z" fill="#EBEBEB"/>
<path d="M887.188 278.21L890.618 312.79H891.598L896.358 278.21H903.988L909.448 312.79H910.428L913.858 278.21H918.758L914.208 320H906.158L900.698 285.21H899.648L894.818 320H886.768L882.288 278.21H887.188Z" fill="#EBEBEB"/>
<path d="M983.898 278.21L996.358 299.07L983.758 320H990.408L1000.07 303.06H1000.91L1010.57 320H1017.22L1004.69 299.07L1017.08 278.21H1010.57L1000.91 295.15H1000.07L990.408 278.21H983.898Z" fill="#EBEBEB"/>
<path d="M1082.37 278.21L1097.07 301.94V320H1102.95V301.94L1117.72 278.21H1111.21L1100.22 296.69H1099.87L1088.81 278.21H1082.37Z" fill="#EBEBEB"/>
<path d="M1183.98 278.21V283.53H1208.55L1209.04 284.37L1183.42 314.26V320H1217.44V314.68H1191.96L1191.47 313.84L1216.95 283.88V278.21H1183.98Z" fill="#EBEBEB"/>
<path d="M1287.27 181.21V223H1317.37V217.61L1293.01 218.17V181.21H1287.27Z" fill="#EBEBEB"/>
<path d="M498.684 420.98C504.214 420.98 507.714 418.25 509.534 415.45H509.884V420H515.204V374.43H509.674V393.89H509.324C507.574 391.23 504.004 388.57 498.684 388.57C490.424 388.57 483.564 395.15 483.564 404.25V405.3C483.564 414.4 490.424 420.98 498.684 420.98ZM489.024 405.3V404.25C489.024 397.95 493.434 393.54 499.524 393.54C505.544 393.54 510.024 397.95 510.024 404.25V405.3C510.024 411.6 505.544 416.01 499.524 416.01C493.434 416.01 489.024 411.6 489.024 405.3Z" fill="#EBEBEB"/>
<path d="M401.624 420.98C408.204 420.98 413.874 417.48 415.764 410.62L410.724 409.36C409.674 413.56 406.174 416.01 401.624 416.01C395.604 416.01 391.054 411.53 391.054 405.23V404.32C391.054 398.02 395.604 393.47 401.624 393.47C406.174 393.47 409.674 395.92 410.724 400.12L415.764 398.86C413.874 392 408.204 388.57 401.624 388.57C392.734 388.57 385.594 395.22 385.594 404.32V405.23C385.594 414.26 392.734 420.98 401.624 420.98Z" fill="#EBEBEB"/>
<path d="M301.344 420.98C309.604 420.98 316.534 414.4 316.534 405.3V404.25C316.534 395.15 309.604 388.57 301.344 388.57C296.024 388.57 292.524 391.23 290.774 393.89H290.424V374.43H284.824V420H290.214V415.45H290.564C292.384 418.25 295.814 420.98 301.344 420.98ZM290.004 405.3V404.25C290.004 397.95 294.484 393.54 300.504 393.54C306.594 393.54 311.074 397.95 311.074 404.25V405.3C311.074 411.6 306.594 416.01 300.504 416.01C294.484 416.01 290.004 411.6 290.004 405.3Z" fill="#EBEBEB"/>
<path d="M615.204 404.32C615.204 395.22 609.604 388.64 600.434 388.64C591.684 388.64 584.824 395.29 584.824 404.39V405.37C584.824 414.47 591.964 421.12 601.064 421.12C607.084 421.12 612.264 418.25 614.504 413.63L609.814 411.6C608.274 414.61 605.264 416.29 601.134 416.29C595.044 416.29 590.844 412.3 590.354 406.56H615.134C615.204 405.79 615.204 405.02 615.204 404.32ZM590.354 402.01C591.054 396.76 595.324 393.47 600.434 393.47C606.384 393.47 609.674 397.39 609.744 402.01H590.354Z" fill="#EBEBEB"/>
<path d="M199.244 420.98C204.704 420.98 207.714 418.32 209.324 415.73H210.304V420H215.554V389.55H210.304V393.75H209.324C207.714 391.16 204.634 388.57 199.244 388.57C190.704 388.57 183.844 395.01 183.844 404.11V405.37C183.844 414.47 190.704 420.98 199.244 420.98ZM189.304 405.23V404.25C189.304 397.95 193.784 393.54 199.804 393.54C205.894 393.54 210.374 397.95 210.374 404.25V405.23C210.374 411.6 205.894 416.01 199.804 416.01C193.784 416.01 189.304 411.6 189.304 405.23Z" fill="#EBEBEB"/>
<path d="M716.394 373.94H701.484C698.824 373.94 696.864 375.9 696.864 378.56V389.41H685.174V394.31L695.184 394.17C696.234 394.17 696.864 394.8 696.864 395.85V413C696.864 414.4 695.954 415.24 694.554 415.17L685.034 414.75V420H715.554V414.75L704.494 415.17C703.094 415.24 702.324 414.47 702.324 413.07V395.85C702.324 394.8 702.954 394.17 704.004 394.17L715.274 394.31V389.41H702.324V380.87C702.324 379.47 703.094 378.7 704.494 378.77L716.394 379.19V373.94Z" fill="#EBEBEB"/>
<path d="M796.164 384.65V389.55H784.964V394.31L794.484 394.17C795.534 394.17 796.164 394.8 796.164 395.85V420H801.624V395.85C801.624 394.8 802.254 394.17 803.304 394.17L813.104 394.31V389.55H801.624V384.72C801.624 379.47 804.494 376.74 808.554 376.74C812.754 376.74 815.064 379.26 815.204 383.18L820.384 382.06C820.104 375.97 815.694 371.77 808.554 371.77C801.204 371.77 796.164 376.25 796.164 384.65Z" fill="#EBEBEB"/>
<path d="M898.684 420.98C904.214 420.98 907.714 418.25 909.534 415.45H909.884V420.14C909.884 426.93 905.894 430.15 899.594 430.15C894.134 430.15 890.214 427.49 888.394 422.66L883.424 424.48C885.874 430.85 891.684 434.91 899.664 434.91C908.764 434.91 915.134 429.8 915.204 420.21V420.07V389.55H909.884V394.1H909.534C907.714 391.3 904.214 388.57 898.684 388.57C890.424 388.57 883.564 395.15 883.564 404.25V405.3C883.564 414.4 890.424 420.98 898.684 420.98ZM889.024 405.3V404.25C889.024 397.95 893.434 393.54 899.524 393.54C905.544 393.54 910.024 397.95 910.024 404.25V405.3C910.024 411.6 905.544 416.01 899.524 416.01C893.434 416.01 889.024 411.6 889.024 405.3Z" fill="#EBEBEB"/>
<path d="M985.874 374.36V420H991.334V404.04C991.334 398.23 995.324 393.54 1000.78 393.54C1006.17 393.54 1009.11 397.11 1009.11 402.99V420H1014.57V401.66C1014.57 393.96 1010.02 388.57 1002.67 388.57C997.494 388.57 994.134 391.44 992.244 394.66H991.334V374.36H985.874Z" fill="#EBEBEB"/>
<path d="M1087.06 420H1116.46V414.75L1107.57 415.17C1106.17 415.24 1105.33 414.4 1105.33 413V394.24C1105.33 391.58 1103.3 389.55 1100.64 389.55L1087.62 389.62V394.87L1097.56 394.45C1098.96 394.31 1099.87 395.15 1099.87 396.62V413C1099.87 414.4 1099.03 415.24 1097.63 415.17L1087.06 414.75V420ZM1097.56 376.39C1097.56 378.91 1099.66 381.01 1102.18 381.01C1104.77 381.01 1106.8 378.91 1106.8 376.39C1106.8 373.94 1104.77 371.77 1102.18 371.77C1099.66 371.77 1097.56 373.94 1097.56 376.39Z" fill="#EBEBEB"/>
<path d="M1194.83 396.62V408.38C1194.83 416.85 1199.52 421.12 1206.87 421.12C1214.01 421.12 1218.21 416.64 1218.49 408.03L1213.31 406.91C1213.17 413.35 1211.07 416.08 1206.87 416.08C1202.74 416.08 1200.29 413.42 1200.29 408.17V394.17C1200.29 391.51 1198.33 389.55 1195.67 389.55H1184.61V394.87L1192.52 394.45C1193.99 394.38 1194.83 395.22 1194.83 396.62ZM1193.08 376.39C1193.08 378.91 1195.11 381.01 1197.7 381.01C1200.22 381.01 1202.32 378.91 1202.32 376.39C1202.32 373.94 1200.22 371.77 1197.7 371.77C1195.11 371.77 1193.08 373.94 1193.08 376.39Z" fill="#EBEBEB"/>
<path d="M1287.48 432.67H1304.14C1306.8 432.67 1308.76 430.71 1308.76 428.05V394.17C1308.76 391.51 1306.8 389.55 1304.14 389.55H1289.16V394.8L1303.3 394.24V427.98L1287.48 427.42V432.67ZM1301.41 376.39C1301.41 378.91 1303.51 381.01 1306.03 381.01C1308.55 381.01 1310.65 378.91 1310.65 376.39C1310.65 373.94 1308.55 371.77 1306.03 371.77C1303.51 371.77 1301.41 373.94 1301.41 376.39Z" fill="#EBEBEB"/>
<path d="M1406.24 381.01C1408.76 381.01 1410.86 378.91 1410.86 376.39C1410.86 373.94 1408.76 371.77 1406.24 371.77C1403.72 371.77 1401.62 373.94 1401.62 376.39C1401.62 378.91 1403.72 381.01 1406.24 381.01ZM1384.89 421.61C1385.17 430.22 1390.21 434.7 1397.35 434.7C1404.63 434.7 1408.97 430.43 1408.97 421.96V394.17C1408.97 391.51 1407.01 389.55 1404.35 389.55H1389.93V394.87L1401.27 394.45C1402.74 394.38 1403.51 395.15 1403.51 396.55V421.75C1403.51 427 1401.41 429.73 1397.28 429.73C1393.08 429.73 1390.21 426.93 1390.07 420.49L1384.89 421.61Z" fill="#EBEBEB"/>
<path d="M1487.34 374.43V420H1492.94V410.06L1498.75 405.02L1510.79 420H1517.58L1502.95 401.8L1517.02 389.55H1509.39L1492.94 403.97V374.43H1487.34Z" fill="#EBEBEB"/>
<path d="M90.9837 402.56L85.8737 401.65C86.7137 396.26 91.4737 391.57 98.6137 391.57C105.894 391.57 111.074 395.63 111.074 403.12V417.4C111.074 418.31 111.704 418.66 112.474 418.1L116.114 415.65L118.214 419.71L112.894 422.79C109.884 424.54 106.454 423.35 106.314 419.57V417.89H105.964C103.934 420.83 100.854 423.98 95.1137 423.98C90.0037 423.98 85.8037 420.83 85.8037 415.86V415.09C85.8037 409.49 90.6337 407.39 93.8537 406.48L105.684 403.12V402.49C105.684 398.43 102.674 396.19 98.5437 396.19C94.4837 396.19 91.5437 398.5 90.9837 402.56ZM91.1237 415.37C91.1237 418.03 93.1537 419.57 96.1637 419.57C101.204 419.57 105.824 414.74 105.824 409V407.32L95.7437 410.26C93.2937 411.03 91.1237 412.29 91.1237 415.02V415.37Z" fill="#EBEBEB"/>
<path d="M600.014 520.98C608.974 520.98 615.974 514.33 615.974 505.23V504.32C615.974 495.22 608.974 488.57 600.014 488.57C591.124 488.57 584.124 495.22 584.124 504.32V505.23C584.124 514.33 591.124 520.98 600.014 520.98ZM589.584 505.23V504.32C589.584 498.02 593.994 493.54 600.014 493.54C606.104 493.54 610.514 498.02 610.514 504.32V505.23C610.514 511.53 606.104 516.01 600.014 516.01C593.994 516.01 589.584 511.53 589.584 505.23Z" fill="#EBEBEB"/>
<path d="M485.874 489.55V520H491.334V504.04C491.334 498.23 495.324 493.54 500.784 493.54C506.174 493.54 509.114 497.11 509.114 502.99V520H514.574V501.66C514.574 493.96 510.024 488.57 502.674 488.57C497.494 488.57 493.574 491.37 491.684 494.66H491.334V489.55H485.874Z" fill="#EBEBEB"/>
<path d="M383.634 489.55V520H388.674V499.56C388.674 496.27 390.634 493.4 393.574 493.4C396.654 493.4 397.634 495.92 397.634 499.14V520H402.674V499.56C402.674 496.27 404.634 493.4 407.644 493.4C410.654 493.4 411.634 495.92 411.634 499.14V520H416.744V497.6C416.744 492.98 415.134 488.57 409.884 488.57C405.894 488.57 403.584 491.23 402.464 493.47H402.044C401.484 491.3 399.594 488.57 395.884 488.57C392.384 488.57 390.144 490.6 389.024 492.98H388.674V489.55H383.634Z" fill="#EBEBEB"/>
<path d="M701.344 488.57C695.814 488.57 692.384 491.3 690.564 494.1H690.214V489.55H684.824V533.93H690.424V515.66H690.774C692.524 518.32 696.024 520.98 701.344 520.98C709.604 520.98 716.534 514.4 716.534 505.3V504.25C716.534 495.15 709.604 488.57 701.344 488.57ZM690.004 505.3V504.25C690.004 497.95 694.484 493.54 700.504 493.54C706.594 493.54 711.074 497.95 711.074 504.25V505.3C711.074 511.6 706.594 516.01 700.504 516.01C694.484 516.01 690.004 511.6 690.004 505.3Z" fill="#EBEBEB"/>
<path d="M293.434 481.57V508.38C293.434 516.85 298.124 521.12 305.474 521.12C312.544 521.12 316.814 516.64 317.094 508.03L311.914 506.91C311.774 513.35 309.604 516.08 305.404 516.08C301.344 516.08 298.894 513.42 298.894 508.17V479.12C298.894 476.46 296.934 474.43 294.274 474.43H282.164V479.75L291.194 479.33C292.594 479.26 293.434 480.1 293.434 481.57Z" fill="#EBEBEB"/>
<path d="M798.684 488.57C790.424 488.57 783.564 495.15 783.564 504.25V505.3C783.564 514.4 790.424 520.98 798.684 520.98C804.004 520.98 807.574 518.32 809.324 515.66H809.674V533.93H815.204V489.55H809.884V494.1H809.534C807.714 491.3 804.214 488.57 798.684 488.57ZM789.024 505.3V504.25C789.024 497.95 793.434 493.54 799.524 493.54C805.544 493.54 810.024 497.95 810.024 504.25V505.3C810.024 511.6 805.544 516.01 799.524 516.01C793.434 516.01 789.024 511.6 789.024 505.3Z" fill="#EBEBEB"/>
<path d="M893.434 489.55H884.334V494.8L890.354 494.38C891.754 494.31 892.594 495.15 892.594 496.55V513C892.594 514.4 891.754 515.24 890.354 515.17L884.054 514.75V520H911.704V514.75L900.294 515.17C898.894 515.24 898.054 514.47 898.054 513.07V505.93C898.054 497.88 902.184 493.54 906.804 493.54C910.654 493.54 912.404 495.92 912.404 499.84V501.73L917.654 501.38V499C917.654 493.05 914.714 488.57 908.204 488.57C903.584 488.57 900.154 491.51 898.264 495.29H897.914V494.03C897.914 491.16 896.304 489.55 893.434 489.55Z" fill="#EBEBEB"/>
<path d="M988.254 489.55V520H993.714V508.73C993.714 500.12 998.054 493.68 1004.21 493.68C1008.48 493.68 1011.21 496.13 1011.21 501.38V507.61L1016.67 507.26V500.61C1016.67 492.84 1012.68 488.57 1005.96 488.57C999.594 488.57 995.604 492.91 993.784 497.32H993.434V489.55H988.254Z" fill="#EBEBEB"/>
<path d="M1087.27 498.44C1087.27 492.63 1092.59 488.64 1100.08 488.64C1106.38 488.64 1111.77 491.51 1113.24 497.46L1108.34 499C1107.29 495.01 1104.14 493.19 1100.01 493.19C1095.6 493.19 1092.66 495.22 1092.66 498.02C1092.66 500.75 1094.9 501.17 1097.21 501.52L1103.93 502.36C1110.23 503.2 1113.87 506.14 1113.87 511.39C1113.87 517.27 1108.41 521.05 1100.64 521.05C1094.2 521.05 1088.04 517.97 1086.29 511.25L1091.26 509.85C1092.73 514.68 1096.23 516.43 1100.92 516.43C1105.68 516.43 1108.48 514.61 1108.48 511.32C1108.48 508.87 1106.52 507.61 1103.37 507.19L1096.44 506.35C1090.98 505.72 1087.27 503.41 1087.27 498.44Z" fill="#EBEBEB"/>
<path d="M1199.94 520H1214.99V514.82L1203.02 515.24C1201.62 515.31 1200.78 514.54 1200.78 513.14V495.64C1200.78 494.66 1201.34 494.17 1202.25 494.17L1213.87 494.45V489.55H1200.78V479.4H1195.32V489.55H1183.77V494.45L1193.85 494.17C1194.83 494.17 1195.32 494.66 1195.32 495.64V515.38C1195.32 518.04 1197.28 520 1199.94 520Z" fill="#EBEBEB"/>
<path d="M1293.43 495.92V508.38C1293.43 516.85 1298.12 521.12 1305.47 521.12C1312.61 521.12 1316.81 516.64 1317.09 508.03L1311.91 506.91C1311.77 513.35 1309.67 516.08 1305.47 516.08C1301.34 516.08 1298.89 513.42 1298.89 508.17V495.92C1298.89 494.87 1299.52 494.24 1300.57 494.24L1312.82 494.45V489.55H1298.89V478.63H1293.43V489.55H1282.16V494.45L1291.75 494.31C1292.8 494.31 1293.43 494.87 1293.43 495.92Z" fill="#EBEBEB"/>
<path d="M1414.36 520V489.55H1408.9V505.51C1408.9 511.32 1404.91 516.01 1399.45 516.01C1394.06 516.01 1391.12 512.37 1391.12 506.56V489.55H1385.66V507.89C1385.66 515.59 1390.21 520.98 1397.56 520.98C1402.74 520.98 1406.1 518.04 1407.99 514.89H1409.04V520H1414.36Z" fill="#EBEBEB"/>
<path d="M1482.93 489.55L1496.02 520H1504.07L1517.09 489.55H1510.65L1500.57 514.75H1499.52L1489.37 489.55H1482.93Z" fill="#EBEBEB"/>
<path d="M185.804 523H216.814V517.75L207.434 518.17C205.964 518.24 205.124 517.4 205.124 516V482.05C205.124 479.39 203.164 477.43 200.504 477.43H186.784V482.68L197.424 482.26C198.894 482.19 199.664 482.96 199.664 484.36V516.07C199.664 517.47 198.824 518.24 197.424 518.17L185.804 517.75V523Z" fill="#EBEBEB"/>
<path d="M88.3937 474.43V520H93.9937V505.09L109.814 520H116.954L99.8037 503.9L116.394 489.55H109.184L93.9937 502.71V474.43H88.3937Z" fill="#EBEBEB"/>
<path d="M195.394 678.21C195.184 684.16 193.224 686.96 187.344 686.96H186.434V692.28H188.394C193.294 692.28 198.544 689.76 199.454 682.97H199.804V712.86C199.804 714.26 199.034 715.03 197.564 714.96L186.434 714.54V720H217.794V714.54L207.784 714.96C206.384 715.03 205.544 714.19 205.544 712.79V678.21H195.394Z" fill="#EBEBEB"/>
<path d="M100.014 703.62C102.464 703.62 104.424 701.59 104.424 699.21C104.424 696.83 102.464 694.8 100.014 694.8C97.6337 694.8 95.6037 696.83 95.6037 699.21C95.6037 701.59 97.6337 703.62 100.014 703.62ZM83.7737 704.04C83.7737 713.91 89.8637 721.12 100.014 721.12C110.164 721.12 116.254 713.91 116.254 704.04V694.38C116.254 684.44 110.164 677.3 100.014 677.3C89.8637 677.3 83.7737 684.44 83.7737 694.38V704.04ZM89.5137 703.83V694.59C89.5137 687.59 93.0137 682.62 100.014 682.62C107.014 682.62 110.584 687.59 110.584 694.59V703.83C110.584 710.76 107.014 715.73 100.014 715.73C93.0137 715.73 89.5137 710.76 89.5137 703.83Z" fill="#EBEBEB"/>
<path d="M386.994 589.55V594.45H406.874L407.364 595.29L386.504 613.63V620H414.224V615.1H393.434L392.944 614.26L413.734 595.92V589.55H386.994Z" fill="#EBEBEB"/>
<path d="M489.514 595.64V620H494.974V595.71C494.974 594.8 495.464 594.24 496.374 594.31L502.184 594.45V589.55H494.974V585.21C494.974 579.61 499.034 576.74 503.164 576.74C507.364 576.74 511.144 579.33 511.144 585.42V620H516.464V584.44C516.464 576.11 510.234 571.77 503.164 571.77C495.814 571.77 489.514 576.39 489.514 585V589.55H481.814V594.45L488.114 594.31C489.024 594.24 489.514 594.73 489.514 595.64Z" fill="#EBEBEB"/>
<path d="M301.064 677.23C292.384 677.23 284.894 683.46 285.874 692.21L291.404 692.98C290.634 686.19 295.254 682.34 301.204 682.34C306.594 682.34 310.164 685.42 310.164 690.74C310.164 695.64 307.224 697.81 302.674 699.84L294.904 703.34C288.954 705.93 285.244 710.13 285.244 715.87V720H316.184V714.75H291.684C291.684 711.04 293.994 709.29 298.054 707.47L305.754 703.97C312.544 700.89 315.834 697.04 315.834 690.46C315.834 683.25 310.514 677.23 301.064 677.23Z" fill="#EBEBEB"/>
<path d="M282.934 589.55L297.214 621.47L291.754 633.93H298.054L317.094 589.55H310.654L300.364 614.75H300.014L289.374 589.55H282.934Z" fill="#EBEBEB"/>
<path d="M400.924 721.05C409.254 721.05 415.904 716.15 415.904 707.54V706.63C415.904 699 409.884 693.82 403.514 693.82C401.554 693.82 399.804 694.38 398.894 694.8L398.474 694.31L413.874 682.97V678.21H385.104V683.18H404.914L405.264 683.81L391.334 693.89L395.884 700.33C397.074 699.63 398.754 698.72 401.694 698.72C406.174 698.72 410.234 701.94 410.234 706.84V707.4C410.234 712.93 406.174 715.94 400.924 715.94C395.464 715.94 390.564 712.93 389.514 705.79L383.914 707.19C385.664 716.57 392.524 721.05 400.924 721.05Z" fill="#EBEBEB"/>
<path d="M485.314 678.21V703.27C485.314 705.51 486.994 707.19 489.234 707.19H505.614V720H511.214V707.19H517.724V702.08H511.214V678.21H505.614V702.08H490.914V678.21H485.314Z" fill="#EBEBEB"/>
<path d="M601.344 720.98C610.024 720.98 616.534 715.45 616.534 706.98V705.93C616.534 697.53 610.584 692.28 602.674 692.28C598.054 692.28 594.344 694.31 592.104 698.09H591.194V683.18H613.944V678.21H589.724C587.484 678.21 585.804 679.89 585.804 682.13V701.24L593.084 702.57C594.554 699.49 597.564 697.25 601.694 697.25C607.014 697.25 610.864 700.68 610.864 706.14V706.91C610.864 712.37 606.664 715.87 601.344 715.87C596.164 715.87 591.964 713.14 590.704 707.68L585.174 709.01C587.204 717.2 593.784 720.98 601.344 720.98Z" fill="#EBEBEB"/>
<path d="M690.984 707.05V706.14C690.984 700.47 695.464 697.11 700.644 697.11C705.824 697.11 710.304 700.47 710.304 706.14V707.05C710.304 712.72 705.824 716.08 700.644 716.08C695.464 716.08 690.984 712.72 690.984 707.05ZM685.244 705.44C685.244 716.01 692.594 721.12 700.714 721.12C709.044 721.12 715.974 715.87 715.974 707.26V706.07C715.974 697.6 709.464 692.28 702.184 692.28C697.144 692.28 693.224 694.94 691.264 698.3H690.914V694.59C690.914 687.52 694.904 682.41 701.554 682.41C706.664 682.41 710.514 685.49 710.794 690.88L716.114 689.62C715.414 681.29 708.694 677.23 701.554 677.23C691.614 677.23 685.244 684.44 685.244 694.45V705.44Z" fill="#EBEBEB"/>
<path d="M783.704 678.21V683.39H809.884L810.374 684.3L790.844 720H797.564L816.394 684.02V678.21H783.704Z" fill="#EBEBEB"/>
<path d="M900.014 720.98C909.114 720.98 915.274 716.08 915.274 709.64V708.94C915.274 703.2 910.864 700.26 908.134 699.14V698.3C910.584 697.18 914.574 694.59 914.574 689.41V688.71C914.574 682.55 908.204 677.23 900.014 677.23C891.824 677.23 885.454 682.55 885.454 688.71V689.41C885.454 694.59 889.444 697.18 891.894 698.3V699.14C889.164 700.26 884.754 703.2 884.754 708.94V709.64C884.754 716.08 890.914 720.98 900.014 720.98ZM890.354 708.87V708.38C890.354 703.48 895.114 701.17 900.014 701.17C904.914 701.17 909.744 703.48 909.744 708.38V708.87C909.744 713.7 904.914 716.08 900.014 716.08C895.114 716.08 890.354 713.7 890.354 708.87ZM891.054 689.55V689.06C891.054 684.58 895.464 682.13 900.014 682.13C904.564 682.13 908.974 684.58 908.974 689.06V689.55C908.974 694.1 904.564 696.55 900.014 696.55C895.464 696.55 891.054 694.1 891.054 689.55Z" fill="#EBEBEB"/>
<path d="M1010.23 691.16V692.07C1010.23 697.74 1005.75 701.03 1000.57 701.03C995.394 701.03 990.914 697.74 990.914 692.07V691.16C990.914 685.49 995.394 682.13 1000.57 682.13C1005.75 682.13 1010.23 685.49 1010.23 691.16ZM985.104 708.59C986.364 716.71 993.084 720.98 1000.78 720.98C1010.72 720.98 1015.97 714.4 1015.97 704.53V692.77C1015.97 682.2 1008.62 677.09 1000.5 677.09C992.174 677.09 985.244 682.34 985.244 690.95V692.14C985.244 700.61 991.824 705.93 999.034 705.93C1004.07 705.93 1007.99 703.2 1009.95 699.84H1010.3V704.39C1010.3 711.25 1007.5 715.73 1000.78 715.73C995.114 715.73 991.264 712.58 990.424 707.33L985.104 708.59Z" fill="#EBEBEB"/>
<path d="M184.544 592.55L196.164 607.74L184.404 623H190.984L199.664 611.17H200.434L209.114 623H215.694L203.864 607.74L215.554 592.55H209.044L200.434 604.38H199.664L190.984 592.55H184.544Z" fill="#EBEBEB"/>
<path d="M83.0737 589.55L88.3237 620H95.7437L99.6637 596.13H100.364L104.354 620H111.774L117.024 589.55H111.914L108.064 614.68H107.294L102.954 589.55H97.0737L92.7337 614.68H91.9637L88.1137 589.55H83.0737Z" fill="#EBEBEB"/>
<path d="M813.042 769.95L782.242 825.25H788.052L818.712 769.95H813.042Z" fill="#EBEBEB"/>
<path d="M696.032 775.2L693.582 786.4H687.142V791.16H692.462L689.662 804.04H682.522V808.8H688.612L686.092 820H691.272L693.792 808.8H702.332L699.812 820H705.062L707.582 808.8H713.952V804.04H708.632L711.432 791.16H718.572V786.4H712.552L715.002 775.2H709.752L707.302 786.4H698.762L701.212 775.2H696.032ZM694.842 804.04L697.642 791.16H706.182L703.382 804.04H694.842Z" fill="#EBEBEB"/>
<path d="M500.512 796.83C503.522 796.83 506.042 794.38 506.042 791.3C506.042 788.43 503.522 785.84 500.512 785.84C497.502 785.84 495.052 788.43 495.052 791.3C495.052 794.38 497.502 796.83 500.512 796.83ZM491.202 833.72H496.242L504.432 812.86H497.432L491.202 833.72Z" fill="#EBEBEB"/>
<path d="M600.512 820.56C603.522 820.56 606.042 818.11 606.042 815.03C606.042 812.16 603.522 809.57 600.512 809.57C597.502 809.57 595.052 812.16 595.052 815.03C595.052 818.11 597.502 820.56 600.512 820.56ZM597.152 775.2L598.342 802.08H602.752L603.942 775.2H597.152Z" fill="#EBEBEB"/>
<path d="M400.014 820.56C403.024 820.56 405.544 818.11 405.544 815.03C405.544 812.16 403.024 809.57 400.014 809.57C397.004 809.57 394.554 812.16 394.554 815.03C394.554 818.11 397.004 820.56 400.014 820.56ZM394.554 791.3C394.554 794.38 397.004 796.83 400.014 796.83C403.024 796.83 405.544 794.38 405.544 791.3C405.544 788.43 403.024 785.84 400.014 785.84C397.004 785.84 394.554 788.43 394.554 791.3Z" fill="#EBEBEB"/>
<path d="M890.074 796.69V801.52H909.954V796.69H890.074Z" fill="#EBEBEB"/>
<path d="M1002.25 825.6L1006.8 822.87C1003.72 818.46 998.684 810.2 998.684 797.88C998.684 785.49 1003.72 777.37 1006.8 772.96L1002.25 770.23C998.544 775.9 993.224 784.51 993.224 797.88C993.224 811.25 998.544 819.86 1002.25 825.6Z" fill="#EBEBEB"/>
<path d="M1093.22 822.87L1097.77 825.6C1101.55 819.86 1106.8 811.25 1106.8 797.88C1106.8 784.51 1101.55 775.9 1097.77 770.23L1093.22 772.96C1096.3 777.37 1101.34 785.49 1101.34 797.88C1101.34 810.2 1096.3 818.46 1093.22 822.87Z" fill="#EBEBEB"/>
<path d="M1190.91 774.57V820.63C1190.91 823.29 1192.87 825.25 1195.53 825.25H1209.11V820.28H1196.3V774.92H1209.11V769.95H1195.53C1192.87 769.95 1190.91 771.91 1190.91 774.57Z" fill="#EBEBEB"/>
<path d="M1290.91 825.25H1304.49C1307.15 825.25 1309.11 823.29 1309.11 820.63V774.57C1309.11 771.91 1307.15 769.95 1304.49 769.95H1290.91V774.92H1303.72V820.28H1290.91V825.25Z" fill="#EBEBEB"/>
<path d="M1394.62 821.12C1401.13 821.12 1404.63 817.69 1407.29 814.61L1412.47 820.07H1419.61L1410.79 810.69L1419.89 800.33H1413.03L1407.29 806.98L1398.26 797.32L1400.01 795.78C1402.67 793.47 1405.82 790.88 1405.82 786.47C1405.82 781.08 1401.41 777.09 1395.39 777.09C1389.23 777.09 1385.03 781.78 1385.03 786.61C1385.03 790.46 1386.99 792.98 1389.65 795.78L1390.98 797.25L1390.56 797.6C1387.55 800.12 1382.79 803.34 1382.79 809.99C1382.79 816.43 1387.9 821.12 1394.62 821.12ZM1388.32 809.43C1388.32 805.58 1390.7 803.97 1393.36 801.59L1394.34 800.75L1403.86 810.9C1401.34 813.84 1398.89 815.94 1394.76 815.94C1390.63 815.94 1388.32 812.93 1388.32 809.43ZM1390.49 786.96C1390.49 784.09 1392.52 782.06 1395.53 782.06C1398.33 782.06 1400.29 784.02 1400.29 786.96C1400.29 789.13 1398.54 791.02 1396.79 792.42L1395.04 793.89L1393.36 792.14C1391.54 790.18 1390.49 788.78 1390.49 786.96Z" fill="#EBEBEB"/>
<path d="M199.664 815.86L193.434 836.72H198.474L206.664 815.86H199.664Z" fill="#EBEBEB"/>
<path d="M302.052 823.14C300.652 827.69 297.292 830.07 293.092 831.26L294.352 835.04C302.682 832.59 306.882 826.29 306.882 818.8C306.882 814.53 304.222 812.57 301.212 812.57C298.202 812.57 295.752 815.16 295.752 818.03C295.752 821.11 298.272 823.84 302.052 823.14Z" fill="#EBEBEB"/>
<path d="M100.014 820.56C103.024 820.56 105.544 818.11 105.544 815.03C105.544 812.16 103.024 809.57 100.014 809.57C97.0037 809.57 94.5537 812.16 94.5537 815.03C94.5537 818.11 97.0037 820.56 100.014 820.56Z" fill="#EBEBEB"/>
</svg>
