<svg width="1600" height="900" viewBox="0 0 1600 900" fill="none" xmlns="http://www.w3.org/2000/svg">
<rect width="1600" height="900" fill="#0D0A08"/>
<path d="M69.94 45.1L43.54 92.5H48.52L74.8 45.1H69.94ZM95.8989 42.4L94.6989 53.92L106.219 50.68L107.059 56.2L96.0189 57.1L103.159 66.58L97.9989 69.4L92.8989 58.9L88.2789 69.4L82.9389 66.58L89.9589 57.1L79.0389 56.2L79.8789 50.68L91.2789 53.92L90.0189 42.4H95.8989ZM110.166 88H115.566L118.746 78.16H132.906L136.086 88H141.546L129.306 52.18H122.346L110.166 88ZM120.546 72.46L125.466 57.4H126.246L131.106 72.46C131.346 73.24 130.986 73.72 130.146 73.72H121.506C120.726 73.72 120.306 73.24 120.546 72.46ZM149.082 52.18V88H174.882V83.38L154.002 83.86V52.18H149.082ZM183.919 52.18V88H188.839V72.64H204.919V68.32H188.839V57.58C188.839 56.74 189.319 56.26 190.159 56.32L207.799 56.74V52.18H183.919ZM252.632 88H248.312V52.18H255.752L262.412 83.68H262.712L269.312 52.18H276.752V88H272.492V57.4H272.192L265.712 88H259.292L252.932 57.4H252.632V88ZM296.709 88.96C305.409 88.96 310.989 82.78 310.989 74.32V66.04C310.989 57.52 305.409 51.4 296.709 51.4C288.009 51.4 282.429 57.52 282.429 66.04V74.32C282.429 82.78 288.009 88.96 296.709 88.96ZM287.409 74.14V66.22C287.409 60.22 290.709 55.96 296.709 55.96C302.709 55.96 306.069 60.22 306.069 66.22V74.14C306.069 80.08 302.709 84.34 296.709 84.34C290.709 84.34 287.409 80.08 287.409 74.14ZM317.445 52.18V88H322.365V58.24H323.085L337.065 88H344.325V52.18H339.405V81.94H338.685L324.705 52.18H317.445ZM365.062 88.96C373.762 88.96 379.342 82.78 379.342 74.32V66.04C379.342 57.52 373.762 51.4 365.062 51.4C356.362 51.4 350.782 57.52 350.782 66.04V74.32C350.782 82.78 356.362 88.96 365.062 88.96ZM355.762 74.14V66.22C355.762 60.22 359.062 55.96 365.062 55.96C371.062 55.96 374.422 60.22 374.422 66.22V74.14C374.422 80.08 371.062 84.34 365.062 84.34C359.062 84.34 355.762 80.08 355.762 74.14ZM400.558 42.4L399.358 53.92L410.878 50.68L411.718 56.2L400.678 57.1L407.818 66.58L402.658 69.4L397.558 58.9L392.938 69.4L387.598 66.58L394.618 57.1L383.698 56.2L384.538 50.68L395.938 53.92L394.678 42.4H400.558ZM442.425 45.1L416.025 92.5H421.005L447.285 45.1H442.425ZM503.161 92.8L507.061 90.46C504.421 86.68 500.101 79.6 500.101 69.04C500.101 58.42 504.421 51.46 507.061 47.68L503.161 45.34C499.981 50.2 495.421 57.58 495.421 69.04C495.421 80.5 499.981 87.88 503.161 92.8ZM520.777 61.9L531.997 88H538.897L550.057 61.9H544.537L535.897 83.5H534.997L526.297 61.9H520.777ZM565.634 52.18C565.454 57.28 563.774 59.68 558.734 59.68H557.954V64.24H559.634C563.834 64.24 568.334 62.08 569.114 56.26H569.414V81.88C569.414 83.08 568.754 83.74 567.494 83.68L557.954 83.32V88H584.834V83.32L576.254 83.68C575.054 83.74 574.334 83.02 574.334 81.82V52.18H565.634ZM603.77 88.48C606.35 88.48 608.51 86.38 608.51 83.74C608.51 81.28 606.35 79.06 603.77 79.06C601.19 79.06 599.09 81.28 599.09 83.74C599.09 86.38 601.19 88.48 603.77 88.48ZM638.847 51.34C631.407 51.34 624.987 56.68 625.827 64.18L630.567 64.84C629.907 59.02 633.867 55.72 638.967 55.72C643.587 55.72 646.647 58.36 646.647 62.92C646.647 67.12 644.127 68.98 640.227 70.72L633.567 73.72C628.467 75.94 625.287 79.54 625.287 84.46V88H651.807V83.5H630.807C630.807 80.32 632.787 78.82 636.267 77.26L642.867 74.26C648.687 71.62 651.507 68.32 651.507 62.68C651.507 56.5 646.947 51.34 638.847 51.34ZM666.303 90.46L670.203 92.8C673.443 87.88 677.943 80.5 677.943 69.04C677.943 57.58 673.443 50.2 670.203 45.34L666.303 47.68C668.943 51.46 673.263 58.42 673.263 69.04C673.263 79.6 668.943 86.68 666.303 90.46Z" fill="white" fill-opacity="0.95"/>
<path d="M44.06 329.55L49.31 360H56.73L60.65 336.13H61.35L65.34 360H72.76L78.01 329.55H72.9L69.05 354.68H68.28L63.94 329.55H58.06L53.72 354.68H52.95L49.1 329.55H44.06ZM87.9227 360H117.323V354.75L108.433 355.17C107.033 355.24 106.193 354.4 106.193 353V334.24C106.193 331.58 104.163 329.55 101.503 329.55L88.4827 329.62V334.87L98.4227 334.45C99.8227 334.31 100.733 335.15 100.733 336.62V353C100.733 354.4 99.8927 355.24 98.4927 355.17L87.9227 354.75V360ZM98.4227 316.39C98.4227 318.91 100.523 321.01 103.043 321.01C105.633 321.01 107.663 318.91 107.663 316.39C107.663 313.94 105.633 311.77 103.043 311.77C100.523 311.77 98.4227 313.94 98.4227 316.39ZM139.415 360.98C144.945 360.98 148.445 358.25 150.265 355.45H150.615V360H155.935V314.43H150.405V333.89H150.055C148.305 331.23 144.735 328.57 139.415 328.57C131.155 328.57 124.295 335.15 124.295 344.25V345.3C124.295 354.4 131.155 360.98 139.415 360.98ZM129.755 345.3V344.25C129.755 337.95 134.165 333.54 140.255 333.54C146.275 333.54 150.755 337.95 150.755 344.25V345.3C150.755 351.6 146.275 356.01 140.255 356.01C134.165 356.01 129.755 351.6 129.755 345.3ZM174.038 335.92V348.38C174.038 356.85 178.728 361.12 186.078 361.12C193.218 361.12 197.418 356.64 197.698 348.03L192.518 346.91C192.378 353.35 190.278 356.08 186.078 356.08C181.948 356.08 179.498 353.42 179.498 348.17V335.92C179.498 334.87 180.128 334.24 181.178 334.24L193.428 334.45V329.55H179.498V318.63H174.038V329.55H162.768V334.45L172.358 334.31C173.408 334.31 174.038 334.87 174.038 335.92ZM206.351 314.36V360H211.811V344.04C211.811 338.23 215.801 333.54 221.261 333.54C226.651 333.54 229.591 337.11 229.591 342.99V360H235.051V341.66C235.051 333.96 230.501 328.57 223.151 328.57C217.971 328.57 214.611 331.44 212.721 334.66H211.811V314.36H206.351ZM62.33 398.57C56.8 398.57 53.37 401.3 51.55 404.1H51.2V399.55H45.81V443.93H51.41V425.66H51.76C53.51 428.32 57.01 430.98 62.33 430.98C70.59 430.98 77.52 424.4 77.52 415.3V414.25C77.52 405.15 70.59 398.57 62.33 398.57ZM50.99 415.3V414.25C50.99 407.95 55.47 403.54 61.49 403.54C67.58 403.54 72.06 407.95 72.06 414.25V415.3C72.06 421.6 67.58 426.01 61.49 426.01C55.47 426.01 50.99 421.6 50.99 415.3ZM91.8427 409.56L86.7327 408.65C87.5727 403.26 92.3327 398.57 99.4727 398.57C106.753 398.57 111.933 402.63 111.933 410.12V424.4C111.933 425.31 112.563 425.66 113.333 425.1L116.973 422.65L119.073 426.71L113.753 429.79C110.743 431.54 107.313 430.35 107.173 426.57V424.89H106.823C104.793 427.83 101.713 430.98 95.9727 430.98C90.8627 430.98 86.6627 427.83 86.6627 422.86V422.09C86.6627 416.49 91.4927 414.39 94.7127 413.48L106.543 410.12V409.49C106.543 405.43 103.533 403.19 99.4027 403.19C95.3427 403.19 92.4027 405.5 91.8427 409.56ZM91.9827 422.37C91.9827 425.03 94.0127 426.57 97.0227 426.57C102.063 426.57 106.683 421.74 106.683 416V414.32L96.6027 417.26C94.1527 418.03 91.9827 419.29 91.9827 422.02V422.37ZM139.415 430.98C144.945 430.98 148.445 428.25 150.265 425.45H150.615V430H155.935V384.43H150.405V403.89H150.055C148.305 401.23 144.735 398.57 139.415 398.57C131.155 398.57 124.295 405.15 124.295 414.25V415.3C124.295 424.4 131.155 430.98 139.415 430.98ZM129.755 415.3V414.25C129.755 407.95 134.165 403.54 140.255 403.54C146.275 403.54 150.755 407.95 150.755 414.25V415.3C150.755 421.6 146.275 426.01 140.255 426.01C134.165 426.01 129.755 421.6 129.755 415.3ZM179.288 430.98C184.818 430.98 188.318 428.25 190.138 425.45H190.488V430H195.808V384.43H190.278V403.89H189.928C188.178 401.23 184.608 398.57 179.288 398.57C171.028 398.57 164.168 405.15 164.168 414.25V415.3C164.168 424.4 171.028 430.98 179.288 430.98ZM169.628 415.3V414.25C169.628 407.95 174.038 403.54 180.128 403.54C186.148 403.54 190.628 407.95 190.628 414.25V415.3C190.628 421.6 186.148 426.01 180.128 426.01C174.038 426.01 169.628 421.6 169.628 415.3ZM207.541 430H236.941V424.75L228.051 425.17C226.651 425.24 225.811 424.4 225.811 423V404.24C225.811 401.58 223.781 399.55 221.121 399.55L208.101 399.62V404.87L218.041 404.45C219.441 404.31 220.351 405.15 220.351 406.62V423C220.351 424.4 219.511 425.24 218.111 425.17L207.541 424.75V430ZM218.041 386.39C218.041 388.91 220.141 391.01 222.661 391.01C225.251 391.01 227.281 388.91 227.281 386.39C227.281 383.94 225.251 381.77 222.661 381.77C220.141 381.77 218.041 383.94 218.041 386.39ZM246.223 399.55V430H251.683V414.04C251.683 408.23 255.673 403.54 261.133 403.54C266.523 403.54 269.463 407.11 269.463 412.99V430H274.923V411.66C274.923 403.96 270.373 398.57 263.023 398.57C257.843 398.57 253.923 401.37 252.033 404.66H251.683V399.55H246.223ZM298.906 430.98C304.436 430.98 307.936 428.25 309.756 425.45H310.106V430.14C310.106 436.93 306.116 440.15 299.816 440.15C294.356 440.15 290.436 437.49 288.616 432.66L283.646 434.48C286.096 440.85 291.906 444.91 299.886 444.91C308.986 444.91 315.356 439.8 315.426 430.21V430.07V399.55H310.106V404.1H309.756C307.936 401.3 304.436 398.57 298.906 398.57C290.646 398.57 283.786 405.15 283.786 414.25V415.3C283.786 424.4 290.646 430.98 298.906 430.98ZM289.246 415.3V414.25C289.246 407.95 293.656 403.54 299.746 403.54C305.766 403.54 310.246 407.95 310.246 414.25V415.3C310.246 421.6 305.766 426.01 299.746 426.01C293.656 426.01 289.246 421.6 289.246 415.3ZM59.67 500.98C65.2 500.98 68.7 498.25 70.52 495.45H70.87V500H76.19V454.43H70.66V473.89H70.31C68.56 471.23 64.99 468.57 59.67 468.57C51.41 468.57 44.55 475.15 44.55 484.25V485.3C44.55 494.4 51.41 500.98 59.67 500.98ZM50.01 485.3V484.25C50.01 477.95 54.42 473.54 60.51 473.54C66.53 473.54 71.01 477.95 71.01 484.25V485.3C71.01 491.6 66.53 496.01 60.51 496.01C54.42 496.01 50.01 491.6 50.01 485.3ZM87.9227 500H117.323V494.75L108.433 495.17C107.033 495.24 106.193 494.4 106.193 493V474.24C106.193 471.58 104.163 469.55 101.503 469.55L88.4827 469.62V474.87L98.4227 474.45C99.8227 474.31 100.733 475.15 100.733 476.62V493C100.733 494.4 99.8927 495.24 98.4927 495.17L87.9227 494.75V500ZM98.4227 456.39C98.4227 458.91 100.523 461.01 103.043 461.01C105.633 461.01 107.663 458.91 107.663 456.39C107.663 453.94 105.633 451.77 103.043 451.77C100.523 451.77 98.4227 453.94 98.4227 456.39ZM128.005 478.44C128.005 472.63 133.325 468.64 140.815 468.64C147.115 468.64 152.505 471.51 153.975 477.46L149.075 479C148.025 475.01 144.875 473.19 140.745 473.19C136.335 473.19 133.395 475.22 133.395 478.02C133.395 480.75 135.635 481.17 137.945 481.52L144.665 482.36C150.965 483.2 154.605 486.14 154.605 491.39C154.605 497.27 149.145 501.05 141.375 501.05C134.935 501.05 128.775 497.97 127.025 491.25L131.995 489.85C133.465 494.68 136.965 496.43 141.655 496.43C146.415 496.43 149.215 494.61 149.215 491.32C149.215 488.87 147.255 487.61 144.105 487.19L137.175 486.35C131.715 485.72 128.005 483.41 128.005 478.44ZM181.948 468.57C176.418 468.57 172.988 471.3 171.168 474.1H170.818V469.55H165.428V513.93H171.028V495.66H171.378C173.128 498.32 176.628 500.98 181.948 500.98C190.208 500.98 197.138 494.4 197.138 485.3V484.25C197.138 475.15 190.208 468.57 181.948 468.57ZM170.608 485.3V484.25C170.608 477.95 175.088 473.54 181.108 473.54C187.198 473.54 191.678 477.95 191.678 484.25V485.3C191.678 491.6 187.198 496.01 181.108 496.01C175.088 496.01 170.608 491.6 170.608 485.3ZM213.911 461.57V488.38C213.911 496.85 218.601 501.12 225.951 501.12C233.021 501.12 237.291 496.64 237.571 488.03L232.391 486.91C232.251 493.35 230.081 496.08 225.881 496.08C221.821 496.08 219.371 493.42 219.371 488.17V459.12C219.371 456.46 217.411 454.43 214.751 454.43H202.641V459.75L211.671 459.33C213.071 459.26 213.911 460.1 213.911 461.57ZM251.333 479.56L246.223 478.65C247.063 473.26 251.823 468.57 258.963 468.57C266.243 468.57 271.423 472.63 271.423 480.12V494.4C271.423 495.31 272.053 495.66 272.823 495.1L276.463 492.65L278.563 496.71L273.243 499.79C270.233 501.54 266.803 500.35 266.663 496.57V494.89H266.313C264.283 497.83 261.203 500.98 255.463 500.98C250.353 500.98 246.153 497.83 246.153 492.86V492.09C246.153 486.49 250.983 484.39 254.203 483.48L266.033 480.12V479.49C266.033 475.43 263.023 473.19 258.893 473.19C254.833 473.19 251.893 475.5 251.333 479.56ZM251.473 492.37C251.473 495.03 253.503 496.57 256.513 496.57C261.553 496.57 266.173 491.74 266.173 486V484.32L256.093 487.26C253.643 488.03 251.473 489.29 251.473 492.02V492.37ZM283.156 469.55L297.436 501.47L291.976 513.93H298.276L317.316 469.55H310.876L300.586 494.75H300.236L289.596 469.55H283.156ZM67.23 531.01C69.75 531.01 71.85 528.91 71.85 526.39C71.85 523.94 69.75 521.77 67.23 521.77C64.71 521.77 62.61 523.94 62.61 526.39C62.61 528.91 64.71 531.01 67.23 531.01ZM45.88 571.61C46.16 580.22 51.2 584.7 58.34 584.7C65.62 584.7 69.96 580.43 69.96 571.96V544.17C69.96 541.51 68 539.55 65.34 539.55H50.92V544.87L62.26 544.45C63.73 544.38 64.5 545.15 64.5 546.55V571.75C64.5 577 62.4 579.73 58.27 579.73C54.07 579.73 51.2 576.93 51.06 570.49L45.88 571.61ZM115.223 570V539.55H109.763V555.51C109.763 561.32 105.773 566.01 100.313 566.01C94.9227 566.01 91.9827 562.37 91.9827 556.56V539.55H86.5227V557.89C86.5227 565.59 91.0727 570.98 98.4227 570.98C103.603 570.98 106.963 568.04 108.853 564.89H109.903V570H115.223ZM128.005 548.44C128.005 542.63 133.325 538.64 140.815 538.64C147.115 538.64 152.505 541.51 153.975 547.46L149.075 549C148.025 545.01 144.875 543.19 140.745 543.19C136.335 543.19 133.395 545.22 133.395 548.02C133.395 550.75 135.635 551.17 137.945 551.52L144.665 552.36C150.965 553.2 154.605 556.14 154.605 561.39C154.605 567.27 149.145 571.05 141.375 571.05C134.935 571.05 128.775 567.97 127.025 561.25L131.995 559.85C133.465 564.68 136.965 566.43 141.655 566.43C146.415 566.43 149.215 564.61 149.215 561.32C149.215 558.87 147.255 557.61 144.105 557.19L137.175 556.35C131.715 555.72 128.005 553.41 128.005 548.44ZM174.038 545.92V558.38C174.038 566.85 178.728 571.12 186.078 571.12C193.218 571.12 197.418 566.64 197.698 558.03L192.518 556.91C192.378 563.35 190.278 566.08 186.078 566.08C181.948 566.08 179.498 563.42 179.498 558.17V545.92C179.498 544.87 180.128 544.24 181.178 544.24L193.428 544.45V539.55H179.498V528.63H174.038V539.55H162.768V544.45L172.358 544.31C173.408 544.31 174.038 544.87 174.038 545.92ZM207.541 570H236.941V564.75L228.051 565.17C226.651 565.24 225.811 564.4 225.811 563V544.24C225.811 541.58 223.781 539.55 221.121 539.55L208.101 539.62V544.87L218.041 544.45C219.441 544.31 220.351 545.15 220.351 546.62V563C220.351 564.4 219.511 565.24 218.111 565.17L207.541 564.75V570ZM218.041 526.39C218.041 528.91 220.141 531.01 222.661 531.01C225.251 531.01 227.281 528.91 227.281 526.39C227.281 523.94 225.251 521.77 222.661 521.77C220.141 521.77 218.041 523.94 218.041 526.39ZM256.513 534.65V539.55H245.313V544.31L254.833 544.17C255.883 544.17 256.513 544.8 256.513 545.85V570H261.973V545.85C261.973 544.8 262.603 544.17 263.653 544.17L273.453 544.31V539.55H261.973V534.72C261.973 529.47 264.843 526.74 268.903 526.74C273.103 526.74 275.413 529.26 275.553 533.18L280.733 532.06C280.453 525.97 276.043 521.77 268.903 521.77C261.553 521.77 256.513 526.25 256.513 534.65ZM283.156 539.55L297.436 571.47L291.976 583.93H298.276L317.316 539.55H310.876L300.586 564.75H300.236L289.596 539.55H283.156ZM330.169 546.69V551.52H350.049V546.69H330.169ZM381.591 570.98C388.171 570.98 393.841 567.48 395.731 560.62L390.691 559.36C389.641 563.56 386.141 566.01 381.591 566.01C375.571 566.01 371.021 561.53 371.021 555.23V554.32C371.021 548.02 375.571 543.47 381.591 543.47C386.141 543.47 389.641 545.92 390.691 550.12L395.731 548.86C393.841 542 388.171 538.57 381.591 538.57C372.701 538.57 365.561 545.22 365.561 554.32V555.23C365.561 564.26 372.701 570.98 381.591 570.98ZM419.854 570.98C428.814 570.98 435.814 564.33 435.814 555.23V554.32C435.814 545.22 428.814 538.57 419.854 538.57C410.964 538.57 403.964 545.22 403.964 554.32V555.23C403.964 564.33 410.964 570.98 419.854 570.98ZM409.424 555.23V554.32C409.424 548.02 413.834 543.54 419.854 543.54C425.944 543.54 430.354 548.02 430.354 554.32V555.23C430.354 561.53 425.944 566.01 419.854 566.01C413.834 566.01 409.424 561.53 409.424 555.23ZM445.587 539.55V570H451.047V554.04C451.047 548.23 455.037 543.54 460.497 543.54C465.887 543.54 468.827 547.11 468.827 552.99V570H474.287V551.66C474.287 543.96 469.737 538.57 462.387 538.57C457.207 538.57 453.287 541.37 451.397 544.66H451.047V539.55H445.587ZM493.019 545.92V558.38C493.019 566.85 497.709 571.12 505.059 571.12C512.199 571.12 516.399 566.64 516.679 558.03L511.499 556.91C511.359 563.35 509.259 566.08 505.059 566.08C500.929 566.08 498.479 563.42 498.479 558.17V545.92C498.479 544.87 499.109 544.24 500.159 544.24L512.409 544.45V539.55H498.479V528.63H493.019V539.55H481.749V544.45L491.339 544.31C492.389 544.31 493.019 544.87 493.019 545.92ZM554.662 554.32C554.662 545.22 549.062 538.64 539.892 538.64C531.142 538.64 524.282 545.29 524.282 554.39V555.37C524.282 564.47 531.422 571.12 540.522 571.12C546.542 571.12 551.722 568.25 553.962 563.63L549.272 561.6C547.732 564.61 544.722 566.29 540.592 566.29C534.502 566.29 530.302 562.3 529.812 556.56H554.592C554.662 555.79 554.662 555.02 554.662 554.32ZM529.812 552.01C530.512 546.76 534.782 543.47 539.892 543.47C545.842 543.47 549.132 547.39 549.202 552.01H529.812ZM565.205 539.55V570H570.665V554.04C570.665 548.23 574.655 543.54 580.115 543.54C585.505 543.54 588.445 547.11 588.445 552.99V570H593.905V551.66C593.905 543.96 589.355 538.57 582.005 538.57C576.825 538.57 572.905 541.37 571.015 544.66H570.665V539.55H565.205ZM612.637 545.92V558.38C612.637 566.85 617.327 571.12 624.677 571.12C631.817 571.12 636.017 566.64 636.297 558.03L631.117 556.91C630.977 563.35 628.877 566.08 624.677 566.08C620.547 566.08 618.097 563.42 618.097 558.17V545.92C618.097 544.87 618.727 544.24 619.777 544.24L632.027 544.45V539.55H618.097V528.63H612.637V539.55H601.367V544.45L610.957 544.31C612.007 544.31 612.637 544.87 612.637 545.92ZM51.97 619.56L46.86 618.65C47.7 613.26 52.46 608.57 59.6 608.57C66.88 608.57 72.06 612.63 72.06 620.12V634.4C72.06 635.31 72.69 635.66 73.46 635.1L77.1 632.65L79.2 636.71L73.88 639.79C70.87 641.54 67.44 640.35 67.3 636.57V634.89H66.95C64.92 637.83 61.84 640.98 56.1 640.98C50.99 640.98 46.79 637.83 46.79 632.86V632.09C46.79 626.49 51.62 624.39 54.84 623.48L66.67 620.12V619.49C66.67 615.43 63.66 613.19 59.53 613.19C55.47 613.19 52.53 615.5 51.97 619.56ZM52.11 632.37C52.11 635.03 54.14 636.57 57.15 636.57C62.19 636.57 66.81 631.74 66.81 626V624.32L56.73 627.26C54.28 628.03 52.11 629.29 52.11 632.02V632.37ZM94.2927 601.57V628.38C94.2927 636.85 98.9827 641.12 106.333 641.12C113.403 641.12 117.673 636.64 117.953 628.03L112.773 626.91C112.633 633.35 110.463 636.08 106.263 636.08C102.203 636.08 99.7527 633.42 99.7527 628.17V599.12C99.7527 596.46 97.7927 594.43 95.1327 594.43H83.0227V599.75L92.0527 599.33C93.4527 599.26 94.2927 600.1 94.2927 601.57ZM127.795 640H157.195V634.75L148.305 635.17C146.905 635.24 146.065 634.4 146.065 633V614.24C146.065 611.58 144.035 609.55 141.375 609.55L128.355 609.62V614.87L138.295 614.45C139.695 614.31 140.605 615.15 140.605 616.62V633C140.605 634.4 139.765 635.24 138.365 635.17L127.795 634.75V640ZM138.295 596.39C138.295 598.91 140.395 601.01 142.915 601.01C145.505 601.01 147.535 598.91 147.535 596.39C147.535 593.94 145.505 591.77 142.915 591.77C140.395 591.77 138.295 593.94 138.295 596.39ZM179.288 640.98C184.818 640.98 188.318 638.25 190.138 635.45H190.488V640.14C190.488 646.93 186.498 650.15 180.198 650.15C174.738 650.15 170.818 647.49 168.998 642.66L164.028 644.48C166.478 650.85 172.288 654.91 180.268 654.91C189.368 654.91 195.738 649.8 195.808 640.21V640.07V609.55H190.488V614.1H190.138C188.318 611.3 184.818 608.57 179.288 608.57C171.028 608.57 164.168 615.15 164.168 624.25V625.3C164.168 634.4 171.028 640.98 179.288 640.98ZM169.628 625.3V624.25C169.628 617.95 174.038 613.54 180.128 613.54C186.148 613.54 190.628 617.95 190.628 624.25V625.3C190.628 631.6 186.148 636.01 180.128 636.01C174.038 636.01 169.628 631.6 169.628 625.3ZM206.351 609.55V640H211.811V624.04C211.811 618.23 215.801 613.54 221.261 613.54C226.651 613.54 229.591 617.11 229.591 622.99V640H235.051V621.66C235.051 613.96 230.501 608.57 223.151 608.57C217.971 608.57 214.051 611.37 212.161 614.66H211.811V609.55H206.351ZM250.423 616.69V621.52H270.303V616.69H250.423ZM287.286 640H316.686V634.75L307.796 635.17C306.396 635.24 305.556 634.4 305.556 633V614.24C305.556 611.58 303.526 609.55 300.866 609.55L287.846 609.62V614.87L297.786 614.45C299.186 614.31 300.096 615.15 300.096 616.62V633C300.096 634.4 299.256 635.24 297.856 635.17L287.286 634.75V640ZM297.786 596.39C297.786 598.91 299.886 601.01 302.406 601.01C304.996 601.01 307.026 598.91 307.026 596.39C307.026 593.94 304.996 591.77 302.406 591.77C299.886 591.77 297.786 593.94 297.786 596.39ZM333.529 615.92V628.38C333.529 636.85 338.219 641.12 345.569 641.12C352.709 641.12 356.909 636.64 357.189 628.03L352.009 626.91C351.869 633.35 349.769 636.08 345.569 636.08C341.439 636.08 338.989 633.42 338.989 628.17V615.92C338.989 614.87 339.619 614.24 340.669 614.24L352.919 614.45V609.55H338.989V598.63H333.529V609.55H322.259V614.45L331.849 614.31C332.899 614.31 333.529 614.87 333.529 615.92ZM395.171 624.32C395.171 615.22 389.571 608.64 380.401 608.64C371.651 608.64 364.791 615.29 364.791 624.39V625.37C364.791 634.47 371.931 641.12 381.031 641.12C387.051 641.12 392.231 638.25 394.471 633.63L389.781 631.6C388.241 634.61 385.231 636.29 381.101 636.29C375.011 636.29 370.811 632.3 370.321 626.56H395.101C395.171 625.79 395.171 625.02 395.171 624.32ZM370.321 622.01C371.021 616.76 375.291 613.47 380.401 613.47C386.351 613.47 389.641 617.39 389.711 622.01H370.321ZM403.474 609.55V640H408.514V619.56C408.514 616.27 410.474 613.4 413.414 613.4C416.494 613.4 417.474 615.92 417.474 619.14V640H422.514V619.56C422.514 616.27 424.474 613.4 427.484 613.4C430.494 613.4 431.474 615.92 431.474 619.14V640H436.584V617.6C436.584 612.98 434.974 608.57 429.724 608.57C425.734 608.57 423.424 611.23 422.304 613.47H421.884C421.324 611.3 419.434 608.57 415.724 608.57C412.224 608.57 409.984 610.6 408.864 612.98H408.514V609.55H403.474ZM446.987 618.44C446.987 612.63 452.307 608.64 459.797 608.64C466.097 608.64 471.487 611.51 472.957 617.46L468.057 619C467.007 615.01 463.857 613.19 459.727 613.19C455.317 613.19 452.377 615.22 452.377 618.02C452.377 620.75 454.617 621.17 456.927 621.52L463.647 622.36C469.947 623.2 473.587 626.14 473.587 631.39C473.587 637.27 468.127 641.05 460.357 641.05C453.917 641.05 447.757 637.97 446.007 631.25L450.977 629.85C452.447 634.68 455.947 636.43 460.637 636.43C465.397 636.43 468.197 634.61 468.197 631.32C468.197 628.87 466.237 627.61 463.087 627.19L456.157 626.35C450.697 625.72 446.987 623.41 446.987 618.44ZM62.33 710.98C70.59 710.98 77.52 704.4 77.52 695.3V694.25C77.52 685.15 70.59 678.57 62.33 678.57C57.01 678.57 53.51 681.23 51.76 683.89H51.41V664.43H45.81V710H51.2V705.45H51.55C53.37 708.25 56.8 710.98 62.33 710.98ZM50.99 695.3V694.25C50.99 687.95 55.47 683.54 61.49 683.54C67.58 683.54 72.06 687.95 72.06 694.25V695.3C72.06 701.6 67.58 706.01 61.49 706.01C55.47 706.01 50.99 701.6 50.99 695.3ZM91.8427 689.56L86.7327 688.65C87.5727 683.26 92.3327 678.57 99.4727 678.57C106.753 678.57 111.933 682.63 111.933 690.12V704.4C111.933 705.31 112.563 705.66 113.333 705.1L116.973 702.65L119.073 706.71L113.753 709.79C110.743 711.54 107.313 710.35 107.173 706.57V704.89H106.823C104.793 707.83 101.713 710.98 95.9727 710.98C90.8627 710.98 86.6627 707.83 86.6627 702.86V702.09C86.6627 696.49 91.4927 694.39 94.7127 693.48L106.543 690.12V689.49C106.543 685.43 103.533 683.19 99.4027 683.19C95.3427 683.19 92.4027 685.5 91.8427 689.56ZM91.9827 702.37C91.9827 705.03 94.0127 706.57 97.0227 706.57C102.063 706.57 106.683 701.74 106.683 696V694.32L96.6027 697.26C94.1527 698.03 91.9827 699.29 91.9827 702.02V702.37ZM142.355 710.98C148.935 710.98 154.605 707.48 156.495 700.62L151.455 699.36C150.405 703.56 146.905 706.01 142.355 706.01C136.335 706.01 131.785 701.53 131.785 695.23V694.32C131.785 688.02 136.335 683.47 142.355 683.47C146.905 683.47 150.405 685.92 151.455 690.12L156.495 688.86C154.605 682 148.935 678.57 142.355 678.57C133.465 678.57 126.325 685.22 126.325 694.32V695.23C126.325 704.26 133.465 710.98 142.355 710.98ZM167.948 664.43V710H173.548V700.06L179.358 695.02L191.398 710H198.188L183.558 691.8L197.628 679.55H189.998L173.548 693.97V664.43H167.948ZM219.161 710.98C224.691 710.98 228.191 708.25 230.011 705.45H230.361V710.14C230.361 716.93 226.371 720.15 220.071 720.15C214.611 720.15 210.691 717.49 208.871 712.66L203.901 714.48C206.351 720.85 212.161 724.91 220.141 724.91C229.241 724.91 235.611 719.8 235.681 710.21V710.07V679.55H230.361V684.1H230.011C228.191 681.3 224.691 678.57 219.161 678.57C210.901 678.57 204.041 685.15 204.041 694.25V695.3C204.041 704.4 210.901 710.98 219.161 710.98ZM209.501 695.3V694.25C209.501 687.95 213.911 683.54 220.001 683.54C226.021 683.54 230.501 687.95 230.501 694.25V695.3C230.501 701.6 226.021 706.01 220.001 706.01C213.911 706.01 209.501 701.6 209.501 695.3ZM253.783 679.55H244.683V684.8L250.703 684.38C252.103 684.31 252.943 685.15 252.943 686.55V703C252.943 704.4 252.103 705.24 250.703 705.17L244.403 704.75V710H272.053V704.75L260.643 705.17C259.243 705.24 258.403 704.47 258.403 703.07V695.93C258.403 687.88 262.533 683.54 267.153 683.54C271.003 683.54 272.753 685.92 272.753 689.84V691.73L278.003 691.38V689C278.003 683.05 275.063 678.57 268.553 678.57C263.933 678.57 260.503 681.51 258.613 685.29H258.263V684.03C258.263 681.16 256.653 679.55 253.783 679.55ZM300.236 710.98C309.196 710.98 316.196 704.33 316.196 695.23V694.32C316.196 685.22 309.196 678.57 300.236 678.57C291.346 678.57 284.346 685.22 284.346 694.32V695.23C284.346 704.33 291.346 710.98 300.236 710.98ZM289.806 695.23V694.32C289.806 688.02 294.216 683.54 300.236 683.54C306.326 683.54 310.736 688.02 310.736 694.32V695.23C310.736 701.53 306.326 706.01 300.236 706.01C294.216 706.01 289.806 701.53 289.806 695.23ZM354.459 710V679.55H348.999V695.51C348.999 701.32 345.009 706.01 339.549 706.01C334.159 706.01 331.219 702.37 331.219 696.56V679.55H325.759V697.89C325.759 705.59 330.309 710.98 337.659 710.98C342.839 710.98 346.199 708.04 348.089 704.89H349.139V710H354.459ZM365.841 679.55V710H371.301V694.04C371.301 688.23 375.291 683.54 380.751 683.54C386.141 683.54 389.081 687.11 389.081 692.99V710H394.541V691.66C394.541 683.96 389.991 678.57 382.641 678.57C377.461 678.57 373.541 681.37 371.651 684.66H371.301V679.55H365.841ZM418.524 710.98C424.054 710.98 427.554 708.25 429.374 705.45H429.724V710H435.044V664.43H429.514V683.89H429.164C427.414 681.23 423.844 678.57 418.524 678.57C410.264 678.57 403.404 685.15 403.404 694.25V695.3C403.404 704.4 410.264 710.98 418.524 710.98ZM408.864 695.3V694.25C408.864 687.95 413.274 683.54 419.364 683.54C425.384 683.54 429.864 687.95 429.864 694.25V695.3C429.864 701.6 425.384 706.01 419.364 706.01C413.274 706.01 408.864 701.6 408.864 695.3ZM449.787 686.69V691.52H469.667V686.69H449.787ZM501.209 710.98C507.789 710.98 513.459 707.48 515.349 700.62L510.309 699.36C509.259 703.56 505.759 706.01 501.209 706.01C495.189 706.01 490.639 701.53 490.639 695.23V694.32C490.639 688.02 495.189 683.47 501.209 683.47C505.759 683.47 509.259 685.92 510.309 690.12L515.349 688.86C513.459 682 507.789 678.57 501.209 678.57C492.319 678.57 485.179 685.22 485.179 694.32V695.23C485.179 704.26 492.319 710.98 501.209 710.98ZM539.472 710.98C548.432 710.98 555.432 704.33 555.432 695.23V694.32C555.432 685.22 548.432 678.57 539.472 678.57C530.582 678.57 523.582 685.22 523.582 694.32V695.23C523.582 704.33 530.582 710.98 539.472 710.98ZM529.042 695.23V694.32C529.042 688.02 533.452 683.54 539.472 683.54C545.562 683.54 549.972 688.02 549.972 694.32V695.23C549.972 701.53 545.562 706.01 539.472 706.01C533.452 706.01 529.042 701.53 529.042 695.23ZM572.765 671.57V698.38C572.765 706.85 577.455 711.12 584.805 711.12C591.875 711.12 596.145 706.64 596.425 698.03L591.245 696.91C591.105 703.35 588.935 706.08 584.735 706.08C580.675 706.08 578.225 703.42 578.225 698.17V669.12C578.225 666.46 576.265 664.43 573.605 664.43H561.495V669.75L570.525 669.33C571.925 669.26 572.765 670.1 572.765 671.57ZM619.217 710.98C628.177 710.98 635.177 704.33 635.177 695.23V694.32C635.177 685.22 628.177 678.57 619.217 678.57C610.327 678.57 603.327 685.22 603.327 694.32V695.23C603.327 704.33 610.327 710.98 619.217 710.98ZM608.787 695.23V694.32C608.787 688.02 613.197 683.54 619.217 683.54C625.307 683.54 629.717 688.02 629.717 694.32V695.23C629.717 701.53 625.307 706.01 619.217 706.01C613.197 706.01 608.787 701.53 608.787 695.23ZM652.51 679.55H643.41V684.8L649.43 684.38C650.83 684.31 651.67 685.15 651.67 686.55V703C651.67 704.4 650.83 705.24 649.43 705.17L643.13 704.75V710H670.78V704.75L659.37 705.17C657.97 705.24 657.13 704.47 657.13 703.07V695.93C657.13 687.88 661.26 683.54 665.88 683.54C669.73 683.54 671.48 685.92 671.48 689.84V691.73L676.73 691.38V689C676.73 683.05 673.79 678.57 667.28 678.57C662.66 678.57 659.23 681.51 657.34 685.29H656.99V684.03C656.99 681.16 655.38 679.55 652.51 679.55ZM54.42 755.92V768.38C54.42 776.85 59.11 781.12 66.46 781.12C73.6 781.12 77.8 776.64 78.08 768.03L72.9 766.91C72.76 773.35 70.66 776.08 66.46 776.08C62.33 776.08 59.88 773.42 59.88 768.17V755.92C59.88 754.87 60.51 754.24 61.56 754.24L73.81 754.45V749.55H59.88V738.63H54.42V749.55H43.15V754.45L52.74 754.31C53.79 754.31 54.42 754.87 54.42 755.92ZM94.2927 749.55H85.1927V754.8L91.2127 754.38C92.6127 754.31 93.4527 755.15 93.4527 756.55V773C93.4527 774.4 92.6127 775.24 91.2127 775.17L84.9127 774.75V780H112.563V774.75L101.153 775.17C99.7527 775.24 98.9127 774.47 98.9127 773.07V765.93C98.9127 757.88 103.043 753.54 107.663 753.54C111.513 753.54 113.263 755.92 113.263 759.84V761.73L118.513 761.38V759C118.513 753.05 115.573 748.57 109.063 748.57C104.443 748.57 101.013 751.51 99.1227 755.29H98.7727V754.03C98.7727 751.16 97.1627 749.55 94.2927 749.55ZM131.715 759.56L126.605 758.65C127.445 753.26 132.205 748.57 139.345 748.57C146.625 748.57 151.805 752.63 151.805 760.12V774.4C151.805 775.31 152.435 775.66 153.205 775.1L156.845 772.65L158.945 776.71L153.625 779.79C150.615 781.54 147.185 780.35 147.045 776.57V774.89H146.695C144.665 777.83 141.585 780.98 135.845 780.98C130.735 780.98 126.535 777.83 126.535 772.86V772.09C126.535 766.49 131.365 764.39 134.585 763.48L146.415 760.12V759.49C146.415 755.43 143.405 753.19 139.275 753.19C135.215 753.19 132.275 755.5 131.715 759.56ZM131.855 772.37C131.855 775.03 133.885 776.57 136.895 776.57C141.935 776.57 146.555 771.74 146.555 766V764.32L136.475 767.26C134.025 768.03 131.855 769.29 131.855 772.02V772.37ZM166.478 749.55V780H171.938V764.04C171.938 758.23 175.928 753.54 181.388 753.54C186.778 753.54 189.718 757.11 189.718 762.99V780H195.178V761.66C195.178 753.96 190.628 748.57 183.278 748.57C178.098 748.57 174.178 751.37 172.288 754.66H171.938V749.55H166.478ZM207.751 758.44C207.751 752.63 213.071 748.64 220.561 748.64C226.861 748.64 232.251 751.51 233.721 757.46L228.821 759C227.771 755.01 224.621 753.19 220.491 753.19C216.081 753.19 213.141 755.22 213.141 758.02C213.141 760.75 215.381 761.17 217.691 761.52L224.411 762.36C230.711 763.2 234.351 766.14 234.351 771.39C234.351 777.27 228.891 781.05 221.121 781.05C214.681 781.05 208.521 777.97 206.771 771.25L211.741 769.85C213.211 774.68 216.711 776.43 221.401 776.43C226.161 776.43 228.961 774.61 228.961 771.32C228.961 768.87 227.001 767.61 223.851 767.19L216.921 766.35C211.461 765.72 207.751 763.41 207.751 758.44ZM247.413 780H276.813V774.75L267.923 775.17C266.523 775.24 265.683 774.4 265.683 773V754.24C265.683 751.58 263.653 749.55 260.993 749.55L247.973 749.62V754.87L257.913 754.45C259.313 754.31 260.223 755.15 260.223 756.62V773C260.223 774.4 259.383 775.24 257.983 775.17L247.413 774.75V780ZM257.913 736.39C257.913 738.91 260.013 741.01 262.533 741.01C265.123 741.01 267.153 738.91 267.153 736.39C267.153 733.94 265.123 731.77 262.533 731.77C260.013 731.77 257.913 733.94 257.913 736.39ZM293.656 755.92V768.38C293.656 776.85 298.346 781.12 305.696 781.12C312.836 781.12 317.036 776.64 317.316 768.03L312.136 766.91C311.996 773.35 309.896 776.08 305.696 776.08C301.566 776.08 299.116 773.42 299.116 768.17V755.92C299.116 754.87 299.746 754.24 300.796 754.24L313.046 754.45V749.55H299.116V738.63H293.656V749.55H282.386V754.45L291.976 754.31C293.026 754.31 293.656 754.87 293.656 755.92ZM327.159 780H356.559V774.75L347.669 775.17C346.269 775.24 345.429 774.4 345.429 773V754.24C345.429 751.58 343.399 749.55 340.739 749.55L327.719 749.62V754.87L337.659 754.45C339.059 754.31 339.969 755.15 339.969 756.62V773C339.969 774.4 339.129 775.24 337.729 775.17L327.159 774.75V780ZM337.659 736.39C337.659 738.91 339.759 741.01 342.279 741.01C344.869 741.01 346.899 738.91 346.899 736.39C346.899 733.94 344.869 731.77 342.279 731.77C339.759 731.77 337.659 733.94 337.659 736.39ZM379.981 780.98C388.941 780.98 395.941 774.33 395.941 765.23V764.32C395.941 755.22 388.941 748.57 379.981 748.57C371.091 748.57 364.091 755.22 364.091 764.32V765.23C364.091 774.33 371.091 780.98 379.981 780.98ZM369.551 765.23V764.32C369.551 758.02 373.961 753.54 379.981 753.54C386.071 753.54 390.481 758.02 390.481 764.32V765.23C390.481 771.53 386.071 776.01 379.981 776.01C373.961 776.01 369.551 771.53 369.551 765.23ZM405.714 749.55V780H411.174V764.04C411.174 758.23 415.164 753.54 420.624 753.54C426.014 753.54 428.954 757.11 428.954 762.99V780H434.414V761.66C434.414 753.96 429.864 748.57 422.514 748.57C417.334 748.57 413.414 751.37 411.524 754.66H411.174V749.55H405.714ZM54.42 825.92V838.38C54.42 846.85 59.11 851.12 66.46 851.12C73.6 851.12 77.8 846.64 78.08 838.03L72.9 836.91C72.76 843.35 70.66 846.08 66.46 846.08C62.33 846.08 59.88 843.42 59.88 838.17V825.92C59.88 824.87 60.51 824.24 61.56 824.24L73.81 824.45V819.55H59.88V808.63H54.42V819.55H43.15V824.45L52.74 824.31C53.79 824.31 54.42 824.87 54.42 825.92ZM94.2927 819.55H85.1927V824.8L91.2127 824.38C92.6127 824.31 93.4527 825.15 93.4527 826.55V843C93.4527 844.4 92.6127 845.24 91.2127 845.17L84.9127 844.75V850H112.563V844.75L101.153 845.17C99.7527 845.24 98.9127 844.47 98.9127 843.07V835.93C98.9127 827.88 103.043 823.54 107.663 823.54C111.513 823.54 113.263 825.92 113.263 829.84V831.73L118.513 831.38V829C118.513 823.05 115.573 818.57 109.063 818.57C104.443 818.57 101.013 821.51 99.1227 825.29H98.7727V824.03C98.7727 821.16 97.1627 819.55 94.2927 819.55ZM131.715 829.56L126.605 828.65C127.445 823.26 132.205 818.57 139.345 818.57C146.625 818.57 151.805 822.63 151.805 830.12V844.4C151.805 845.31 152.435 845.66 153.205 845.1L156.845 842.65L158.945 846.71L153.625 849.79C150.615 851.54 147.185 850.35 147.045 846.57V844.89H146.695C144.665 847.83 141.585 850.98 135.845 850.98C130.735 850.98 126.535 847.83 126.535 842.86V842.09C126.535 836.49 131.365 834.39 134.585 833.48L146.415 830.12V829.49C146.415 825.43 143.405 823.19 139.275 823.19C135.215 823.19 132.275 825.5 131.715 829.56ZM131.855 842.37C131.855 845.03 133.885 846.57 136.895 846.57C141.935 846.57 146.555 841.74 146.555 836V834.32L136.475 837.26C134.025 838.03 131.855 839.29 131.855 842.02V842.37ZM166.478 819.55V850H171.938V834.04C171.938 828.23 175.928 823.54 181.388 823.54C186.778 823.54 189.718 827.11 189.718 832.99V850H195.178V831.66C195.178 823.96 190.628 818.57 183.278 818.57C178.098 818.57 174.178 821.37 172.288 824.66H171.938V819.55H166.478ZM207.751 828.44C207.751 822.63 213.071 818.64 220.561 818.64C226.861 818.64 232.251 821.51 233.721 827.46L228.821 829C227.771 825.01 224.621 823.19 220.491 823.19C216.081 823.19 213.141 825.22 213.141 828.02C213.141 830.75 215.381 831.17 217.691 831.52L224.411 832.36C230.711 833.2 234.351 836.14 234.351 841.39C234.351 847.27 228.891 851.05 221.121 851.05C214.681 851.05 208.521 847.97 206.771 841.25L211.741 839.85C213.211 844.68 216.711 846.43 221.401 846.43C226.161 846.43 228.961 844.61 228.961 841.32C228.961 838.87 227.001 837.61 223.851 837.19L216.921 836.35C211.461 835.72 207.751 833.41 207.751 828.44ZM247.413 850H276.813V844.75L267.923 845.17C266.523 845.24 265.683 844.4 265.683 843V824.24C265.683 821.58 263.653 819.55 260.993 819.55L247.973 819.62V824.87L257.913 824.45C259.313 824.31 260.223 825.15 260.223 826.62V843C260.223 844.4 259.383 845.24 257.983 845.17L247.413 844.75V850ZM257.913 806.39C257.913 808.91 260.013 811.01 262.533 811.01C265.123 811.01 267.153 808.91 267.153 806.39C267.153 803.94 265.123 801.77 262.533 801.77C260.013 801.77 257.913 803.94 257.913 806.39ZM293.656 825.92V838.38C293.656 846.85 298.346 851.12 305.696 851.12C312.836 851.12 317.036 846.64 317.316 838.03L312.136 836.91C311.996 843.35 309.896 846.08 305.696 846.08C301.566 846.08 299.116 843.42 299.116 838.17V825.92C299.116 824.87 299.746 824.24 300.796 824.24L313.046 824.45V819.55H299.116V808.63H293.656V819.55H282.386V824.45L291.976 824.31C293.026 824.31 293.656 824.87 293.656 825.92ZM327.159 850H356.559V844.75L347.669 845.17C346.269 845.24 345.429 844.4 345.429 843V824.24C345.429 821.58 343.399 819.55 340.739 819.55L327.719 819.62V824.87L337.659 824.45C339.059 824.31 339.969 825.15 339.969 826.62V843C339.969 844.4 339.129 845.24 337.729 845.17L327.159 844.75V850ZM337.659 806.39C337.659 808.91 339.759 811.01 342.279 811.01C344.869 811.01 346.899 808.91 346.899 806.39C346.899 803.94 344.869 801.77 342.279 801.77C339.759 801.77 337.659 803.94 337.659 806.39ZM379.981 850.98C388.941 850.98 395.941 844.33 395.941 835.23V834.32C395.941 825.22 388.941 818.57 379.981 818.57C371.091 818.57 364.091 825.22 364.091 834.32V835.23C364.091 844.33 371.091 850.98 379.981 850.98ZM369.551 835.23V834.32C369.551 828.02 373.961 823.54 379.981 823.54C386.071 823.54 390.481 828.02 390.481 834.32V835.23C390.481 841.53 386.071 846.01 379.981 846.01C373.961 846.01 369.551 841.53 369.551 835.23ZM405.714 819.55V850H411.174V834.04C411.174 828.23 415.164 823.54 420.624 823.54C426.014 823.54 428.954 827.11 428.954 832.99V850H434.414V831.66C434.414 823.96 429.864 818.57 422.514 818.57C417.334 818.57 413.414 821.37 411.524 824.66H411.174V819.55H405.714ZM449.787 826.69V831.52H469.667V826.69H449.787ZM498.269 850.98C503.799 850.98 507.299 848.25 509.119 845.45H509.469V850H514.789V804.43H509.259V823.89H508.909C507.159 821.23 503.589 818.57 498.269 818.57C490.009 818.57 483.149 825.15 483.149 834.25V835.3C483.149 844.4 490.009 850.98 498.269 850.98ZM488.609 835.3V834.25C488.609 827.95 493.019 823.54 499.109 823.54C505.129 823.54 509.609 827.95 509.609 834.25V835.3C509.609 841.6 505.129 846.01 499.109 846.01C493.019 846.01 488.609 841.6 488.609 835.3ZM554.662 834.32C554.662 825.22 549.062 818.64 539.892 818.64C531.142 818.64 524.282 825.29 524.282 834.39V835.37C524.282 844.47 531.422 851.12 540.522 851.12C546.542 851.12 551.722 848.25 553.962 843.63L549.272 841.6C547.732 844.61 544.722 846.29 540.592 846.29C534.502 846.29 530.302 842.3 529.812 836.56H554.592C554.662 835.79 554.662 835.02 554.662 834.32ZM529.812 832.01C530.512 826.76 534.782 823.47 539.892 823.47C545.842 823.47 549.132 827.39 549.202 832.01H529.812ZM572.765 811.57V838.38C572.765 846.85 577.455 851.12 584.805 851.12C591.875 851.12 596.145 846.64 596.425 838.03L591.245 836.91C591.105 843.35 588.935 846.08 584.735 846.08C580.675 846.08 578.225 843.42 578.225 838.17V809.12C578.225 806.46 576.265 804.43 573.605 804.43H561.495V809.75L570.525 809.33C571.925 809.26 572.765 810.1 572.765 811.57ZM610.187 829.56L605.077 828.65C605.917 823.26 610.677 818.57 617.817 818.57C625.097 818.57 630.277 822.63 630.277 830.12V844.4C630.277 845.31 630.907 845.66 631.677 845.1L635.317 842.65L637.417 846.71L632.097 849.79C629.087 851.54 625.657 850.35 625.517 846.57V844.89H625.167C623.137 847.83 620.057 850.98 614.317 850.98C609.207 850.98 605.007 847.83 605.007 842.86V842.09C605.007 836.49 609.837 834.39 613.057 833.48L624.887 830.12V829.49C624.887 825.43 621.877 823.19 617.747 823.19C613.687 823.19 610.747 825.5 610.187 829.56ZM610.327 842.37C610.327 845.03 612.357 846.57 615.367 846.57C620.407 846.57 625.027 841.74 625.027 836V834.32L614.947 837.26C612.497 838.03 610.327 839.29 610.327 842.02V842.37ZM642.01 819.55L656.29 851.47L650.83 863.93H657.13L676.17 819.55H669.73L659.44 844.75H659.09L648.45 819.55H642.01Z" fill="#00E0BB"/>
<path d="M260.363 360.56C263.373 360.56 265.893 358.11 265.893 355.03C265.893 352.16 263.373 349.57 260.363 349.57C257.353 349.57 254.903 352.16 254.903 355.03C254.903 358.11 257.353 360.56 260.363 360.56ZM254.903 331.3C254.903 334.38 257.353 336.83 260.363 336.83C263.373 336.83 265.893 334.38 265.893 331.3C265.893 328.43 263.373 325.84 260.363 325.84C257.353 325.84 254.903 328.43 254.903 331.3ZM540.872 336.83C543.882 336.83 546.402 334.38 546.402 331.3C546.402 328.43 543.882 325.84 540.872 325.84C537.862 325.84 535.412 328.43 535.412 331.3C535.412 334.38 537.862 336.83 540.872 336.83ZM531.562 373.72H536.602L544.792 352.86H537.792L531.562 373.72ZM340.109 430.56C343.119 430.56 345.639 428.11 345.639 425.03C345.639 422.16 343.119 419.57 340.109 419.57C337.099 419.57 334.649 422.16 334.649 425.03C334.649 428.11 337.099 430.56 340.109 430.56ZM334.649 401.3C334.649 404.38 337.099 406.83 340.109 406.83C343.119 406.83 345.639 404.38 345.639 401.3C345.639 398.43 343.119 395.84 340.109 395.84C337.099 395.84 334.649 398.43 334.649 401.3ZM620.617 406.83C623.627 406.83 626.147 404.38 626.147 401.3C626.147 398.43 623.627 395.84 620.617 395.84C617.607 395.84 615.157 398.43 615.157 401.3C615.157 404.38 617.607 406.83 620.617 406.83ZM611.307 443.72H616.347L624.537 422.86H617.537L611.307 443.72ZM340.109 500.56C343.119 500.56 345.639 498.11 345.639 495.03C345.639 492.16 343.119 489.57 340.109 489.57C337.099 489.57 334.649 492.16 334.649 495.03C334.649 498.11 337.099 500.56 340.109 500.56ZM334.649 471.3C334.649 474.38 337.099 476.83 340.109 476.83C343.119 476.83 345.639 474.38 345.639 471.3C345.639 468.43 343.119 465.84 340.109 465.84C337.099 465.84 334.649 468.43 334.649 471.3ZM540.872 476.83C543.882 476.83 546.402 474.38 546.402 471.3C546.402 468.43 543.882 465.84 540.872 465.84C537.862 465.84 535.412 468.43 535.412 471.3C535.412 474.38 537.862 476.83 540.872 476.83ZM531.562 513.72H536.602L544.792 492.86H537.792L531.562 513.72ZM659.09 570.56C662.1 570.56 664.62 568.11 664.62 565.03C664.62 562.16 662.1 559.57 659.09 559.57C656.08 559.57 653.63 562.16 653.63 565.03C653.63 568.11 656.08 570.56 659.09 570.56ZM653.63 541.3C653.63 544.38 656.08 546.83 659.09 546.83C662.1 546.83 664.62 544.38 664.62 541.3C664.62 538.43 662.1 535.84 659.09 535.84C656.08 535.84 653.63 538.43 653.63 541.3ZM1099.09 546.83C1102.1 546.83 1104.62 544.38 1104.62 541.3C1104.62 538.43 1102.1 535.84 1099.09 535.84C1096.08 535.84 1093.63 538.43 1093.63 541.3C1093.63 544.38 1096.08 546.83 1099.09 546.83ZM1089.78 583.72H1094.82L1103.01 562.86H1096.01L1089.78 583.72ZM499.599 640.56C502.609 640.56 505.129 638.11 505.129 635.03C505.129 632.16 502.609 629.57 499.599 629.57C496.589 629.57 494.139 632.16 494.139 635.03C494.139 638.11 496.589 640.56 499.599 640.56ZM494.139 611.3C494.139 614.38 496.589 616.83 499.599 616.83C502.609 616.83 505.129 614.38 505.129 611.3C505.129 608.43 502.609 605.84 499.599 605.84C496.589 605.84 494.139 608.43 494.139 611.3ZM859.853 616.83C862.863 616.83 865.383 614.38 865.383 611.3C865.383 608.43 862.863 605.84 859.853 605.84C856.843 605.84 854.393 608.43 854.393 611.3C854.393 614.38 856.843 616.83 859.853 616.83ZM850.543 653.72H855.583L863.773 632.86H856.773L850.543 653.72ZM698.963 710.56C701.973 710.56 704.493 708.11 704.493 705.03C704.493 702.16 701.973 699.57 698.963 699.57C695.953 699.57 693.503 702.16 693.503 705.03C693.503 708.11 695.953 710.56 698.963 710.56ZM693.503 681.3C693.503 684.38 695.953 686.83 698.963 686.83C701.973 686.83 704.493 684.38 704.493 681.3C704.493 678.43 701.973 675.84 698.963 675.84C695.953 675.84 693.503 678.43 693.503 681.3ZM1062.02 686.83C1065.03 686.83 1067.55 684.38 1067.55 681.3C1067.55 678.43 1065.03 675.84 1062.02 675.84C1059.01 675.84 1056.56 678.43 1056.56 681.3C1056.56 684.38 1059.01 686.83 1062.02 686.83ZM1052.71 723.72H1057.75L1065.94 702.86H1058.94L1052.71 723.72ZM459.727 780.56C462.737 780.56 465.257 778.11 465.257 775.03C465.257 772.16 462.737 769.57 459.727 769.57C456.717 769.57 454.267 772.16 454.267 775.03C454.267 778.11 456.717 780.56 459.727 780.56ZM454.267 751.3C454.267 754.38 456.717 756.83 459.727 756.83C462.737 756.83 465.257 754.38 465.257 751.3C465.257 748.43 462.737 745.84 459.727 745.84C456.717 745.84 454.267 748.43 454.267 751.3ZM1099.09 756.83C1102.1 756.83 1104.62 754.38 1104.62 751.3C1104.62 748.43 1102.1 745.84 1099.09 745.84C1096.08 745.84 1093.63 748.43 1093.63 751.3C1093.63 754.38 1096.08 756.83 1099.09 756.83ZM1089.78 793.72H1094.82L1103.01 772.86H1096.01L1089.78 793.72ZM698.963 850.56C701.973 850.56 704.493 848.11 704.493 845.03C704.493 842.16 701.973 839.57 698.963 839.57C695.953 839.57 693.503 842.16 693.503 845.03C693.503 848.11 695.953 850.56 698.963 850.56ZM693.503 821.3C693.503 824.38 695.953 826.83 698.963 826.83C701.973 826.83 704.493 824.38 704.493 821.3C704.493 818.43 701.973 815.84 698.963 815.84C695.953 815.84 693.503 818.43 693.503 821.3ZM939.598 826.83C942.608 826.83 945.128 824.38 945.128 821.3C945.128 818.43 942.608 815.84 939.598 815.84C936.588 815.84 934.138 818.43 934.138 821.3C934.138 824.38 936.588 826.83 939.598 826.83ZM930.288 863.72H935.328L943.518 842.86H936.518L930.288 863.72Z" fill="white" fill-opacity="0.95"/>
<path d="M335.489 318.21C335.279 324.16 333.319 326.96 327.439 326.96H326.529V332.28H328.489C333.389 332.28 338.639 329.76 339.549 322.97H339.899V352.86C339.899 354.26 339.129 355.03 337.659 354.96L326.529 354.54V360H357.889V354.54L347.879 354.96C346.479 355.03 345.639 354.19 345.639 352.79V318.21H335.489ZM379.981 343.62C382.431 343.62 384.391 341.59 384.391 339.21C384.391 336.83 382.431 334.8 379.981 334.8C377.601 334.8 375.571 336.83 375.571 339.21C375.571 341.59 377.601 343.62 379.981 343.62ZM363.741 344.04C363.741 353.91 369.831 361.12 379.981 361.12C390.131 361.12 396.221 353.91 396.221 344.04V334.38C396.221 324.44 390.131 317.3 379.981 317.3C369.831 317.3 363.741 324.44 363.741 334.38V344.04ZM369.481 343.83V334.59C369.481 327.59 372.981 322.62 379.981 322.62C386.981 322.62 390.551 327.59 390.551 334.59V343.83C390.551 350.76 386.981 355.73 379.981 355.73C372.981 355.73 369.481 350.76 369.481 343.83ZM419.854 343.62C422.304 343.62 424.264 341.59 424.264 339.21C424.264 336.83 422.304 334.8 419.854 334.8C417.474 334.8 415.444 336.83 415.444 339.21C415.444 341.59 417.474 343.62 419.854 343.62ZM403.614 344.04C403.614 353.91 409.704 361.12 419.854 361.12C430.004 361.12 436.094 353.91 436.094 344.04V334.38C436.094 324.44 430.004 317.3 419.854 317.3C409.704 317.3 403.614 324.44 403.614 334.38V344.04ZM409.354 343.83V334.59C409.354 327.59 412.854 322.62 419.854 322.62C426.854 322.62 430.424 327.59 430.424 334.59V343.83C430.424 350.76 426.854 355.73 419.854 355.73C412.854 355.73 409.354 350.76 409.354 343.83ZM442.647 329.55L455.737 360H463.787L476.807 329.55H470.367L460.287 354.75H459.237L449.087 329.55H442.647ZM482.659 329.55L487.909 360H495.329L499.249 336.13H499.949L503.939 360H511.359L516.609 329.55H511.499L507.649 354.68H506.879L502.539 329.55H496.659L492.319 354.68H491.549L487.699 329.55H482.659ZM420.904 387.23C412.224 387.23 404.734 393.46 405.714 402.21L411.244 402.98C410.474 396.19 415.094 392.34 421.044 392.34C426.434 392.34 430.004 395.42 430.004 400.74C430.004 405.64 427.064 407.81 422.514 409.84L414.744 413.34C408.794 415.93 405.084 420.13 405.084 425.87V430H436.024V424.75H411.524C411.524 421.04 413.834 419.29 417.894 417.47L425.594 413.97C432.384 410.89 435.674 407.04 435.674 400.46C435.674 393.25 430.354 387.23 420.904 387.23ZM459.727 430.56C462.737 430.56 465.257 428.11 465.257 425.03C465.257 422.16 462.737 419.57 459.727 419.57C456.717 419.57 454.267 422.16 454.267 425.03C454.267 428.11 456.717 430.56 459.727 430.56ZM500.929 430.98C509.609 430.98 516.119 425.45 516.119 416.98V415.93C516.119 407.53 510.169 402.28 502.259 402.28C497.639 402.28 493.929 404.31 491.689 408.09H490.779V393.18H513.529V388.21H489.309C487.069 388.21 485.389 389.89 485.389 392.13V411.24L492.669 412.57C494.139 409.49 497.149 407.25 501.279 407.25C506.599 407.25 510.449 410.68 510.449 416.14V416.91C510.449 422.37 506.249 425.87 500.929 425.87C495.749 425.87 491.549 423.14 490.289 417.68L484.759 419.01C486.789 427.2 493.369 430.98 500.929 430.98ZM522.392 399.55L535.482 430H543.532L556.552 399.55H550.112L540.032 424.75H538.982L528.832 399.55H522.392ZM562.405 399.55L567.655 430H575.075L578.995 406.13H579.695L583.685 430H591.105L596.355 399.55H591.245L587.395 424.68H586.625L582.285 399.55H576.405L572.065 424.68H571.295L567.445 399.55H562.405ZM409.354 475.64V500H414.814V475.71C414.814 474.8 415.304 474.24 416.214 474.31L422.024 474.45V469.55H414.814V465.21C414.814 459.61 418.874 456.74 423.004 456.74C427.204 456.74 430.984 459.33 430.984 465.42V500H436.304V464.44C436.304 456.11 430.074 451.77 423.004 451.77C415.654 451.77 409.354 456.39 409.354 465V469.55H401.654V474.45L407.954 474.31C408.864 474.24 409.354 474.73 409.354 475.64ZM474.917 484.32C474.917 475.22 469.317 468.64 460.147 468.64C451.397 468.64 444.537 475.29 444.537 484.39V485.37C444.537 494.47 451.677 501.12 460.777 501.12C466.797 501.12 471.977 498.25 474.217 493.63L469.527 491.6C467.987 494.61 464.977 496.29 460.847 496.29C454.757 496.29 450.557 492.3 450.067 486.56H474.847C474.917 485.79 474.917 485.02 474.917 484.32ZM450.067 482.01C450.767 476.76 455.037 473.47 460.147 473.47C466.097 473.47 469.387 477.39 469.457 482.01H450.067ZM484.129 469.55L495.749 484.74L483.989 500H490.569L499.249 488.17H500.019L508.699 500H515.279L503.449 484.74L515.139 469.55H508.629L500.019 481.38H499.249L490.569 469.55H484.129ZM728.335 545.64V570H733.795V545.71C733.795 544.8 734.285 544.24 735.195 544.31L741.005 544.45V539.55H733.795V535.21C733.795 529.61 737.855 526.74 741.985 526.74C746.185 526.74 749.965 529.33 749.965 535.42V570H755.285V534.44C755.285 526.11 749.055 521.77 741.985 521.77C734.635 521.77 728.335 526.39 728.335 535V539.55H720.635V544.45L726.935 544.31C727.845 544.24 728.335 544.73 728.335 545.64ZM793.898 554.32C793.898 545.22 788.298 538.64 779.128 538.64C770.378 538.64 763.518 545.29 763.518 554.39V555.37C763.518 564.47 770.658 571.12 779.758 571.12C785.778 571.12 790.958 568.25 793.198 563.63L788.508 561.6C786.968 564.61 783.958 566.29 779.828 566.29C773.738 566.29 769.538 562.3 769.048 556.56H793.828C793.898 555.79 793.898 555.02 793.898 554.32ZM769.048 552.01C769.748 546.76 774.018 543.47 779.128 543.47C785.078 543.47 788.368 547.39 788.438 552.01H769.048ZM803.11 539.55L814.73 554.74L802.97 570H809.55L818.23 558.17H819L827.68 570H834.26L822.43 554.74L834.12 539.55H827.61L819 551.38H818.23L809.55 539.55H803.11ZM848.513 546.69V551.52H868.393V546.69H848.513ZM885.586 548.44C885.586 542.63 890.906 538.64 898.396 538.64C904.696 538.64 910.086 541.51 911.556 547.46L906.656 549C905.606 545.01 902.456 543.19 898.326 543.19C893.916 543.19 890.976 545.22 890.976 548.02C890.976 550.75 893.216 551.17 895.526 551.52L902.246 552.36C908.546 553.2 912.186 556.14 912.186 561.39C912.186 567.27 906.726 571.05 898.956 571.05C892.516 571.05 886.356 567.97 884.606 561.25L889.576 559.85C891.046 564.68 894.546 566.43 899.236 566.43C903.996 566.43 906.796 564.61 906.796 561.32C906.796 558.87 904.836 557.61 901.686 557.19L894.756 556.35C889.296 555.72 885.586 553.41 885.586 548.44ZM931.618 545.92V558.38C931.618 566.85 936.308 571.12 943.658 571.12C950.798 571.12 954.998 566.64 955.278 558.03L950.098 556.91C949.958 563.35 947.858 566.08 943.658 566.08C939.528 566.08 937.078 563.42 937.078 558.17V545.92C937.078 544.87 937.708 544.24 938.758 544.24L951.008 544.45V539.55H937.078V528.63H931.618V539.55H920.348V544.45L929.938 544.31C930.988 544.31 931.618 544.87 931.618 545.92ZM969.041 549.56L963.931 548.65C964.771 543.26 969.531 538.57 976.671 538.57C983.951 538.57 989.131 542.63 989.131 550.12V564.4C989.131 565.31 989.761 565.66 990.531 565.1L994.171 562.65L996.271 566.71L990.951 569.79C987.941 571.54 984.511 570.35 984.371 566.57V564.89H984.021C981.991 567.83 978.911 570.98 973.171 570.98C968.061 570.98 963.861 567.83 963.861 562.86V562.09C963.861 556.49 968.691 554.39 971.911 553.48L983.741 550.12V549.49C983.741 545.43 980.731 543.19 976.601 543.19C972.541 543.19 969.601 545.5 969.041 549.56ZM969.181 562.37C969.181 565.03 971.211 566.57 974.221 566.57C979.261 566.57 983.881 561.74 983.881 556V554.32L973.801 557.26C971.351 558.03 969.181 559.29 969.181 562.02V562.37ZM1011.36 539.55H1002.26V544.8L1008.28 544.38C1009.68 544.31 1010.52 545.15 1010.52 546.55V563C1010.52 564.4 1009.68 565.24 1008.28 565.17L1001.98 564.75V570H1029.63V564.75L1018.22 565.17C1016.82 565.24 1015.98 564.47 1015.98 563.07V555.93C1015.98 547.88 1020.11 543.54 1024.73 543.54C1028.58 543.54 1030.33 545.92 1030.33 549.84V551.73L1035.58 551.38V549C1035.58 543.05 1032.64 538.57 1026.13 538.57C1021.51 538.57 1018.08 541.51 1016.19 545.29H1015.84V544.03C1015.84 541.16 1014.23 539.55 1011.36 539.55ZM1051.24 545.92V558.38C1051.24 566.85 1055.93 571.12 1063.28 571.12C1070.42 571.12 1074.62 566.64 1074.9 558.03L1069.72 556.91C1069.58 563.35 1067.48 566.08 1063.28 566.08C1059.15 566.08 1056.7 563.42 1056.7 558.17V545.92C1056.7 544.87 1057.33 544.24 1058.38 544.24L1070.63 544.45V539.55H1056.7V528.63H1051.24V539.55H1039.97V544.45L1049.56 544.31C1050.61 544.31 1051.24 544.87 1051.24 545.92ZM568.845 615.64V640H574.305V615.71C574.305 614.8 574.795 614.24 575.705 614.31L581.515 614.45V609.55H574.305V605.21C574.305 599.61 578.365 596.74 582.495 596.74C586.695 596.74 590.475 599.33 590.475 605.42V640H595.795V604.44C595.795 596.11 589.565 591.77 582.495 591.77C575.145 591.77 568.845 596.39 568.845 605V609.55H561.145V614.45L567.445 614.31C568.355 614.24 568.845 614.73 568.845 615.64ZM634.407 624.32C634.407 615.22 628.807 608.64 619.637 608.64C610.887 608.64 604.027 615.29 604.027 624.39V625.37C604.027 634.47 611.167 641.12 620.267 641.12C626.287 641.12 631.467 638.25 633.707 633.63L629.017 631.6C627.477 634.61 624.467 636.29 620.337 636.29C614.247 636.29 610.047 632.3 609.557 626.56H634.337C634.407 625.79 634.407 625.02 634.407 624.32ZM609.557 622.01C610.257 616.76 614.527 613.47 619.637 613.47C625.587 613.47 628.877 617.39 628.947 622.01H609.557ZM643.62 609.55L655.24 624.74L643.48 640H650.06L658.74 628.17H659.51L668.19 640H674.77L662.94 624.74L674.63 609.55H668.12L659.51 621.38H658.74L650.06 609.55H643.62ZM689.023 616.69V621.52H708.903V616.69H689.023ZM754.025 624.32C754.025 615.22 748.425 608.64 739.255 608.64C730.505 608.64 723.645 615.29 723.645 624.39V625.37C723.645 634.47 730.785 641.12 739.885 641.12C745.905 641.12 751.085 638.25 753.325 633.63L748.635 631.6C747.095 634.61 744.085 636.29 739.955 636.29C733.865 636.29 729.665 632.3 729.175 626.56H753.955C754.025 625.79 754.025 625.02 754.025 624.32ZM729.175 622.01C729.875 616.76 734.145 613.47 739.255 613.47C745.205 613.47 748.495 617.39 748.565 622.01H729.175ZM764.568 609.55V640H770.028V624.04C770.028 618.23 774.018 613.54 779.478 613.54C784.868 613.54 787.808 617.11 787.808 622.99V640H793.268V621.66C793.268 613.96 788.718 608.57 781.368 608.57C776.188 608.57 772.268 611.37 770.378 614.66H770.028V609.55H764.568ZM817.25 640.98C822.78 640.98 826.28 638.25 828.1 635.45H828.45V640H833.77V594.43H828.24V613.89H827.89C826.14 611.23 822.57 608.57 817.25 608.57C808.99 608.57 802.13 615.15 802.13 624.25V625.3C802.13 634.4 808.99 640.98 817.25 640.98ZM807.59 625.3V624.25C807.59 617.95 812 613.54 818.09 613.54C824.11 613.54 828.59 617.95 828.59 624.25V625.3C828.59 631.6 824.11 636.01 818.09 636.01C812 636.01 807.59 631.6 807.59 625.3ZM775.628 665.2L773.178 676.4H766.738V681.16H772.058L769.258 694.04H762.118V698.8H768.208L765.688 710H770.868L773.388 698.8H781.928L779.408 710H784.658L787.178 698.8H793.548V694.04H788.228L791.028 681.16H798.168V676.4H792.148L794.598 665.2H789.348L786.898 676.4H778.358L780.808 665.2H775.628ZM774.438 694.04L777.238 681.16H785.778L782.978 694.04H774.438ZM821.383 693.62C823.833 693.62 825.793 691.59 825.793 689.21C825.793 686.83 823.833 684.8 821.383 684.8C819.003 684.8 816.973 686.83 816.973 689.21C816.973 691.59 819.003 693.62 821.383 693.62ZM805.143 694.04C805.143 703.91 811.233 711.12 821.383 711.12C831.533 711.12 837.623 703.91 837.623 694.04V684.38C837.623 674.44 831.533 667.3 821.383 667.3C811.233 667.3 805.143 674.44 805.143 684.38V694.04ZM810.883 693.83V684.59C810.883 677.59 814.383 672.62 821.383 672.62C828.383 672.62 831.953 677.59 831.953 684.59V693.83C831.953 700.76 828.383 705.73 821.383 705.73C814.383 705.73 810.883 700.76 810.883 693.83ZM861.256 668.21H847.186V710H861.256C871.266 710 878.546 702.72 878.546 692.71V685.5C878.546 675.42 871.266 668.21 861.256 668.21ZM853.136 703.21V674.93C853.136 674.02 853.626 673.46 854.606 673.46H861.116C868.046 673.46 872.736 678.5 872.736 685.57V692.57C872.736 699.64 868.046 704.68 861.116 704.68H854.606C853.626 704.68 853.136 704.12 853.136 703.21ZM901.129 693.62C903.579 693.62 905.539 691.59 905.539 689.21C905.539 686.83 903.579 684.8 901.129 684.8C898.749 684.8 896.719 686.83 896.719 689.21C896.719 691.59 898.749 693.62 901.129 693.62ZM884.889 694.04C884.889 703.91 890.979 711.12 901.129 711.12C911.279 711.12 917.369 703.91 917.369 694.04V684.38C917.369 674.44 911.279 667.3 901.129 667.3C890.979 667.3 884.889 674.44 884.889 684.38V694.04ZM890.629 693.83V684.59C890.629 677.59 894.129 672.62 901.129 672.62C908.129 672.62 911.699 677.59 911.699 684.59V693.83C911.699 700.76 908.129 705.73 901.129 705.73C894.129 705.73 890.629 700.76 890.629 693.83ZM922.731 710H929.031L932.741 698.52H949.261L952.971 710H959.341L945.061 668.21H936.941L922.731 710ZM934.841 691.87L940.581 674.3H941.491L947.161 691.87C947.441 692.78 947.021 693.34 946.041 693.34H935.961C935.051 693.34 934.561 692.78 934.841 691.87ZM980.874 693.62C983.324 693.62 985.284 691.59 985.284 689.21C985.284 686.83 983.324 684.8 980.874 684.8C978.494 684.8 976.464 686.83 976.464 689.21C976.464 691.59 978.494 693.62 980.874 693.62ZM964.634 694.04C964.634 703.91 970.724 711.12 980.874 711.12C991.024 711.12 997.114 703.91 997.114 694.04V684.38C997.114 674.44 991.024 667.3 980.874 667.3C970.724 667.3 964.634 674.44 964.634 684.38V694.04ZM970.374 693.83V684.59C970.374 677.59 973.874 672.62 980.874 672.62C987.874 672.62 991.444 677.59 991.444 684.59V693.83C991.444 700.76 987.874 705.73 980.874 705.73C973.874 705.73 970.374 700.76 970.374 693.83ZM1020.75 710.98C1029.85 710.98 1036.01 706.08 1036.01 699.64V698.94C1036.01 693.2 1031.6 690.26 1028.87 689.14V688.3C1031.32 687.18 1035.31 684.59 1035.31 679.41V678.71C1035.31 672.55 1028.94 667.23 1020.75 667.23C1012.56 667.23 1006.19 672.55 1006.19 678.71V679.41C1006.19 684.59 1010.18 687.18 1012.63 688.3V689.14C1009.9 690.26 1005.49 693.2 1005.49 698.94V699.64C1005.49 706.08 1011.65 710.98 1020.75 710.98ZM1011.09 698.87V698.38C1011.09 693.48 1015.85 691.17 1020.75 691.17C1025.65 691.17 1030.48 693.48 1030.48 698.38V698.87C1030.48 703.7 1025.65 706.08 1020.75 706.08C1015.85 706.08 1011.09 703.7 1011.09 698.87ZM1011.79 679.55V679.06C1011.79 674.58 1016.2 672.13 1020.75 672.13C1025.3 672.13 1029.71 674.58 1029.71 679.06V679.55C1029.71 684.1 1025.3 686.55 1020.75 686.55C1016.2 686.55 1011.79 684.1 1011.79 679.55ZM532.892 755.92V768.38C532.892 776.85 537.582 781.12 544.932 781.12C552.072 781.12 556.272 776.64 556.552 768.03L551.372 766.91C551.232 773.35 549.132 776.08 544.932 776.08C540.802 776.08 538.352 773.42 538.352 768.17V755.92C538.352 754.87 538.982 754.24 540.032 754.24L552.282 754.45V749.55H538.352V738.63H532.892V749.55H521.622V754.45L531.212 754.31C532.262 754.31 532.892 754.87 532.892 755.92ZM572.765 749.55H563.665V754.8L569.685 754.38C571.085 754.31 571.925 755.15 571.925 756.55V773C571.925 774.4 571.085 775.24 569.685 775.17L563.385 774.75V780H591.035V774.75L579.625 775.17C578.225 775.24 577.385 774.47 577.385 773.07V765.93C577.385 757.88 581.515 753.54 586.135 753.54C589.985 753.54 591.735 755.92 591.735 759.84V761.73L596.985 761.38V759C596.985 753.05 594.045 748.57 587.535 748.57C582.915 748.57 579.485 751.51 577.595 755.29H577.245V754.03C577.245 751.16 575.635 749.55 572.765 749.55ZM610.187 759.56L605.077 758.65C605.917 753.26 610.677 748.57 617.817 748.57C625.097 748.57 630.277 752.63 630.277 760.12V774.4C630.277 775.31 630.907 775.66 631.677 775.1L635.317 772.65L637.417 776.71L632.097 779.79C629.087 781.54 625.657 780.35 625.517 776.57V774.89H625.167C623.137 777.83 620.057 780.98 614.317 780.98C609.207 780.98 605.007 777.83 605.007 772.86V772.09C605.007 766.49 609.837 764.39 613.057 763.48L624.887 760.12V759.49C624.887 755.43 621.877 753.19 617.747 753.19C613.687 753.19 610.747 755.5 610.187 759.56ZM610.327 772.37C610.327 775.03 612.357 776.57 615.367 776.57C620.407 776.57 625.027 771.74 625.027 766V764.32L614.947 767.26C612.497 768.03 610.327 769.29 610.327 772.02V772.37ZM644.95 749.55V780H650.41V764.04C650.41 758.23 654.4 753.54 659.86 753.54C665.25 753.54 668.19 757.11 668.19 762.99V780H673.65V761.66C673.65 753.96 669.1 748.57 661.75 748.57C656.57 748.57 652.65 751.37 650.76 754.66H650.41V749.55H644.95ZM686.223 758.44C686.223 752.63 691.543 748.64 699.033 748.64C705.333 748.64 710.723 751.51 712.193 757.46L707.293 759C706.243 755.01 703.093 753.19 698.963 753.19C694.553 753.19 691.613 755.22 691.613 758.02C691.613 760.75 693.853 761.17 696.163 761.52L702.883 762.36C709.183 763.2 712.823 766.14 712.823 771.39C712.823 777.27 707.363 781.05 699.593 781.05C693.153 781.05 686.993 777.97 685.243 771.25L690.213 769.85C691.683 774.68 695.183 776.43 699.873 776.43C704.633 776.43 707.433 774.61 707.433 771.32C707.433 768.87 705.473 767.61 702.323 767.19L695.393 766.35C689.933 765.72 686.223 763.41 686.223 758.44ZM734.985 744.65V749.55H723.785V754.31L733.305 754.17C734.355 754.17 734.985 754.8 734.985 755.85V780H740.445V755.85C740.445 754.8 741.075 754.17 742.125 754.17L751.925 754.31V749.55H740.445V744.72C740.445 739.47 743.315 736.74 747.375 736.74C751.575 736.74 753.885 739.26 754.025 743.18L759.205 742.06C758.925 735.97 754.515 731.77 747.375 731.77C740.025 731.77 734.985 736.25 734.985 744.65ZM778.708 780.98C787.668 780.98 794.668 774.33 794.668 765.23V764.32C794.668 755.22 787.668 748.57 778.708 748.57C769.818 748.57 762.818 755.22 762.818 764.32V765.23C762.818 774.33 769.818 780.98 778.708 780.98ZM768.278 765.23V764.32C768.278 758.02 772.688 753.54 778.708 753.54C784.798 753.54 789.208 758.02 789.208 764.32V765.23C789.208 771.53 784.798 776.01 778.708 776.01C772.688 776.01 768.278 771.53 768.278 765.23ZM812 749.55H802.9V754.8L808.92 754.38C810.32 754.31 811.16 755.15 811.16 756.55V773C811.16 774.4 810.32 775.24 808.92 775.17L802.62 774.75V780H830.27V774.75L818.86 775.17C817.46 775.24 816.62 774.47 816.62 773.07V765.93C816.62 757.88 820.75 753.54 825.37 753.54C829.22 753.54 830.97 755.92 830.97 759.84V761.73L836.22 761.38V759C836.22 753.05 833.28 748.57 826.77 748.57C822.15 748.57 818.72 751.51 816.83 755.29H816.48V754.03C816.48 751.16 814.87 749.55 812 749.55ZM842.073 749.55V780H847.113V759.56C847.113 756.27 849.073 753.4 852.013 753.4C855.093 753.4 856.073 755.92 856.073 759.14V780H861.113V759.56C861.113 756.27 863.073 753.4 866.083 753.4C869.093 753.4 870.073 755.92 870.073 759.14V780H875.183V757.6C875.183 752.98 873.573 748.57 868.323 748.57C864.333 748.57 862.023 751.23 860.903 753.47H860.483C859.923 751.3 858.033 748.57 854.323 748.57C850.823 748.57 848.583 750.6 847.463 752.98H847.113V749.55H842.073Z" fill="#B499FF"/>
<path d="M938.198 763.62C940.648 763.62 942.608 761.59 942.608 759.21C942.608 756.83 940.648 754.8 938.198 754.8C935.818 754.8 933.788 756.83 933.788 759.21C933.788 761.59 935.818 763.62 938.198 763.62ZM921.958 764.04C921.958 773.91 928.048 781.12 938.198 781.12C948.348 781.12 954.438 773.91 954.438 764.04V754.38C954.438 744.44 948.348 737.3 938.198 737.3C928.048 737.3 921.958 744.44 921.958 754.38V764.04ZM927.698 763.83V754.59C927.698 747.59 931.198 742.62 938.198 742.62C945.198 742.62 948.768 747.59 948.768 754.59V763.83C948.768 770.76 945.198 775.73 938.198 775.73C931.198 775.73 927.698 770.76 927.698 763.83ZM978.071 780.56C981.081 780.56 983.601 778.11 983.601 775.03C983.601 772.16 981.081 769.57 978.071 769.57C975.061 769.57 972.611 772.16 972.611 775.03C972.611 778.11 975.061 780.56 978.071 780.56ZM1003.24 738.21V763.27C1003.24 765.51 1004.92 767.19 1007.16 767.19H1023.54V780H1029.14V767.19H1035.65V762.08H1029.14V738.21H1023.54V762.08H1008.84V738.21H1003.24ZM1045.08 758.44C1045.08 752.63 1050.4 748.64 1057.89 748.64C1064.19 748.64 1069.58 751.51 1071.05 757.46L1066.15 759C1065.1 755.01 1061.95 753.19 1057.82 753.19C1053.41 753.19 1050.47 755.22 1050.47 758.02C1050.47 760.75 1052.71 761.17 1055.02 761.52L1061.74 762.36C1068.04 763.2 1071.68 766.14 1071.68 771.39C1071.68 777.27 1066.22 781.05 1058.45 781.05C1052.01 781.05 1045.85 777.97 1044.1 771.25L1049.07 769.85C1050.54 774.68 1054.04 776.43 1058.73 776.43C1063.49 776.43 1066.29 774.61 1066.29 771.32C1066.29 768.87 1064.33 767.61 1061.18 767.19L1054.25 766.35C1048.79 765.72 1045.08 763.41 1045.08 758.44ZM779.618 851.05C787.948 851.05 794.598 846.15 794.598 837.54V836.63C794.598 829 788.578 823.82 782.208 823.82C780.248 823.82 778.498 824.38 777.588 824.8L777.168 824.31L792.568 812.97V808.21H763.798V813.18H783.608L783.958 813.81L770.028 823.89L774.578 830.33C775.768 829.63 777.448 828.72 780.388 828.72C784.868 828.72 788.928 831.94 788.928 836.84V837.4C788.928 842.93 784.868 845.94 779.618 845.94C774.158 845.94 769.258 842.93 768.208 835.79L762.608 837.19C764.358 846.57 771.218 851.05 779.618 851.05ZM818.58 850.56C821.59 850.56 824.11 848.11 824.11 845.03C824.11 842.16 821.59 839.57 818.58 839.57C815.57 839.57 813.12 842.16 813.12 845.03C813.12 848.11 815.57 850.56 818.58 850.56ZM849.423 837.05V836.14C849.423 830.47 853.903 827.11 859.083 827.11C864.263 827.11 868.743 830.47 868.743 836.14V837.05C868.743 842.72 864.263 846.08 859.083 846.08C853.903 846.08 849.423 842.72 849.423 837.05ZM843.683 835.44C843.683 846.01 851.033 851.12 859.153 851.12C867.483 851.12 874.413 845.87 874.413 837.26V836.07C874.413 827.6 867.903 822.28 860.623 822.28C855.583 822.28 851.663 824.94 849.703 828.3H849.353V824.59C849.353 817.52 853.343 812.41 859.993 812.41C865.103 812.41 868.953 815.49 869.233 820.88L874.553 819.62C873.853 811.29 867.133 807.23 859.993 807.23C850.053 807.23 843.683 814.44 843.683 824.45V835.44ZM885.586 828.44C885.586 822.63 890.906 818.64 898.396 818.64C904.696 818.64 910.086 821.51 911.556 827.46L906.656 829C905.606 825.01 902.456 823.19 898.326 823.19C893.916 823.19 890.976 825.22 890.976 828.02C890.976 830.75 893.216 831.17 895.526 831.52L902.246 832.36C908.546 833.2 912.186 836.14 912.186 841.39C912.186 847.27 906.726 851.05 898.956 851.05C892.516 851.05 886.356 847.97 884.606 841.25L889.576 839.85C891.046 844.68 894.546 846.43 899.236 846.43C903.996 846.43 906.796 844.61 906.796 841.32C906.796 838.87 904.836 837.61 901.686 837.19L894.756 836.35C889.296 835.72 885.586 833.41 885.586 828.44Z" fill="#FFCC66"/>
</svg>
