<svg width="1600" height="900" viewBox="0 0 1600 900" fill="none" xmlns="http://www.w3.org/2000/svg">
<rect width="1600" height="900" fill="#220033"/>
<path d="M899.556 449.989C908.285 430.017 914.186 408.926 917.09 387.324C918.365 377.924 919.039 368.453 919.11 358.967C919.245 343.679 917.602 328.428 914.212 313.52C913.624 310.965 912.985 308.434 912.296 305.927C911.833 304.26 911.351 302.601 910.848 300.951C909.319 301.182 907.8 301.433 906.291 301.705C890.587 304.572 875.444 309.939 861.44 317.602C859.481 318.681 857.54 319.805 855.618 320.973C856.214 324.55 856.715 328.166 857.121 331.82C857.644 336.546 858.009 341.323 858.216 346.154C858.777 359.908 858.119 373.686 856.251 387.324C854.5 400.296 851.737 413.112 847.989 425.653C847.453 427.448 846.894 429.242 846.316 431.025C844.665 436.135 842.85 441.187 840.87 446.18C840.359 447.458 839.84 448.731 839.313 450.001C821.28 493.342 790.848 531.44 749.618 553.932C747.642 555.015 745.639 556.06 743.607 557.066C729.011 564.299 713.471 569.444 697.442 572.348C690.747 573.561 683.989 574.404 677.201 574.873C675.68 574.976 674.159 575.068 672.626 575.135C669.787 575.265 666.911 575.329 663.999 575.329C625.938 575.329 595.859 564.33 573.281 546.035C569.202 542.729 565.341 539.162 561.722 535.358C559.917 533.468 558.173 531.521 556.49 529.517C552.276 524.501 548.438 519.179 545.009 513.596C543.63 511.349 542.31 509.063 541.049 506.739C540.416 505.571 539.808 504.397 539.224 503.217C538.694 502.176 538.183 501.13 537.678 500.077C522.109 467.455 517.467 427.563 522.882 387.336C524.468 375.65 526.885 364.092 530.116 352.749C530.578 351.127 531.057 349.505 531.552 347.882C532.878 343.563 534.32 339.277 535.877 335.027C536.92 332.187 538.013 329.375 539.157 326.588C540.3 323.802 541.495 321.03 542.74 318.272C543.989 315.53 545.287 312.806 546.634 310.101C549.331 304.707 552.229 299.424 555.328 294.252C573.342 264.259 598.104 238.596 628.943 221.647C639.2 215.997 650.004 211.403 661.188 207.934C662.94 207.39 664.708 206.873 666.493 206.382C669.164 205.646 671.877 204.971 674.615 204.356C687.911 201.397 701.494 199.92 715.116 199.951C722.399 199.94 729.676 200.367 736.908 201.229C740.384 201.635 743.779 202.156 747.093 202.793C748.756 203.105 750.396 203.44 752.015 203.797C752.824 203.979 753.633 204.162 754.448 204.356C756.05 204.742 757.632 205.147 759.194 205.573L761.524 206.236C763.84 206.918 766.113 207.65 768.344 208.432C774.146 210.463 779.796 212.902 785.251 215.733C786.59 216.427 787.906 217.141 789.2 217.875C789.845 218.24 790.49 218.611 791.128 218.988C792.406 219.742 793.659 220.521 794.9 221.312C796.328 222.225 797.731 223.166 799.11 224.135C807.956 230.341 815.945 237.685 822.874 245.976C823.403 246.585 823.927 247.248 824.444 247.887C826.05 247.224 827.656 246.573 829.274 245.934C842.9 240.59 856.908 236.278 871.181 233.036C836.581 197.049 784.466 175.001 718.784 175.001C688.229 174.907 657.869 179.874 628.937 189.7C609.874 196.212 591.631 204.911 574.571 215.624C572.977 216.625 571.397 217.639 569.832 218.666C566.701 220.734 563.622 222.866 560.596 225.06C559.079 226.155 557.581 227.266 556.1 228.394C548.72 233.998 541.654 240.004 534.934 246.384C533.596 247.654 532.274 248.937 530.968 250.235C528.36 252.831 525.811 255.479 523.32 258.181C522.071 259.527 520.844 260.888 519.639 262.263C514.809 267.743 510.242 273.421 505.938 279.298C504.219 281.642 502.542 284.013 500.907 286.41C500.096 287.627 499.285 288.844 498.473 290.061C479.214 319.369 466.76 352.618 462.025 387.367C449.473 481.01 495.912 560.089 583.703 588.745C586.542 589.677 589.418 590.551 592.33 591.367C593.346 591.653 594.368 591.927 595.372 592.2C597.514 592.772 599.677 593.311 601.864 593.818C607.294 595.092 612.857 596.183 618.552 597.091C608.392 632.47 593.127 672.879 577.662 706.858C576.518 709.377 575.372 711.857 574.224 714.298C572.509 717.949 570.795 721.516 569.083 725H641.482C645.254 688.904 656.181 641.37 670.04 600.115C680.116 599.781 690.167 598.907 700.149 597.499C701.555 597.305 702.954 597.092 704.347 596.891C706.525 596.55 708.697 596.197 710.851 595.808C714.148 595.212 717.418 594.557 720.658 593.843C722.82 593.368 724.968 592.869 727.101 592.346C738.687 589.514 750.069 585.906 761.171 581.547C824.602 556.615 873.882 508.778 899.556 449.989Z" fill="#D98CFF"/>
<path d="M938.986 249.828C934.638 249.828 930.322 249.923 926.039 250.113C922.827 250.259 919.635 250.462 916.463 250.722L916.074 250.752C915.149 250.825 914.224 250.904 913.299 250.989C904.879 251.744 896.605 252.859 888.477 254.336C884.084 255.147 879.739 256.043 875.439 257.025C872.194 257.775 868.998 258.586 865.851 259.458C864.8 259.742 863.748 260.034 862.693 260.334C854.297 262.719 846.113 265.481 838.139 268.621C830.493 271.61 823.061 274.93 815.841 278.58C746.995 313.386 698.348 376.531 684.325 450.001C683.514 454.227 682.82 458.486 682.244 462.777C678.095 493.555 680.419 522.783 688.492 549.168C690.026 548.937 691.534 548.688 693.074 548.414C708.784 545.568 723.937 540.228 737.961 532.596C739.904 531.533 741.828 530.424 743.734 529.268C743.601 528.453 743.467 527.638 743.339 526.834C741.893 517.368 741.095 507.815 740.948 498.24C740.948 497.267 740.948 496.299 740.918 495.32C740.918 492.4 740.964 489.467 741.057 486.523C741.124 484.557 741.222 482.592 741.337 480.621C741.698 474.716 742.28 468.788 743.083 462.838C743.663 458.571 744.355 454.312 745.158 450.061C748.789 430.885 754.653 412.2 762.631 394.388C764.318 390.636 766.099 386.925 767.973 383.254C772.18 375.013 776.879 367.033 782.045 359.356C783.448 357.272 784.886 355.211 786.358 353.175C787.981 350.96 789.625 348.779 791.292 346.629C792.254 345.412 793.221 344.195 794.207 342.979C795.338 341.597 796.494 340.222 797.662 338.872C801.929 333.932 806.421 329.206 811.138 324.696L811.248 324.593C816.668 319.425 822.389 314.582 828.38 310.089C835.167 304.999 842.307 300.398 849.747 296.321C851.726 295.238 853.728 294.191 855.752 293.182C856.77 292.679 857.784 292.182 858.794 291.691C872.489 285.204 886.977 280.544 901.886 277.832C907.224 276.854 912.677 276.11 918.246 275.599C921.032 275.344 923.849 275.153 926.696 275.027C926.879 275.027 927.067 275.027 927.256 275.027C929.921 274.909 932.608 274.851 935.317 274.851C944.734 274.822 954.138 275.553 963.437 277.035C966.382 277.513 969.267 278.067 972.094 278.696C974.921 279.324 977.692 280.024 980.405 280.795C1053.58 301.65 1084.04 374.292 1077.85 450.068C1077.5 454.318 1077.04 458.577 1076.46 462.844C1063.69 557.145 994.94 650.229 884.212 650.229C834.519 650.229 798.429 631.478 774.896 602.287C773.294 602.952 771.686 603.603 770.072 604.24C756.446 609.582 742.438 613.892 728.166 617.132C739.338 628.713 752.065 638.685 765.983 646.761C766.823 647.247 767.663 647.734 768.514 648.209C771.057 649.64 773.653 651.02 776.302 652.346C781.574 655.003 787.05 657.436 792.728 659.647C818.281 669.649 847.715 675.154 880.537 675.154C1016.82 675.154 1121.46 580.245 1137.28 462.826C1137.86 458.534 1138.31 454.276 1138.63 450.049C1147.4 337.959 1070.31 249.828 938.986 249.828Z" fill="#D98CFF"/>
</svg>
