<svg width="1600" height="900" viewBox="0 0 1600 900" fill="none" xmlns="http://www.w3.org/2000/svg">
<rect width="1600" height="900" fill="#0D0C0D"/>
<path d="M40.735 47.045V48.14H43.885V56H45.13V48.14H48.265V47.045H40.735ZM51.6341 49.475H49.6841V50.6L50.9741 50.51C51.2741 50.495 51.4541 50.675 51.4541 50.975V54.5C51.4541 54.8 51.2741 54.98 50.9741 54.965L49.6241 54.875V56H55.5491V54.875L53.1041 54.965C52.8041 54.98 52.6241 54.815 52.6241 54.515V52.985C52.6241 51.26 53.5091 50.33 54.4991 50.33C55.3241 50.33 55.6991 50.84 55.6991 51.68V52.085L56.8241 52.01V51.5C56.8241 50.225 56.1941 49.265 54.7991 49.265C53.8091 49.265 53.0741 49.895 52.6691 50.705H52.5941V50.435C52.5941 49.82 52.2491 49.475 51.6341 49.475ZM64.8433 52.64C64.8433 50.69 63.6433 49.28 61.6783 49.28C59.8033 49.28 58.3333 50.705 58.3333 52.655V52.865C58.3333 54.815 59.8633 56.24 61.8133 56.24C63.1033 56.24 64.2133 55.625 64.6933 54.635L63.6883 54.2C63.3583 54.845 62.7133 55.205 61.8283 55.205C60.5233 55.205 59.6233 54.35 59.5183 53.12H64.8283C64.8433 52.955 64.8433 52.79 64.8433 52.64ZM59.5183 52.145C59.6683 51.02 60.5833 50.315 61.6783 50.315C62.9533 50.315 63.6583 51.155 63.6733 52.145H59.5183ZM73.3874 52.64C73.3874 50.69 72.1874 49.28 70.2224 49.28C68.3474 49.28 66.8774 50.705 66.8774 52.655V52.865C66.8774 54.815 68.4074 56.24 70.3574 56.24C71.6474 56.24 72.7574 55.625 73.2374 54.635L72.2324 54.2C71.9024 54.845 71.2574 55.205 70.3724 55.205C69.0674 55.205 68.1674 54.35 68.0624 53.12H73.3724C73.3874 52.955 73.3874 52.79 73.3874 52.64ZM68.0624 52.145C68.2124 51.02 69.1274 50.315 70.2224 50.315C71.4974 50.315 72.2024 51.155 72.2174 52.145H68.0624ZM78.3916 56.21C79.5766 56.21 80.3266 55.625 80.7166 55.025H80.7916V56H81.9316V46.235H80.7466V50.405H80.6716C80.2966 49.835 79.5316 49.265 78.3916 49.265C76.6216 49.265 75.1516 50.675 75.1516 52.625V52.85C75.1516 54.8 76.6216 56.21 78.3916 56.21ZM76.3216 52.85V52.625C76.3216 51.275 77.2666 50.33 78.5716 50.33C79.8616 50.33 80.8216 51.275 80.8216 52.625V52.85C80.8216 54.2 79.8616 55.145 78.5716 55.145C77.2666 55.145 76.3216 54.2 76.3216 52.85ZM87.2207 56.21C89.1407 56.21 90.6407 54.785 90.6407 52.835V52.64C90.6407 50.69 89.1407 49.265 87.2207 49.265C85.3157 49.265 83.8157 50.69 83.8157 52.64V52.835C83.8157 54.785 85.3157 56.21 87.2207 56.21ZM84.9857 52.835V52.64C84.9857 51.29 85.9307 50.33 87.2207 50.33C88.5257 50.33 89.4707 51.29 89.4707 52.64V52.835C89.4707 54.185 88.5257 55.145 87.2207 55.145C85.9307 55.145 84.9857 54.185 84.9857 52.835ZM92.2548 49.475V56H93.3348V51.62C93.3348 50.915 93.7548 50.3 94.3848 50.3C95.0448 50.3 95.2548 50.84 95.2548 51.53V56H96.3348V51.62C96.3348 50.915 96.7548 50.3 97.3998 50.3C98.0448 50.3 98.2548 50.84 98.2548 51.53V56H99.3498V51.2C99.3498 50.21 99.0048 49.265 97.8798 49.265C97.0248 49.265 96.5298 49.835 96.2898 50.315H96.1998C96.0798 49.85 95.6748 49.265 94.8798 49.265C94.1298 49.265 93.6498 49.7 93.4098 50.21H93.3348V49.475H92.2548ZM44.8 73.21C46.45 73.21 48.025 72.265 48.145 69.91L46.99 69.64C46.93 71.35 46.015 72.07 44.8 72.07C43.285 72.07 42.37 70.99 42.37 69.475V67.57C42.37 66.055 43.285 64.975 44.8 64.975C46.015 64.975 46.915 65.68 46.975 67.39L48.145 67.12C48.025 64.765 46.45 63.835 44.8 63.835C42.595 63.835 41.14 65.38 41.14 67.54V69.505C41.14 71.65 42.595 73.21 44.8 73.21ZM56.1191 73V66.475H54.9491V69.895C54.9491 71.14 54.0941 72.145 52.9241 72.145C51.7691 72.145 51.1391 71.365 51.1391 70.12V66.475H49.9691V70.405C49.9691 72.055 50.9441 73.21 52.5191 73.21C53.6291 73.21 54.3491 72.58 54.7541 71.905H54.9791V73H56.1191ZM58.8583 68.38C58.8583 67.135 59.9983 66.28 61.6033 66.28C62.9533 66.28 64.1083 66.895 64.4233 68.17L63.3733 68.5C63.1483 67.645 62.4733 67.255 61.5883 67.255C60.6433 67.255 60.0133 67.69 60.0133 68.29C60.0133 68.875 60.4933 68.965 60.9883 69.04L62.4283 69.22C63.7783 69.4 64.5583 70.03 64.5583 71.155C64.5583 72.415 63.3883 73.225 61.7233 73.225C60.3433 73.225 59.0233 72.565 58.6483 71.125L59.7133 70.825C60.0283 71.86 60.7783 72.235 61.7833 72.235C62.8033 72.235 63.4033 71.845 63.4033 71.14C63.4033 70.615 62.9833 70.345 62.3083 70.255L60.8233 70.075C59.6533 69.94 58.8583 69.445 58.8583 68.38ZM68.7224 67.84V70.51C68.7224 72.325 69.7274 73.24 71.3024 73.24C72.8324 73.24 73.7324 72.28 73.7924 70.435L72.6824 70.195C72.6524 71.575 72.2024 72.16 71.3024 72.16C70.4174 72.16 69.8924 71.59 69.8924 70.465V67.84C69.8924 67.615 70.0274 67.48 70.2524 67.48L72.8774 67.525V66.475H69.8924V64.135H68.7224V66.475H66.3074V67.525L68.3624 67.495C68.5874 67.495 68.7224 67.615 68.7224 67.84ZM78.6766 73.21C80.5966 73.21 82.0966 71.785 82.0966 69.835V69.64C82.0966 67.69 80.5966 66.265 78.6766 66.265C76.7716 66.265 75.2716 67.69 75.2716 69.64V69.835C75.2716 71.785 76.7716 73.21 78.6766 73.21ZM76.4416 69.835V69.64C76.4416 68.29 77.3866 67.33 78.6766 67.33C79.9816 67.33 80.9266 68.29 80.9266 69.64V69.835C80.9266 71.185 79.9816 72.145 78.6766 72.145C77.3866 72.145 76.4416 71.185 76.4416 69.835ZM83.7107 66.475V73H84.7907V68.62C84.7907 67.915 85.2107 67.3 85.8407 67.3C86.5007 67.3 86.7107 67.84 86.7107 68.53V73H87.7907V68.62C87.7907 67.915 88.2107 67.3 88.8557 67.3C89.5007 67.3 89.7107 67.84 89.7107 68.53V73H90.8057V68.2C90.8057 67.21 90.4607 66.265 89.3357 66.265C88.4807 66.265 87.9857 66.835 87.7457 67.315H87.6557C87.5357 66.85 87.1307 66.265 86.3357 66.265C85.5857 66.265 85.1057 66.7 84.8657 67.21H84.7907V66.475H83.7107ZM101.579 64.045V73H108.029V71.845L102.809 71.965V64.045H101.579ZM112.853 73.21C114.773 73.21 116.273 71.785 116.273 69.835V69.64C116.273 67.69 114.773 66.265 112.853 66.265C110.948 66.265 109.448 67.69 109.448 69.64V69.835C109.448 71.785 110.948 73.21 112.853 73.21ZM110.618 69.835V69.64C110.618 68.29 111.563 67.33 112.853 67.33C114.158 67.33 115.103 68.29 115.103 69.64V69.835C115.103 71.185 114.158 72.145 112.853 72.145C111.563 72.145 110.618 71.185 110.618 69.835ZM121.112 73.21C122.297 73.21 123.047 72.625 123.437 72.025H123.512V73.03C123.512 74.485 122.657 75.175 121.307 75.175C120.137 75.175 119.297 74.605 118.907 73.57L117.842 73.96C118.367 75.325 119.612 76.195 121.322 76.195C123.272 76.195 124.637 75.1 124.652 73.045V73.015V66.475H123.512V67.45H123.437C123.047 66.85 122.297 66.265 121.112 66.265C119.342 66.265 117.872 67.675 117.872 69.625V69.85C117.872 71.8 119.342 73.21 121.112 73.21ZM119.042 69.85V69.625C119.042 68.275 119.987 67.33 121.292 67.33C122.582 67.33 123.542 68.275 123.542 69.625V69.85C123.542 71.2 122.582 72.145 121.292 72.145C119.987 72.145 119.042 71.2 119.042 69.85ZM129.941 73.21C131.861 73.21 133.361 71.785 133.361 69.835V69.64C133.361 67.69 131.861 66.265 129.941 66.265C128.036 66.265 126.536 67.69 126.536 69.64V69.835C126.536 71.785 128.036 73.21 129.941 73.21ZM127.706 69.835V69.64C127.706 68.29 128.651 67.33 129.941 67.33C131.246 67.33 132.191 68.29 132.191 69.64V69.835C132.191 71.185 131.246 72.145 129.941 72.145C128.651 72.145 127.706 71.185 127.706 69.835ZM137.076 67.84V70.51C137.076 72.325 138.081 73.24 139.656 73.24C141.186 73.24 142.086 72.28 142.146 70.435L141.036 70.195C141.006 71.575 140.556 72.16 139.656 72.16C138.771 72.16 138.246 71.59 138.246 70.465V67.84C138.246 67.615 138.381 67.48 138.606 67.48L141.231 67.525V66.475H138.246V64.135H137.076V66.475H134.661V67.525L136.716 67.495C136.941 67.495 137.076 67.615 137.076 67.84ZM143.37 66.475L146.43 73.315L145.26 75.985H146.61L150.69 66.475H149.31L147.105 71.875H147.03L144.75 66.475H143.37ZM155.859 66.265C154.674 66.265 153.939 66.85 153.549 67.45H153.474V66.475H152.319V75.985H153.519V72.07H153.594C153.969 72.64 154.719 73.21 155.859 73.21C157.629 73.21 159.114 71.8 159.114 69.85V69.625C159.114 67.675 157.629 66.265 155.859 66.265ZM153.429 69.85V69.625C153.429 68.275 154.389 67.33 155.679 67.33C156.984 67.33 157.944 68.275 157.944 69.625V69.85C157.944 71.2 156.984 72.145 155.679 72.145C154.389 72.145 153.429 71.2 153.429 69.85ZM167.373 69.64C167.373 67.69 166.173 66.28 164.208 66.28C162.333 66.28 160.863 67.705 160.863 69.655V69.865C160.863 71.815 162.393 73.24 164.343 73.24C165.633 73.24 166.743 72.625 167.223 71.635L166.218 71.2C165.888 71.845 165.243 72.205 164.358 72.205C163.053 72.205 162.153 71.35 162.048 70.12H167.358C167.373 69.955 167.373 69.79 167.373 69.64ZM162.048 69.145C162.198 68.02 163.113 67.315 164.208 67.315C165.483 67.315 166.188 68.155 166.203 69.145H162.048ZM177.351 68.005V69.04H185.061V68.005H177.351ZM198.52 63.835C196.66 63.835 195.055 65.17 195.265 67.045L196.45 67.21C196.285 65.755 197.275 64.93 198.55 64.93C199.705 64.93 200.47 65.59 200.47 66.73C200.47 67.78 199.84 68.245 198.865 68.68L197.2 69.43C195.925 69.985 195.13 70.885 195.13 72.115V73H201.76V71.875H196.51C196.51 71.08 197.005 70.705 197.875 70.315L199.525 69.565C200.98 68.905 201.685 68.08 201.685 66.67C201.685 65.125 200.545 63.835 198.52 63.835ZM206.839 69.49C207.364 69.49 207.784 69.055 207.784 68.545C207.784 68.035 207.364 67.6 206.839 67.6C206.329 67.6 205.894 68.035 205.894 68.545C205.894 69.055 206.329 69.49 206.839 69.49ZM203.359 69.58C203.359 71.695 204.664 73.24 206.839 73.24C209.014 73.24 210.319 71.695 210.319 69.58V67.51C210.319 65.38 209.014 63.85 206.839 63.85C204.664 63.85 203.359 65.38 203.359 67.51V69.58ZM204.589 69.535V67.555C204.589 66.055 205.339 64.99 206.839 64.99C208.339 64.99 209.104 66.055 209.104 67.555V69.535C209.104 71.02 208.339 72.085 206.839 72.085C205.339 72.085 204.589 71.02 204.589 69.535ZM215.608 63.835C213.748 63.835 212.143 65.17 212.353 67.045L213.538 67.21C213.373 65.755 214.363 64.93 215.638 64.93C216.793 64.93 217.558 65.59 217.558 66.73C217.558 67.78 216.928 68.245 215.953 68.68L214.288 69.43C213.013 69.985 212.218 70.885 212.218 72.115V73H218.848V71.875H213.598C213.598 71.08 214.093 70.705 214.963 70.315L216.613 69.565C218.068 68.905 218.773 68.08 218.773 66.67C218.773 65.125 217.633 63.835 215.608 63.835ZM222.937 64.045C222.892 65.32 222.472 65.92 221.212 65.92H221.017V67.06H221.437C222.487 67.06 223.612 66.52 223.807 65.065H223.882V71.47C223.882 71.77 223.717 71.935 223.402 71.92L221.017 71.83V73H227.737V71.83L225.592 71.92C225.292 71.935 225.112 71.755 225.112 71.455V64.045H222.937Z" fill="#EBEBEB"/>
<path d="M601.604 469.168C591.741 476.341 591.069 484.186 591.966 489.566L646.21 451.46C651.366 447.874 654.728 445.184 654.28 439.356C652.487 423.665 632.089 409.095 604.742 409.095C574.258 409.095 539.962 433.304 539.962 474.548C539.962 515.792 571.344 540 605.415 540C641.503 540 657.418 517.361 660.108 499.877L654.504 497.635C647.779 513.774 633.882 523.861 614.829 523.861C587.258 523.861 564.619 502.118 564.619 469.168C564.619 437.338 582.103 419.855 602.949 419.855C616.846 419.855 628.278 429.717 628.278 441.822C628.278 448.098 624.019 452.581 618.191 456.84L601.604 469.168ZM1016.73 540C1050.36 540 1082.19 515.792 1082.19 474.548C1082.19 433.304 1050.36 409.095 1016.73 409.095C983.11 409.095 951.281 433.304 951.281 474.548C951.281 515.792 983.11 540 1016.73 540ZM1057.53 480.824C1057.53 503.912 1047.67 526.551 1021.66 526.551C995.215 526.551 975.938 499.204 975.938 468.271C975.938 445.632 986.697 422.769 1012.25 422.769C1038.7 422.769 1057.53 449.667 1057.53 480.824ZM735.198 469.168C725.336 476.565 724.663 484.186 725.56 489.566L779.805 451.46C784.96 447.874 788.322 445.184 787.874 439.356C786.081 423.665 765.683 409.095 738.337 409.095C707.852 409.095 673.557 433.304 673.557 474.548C673.557 515.792 704.938 540 739.009 540C775.098 540 791.012 517.361 793.702 499.877L788.098 497.635C781.374 513.774 767.476 523.861 748.423 523.861C720.853 523.861 698.213 502.118 698.213 469.168C698.213 437.338 715.697 419.855 736.543 419.855C750.441 419.855 761.873 429.717 761.873 441.822C761.873 448.098 757.614 452.581 751.786 456.84L735.198 469.168ZM1269.58 448.098C1269.58 431.735 1256.35 409.095 1233.26 409.095C1219.37 409.095 1205.47 419.182 1195.38 430.838C1187.31 415.596 1178.79 409.095 1165.12 409.095C1151.45 409.095 1138.22 418.286 1128.36 429.493C1123.43 412.906 1107.51 412.682 1090.7 412.682L1090.03 418.286C1101.69 420.303 1107.74 425.01 1107.74 444.287V506.377C1107.74 525.654 1101.69 530.137 1090.03 532.155L1090.93 537.983C1100.12 538.207 1107.29 536.638 1111.33 535.741C1112.89 535.293 1116.93 534.62 1118.95 534.62C1121.19 534.62 1123.21 535.069 1125.67 535.741C1130.6 537.31 1138 538.431 1143.15 538.207L1144.05 532.379C1136.88 530.586 1130.38 526.551 1130.38 506.377L1130.6 457.512C1130.6 434.873 1145.62 423.889 1155.93 423.889C1167.14 423.889 1177.23 433.752 1177.23 450.788V510.636C1177.23 525.878 1170.73 530.586 1163.33 532.155L1164.22 537.983C1171.17 538.207 1176.1 537.086 1180.14 535.965C1183.73 535.069 1185.97 534.62 1188.66 534.62C1190.67 534.62 1192.92 535.293 1196.73 536.189C1201.21 537.31 1206.14 538.431 1212.87 538.207L1213.99 532.379C1206.81 530.81 1199.87 525.654 1199.87 510.636L1200.09 457.512C1200.09 434.873 1215.11 423.889 1225.42 423.889C1236.63 423.889 1246.71 433.752 1246.71 450.788V506.377C1246.71 526.551 1240.21 530.361 1232.82 532.155L1233.94 537.983C1240.44 538.207 1244.92 537.31 1249.63 536.189C1253.66 535.069 1255.68 534.62 1258.14 534.62C1259.94 534.62 1264.2 535.517 1265.77 535.965C1270.47 537.086 1276.75 538.431 1286.16 538.207L1287.06 532.379C1274.96 530.361 1269.35 525.654 1269.35 506.377L1269.58 448.098ZM394.712 372.783C393.815 396.991 377.452 421.648 364.9 439.58C353.02 456.84 339.347 474.548 339.347 494.273C339.347 528.792 365.348 540 383.953 540C407.264 540 420.265 526.103 425.645 507.722L420.041 505.032C413.317 517.585 404.351 523.861 392.022 523.861C380.59 523.861 365.348 514.895 365.348 490.687C365.348 475.444 375.211 456.391 384.401 438.908C395.833 417.389 402.557 401.698 406.816 379.283L394.712 372.783ZM343.605 425.234C339.571 422.769 332.622 414.027 332.622 402.819C332.622 384.887 349.657 377.49 365.124 377.49C395.16 377.49 412.42 395.198 437.749 395.198C460.837 395.198 468.234 377.714 468.906 371.662C469.13 369.421 469.13 368.3 468.906 366.955C455.457 373.679 443.801 375.248 429.231 375.248C409.282 375.248 378.349 366.058 356.83 366.058C332.622 366.058 312 377.266 312 396.543C312 411.337 324.104 420.975 339.795 429.045L343.605 425.234ZM450.302 459.305L450.526 506.377C450.526 525.654 444.698 530.137 432.818 532.155L433.714 537.983C443.129 538.207 449.405 537.086 453.888 535.965C457.474 535.069 460.164 534.62 461.733 534.62C463.975 534.62 465.992 535.069 469.803 535.965C475.407 537.31 480.562 538.431 489.976 538.207L491.321 532.379C479.217 530.361 473.389 525.654 473.389 506.377V457.512C473.389 435.097 483.252 425.234 491.77 425.234C503.426 425.234 513.961 438.908 513.961 447.649C513.961 453.253 509.926 457.064 506.34 459.754L511.047 464.909C512.392 463.788 518.22 459.53 520.013 457.96C530.1 449.667 533.014 444.511 533.014 439.356C533.014 436.666 532.341 433.528 529.876 429.045C523.823 418.734 514.185 409.992 501.408 409.992C482.804 409.992 450.077 434.649 450.302 459.305ZM889.191 421.2C888.294 417.165 884.259 409.992 868.12 409.992C840.326 409.992 806.927 433.08 806.927 476.341C806.927 515.343 835.17 540 869.465 540C882.018 540 889.415 536.862 897.26 533.275C901.295 531.482 904.209 530.586 907.347 530.586C909.589 530.586 912.054 531.034 915.417 532.379C920.572 534.62 927.521 538.431 942.987 538.207L944.108 532.603C932.228 530.81 926.176 523.189 926.176 503.912L926.4 390.715C926.4 365.61 909.14 359.782 882.242 360.006L881.121 366.507C896.812 367.179 903.312 375.024 903.312 394.077V491.583C903.312 521.171 888.294 526.551 873.948 526.551C851.085 526.551 831.584 504.136 831.584 470.961C831.584 442.046 849.068 420.303 875.966 419.406C880.897 419.182 884.708 419.631 889.191 421.2Z" fill="#EBEBEB"/>
</svg>
