<svg width="1600" height="900" viewBox="0 0 1600 900" fill="none" xmlns="http://www.w3.org/2000/svg">
<rect width="1600" height="900" fill="#0D0A08"/>
<path d="M57.2 53.552H50.348V54.452H53.252V62H54.284V54.452H57.2V53.552ZM57.8397 62H58.8597V58.7C58.8597 57.536 59.5318 56.852 60.5157 56.852H61.1998V55.952H60.5157C59.6878 55.952 59.1478 56.372 58.8477 57.032H58.8237C58.8237 56.78 58.8357 56.348 58.8357 56.036V55.952H57.8397V62ZM65.0314 62.168C66.5074 62.168 67.3954 61.316 67.6834 60.44L66.6994 60.32C66.4954 60.836 65.9674 61.292 65.0434 61.292C63.8794 61.292 63.0514 60.512 62.9914 59.18H67.7074C67.7194 59.048 67.7194 58.928 67.7194 58.808C67.7194 56.912 66.5794 55.784 64.9114 55.784C63.1954 55.784 61.9594 57.092 61.9594 58.988C61.9594 60.896 63.2314 62.168 65.0314 62.168ZM63.0394 58.352C63.1474 57.512 63.8194 56.648 64.9114 56.648C66.0274 56.648 66.6634 57.476 66.6874 58.352H63.0394ZM72.0538 62.168C73.5298 62.168 74.4178 61.316 74.7058 60.44L73.7218 60.32C73.5178 60.836 72.9898 61.292 72.0658 61.292C70.9018 61.292 70.0738 60.512 70.0138 59.18H74.7298C74.7418 59.048 74.7418 58.928 74.7418 58.808C74.7418 56.912 73.6018 55.784 71.9338 55.784C70.2178 55.784 68.9818 57.092 68.9818 58.988C68.9818 60.896 70.2538 62.168 72.0538 62.168ZM70.0618 58.352C70.1698 57.512 70.8418 56.648 71.9338 56.648C73.0498 56.648 73.6858 57.476 73.7098 58.352H70.0618ZM78.9201 62.168C79.9641 62.168 80.6841 61.652 81.0441 60.992H81.0681C81.0441 61.208 81.0441 61.544 81.0441 61.784V62H82.0401V53.552H81.0201V56.144C81.0201 56.384 81.0201 56.72 81.0441 56.936H81.0201C80.6601 56.276 79.9521 55.784 78.9201 55.784C77.2401 55.784 76.0041 57.08 76.0041 58.976C76.0041 60.872 77.2401 62.168 78.9201 62.168ZM77.0361 58.988C77.0361 57.656 77.8401 56.696 79.0401 56.696C80.2521 56.696 81.0441 57.656 81.0441 58.988C81.0441 60.308 80.2521 61.268 79.0401 61.268C77.8401 61.268 77.0361 60.308 77.0361 58.988ZM86.6495 62.168C88.3895 62.168 89.7335 60.872 89.7335 58.976C89.7335 57.08 88.3895 55.784 86.6495 55.784C84.9095 55.784 83.5655 57.08 83.5655 58.976C83.5655 60.872 84.9095 62.168 86.6495 62.168ZM84.5855 58.976C84.5855 57.644 85.4375 56.696 86.6495 56.696C87.8495 56.696 88.7135 57.644 88.7135 58.976C88.7135 60.296 87.8495 61.256 86.6495 61.256C85.4375 61.256 84.5855 60.296 84.5855 58.976ZM91.2523 62H92.2723V58.316C92.2723 57.404 92.9083 56.648 93.8203 56.648C94.6363 56.648 95.0323 57.284 95.0323 58.112V62H96.0283V58.316C96.0283 57.404 96.6883 56.648 97.5883 56.648C98.4163 56.648 98.7883 57.284 98.7883 58.112V62H99.7963V57.92C99.7963 56.708 99.0403 55.784 97.8043 55.784C96.8683 55.784 96.2083 56.336 95.8603 56.936H95.8363C95.5843 56.288 95.0323 55.784 94.0843 55.784C93.1603 55.784 92.5603 56.324 92.2843 56.828H92.2603C92.2723 56.588 92.2723 56.348 92.2723 56.12V55.952H91.2523V62ZM109.523 55.904L110.555 55.712C110.171 54.032 109.019 53.372 107.555 53.372C105.899 53.372 104.615 54.356 104.615 55.76C104.615 57.116 105.563 57.764 106.823 57.992L108.191 58.244C108.875 58.352 109.547 58.844 109.547 59.684C109.547 60.62 108.815 61.22 107.687 61.22C106.571 61.22 105.755 60.668 105.443 59.42L104.399 59.612C104.759 61.304 106.019 62.168 107.651 62.168C109.403 62.168 110.639 61.16 110.639 59.672C110.639 58.364 109.739 57.5 108.359 57.248L106.991 57.008C106.367 56.9 105.707 56.54 105.707 55.748C105.707 54.86 106.559 54.308 107.555 54.308C108.563 54.308 109.271 54.764 109.523 55.904ZM116.319 62H117.471L114.855 58.448L117.375 55.952H116.127L113.199 58.868V53.552H112.179V62H113.199V60.056L114.171 59.084L116.319 62ZM118.826 55.952V62H119.846V55.952H118.826ZM118.754 54.728H119.918V53.552H118.754V54.728ZM121.723 62H122.743V58.64C122.743 57.488 123.475 56.684 124.495 56.684C125.467 56.684 125.923 57.368 125.923 58.376V62H126.943V58.088C126.943 56.66 126.043 55.784 124.711 55.784C123.751 55.784 123.043 56.348 122.731 56.924H122.707C122.719 56.696 122.743 56.396 122.743 56.024V55.952H121.723V62ZM131.529 62.168C133.017 62.168 134.025 61.292 134.265 60.032L133.281 59.912C133.077 60.716 132.525 61.256 131.529 61.256C130.365 61.256 129.477 60.308 129.477 58.976C129.477 57.644 130.317 56.696 131.505 56.696C132.465 56.696 133.065 57.212 133.269 58.016L134.253 57.896C134.025 56.636 132.969 55.784 131.505 55.784C129.789 55.784 128.445 57.08 128.445 58.976C128.445 60.872 129.777 62.168 131.529 62.168ZM137.629 61.34C136.969 61.34 136.489 61.028 136.489 60.404C136.489 59.852 136.921 59.312 138.433 59.096L139.513 58.94V59.132C139.513 60.356 138.769 61.34 137.629 61.34ZM135.445 57.812L136.453 57.896C136.573 57.056 137.245 56.624 138.061 56.624C138.865 56.624 139.501 57.056 139.501 57.98V58.16L138.277 58.316C136.189 58.592 135.469 59.468 135.469 60.416C135.469 61.496 136.321 62.168 137.509 62.168C138.649 62.168 139.285 61.472 139.573 60.836H139.597C139.609 61.112 139.645 61.664 139.729 62H140.725C140.557 61.304 140.485 60.5 140.485 59.6V58.016C140.485 56.492 139.453 55.784 138.085 55.784C136.705 55.784 135.649 56.516 135.445 57.812ZM142.31 62H143.33V58.7C143.33 57.536 144.002 56.852 144.986 56.852H145.67V55.952H144.986C144.158 55.952 143.618 56.372 143.318 57.032H143.294C143.294 56.78 143.306 56.348 143.306 56.036V55.952H142.31V62ZM149.502 62.168C150.978 62.168 151.866 61.316 152.154 60.44L151.17 60.32C150.966 60.836 150.438 61.292 149.514 61.292C148.35 61.292 147.522 60.512 147.462 59.18H152.178C152.19 59.048 152.19 58.928 152.19 58.808C152.19 56.912 151.05 55.784 149.382 55.784C147.666 55.784 146.43 57.092 146.43 58.988C146.43 60.896 147.702 62.168 149.502 62.168ZM147.51 58.352C147.618 57.512 148.29 56.648 149.382 56.648C150.498 56.648 151.134 57.476 151.158 58.352H147.51ZM54.872 78.18C56.936 78.18 58.244 76.956 58.568 75.42L57.524 75.276C57.248 76.416 56.36 77.22 54.872 77.22C53.048 77.22 51.692 75.828 51.692 73.776C51.692 71.712 53.036 70.332 54.86 70.332C56.324 70.332 57.224 71.124 57.5 72.24L58.532 72.096C58.22 70.572 56.924 69.372 54.86 69.372C52.352 69.372 50.624 71.208 50.624 73.776C50.624 76.344 52.364 78.18 54.872 78.18ZM62.2626 78.168C63.2346 78.168 63.9426 77.592 64.2426 77.028H64.2666C64.2546 77.352 64.2306 77.664 64.2306 77.952V78H65.2506V71.952H64.2306V75.48C64.2306 76.452 63.5706 77.268 62.5626 77.268C61.5546 77.268 61.0506 76.548 61.0506 75.576V71.952H60.0306V75.912C60.0306 77.28 60.9306 78.168 62.2626 78.168ZM70.5198 73.692L71.4678 73.512C71.2038 72.312 70.2918 71.784 69.1518 71.784C67.8918 71.784 66.9438 72.54 66.9438 73.596C66.9438 74.604 67.6638 75.072 68.5638 75.228L69.6318 75.42C70.0758 75.504 70.5438 75.804 70.5438 76.332C70.5438 76.92 70.0518 77.304 69.2838 77.304C68.5038 77.304 67.9278 76.908 67.7358 76.092L66.7758 76.284C67.0158 77.484 67.9998 78.168 69.2598 78.168C70.5558 78.168 71.5278 77.448 71.5278 76.32C71.5278 75.36 70.8078 74.724 69.8118 74.532L68.7318 74.34C68.3238 74.256 67.9278 74.052 67.9278 73.56C67.9278 73.008 68.4798 72.624 69.1518 72.624C69.8838 72.624 70.3518 72.948 70.5198 73.692ZM75.1686 78H76.1766V77.088H75.3726C74.8926 77.088 74.6766 76.848 74.6766 76.416V72.852H76.0926V71.952H74.6766V70.272H73.6566V71.952H72.4686V72.852H73.6566V76.608C73.6566 77.592 74.2326 78 75.1686 78ZM80.2482 78.168C81.9882 78.168 83.3322 76.872 83.3322 74.976C83.3322 73.08 81.9882 71.784 80.2482 71.784C78.5082 71.784 77.1642 73.08 77.1642 74.976C77.1642 76.872 78.5082 78.168 80.2482 78.168ZM78.1842 74.976C78.1842 73.644 79.0362 72.696 80.2482 72.696C81.4482 72.696 82.3122 73.644 82.3122 74.976C82.3122 76.296 81.4482 77.256 80.2482 77.256C79.0362 77.256 78.1842 76.296 78.1842 74.976ZM84.851 78H85.871V74.316C85.871 73.404 86.507 72.648 87.419 72.648C88.235 72.648 88.631 73.284 88.631 74.112V78H89.627V74.316C89.627 73.404 90.287 72.648 91.187 72.648C92.015 72.648 92.387 73.284 92.387 74.112V78H93.395V73.92C93.395 72.708 92.639 71.784 91.403 71.784C90.467 71.784 89.807 72.336 89.459 72.936H89.435C89.183 72.288 88.631 71.784 87.683 71.784C86.759 71.784 86.159 72.324 85.883 72.828H85.859C85.871 72.588 85.871 72.348 85.871 72.12V71.952H84.851V78ZM98.4778 69.552V78H103.878V77.028H99.5578V69.552H98.4778ZM108.092 78.168C109.832 78.168 111.176 76.872 111.176 74.976C111.176 73.08 109.832 71.784 108.092 71.784C106.352 71.784 105.008 73.08 105.008 74.976C105.008 76.872 106.352 78.168 108.092 78.168ZM106.028 74.976C106.028 73.644 106.88 72.696 108.092 72.696C109.292 72.696 110.156 73.644 110.156 74.976C110.156 76.296 109.292 77.256 108.092 77.256C106.88 77.256 106.028 76.296 106.028 74.976ZM115.488 80.52C117.204 80.52 118.368 79.62 118.368 77.796V71.952H117.36V72.192C117.36 72.444 117.36 72.66 117.372 72.912H117.348C116.976 72.24 116.28 71.784 115.32 71.784C113.676 71.784 112.44 73.068 112.44 74.868C112.44 76.68 113.676 77.904 115.32 77.904C116.268 77.904 116.976 77.46 117.348 76.764H117.372V77.928C117.372 79.092 116.616 79.668 115.5 79.668C114.54 79.668 113.88 79.236 113.568 78.396L112.62 78.636C112.956 79.68 113.94 80.52 115.488 80.52ZM113.472 74.868C113.472 73.572 114.312 72.684 115.44 72.684C116.556 72.684 117.384 73.572 117.384 74.868C117.384 76.176 116.556 77.052 115.44 77.052C114.312 77.052 113.472 76.176 113.472 74.868ZM122.98 78.168C124.72 78.168 126.064 76.872 126.064 74.976C126.064 73.08 124.72 71.784 122.98 71.784C121.24 71.784 119.896 73.08 119.896 74.976C119.896 76.872 121.24 78.168 122.98 78.168ZM120.916 74.976C120.916 73.644 121.768 72.696 122.98 72.696C124.18 72.696 125.044 73.644 125.044 74.976C125.044 76.296 124.18 77.256 122.98 77.256C121.768 77.256 120.916 76.296 120.916 74.976ZM129.66 78H130.668V77.088H129.864C129.384 77.088 129.168 76.848 129.168 76.416V72.852H130.584V71.952H129.168V70.272H128.148V71.952H126.96V72.852H128.148V76.608C128.148 77.592 128.724 78 129.66 78ZM132.754 71.952L134.59 76.56H134.614L136.462 71.952H137.494L134.05 80.352H132.946L134.098 77.712L131.65 71.952H132.754ZM141.911 71.784C140.879 71.784 140.159 72.3 139.799 72.948H139.775C139.787 72.756 139.799 72.432 139.799 72.18V71.952H138.803V80.34H139.823V77.796C139.823 77.556 139.811 77.232 139.799 77.016H139.823C140.171 77.664 140.891 78.168 141.911 78.168C143.579 78.168 144.839 76.872 144.839 74.976C144.839 73.08 143.579 71.784 141.911 71.784ZM139.787 74.964C139.787 73.644 140.591 72.684 141.791 72.684C143.003 72.684 143.795 73.644 143.795 74.964C143.795 76.296 143.003 77.256 141.791 77.256C140.591 77.256 139.787 76.296 139.787 74.964ZM149.182 78.168C150.658 78.168 151.546 77.316 151.834 76.44L150.85 76.32C150.646 76.836 150.118 77.292 149.194 77.292C148.03 77.292 147.202 76.512 147.142 75.18H151.858C151.87 75.048 151.87 74.928 151.87 74.808C151.87 72.912 150.73 71.784 149.062 71.784C147.346 71.784 146.11 73.092 146.11 74.988C146.11 76.896 147.382 78.168 149.182 78.168ZM147.19 74.352C147.298 73.512 147.97 72.648 149.062 72.648C150.178 72.648 150.814 73.476 150.838 74.352H147.19ZM156.376 73.332V74.22H166.06V73.332H156.376ZM173.423 69.372C171.791 69.372 170.495 70.56 170.639 72.276L171.647 72.336C171.539 71.052 172.343 70.284 173.435 70.284C174.455 70.284 175.163 70.992 175.163 71.952C175.163 72.852 174.479 73.356 173.555 73.848L172.535 74.4C171.143 75.156 170.531 75.984 170.531 77.328C170.531 77.52 170.543 77.82 170.567 78H176.267V77.088H171.623C171.623 76.26 172.139 75.708 173.087 75.192L174.227 74.568C175.427 73.92 176.183 73.188 176.183 71.928C176.183 70.68 175.223 69.372 173.423 69.372ZM180.583 78.18C182.779 78.18 183.799 76.248 183.799 73.776C183.799 71.304 182.779 69.372 180.583 69.372C178.375 69.372 177.355 71.304 177.355 73.776C177.355 76.248 178.375 78.18 180.583 78.18ZM178.387 73.776C178.387 71.832 179.035 70.272 180.583 70.272C182.131 70.272 182.767 71.832 182.767 73.776C182.767 75.72 182.131 77.268 180.583 77.268C179.035 77.268 178.387 75.72 178.387 73.776ZM187.819 69.372C186.187 69.372 184.891 70.56 185.035 72.276L186.043 72.336C185.935 71.052 186.739 70.284 187.831 70.284C188.851 70.284 189.559 70.992 189.559 71.952C189.559 72.852 188.875 73.356 187.951 73.848L186.931 74.4C185.539 75.156 184.927 75.984 184.927 77.328C184.927 77.52 184.939 77.82 184.963 78H190.663V77.088H186.019C186.019 76.26 186.535 75.708 187.483 75.192L188.623 74.568C189.823 73.92 190.579 73.188 190.579 71.928C190.579 70.68 189.619 69.372 187.819 69.372ZM191.763 71.892V70.884C192.555 70.752 193.407 70.44 193.899 69.552H194.787V78H193.779V71.076H193.755C193.299 71.568 192.423 71.808 191.763 71.892Z" fill="#F7F6F2"/>
<path d="M603.38 467.168C593.517 474.341 592.845 482.186 593.741 487.566L647.986 449.46C653.142 445.874 656.504 443.184 656.056 437.356C654.262 421.665 633.865 407.095 606.518 407.095C576.033 407.095 541.738 431.304 541.738 472.548C541.738 513.792 573.119 538 607.19 538C643.279 538 659.194 515.361 661.884 497.877L656.28 495.635C649.555 511.774 635.658 521.861 616.605 521.861C589.034 521.861 566.395 500.118 566.395 467.168C566.395 435.338 583.879 417.855 604.725 417.855C618.622 417.855 630.054 427.717 630.054 439.822C630.054 446.098 625.795 450.581 619.967 454.84L603.38 467.168ZM1018.28 538C1051.91 538 1083.74 513.792 1083.74 472.548C1083.74 431.304 1051.91 407.095 1018.28 407.095C984.662 407.095 952.832 431.304 952.832 472.548C952.832 513.792 984.662 538 1018.28 538ZM1059.08 479.945C1059.08 501.912 1049.22 524.551 1023.22 524.551C996.766 524.551 977.489 496.532 977.489 465.599C977.489 443.632 988.248 420.769 1013.8 420.769C1040.25 420.769 1059.08 448.788 1059.08 479.945ZM736.974 467.168C727.112 474.565 726.439 482.186 727.336 487.566L781.581 449.46C786.736 445.874 790.098 443.184 789.65 437.356C787.857 421.665 767.459 407.095 740.112 407.095C709.628 407.095 675.333 431.304 675.333 472.548C675.333 513.792 706.714 538 740.785 538C776.873 538 792.788 515.361 795.478 497.877L789.874 495.635C783.15 511.774 769.252 521.861 750.199 521.861C722.629 521.861 699.989 500.118 699.989 467.168C699.989 435.338 717.473 417.855 738.319 417.855C752.217 417.855 763.648 427.717 763.648 439.822C763.648 446.098 759.39 450.581 753.562 454.84L736.974 467.168ZM1268.89 446.098C1268.89 429.735 1255.66 407.095 1232.57 407.095C1219.57 407.095 1205.9 417.182 1195.81 428.838C1187.74 413.596 1179.23 407.095 1165.55 407.095C1152.78 407.095 1139.55 416.286 1129.69 427.493C1124.76 410.906 1108.84 410.682 1092.03 410.682L1091.36 416.286C1103.01 418.303 1109.07 423.01 1109.07 442.287V504.377C1109.07 523.654 1103.01 528.137 1091.36 530.155L1092.25 535.983C1101.45 536.207 1108.62 534.638 1112.65 533.741C1114.22 533.293 1118.26 532.62 1120.27 532.62C1122.52 532.62 1124.53 533.069 1127 533.741C1131.93 535.31 1139.33 536.431 1144.48 536.207L1145.38 530.379C1138.21 528.586 1131.71 524.551 1131.71 504.377L1131.93 455.512C1131.93 432.873 1146.95 421.889 1156.36 421.889C1167.57 421.889 1177.66 431.752 1177.66 448.788V508.636C1177.66 523.878 1171.16 528.586 1163.76 530.155L1164.66 535.983C1171.6 536.207 1176.54 535.086 1180.57 534.189C1184.16 533.069 1186.4 532.62 1189.09 532.62C1191.11 532.62 1193.35 533.293 1197.16 534.414C1201.64 535.31 1206.57 536.431 1213.3 536.207L1214.42 530.379C1207.24 528.81 1200.3 523.654 1200.3 508.636L1200.52 455.512C1200.52 432.873 1215.31 421.889 1224.73 421.889C1235.94 421.889 1246.02 431.752 1246.02 448.788V504.377C1246.02 524.551 1239.52 528.361 1232.13 530.155L1233.25 535.983C1239.75 536.207 1244.23 535.31 1248.94 534.189C1252.97 533.069 1254.99 532.62 1257.45 532.62C1259.25 532.62 1263.51 533.517 1265.08 533.965C1269.78 535.086 1276.06 536.431 1285.47 536.207L1286.37 530.379C1274.27 528.361 1268.66 523.654 1268.66 504.377L1268.89 446.098ZM396.712 370.783C395.815 394.991 379.452 419.648 366.9 437.58C355.02 454.84 341.347 472.548 341.347 492.273C341.347 526.792 367.348 538 385.953 538C409.264 538 422.265 524.103 427.645 505.722L422.041 503.032C415.317 515.585 406.351 521.861 394.022 521.861C382.59 521.861 367.348 512.895 367.348 488.687C367.348 473.444 377.211 454.391 386.401 436.908C397.833 415.389 404.557 399.698 408.816 377.283L396.712 370.783ZM345.605 423.234C341.571 420.769 334.622 412.027 334.622 400.819C334.622 382.887 351.657 375.49 367.124 375.49C397.16 375.49 414.42 393.198 439.749 393.198C462.837 393.198 470.234 375.714 470.906 369.662C471.13 367.421 471.13 366.3 470.906 364.955C457.457 371.679 445.801 373.248 431.231 373.248C411.282 373.248 380.349 364.058 358.83 364.058C334.622 364.058 314 375.266 314 394.543C314 409.337 326.104 418.975 341.795 427.045L345.605 423.234ZM452.302 457.305L452.526 504.377C452.526 523.654 446.698 528.137 434.818 530.155L435.714 535.983C445.129 536.207 451.405 535.086 455.888 533.965C459.474 533.069 462.164 532.62 463.733 532.62C465.975 532.62 467.992 533.069 471.803 533.965C477.407 535.31 482.562 536.431 491.976 536.207L493.321 530.379C481.217 528.361 475.389 523.654 475.389 504.377V455.512C475.389 433.097 485.252 423.234 493.77 423.234C505.426 423.234 515.961 436.908 515.961 445.649C515.961 451.253 511.926 455.064 508.34 457.754L513.047 462.909C514.392 461.788 520.22 457.53 522.013 455.96C532.1 447.667 535.014 442.511 535.014 437.356C535.014 434.666 534.341 431.528 531.876 427.045C525.823 416.734 516.185 407.992 503.408 407.992C484.804 407.992 452.077 432.649 452.302 457.305ZM890.967 419.648C890.07 415.165 884.69 407.992 868.551 407.992C843.895 407.992 808.703 431.08 808.703 474.341C808.703 513.343 836.946 538 871.017 538C884.018 538 890.967 534.862 899.26 531.275C903.295 529.482 906.433 528.361 909.347 528.361C911.14 528.361 913.83 528.81 917.192 530.603C922.348 533.069 929.297 536.431 944.763 536.207L945.884 530.603C934.004 528.81 927.952 521.189 927.952 501.912L928.176 388.715C928.176 363.61 910.916 357.782 884.018 358.006L882.897 364.507C898.588 365.179 905.088 373.024 905.088 392.077V489.583C905.088 519.171 891.191 524.551 875.724 524.551C852.861 524.551 833.36 501.687 833.36 468.513C833.36 439.597 849.947 418.303 877.742 417.406C882.673 417.182 886.484 418.079 890.967 419.648Z" fill="#F7F6F2"/>
</svg>
