<svg width="3000" height="1500" viewBox="0 0 3000 1500" fill="none" xmlns="http://www.w3.org/2000/svg">
<rect width="3000" height="1500" fill="#09081A"/>
<path fill-rule="evenodd" clip-rule="evenodd" d="M2252.54 856.769C2251.35 853.816 2252.54 852.044 2254.91 850.863L2314.89 820.148C2316.67 818.967 2318.46 819.558 2319.64 821.92C2331.52 849.091 2359.43 885.121 2409.32 885.121C2451.48 885.121 2477.02 865.629 2477.02 831.371C2477.02 803.019 2458.61 786.481 2427.73 778.212L2371.9 763.445C2309.55 746.907 2267.98 710.876 2267.98 649.448C2267.98 576.206 2327.36 526 2409.32 526C2468.7 526 2517.4 552.58 2541.75 604.558C2542.94 607.511 2542.34 609.283 2539.37 611.055L2481.77 642.36C2479.99 643.541 2478.2 642.951 2477.02 640.588C2465.73 615.78 2444.35 595.698 2408.72 595.698C2368.34 595.698 2346.96 618.734 2346.96 645.313C2346.96 670.121 2365.37 683.115 2393.88 690.794L2449.7 705.56C2513.84 722.69 2556 758.129 2556 826.646C2556 909.338 2496.02 956 2408.72 956C2327.96 956 2275.7 909.338 2252.54 856.769ZM2482.79 644.079L2540.36 612.793L2540.4 612.772C2542.04 611.794 2543.4 610.603 2544 608.925C2544.61 607.223 2544.28 605.485 2543.6 603.811L2543.58 603.76L2543.56 603.709C2518.83 550.917 2469.35 524 2409.32 524C2367.94 524 2332.12 536.676 2306.61 558.746C2281.08 580.834 2265.98 612.248 2265.98 649.448C2265.98 680.661 2276.56 705.531 2295.12 724.673C2313.64 743.77 2339.99 757.051 2371.39 765.378L2371.39 765.379L2427.21 780.143C2427.21 780.144 2427.21 780.145 2427.22 780.145M2427.22 780.145C2442.45 784.226 2454.4 790.294 2462.52 798.654C2470.59 806.965 2475.02 817.675 2475.02 831.371C2475.02 847.952 2468.87 860.783 2457.74 869.52C2446.56 878.308 2430.12 883.121 2409.32 883.121C2360.58 883.121 2333.2 847.948 2321.48 821.119L2321.45 821.07L2321.43 821.022C2320.7 819.577 2319.64 818.356 2318.17 817.825C2316.67 817.282 2315.16 817.607 2313.89 818.415L2254.02 849.072C2254.02 849.073 2254.02 849.075 2254.01 849.077C2252.63 849.767 2251.29 850.772 2250.58 852.31C2249.83 853.911 2249.95 855.69 2250.68 857.515L2250.69 857.546L2250.71 857.576C2274.14 910.772 2327.06 958 2408.72 958C2452.71 958 2490.03 946.244 2516.39 923.857C2542.8 901.435 2558 868.514 2558 826.646C2558 791.937 2547.3 765.436 2528.35 745.456C2509.45 725.525 2482.48 712.246 2450.22 703.628L2450.21 703.627L2394.4 688.863C2394.39 688.862 2394.39 688.861 2394.39 688.86C2380.27 685.056 2368.89 679.992 2361.06 672.987C2353.32 666.052 2348.96 657.141 2348.96 645.313C2348.96 632.583 2354.07 620.734 2364.01 612.044C2373.97 603.345 2388.91 597.698 2408.72 597.698C2443.4 597.698 2464.16 617.156 2475.2 641.416L2475.21 641.451L2475.23 641.486C2475.96 642.931 2477.02 644.153 2478.49 644.684C2480 645.23 2481.52 644.898 2482.79 644.079M445.856 606.33V536.632C445.856 535.387 446.462 534.312 447.188 533.59C447.916 532.866 448.991 532.269 450.232 532.269H746.568C748.902 532.269 750.966 533.257 752.067 535.082C753.171 536.913 753.053 539.169 751.875 541.157L577.077 871.308H762.602C763.843 871.308 764.919 871.905 765.646 872.628C766.372 873.351 766.978 874.425 766.978 875.67V945.368C766.978 946.613 766.372 947.688 765.646 948.41C764.919 949.134 763.843 949.731 762.602 949.731H447.262C444.929 949.731 442.865 948.743 441.764 946.918C440.659 945.085 440.778 942.827 441.96 940.836L619.697 610.692H450.232C448.991 610.692 447.915 610.095 447.188 609.372C446.462 608.649 445.856 607.575 445.856 606.33ZM450.232 608.692C449.044 608.692 447.856 607.511 447.856 606.33V536.632C447.856 535.451 449.044 534.269 450.232 534.269H746.568C750.131 534.269 751.913 537.223 750.131 540.176L573.755 873.308H762.602C763.79 873.308 764.978 874.489 764.978 875.67V945.368C764.978 946.549 763.79 947.731 762.602 947.731H447.262C443.699 947.731 441.918 944.777 443.699 941.824L623.045 608.692H450.232ZM943.335 945.368V536.632C943.335 535.387 943.941 534.312 944.667 533.59C945.394 532.866 946.47 532.269 947.711 532.269H1209.01C1210.25 532.269 1211.33 532.866 1212.05 533.59C1212.78 534.312 1213.38 535.387 1213.38 536.632V605.148C1213.38 606.393 1212.78 607.468 1212.05 608.191C1211.33 608.914 1210.25 609.511 1209.01 609.511H1029.29V701.198H1187.63C1188.87 701.198 1189.95 701.795 1190.67 702.518C1191.4 703.241 1192.01 704.315 1192.01 705.56V771.714C1192.01 772.959 1191.4 774.034 1190.67 774.757C1189.95 775.48 1188.87 776.077 1187.63 776.077H1029.29V872.489H1209.01C1210.25 872.489 1211.33 873.086 1212.05 873.809C1212.78 874.532 1213.38 875.607 1213.38 876.852V945.368C1213.38 946.613 1212.78 947.688 1212.05 948.41C1211.33 949.134 1210.25 949.731 1209.01 949.731H947.711C946.47 949.731 945.394 949.134 944.667 948.41C943.941 947.688 943.335 946.613 943.335 945.368ZM1392.21 945.368V536.632C1392.21 535.387 1392.82 534.312 1393.54 533.59C1394.27 532.866 1395.34 532.269 1396.59 532.269H1474.98C1476.22 532.269 1477.29 532.866 1478.02 533.59C1478.75 534.312 1479.35 535.387 1479.35 536.632V871.308H1643.63C1644.87 871.308 1645.95 871.905 1646.67 872.628C1647.4 873.351 1648.01 874.425 1648.01 875.67V945.368C1648.01 946.613 1647.4 947.688 1646.67 948.41C1645.95 949.134 1644.87 949.731 1643.63 949.731H1396.59C1395.34 949.731 1394.27 949.134 1393.54 948.41C1392.82 947.688 1392.21 946.613 1392.21 945.368ZM1779.61 797.703V536.632C1779.61 535.387 1780.22 534.312 1780.94 533.59C1781.67 532.866 1782.75 532.269 1783.99 532.269H1861.78C1863.02 532.269 1864.1 532.866 1864.83 533.59C1865.55 534.312 1866.16 535.387 1866.16 536.632V795.931C1866.16 821.6 1872.76 842.186 1885.25 856.331C1897.72 870.439 1916.28 878.396 1940.77 878.396C1965.25 878.396 1983.81 870.439 1996.28 856.331C2008.78 842.186 2015.37 821.6 2015.37 795.931V536.632C2015.37 535.387 2015.98 534.312 2016.71 533.59C2017.43 532.866 2018.51 532.269 2019.75 532.269H2097.54C2098.79 532.269 2099.86 532.866 2100.59 533.59C2101.31 534.312 2101.92 535.387 2101.92 536.632V797.703C2101.92 848.889 2086.95 889.032 2059.16 916.375C2031.37 943.713 1991.02 958 1940.77 958C1890.51 958 1850.16 943.713 1822.37 916.375C1794.58 889.032 1779.61 848.889 1779.61 797.703ZM945.335 536.632V945.368C945.335 946.549 946.523 947.731 947.711 947.731H1209.01C1210.2 947.731 1211.38 946.549 1211.38 945.368V876.852C1211.38 875.67 1210.2 874.489 1209.01 874.489H1027.29V774.077H1187.63C1188.82 774.077 1190.01 772.896 1190.01 771.714V705.56C1190.01 704.379 1188.82 703.198 1187.63 703.198H1027.29V607.511H1209.01C1210.2 607.511 1211.38 606.33 1211.38 605.148V536.632C1211.38 535.451 1210.2 534.269 1209.01 534.269H947.711C946.523 534.269 945.335 535.451 945.335 536.632ZM1394.21 945.368V536.632C1394.21 535.451 1395.4 534.269 1396.59 534.269H1474.98C1476.16 534.269 1477.35 535.451 1477.35 536.632V873.308H1643.63C1644.82 873.308 1646.01 874.489 1646.01 875.67V945.368C1646.01 946.549 1644.82 947.731 1643.63 947.731H1396.59C1395.4 947.731 1394.21 946.549 1394.21 945.368ZM1781.61 536.632V797.703C1781.61 899.297 1841 956 1940.77 956C2040.53 956 2099.92 899.297 2099.92 797.703V536.632C2099.92 535.451 2098.73 534.269 2097.54 534.269H2019.75C2018.56 534.269 2017.37 535.451 2017.37 536.632V795.931C2017.37 847.909 1990.65 880.396 1940.77 880.396C1890.88 880.396 1864.16 847.909 1864.16 795.931V536.632C1864.16 535.451 1862.97 534.269 1861.78 534.269H1783.99C1782.8 534.269 1781.61 535.451 1781.61 536.632Z" fill="white" fill-opacity="0.5"/>
<path fill-rule="evenodd" clip-rule="evenodd" d="M2469 526H2328V524H2469V526Z" fill="white" fill-opacity="0.5"/>
<path fill-rule="evenodd" clip-rule="evenodd" d="M2519.92 550.605L2544.42 607.605L2542.58 608.395L2518.08 551.395L2519.92 550.605Z" fill="white" fill-opacity="0.5"/>
<path fill-rule="evenodd" clip-rule="evenodd" d="M2467.93 613.623L2479.93 643.123L2478.07 643.877L2466.07 614.377L2467.93 613.623Z" fill="white" fill-opacity="0.5"/>
<path fill-rule="evenodd" clip-rule="evenodd" d="M2368.5 595H2444V597H2368.5V595Z" fill="white" fill-opacity="0.5"/>
<path fill-rule="evenodd" clip-rule="evenodd" d="M2266 710V575H2268V710H2266Z" fill="white" fill-opacity="0.5"/>
<path fill-rule="evenodd" clip-rule="evenodd" d="M2347 667.5V618H2349V667.5H2347Z" fill="white" fill-opacity="0.5"/>
<path fill-rule="evenodd" clip-rule="evenodd" d="M2513.24 722.466L2364.24 682.966L2364.76 681.033L2513.76 720.533L2513.24 722.466Z" fill="white" fill-opacity="0.5"/>
<path fill-rule="evenodd" clip-rule="evenodd" d="M2457.74 787.466L2308.74 747.966L2309.26 746.033L2458.26 785.533L2457.74 787.466Z" fill="white" fill-opacity="0.5"/>
<path fill-rule="evenodd" clip-rule="evenodd" d="M2556 909.5V758H2558V909.5H2556Z" fill="white" fill-opacity="0.5"/>
<path fill-rule="evenodd" clip-rule="evenodd" d="M2475 865V803H2477V865H2475Z" fill="white" fill-opacity="0.5"/>
<path fill-rule="evenodd" clip-rule="evenodd" d="M2359 883H2450.5V885H2359V883Z" fill="white" fill-opacity="0.5"/>
<path fill-rule="evenodd" clip-rule="evenodd" d="M2327 956.5H2496V958.5H2327V956.5Z" fill="white" fill-opacity="0.5"/>
<path fill-rule="evenodd" clip-rule="evenodd" d="M2330.07 850.872L2317.07 818.372L2318.93 817.629L2331.93 850.129L2330.07 850.872Z" fill="white" fill-opacity="0.5"/>
<path fill-rule="evenodd" clip-rule="evenodd" d="M2274.08 910.898L2249.58 854.398L2251.42 853.603L2275.92 910.103L2274.08 910.898Z" fill="white" fill-opacity="0.5"/>
<path fill-rule="evenodd" clip-rule="evenodd" d="M2100 899.5V797H2102V899.5H2100Z" fill="white" fill-opacity="0.5"/>
<path fill-rule="evenodd" clip-rule="evenodd" d="M2016 848.5V795H2018V848.5H2016Z" fill="white" fill-opacity="0.5"/>
<path fill-rule="evenodd" clip-rule="evenodd" d="M1863.5 848V795H1865.5V848H1863.5Z" fill="white" fill-opacity="0.5"/>
<path fill-rule="evenodd" clip-rule="evenodd" d="M1780 898.5V797.5H1782V898.5H1780Z" fill="white" fill-opacity="0.5"/>
<path fill-rule="evenodd" clip-rule="evenodd" d="M1991 880.5H1891V878.5H1991V880.5Z" fill="white" fill-opacity="0.5"/>
<path fill-rule="evenodd" clip-rule="evenodd" d="M1841 956.5H2041V958.5H1841V956.5Z" fill="white" fill-opacity="0.5"/>
<path d="M2418 525C2418 528.314 2415.31 531 2412 531C2408.69 531 2406 528.314 2406 525C2406 521.686 2408.69 519 2412 519C2415.31 519 2418 521.686 2418 525Z" fill="#09061F"/>
<path fill-rule="evenodd" clip-rule="evenodd" d="M2412 529C2414.21 529 2416 527.209 2416 525C2416 522.791 2414.21 521 2412 521C2409.79 521 2408 522.791 2408 525C2408 527.209 2409.79 529 2412 529ZM2412 531C2415.31 531 2418 528.314 2418 525C2418 521.686 2415.31 519 2412 519C2408.69 519 2406 521.686 2406 525C2406 528.314 2408.69 531 2412 531Z" fill="white" fill-opacity="0.5"/>
<path d="M2418 596C2418 599.314 2415.31 602 2412 602C2408.69 602 2406 599.314 2406 596C2406 592.686 2408.69 590 2412 590C2415.31 590 2418 592.686 2418 596Z" fill="#09061F"/>
<path fill-rule="evenodd" clip-rule="evenodd" d="M2412 600C2414.21 600 2416 598.209 2416 596C2416 593.791 2414.21 592 2412 592C2409.79 592 2408 593.791 2408 596C2408 598.209 2409.79 600 2412 600ZM2412 602C2415.31 602 2418 599.314 2418 596C2418 592.686 2415.31 590 2412 590C2408.69 590 2406 592.686 2406 596C2406 599.314 2408.69 602 2412 602Z" fill="white" fill-opacity="0.5"/>
<path d="M2550 609C2550 612.314 2547.31 615 2544 615C2540.69 615 2538 612.314 2538 609C2538 605.686 2540.69 603 2544 603C2547.31 603 2550 605.686 2550 609Z" fill="#09061F"/>
<path fill-rule="evenodd" clip-rule="evenodd" d="M2544 613C2546.21 613 2548 611.209 2548 609C2548 606.791 2546.21 605 2544 605C2541.79 605 2540 606.791 2540 609C2540 611.209 2541.79 613 2544 613ZM2544 615C2547.31 615 2550 612.314 2550 609C2550 605.686 2547.31 603 2544 603C2540.69 603 2538 605.686 2538 609C2538 612.314 2540.69 615 2544 615Z" fill="white" fill-opacity="0.5"/>
<path d="M2485 645C2485 648.314 2482.31 651 2479 651C2475.69 651 2473 648.314 2473 645C2473 641.686 2475.69 639 2479 639C2482.31 639 2485 641.686 2485 645Z" fill="#09061F"/>
<path fill-rule="evenodd" clip-rule="evenodd" d="M2479 649C2481.21 649 2483 647.209 2483 645C2483 642.791 2481.21 641 2479 641C2476.79 641 2475 642.791 2475 645C2475 647.209 2476.79 649 2479 649ZM2479 651C2482.31 651 2485 648.314 2485 645C2485 641.686 2482.31 639 2479 639C2475.69 639 2473 641.686 2473 645C2473 648.314 2475.69 651 2479 651Z" fill="white" fill-opacity="0.5"/>
<path d="M2475 616C2475 619.314 2472.31 622 2469 622C2465.69 622 2463 619.314 2463 616C2463 612.686 2465.69 610 2469 610C2472.31 610 2475 612.686 2475 616Z" fill="#09061F"/>
<path fill-rule="evenodd" clip-rule="evenodd" d="M2469 620C2471.21 620 2473 618.209 2473 616C2473 613.791 2471.21 612 2469 612C2466.79 612 2465 613.791 2465 616C2465 618.209 2466.79 620 2469 620ZM2469 622C2472.31 622 2475 619.314 2475 616C2475 612.686 2472.31 610 2469 610C2465.69 610 2463 612.686 2463 616C2463 619.314 2465.69 622 2469 622Z" fill="white" fill-opacity="0.5"/>
<path d="M2527 553C2527 556.314 2524.31 559 2521 559C2517.69 559 2515 556.314 2515 553C2515 549.686 2517.69 547 2521 547C2524.31 547 2527 549.686 2527 553Z" fill="#09061F"/>
<path fill-rule="evenodd" clip-rule="evenodd" d="M2521 557C2523.21 557 2525 555.209 2525 553C2525 550.791 2523.21 549 2521 549C2518.79 549 2517 550.791 2517 553C2517 555.209 2518.79 557 2521 557ZM2521 559C2524.31 559 2527 556.314 2527 553C2527 549.686 2524.31 547 2521 547C2517.69 547 2515 549.686 2515 553C2515 556.314 2517.69 559 2521 559Z" fill="white" fill-opacity="0.5"/>
<path d="M2479 525C2479 528.314 2476.31 531 2473 531C2469.69 531 2467 528.314 2467 525C2467 521.686 2469.69 519 2473 519C2476.31 519 2479 521.686 2479 525Z" fill="#09061F"/>
<path fill-rule="evenodd" clip-rule="evenodd" d="M2473 529C2475.21 529 2477 527.209 2477 525C2477 522.791 2475.21 521 2473 521C2470.79 521 2469 522.791 2469 525C2469 527.209 2470.79 529 2473 529ZM2473 531C2476.31 531 2479 528.314 2479 525C2479 521.686 2476.31 519 2473 519C2469.69 519 2467 521.686 2467 525C2467 528.314 2469.69 531 2473 531Z" fill="white" fill-opacity="0.5"/>
<path d="M2337 525C2337 528.314 2334.31 531 2331 531C2327.69 531 2325 528.314 2325 525C2325 521.686 2327.69 519 2331 519C2334.31 519 2337 521.686 2337 525Z" fill="#09061F"/>
<path fill-rule="evenodd" clip-rule="evenodd" d="M2331 529C2333.21 529 2335 527.209 2335 525C2335 522.791 2333.21 521 2331 521C2328.79 521 2327 522.791 2327 525C2327 527.209 2328.79 529 2331 529ZM2331 531C2334.31 531 2337 528.314 2337 525C2337 521.686 2334.31 519 2331 519C2327.69 519 2325 521.686 2325 525C2325 528.314 2327.69 531 2331 531Z" fill="white" fill-opacity="0.5"/>
<path d="M2452 596C2452 599.314 2449.31 602 2446 602C2442.69 602 2440 599.314 2440 596C2440 592.686 2442.69 590 2446 590C2449.31 590 2452 592.686 2452 596Z" fill="#09061F"/>
<path fill-rule="evenodd" clip-rule="evenodd" d="M2446 600C2448.21 600 2450 598.209 2450 596C2450 593.791 2448.21 592 2446 592C2443.79 592 2442 593.791 2442 596C2442 598.209 2443.79 600 2446 600ZM2446 602C2449.31 602 2452 599.314 2452 596C2452 592.686 2449.31 590 2446 590C2442.69 590 2440 592.686 2440 596C2440 599.314 2442.69 602 2446 602Z" fill="white" fill-opacity="0.5"/>
<path d="M2354 646C2354 649.314 2351.31 652 2348 652C2344.69 652 2342 649.314 2342 646C2342 642.686 2344.69 640 2348 640C2351.31 640 2354 642.686 2354 646Z" fill="#09061F"/>
<path fill-rule="evenodd" clip-rule="evenodd" d="M2348 650C2350.21 650 2352 648.209 2352 646C2352 643.791 2350.21 642 2348 642C2345.79 642 2344 643.791 2344 646C2344 648.209 2345.79 650 2348 650ZM2348 652C2351.31 652 2354 649.314 2354 646C2354 642.686 2351.31 640 2348 640C2344.69 640 2342 642.686 2342 646C2342 649.314 2344.69 652 2348 652Z" fill="white" fill-opacity="0.5"/>
<path d="M2354 669C2354 672.314 2351.31 675 2348 675C2344.69 675 2342 672.314 2342 669C2342 665.686 2344.69 663 2348 663C2351.31 663 2354 665.686 2354 669Z" fill="#09061F"/>
<path fill-rule="evenodd" clip-rule="evenodd" d="M2348 673C2350.21 673 2352 671.209 2352 669C2352 666.791 2350.21 665 2348 665C2345.79 665 2344 666.791 2344 669C2344 671.209 2345.79 673 2348 673ZM2348 675C2351.31 675 2354 672.314 2354 669C2354 665.686 2351.31 663 2348 663C2344.69 663 2342 665.686 2342 669C2342 672.314 2344.69 675 2348 675Z" fill="white" fill-opacity="0.5"/>
<path d="M2273 650C2273 653.314 2270.31 656 2267 656C2263.69 656 2261 653.314 2261 650C2261 646.686 2263.69 644 2267 644C2270.31 644 2273 646.686 2273 650Z" fill="#09061F"/>
<path fill-rule="evenodd" clip-rule="evenodd" d="M2267 654C2269.21 654 2271 652.209 2271 650C2271 647.791 2269.21 646 2267 646C2264.79 646 2263 647.791 2263 650C2263 652.209 2264.79 654 2267 654ZM2267 656C2270.31 656 2273 653.314 2273 650C2273 646.686 2270.31 644 2267 644C2263.69 644 2261 646.686 2261 650C2261 653.314 2263.69 656 2267 656Z" fill="white" fill-opacity="0.5"/>
<path d="M2273 577C2273 580.314 2270.31 583 2267 583C2263.69 583 2261 580.314 2261 577C2261 573.686 2263.69 571 2267 571C2270.31 571 2273 573.686 2273 577Z" fill="#09061F"/>
<path fill-rule="evenodd" clip-rule="evenodd" d="M2267 581C2269.21 581 2271 579.209 2271 577C2271 574.791 2269.21 573 2267 573C2264.79 573 2263 574.791 2263 577C2263 579.209 2264.79 581 2267 581ZM2267 583C2270.31 583 2273 580.314 2273 577C2273 573.686 2270.31 571 2267 571C2263.69 571 2261 573.686 2261 577C2261 580.314 2263.69 583 2267 583Z" fill="white" fill-opacity="0.5"/>
<path d="M2273 712C2273 715.314 2270.31 718 2267 718C2263.69 718 2261 715.314 2261 712C2261 708.686 2263.69 706 2267 706C2270.31 706 2273 708.686 2273 712Z" fill="#09061F"/>
<path fill-rule="evenodd" clip-rule="evenodd" d="M2267 716C2269.21 716 2271 714.209 2271 712C2271 709.791 2269.21 708 2267 708C2264.79 708 2263 709.791 2263 712C2263 714.209 2264.79 716 2267 716ZM2267 718C2270.31 718 2273 715.314 2273 712C2273 708.686 2270.31 706 2267 706C2263.69 706 2261 708.686 2261 712C2261 715.314 2263.69 718 2267 718Z" fill="white" fill-opacity="0.5"/>
<path d="M2402 691C2402 694.314 2399.31 697 2396 697C2392.69 697 2390 694.314 2390 691C2390 687.686 2392.69 685 2396 685C2399.31 685 2402 687.686 2402 691Z" fill="#09061F"/>
<path fill-rule="evenodd" clip-rule="evenodd" d="M2396 695C2398.21 695 2400 693.209 2400 691C2400 688.791 2398.21 687 2396 687C2393.79 687 2392 688.791 2392 691C2392 693.209 2393.79 695 2396 695ZM2396 697C2399.31 697 2402 694.314 2402 691C2402 687.686 2399.31 685 2396 685C2392.69 685 2390 687.686 2390 691C2390 694.314 2392.69 697 2396 697Z" fill="white" fill-opacity="0.5"/>
<path d="M2458 706C2458 709.314 2455.31 712 2452 712C2448.69 712 2446 709.314 2446 706C2446 702.686 2448.69 700 2452 700C2455.31 700 2458 702.686 2458 706Z" fill="#09061F"/>
<path fill-rule="evenodd" clip-rule="evenodd" d="M2452 710C2454.21 710 2456 708.209 2456 706C2456 703.791 2454.21 702 2452 702C2449.79 702 2448 703.791 2448 706C2448 708.209 2449.79 710 2452 710ZM2452 712C2455.31 712 2458 709.314 2458 706C2458 702.686 2455.31 700 2452 700C2448.69 700 2446 702.686 2446 706C2446 709.314 2448.69 712 2452 712Z" fill="white" fill-opacity="0.5"/>
<path d="M2467 787C2467 790.314 2464.31 793 2461 793C2457.69 793 2455 790.314 2455 787C2455 783.686 2457.69 781 2461 781C2464.31 781 2467 783.686 2467 787Z" fill="#09061F"/>
<path fill-rule="evenodd" clip-rule="evenodd" d="M2461 791C2463.21 791 2465 789.209 2465 787C2465 784.791 2463.21 783 2461 783C2458.79 783 2457 784.791 2457 787C2457 789.209 2458.79 791 2461 791ZM2461 793C2464.31 793 2467 790.314 2467 787C2467 783.686 2464.31 781 2461 781C2457.69 781 2455 783.686 2455 787C2455 790.314 2457.69 793 2461 793Z" fill="white" fill-opacity="0.5"/>
<path d="M2521 722C2521 725.314 2518.31 728 2515 728C2511.69 728 2509 725.314 2509 722C2509 718.686 2511.69 716 2515 716C2518.31 716 2521 718.686 2521 722Z" fill="#09061F"/>
<path fill-rule="evenodd" clip-rule="evenodd" d="M2515 726C2517.21 726 2519 724.209 2519 722C2519 719.791 2517.21 718 2515 718C2512.79 718 2511 719.791 2511 722C2511 724.209 2512.79 726 2515 726ZM2515 728C2518.31 728 2521 725.314 2521 722C2521 718.686 2518.31 716 2515 716C2511.69 716 2509 718.686 2509 722C2509 725.314 2511.69 728 2515 728Z" fill="white" fill-opacity="0.5"/>
<path d="M2373 683C2373 686.314 2370.31 689 2367 689C2363.69 689 2361 686.314 2361 683C2361 679.686 2363.69 677 2367 677C2370.31 677 2373 679.686 2373 683Z" fill="#09061F"/>
<path fill-rule="evenodd" clip-rule="evenodd" d="M2367 687C2369.21 687 2371 685.209 2371 683C2371 680.791 2369.21 679 2367 679C2364.79 679 2363 680.791 2363 683C2363 685.209 2364.79 687 2367 687ZM2367 689C2370.31 689 2373 686.314 2373 683C2373 679.686 2370.31 677 2367 677C2363.69 677 2361 679.686 2361 683C2361 686.314 2363.69 689 2367 689Z" fill="white" fill-opacity="0.5"/>
<path d="M2317 748C2317 751.314 2314.31 754 2311 754C2307.69 754 2305 751.314 2305 748C2305 744.686 2307.69 742 2311 742C2314.31 742 2317 744.686 2317 748Z" fill="#09061F"/>
<path fill-rule="evenodd" clip-rule="evenodd" d="M2311 752C2313.21 752 2315 750.209 2315 748C2315 745.791 2313.21 744 2311 744C2308.79 744 2307 745.791 2307 748C2307 750.209 2308.79 752 2311 752ZM2311 754C2314.31 754 2317 751.314 2317 748C2317 744.686 2314.31 742 2311 742C2307.69 742 2305 744.686 2305 748C2305 751.314 2307.69 754 2311 754Z" fill="white" fill-opacity="0.5"/>
<path d="M2378 765C2378 768.314 2375.31 771 2372 771C2368.69 771 2366 768.314 2366 765C2366 761.686 2368.69 759 2372 759C2375.31 759 2378 761.686 2378 765Z" fill="#09061F"/>
<path fill-rule="evenodd" clip-rule="evenodd" d="M2372 769C2374.21 769 2376 767.209 2376 765C2376 762.791 2374.21 761 2372 761C2369.79 761 2368 762.791 2368 765C2368 767.209 2369.79 769 2372 769ZM2372 771C2375.31 771 2378 768.314 2378 765C2378 761.686 2375.31 759 2372 759C2368.69 759 2366 761.686 2366 765C2366 768.314 2368.69 771 2372 771Z" fill="white" fill-opacity="0.5"/>
<path d="M2435 779C2435 782.314 2432.31 785 2429 785C2425.69 785 2423 782.314 2423 779C2423 775.686 2425.69 773 2429 773C2432.31 773 2435 775.686 2435 779Z" fill="#09061F"/>
<path fill-rule="evenodd" clip-rule="evenodd" d="M2429 783C2431.21 783 2433 781.209 2433 779C2433 776.791 2431.21 775 2429 775C2426.79 775 2425 776.791 2425 779C2425 781.209 2426.79 783 2429 783ZM2429 785C2432.31 785 2435 782.314 2435 779C2435 775.686 2432.31 773 2429 773C2425.69 773 2423 775.686 2423 779C2423 782.314 2425.69 785 2429 785Z" fill="white" fill-opacity="0.5"/>
<path d="M2482 833C2482 836.314 2479.31 839 2476 839C2472.69 839 2470 836.314 2470 833C2470 829.686 2472.69 827 2476 827C2479.31 827 2482 829.686 2482 833Z" fill="#09061F"/>
<path fill-rule="evenodd" clip-rule="evenodd" d="M2476 837C2478.21 837 2480 835.209 2480 833C2480 830.791 2478.21 829 2476 829C2473.79 829 2472 830.791 2472 833C2472 835.209 2473.79 837 2476 837ZM2476 839C2479.31 839 2482 836.314 2482 833C2482 829.686 2479.31 827 2476 827C2472.69 827 2470 829.686 2470 833C2470 836.314 2472.69 839 2476 839Z" fill="white" fill-opacity="0.5"/>
<path d="M2482 805C2482 808.314 2479.31 811 2476 811C2472.69 811 2470 808.314 2470 805C2470 801.686 2472.69 799 2476 799C2479.31 799 2482 801.686 2482 805Z" fill="#09061F"/>
<path fill-rule="evenodd" clip-rule="evenodd" d="M2476 809C2478.21 809 2480 807.209 2480 805C2480 802.791 2478.21 801 2476 801C2473.79 801 2472 802.791 2472 805C2472 807.209 2473.79 809 2476 809ZM2476 811C2479.31 811 2482 808.314 2482 805C2482 801.686 2479.31 799 2476 799C2472.69 799 2470 801.686 2470 805C2470 808.314 2472.69 811 2476 811Z" fill="white" fill-opacity="0.5"/>
<path d="M2482 866C2482 869.314 2479.31 872 2476 872C2472.69 872 2470 869.314 2470 866C2470 862.686 2472.69 860 2476 860C2479.31 860 2482 862.686 2482 866Z" fill="#09061F"/>
<path fill-rule="evenodd" clip-rule="evenodd" d="M2476 870C2478.21 870 2480 868.209 2480 866C2480 863.791 2478.21 862 2476 862C2473.79 862 2472 863.791 2472 866C2472 868.209 2473.79 870 2476 870ZM2476 872C2479.31 872 2482 869.314 2482 866C2482 862.686 2479.31 860 2476 860C2472.69 860 2470 862.686 2470 866C2470 869.314 2472.69 872 2476 872Z" fill="white" fill-opacity="0.5"/>
<path d="M2563 829C2563 832.314 2560.31 835 2557 835C2553.69 835 2551 832.314 2551 829C2551 825.686 2553.69 823 2557 823C2560.31 823 2563 825.686 2563 829Z" fill="#09061F"/>
<path fill-rule="evenodd" clip-rule="evenodd" d="M2557 833C2559.21 833 2561 831.209 2561 829C2561 826.791 2559.21 825 2557 825C2554.79 825 2553 826.791 2553 829C2553 831.209 2554.79 833 2557 833ZM2557 835C2560.31 835 2563 832.314 2563 829C2563 825.686 2560.31 823 2557 823C2553.69 823 2551 825.686 2551 829C2551 832.314 2553.69 835 2557 835Z" fill="white" fill-opacity="0.5"/>
<path d="M2563 760C2563 763.314 2560.31 766 2557 766C2553.69 766 2551 763.314 2551 760C2551 756.686 2553.69 754 2557 754C2560.31 754 2563 756.686 2563 760Z" fill="#09061F"/>
<path fill-rule="evenodd" clip-rule="evenodd" d="M2557 764C2559.21 764 2561 762.209 2561 760C2561 757.791 2559.21 756 2557 756C2554.79 756 2553 757.791 2553 760C2553 762.209 2554.79 764 2557 764ZM2557 766C2560.31 766 2563 763.314 2563 760C2563 756.686 2560.31 754 2557 754C2553.69 754 2551 756.686 2551 760C2551 763.314 2553.69 766 2557 766Z" fill="white" fill-opacity="0.5"/>
<path d="M2563 912C2563 915.314 2560.31 918 2557 918C2553.69 918 2551 915.314 2551 912C2551 908.686 2553.69 906 2557 906C2560.31 906 2563 908.686 2563 912Z" fill="#09061F"/>
<path fill-rule="evenodd" clip-rule="evenodd" d="M2557 916C2559.21 916 2561 914.209 2561 912C2561 909.791 2559.21 908 2557 908C2554.79 908 2553 909.791 2553 912C2553 914.209 2554.79 916 2557 916ZM2557 918C2560.31 918 2563 915.314 2563 912C2563 908.686 2560.31 906 2557 906C2553.69 906 2551 908.686 2551 912C2551 915.314 2553.69 918 2557 918Z" fill="white" fill-opacity="0.5"/>
<path d="M2417 884C2417 887.314 2414.31 890 2411 890C2407.69 890 2405 887.314 2405 884C2405 880.686 2407.69 878 2411 878C2414.31 878 2417 880.686 2417 884Z" fill="#09061F"/>
<path fill-rule="evenodd" clip-rule="evenodd" d="M2411 888C2413.21 888 2415 886.209 2415 884C2415 881.791 2413.21 880 2411 880C2408.79 880 2407 881.791 2407 884C2407 886.209 2408.79 888 2411 888ZM2411 890C2414.31 890 2417 887.314 2417 884C2417 880.686 2414.31 878 2411 878C2407.69 878 2405 880.686 2405 884C2405 887.314 2407.69 890 2411 890Z" fill="white" fill-opacity="0.5"/>
<path d="M2459 884C2459 887.314 2456.31 890 2453 890C2449.69 890 2447 887.314 2447 884C2447 880.686 2449.69 878 2453 878C2456.31 878 2459 880.686 2459 884Z" fill="#09061F"/>
<path fill-rule="evenodd" clip-rule="evenodd" d="M2453 888C2455.21 888 2457 886.209 2457 884C2457 881.791 2455.21 880 2453 880C2450.79 880 2449 881.791 2449 884C2449 886.209 2450.79 888 2453 888ZM2453 890C2456.31 890 2459 887.314 2459 884C2459 880.686 2456.31 878 2453 878C2449.69 878 2447 880.686 2447 884C2447 887.314 2449.69 890 2453 890Z" fill="white" fill-opacity="0.5"/>
<path d="M2367 884C2367 887.314 2364.31 890 2361 890C2357.69 890 2355 887.314 2355 884C2355 880.686 2357.69 878 2361 878C2364.31 878 2367 880.686 2367 884Z" fill="#09061F"/>
<path fill-rule="evenodd" clip-rule="evenodd" d="M2361 888C2363.21 888 2365 886.209 2365 884C2365 881.791 2363.21 880 2361 880C2358.79 880 2357 881.791 2357 884C2357 886.209 2358.79 888 2361 888ZM2361 890C2364.31 890 2367 887.314 2367 884C2367 880.686 2364.31 878 2361 878C2357.69 878 2355 880.686 2355 884C2355 887.314 2357.69 890 2361 890Z" fill="white" fill-opacity="0.5"/>
<path d="M2417 958C2417 961.314 2414.31 964 2411 964C2407.69 964 2405 961.314 2405 958C2405 954.686 2407.69 952 2411 952C2414.31 952 2417 954.686 2417 958Z" fill="#09061F"/>
<path fill-rule="evenodd" clip-rule="evenodd" d="M2411 962C2413.21 962 2415 960.209 2415 958C2415 955.791 2413.21 954 2411 954C2408.79 954 2407 955.791 2407 958C2407 960.209 2408.79 962 2411 962ZM2411 964C2414.31 964 2417 961.314 2417 958C2417 954.686 2414.31 952 2411 952C2407.69 952 2405 954.686 2405 958C2405 961.314 2407.69 964 2411 964Z" fill="white" fill-opacity="0.5"/>
<path d="M2504 958C2504 961.314 2501.31 964 2498 964C2494.69 964 2492 961.314 2492 958C2492 954.686 2494.69 952 2498 952C2501.31 952 2504 954.686 2504 958Z" fill="#09061F"/>
<path fill-rule="evenodd" clip-rule="evenodd" d="M2498 962C2500.21 962 2502 960.209 2502 958C2502 955.791 2500.21 954 2498 954C2495.79 954 2494 955.791 2494 958C2494 960.209 2495.79 962 2498 962ZM2498 964C2501.31 964 2504 961.314 2504 958C2504 954.686 2501.31 952 2498 952C2494.69 952 2492 954.686 2492 958C2492 961.314 2494.69 964 2498 964Z" fill="white" fill-opacity="0.5"/>
<path d="M2335 958C2335 961.314 2332.31 964 2329 964C2325.69 964 2323 961.314 2323 958C2323 954.686 2325.69 952 2329 952C2332.31 952 2335 954.686 2335 958Z" fill="#09061F"/>
<path fill-rule="evenodd" clip-rule="evenodd" d="M2329 962C2331.21 962 2333 960.209 2333 958C2333 955.791 2331.21 954 2329 954C2326.79 954 2325 955.791 2325 958C2325 960.209 2326.79 962 2329 962ZM2329 964C2332.31 964 2335 961.314 2335 958C2335 954.686 2332.31 952 2329 952C2325.69 952 2323 954.686 2323 958C2323 961.314 2325.69 964 2329 964Z" fill="white" fill-opacity="0.5"/>
<path d="M2257 854C2257 857.314 2254.31 860 2251 860C2247.69 860 2245 857.314 2245 854C2245 850.686 2247.69 848 2251 848C2254.31 848 2257 850.686 2257 854Z" fill="#09061F"/>
<path fill-rule="evenodd" clip-rule="evenodd" d="M2251 858C2253.21 858 2255 856.209 2255 854C2255 851.791 2253.21 850 2251 850C2248.79 850 2247 851.791 2247 854C2247 856.209 2248.79 858 2251 858ZM2251 860C2254.31 860 2257 857.314 2257 854C2257 850.686 2254.31 848 2251 848C2247.69 848 2245 850.686 2245 854C2245 857.314 2247.69 860 2251 860Z" fill="white" fill-opacity="0.5"/>
<path d="M2325 818C2325 821.314 2322.31 824 2319 824C2315.69 824 2313 821.314 2313 818C2313 814.686 2315.69 812 2319 812C2322.31 812 2325 814.686 2325 818Z" fill="#09061F"/>
<path fill-rule="evenodd" clip-rule="evenodd" d="M2319 822C2321.21 822 2323 820.209 2323 818C2323 815.791 2321.21 814 2319 814C2316.79 814 2315 815.791 2315 818C2315 820.209 2316.79 822 2319 822ZM2319 824C2322.31 824 2325 821.314 2325 818C2325 814.686 2322.31 812 2319 812C2315.69 812 2313 814.686 2313 818C2313 821.314 2315.69 824 2319 824Z" fill="white" fill-opacity="0.5"/>
<path d="M2338 853C2338 856.314 2335.31 859 2332 859C2328.69 859 2326 856.314 2326 853C2326 849.686 2328.69 847 2332 847C2335.31 847 2338 849.686 2338 853Z" fill="#09061F"/>
<path fill-rule="evenodd" clip-rule="evenodd" d="M2332 857C2334.21 857 2336 855.209 2336 853C2336 850.791 2334.21 849 2332 849C2329.79 849 2328 850.791 2328 853C2328 855.209 2329.79 857 2332 857ZM2332 859C2335.31 859 2338 856.314 2338 853C2338 849.686 2335.31 847 2332 847C2328.69 847 2326 849.686 2326 853C2326 856.314 2328.69 859 2332 859Z" fill="white" fill-opacity="0.5"/>
<path d="M2281 912C2281 915.314 2278.31 918 2275 918C2271.69 918 2269 915.314 2269 912C2269 908.686 2271.69 906 2275 906C2278.31 906 2281 908.686 2281 912Z" fill="#09061F"/>
<path fill-rule="evenodd" clip-rule="evenodd" d="M2275 916C2277.21 916 2279 914.209 2279 912C2279 909.791 2277.21 908 2275 908C2272.79 908 2271 909.791 2271 912C2271 914.209 2272.79 916 2275 916ZM2275 918C2278.31 918 2281 915.314 2281 912C2281 908.686 2278.31 906 2275 906C2271.69 906 2269 908.686 2269 912C2269 915.314 2271.69 918 2275 918Z" fill="white" fill-opacity="0.5"/>
<path d="M2107 799C2107 802.314 2104.31 805 2101 805C2097.69 805 2095 802.314 2095 799C2095 795.686 2097.69 793 2101 793C2104.31 793 2107 795.686 2107 799Z" fill="#09061F"/>
<path fill-rule="evenodd" clip-rule="evenodd" d="M2101 803C2103.21 803 2105 801.209 2105 799C2105 796.791 2103.21 795 2101 795C2098.79 795 2097 796.791 2097 799C2097 801.209 2098.79 803 2101 803ZM2101 805C2104.31 805 2107 802.314 2107 799C2107 795.686 2104.31 793 2101 793C2097.69 793 2095 795.686 2095 799C2095 802.314 2097.69 805 2101 805Z" fill="white" fill-opacity="0.5"/>
<path d="M2107 901C2107 904.314 2104.31 907 2101 907C2097.69 907 2095 904.314 2095 901C2095 897.686 2097.69 895 2101 895C2104.31 895 2107 897.686 2107 901Z" fill="#09061F"/>
<path fill-rule="evenodd" clip-rule="evenodd" d="M2101 905C2103.21 905 2105 903.209 2105 901C2105 898.791 2103.21 897 2101 897C2098.79 897 2097 898.791 2097 901C2097 903.209 2098.79 905 2101 905ZM2101 907C2104.31 907 2107 904.314 2107 901C2107 897.686 2104.31 895 2101 895C2097.69 895 2095 897.686 2095 901C2095 904.314 2097.69 907 2101 907Z" fill="white" fill-opacity="0.5"/>
<path d="M1787 799C1787 802.314 1784.31 805 1781 805C1777.69 805 1775 802.314 1775 799C1775 795.686 1777.69 793 1781 793C1784.31 793 1787 795.686 1787 799Z" fill="#09061F"/>
<path fill-rule="evenodd" clip-rule="evenodd" d="M1781 803C1783.21 803 1785 801.209 1785 799C1785 796.791 1783.21 795 1781 795C1778.79 795 1777 796.791 1777 799C1777 801.209 1778.79 803 1781 803ZM1781 805C1784.31 805 1787 802.314 1787 799C1787 795.686 1784.31 793 1781 793C1777.69 793 1775 795.686 1775 799C1775 802.314 1777.69 805 1781 805Z" fill="white" fill-opacity="0.5"/>
<path d="M1787 901C1787 904.314 1784.31 907 1781 907C1777.69 907 1775 904.314 1775 901C1775 897.686 1777.69 895 1781 895C1784.31 895 1787 897.686 1787 901Z" fill="#09061F"/>
<path fill-rule="evenodd" clip-rule="evenodd" d="M1781 905C1783.21 905 1785 903.209 1785 901C1785 898.791 1783.21 897 1781 897C1778.79 897 1777 898.791 1777 901C1777 903.209 1778.79 905 1781 905ZM1781 907C1784.31 907 1787 904.314 1787 901C1787 897.686 1784.31 895 1781 895C1777.69 895 1775 897.686 1775 901C1775 904.314 1777.69 907 1781 907Z" fill="white" fill-opacity="0.5"/>
<path d="M1947 880C1947 883.314 1944.31 886 1941 886C1937.69 886 1935 883.314 1935 880C1935 876.686 1937.69 874 1941 874C1944.31 874 1947 876.686 1947 880Z" fill="#09061F"/>
<path fill-rule="evenodd" clip-rule="evenodd" d="M1941 884C1943.21 884 1945 882.209 1945 880C1945 877.791 1943.21 876 1941 876C1938.79 876 1937 877.791 1937 880C1937 882.209 1938.79 884 1941 884ZM1941 886C1944.31 886 1947 883.314 1947 880C1947 876.686 1944.31 874 1941 874C1937.69 874 1935 876.686 1935 880C1935 883.314 1937.69 886 1941 886Z" fill="white" fill-opacity="0.5"/>
<path d="M1947 958C1947 961.314 1944.31 964 1941 964C1937.69 964 1935 961.314 1935 958C1935 954.686 1937.69 952 1941 952C1944.31 952 1947 954.686 1947 958Z" fill="#09061F"/>
<path fill-rule="evenodd" clip-rule="evenodd" d="M1941 962C1943.21 962 1945 960.209 1945 958C1945 955.791 1943.21 954 1941 954C1938.79 954 1937 955.791 1937 958C1937 960.209 1938.79 962 1941 962ZM1941 964C1944.31 964 1947 961.314 1947 958C1947 954.686 1944.31 952 1941 952C1937.69 952 1935 954.686 1935 958C1935 961.314 1937.69 964 1941 964Z" fill="white" fill-opacity="0.5"/>
<path d="M2047 958C2047 961.314 2044.31 964 2041 964C2037.69 964 2035 961.314 2035 958C2035 954.686 2037.69 952 2041 952C2044.31 952 2047 954.686 2047 958Z" fill="#09061F"/>
<path fill-rule="evenodd" clip-rule="evenodd" d="M2041 962C2043.21 962 2045 960.209 2045 958C2045 955.791 2043.21 954 2041 954C2038.79 954 2037 955.791 2037 958C2037 960.209 2038.79 962 2041 962ZM2041 964C2044.31 964 2047 961.314 2047 958C2047 954.686 2044.31 952 2041 952C2037.69 952 2035 954.686 2035 958C2035 961.314 2037.69 964 2041 964Z" fill="white" fill-opacity="0.5"/>
<path d="M1847 958C1847 961.314 1844.31 964 1841 964C1837.69 964 1835 961.314 1835 958C1835 954.686 1837.69 952 1841 952C1844.31 952 1847 954.686 1847 958Z" fill="#09061F"/>
<path fill-rule="evenodd" clip-rule="evenodd" d="M1841 962C1843.21 962 1845 960.209 1845 958C1845 955.791 1843.21 954 1841 954C1838.79 954 1837 955.791 1837 958C1837 960.209 1838.79 962 1841 962ZM1841 964C1844.31 964 1847 961.314 1847 958C1847 954.686 1844.31 952 1841 952C1837.69 952 1835 954.686 1835 958C1835 961.314 1837.69 964 1841 964Z" fill="white" fill-opacity="0.5"/>
<path d="M1897 880C1897 883.314 1894.31 886 1891 886C1887.69 886 1885 883.314 1885 880C1885 876.686 1887.69 874 1891 874C1894.31 874 1897 876.686 1897 880Z" fill="#09061F"/>
<path fill-rule="evenodd" clip-rule="evenodd" d="M1891 884C1893.21 884 1895 882.209 1895 880C1895 877.791 1893.21 876 1891 876C1888.79 876 1887 877.791 1887 880C1887 882.209 1888.79 884 1891 884ZM1891 886C1894.31 886 1897 883.314 1897 880C1897 876.686 1894.31 874 1891 874C1887.69 874 1885 876.686 1885 880C1885 883.314 1887.69 886 1891 886Z" fill="white" fill-opacity="0.5"/>
<path d="M1997 880C1997 883.314 1994.31 886 1991 886C1987.69 886 1985 883.314 1985 880C1985 876.686 1987.69 874 1991 874C1994.31 874 1997 876.686 1997 880Z" fill="#09061F"/>
<path fill-rule="evenodd" clip-rule="evenodd" d="M1991 884C1993.21 884 1995 882.209 1995 880C1995 877.791 1993.21 876 1991 876C1988.79 876 1987 877.791 1987 880C1987 882.209 1988.79 884 1991 884ZM1991 886C1994.31 886 1997 883.314 1997 880C1997 876.686 1994.31 874 1991 874C1987.69 874 1985 876.686 1985 880C1985 883.314 1987.69 886 1991 886Z" fill="white" fill-opacity="0.5"/>
<path d="M2023 797C2023 800.314 2020.31 803 2017 803C2013.69 803 2011 800.314 2011 797C2011 793.686 2013.69 791 2017 791C2020.31 791 2023 793.686 2023 797Z" fill="#09061F"/>
<path fill-rule="evenodd" clip-rule="evenodd" d="M2017 801C2019.21 801 2021 799.209 2021 797C2021 794.791 2019.21 793 2017 793C2014.79 793 2013 794.791 2013 797C2013 799.209 2014.79 801 2017 801ZM2017 803C2020.31 803 2023 800.314 2023 797C2023 793.686 2020.31 791 2017 791C2013.69 791 2011 793.686 2011 797C2011 800.314 2013.69 803 2017 803Z" fill="white" fill-opacity="0.5"/>
<path d="M2023 536C2023 539.314 2020.31 542 2017 542C2013.69 542 2011 539.314 2011 536C2011 532.686 2013.69 530 2017 530C2020.31 530 2023 532.686 2023 536Z" fill="#09061F"/>
<path fill-rule="evenodd" clip-rule="evenodd" d="M2017 540C2019.21 540 2021 538.209 2021 536C2021 533.791 2019.21 532 2017 532C2014.79 532 2013 533.791 2013 536C2013 538.209 2014.79 540 2017 540ZM2017 542C2020.31 542 2023 539.314 2023 536C2023 532.686 2020.31 530 2017 530C2013.69 530 2011 532.686 2011 536C2011 539.314 2013.69 542 2017 542Z" fill="white" fill-opacity="0.5"/>
<path d="M2107 536C2107 539.314 2104.31 542 2101 542C2097.69 542 2095 539.314 2095 536C2095 532.686 2097.69 530 2101 530C2104.31 530 2107 532.686 2107 536Z" fill="#09061F"/>
<path fill-rule="evenodd" clip-rule="evenodd" d="M2101 540C2103.21 540 2105 538.209 2105 536C2105 533.791 2103.21 532 2101 532C2098.79 532 2097 533.791 2097 536C2097 538.209 2098.79 540 2101 540ZM2101 542C2104.31 542 2107 539.314 2107 536C2107 532.686 2104.31 530 2101 530C2097.69 530 2095 532.686 2095 536C2095 539.314 2097.69 542 2101 542Z" fill="white" fill-opacity="0.5"/>
<path d="M1787 536C1787 539.314 1784.31 542 1781 542C1777.69 542 1775 539.314 1775 536C1775 532.686 1777.69 530 1781 530C1784.31 530 1787 532.686 1787 536Z" fill="#09061F"/>
<path fill-rule="evenodd" clip-rule="evenodd" d="M1781 540C1783.21 540 1785 538.209 1785 536C1785 533.791 1783.21 532 1781 532C1778.79 532 1777 533.791 1777 536C1777 538.209 1778.79 540 1781 540ZM1781 542C1784.31 542 1787 539.314 1787 536C1787 532.686 1784.31 530 1781 530C1777.69 530 1775 532.686 1775 536C1775 539.314 1777.69 542 1781 542Z" fill="white" fill-opacity="0.5"/>
<path d="M1870 536C1870 539.314 1867.31 542 1864 542C1860.69 542 1858 539.314 1858 536C1858 532.686 1860.69 530 1864 530C1867.31 530 1870 532.686 1870 536Z" fill="#09061F"/>
<path fill-rule="evenodd" clip-rule="evenodd" d="M1864 540C1866.21 540 1868 538.209 1868 536C1868 533.791 1866.21 532 1864 532C1861.79 532 1860 533.791 1860 536C1860 538.209 1861.79 540 1864 540ZM1864 542C1867.31 542 1870 539.314 1870 536C1870 532.686 1867.31 530 1864 530C1860.69 530 1858 532.686 1858 536C1858 539.314 1860.69 542 1864 542Z" fill="white" fill-opacity="0.5"/>
<path d="M2023 850C2023 853.314 2020.31 856 2017 856C2013.69 856 2011 853.314 2011 850C2011 846.686 2013.69 844 2017 844C2020.31 844 2023 846.686 2023 850Z" fill="#09061F"/>
<path fill-rule="evenodd" clip-rule="evenodd" d="M2017 854C2019.21 854 2021 852.209 2021 850C2021 847.791 2019.21 846 2017 846C2014.79 846 2013 847.791 2013 850C2013 852.209 2014.79 854 2017 854ZM2017 856C2020.31 856 2023 853.314 2023 850C2023 846.686 2020.31 844 2017 844C2013.69 844 2011 846.686 2011 850C2011 853.314 2013.69 856 2017 856Z" fill="white" fill-opacity="0.5"/>
<path d="M1870 797C1870 800.314 1867.31 803 1864 803C1860.69 803 1858 800.314 1858 797C1858 793.686 1860.69 791 1864 791C1867.31 791 1870 793.686 1870 797Z" fill="#09061F"/>
<path fill-rule="evenodd" clip-rule="evenodd" d="M1864 801C1866.21 801 1868 799.209 1868 797C1868 794.791 1866.21 793 1864 793C1861.79 793 1860 794.791 1860 797C1860 799.209 1861.79 801 1864 801ZM1864 803C1867.31 803 1870 800.314 1870 797C1870 793.686 1867.31 791 1864 791C1860.69 791 1858 793.686 1858 797C1858 800.314 1860.69 803 1864 803Z" fill="white" fill-opacity="0.5"/>
<path d="M1870 850C1870 853.314 1867.31 856 1864 856C1860.69 856 1858 853.314 1858 850C1858 846.686 1860.69 844 1864 844C1867.31 844 1870 846.686 1870 850Z" fill="#09061F"/>
<path fill-rule="evenodd" clip-rule="evenodd" d="M1864 854C1866.21 854 1868 852.209 1868 850C1868 847.791 1866.21 846 1864 846C1861.79 846 1860 847.791 1860 850C1860 852.209 1861.79 854 1864 854ZM1864 856C1867.31 856 1870 853.314 1870 850C1870 846.686 1867.31 844 1864 844C1860.69 844 1858 846.686 1858 850C1858 853.314 1860.69 856 1864 856Z" fill="white" fill-opacity="0.5"/>
<path d="M2354 620C2354 623.314 2351.31 626 2348 626C2344.69 626 2342 623.314 2342 620C2342 616.686 2344.69 614 2348 614C2351.31 614 2354 616.686 2354 620Z" fill="#09061F"/>
<path fill-rule="evenodd" clip-rule="evenodd" d="M2348 624C2350.21 624 2352 622.209 2352 620C2352 617.791 2350.21 616 2348 616C2345.79 616 2344 617.791 2344 620C2344 622.209 2345.79 624 2348 624ZM2348 626C2351.31 626 2354 623.314 2354 620C2354 616.686 2351.31 614 2348 614C2344.69 614 2342 616.686 2342 620C2342 623.314 2344.69 626 2348 626Z" fill="white" fill-opacity="0.5"/>
<path d="M2377 596C2377 599.314 2374.31 602 2371 602C2367.69 602 2365 599.314 2365 596C2365 592.686 2367.69 590 2371 590C2374.31 590 2377 592.686 2377 596Z" fill="#09061F"/>
<path fill-rule="evenodd" clip-rule="evenodd" d="M2371 600C2373.21 600 2375 598.209 2375 596C2375 593.791 2373.21 592 2371 592C2368.79 592 2367 593.791 2367 596C2367 598.209 2368.79 600 2371 600ZM2371 602C2374.31 602 2377 599.314 2377 596C2377 592.686 2374.31 590 2371 590C2367.69 590 2365 592.686 2365 596C2365 599.314 2367.69 602 2371 602Z" fill="white" fill-opacity="0.5"/>
<path d="M1652 947C1652 950.314 1649.31 953 1646 953C1642.69 953 1640 950.314 1640 947C1640 943.686 1642.69 941 1646 941C1649.31 941 1652 943.686 1652 947Z" fill="#09061F"/>
<path fill-rule="evenodd" clip-rule="evenodd" d="M1646 951C1648.21 951 1650 949.209 1650 947C1650 944.791 1648.21 943 1646 943C1643.79 943 1642 944.791 1642 947C1642 949.209 1643.79 951 1646 951ZM1646 953C1649.31 953 1652 950.314 1652 947C1652 943.686 1649.31 941 1646 941C1642.69 941 1640 943.686 1640 947C1640 950.314 1642.69 953 1646 953Z" fill="white" fill-opacity="0.5"/>
<path d="M1400 947C1400 950.314 1397.31 953 1394 953C1390.69 953 1388 950.314 1388 947C1388 943.686 1390.69 941 1394 941C1397.31 941 1400 943.686 1400 947Z" fill="#09061F"/>
<path fill-rule="evenodd" clip-rule="evenodd" d="M1394 951C1396.21 951 1398 949.209 1398 947C1398 944.791 1396.21 943 1394 943C1391.79 943 1390 944.791 1390 947C1390 949.209 1391.79 951 1394 951ZM1394 953C1397.31 953 1400 950.314 1400 947C1400 943.686 1397.31 941 1394 941C1390.69 941 1388 943.686 1388 947C1388 950.314 1390.69 953 1394 953Z" fill="white" fill-opacity="0.5"/>
<path d="M1652 874C1652 877.314 1649.31 880 1646 880C1642.69 880 1640 877.314 1640 874C1640 870.686 1642.69 868 1646 868C1649.31 868 1652 870.686 1652 874Z" fill="#09061F"/>
<path fill-rule="evenodd" clip-rule="evenodd" d="M1646 878C1648.21 878 1650 876.209 1650 874C1650 871.791 1648.21 870 1646 870C1643.79 870 1642 871.791 1642 874C1642 876.209 1643.79 878 1646 878ZM1646 880C1649.31 880 1652 877.314 1652 874C1652 870.686 1649.31 868 1646 868C1642.69 868 1640 870.686 1640 874C1640 877.314 1642.69 880 1646 880Z" fill="white" fill-opacity="0.5"/>
<path d="M1484 874C1484 877.314 1481.31 880 1478 880C1474.69 880 1472 877.314 1472 874C1472 870.686 1474.69 868 1478 868C1481.31 868 1484 870.686 1484 874Z" fill="#09061F"/>
<path fill-rule="evenodd" clip-rule="evenodd" d="M1478 878C1480.21 878 1482 876.209 1482 874C1482 871.791 1480.21 870 1478 870C1475.79 870 1474 871.791 1474 874C1474 876.209 1475.79 878 1478 878ZM1478 880C1481.31 880 1484 877.314 1484 874C1484 870.686 1481.31 868 1478 868C1474.69 868 1472 870.686 1472 874C1472 877.314 1474.69 880 1478 880Z" fill="white" fill-opacity="0.5"/>
<path d="M1484 534C1484 537.314 1481.31 540 1478 540C1474.69 540 1472 537.314 1472 534C1472 530.686 1474.69 528 1478 528C1481.31 528 1484 530.686 1484 534Z" fill="#09061F"/>
<path fill-rule="evenodd" clip-rule="evenodd" d="M1478 538C1480.21 538 1482 536.209 1482 534C1482 531.791 1480.21 530 1478 530C1475.79 530 1474 531.791 1474 534C1474 536.209 1475.79 538 1478 538ZM1478 540C1481.31 540 1484 537.314 1484 534C1484 530.686 1481.31 528 1478 528C1474.69 528 1472 530.686 1472 534C1472 537.314 1474.69 540 1478 540Z" fill="white" fill-opacity="0.5"/>
<path d="M1400 534C1400 537.314 1397.31 540 1394 540C1390.69 540 1388 537.314 1388 534C1388 530.686 1390.69 528 1394 528C1397.31 528 1400 530.686 1400 534Z" fill="#09061F"/>
<path fill-rule="evenodd" clip-rule="evenodd" d="M1394 538C1396.21 538 1398 536.209 1398 534C1398 531.791 1396.21 530 1394 530C1391.79 530 1390 531.791 1390 534C1390 536.209 1391.79 538 1394 538ZM1394 540C1397.31 540 1400 537.314 1400 534C1400 530.686 1397.31 528 1394 528C1390.69 528 1388 530.686 1388 534C1388 537.314 1390.69 540 1394 540Z" fill="white" fill-opacity="0.5"/>
<path d="M952 534C952 537.314 949.314 540 946 540C942.686 540 940 537.314 940 534C940 530.686 942.686 528 946 528C949.314 528 952 530.686 952 534Z" fill="#09061F"/>
<path fill-rule="evenodd" clip-rule="evenodd" d="M946 538C948.209 538 950 536.209 950 534C950 531.791 948.209 530 946 530C943.791 530 942 531.791 942 534C942 536.209 943.791 538 946 538ZM946 540C949.314 540 952 537.314 952 534C952 530.686 949.314 528 946 528C942.686 528 940 530.686 940 534C940 537.314 942.686 540 946 540Z" fill="white" fill-opacity="0.5"/>
<path d="M1034 609C1034 612.314 1031.31 615 1028 615C1024.69 615 1022 612.314 1022 609C1022 605.686 1024.69 603 1028 603C1031.31 603 1034 605.686 1034 609Z" fill="#09061F"/>
<path fill-rule="evenodd" clip-rule="evenodd" d="M1028 613C1030.21 613 1032 611.209 1032 609C1032 606.791 1030.21 605 1028 605C1025.79 605 1024 606.791 1024 609C1024 611.209 1025.79 613 1028 613ZM1028 615C1031.31 615 1034 612.314 1034 609C1034 605.686 1031.31 603 1028 603C1024.69 603 1022 605.686 1022 609C1022 612.314 1024.69 615 1028 615Z" fill="white" fill-opacity="0.5"/>
<path d="M1034 703C1034 706.314 1031.31 709 1028 709C1024.69 709 1022 706.314 1022 703C1022 699.686 1024.69 697 1028 697C1031.31 697 1034 699.686 1034 703Z" fill="#09061F"/>
<path fill-rule="evenodd" clip-rule="evenodd" d="M1028 707C1030.21 707 1032 705.209 1032 703C1032 700.791 1030.21 699 1028 699C1025.79 699 1024 700.791 1024 703C1024 705.209 1025.79 707 1028 707ZM1028 709C1031.31 709 1034 706.314 1034 703C1034 699.686 1031.31 697 1028 697C1024.69 697 1022 699.686 1022 703C1022 706.314 1024.69 709 1028 709Z" fill="white" fill-opacity="0.5"/>
<path d="M1196 703C1196 706.314 1193.31 709 1190 709C1186.69 709 1184 706.314 1184 703C1184 699.686 1186.69 697 1190 697C1193.31 697 1196 699.686 1196 703Z" fill="#09061F"/>
<path fill-rule="evenodd" clip-rule="evenodd" d="M1190 707C1192.21 707 1194 705.209 1194 703C1194 700.791 1192.21 699 1190 699C1187.79 699 1186 700.791 1186 703C1186 705.209 1187.79 707 1190 707ZM1190 709C1193.31 709 1196 706.314 1196 703C1196 699.686 1193.31 697 1190 697C1186.69 697 1184 699.686 1184 703C1184 706.314 1186.69 709 1190 709Z" fill="white" fill-opacity="0.5"/>
<path d="M1196 774C1196 777.314 1193.31 780 1190 780C1186.69 780 1184 777.314 1184 774C1184 770.686 1186.69 768 1190 768C1193.31 768 1196 770.686 1196 774Z" fill="#09061F"/>
<path fill-rule="evenodd" clip-rule="evenodd" d="M1190 778C1192.21 778 1194 776.209 1194 774C1194 771.791 1192.21 770 1190 770C1187.79 770 1186 771.791 1186 774C1186 776.209 1187.79 778 1190 778ZM1190 780C1193.31 780 1196 777.314 1196 774C1196 770.686 1193.31 768 1190 768C1186.69 768 1184 770.686 1184 774C1184 777.314 1186.69 780 1190 780Z" fill="white" fill-opacity="0.5"/>
<path d="M1036 776C1036 779.314 1033.31 782 1030 782C1026.69 782 1024 779.314 1024 776C1024 772.686 1026.69 770 1030 770C1033.31 770 1036 772.686 1036 776Z" fill="#09061F"/>
<path fill-rule="evenodd" clip-rule="evenodd" d="M1030 780C1032.21 780 1034 778.209 1034 776C1034 773.791 1032.21 772 1030 772C1027.79 772 1026 773.791 1026 776C1026 778.209 1027.79 780 1030 780ZM1030 782C1033.31 782 1036 779.314 1036 776C1036 772.686 1033.31 770 1030 770C1026.69 770 1024 772.686 1024 776C1024 779.314 1026.69 782 1030 782Z" fill="white" fill-opacity="0.5"/>
<path d="M1034 874C1034 877.314 1031.31 880 1028 880C1024.69 880 1022 877.314 1022 874C1022 870.686 1024.69 868 1028 868C1031.31 868 1034 870.686 1034 874Z" fill="#09061F"/>
<path fill-rule="evenodd" clip-rule="evenodd" d="M1028 878C1030.21 878 1032 876.209 1032 874C1032 871.791 1030.21 870 1028 870C1025.79 870 1024 871.791 1024 874C1024 876.209 1025.79 878 1028 878ZM1028 880C1031.31 880 1034 877.314 1034 874C1034 870.686 1031.31 868 1028 868C1024.69 868 1022 870.686 1022 874C1022 877.314 1024.69 880 1028 880Z" fill="white" fill-opacity="0.5"/>
<path d="M1217 874C1217 877.314 1214.31 880 1211 880C1207.69 880 1205 877.314 1205 874C1205 870.686 1207.69 868 1211 868C1214.31 868 1217 870.686 1217 874Z" fill="#09061F"/>
<path fill-rule="evenodd" clip-rule="evenodd" d="M1211 878C1213.21 878 1215 876.209 1215 874C1215 871.791 1213.21 870 1211 870C1208.79 870 1207 871.791 1207 874C1207 876.209 1208.79 878 1211 878ZM1211 880C1214.31 880 1217 877.314 1217 874C1217 870.686 1214.31 868 1211 868C1207.69 868 1205 870.686 1205 874C1205 877.314 1207.69 880 1211 880Z" fill="white" fill-opacity="0.5"/>
<path d="M1217 947C1217 950.314 1214.31 953 1211 953C1207.69 953 1205 950.314 1205 947C1205 943.686 1207.69 941 1211 941C1214.31 941 1217 943.686 1217 947Z" fill="#09061F"/>
<path fill-rule="evenodd" clip-rule="evenodd" d="M1211 951C1213.21 951 1215 949.209 1215 947C1215 944.791 1213.21 943 1211 943C1208.79 943 1207 944.791 1207 947C1207 949.209 1208.79 951 1211 951ZM1211 953C1214.31 953 1217 950.314 1217 947C1217 943.686 1214.31 941 1211 941C1207.69 941 1205 943.686 1205 947C1205 950.314 1207.69 953 1211 953Z" fill="white" fill-opacity="0.5"/>
<path d="M952 947C952 950.314 949.314 953 946 953C942.686 953 940 950.314 940 947C940 943.686 942.686 941 946 941C949.314 941 952 943.686 952 947Z" fill="#09061F"/>
<path fill-rule="evenodd" clip-rule="evenodd" d="M946 951C948.209 951 950 949.209 950 947C950 944.791 948.209 943 946 943C943.791 943 942 944.791 942 947C942 949.209 943.791 951 946 951ZM946 953C949.314 953 952 950.314 952 947C952 943.686 949.314 941 946 941C942.686 941 940 943.686 940 947C940 950.314 942.686 953 946 953Z" fill="white" fill-opacity="0.5"/>
<path d="M772 947C772 950.314 769.314 953 766 953C762.686 953 760 950.314 760 947C760 943.686 762.686 941 766 941C769.314 941 772 943.686 772 947Z" fill="#09061F"/>
<path fill-rule="evenodd" clip-rule="evenodd" d="M766 951C768.209 951 770 949.209 770 947C770 944.791 768.209 943 766 943C763.791 943 762 944.791 762 947C762 949.209 763.791 951 766 951ZM766 953C769.314 953 772 950.314 772 947C772 943.686 769.314 941 766 941C762.686 941 760 943.686 760 947C760 950.314 762.686 953 766 953Z" fill="white" fill-opacity="0.5"/>
<path d="M772 874C772 877.314 769.314 880 766 880C762.686 880 760 877.314 760 874C760 870.686 762.686 868 766 868C769.314 868 772 870.686 772 874Z" fill="#09061F"/>
<path fill-rule="evenodd" clip-rule="evenodd" d="M766 878C768.209 878 770 876.209 770 874C770 871.791 768.209 870 766 870C763.791 870 762 871.791 762 874C762 876.209 763.791 878 766 878ZM766 880C769.314 880 772 877.314 772 874C772 870.686 769.314 868 766 868C762.686 868 760 870.686 760 874C760 877.314 762.686 880 766 880Z" fill="white" fill-opacity="0.5"/>
<path d="M580 874C580 877.314 577.314 880 574 880C570.686 880 568 877.314 568 874C568 870.686 570.686 868 574 868C577.314 868 580 870.686 580 874Z" fill="#09061F"/>
<path fill-rule="evenodd" clip-rule="evenodd" d="M574 878C576.209 878 578 876.209 578 874C578 871.791 576.209 870 574 870C571.791 870 570 871.791 570 874C570 876.209 571.791 878 574 878ZM574 880C577.314 880 580 877.314 580 874C580 870.686 577.314 868 574 868C570.686 868 568 870.686 568 874C568 877.314 570.686 880 574 880Z" fill="white" fill-opacity="0.5"/>
<path d="M446 947C446 950.314 443.314 953 440 953C436.686 953 434 950.314 434 947C434 943.686 436.686 941 440 941C443.314 941 446 943.686 446 947Z" fill="#09061F"/>
<path fill-rule="evenodd" clip-rule="evenodd" d="M440 951C442.209 951 444 949.209 444 947C444 944.791 442.209 943 440 943C437.791 943 436 944.791 436 947C436 949.209 437.791 951 440 951ZM440 953C443.314 953 446 950.314 446 947C446 943.686 443.314 941 440 941C436.686 941 434 943.686 434 947C434 950.314 436.686 953 440 953Z" fill="white" fill-opacity="0.5"/>
<path d="M452 534C452 537.314 449.314 540 446 540C442.686 540 440 537.314 440 534C440 530.686 442.686 528 446 528C449.314 528 452 530.686 452 534Z" fill="#09061F"/>
<path fill-rule="evenodd" clip-rule="evenodd" d="M446 538C448.209 538 450 536.209 450 534C450 531.791 448.209 530 446 530C443.791 530 442 531.791 442 534C442 536.209 443.791 538 446 538ZM446 540C449.314 540 452 537.314 452 534C452 530.686 449.314 528 446 528C442.686 528 440 530.686 440 534C440 537.314 442.686 540 446 540Z" fill="white" fill-opacity="0.5"/>
<path d="M452 610C452 613.314 449.314 616 446 616C442.686 616 440 613.314 440 610C440 606.686 442.686 604 446 604C449.314 604 452 606.686 452 610Z" fill="#09061F"/>
<path fill-rule="evenodd" clip-rule="evenodd" d="M446 614C448.209 614 450 612.209 450 610C450 607.791 448.209 606 446 606C443.791 606 442 607.791 442 610C442 612.209 443.791 614 446 614ZM446 616C449.314 616 452 613.314 452 610C452 606.686 449.314 604 446 604C442.686 604 440 606.686 440 610C440 613.314 442.686 616 446 616Z" fill="white" fill-opacity="0.5"/>
<path d="M627 610C627 613.314 624.314 616 621 616C617.686 616 615 613.314 615 610C615 606.686 617.686 604 621 604C624.314 604 627 606.686 627 610Z" fill="#09061F"/>
<path fill-rule="evenodd" clip-rule="evenodd" d="M621 614C623.209 614 625 612.209 625 610C625 607.791 623.209 606 621 606C618.791 606 617 607.791 617 610C617 612.209 618.791 614 621 614ZM621 616C624.314 616 627 613.314 627 610C627 606.686 624.314 604 621 604C617.686 604 615 606.686 615 610C615 613.314 617.686 616 621 616Z" fill="white" fill-opacity="0.5"/>
<path d="M758 534C758 537.314 755.314 540 752 540C748.686 540 746 537.314 746 534C746 530.686 748.686 528 752 528C755.314 528 758 530.686 758 534Z" fill="#09061F"/>
<path fill-rule="evenodd" clip-rule="evenodd" d="M752 538C754.209 538 756 536.209 756 534C756 531.791 754.209 530 752 530C749.791 530 748 531.791 748 534C748 536.209 749.791 538 752 538ZM752 540C755.314 540 758 537.314 758 534C758 530.686 755.314 528 752 528C748.686 528 746 530.686 746 534C746 537.314 748.686 540 752 540Z" fill="white" fill-opacity="0.5"/>
<path d="M1218 534C1218 537.314 1215.31 540 1212 540C1208.69 540 1206 537.314 1206 534C1206 530.686 1208.69 528 1212 528C1215.31 528 1218 530.686 1218 534Z" fill="#09061F"/>
<path fill-rule="evenodd" clip-rule="evenodd" d="M1212 538C1214.21 538 1216 536.209 1216 534C1216 531.791 1214.21 530 1212 530C1209.79 530 1208 531.791 1208 534C1208 536.209 1209.79 538 1212 538ZM1212 540C1215.31 540 1218 537.314 1218 534C1218 530.686 1215.31 528 1212 528C1208.69 528 1206 530.686 1206 534C1206 537.314 1208.69 540 1212 540Z" fill="white" fill-opacity="0.5"/>
<path d="M1218 608C1218 611.314 1215.31 614 1212 614C1208.69 614 1206 611.314 1206 608C1206 604.686 1208.69 602 1212 602C1215.31 602 1218 604.686 1218 608Z" fill="#09061F"/>
<path fill-rule="evenodd" clip-rule="evenodd" d="M1212 612C1214.21 612 1216 610.209 1216 608C1216 605.791 1214.21 604 1212 604C1209.79 604 1208 605.791 1208 608C1208 610.209 1209.79 612 1212 612ZM1212 614C1215.31 614 1218 611.314 1218 608C1218 604.686 1215.31 602 1212 602C1208.69 602 1206 604.686 1206 608C1206 611.314 1208.69 614 1212 614Z" fill="white" fill-opacity="0.5"/>
</svg>
