<svg width="3000" height="1500" viewBox="0 0 3000 1500" fill="none" xmlns="http://www.w3.org/2000/svg">
<rect width="3000" height="1500" fill="#F2F1F0"/>
<path d="M948 1080L814 956.5" stroke="#979699" stroke-width="2"/>
<path d="M484 806L651 861" stroke="#979699" stroke-width="2"/>
<path d="M585 791L702.5 834.5" stroke="#979699" stroke-width="2"/>
<path d="M900 974L805 894" stroke="#979699" stroke-width="2"/>
<path d="M867 880L890 906" stroke="#979699" stroke-width="2"/>
<path d="M900 974V940" stroke="#979699" stroke-width="2"/>
<path d="M880 848L930.5 893.5" stroke="#979699" stroke-width="2"/>
<path d="M2520.16 1078V1053.48C2520.16 917.938 2502.45 894.78 2453.41 849.827L2336.94 743.232L2440.13 878.433C2460.56 904.997 2472.82 939.393 2472.82 974.811C2376.78 897.845 2273.25 837.907 2156.78 791.591L2449.32 588.619L2099.57 418L2358.73 595.771L2327.74 617.226L2102.29 511.313L2287.9 645.152L2253.16 669.331L2105.36 610.415L2217.06 693.851L2057 805.895C2223.19 860.384 2386.32 956.081 2520.16 1078Z" fill="#09061F"/>
<path d="M1736.16 1078V1053.48C1736.16 917.938 1718.45 894.78 1669.41 849.827L1552.94 743.232L1656.13 878.433C1676.56 904.997 1688.82 939.393 1688.82 974.811C1592.78 897.845 1489.25 837.907 1372.78 791.591L1665.32 588.619L1315.57 418L1574.73 595.771L1543.74 617.226L1318.29 511.313L1503.9 645.152L1469.16 669.331L1321.36 610.415L1433.06 693.851L1273 805.895C1439.19 860.384 1602.32 956.081 1736.16 1078Z" fill="#09061F" fill-opacity="0.2"/>
<path d="M948 918.5V1053" stroke="#979699" stroke-width="2"/>
<path d="M946.485 1078.74L948.158 1080.26V1078V1053.48C948.158 985.699 943.736 945.867 933.111 917.334C922.465 888.743 905.619 871.579 881.085 849.09L881.084 849.089L764.613 742.495L763.143 743.839L866.332 879.04L866.335 879.043C886.234 904.912 898.334 938.266 898.806 972.719C803.628 896.7 701.077 837.344 585.883 791.352L876.892 589.441L878.294 588.468L876.761 587.72L527.008 417.101L526.004 418.825L783.972 595.775L754.647 616.076L529.719 510.408L528.709 512.124L713.168 645.137L680.032 668.203L532.729 609.486L531.761 611.216L642.356 693.825L483.427 805.075L481.789 806.222L483.688 806.845C649.742 861.289 812.747 956.912 946.485 1078.74Z" stroke="#979699" stroke-width="2"/>
<circle cx="880" cy="848" r="5" fill="#F7F6F2" stroke="#979699" stroke-width="2"/>
<circle cx="867" cy="880" r="5" fill="#F7F6F2" stroke="#979699" stroke-width="2"/>
<circle cx="900" cy="974" r="5" fill="#F7F6F2" stroke="#979699" stroke-width="2"/>
<circle cx="948" cy="1053" r="5" fill="#F7F6F2" stroke="#979699" stroke-width="2"/>
<circle cx="948" cy="1080" r="5" fill="#F7F6F2" stroke="#979699" stroke-width="2"/>
<circle cx="484" cy="806" r="5" fill="#F7F6F2" stroke="#979699" stroke-width="2"/>
<circle cx="533" cy="611" r="5" fill="#F7F6F2" stroke="#979699" stroke-width="2"/>
<circle cx="765" cy="744" r="5" fill="#F7F6F2" stroke="#979699" stroke-width="2"/>
<circle cx="532" cy="513" r="5" fill="#F7F6F2" stroke="#979699" stroke-width="2"/>
<circle cx="528" cy="419" r="5" fill="#F7F6F2" stroke="#979699" stroke-width="2"/>
<circle cx="585" cy="791" r="5" fill="#F7F6F2" stroke="#979699" stroke-width="2"/>
<rect x="805" y="888.914" width="6" height="6" transform="rotate(45 805 888.914)" fill="#F7F6F2" stroke="#979699" stroke-width="2"/>
<rect x="930.657" y="889.757" width="6" height="6" transform="rotate(45 930.657 889.757)" fill="#F7F6F2" stroke="#979699" stroke-width="2"/>
<rect x="890" y="901.414" width="6" height="6" transform="rotate(45 890 901.414)" fill="#F7F6F2" stroke="#979699" stroke-width="2"/>
<rect x="900" y="937.414" width="6" height="6" transform="rotate(45 900 937.414)" fill="#F7F6F2" stroke="#979699" stroke-width="2"/>
<rect x="948" y="914.414" width="6" height="6" transform="rotate(45 948 914.414)" fill="#F7F6F2" stroke="#979699" stroke-width="2"/>
<rect x="702.657" y="830.414" width="6" height="6" transform="rotate(45 702.657 830.414)" fill="#F7F6F2" stroke="#979699" stroke-width="2"/>
<rect x="651" y="857.414" width="6" height="6" transform="rotate(45 651 857.414)" fill="#F7F6F2" stroke="#979699" stroke-width="2"/>
<rect x="814" y="952.414" width="6" height="6" transform="rotate(45 814 952.414)" fill="#F7F6F2" stroke="#979699" stroke-width="2"/>
</svg>
