<svg width="1600" height="900" viewBox="0 0 1600 900" fill="none" xmlns="http://www.w3.org/2000/svg">
<rect width="1600" height="900" fill="#FFC840"/>
<path d="M666.351 550V542.57C666.351 501.496 660.985 494.479 646.124 480.857L610.83 448.555L642.099 489.525C648.291 497.575 652.006 507.998 652.006 518.731C622.904 495.408 591.532 477.245 556.237 463.209L644.886 401.703L538.9 350L617.435 403.87L608.043 410.372L539.726 378.277L595.969 418.834L585.443 426.161L540.654 408.308L574.504 433.591L526 467.544C576.361 484.056 625.794 513.055 666.351 550Z" fill="#09061F"/>
<path d="M723.477 416.254V428.431C723.477 428.638 723.684 428.844 723.89 428.844H753.921L722.755 487.048C722.445 487.564 722.755 488.081 723.374 488.081H778.173C778.379 488.081 778.586 487.874 778.586 487.668V475.49C778.586 475.284 778.379 475.077 778.173 475.077H745.356L776.006 416.873C776.315 416.357 776.006 415.841 775.387 415.841H723.89C723.684 415.841 723.477 416.047 723.477 416.254Z" fill="#09061F"/>
<path d="M805.8 416.254V487.668C805.8 487.874 806.006 488.081 806.213 488.081H851.62C851.827 488.081 852.033 487.874 852.033 487.668V475.697C852.033 475.49 851.827 475.284 851.62 475.284H820.041V457.74H847.905C848.111 457.74 848.318 457.534 848.318 457.327V445.769C848.318 445.562 848.111 445.356 847.905 445.356H820.041V428.638H851.62C851.827 428.638 852.033 428.431 852.033 428.225V416.254C852.033 416.047 851.827 415.841 851.62 415.841H806.213C806.006 415.841 805.8 416.047 805.8 416.254Z" fill="#09061F"/>
<path d="M879.676 416.254V487.668C879.676 487.874 879.882 488.081 880.089 488.081H923.02C923.226 488.081 923.432 487.874 923.432 487.668V475.49C923.432 475.284 923.226 475.077 923.02 475.077H894.124V416.254C894.124 416.047 893.917 415.841 893.711 415.841H880.089C879.882 415.841 879.676 416.047 879.676 416.254Z" fill="#09061F"/>
<path d="M942.869 416.254V461.868C942.869 479.618 953.189 489.525 970.527 489.525C987.864 489.525 998.184 479.618 998.184 461.868V416.254C998.184 416.047 997.978 415.841 997.771 415.841H984.252C984.046 415.841 983.839 416.047 983.839 416.254V461.558C983.839 470.64 979.195 476.316 970.527 476.316C961.858 476.316 957.214 470.64 957.214 461.558V416.254C957.214 416.047 957.008 415.841 956.801 415.841H943.282C943.076 415.841 942.869 416.047 942.869 416.254Z" fill="#09061F"/>
<path d="M1031.41 465.789L1020.99 471.156C1020.58 471.362 1020.37 471.672 1020.58 472.188C1024.6 481.373 1033.68 489.525 1047.72 489.525C1062.89 489.525 1073.31 481.373 1073.31 466.925C1073.31 454.954 1065.99 448.762 1054.84 445.769L1045.14 443.189C1040.19 441.847 1036.99 439.577 1036.99 435.243C1036.99 430.599 1040.7 426.574 1047.72 426.574C1053.91 426.574 1057.63 430.083 1059.59 434.417C1059.79 434.83 1060.1 434.933 1060.41 434.727L1070.42 429.257C1070.94 428.947 1071.04 428.638 1070.84 428.122C1066.6 419.04 1058.14 414.396 1047.82 414.396C1033.58 414.396 1023.26 423.168 1023.26 435.965C1023.26 446.698 1030.48 452.993 1041.32 455.882L1051.02 458.462C1056.39 459.907 1059.59 462.797 1059.59 467.75C1059.59 473.736 1055.15 477.141 1047.82 477.141C1039.15 477.141 1034.3 470.846 1032.24 466.099C1032.03 465.686 1031.72 465.583 1031.41 465.789Z" fill="#09061F"/>
</svg>
