<svg width="5120" height="2880" viewBox="0 0 5120 2880" fill="none" xmlns="http://www.w3.org/2000/svg">
<rect width="5120" height="2880" fill="#090819"/>
<rect width="3324" height="1910" transform="translate(898 485)" fill="#F2F1F0"/>
<path d="M1047 1115.08L1047 1111.48L1039.17 1111.48L1039.17 1105.93C1039.17 1103.29 1040.25 1102.48 1042.23 1102.48L1047 1102.48L1047 1098.85L1042.17 1098.85C1039.8 1098.85 1038.12 1099.75 1037.76 1102.15L1037.7 1102.15C1037.28 1099.84 1035.54 1098.73 1032.99 1098.73C1029.45 1098.73 1027.26 1101.34 1027.26 1106.41L1027.26 1115.08L1047 1115.08ZM1036.8 1111.48L1030.26 1111.48L1030.26 1106.44C1030.26 1103.56 1031.46 1102.18 1033.44 1102.18C1035.54 1102.18 1036.8 1103.44 1036.8 1106.35L1036.8 1111.48ZM1047.24 1090.02C1047.24 1086.75 1045.92 1084.98 1043.73 1084.5L1043.73 1084.47C1044.93 1084.47 1046.28 1084.56 1047 1084.62L1047 1081.26L1037.97 1081.26C1034.07 1081.26 1031.94 1083.9 1031.94 1088.4C1031.94 1092.63 1033.71 1095.21 1036.68 1095.21C1036.95 1095.21 1037.34 1095.18 1037.55 1095.15L1037.55 1092.06C1037.31 1092.09 1037.07 1092.09 1036.98 1092.09C1035.33 1092.09 1034.46 1090.8 1034.46 1088.52C1034.46 1085.91 1035.45 1084.62 1037.67 1084.62L1038.72 1084.62L1038.72 1090.11C1038.72 1094.07 1040.49 1095.66 1042.74 1095.66C1045.62 1095.66 1047.24 1093.41 1047.24 1090.02ZM1044.72 1089.33C1044.72 1091.37 1043.94 1092.57 1042.59 1092.57C1041.42 1092.57 1040.76 1091.73 1040.76 1089.81L1040.76 1084.62L1041.03 1084.62C1043.31 1084.62 1044.72 1086.42 1044.72 1089.33ZM1047 1077.75L1047 1074.39L1039.77 1074.39C1036.59 1074.39 1034.82 1072.86 1034.82 1070.58C1034.82 1068.57 1036.14 1067.46 1038.24 1067.46L1047 1067.46L1047 1064.1L1039.65 1064.1C1036.56 1064.1 1034.82 1062.6 1034.82 1060.26C1034.82 1058.25 1036.14 1057.2 1038.3 1057.2L1047 1057.2L1047 1053.84L1037.55 1053.84C1034.07 1053.84 1031.94 1055.73 1031.94 1059.03C1031.94 1061.85 1033.44 1063.65 1035.84 1064.19L1035.84 1064.22C1033.44 1064.58 1031.94 1066.44 1031.94 1069.32C1031.94 1072.02 1033.53 1073.82 1036.08 1074.48L1036.08 1074.51L1032.18 1074.39L1032.18 1077.75L1047 1077.75ZM1047.24 1045.1C1047.24 1041.83 1045.92 1040.06 1043.73 1039.58L1043.73 1039.55C1044.93 1039.55 1046.28 1039.64 1047 1039.7L1047 1036.34L1037.97 1036.34C1034.07 1036.34 1031.94 1038.98 1031.94 1043.48C1031.94 1047.71 1033.71 1050.29 1036.68 1050.29C1036.95 1050.29 1037.34 1050.26 1037.55 1050.23L1037.55 1047.14C1037.31 1047.17 1037.07 1047.17 1036.98 1047.17C1035.33 1047.17 1034.46 1045.88 1034.46 1043.6C1034.46 1040.99 1035.45 1039.7 1037.67 1039.7L1038.72 1039.7L1038.72 1045.19C1038.72 1049.15 1040.49 1050.74 1042.74 1050.74C1045.62 1050.74 1047.24 1048.49 1047.24 1045.1ZM1044.72 1044.41C1044.72 1046.45 1043.94 1047.65 1042.59 1047.65C1041.42 1047.65 1040.76 1046.81 1040.76 1044.89L1040.76 1039.7L1041.03 1039.7C1043.31 1039.7 1044.72 1041.5 1044.72 1044.41ZM1047.3 1016.25C1047.3 1012.65 1045.74 1010.43 1043.46 1009.83L1043.46 1009.8C1044.81 1009.83 1046.22 1009.92 1047 1009.98L1047 1006.98L1037.28 1006.98L1037.28 1016.58L1039.56 1016.58L1039.56 1010.46L1040.01 1010.46C1042.68 1010.46 1044.51 1012.8 1044.51 1015.95C1044.51 1019.52 1041.78 1022.43 1037.37 1022.43C1032.81 1022.43 1029.96 1019.61 1029.96 1015.8C1029.96 1012.77 1031.55 1010.37 1034.34 1010.37C1034.61 1010.37 1034.94 1010.37 1035.3 1010.4L1035.3 1007.19C1034.94 1007.16 1034.46 1007.13 1034.13 1007.13C1029.63 1007.13 1026.96 1010.88 1026.96 1015.86C1026.96 1021.68 1031.01 1026.06 1037.34 1026.06C1043.52 1026.06 1047.3 1021.89 1047.3 1016.25ZM1047.24 996.015C1047.24 991.275 1044.33 988.245 1039.62 988.245C1034.88 988.245 1031.94 991.275 1031.94 996.015C1031.94 1000.73 1034.88 1003.76 1039.62 1003.76C1044.33 1003.76 1047.24 1000.73 1047.24 996.015ZM1044.48 996.015C1044.48 998.745 1042.62 1000.4 1039.62 1000.4C1036.59 1000.4 1034.7 998.745 1034.7 996.015C1034.7 993.285 1036.59 991.605 1039.62 991.605C1042.62 991.605 1044.48 993.285 1044.48 996.015ZM1047.18 978.71C1047.18 977.48 1046.97 976.46 1046.82 976.01L1044.15 976.01C1044.27 976.43 1044.42 977.39 1044.42 978.23C1044.42 980.27 1043.46 980.99 1041.54 980.99L1034.91 980.99L1034.91 975.89L1032.18 975.89L1032.18 980.99L1028.82 980.99L1028.82 983.78L1031.04 983.93C1031.88 984.02 1032.18 984.23 1032.18 984.8L1032.18 986.69L1034.91 986.69L1034.91 984.35L1041.72 984.35C1044.99 984.35 1047.18 982.76 1047.18 978.71ZM1047 972.82L1047 969.46L1039.98 969.46C1036.65 969.46 1034.82 967.6 1034.82 964.63C1034.82 961.96 1036.14 960.64 1038.48 960.64L1047 960.64L1047 957.28L1037.73 957.28C1034.07 957.28 1031.94 959.59 1031.94 963.34C1031.94 966.82 1033.47 968.74 1036.17 969.52L1036.17 969.55C1035.36 969.52 1033.65 969.46 1032.93 969.46L1026.21 969.46L1026.21 972.82L1047 972.82ZM1030.44 953.682L1030.44 950.232L1027.14 950.232L1027.14 953.682L1030.44 953.682ZM1047 953.652L1047 950.292L1032.18 950.292L1032.18 953.652L1047 953.652ZM1047.24 939.66C1047.24 935.43 1044.93 932.61 1040.97 932.61L1040.97 935.64C1043.16 935.67 1044.48 937.14 1044.48 939.51C1044.48 942 1042.62 943.56 1039.59 943.56C1036.53 943.56 1034.7 941.97 1034.7 939.39C1034.7 937.14 1036.05 935.7 1038.27 935.67L1038.27 932.64C1034.34 932.64 1031.94 935.34 1031.94 939.48C1031.94 943.95 1034.85 946.92 1039.59 946.92C1044.33 946.92 1047.24 944.01 1047.24 939.66ZM1047 921.871L1047 908.101L1044 908.101L1044 918.271L1038.24 918.271L1038.24 910.411L1035.9 910.411L1035.9 918.271L1030.26 918.271L1030.26 908.371L1027.26 908.371L1027.26 921.871L1047 921.871Z" fill="#09061F"/>
<path d="M1047 1628.08L1047 1624.48L1039.17 1624.48L1039.17 1618.93C1039.17 1616.29 1040.25 1615.48 1042.23 1615.48L1047 1615.48L1047 1611.85L1042.17 1611.85C1039.8 1611.85 1038.12 1612.75 1037.76 1615.15L1037.7 1615.15C1037.28 1612.84 1035.54 1611.73 1032.99 1611.73C1029.45 1611.73 1027.26 1614.34 1027.26 1619.41L1027.26 1628.08L1047 1628.08ZM1036.8 1624.48L1030.26 1624.48L1030.26 1619.44C1030.26 1616.56 1031.46 1615.18 1033.44 1615.18C1035.54 1615.18 1036.8 1616.44 1036.8 1619.35L1036.8 1624.48ZM1047.24 1603.02C1047.24 1599.75 1045.92 1597.98 1043.73 1597.5L1043.73 1597.47C1044.93 1597.47 1046.28 1597.56 1047 1597.62L1047 1594.26L1037.97 1594.26C1034.07 1594.26 1031.94 1596.9 1031.94 1601.4C1031.94 1605.63 1033.71 1608.21 1036.68 1608.21C1036.95 1608.21 1037.34 1608.18 1037.55 1608.15L1037.55 1605.06C1037.31 1605.09 1037.07 1605.09 1036.98 1605.09C1035.33 1605.09 1034.46 1603.8 1034.46 1601.52C1034.46 1598.91 1035.45 1597.62 1037.67 1597.62L1038.72 1597.62L1038.72 1603.11C1038.72 1607.07 1040.49 1608.66 1042.74 1608.66C1045.62 1608.66 1047.24 1606.41 1047.24 1603.02ZM1044.72 1602.33C1044.72 1604.37 1043.94 1605.57 1042.59 1605.57C1041.42 1605.57 1040.76 1604.73 1040.76 1602.81L1040.76 1597.62L1041.03 1597.62C1043.31 1597.62 1044.72 1599.42 1044.72 1602.33ZM1047 1590.75L1047 1587.39L1039.77 1587.39C1036.59 1587.39 1034.82 1585.86 1034.82 1583.58C1034.82 1581.57 1036.14 1580.46 1038.24 1580.46L1047 1580.46L1047 1577.1L1039.65 1577.1C1036.56 1577.1 1034.82 1575.6 1034.82 1573.26C1034.82 1571.25 1036.14 1570.2 1038.3 1570.2L1047 1570.2L1047 1566.84L1037.55 1566.84C1034.07 1566.84 1031.94 1568.73 1031.94 1572.03C1031.94 1574.85 1033.44 1576.65 1035.84 1577.19L1035.84 1577.22C1033.44 1577.58 1031.94 1579.44 1031.94 1582.32C1031.94 1585.02 1033.53 1586.82 1036.08 1587.48L1036.08 1587.51L1032.18 1587.39L1032.18 1590.75L1047 1590.75ZM1047.24 1558.1C1047.24 1554.83 1045.92 1553.06 1043.73 1552.58L1043.73 1552.55C1044.93 1552.55 1046.28 1552.64 1047 1552.7L1047 1549.34L1037.97 1549.34C1034.07 1549.34 1031.94 1551.98 1031.94 1556.48C1031.94 1560.71 1033.71 1563.29 1036.68 1563.29C1036.95 1563.29 1037.34 1563.26 1037.55 1563.23L1037.55 1560.14C1037.31 1560.17 1037.07 1560.17 1036.98 1560.17C1035.33 1560.17 1034.46 1558.88 1034.46 1556.6C1034.46 1553.99 1035.45 1552.7 1037.67 1552.7L1038.72 1552.7L1038.72 1558.19C1038.72 1562.15 1040.49 1563.74 1042.74 1563.74C1045.62 1563.74 1047.24 1561.49 1047.24 1558.1ZM1044.72 1557.41C1044.72 1559.45 1043.94 1560.65 1042.59 1560.65C1041.42 1560.65 1040.76 1559.81 1040.76 1557.89L1040.76 1552.7L1041.03 1552.7C1043.31 1552.7 1044.72 1554.5 1044.72 1557.41ZM1047.3 1529.25C1047.3 1525.65 1045.74 1523.43 1043.46 1522.83L1043.46 1522.8C1044.81 1522.83 1046.22 1522.92 1047 1522.98L1047 1519.98L1037.28 1519.98L1037.28 1529.58L1039.56 1529.58L1039.56 1523.46L1040.01 1523.46C1042.68 1523.46 1044.51 1525.8 1044.51 1528.95C1044.51 1532.52 1041.78 1535.43 1037.37 1535.43C1032.81 1535.43 1029.96 1532.61 1029.96 1528.8C1029.96 1525.77 1031.55 1523.37 1034.34 1523.37C1034.61 1523.37 1034.94 1523.37 1035.3 1523.4L1035.3 1520.19C1034.94 1520.16 1034.46 1520.13 1034.13 1520.13C1029.63 1520.13 1026.96 1523.88 1026.96 1528.86C1026.96 1534.68 1031.01 1539.06 1037.34 1539.06C1043.52 1539.06 1047.3 1534.89 1047.3 1529.25ZM1047.24 1509.02C1047.24 1504.28 1044.33 1501.25 1039.62 1501.25C1034.88 1501.25 1031.94 1504.28 1031.94 1509.02C1031.94 1513.73 1034.88 1516.76 1039.62 1516.76C1044.33 1516.76 1047.24 1513.73 1047.24 1509.02ZM1044.48 1509.02C1044.48 1511.75 1042.62 1513.4 1039.62 1513.4C1036.59 1513.4 1034.7 1511.75 1034.7 1509.02C1034.7 1506.29 1036.59 1504.61 1039.62 1504.61C1042.62 1504.61 1044.48 1506.29 1044.48 1509.02ZM1047.18 1491.71C1047.18 1490.48 1046.97 1489.46 1046.82 1489.01L1044.15 1489.01C1044.27 1489.43 1044.42 1490.39 1044.42 1491.23C1044.42 1493.27 1043.46 1493.99 1041.54 1493.99L1034.91 1493.99L1034.91 1488.89L1032.18 1488.89L1032.18 1493.99L1028.82 1493.99L1028.82 1496.78L1031.04 1496.93C1031.88 1497.02 1032.18 1497.23 1032.18 1497.8L1032.18 1499.69L1034.91 1499.69L1034.91 1497.35L1041.72 1497.35C1044.99 1497.35 1047.18 1495.76 1047.18 1491.71ZM1047 1485.82L1047 1482.46L1039.98 1482.46C1036.65 1482.46 1034.82 1480.6 1034.82 1477.63C1034.82 1474.96 1036.14 1473.64 1038.48 1473.64L1047 1473.64L1047 1470.28L1037.73 1470.28C1034.07 1470.28 1031.94 1472.59 1031.94 1476.34C1031.94 1479.82 1033.47 1481.74 1036.17 1482.52L1036.17 1482.55C1035.36 1482.52 1033.65 1482.46 1032.93 1482.46L1026.21 1482.46L1026.21 1485.82L1047 1485.82ZM1030.44 1466.68L1030.44 1463.23L1027.14 1463.23L1027.14 1466.68L1030.44 1466.68ZM1047 1466.65L1047 1463.29L1032.18 1463.29L1032.18 1466.65L1047 1466.65ZM1047.24 1452.66C1047.24 1448.43 1044.93 1445.61 1040.97 1445.61L1040.97 1448.64C1043.16 1448.67 1044.48 1450.14 1044.48 1452.51C1044.48 1455 1042.62 1456.56 1039.59 1456.56C1036.53 1456.56 1034.7 1454.97 1034.7 1452.39C1034.7 1450.14 1036.05 1448.7 1038.27 1448.67L1038.27 1445.64C1034.34 1445.64 1031.94 1448.34 1031.94 1452.48C1031.94 1456.95 1034.85 1459.92 1039.59 1459.92C1044.33 1459.92 1047.24 1457.01 1047.24 1452.66ZM1047 1434.87L1047 1431.48L1030.08 1431.54L1030.08 1431.48L1047 1425.45L1047 1422.45L1030.08 1416.42L1030.08 1416.36L1047 1416.45L1047 1412.85L1027.26 1412.85L1027.26 1418.46L1042.17 1423.77L1042.17 1423.83L1027.26 1429.11L1027.26 1434.87L1047 1434.87Z" fill="#09061F"/>
<path d="M1047 2217.08L1047 2213.48L1039.17 2213.48L1039.17 2207.93C1039.17 2205.29 1040.25 2204.48 1042.23 2204.48L1047 2204.48L1047 2200.85L1042.17 2200.85C1039.8 2200.85 1038.12 2201.75 1037.76 2204.15L1037.7 2204.15C1037.28 2201.84 1035.54 2200.73 1032.99 2200.73C1029.45 2200.73 1027.26 2203.34 1027.26 2208.41L1027.26 2217.08L1047 2217.08ZM1036.8 2213.48L1030.26 2213.48L1030.26 2208.44C1030.26 2205.56 1031.46 2204.18 1033.44 2204.18C1035.54 2204.18 1036.8 2205.44 1036.8 2208.35L1036.8 2213.48ZM1047.24 2192.02C1047.24 2188.75 1045.92 2186.98 1043.73 2186.5L1043.73 2186.47C1044.93 2186.47 1046.28 2186.56 1047 2186.62L1047 2183.26L1037.97 2183.26C1034.07 2183.26 1031.94 2185.9 1031.94 2190.4C1031.94 2194.63 1033.71 2197.21 1036.68 2197.21C1036.95 2197.21 1037.34 2197.18 1037.55 2197.15L1037.55 2194.06C1037.31 2194.09 1037.07 2194.09 1036.98 2194.09C1035.33 2194.09 1034.46 2192.8 1034.46 2190.52C1034.46 2187.91 1035.45 2186.62 1037.67 2186.62L1038.72 2186.62L1038.72 2192.11C1038.72 2196.07 1040.49 2197.66 1042.74 2197.66C1045.62 2197.66 1047.24 2195.41 1047.24 2192.02ZM1044.72 2191.33C1044.72 2193.37 1043.94 2194.57 1042.59 2194.57C1041.42 2194.57 1040.76 2193.73 1040.76 2191.81L1040.76 2186.62L1041.03 2186.62C1043.31 2186.62 1044.72 2188.42 1044.72 2191.33ZM1047 2179.75L1047 2176.39L1039.77 2176.39C1036.59 2176.39 1034.82 2174.86 1034.82 2172.58C1034.82 2170.57 1036.14 2169.46 1038.24 2169.46L1047 2169.46L1047 2166.1L1039.65 2166.1C1036.56 2166.1 1034.82 2164.6 1034.82 2162.26C1034.82 2160.25 1036.14 2159.2 1038.3 2159.2L1047 2159.2L1047 2155.84L1037.55 2155.84C1034.07 2155.84 1031.94 2157.73 1031.94 2161.03C1031.94 2163.85 1033.44 2165.65 1035.84 2166.19L1035.84 2166.22C1033.44 2166.58 1031.94 2168.44 1031.94 2171.32C1031.94 2174.02 1033.53 2175.82 1036.08 2176.48L1036.08 2176.51L1032.18 2176.39L1032.18 2179.75L1047 2179.75ZM1047.24 2147.1C1047.24 2143.83 1045.92 2142.06 1043.73 2141.58L1043.73 2141.55C1044.93 2141.55 1046.28 2141.64 1047 2141.7L1047 2138.34L1037.97 2138.34C1034.07 2138.34 1031.94 2140.98 1031.94 2145.48C1031.94 2149.71 1033.71 2152.29 1036.68 2152.29C1036.95 2152.29 1037.34 2152.26 1037.55 2152.23L1037.55 2149.14C1037.31 2149.17 1037.07 2149.17 1036.98 2149.17C1035.33 2149.17 1034.46 2147.88 1034.46 2145.6C1034.46 2142.99 1035.45 2141.7 1037.67 2141.7L1038.72 2141.7L1038.72 2147.19C1038.72 2151.15 1040.49 2152.74 1042.74 2152.74C1045.62 2152.74 1047.24 2150.49 1047.24 2147.1ZM1044.72 2146.41C1044.72 2148.45 1043.94 2149.65 1042.59 2149.65C1041.42 2149.65 1040.76 2148.81 1040.76 2146.89L1040.76 2141.7L1041.03 2141.7C1043.31 2141.7 1044.72 2143.5 1044.72 2146.41ZM1047.3 2118.25C1047.3 2114.65 1045.74 2112.43 1043.46 2111.83L1043.46 2111.8C1044.81 2111.83 1046.22 2111.92 1047 2111.98L1047 2108.98L1037.28 2108.98L1037.28 2118.58L1039.56 2118.58L1039.56 2112.46L1040.01 2112.46C1042.68 2112.46 1044.51 2114.8 1044.51 2117.95C1044.51 2121.52 1041.78 2124.43 1037.37 2124.43C1032.81 2124.43 1029.96 2121.61 1029.96 2117.8C1029.96 2114.77 1031.55 2112.37 1034.34 2112.37C1034.61 2112.37 1034.94 2112.37 1035.3 2112.4L1035.3 2109.19C1034.94 2109.16 1034.46 2109.13 1034.13 2109.13C1029.63 2109.13 1026.96 2112.88 1026.96 2117.86C1026.96 2123.68 1031.01 2128.06 1037.34 2128.06C1043.52 2128.06 1047.3 2123.89 1047.3 2118.25ZM1047.24 2098.02C1047.24 2093.28 1044.33 2090.25 1039.62 2090.25C1034.88 2090.25 1031.94 2093.28 1031.94 2098.02C1031.94 2102.73 1034.88 2105.76 1039.62 2105.76C1044.33 2105.76 1047.24 2102.73 1047.24 2098.02ZM1044.48 2098.02C1044.48 2100.75 1042.62 2102.4 1039.62 2102.4C1036.59 2102.4 1034.7 2100.75 1034.7 2098.02C1034.7 2095.29 1036.59 2093.61 1039.62 2093.61C1042.62 2093.61 1044.48 2095.29 1044.48 2098.02ZM1047.18 2080.71C1047.18 2079.48 1046.97 2078.46 1046.82 2078.01L1044.15 2078.01C1044.27 2078.43 1044.42 2079.39 1044.42 2080.23C1044.42 2082.27 1043.46 2082.99 1041.54 2082.99L1034.91 2082.99L1034.91 2077.89L1032.18 2077.89L1032.18 2082.99L1028.82 2082.99L1028.82 2085.78L1031.04 2085.93C1031.88 2086.02 1032.18 2086.23 1032.18 2086.8L1032.18 2088.69L1034.91 2088.69L1034.91 2086.35L1041.72 2086.35C1044.99 2086.35 1047.18 2084.76 1047.18 2080.71ZM1047 2074.82L1047 2071.46L1039.98 2071.46C1036.65 2071.46 1034.82 2069.6 1034.82 2066.63C1034.82 2063.96 1036.14 2062.64 1038.48 2062.64L1047 2062.64L1047 2059.28L1037.73 2059.28C1034.07 2059.28 1031.94 2061.59 1031.94 2065.34C1031.94 2068.82 1033.47 2070.74 1036.17 2071.52L1036.17 2071.55C1035.36 2071.52 1033.65 2071.46 1032.93 2071.46L1026.21 2071.46L1026.21 2074.82L1047 2074.82ZM1030.44 2055.68L1030.44 2052.23L1027.14 2052.23L1027.14 2055.68L1030.44 2055.68ZM1047 2055.65L1047 2052.29L1032.18 2052.29L1032.18 2055.65L1047 2055.65ZM1047.24 2041.66C1047.24 2037.43 1044.93 2034.61 1040.97 2034.61L1040.97 2037.64C1043.16 2037.67 1044.48 2039.14 1044.48 2041.51C1044.48 2044 1042.62 2045.56 1039.59 2045.56C1036.53 2045.56 1034.7 2043.97 1034.7 2041.39C1034.7 2039.14 1036.05 2037.7 1038.27 2037.67L1038.27 2034.64C1034.34 2034.64 1031.94 2037.34 1031.94 2041.48C1031.94 2045.95 1034.85 2048.92 1039.59 2048.92C1044.33 2048.92 1047.24 2046.01 1047.24 2041.66ZM1047.3 2014.42C1047.3 2009.2 1044.24 2005.48 1039.77 2005.48L1039.08 2005.48L1039.08 2008.69L1039.56 2008.69C1042.41 2008.69 1044.3 2011 1044.3 2014.3C1044.3 2018.02 1041.57 2020.9 1037.16 2020.9C1032.75 2020.9 1029.96 2018.14 1029.96 2014.3C1029.96 2011.12 1031.88 2008.75 1034.91 2008.75C1035.06 2008.75 1035.3 2008.75 1035.57 2008.78L1035.57 2005.6C1035.21 2005.57 1034.82 2005.54 1034.61 2005.54C1030.05 2005.54 1026.96 2009.23 1026.96 2014.42C1026.96 2020.36 1030.86 2024.56 1037.16 2024.56C1043.43 2024.56 1047.3 2020.3 1047.3 2014.42Z" fill="#09061F"/>
<path d="M1199.56 2013.19C1208.07 2013.19 1212.65 2017.11 1212.65 2038.06V2173.54C1212.65 2200.38 1215.92 2210.85 1219.85 2217.39H1279.41C1274.18 2207.58 1269.59 2189.91 1269.59 2123.8V2038.06C1269.59 2008.61 1259.12 1994.86 1244.72 1988.97C1259.12 1983.08 1269.59 1969.33 1269.59 1939.88V1819.45C1269.59 1769.05 1236.21 1759.24 1206.11 1759.24H1140V2217.39H1196.94V2013.19H1199.56ZM1196.94 1964.1V1808.98H1204.8C1210.03 1808.98 1212.65 1811.6 1212.65 1817.49V1955.59C1212.65 1961.48 1210.03 1964.1 1204.8 1964.1H1196.94Z" fill="#09061F"/>
<path d="M1345.22 2164.38V1759.24H1288.27V2159.14C1288.27 2201.69 1309.87 2222.63 1351.11 2222.63C1392.34 2222.63 1413.94 2201.69 1413.94 2159.14V1759.24H1360.92V2164.38C1360.92 2170.27 1358.31 2172.89 1353.07 2172.89C1347.83 2172.89 1345.22 2170.27 1345.22 2164.38Z" fill="#09061F"/>
<path d="M1522.47 1759.24V1857.41C1522.47 1892.1 1526.4 1947.08 1527.05 1975.23C1523.13 1947.74 1517.89 1892.76 1513.31 1858.72L1500.22 1759.24H1430.18V2217.39H1478.62V2067.51C1478.62 2032.82 1475.35 1979.15 1474.04 1949.7C1477.96 1978.5 1483.85 2032.17 1488.44 2067.51L1508.73 2217.39H1570.9V1759.24H1522.47Z" fill="#09061F"/>
<path d="M1680.35 1759.24V1857.41C1680.35 1892.1 1684.27 1947.08 1684.93 1975.23C1681 1947.74 1675.76 1892.76 1671.18 1858.72L1658.09 1759.24H1588.06V2217.39H1636.49V2067.51C1636.49 2032.82 1633.22 1979.15 1631.91 1949.7C1635.84 1978.5 1641.73 2032.17 1646.31 2067.51L1666.6 2217.39H1728.78V1759.24H1680.35Z" fill="#09061F"/>
<path d="M1745.94 2217.39H1802.88V1759.24H1745.94V2217.39Z" fill="#09061F"/>
<path d="M1912.37 1759.24V1857.41C1912.37 1892.1 1916.29 1947.08 1916.95 1975.23C1913.02 1947.74 1907.78 1892.76 1903.2 1858.72L1890.11 1759.24H1820.08V2217.39H1868.51V2067.51C1868.51 2032.82 1865.24 1979.15 1863.93 1949.7C1867.86 1978.5 1873.75 2032.17 1878.33 2067.51L1898.62 2217.39H1960.8V1759.24H1912.37Z" fill="#09061F"/>
<path d="M2049.3 1941.19H2102.31V1820.76C2102.31 1776.25 2080.71 1754 2039.48 1754C1998.24 1754 1976.65 1776.25 1976.65 1820.76V2155.87C1976.65 2206.27 1998.9 2222.63 2028.35 2222.63C2047.33 2222.63 2062.39 2216.09 2069.59 2202.34L2074.17 2217.39H2103.62V1956.24H2041.44V2005.99H2049.3V2164.38C2049.3 2170.27 2046.68 2172.89 2041.44 2172.89C2036.21 2172.89 2033.59 2170.27 2033.59 2164.38V1812.25C2033.59 1806.36 2035.55 1803.74 2041.44 1803.74C2046.68 1803.74 2049.3 1806.36 2049.3 1812.25V1941.19Z" fill="#09061F"/>
<path d="M2284.53 1952.32C2308.1 1926.79 2328.39 1890.14 2328.39 1827.96C2328.39 1785.42 2309.4 1754 2269.48 1754C2227.59 1754 2206.65 1791.96 2206.65 1826.65C2205.99 1862.65 2213.19 1892.1 2218.43 1915.01L2224.97 1945.77L2213.85 1956.24C2190.94 1977.84 2178.5 2003.37 2178.5 2038.71C2178.5 2053.77 2180.47 2069.48 2184.39 2087.15L2204.68 2172.23C2214.5 2214.12 2236.1 2222.63 2260.97 2222.63C2273.41 2222.63 2285.84 2218.05 2297.62 2210.2C2309.4 2219.36 2325.11 2222.63 2340.17 2222.63C2346.06 2222.63 2352.6 2221.32 2357.84 2217.39V2169.62C2354.57 2172.23 2351.95 2172.89 2348.68 2172.89C2341.48 2172.89 2336.89 2170.27 2332.97 2157.83C2343.44 2130.34 2349.98 2093.69 2349.98 2046.57V1938.57H2304.82V2059.66C2300.9 2029.55 2293.7 1993.55 2284.53 1952.32ZM2268.82 2159.8C2263.59 2159.8 2259.66 2155.22 2256.39 2140.16L2232.83 2033.48C2231.52 2026.93 2230.21 2021.04 2230.21 2015.81C2230.21 2008.61 2232.17 2003.37 2236.75 1997.48L2274.06 2159.14C2272.1 2159.8 2270.79 2159.8 2268.82 2159.8ZM2262.28 1831.23C2262.28 1812.91 2264.9 1806.36 2271.44 1806.36C2277.99 1806.36 2279.95 1813.56 2279.95 1831.23C2279.95 1854.79 2277.99 1879.01 2268.82 1898.65C2265.55 1871.81 2262.28 1852.83 2262.28 1831.23Z" fill="#09061F"/>
<path d="M2489.96 2164.38V1812.25C2489.96 1806.36 2492.58 1803.74 2497.81 1803.74C2503.05 1803.74 2505.67 1806.36 2505.67 1812.25V1952.32H2558.68V1820.76C2558.68 1776.25 2537.08 1754 2495.85 1754C2454.61 1754 2433.02 1776.25 2433.02 1820.76V2155.87C2433.02 2200.38 2454.61 2222.63 2495.85 2222.63C2537.08 2222.63 2558.68 2200.38 2558.68 2155.87V2011.22H2505.67V2164.38C2505.67 2170.27 2503.05 2172.89 2497.81 2172.89C2492.58 2172.89 2489.96 2170.27 2489.96 2164.38Z" fill="#09061F"/>
<path d="M2641.86 1866.58C2639.89 1886.21 2637.27 1921.56 2635.97 1954.94C2634.66 1921.56 2632.04 1886.21 2630.07 1866.58L2618.95 1759.24H2561.35L2604.55 2080.6V2217.39H2661.49V2080.6L2705.34 1759.24H2652.98L2641.86 1866.58Z" fill="#09061F"/>
<path d="M2764.8 2164.38V1812.25C2764.8 1806.36 2767.42 1803.74 2772.66 1803.74C2777.89 1803.74 2780.51 1806.36 2780.51 1812.25V1952.32H2833.53V1820.76C2833.53 1776.25 2811.93 1754 2770.69 1754C2729.46 1754 2707.86 1776.25 2707.86 1820.76V2155.87C2707.86 2200.38 2729.46 2222.63 2770.69 2222.63C2811.93 2222.63 2833.53 2200.38 2833.53 2155.87V2011.22H2780.51V2164.38C2780.51 2170.27 2777.89 2172.89 2772.66 2172.89C2767.42 2172.89 2764.8 2170.27 2764.8 2164.38Z" fill="#09061F"/>
<path d="M2849.15 2217.39H2944.71V2167.65H2906.09V1759.24H2849.15V2217.39Z" fill="#09061F"/>
<path d="M2953.97 2217.39H3010.91V1759.24H2953.97V2217.39Z" fill="#09061F"/>
<path d="M3120.4 1759.24V1857.41C3120.4 1892.1 3124.33 1947.08 3124.98 1975.23C3121.06 1947.74 3115.82 1892.76 3111.24 1858.72L3098.15 1759.24H3028.12V2217.39H3076.55V2067.51C3076.55 2032.82 3073.28 1979.15 3071.97 1949.7C3075.89 1978.5 3081.79 2032.17 3086.37 2067.51L3106.66 2217.39H3168.84V1759.24H3120.4Z" fill="#09061F"/>
<path d="M3257.33 1941.19H3310.35V1820.76C3310.35 1776.25 3288.75 1754 3247.52 1754C3206.28 1754 3184.68 1776.25 3184.68 1820.76V2155.87C3184.68 2206.27 3206.94 2222.63 3236.39 2222.63C3255.37 2222.63 3270.42 2216.09 3277.62 2202.34L3282.2 2217.39H3311.66V1956.24H3249.48V2005.99H3257.33V2164.38C3257.33 2170.27 3254.71 2172.89 3249.48 2172.89C3244.24 2172.89 3241.62 2170.27 3241.62 2164.38V1812.25C3241.62 1806.36 3243.59 1803.74 3249.48 1803.74C3254.71 1803.74 3257.33 1806.36 3257.33 1812.25V1941.19Z" fill="#09061F"/>
<path d="M3452.64 2013.19C3461.15 2013.19 3465.73 2017.11 3465.73 2038.06V2173.54C3465.73 2200.38 3469.01 2210.85 3472.93 2217.39H3532.49C3527.26 2207.58 3522.68 2189.91 3522.68 2123.8V2038.06C3522.68 2008.61 3512.2 1994.86 3497.81 1988.97C3512.2 1983.08 3522.68 1969.33 3522.68 1939.88V1819.45C3522.68 1769.05 3489.3 1759.24 3459.19 1759.24H3393.08V2217.39H3450.03V2013.19H3452.64ZM3450.03 1964.1V1808.98H3457.88C3463.12 1808.98 3465.73 1811.6 3465.73 1817.49V1955.59C3465.73 1961.48 3463.12 1964.1 3457.88 1964.1H3450.03Z" fill="#09061F"/>
<path d="M3621.21 2217.39H3678.8L3642.81 1759.24H3569.5L3534.16 2217.39H3586.52L3589.79 2168.31H3617.28L3621.21 2217.39ZM3603.53 1897.99C3606.15 1960.17 3608.12 2036.09 3614.01 2118.56H3593.72C3599.61 2036.09 3600.92 1960.17 3603.53 1897.99Z" fill="#09061F"/>
<path d="M3741.46 2164.38V1812.25C3741.46 1806.36 3744.08 1803.74 3749.31 1803.74C3754.55 1803.74 3757.17 1806.36 3757.17 1812.25V1952.32H3810.18V1820.76C3810.18 1776.25 3788.58 1754 3747.35 1754C3706.11 1754 3684.51 1776.25 3684.51 1820.76V2155.87C3684.51 2200.38 3706.11 2222.63 3747.35 2222.63C3788.58 2222.63 3810.18 2200.38 3810.18 2155.87V2011.22H3757.17V2164.38C3757.17 2170.27 3754.55 2172.89 3749.31 2172.89C3744.08 2172.89 3741.46 2170.27 3741.46 2164.38Z" fill="#09061F"/>
<path d="M3882.75 2003.37H3916.13V1953.63H3882.75V1808.98H3923.98V1759.24H3825.8V2217.39H3925.29V2167.65H3882.75V2003.37Z" fill="#09061F"/>
<path d="M3989.35 2044.6H3936.33V2155.87C3936.33 2200.38 3958.59 2222.63 3999.17 2222.63C4040.4 2222.63 4062 2200.38 4062 2155.87V2108.75C4062 1983.08 3993.28 1967.37 3993.28 1861.34V1812.25C3993.28 1806.36 3995.89 1803.74 4001.13 1803.74C4006.37 1803.74 4008.98 1806.36 4008.98 1812.25V1918.28H4062V1820.76C4062 1776.25 4040.4 1754 3999.17 1754C3957.93 1754 3936.33 1776.25 3936.33 1820.76V1854.79C3936.33 1980.46 4005.06 1996.17 4005.06 2102.2V2164.38C4005.06 2170.27 4002.44 2172.89 3997.2 2172.89C3991.97 2172.89 3989.35 2170.27 3989.35 2164.38V2044.6Z" fill="#09061F"/>
<path d="M1293.53 1443.98C1293.53 1398.92 1274.53 1382.1 1246.84 1382.1C1227.85 1382.1 1214.28 1391.87 1207.22 1405.98V1309.91C1207.22 1302.85 1211.02 1299.59 1217.53 1299.59C1224.05 1299.59 1227.3 1302.85 1227.3 1309.91V1363.64H1288.64V1320.22C1288.64 1268.65 1263.13 1242.6 1215.36 1242.6C1167.05 1242.6 1141 1268.65 1141 1320.22V1555.79C1141 1607.36 1167.6 1633.95 1217.53 1633.95C1267.47 1633.95 1293.53 1607.36 1293.53 1555.79V1443.98ZM1227.3 1566.11C1227.3 1573.16 1224.05 1576.96 1217.53 1576.96C1211.02 1576.96 1207.22 1573.16 1207.22 1566.11V1449.4C1207.22 1442.35 1211.02 1439.09 1217.53 1439.09C1224.05 1439.09 1227.3 1442.35 1227.3 1449.4V1566.11Z" fill="#09061F"/>
<path d="M1308.53 1627.98H1374.75V1545.48H1308.53V1627.98Z" fill="#09061F"/>
<path d="M1389.01 1330.53H1410.72V1627.98H1476.94V1248.03H1444.92C1441.66 1263.77 1434.6 1274.08 1410.72 1274.08H1389.01V1330.53Z" fill="#09061F"/>
<path d="M1655.17 1485.77H1638.89V1248.03H1567.78L1491.79 1494.46V1551.99H1572.67V1627.98H1638.89V1551.99H1655.17V1485.77ZM1555.3 1472.2C1567.24 1428.78 1575.38 1385.35 1581.35 1356.04C1578.1 1385.35 1572.67 1430.95 1572.67 1485.77H1551.5L1555.3 1472.2Z" fill="#09061F"/>
<path d="M1656.58 1627.98H1689.69L1738 1438.01H1704.89L1656.58 1627.98Z" fill="#09061F"/>
<path d="M1803.63 1514C1802.81 1499.34 1801.46 1482.24 1800.1 1470.03L1796.84 1438.01H1743.1V1627.98H1774.86V1579.4C1774.86 1551.72 1773.5 1530.28 1772.42 1502.87C1775.67 1530.28 1777.57 1551.72 1781.1 1579.4L1787.07 1627.98H1813.67L1819.64 1579.4C1823.17 1551.72 1825.34 1530.28 1828.32 1502.87C1827.24 1530.28 1825.88 1551.72 1825.88 1579.4V1627.98H1863.06V1438.01H1810.41L1807.15 1470.03C1805.8 1482.24 1804.44 1499.34 1803.63 1514Z" fill="#09061F"/>
<path d="M1873.5 1627.98H1911.5V1438.01H1873.5V1627.98Z" fill="#09061F"/>
<path d="M2121.39 1627.98H2197.93L2150.71 1248.03H2051.37L2004.69 1627.98H2074.71L2079.6 1586.19H2115.97L2121.39 1627.98ZM2098.05 1367.44C2101.31 1419.01 2104.03 1472.74 2108.91 1522.68H2086.66C2091.54 1472.74 2094.8 1419.01 2098.05 1367.44Z" fill="#09061F"/>
<path d="M2255.13 1248.03H2177.51L2225.28 1627.98H2320.81L2367.49 1248.03H2296.92L2284.98 1345.73C2280.64 1389.7 2278.47 1434.75 2275.76 1476C2273.58 1434.75 2271.41 1389.7 2267.07 1345.73L2255.13 1248.03Z" fill="#09061F"/>
<path d="M2454.08 1463.52H2498.59V1397.3H2454.08V1314.25H2508.91V1248.03H2378.09V1627.98H2511.08V1561.76H2454.08V1463.52Z" fill="#09061F"/>
<path d="M2606.29 1472.2C2617.69 1472.2 2623.66 1477.09 2623.66 1504.77V1569.9C2623.66 1605.73 2628.55 1619.3 2633.43 1627.98H2713.77C2706.17 1615.5 2700.2 1603.56 2700.2 1541.68V1504.23C2700.2 1465.15 2686.63 1447.78 2668.17 1439.63C2686.63 1432.04 2700.2 1415.21 2700.2 1377.76V1322.39C2700.2 1255.63 2658.94 1248.03 2618.23 1248.03H2527.04V1627.98H2603.04V1472.2H2606.29ZM2603.04 1405.98V1314.25H2613.35C2620.4 1314.25 2623.66 1317.51 2623.66 1325.65V1395.13C2623.66 1402.72 2620.4 1405.98 2613.35 1405.98H2603.04Z" fill="#09061F"/>
<path d="M2829.57 1627.98H2906.1L2858.88 1248.03H2759.55L2712.87 1627.98H2782.89L2787.78 1586.19H2824.14L2829.57 1627.98ZM2806.23 1367.44C2809.49 1419.01 2812.2 1472.74 2817.09 1522.68H2794.83C2799.72 1472.74 2802.97 1419.01 2806.23 1367.44Z" fill="#09061F"/>
<path d="M3006.85 1556.33C3006.85 1564.48 3003.6 1567.73 2996.54 1567.73C2988.94 1567.73 2985.68 1564.48 2985.68 1556.33V1319.68C2985.68 1312.08 2988.94 1308.82 2996.54 1308.82C3003.6 1308.82 3006.85 1312.08 3006.85 1319.68V1388.61H3076.87V1331.08C3076.87 1271.91 3048.65 1242.6 2993.83 1242.6C2938.46 1242.6 2909.69 1271.91 2909.69 1331.08V1544.94C2909.69 1611.7 2939.55 1633.95 2978.08 1633.95C3003.6 1633.95 3023.68 1625.27 3032.91 1607.36L3039.42 1627.98H3079.04V1407.61H2996.54V1468.95H3006.85V1556.33Z" fill="#09061F"/>
<path d="M3173.39 1463.52H3217.9V1397.3H3173.39V1314.25H3228.21V1248.03H3097.4V1627.98H3230.39V1561.76H3173.39V1463.52Z" fill="#09061F"/>
<path d="M3398.96 1487.94H3328.94V1544.94C3328.94 1604.1 3357.17 1633.95 3411.99 1633.95C3468.44 1633.95 3496.12 1604.1 3496.12 1552.54V1528.11C3496.12 1410.87 3404.93 1413.58 3404.93 1341.93V1319.68C3404.93 1312.08 3408.19 1308.82 3415.25 1308.82C3422.3 1308.82 3425.56 1312.08 3425.56 1319.68V1378.3H3496.12V1331.08C3496.12 1271.91 3467.35 1242.6 3412.53 1242.6C3356.08 1242.6 3328.94 1271.91 3328.94 1324.02V1339.76C3328.94 1457 3420.13 1454.29 3420.13 1525.94V1556.33C3420.13 1564.48 3416.87 1567.73 3409.27 1567.73C3402.22 1567.73 3398.96 1564.48 3398.96 1556.33V1487.94Z" fill="#09061F"/>
<path d="M3588.44 1496.08H3600.92C3641.63 1496.08 3685.6 1483.06 3685.6 1416.29V1328.36C3685.6 1261.6 3641.63 1248.03 3600.92 1248.03H3512.45V1627.98H3588.44V1496.08ZM3599.29 1314.25C3606.35 1314.25 3609.61 1317.51 3609.61 1325.65V1419.01C3609.61 1426.61 3606.35 1429.86 3599.29 1429.86H3588.44V1314.25H3599.29Z" fill="#09061F"/>
<path d="M3700.62 1627.98H3828.18V1561.76H3776.61V1248.03H3700.62V1627.98Z" fill="#09061F"/>
<path d="M3838.97 1627.98H3914.96V1248.03H3838.97V1627.98Z" fill="#09061F"/>
<path d="M4082 1248.03H3925.68V1314.25H3965.84V1627.98H4041.83V1314.25H4082V1248.03Z" fill="#09061F"/>
<path d="M1136 780.033H1173.29V1115.02H1256.72V672.585H1215.01C1210.58 693.442 1200.47 707.98 1169.5 707.98H1136V780.033Z" fill="#09061F"/>
<path d="M1271.92 1115.02H1355.98L1507.04 672.585H1422.98L1271.92 1115.02Z" fill="#09061F"/>
<path d="M1592.96 845.135V767.392C1592.96 747.799 1601.18 736.422 1618.87 736.422C1637.2 736.422 1645.42 747.799 1645.42 767.392V790.778C1645.42 896.331 1509.53 900.755 1509.53 1046.76V1115.02H1723.79V1031.59H1592.96C1599.28 941.207 1729.48 932.358 1729.48 786.354V779.401C1729.48 702.923 1691.56 665 1622.67 665C1553.14 665 1515.85 702.923 1515.85 779.401V845.135H1592.96Z" fill="#09061F"/>
<path d="M2040.94 915.925C2037.78 879.898 2031.46 837.55 2025.77 805.316L2001.75 672.585H1867.76V1115.02H1946.76V948.159C1946.76 892.539 1944.87 854.616 1941.71 798.995C1949.92 854.616 1955.61 891.907 1965.09 948.159L1997.33 1115.02H2068.75L2100.99 948.159C2110.47 891.907 2116.15 854.616 2124.37 798.995C2121.21 854.616 2119.31 892.539 2119.31 948.159V1115.02H2212.23V672.585H2080.13L2055.48 805.316C2050.42 837.55 2044.1 879.898 2040.94 915.925Z" fill="#09061F"/>
<path d="M2405.14 1115.02H2501.21L2424.73 672.585H2300.85L2225 1115.02H2312.86L2322.34 1056.87H2395.02L2405.14 1115.02ZM2340.03 943.103C2345.72 902.652 2353.31 848.295 2359 785.09C2364.68 848.295 2371.64 902.652 2377.32 943.103L2382.38 977.866H2334.98L2340.03 943.103Z" fill="#09061F"/>
<path d="M2622.73 937.414C2653.7 937.414 2664.44 948.791 2664.44 996.195V1023.37C2664.44 1079.63 2672.03 1101.12 2678.35 1115.02H2780.11C2769.36 1094.8 2760.52 1082.15 2760.52 1001.88V993.035C2760.52 934.886 2740.29 908.34 2710.58 896.331C2739.66 885.586 2760.52 860.936 2760.52 804.683V780.665C2760.52 682.697 2702.37 672.585 2641.69 672.585H2515.28V1115.02H2610.72V937.414H2622.73ZM2610.72 853.984V756.015H2633.47C2656.23 756.015 2664.44 763.6 2664.44 786.986V823.013C2664.44 845.767 2656.23 853.984 2633.47 853.984H2610.72Z" fill="#09061F"/>
<path d="M2951.42 1115.02H3047.49L2971.01 672.585H2847.13L2771.28 1115.02H2859.14L2868.62 1056.87H2941.3L2951.42 1115.02ZM2886.31 943.103C2892 902.652 2899.59 848.295 2905.28 785.09C2910.96 848.295 2917.92 902.652 2923.61 943.103L2928.66 977.866H2881.26L2886.31 943.103Z" fill="#09061F"/>
<path d="M3239.8 672.585H3012.9V756.015H3078.63V1115.02H3174.07V756.015H3239.8V672.585Z" fill="#09061F"/>
<path d="M3345.58 926.669H3401.2V1115.02H3496.64V672.585H3401.2V843.239H3345.58V672.585H3250.14V1115.02H3345.58V926.669Z" fill="#09061F"/>
<path d="M3522.5 994.299C3522.5 1080.89 3566.11 1122.61 3646.38 1122.61C3726.65 1122.61 3769.63 1080.89 3769.63 994.299V793.307C3769.63 706.715 3726.65 665 3646.38 665C3566.11 665 3522.5 706.715 3522.5 793.307V994.299ZM3617.94 1007.57V780.033C3617.94 758.544 3626.79 747.799 3646.38 747.799C3665.97 747.799 3674.19 758.544 3674.19 780.033V1007.57C3674.19 1029.06 3665.97 1039.81 3646.38 1039.81C3626.79 1039.81 3617.94 1029.06 3617.94 1007.57Z" fill="#09061F"/>
<path d="M3980.36 672.585V821.749C3980.36 852.087 3982.89 894.435 3984.15 925.405C3977.83 894.435 3968.98 854.616 3960.77 822.381L3919.68 672.585H3795.17V1115.02H3874.81V929.198C3874.81 898.859 3872.28 855.248 3870.38 826.173C3877.34 855.248 3886.82 897.595 3894.4 928.566L3943.7 1115.02H4060V672.585H3980.36Z" fill="#09061F"/>
</svg>
