<svg width="3200" height="1707" viewBox="0 0 3200 1707" fill="none" xmlns="http://www.w3.org/2000/svg">
<rect width="3200" height="1707" fill="black"/>
<path d="M332.2 887H355C380.3 887 388.6 870.2 388.6 851.8C388.6 833.4 380.3 816.6 355 816.6H332.2V887ZM339 881.4V822.2H355C374 822.2 381.8 833.8 381.8 851.8C381.8 869.8 374 881.4 355 881.4H339ZM417.291 883.2C410.091 883.2 405.191 879.1 405.191 873.3C405.191 866.7 409.591 864.2 418.991 862.7L433.591 860.4V866.2C433.591 876.7 426.991 883.2 417.291 883.2ZM398.691 873.3C398.691 882.1 405.491 888.4 417.091 888.4C424.891 888.4 430.191 884.8 433.291 879.8H433.491V887H439.391V851.5C439.391 840.3 432.991 834.8 420.691 834.8C408.291 834.8 400.491 840.4 400.291 852.2H406.491C406.991 842.6 412.891 840.1 420.691 840.1C428.491 840.1 433.291 843.4 433.291 850.6C433.291 854.3 431.991 855.5 428.391 856L416.991 857.7C404.691 859.6 398.691 863.8 398.691 873.3ZM467.412 887H475.812L495.312 836.2H488.912L471.812 881H471.612L454.512 836.2H447.912L467.412 887ZM504.958 887H511.158V836.2H504.958V887ZM504.958 825.4H511.158V816.6H504.958V825.4ZM546.405 888.4C554.805 888.4 560.305 884.6 563.305 878.6H563.505C563.405 879.6 563.405 882.6 563.405 884.6V887H569.805V816.6H563.405V838.2C563.405 840.4 563.405 843.6 563.505 844.6H563.305C560.305 838.6 554.805 834.8 546.405 834.8C532.005 834.8 523.605 844.8 523.605 861.6C523.605 878.4 532.005 888.4 546.405 888.4ZM530.005 861.6C530.005 848 535.805 840.1 546.605 840.1C557.405 840.1 563.605 848 563.605 861.6C563.605 875.2 557.405 883.1 546.605 883.1C535.805 883.1 530.005 875.2 530.005 861.6ZM614.78 851H621.28C620.58 839 613.08 834.8 602.28 834.8C591.48 834.8 583.38 839.9 583.38 849.3C583.38 858 589.88 861.2 597.88 862.9L607.08 864.9C612.38 866.1 615.48 868.5 615.48 873.5C615.48 879.9 610.48 883.2 602.78 883.2C595.18 883.2 588.78 881 587.98 871H581.48C581.78 884.4 591.48 888.4 602.78 888.4C613.48 888.4 622.08 883.6 622.08 873.7C622.08 864.7 617.28 860.9 608.78 859.1L599.18 857.1C593.88 856 589.88 854.1 589.88 849.1C589.88 842.9 595.48 840 602.28 840C609.08 840 614.08 842.5 614.78 851ZM654.594 888.4C668.994 888.4 678.794 878.4 678.794 861.6C678.794 844.8 668.994 834.8 654.594 834.8C640.194 834.8 630.394 844.8 630.394 861.6C630.394 878.4 640.194 888.4 654.594 888.4ZM636.794 861.6C636.794 848 642.994 840.1 654.594 840.1C666.194 840.1 672.394 848 672.394 861.6C672.394 875.2 666.194 883.1 654.594 883.1C642.994 883.1 636.794 875.2 636.794 861.6ZM691.002 887H697.202V855.3C697.202 844.9 703.902 840.1 711.902 840.1C720.302 840.1 725.002 844.5 725.002 854.1V887H731.202V853.3C731.202 841.3 725.202 834.8 713.602 834.8C704.802 834.8 699.802 838.4 697.202 843.8H697.002C697.102 841.9 697.202 839.2 697.202 837V836.2H691.002V887Z" fill="white"/>
<path d="M748.88 830.45C753.32 830.45 756.05 828.14 756.05 824.42C756.05 821.84 754.58 819.86 752.03 819.14V819.08C754.07 818.24 755.54 816.71 755.54 814.37C755.54 810.71 752.99 808.43 748.88 808.43C744.56 808.43 741.77 810.8 741.74 814.94H744.65C744.68 812.27 746.3 810.83 748.82 810.83C751.19 810.83 752.63 812.24 752.63 814.49C752.63 816.62 750.98 818.03 748.25 818.03H746.21V820.43H748.34C751.31 820.43 753.14 821.81 753.14 824.3C753.14 826.7 751.55 828.05 748.94 828.05C746.12 828.05 744.47 826.55 744.35 823.67H741.47C741.53 828.2 744.5 830.45 748.88 830.45ZM766.766 830.45C772.286 830.45 774.776 825.62 774.776 819.44C774.776 813.26 772.286 808.43 766.766 808.43C761.216 808.43 758.756 813.26 758.756 819.44C758.756 825.62 761.216 830.45 766.766 830.45ZM761.696 819.44C761.696 814.55 763.196 810.86 766.766 810.86C770.336 810.86 771.836 814.55 771.836 819.44C771.836 824.33 770.336 828.02 766.766 828.02C763.196 828.02 761.696 824.33 761.696 819.44ZM785.78 830.45C791.3 830.45 793.79 825.62 793.79 819.44C793.79 813.26 791.3 808.43 785.78 808.43C780.23 808.43 777.77 813.26 777.77 819.44C777.77 825.62 780.23 830.45 785.78 830.45ZM780.71 819.44C780.71 814.55 782.21 810.86 785.78 810.86C789.35 810.86 790.85 814.55 790.85 819.44C790.85 824.33 789.35 828.02 785.78 828.02C782.21 828.02 780.71 824.33 780.71 819.44Z" fill="white"/>
<path d="M849.27 887H873.57C898.97 887 907.97 871.1 907.97 851.8C907.97 832.5 898.97 816.6 873.57 816.6H849.27V887ZM859.27 878.8V824.8H873.47C890.97 824.8 897.87 835.1 897.87 851.8C897.87 868.5 890.97 878.8 873.47 878.8H859.27ZM936.548 881.6C930.248 881.6 926.148 878.1 926.148 873.2C926.148 867.7 929.848 865.6 937.448 864.3L950.748 862.1V866.8C950.748 876.2 944.848 881.6 936.548 881.6ZM916.548 873.1C916.548 882.1 923.448 888.4 935.048 888.4C942.748 888.4 947.848 884.8 950.648 880.3H950.848V887H959.648V852.2C959.648 840.2 952.448 834.8 939.648 834.8C926.748 834.8 918.248 840.3 918.048 852.6H927.348C927.748 844.2 932.848 842 939.648 842C946.348 842 950.548 844.8 950.548 851C950.548 854.3 949.248 855.4 945.848 855.9L934.948 857.5C922.348 859.4 916.548 863.8 916.548 873.1ZM985.261 887H997.461L1016.36 836.2H1006.66L991.561 878.5H991.361L976.261 836.2H966.361L985.261 887ZM1024.17 887H1033.47V836.2H1024.17V887ZM1024.17 827H1033.47V816.6H1024.17V827ZM1066.61 888.4C1074.91 888.4 1079.91 884.8 1082.71 879.3H1082.91C1082.81 880.5 1082.71 883.1 1082.71 885.1V887H1092.21V816.6H1082.71V837.7C1082.71 839.7 1082.81 842.7 1082.91 843.7H1082.71C1079.91 838.3 1074.81 834.8 1066.71 834.8C1052.51 834.8 1044.01 844.8 1044.01 861.6C1044.01 878.4 1052.51 888.4 1066.61 888.4ZM1053.71 861.6C1053.71 849.2 1058.61 842.3 1068.11 842.3C1077.71 842.3 1083.01 849.2 1083.01 861.6C1083.01 874.1 1077.71 881 1068.11 881C1058.61 881 1053.71 874.1 1053.71 861.6ZM1134.87 851.2H1144.07C1143.57 839.5 1135.97 834.9 1123.97 834.9C1112.17 834.9 1103.87 840.2 1103.87 849.9C1103.87 858.9 1110.47 862.3 1118.37 864L1127.67 866.1C1132.47 867.1 1135.17 869.2 1135.17 873.4C1135.17 878.6 1130.97 881.4 1124.37 881.4C1117.77 881.4 1112.17 879.6 1111.57 870.9H1102.17C1102.37 883.7 1111.27 888.4 1124.27 888.4C1136.27 888.4 1144.87 883.4 1144.87 873.1C1144.87 863.7 1139.67 860.1 1131.17 858.3L1121.37 856.2C1116.67 855.2 1113.37 853.6 1113.37 849.4C1113.37 844.2 1118.07 841.8 1123.97 841.8C1129.87 841.8 1134.27 844 1134.87 851.2ZM1176.97 888.4C1192.07 888.4 1202.17 878.4 1202.17 861.6C1202.17 844.8 1192.07 834.8 1176.97 834.8C1161.97 834.8 1151.87 844.8 1151.87 861.6C1151.87 878.4 1161.97 888.4 1176.97 888.4ZM1161.57 861.6C1161.57 849.1 1166.67 842.1 1176.97 842.1C1187.37 842.1 1192.47 849.1 1192.47 861.6C1192.47 874.1 1187.37 881.1 1176.97 881.1C1166.67 881.1 1161.57 874.1 1161.57 861.6ZM1212.76 887H1222.06V856C1222.06 846.5 1227.96 842.4 1235.06 842.4C1242.26 842.4 1246.46 846.1 1246.46 854.8V887H1255.86V853.8C1255.86 841.2 1249.76 834.8 1238.16 834.8C1229.86 834.8 1224.66 838.2 1221.96 843.4H1221.76C1221.86 841.8 1222.06 839.1 1222.06 836.8V836.2H1212.76V887Z" fill="white"/>
<path d="M1274.52 830H1277.43V824.54H1280.7V822.14H1277.43V808.88H1273.23L1264.05 822.11V824.54H1274.52V830ZM1267.05 822.14V822.08L1274.46 811.37H1274.52V822.14H1267.05ZM1282.75 830H1297.45V827.57H1286.29C1286.59 826.07 1287.49 824.72 1290.25 823.04L1291.72 822.11C1295.11 820.01 1297.39 818.24 1297.39 814.76C1297.39 811.25 1295.14 808.43 1290.46 808.43C1286.02 808.43 1283.17 811.04 1283.17 815.87H1286.11C1286.17 812.27 1288 810.83 1290.52 810.83C1292.89 810.83 1294.51 812.24 1294.51 814.67C1294.51 817.13 1292.92 818.42 1289.05 820.67C1283.89 823.64 1282.81 826.04 1282.75 830ZM1307.33 830.42C1311.59 830.42 1314.65 827.84 1314.65 823.4C1314.65 818.96 1311.68 816.32 1307.96 816.32C1305.89 816.32 1304.39 817.19 1303.52 818.18L1303.46 818.15L1304.33 811.34H1313.57V808.88H1301.72L1300.25 820.91H1303.34C1304.06 819.65 1305.47 818.72 1307.36 818.72C1310.03 818.72 1311.77 820.49 1311.77 823.4C1311.77 826.34 1309.97 828.02 1307.36 828.02C1305.02 828.02 1303.25 826.85 1302.83 824.21H1299.95C1300.13 827.78 1302.92 830.42 1307.33 830.42Z" fill="white"/>
<path d="M1367.11 887H1392.01C1417.41 887 1426.71 871.5 1426.71 851.8C1426.71 832.1 1417.41 816.6 1392.01 816.6H1367.11V887ZM1378.41 877.8V825.8H1391.81C1408.71 825.8 1415.31 835.6 1415.31 851.8C1415.31 868 1408.71 877.8 1391.81 877.8H1378.41ZM1455.19 880.9C1449.29 880.9 1445.49 877.7 1445.49 873.2C1445.49 868.1 1448.89 866.1 1455.79 865L1468.59 862.8V867.1C1468.59 876 1462.99 880.9 1455.19 880.9ZM1434.69 873C1434.69 882.1 1441.59 888.4 1453.19 888.4C1460.89 888.4 1465.89 884.8 1468.59 880.5H1468.79V887H1478.69V852.5C1478.69 840.2 1471.19 834.8 1458.19 834.8C1445.09 834.8 1436.29 840.3 1436.09 852.8H1446.59C1447.09 844.8 1451.89 842.8 1458.19 842.8C1464.49 842.8 1468.39 845.4 1468.39 851.2C1468.39 854.3 1467.19 855.4 1463.79 855.9L1453.09 857.4C1440.39 859.3 1434.69 863.8 1434.69 873ZM1503.3 887H1517.1L1535.7 836.2H1524.8L1510.5 877.5H1510.3L1495.9 836.2H1484.7L1503.3 887ZM1542.79 887H1553.29V836.2H1542.79V887ZM1542.79 827.7H1553.29V816.6H1542.79V827.7ZM1585.53 888.4C1593.83 888.4 1598.63 884.9 1601.33 879.6H1601.53C1601.43 880.9 1601.33 883.3 1601.33 885.3V887H1612.03V816.6H1601.33V837.5C1601.33 839.4 1601.43 842.3 1601.53 843.4H1601.33C1598.53 838.1 1593.73 834.8 1585.63 834.8C1571.63 834.8 1563.03 844.8 1563.03 861.6C1563.03 878.4 1571.53 888.4 1585.53 888.4ZM1574.03 861.6C1574.03 849.6 1578.53 843.1 1587.63 843.1C1596.63 843.1 1601.63 849.6 1601.63 861.6C1601.63 873.7 1596.63 880.2 1587.63 880.2C1578.53 880.2 1574.03 873.7 1574.03 861.6ZM1653.69 851.3H1663.99C1663.49 839.7 1655.89 835 1643.39 835C1631.19 835 1622.89 840.3 1622.89 850.1C1622.89 859.3 1629.49 862.7 1637.39 864.4L1646.79 866.5C1651.29 867.5 1653.89 869.5 1653.89 873.4C1653.89 878.1 1649.99 880.7 1643.79 880.7C1637.59 880.7 1632.29 879 1631.79 870.8H1621.29C1621.49 883.4 1629.99 888.4 1643.69 888.4C1656.19 888.4 1664.79 883.3 1664.79 872.9C1664.79 863.3 1659.49 859.8 1650.89 858L1641.09 855.9C1636.59 854.9 1633.59 853.4 1633.59 849.5C1633.59 844.7 1637.99 842.6 1643.39 842.6C1648.99 842.6 1653.09 844.6 1653.69 851.3ZM1696.78 888.4C1712.08 888.4 1722.28 878.4 1722.28 861.6C1722.28 844.8 1712.08 834.8 1696.78 834.8C1681.48 834.8 1671.28 844.8 1671.28 861.6C1671.28 878.4 1681.48 888.4 1696.78 888.4ZM1682.28 861.6C1682.28 849.6 1686.98 842.9 1696.78 842.9C1706.68 842.9 1711.38 849.6 1711.38 861.6C1711.38 873.6 1706.68 880.3 1696.78 880.3C1686.98 880.3 1682.28 873.6 1682.28 861.6ZM1732.16 887H1742.76V856.3C1742.76 847.2 1748.36 843.4 1755.06 843.4C1761.76 843.4 1765.86 846.7 1765.86 855.1V887H1776.46V854C1776.46 841.1 1770.36 834.8 1758.76 834.8C1750.66 834.8 1745.36 838.1 1742.56 843.3H1742.36C1742.56 841.7 1742.76 839 1742.76 836.7V836.2H1732.16V887Z" fill="white"/>
<path d="M1794.52 830H1797.43V824.54H1800.7V822.14H1797.43V808.88H1793.23L1784.05 822.11V824.54H1794.52V830ZM1787.05 822.14V822.08L1794.46 811.37H1794.52V822.14H1787.05ZM1805.29 830H1808.23C1808.95 821.84 1811.32 816.41 1815.46 811.34V808.88H1801.33V811.31H1812.22V811.37C1809.04 815.36 1805.95 821.27 1805.29 830ZM1824.98 830.42C1829.24 830.42 1832.3 827.84 1832.3 823.4C1832.3 818.96 1829.33 816.32 1825.61 816.32C1823.54 816.32 1822.04 817.19 1821.17 818.18L1821.11 818.15L1821.98 811.34H1831.22V808.88H1819.37L1817.9 820.91H1820.99C1821.71 819.65 1823.12 818.72 1825.01 818.72C1827.68 818.72 1829.42 820.49 1829.42 823.4C1829.42 826.34 1827.62 828.02 1825.01 828.02C1822.67 828.02 1820.9 826.85 1820.48 824.21H1817.6C1817.78 827.78 1820.57 830.42 1824.98 830.42Z" fill="white"/>
<path d="M1881.19 887H1906.99C1932.49 887 1942.19 872 1942.19 851.8C1942.19 831.6 1932.49 816.6 1906.99 816.6H1881.19V887ZM1894.39 876.3V827.3H1906.79C1922.79 827.3 1928.79 836.4 1928.79 851.8C1928.79 867.2 1922.79 876.3 1906.79 876.3H1894.39ZM1970.56 879.9C1965.06 879.9 1961.86 877.2 1961.86 873.1C1961.86 868.8 1964.86 866.9 1970.66 865.9L1982.76 863.8V867.4C1982.76 875.6 1977.46 879.9 1970.56 879.9ZM1949.16 872.9C1949.16 882.2 1956.16 888.4 1967.76 888.4C1975.36 888.4 1980.16 884.8 1982.76 880.8H1982.96V887H1994.56V852.9C1994.56 840.2 1986.66 834.8 1973.36 834.8C1959.96 834.8 1950.66 840.3 1950.56 853.1H1962.86C1963.36 845.7 1967.66 843.9 1973.36 843.9C1978.96 843.9 1982.46 846.3 1982.46 851.4C1982.46 854.3 1981.36 855.4 1978.06 855.8L1967.56 857.3C1954.86 859.2 1949.16 863.8 1949.16 872.9ZM2017.77 887H2033.77L2051.97 836.2H2039.17L2026.07 876H2025.87L2012.67 836.2H1999.47L2017.77 887ZM2057.94 887H2070.34V836.2H2057.94V887ZM2057.94 828.6H2070.34V816.6H2057.94V828.6ZM2101.37 888.4C2109.57 888.4 2114.07 885.1 2116.77 880.1H2116.97C2116.77 881.5 2116.67 883.6 2116.67 885.6V887H2129.17V816.6H2116.67V837.1C2116.67 839 2116.77 841.8 2116.97 842.8H2116.57C2113.97 837.9 2109.47 834.8 2101.57 834.8C2087.67 834.8 2078.97 844.9 2078.97 861.7C2078.97 878.5 2087.47 888.4 2101.37 888.4ZM2091.87 861.7C2091.87 850.3 2095.97 844.4 2104.27 844.4C2112.57 844.4 2116.97 850.3 2116.97 861.7C2116.97 873 2112.57 878.9 2104.27 878.9C2095.97 878.9 2091.87 873 2091.87 861.7ZM2169.42 851.5H2181.52C2181.02 839.9 2173.42 835 2160.22 835C2147.42 835 2138.92 840.5 2138.92 850.4C2138.92 859.8 2145.52 863.3 2153.42 865.1L2162.92 867.2C2167.12 868.2 2169.42 869.9 2169.42 873.3C2169.42 877.4 2166.02 879.7 2160.52 879.7C2154.92 879.7 2150.12 878.1 2149.62 870.7H2137.42C2137.62 883 2145.72 888.4 2160.32 888.4C2173.72 888.4 2182.12 883.2 2182.12 872.6C2182.12 862.7 2176.72 859.3 2168.02 857.5L2158.22 855.3C2154.12 854.5 2151.42 853 2151.42 849.7C2151.42 845.5 2155.32 843.7 2160.22 843.7C2165.12 843.7 2169.02 845.4 2169.42 851.5ZM2214.01 888.4C2229.61 888.4 2240.11 878.4 2240.11 861.6C2240.11 844.8 2229.61 834.8 2214.01 834.8C2198.31 834.8 2187.91 844.8 2187.91 861.6C2187.91 878.4 2198.31 888.4 2214.01 888.4ZM2200.81 861.6C2200.81 850.2 2204.91 844 2214.01 844C2223.11 844 2227.21 850.2 2227.21 861.6C2227.21 872.9 2223.11 879.2 2214.01 879.2C2204.91 879.2 2200.81 872.9 2200.81 861.6ZM2249.07 887H2261.47V856.8C2261.47 848.1 2266.57 844.8 2272.77 844.8C2278.77 844.8 2282.57 847.6 2282.57 855.5V887H2294.97V854.3C2294.97 841 2288.87 834.8 2277.27 834.8C2269.47 834.8 2264.07 838 2261.27 843H2261.07C2261.17 841.6 2261.47 838.9 2261.47 836.6V836.2H2249.07V887Z" fill="white"/>
<path d="M2309.79 830.42C2314.05 830.42 2317.11 827.84 2317.11 823.4C2317.11 818.96 2314.14 816.32 2310.42 816.32C2308.35 816.32 2306.85 817.19 2305.98 818.18L2305.92 818.15L2306.79 811.34H2316.03V808.88H2304.18L2302.71 820.91H2305.8C2306.52 819.65 2307.93 818.72 2309.82 818.72C2312.49 818.72 2314.23 820.49 2314.23 823.4C2314.23 826.34 2312.43 828.02 2309.82 828.02C2307.48 828.02 2305.71 826.85 2305.29 824.21H2302.41C2302.59 827.78 2305.38 830.42 2309.79 830.42ZM2326.9 830.42C2331.16 830.42 2334.22 827.84 2334.22 823.4C2334.22 818.96 2331.25 816.32 2327.53 816.32C2325.46 816.32 2323.96 817.19 2323.09 818.18L2323.03 818.15L2323.9 811.34H2333.14V808.88H2321.29L2319.82 820.91H2322.91C2323.63 819.65 2325.04 818.72 2326.93 818.72C2329.6 818.72 2331.34 820.49 2331.34 823.4C2331.34 826.34 2329.54 828.02 2326.93 828.02C2324.59 828.02 2322.82 826.85 2322.4 824.21H2319.52C2319.7 827.78 2322.49 830.42 2326.9 830.42ZM2344.73 830.45C2350.25 830.45 2352.74 825.62 2352.74 819.44C2352.74 813.26 2350.25 808.43 2344.73 808.43C2339.18 808.43 2336.72 813.26 2336.72 819.44C2336.72 825.62 2339.18 830.45 2344.73 830.45ZM2339.66 819.44C2339.66 814.55 2341.16 810.86 2344.73 810.86C2348.3 810.86 2349.8 814.55 2349.8 819.44C2349.8 824.33 2348.3 828.02 2344.73 828.02C2341.16 828.02 2339.66 824.33 2339.66 819.44Z" fill="white"/>
<path d="M2395.72 887H2423.32C2448.92 887 2459.52 873.1 2459.52 851.8C2459.52 830.5 2448.92 816.6 2423.32 816.6H2395.72V887ZM2412.72 873.2V830.4H2422.92C2437.12 830.4 2442.12 838 2442.12 851.8C2442.12 865.6 2437.12 873.2 2422.92 873.2H2412.72ZM2487.77 878C2483.37 878 2481.17 876 2481.17 873C2481.17 870 2483.27 868.6 2486.97 867.9L2497.47 865.8V868.2C2497.47 875 2493.07 878 2487.77 878ZM2464.77 872.6C2464.77 882.2 2471.77 888.4 2483.37 888.4C2490.97 888.4 2495.47 884.8 2497.67 881.4H2497.87V887H2512.97V853.7C2512.97 840.1 2504.17 834.8 2490.17 834.8C2476.17 834.8 2466.07 840.2 2465.97 853.6H2481.97C2482.37 847.6 2485.77 846.2 2490.17 846.2C2494.57 846.2 2497.27 848 2497.27 851.9C2497.27 854.3 2496.17 855.3 2493.17 855.7L2483.17 857.1C2470.17 858.9 2464.77 863.8 2464.77 872.6ZM2533.26 887H2553.86L2571.36 836.2H2554.66L2543.96 873H2543.76L2532.96 836.2H2515.76L2533.26 887ZM2575.19 887H2591.39V836.2H2575.19V887ZM2575.19 830.6H2591.39V816.6H2575.19V830.6ZM2619.81 888.4C2627.81 888.4 2631.81 885.4 2634.21 881H2634.41C2634.21 882.6 2634.01 884.2 2634.01 886.2V887H2650.21V816.6H2634.01V836.5C2634.01 838.2 2634.21 840.7 2634.41 841.8H2634.01C2631.61 837.5 2627.61 834.8 2620.01 834.8C2606.41 834.8 2597.61 844.9 2597.61 861.7C2597.61 878.5 2606.21 888.4 2619.81 888.4ZM2614.41 861.7C2614.41 851.7 2617.41 847 2624.21 847C2631.01 847 2634.41 851.7 2634.41 861.7C2634.41 871.7 2631.01 876.4 2624.21 876.4C2617.41 876.4 2614.41 871.7 2614.41 861.7ZM2687.65 851.8H2703.05C2702.75 840.5 2695.05 835.2 2680.35 835.2C2666.35 835.2 2657.65 840.9 2657.65 851.1C2657.65 860.9 2664.35 864.6 2672.15 866.4L2681.85 868.6C2685.45 869.4 2687.25 870.8 2687.25 873.2C2687.25 875.9 2684.75 877.6 2680.55 877.6C2676.15 877.6 2672.35 876.4 2672.05 870.6H2656.45C2656.55 882.1 2663.65 888.4 2680.25 888.4C2695.25 888.4 2703.65 882.9 2703.65 871.9C2703.65 861.5 2697.75 858.4 2689.05 856.5L2679.05 854.3C2675.65 853.6 2673.85 852.4 2673.85 850.1C2673.85 847.1 2676.65 845.9 2680.35 845.9C2684.25 845.9 2687.35 847.2 2687.65 851.8ZM2735.02 888.4C2751.42 888.4 2762.22 878.4 2762.22 861.6C2762.22 844.8 2751.42 834.8 2735.02 834.8C2718.62 834.8 2707.82 844.8 2707.82 861.6C2707.82 878.4 2718.62 888.4 2735.02 888.4ZM2724.62 861.6C2724.62 851.6 2727.42 846.4 2735.02 846.4C2742.62 846.4 2745.42 851.6 2745.42 861.6C2745.42 871.6 2742.62 876.8 2735.02 876.8C2727.42 876.8 2724.62 871.6 2724.62 861.6ZM2769.26 887H2785.46V857.7C2785.46 850.1 2789.56 847.6 2794.76 847.6C2799.26 847.6 2802.46 849.5 2802.46 856.3V887H2818.66V854.9C2818.66 840.9 2812.46 834.8 2800.86 834.8C2793.76 834.8 2788.06 837.8 2785.06 842.6H2784.86C2785.06 841.5 2785.46 838.8 2785.46 836.4V836.2H2769.26V887Z" fill="white"/>
<path d="M2828.62 830H2831.56C2832.28 821.84 2834.65 816.41 2838.79 811.34V808.88H2824.66V811.31H2835.55V811.37C2832.37 815.36 2829.28 821.27 2828.62 830ZM2848.45 830.45C2853.97 830.45 2856.46 825.62 2856.46 819.44C2856.46 813.26 2853.97 808.43 2848.45 808.43C2842.9 808.43 2840.44 813.26 2840.44 819.44C2840.44 825.62 2842.9 830.45 2848.45 830.45ZM2843.38 819.44C2843.38 814.55 2844.88 810.86 2848.45 810.86C2852.02 810.86 2853.52 814.55 2853.52 819.44C2853.52 824.33 2852.02 828.02 2848.45 828.02C2844.88 828.02 2843.38 824.33 2843.38 819.44ZM2867.47 830.45C2872.99 830.45 2875.48 825.62 2875.48 819.44C2875.48 813.26 2872.99 808.43 2867.47 808.43C2861.92 808.43 2859.46 813.26 2859.46 819.44C2859.46 825.62 2861.92 830.45 2867.47 830.45ZM2862.4 819.44C2862.4 814.55 2863.9 810.86 2867.47 810.86C2871.04 810.86 2872.54 814.55 2872.54 819.44C2872.54 824.33 2871.04 828.02 2867.47 828.02C2863.9 828.02 2862.4 824.33 2862.4 819.44Z" fill="white"/>
</svg>
