<svg width="3200" height="1707" viewBox="0 0 3200 1707" fill="none" xmlns="http://www.w3.org/2000/svg">
<rect width="3200" height="1707" fill="white"/>
<path d="M290.762 1377H479.632V1071.47H824.042V918.157H479.632V748.174H850.706V594.856H290.762V1377ZM877.248 1377H1057.23V594.856H877.248V1377ZM1341.85 1281.45C1290.75 1281.45 1264.08 1257.01 1264.08 1223.68C1264.08 1190.35 1289.64 1173.69 1328.52 1165.91L1372.96 1157.02C1417.4 1148.13 1437.4 1134.8 1449.62 1121.47V1168.13C1449.62 1243.68 1401.85 1281.45 1341.85 1281.45ZM1086.32 1218.13C1086.32 1315.89 1166.32 1392.55 1295.19 1392.55C1379.63 1392.55 1427.4 1352.56 1451.84 1314.78H1454.07V1377H1621.83V1005.93C1621.83 861.496 1532.95 797.058 1368.52 797.058C1204.09 797.058 1099.66 872.606 1099.66 1005.93H1278.53C1280.75 943.71 1320.75 923.712 1368.52 923.712C1417.4 923.712 1447.4 941.488 1447.4 981.484C1447.4 1008.15 1431.85 1023.7 1395.18 1029.26L1266.31 1049.25C1141.87 1068.14 1086.32 1120.36 1086.32 1218.13ZM1940.62 1377H2008.39V1248.12H1987.28C1929.51 1248.12 1902.85 1241.46 1902.85 1185.91V941.488H2008.39V812.612H1901.74L1899.52 810.39C1901.74 798.169 1902.85 781.504 1902.85 767.061V652.628H1723.98V738.175C1723.98 791.503 1703.98 812.612 1656.21 812.612H1630.65V941.488H1723.98V1215.9C1723.98 1340.34 1767.31 1377 1940.62 1377ZM2304.95 1377H2372.72V1248.12H2351.61C2293.84 1248.12 2267.18 1241.46 2267.18 1185.91V941.488H2372.72V812.612H2266.07L2263.85 810.39C2266.07 798.169 2267.18 781.504 2267.18 767.061V652.628H2088.31V738.175C2088.31 791.503 2068.31 812.612 2020.54 812.612H1994.98V941.488H2088.31V1215.9C2088.31 1340.34 2131.64 1377 2304.95 1377ZM2543.43 1595.87C2666.75 1595.87 2732.3 1546.98 2780.07 1417L2996.72 812.612H2811.18L2691.19 1207.02H2688.97L2573.42 812.612H2379L2565.65 1322.56C2573.42 1344.78 2578.98 1364.78 2578.98 1381.44C2578.98 1425.88 2553.43 1448.1 2500.1 1448.1C2482.32 1448.1 2461.21 1445.88 2442.33 1443.66V1586.98C2470.1 1591.42 2500.1 1595.87 2543.43 1595.87Z" fill="black"/>
</svg>
