<svg width="3200" height="1707" viewBox="0 0 3200 1707" fill="none" xmlns="http://www.w3.org/2000/svg">
<rect width="3200" height="1707" fill="white"/>
<path d="M281.072 1377H469.942V1071.47H814.352V918.157H469.942V748.174H841.016V594.856H281.072V1377ZM867.559 1377H1047.54V594.856H867.559V1377ZM1336.61 1281.45C1286.61 1281.45 1263.28 1257.01 1263.28 1223.68C1263.28 1190.35 1286.61 1173.69 1325.5 1165.91L1369.94 1157.02C1413.27 1148.13 1431.04 1139.25 1444.38 1128.14V1168.13C1444.38 1243.68 1395.49 1281.45 1336.61 1281.45ZM1081.08 1218.13C1081.08 1324.78 1158.85 1392.55 1287.73 1392.55C1372.16 1392.55 1422.16 1352.56 1446.6 1314.78H1448.82V1377H1616.58V1007.04C1616.58 851.497 1528.81 797.058 1364.38 797.058C1199.96 797.058 1094.41 859.274 1094.41 1005.93H1273.28C1277.73 937.044 1315.5 923.712 1364.38 923.712C1412.16 923.712 1442.15 941.488 1442.15 985.928C1442.15 1010.37 1426.6 1023.7 1389.94 1029.26L1261.06 1049.25C1136.63 1068.14 1081.08 1120.36 1081.08 1218.13ZM1949.51 1377H2012.83V1245.9H1996.17C1938.4 1245.9 1911.73 1241.46 1911.73 1185.91V941.488H2013.95V812.612H1909.51L1907.29 810.39C1910.62 794.836 1911.73 782.615 1911.73 764.839V652.628H1736.2V732.62C1736.2 791.503 1709.53 812.612 1653.98 812.612H1638.43V941.488H1731.75V1215.9C1731.75 1340.34 1776.19 1377 1949.51 1377ZM2322.52 1377H2385.84V1245.9H2369.18C2311.41 1245.9 2284.74 1241.46 2284.74 1185.91V941.488H2386.96V812.612H2282.52L2280.3 810.39C2283.63 794.836 2284.74 782.615 2284.74 764.839V652.628H2109.21V732.62C2109.21 791.503 2082.54 812.612 2026.99 812.612H2011.44V941.488H2104.76V1215.9C2104.76 1340.34 2149.2 1377 2322.52 1377ZM2528.56 1585.87C2712.99 1585.87 2754.1 1546.98 2800.76 1417L3017.4 812.612H2832.98L2714.1 1203.68H2711.88L2591.89 812.612H2399.69L2586.34 1322.56C2594.11 1344.78 2600.78 1368.11 2600.78 1385.89C2600.78 1429.22 2579.67 1443.66 2519.68 1443.66H2463.02V1585.87H2528.56Z" fill="black"/>
</svg>
