<svg width="3200" height="1707" viewBox="0 0 3200 1707" fill="none" xmlns="http://www.w3.org/2000/svg">
<rect width="3200" height="1707" fill="white"/>
<path d="M326.683 1377H515.553V1071.47H808.857V918.157H515.553V748.174H862.185V594.856H326.683V1377ZM883.876 1377H1061.64V594.856H883.876V1377ZM1282.99 1392.55C1369.64 1392.55 1421.86 1352.56 1448.52 1317.01H1450.75V1377H1617.4V1008.15C1617.4 861.496 1517.41 801.502 1366.31 801.502C1215.21 801.502 1103 865.94 1099.67 1008.15H1277.43C1280.76 944.821 1318.54 925.934 1366.31 925.934C1415.19 925.934 1444.08 944.821 1444.08 988.15C1444.08 1009.26 1430.75 1024.81 1395.2 1030.37L1275.21 1048.14C1141.89 1068.14 1090.78 1120.36 1090.78 1218.13C1090.78 1320.34 1156.33 1392.55 1282.99 1392.55ZM1268.54 1214.79C1268.54 1182.57 1286.32 1168.13 1335.2 1158.13L1386.31 1148.13C1417.42 1142.58 1435.19 1134.8 1446.3 1124.8V1159.24C1446.3 1234.79 1396.31 1271.45 1336.31 1271.45C1291.87 1271.45 1268.54 1249.23 1268.54 1214.79ZM1906.4 1381.44C1948.62 1381.44 1976.4 1379.22 1997.51 1377V1242.57H1993.06C1978.62 1243.68 1974.17 1243.68 1964.18 1243.68C1931.96 1243.68 1890.85 1239.24 1890.85 1183.69V950.376H1995.28V817.056H1890.85V652.628H1713.09V817.056H1624.21V950.376H1713.09V1221.46C1713.09 1345.89 1781.97 1381.44 1906.4 1381.44ZM2262.05 1381.44C2304.27 1381.44 2332.05 1379.22 2353.16 1377V1242.57H2348.71C2334.27 1243.68 2329.82 1243.68 2319.83 1243.68C2287.61 1243.68 2246.5 1239.24 2246.5 1183.69V950.376H2350.93V817.056H2246.5V652.628H2068.74V817.056H1979.86V950.376H2068.74V1221.46C2068.74 1345.89 2137.62 1381.44 2262.05 1381.44ZM2520.73 1594.76C2642.94 1594.76 2708.49 1545.87 2755.16 1417L2970.69 817.056H2786.26L2667.39 1208.13H2665.16L2550.73 817.056H2357.42L2542.95 1322.56C2550.73 1344.78 2556.29 1364.78 2556.29 1381.44C2556.29 1425.88 2530.73 1448.1 2477.41 1448.1C2459.63 1448.1 2438.52 1445.88 2420.74 1443.66V1585.87C2447.41 1590.31 2477.41 1594.76 2520.73 1594.76Z" fill="black"/>
</svg>
