<svg width="3200" height="1707" viewBox="0 0 3200 1707" fill="none" xmlns="http://www.w3.org/2000/svg">
<rect width="3200" height="1707" fill="black"/>
<path d="M512.456 495H540.728L556.6 450.608H631.496L647.368 495H677.128L610.664 320.408H578.92L512.456 495ZM564.784 428.04L593.8 347.192H594.296L623.312 428.04H564.784ZM696.491 495H776.595C809.579 495 830.907 478.384 830.907 447.632C830.907 427.544 820.243 411.176 798.915 405.224C817.019 398.032 825.451 385.384 825.451 366.288C825.451 336.528 804.619 320.408 772.875 320.408H696.491V495ZM724.267 472.184V416.632H772.379C791.475 416.632 802.635 426.056 802.635 444.408C802.635 462.512 791.475 472.184 772.379 472.184H724.267ZM724.267 394.808V343.224H769.403C786.515 343.224 797.427 351.656 797.427 369.016C797.427 386.376 786.515 394.808 769.403 394.808H724.267ZM933.11 498.72C977.998 498.72 1004.78 474.416 1008.25 433.992H980.478C977.254 461.024 961.63 475.904 933.11 475.904C896.654 475.904 876.318 449.616 876.318 407.704C876.318 366.288 896.654 340 933.11 340C960.638 340 975.27 355.128 979.238 379.68H1007.01C1003.29 340.992 977.502 316.688 933.11 316.688C881.774 316.688 847.798 352.648 847.798 407.704C847.798 462.76 880.534 498.72 933.11 498.72ZM1032.41 495H1094.17C1157.16 495 1180.22 456.56 1180.22 407.704C1180.22 358.848 1157.16 320.408 1094.17 320.408H1032.41V495ZM1060.44 472.184V343.224H1093.67C1135.58 343.224 1151.95 367.528 1151.95 407.704C1151.95 447.88 1135.58 472.184 1093.67 472.184H1060.44ZM1206.44 495H1326.23V472.432H1234.22V417.872H1316.8V395.552H1234.22V342.976H1326.23V320.408H1206.44V495ZM1351.16 495H1378.93V420.6H1461.27V396.544H1378.93V344.216H1467.22V320.408H1351.16V495ZM1489.81 495H1517.59V418.12H1605.13V495H1632.91V320.408H1605.13V395.304H1517.59V320.408H1489.81V495ZM1667.7 495H1695.48V320.408H1667.7V495ZM1776.18 498.968C1811.4 498.968 1831.73 485.328 1831.73 447.632V320.408H1803.71V446.144C1803.71 467.224 1794.78 475.656 1775.69 475.656C1756.59 475.656 1746.67 466.48 1746.67 446.392V432.256H1719.14V447.384C1719.14 485.08 1742.21 498.968 1776.18 498.968ZM1865.58 495H1893.36V412.168L1965.52 495H2000.99L1920.39 403.488L1998.01 320.408H1964.78L1893.36 397.536V320.408H1865.58V495ZM2017.07 495H2044.85V441.432L2076.1 407.456L2126.44 495H2158.19L2095.19 386.624L2155.95 320.408H2121.98L2044.85 405.72V320.408H2017.07V495ZM2175.35 495H2291.16V472.184H2203.12V320.408H2175.35V495ZM2312.07 495H2338.6V350.416L2387.96 495H2420.44L2469.8 350.416V495H2496.33V320.408H2454.17L2404.32 468.216L2354.48 320.408H2312.07V495ZM2531.13 495H2557.67V355.376L2640 495H2671V320.408H2644.22V454.824L2564.86 320.408H2531.13V495ZM592.539 746.72C644.371 746.72 678.099 710.76 678.099 655.704C678.099 600.648 644.371 564.688 592.539 564.688C540.459 564.688 506.731 600.648 506.731 655.704C506.731 710.76 540.459 746.72 592.539 746.72ZM535.251 655.704C535.251 614.288 555.587 588 592.539 588C629.243 588 649.579 614.288 649.579 655.704C649.579 697.12 629.243 723.408 592.539 723.408C555.587 723.408 535.251 697.12 535.251 655.704ZM704.189 743H731.965V670.336H783.053C820.501 670.336 839.349 652.48 839.349 619.248C839.349 586.264 820.501 568.408 783.053 568.408H704.189V743ZM731.965 647.52V591.224H780.325C800.413 591.224 810.829 601.64 810.829 619.248C810.829 637.104 800.661 647.52 780.573 647.52H731.965ZM1013.28 751.432L1026.92 731.344L1004.85 715.968C1017.25 700.344 1024.19 679.76 1024.19 655.704C1024.19 601.888 988.978 564.688 938.634 564.688C888.042 564.688 852.826 601.888 852.826 655.704C852.826 709.52 888.042 746.72 938.634 746.72C956.986 746.72 973.354 741.76 986.746 732.832L1013.28 751.432ZM881.346 655.704C881.346 614.288 902.922 588 938.634 588C974.098 588 995.674 614.288 995.674 655.704C995.674 674.304 991.458 689.68 983.522 701.088L943.842 673.56L930.202 693.4L964.922 717.456C957.234 721.424 948.554 723.408 938.634 723.408C902.922 723.408 881.346 697.12 881.346 655.704ZM1052.23 743H1079.76V666.368H1128.61C1146.72 666.368 1155.89 671.328 1155.89 689.928V743H1183.42V689.184C1183.42 665.376 1172.51 659.176 1157.63 656.2V655.952C1172.01 650.992 1186.64 640.576 1186.64 616.52C1186.64 584.032 1168.04 568.408 1130.6 568.408H1052.23V743ZM1079.76 591.224H1128.36C1148.2 591.224 1158.62 600.152 1158.62 617.512C1158.62 634.872 1148.45 644.296 1128.36 644.296H1080L1079.76 591.224ZM1214.86 743H1242.39V666.368H1291.25C1309.35 666.368 1318.53 671.328 1318.53 689.928V725.888C1318.53 734.32 1319.02 739.528 1321.01 743H1349.77V742.008C1346.8 737.544 1346.05 731.592 1346.05 724.152V689.184C1346.05 665.376 1335.14 659.176 1320.26 656.2V655.952C1334.65 650.992 1349.28 640.576 1349.28 616.52C1349.28 584.032 1330.68 568.408 1293.23 568.408H1214.86V743ZM1242.39 591.224H1291C1310.84 591.224 1321.25 600.152 1321.25 617.512C1321.25 634.872 1311.09 644.296 1291 644.296H1242.64L1242.39 591.224ZM1441.7 746.72C1482.38 746.72 1507.92 727.376 1507.92 693.896C1507.92 663.64 1490.56 650.248 1460.8 643.8L1430.05 637.352C1414.92 633.88 1402.77 628.176 1402.77 613.296C1402.77 596.68 1418.14 586.264 1438.48 586.264C1459.56 586.264 1475.18 595.688 1476.42 618.752H1503.95C1503.21 579.072 1473.2 564.688 1438.48 564.688C1401.78 564.688 1374.99 583.536 1374.99 614.536C1374.99 644.544 1394.83 656.2 1424.59 662.4L1451.13 668.104C1467.74 671.824 1480.14 678.768 1480.14 695.136C1480.14 713.24 1465.51 724.896 1442.45 724.896C1416.9 724.896 1399.05 716.96 1397.56 685.712H1369.78C1370.28 731.84 1399.05 746.72 1441.7 746.72ZM1573.9 743H1601.68V591.224H1661.2V568.408H1514.63V591.224H1573.9V743ZM1749.88 746.968C1790.8 746.968 1818.57 728.616 1818.57 684.72V568.408H1790.8V683.728C1790.8 711.504 1775.92 723.656 1749.88 723.656C1723.59 723.656 1708.46 711.504 1708.46 683.728V568.408H1680.68V684.72C1680.68 728.616 1708.71 746.968 1749.88 746.968ZM1900.45 743H1934.18L1998.66 568.408H1969.39L1917.81 717.704H1917.31L1865.98 568.408H1835.97L1900.45 743ZM2051.34 743H2084.57L2122.02 600.896H2122.51L2159.47 743H2192.7L2239.32 568.408H2212.54L2176.08 710.016H2175.59L2138.88 568.408H2106.15L2069.44 709.024H2068.95L2033.23 568.408H2004.71L2051.34 743ZM2244.78 743H2276.03L2321.91 674.552L2367.54 743H2398.79L2339.02 655.456L2398.29 568.408H2367.29L2321.91 637.104L2276.27 568.408H2245.27L2305.04 655.456L2244.78 743ZM2461.87 743H2489.65V669.344L2552.39 568.408H2521.89L2476.75 643.056H2476.01L2431.61 568.408H2399.13L2461.87 669.592V743ZM2557.82 743H2695.95V719.44H2593.03L2692.98 589.24V568.408H2560.3V591.968H2657.76L2557.82 722.168V743ZM761.113 975.872C746.481 975.872 737.057 967.936 737.057 956.776C737.057 944.128 745.489 939.168 762.601 936.44L794.345 930.984V941.648C794.345 963.72 780.457 975.872 761.113 975.872ZM710.273 956.28C710.273 978.848 727.385 994.472 756.153 994.472C775.249 994.472 787.649 985.544 794.345 974.88H794.841V991H819.393V905.44C819.393 874.936 800.793 861.544 768.553 861.544C736.065 861.544 714.241 875.184 713.745 906.184H739.785C741.025 886.344 752.929 881.384 768.553 881.384C784.177 881.384 793.849 887.832 793.849 902.216C793.849 909.904 790.873 912.632 782.441 913.872L755.905 917.592C724.409 922.304 710.273 933.464 710.273 956.28ZM887.308 994.472C907.148 994.472 920.044 985.544 926.74 973.888H927.236C927.98 986.536 935.172 991 954.516 991H965.428V971.656H962.452C953.772 971.656 950.3 970.168 950.3 962.976V905.44C950.3 874.936 931.7 861.544 899.46 861.544C866.972 861.544 845.148 875.184 844.652 906.184H870.692C871.932 886.344 883.836 881.384 899.46 881.384C915.084 881.384 924.756 887.832 924.756 902.216C924.756 909.904 921.78 912.632 913.348 913.872L886.812 917.592C855.316 922.304 841.18 933.464 841.18 956.28C841.18 978.848 858.292 994.472 887.308 994.472ZM867.964 956.776C867.964 944.128 876.396 939.168 893.508 936.44L925.252 930.984V941.648C925.252 963.72 911.364 975.872 892.02 975.872C877.388 975.872 867.964 967.936 867.964 956.776ZM1045.21 994.472C1079.93 994.472 1101.01 969.672 1101.01 928.008C1101.01 886.344 1079.93 861.544 1044.96 861.544C1025.12 861.544 1012.97 869.728 1006.28 882.872H1005.53C1005.78 880.144 1006.03 872.952 1006.03 868.24V816.408H979.492V991H1006.03V986.784C1006.03 981.824 1005.78 975.872 1005.53 972.648H1006.03C1012.72 985.792 1024.88 994.472 1045.21 994.472ZM1005.28 928.008C1005.28 898.248 1017.68 882.128 1040.25 882.128C1062.57 882.128 1073.98 898.248 1073.98 928.008C1073.98 958.016 1062.57 974.136 1040.25 974.136C1017.68 974.136 1005.28 958.016 1005.28 928.008ZM1177.31 994.472C1211.78 994.472 1231.87 976.12 1233.6 945.368H1207.31C1205.33 965.952 1195.16 974.384 1177.31 974.384C1153.5 974.384 1143.58 957.272 1143.58 928.008C1143.58 898.496 1153.99 881.632 1177.55 881.632C1195.41 881.632 1204.09 890.808 1206.57 906.184H1232.86C1230.38 879.152 1211.78 861.544 1177.55 861.544C1139.61 861.544 1116.3 886.344 1116.3 928.008C1116.3 969.672 1138.62 994.472 1177.31 994.472ZM1303.49 994.472C1324.07 994.472 1335.98 985.792 1342.67 972.648H1343.17C1342.92 975.872 1342.67 981.824 1342.67 986.784V991H1369.21V816.408H1342.67V868.24C1342.67 872.952 1342.92 880.144 1343.17 882.872H1342.67C1335.73 869.728 1323.82 861.544 1303.74 861.544C1269.02 861.544 1247.69 886.344 1247.69 928.008C1247.69 969.672 1268.77 994.472 1303.49 994.472ZM1274.97 928.008C1274.97 898.248 1286.13 882.128 1308.7 882.128C1331.02 882.128 1343.42 898.248 1343.42 928.008C1343.42 958.016 1331.02 974.136 1308.7 974.136C1286.13 974.136 1274.97 958.016 1274.97 928.008ZM1452.69 994.472C1486.42 994.472 1505.77 976.12 1509.73 952.064H1482.7C1479.48 967.44 1469.56 974.88 1452.69 974.88C1431.61 974.88 1419.46 962.232 1418.47 934.456H1510.97V931.48C1510.97 884.36 1488.9 861.792 1452.69 861.792C1414.75 861.792 1391.19 887.336 1391.19 928.504C1391.19 969.92 1413.76 994.472 1452.69 994.472ZM1419.46 915.112C1421.2 894.528 1433.35 881.136 1452.45 881.136C1471.29 881.136 1481.71 893.536 1482.95 915.112H1419.46ZM1540.9 991H1567.19V885.104H1592.73V865.016H1567.19V855.096C1567.19 840.96 1574.38 836.744 1590.75 836.744H1593.72V816.408H1587.27C1553.55 816.408 1540.9 827.072 1540.9 853.608V865.016H1519.32V885.104H1540.9V991ZM1662.69 1041.1C1698.15 1041.1 1720.72 1025.47 1720.72 986.536V865.016H1694.43V868.24C1694.43 872.952 1694.68 877.912 1694.93 882.376H1694.43C1687.73 869.48 1675.83 861.792 1655.99 861.792C1623.01 861.792 1600.93 884.608 1600.93 924.288C1600.93 963.968 1623.25 986.784 1656.24 986.784C1676.08 986.784 1688.73 978.6 1695.42 965.456H1695.92C1695.67 970.416 1695.67 976.616 1695.42 988.272C1694.93 1013.32 1682.28 1021.5 1662.93 1021.5C1646.32 1021.5 1632.43 1016.05 1629.7 996.704H1603.41C1605.89 1025.22 1628.21 1041.1 1662.69 1041.1ZM1628.21 924.288C1628.21 897.504 1640.12 882.376 1661.45 882.376C1682.53 882.376 1695.17 897.504 1695.17 924.288C1695.17 951.072 1682.53 966.2 1661.45 966.2C1640.12 966.2 1628.21 951.072 1628.21 924.288ZM1749.19 991H1775.48V914.864C1775.48 892.296 1789.37 882.872 1805.98 882.872C1822.6 882.872 1832.77 891.056 1832.77 911.888V991H1859.06V909.16C1859.06 877.168 1843.93 861.544 1815.16 861.544C1795.07 861.544 1781.93 869.728 1774.98 882.624H1774.49C1774.98 878.656 1775.48 871.96 1775.48 866.256V816.408H1749.19V991ZM1885.89 991H1911.93V865.016H1885.89V991ZM1885.89 843.936H1911.93V816.408H1885.89V843.936ZM1929.62 1039.36C1955.42 1039.36 1968.06 1032.66 1968.06 1007.62V865.016H1942.02V1004.89C1942.02 1017.04 1936.57 1019.52 1923.92 1019.52H1920.2V1039.36H1929.62ZM1942.02 843.936H1968.06V816.408H1942.02V843.936ZM1996.11 991H2022.39V931.976L2074.23 991H2106.96L2047.94 924.288L2104.98 865.016H2074.23L2022.39 919.328V816.408H1996.11V991ZM2119.01 991H2145.05V954.792L2168.36 929.744L2201.1 991H2230.61L2186.47 910.4L2228.63 865.016H2197.13L2145.05 922.056V813.432H2119.01V991ZM2246.53 991H2272.82V816.408H2246.53V991ZM2300.68 991H2326.97V913.624C2326.97 893.288 2339.12 882.872 2354.5 882.872C2370.12 882.872 2378.8 892.296 2378.8 912.136V991H2404.84V913.624C2404.84 893.288 2416.75 882.872 2432.12 882.872C2448 882.872 2456.43 892.296 2456.43 912.136V991H2482.47V908.912C2482.47 877.912 2470.32 861.544 2441.55 861.544C2421.96 861.544 2408.32 870.224 2399.64 884.856H2399.39C2395.42 870.968 2384.01 861.544 2363.18 861.544C2344.58 861.544 2333.17 869.232 2326.48 881.632H2325.98C2326.48 877.912 2326.97 871.96 2326.97 866.256V865.016H2300.68V991ZM741.279 1242.47C779.223 1242.47 804.519 1217.67 804.519 1176.01C804.519 1134.34 779.223 1109.54 741.279 1109.54C703.335 1109.54 678.039 1134.34 678.039 1176.01C678.039 1217.67 703.335 1242.47 741.279 1242.47ZM705.319 1176.01C705.319 1146.25 716.975 1129.63 741.279 1129.63C765.831 1129.63 777.487 1146.25 777.487 1176.01C777.487 1205.77 765.831 1222.38 741.279 1222.38C716.975 1222.38 705.319 1205.77 705.319 1176.01ZM892.261 1109.54C871.925 1109.54 859.773 1117.98 853.077 1131.12H852.581C852.829 1128.14 853.077 1122.19 853.077 1117.23V1113.02H826.541V1286.12H853.077V1235.78C853.077 1231.06 852.829 1223.87 852.581 1221.14H853.325C860.021 1234.29 872.173 1242.47 892.013 1242.47C926.981 1242.47 948.061 1217.67 948.061 1176.01C948.061 1134.34 926.981 1109.54 892.261 1109.54ZM852.333 1176.01C852.333 1146 864.733 1129.88 887.301 1129.88C909.621 1129.88 921.029 1146 921.029 1176.01C921.029 1205.77 909.621 1221.89 887.301 1221.89C864.733 1221.89 852.333 1205.77 852.333 1176.01ZM1019.15 1109.54C984.426 1109.54 963.346 1134.34 963.346 1176.01C963.346 1217.67 984.674 1242.47 1019.39 1242.47C1039.48 1242.47 1051.39 1234.29 1058.33 1221.14H1058.83C1058.58 1223.87 1058.33 1231.06 1058.33 1235.78V1287.11H1084.87V1113.02H1058.33V1117.23C1058.33 1122.19 1058.58 1128.14 1058.83 1131.12H1058.33C1051.63 1117.98 1039.73 1109.54 1019.15 1109.54ZM990.626 1176.01C990.626 1146 1001.79 1129.88 1024.35 1129.88C1046.67 1129.88 1059.07 1146 1059.07 1176.01C1059.07 1205.77 1046.67 1221.89 1024.35 1221.89C1001.79 1221.89 990.626 1205.77 990.626 1176.01ZM1113.79 1239H1140.08V1179.23C1140.08 1151.21 1150.49 1135.34 1181.99 1135.34H1185.96V1111.03H1182.49C1159.92 1111.03 1145.53 1119.22 1139.09 1136.08H1138.59C1139.09 1128.39 1139.33 1121.45 1139.33 1115.25V1113.02H1113.79V1239ZM1273.51 1150.46H1299.05C1297.81 1121.7 1278.96 1110.04 1247.96 1110.04C1217.71 1110.04 1197.12 1123.18 1197.12 1147.49C1197.12 1170.3 1213.49 1178.74 1233.08 1182.95L1256.4 1188.16C1267.56 1190.64 1274 1195.6 1274 1205.27C1274 1216.93 1264.33 1223.38 1248.96 1223.38C1233.58 1223.38 1220.44 1219.16 1219.2 1198.82H1193.16C1193.65 1230.07 1214.73 1242.47 1248.71 1242.47C1279.71 1242.47 1301.04 1229.82 1301.04 1204.03C1301.04 1180.22 1287.89 1171.54 1266.56 1167.08L1242.26 1161.87C1231.1 1159.39 1223.66 1155.67 1223.66 1146C1223.66 1134.1 1234.57 1128.89 1247.96 1128.89C1261.85 1128.89 1272.02 1133.85 1273.51 1150.46ZM1374.92 1239H1384.34V1218.91H1380.13C1364.75 1218.91 1358.3 1216.43 1358.3 1202.54V1132.86H1383.85V1113.02H1358.05L1357.56 1112.52C1358.05 1109.79 1358.3 1106.82 1358.3 1102.85V1077.3H1332.51V1097.39C1332.51 1108.8 1328.54 1113.02 1316.64 1113.02H1309.69V1132.86H1332.01V1206.76C1332.01 1233.05 1344.41 1239 1374.92 1239ZM1512.43 1113.02H1486.39V1188.9C1486.39 1211.72 1473.74 1221.14 1457.12 1221.14C1440.51 1221.14 1430.59 1212.96 1430.59 1192.13V1113.02H1404.3V1194.36C1404.3 1227.34 1419.92 1242.72 1448.69 1242.72C1468.28 1242.72 1479.94 1234.29 1486.63 1221.39H1487.13C1486.88 1225.36 1486.39 1232.06 1486.39 1237.76V1239H1512.43V1113.02ZM1574.99 1239H1609.21L1655.34 1113.02H1628.31L1592.84 1215.44H1592.35L1556.64 1113.02H1528.86L1574.99 1239ZM1695.75 1239H1728.24L1754.77 1143.77H1755.52L1782.3 1239H1814.79L1849.76 1113.02H1824.46L1798.92 1210.23H1798.42L1770.89 1113.02H1740.89L1713.36 1210.48H1712.86L1687.32 1113.02H1660.78L1695.75 1239ZM1857.82 1239H1887.83L1919.82 1192.38H1920.32L1951.82 1239H1983.06L1937.93 1175.26L1982.07 1113.02H1952.81L1921.56 1158.65H1921.06L1889.57 1113.02H1858.57L1902.96 1175.26L1857.82 1239ZM2010.98 1283.89C2043.46 1283.89 2054.87 1277.19 2063.55 1253.14L2115.63 1113.02H2088.85L2053.38 1213.95H2052.89L2017.42 1113.02H1989.4L2032.3 1226.6C2034.54 1232.55 2036.02 1238.75 2036.02 1243.22C2036.02 1255.37 2030.57 1262.56 2010.98 1262.56H2001.06V1283.89H2010.98ZM2129.25 1239H2159.51V1208.74H2129.25V1239ZM2178.19 1263.3V1276.94C2200.51 1276.45 2213.65 1261.57 2213.65 1240.24V1208.74H2183.15V1239H2199.27V1240.49C2199.27 1255.12 2191.58 1262.06 2178.19 1263.3ZM2237.52 1239H2267.78V1208.74H2237.52V1239ZM2237.52 1145.5H2267.78V1115H2237.52V1145.5ZM2286.46 1262.81V1276.7C2308.78 1275.95 2321.92 1261.57 2321.92 1240.24V1208.74H2291.42V1239H2307.54V1240.49C2307.54 1255.12 2299.85 1261.82 2286.46 1262.81ZM2291.42 1145.5H2321.92V1115H2291.42V1145.5ZM2351.25 1187.17H2369.36L2373.82 1128.89V1064.41H2347.04V1128.89L2351.25 1187.17ZM2345.3 1239H2375.56V1208.74H2345.3V1239ZM2440.37 1187.66H2467.15C2467.4 1179.48 2469.38 1170.3 2484.02 1160.14C2500.38 1148.73 2516.75 1137.32 2516.75 1111.78C2516.75 1084.99 2498.4 1060.69 2459.71 1060.69C2422.02 1060.69 2397.71 1085.49 2397.71 1121.2H2425.24C2425.74 1098.63 2440.37 1084.5 2459.96 1084.5C2478.31 1084.5 2489.97 1096.15 2489.97 1111.78C2489.97 1125.91 2480.3 1134.59 2467.65 1143.02C2444.58 1158.15 2440.37 1172.29 2440.37 1187.66ZM2438.63 1239H2468.89V1208.74H2438.63V1239ZM481.557 1490.72C528.429 1490.72 549.261 1450.79 549.261 1399.7C549.261 1348.62 528.429 1308.69 481.557 1308.69C434.685 1308.69 413.853 1348.62 413.853 1399.7C413.853 1450.79 434.685 1490.72 481.557 1490.72ZM441.381 1399.7C441.381 1360.27 453.037 1331.01 481.557 1331.01C510.325 1331.01 521.981 1360.27 521.981 1399.7C521.981 1439.14 510.325 1468.4 481.557 1468.4C453.037 1468.4 441.381 1439.14 441.381 1399.7ZM565.288 1372.42V1346.88C586.368 1344.4 604.72 1330.51 614.392 1312.41H638.448V1487H611.664V1349.61H611.168C601.744 1361.76 583.144 1371.18 565.288 1372.42ZM667.657 1487H780.993V1464.93H740.073V1312.41H716.265C706.593 1330.51 688.489 1344.4 667.409 1346.88V1372.42C685.265 1371.18 703.121 1361.76 712.545 1349.61H713.537V1464.93H667.657V1487ZM794.31 1487H917.566V1464.68H827.294C829.774 1453.27 837.462 1442.86 858.046 1429.96L870.694 1422.02C898.47 1404.66 917.318 1390.28 917.318 1361.51C917.318 1331.75 898.47 1308.69 859.286 1308.69C821.59 1308.69 797.534 1330.02 797.534 1370.44H825.062C825.558 1342.17 839.942 1330.76 859.534 1330.76C878.134 1330.76 890.534 1341.67 890.534 1360.52C890.534 1380.11 878.134 1390.03 846.886 1408.14C802.99 1433.43 794.558 1454.26 794.31 1487ZM995.244 1490.72C1032.44 1490.72 1055.51 1471.87 1055.51 1440.87C1055.51 1419.54 1043.85 1403.18 1022.52 1397.22V1396.73C1039.14 1389.78 1051.29 1377.38 1051.29 1358.04C1051.29 1327.54 1029.47 1308.69 995.244 1308.69C958.54 1308.69 935.228 1328.53 934.98 1363H961.764C962.26 1341.92 974.908 1330.76 994.5 1330.76C1013.1 1330.76 1024.26 1341.67 1024.26 1359.28C1024.26 1376.14 1011.36 1387.06 989.788 1387.06H972.924V1409.13H990.284C1014.34 1409.13 1028.48 1419.79 1028.48 1439.38C1028.48 1458.23 1016.08 1468.65 995.492 1468.65C973.42 1468.65 960.524 1456.74 959.284 1434.18H932.748C933.244 1471.87 958.044 1490.72 995.244 1490.72ZM1154.96 1487H1182V1442.36H1208.28V1420.54H1182V1312.41H1143.31L1068.91 1420.29V1442.36H1154.96V1487ZM1096.68 1420.54V1420.04L1154.47 1335.72H1154.96V1420.54H1096.68ZM1281.73 1490.47C1317.94 1490.47 1343.48 1469.14 1343.48 1432.19C1343.48 1395.24 1318.93 1373.42 1288.18 1373.42C1271.32 1373.42 1259.41 1380.36 1252.72 1388.05L1252.22 1387.8L1258.67 1335.22H1334.06V1312.41H1234.61L1222.21 1412.85H1250.73C1255.94 1403.18 1266.85 1395.49 1282.23 1395.49C1303.06 1395.49 1316.7 1409.38 1316.7 1432.19C1316.7 1455.5 1302.56 1468.4 1282.23 1468.4C1264.12 1468.4 1249.99 1459.47 1246.52 1438.64H1219.98C1221.22 1468.65 1244.78 1490.47 1281.73 1490.47ZM1425.63 1490.72C1459.36 1490.72 1487.14 1467.9 1487.14 1431.45C1487.14 1396.48 1461.59 1373.17 1428.86 1373.17C1407.78 1373.17 1392.15 1383.83 1385.7 1396.98H1385.21C1385.46 1351.59 1403.31 1330.76 1427.86 1330.76C1446.71 1330.76 1455.64 1341.67 1457.62 1358.04H1484.41C1481.93 1330.51 1464.32 1308.69 1427.86 1308.69C1383.47 1308.69 1357.93 1343.16 1357.93 1404.66V1405.41C1357.93 1460.96 1385.46 1490.72 1425.63 1490.72ZM1389.42 1431.45C1389.42 1409.13 1404.8 1394.74 1424.64 1394.74C1444.73 1394.74 1460.1 1409.13 1460.1 1431.45C1460.1 1454.26 1444.73 1468.65 1424.64 1468.65C1404.8 1468.65 1389.42 1454.26 1389.42 1431.45ZM1528.69 1487H1556.21C1561.92 1421.28 1580.77 1376.89 1615.24 1334.73V1312.41H1495.95V1334.73H1585.23V1335.22C1558.45 1368.46 1533.89 1417.31 1528.69 1487ZM1689.23 1490.47C1724.69 1490.47 1751.48 1472.12 1751.48 1440.38C1751.48 1413.84 1734.12 1401.69 1718.49 1395.98V1395.49C1732.13 1390.53 1746.76 1379.37 1746.76 1356.8C1746.76 1327.29 1721.22 1308.94 1689.23 1308.94C1656.99 1308.94 1631.2 1327.29 1631.2 1356.8C1631.2 1379.37 1646.08 1390.53 1659.72 1395.49V1395.98C1644.09 1401.69 1626.73 1413.84 1626.73 1440.38C1626.73 1472.12 1653.52 1490.47 1689.23 1490.47ZM1653.52 1437.4C1653.52 1417.56 1669.14 1406.65 1688.98 1406.65C1708.57 1406.65 1724.44 1417.56 1724.44 1437.4C1724.44 1457.74 1708.57 1468.4 1688.98 1468.4C1669.14 1468.4 1653.52 1457.74 1653.52 1437.4ZM1657.98 1358.29C1657.98 1340.68 1672.12 1330.76 1688.98 1330.76C1705.84 1330.76 1719.98 1340.68 1719.98 1358.29C1719.98 1375.9 1705.84 1385.32 1688.98 1385.32C1672.12 1385.32 1657.98 1375.9 1657.98 1358.29ZM1829.34 1490.72C1876.46 1490.72 1896.3 1456 1896.3 1393.01V1392.26C1896.3 1336.96 1869.02 1308.69 1828.84 1308.69C1795.36 1308.69 1768.08 1331.5 1768.08 1367.96C1768.08 1402.93 1793.13 1426.24 1825.87 1426.24C1846.95 1426.24 1862.07 1415.82 1868.52 1402.43H1869.02C1869.02 1447.82 1856.37 1468.65 1829.34 1468.65C1811.73 1468.65 1800.32 1460.22 1797.59 1441.37H1770.81C1773.29 1471.38 1794.87 1490.72 1829.34 1490.72ZM1794.87 1367.96C1794.87 1345.14 1809.99 1330.76 1829.83 1330.76C1849.92 1330.76 1864.8 1345.14 1864.8 1367.96C1864.8 1390.28 1849.92 1404.66 1829.83 1404.66C1809.99 1404.66 1794.87 1390.28 1794.87 1367.96ZM1911.28 1343.41V1361.26L1941.04 1360.77L1941.53 1361.26L1926.16 1387.06L1941.53 1395.74L1956.16 1369.7H1956.66L1971.29 1395.74L1986.67 1387.06L1971.29 1361.26L1971.79 1360.77L2001.55 1361.26V1343.41L1971.79 1343.9L1971.29 1343.41L1986.67 1317.86L1971.29 1308.94L1956.66 1334.98H1956.16L1941.53 1308.94L1926.16 1317.86L1941.53 1343.41L1941.04 1343.9L1911.28 1343.41ZM2143.8 1487.5L2110.32 1456.25C2115.53 1450.79 2119.74 1444.1 2122.47 1435.66L2141.07 1453.52C2137.35 1460.71 2132.64 1466.66 2126.94 1471.87C2113.54 1484.27 2095.44 1490.47 2075.1 1490.47C2039.64 1490.47 2012.86 1471.62 2012.86 1438.14C2012.86 1414.83 2026.74 1401.69 2043.61 1393.26C2047.58 1391.52 2051.54 1389.78 2055.76 1388.3C2060.22 1386.81 2064.19 1385.32 2068.16 1383.83L2073.62 1389.29L2084.78 1399.95C2080.81 1401.69 2077.09 1402.93 2073.62 1404.42C2069.65 1405.9 2065.18 1407.64 2060.72 1409.87L2052.78 1402.43C2049.81 1399.7 2046.58 1396.48 2043.61 1393.26C2034.18 1383.34 2026 1371.18 2026 1355.06C2026 1325.3 2048.57 1308.19 2076.59 1308.19C2102.14 1308.19 2124.21 1325.3 2124.21 1352.83C2124.21 1380.86 2102.88 1392.51 2084.78 1399.95L2122.47 1435.66C2125.2 1427.23 2126.69 1417.31 2126.69 1405.9V1400.45H2151.24V1407.89C2151.24 1425.99 2147.52 1441.37 2141.07 1453.52L2176.78 1487.5H2143.8ZM2039.89 1438.64C2039.89 1456.5 2053.78 1468.9 2075.35 1468.9C2089.98 1468.9 2101.64 1464.43 2110.32 1456.25L2060.72 1409.87C2050.06 1415.33 2039.89 1423.26 2039.89 1438.64ZM2053.03 1354.32C2053.03 1365.98 2058.98 1374.41 2068.16 1383.83C2087.75 1376.14 2097.67 1368.7 2097.67 1353.08C2097.67 1339.44 2089.24 1329.77 2076.1 1329.77C2062.7 1329.77 2053.03 1339.19 2053.03 1354.32ZM2323.25 1312.41L2214.88 1487H2239.92L2348.55 1312.41H2323.25ZM2179.41 1360.77C2179.41 1389.54 2194.79 1411.11 2222.32 1411.11C2249.84 1411.11 2265.22 1389.54 2265.22 1360.77C2265.22 1332 2249.84 1310.42 2222.32 1310.42C2194.79 1310.42 2179.41 1332 2179.41 1360.77ZM2201.24 1360.77C2201.24 1343.16 2207.93 1328.78 2222.32 1328.78C2236.7 1328.78 2243.4 1343.16 2243.4 1360.77C2243.4 1378.38 2236.7 1392.76 2222.32 1392.76C2207.93 1392.76 2201.24 1378.38 2201.24 1360.77ZM2298.2 1438.64C2298.2 1467.41 2313.58 1488.98 2340.86 1488.98C2368.39 1488.98 2383.76 1467.41 2383.76 1438.64C2383.76 1409.87 2368.39 1388.05 2340.86 1388.05C2313.58 1388.05 2298.2 1409.87 2298.2 1438.64ZM2320.03 1438.64C2320.03 1420.78 2326.72 1406.65 2340.86 1406.65C2355.24 1406.65 2361.94 1420.78 2361.94 1438.64C2361.94 1456 2355.24 1470.63 2340.86 1470.63C2326.72 1470.63 2320.03 1456 2320.03 1438.64ZM2405.42 1410.62H2544.55L2545.05 1411.11L2494.7 1460.96L2510.08 1476.58L2586.71 1399.95V1399.46L2510.08 1322.82L2494.7 1338.45L2545.05 1388.3L2544.55 1388.79H2428.98V1312.41H2405.42V1410.62ZM2692.63 1489.48C2725.36 1489.48 2754.88 1472.12 2771.24 1444.34C2779.43 1430.7 2783.4 1415.58 2783.4 1399.21C2783.4 1366.47 2765.79 1337.21 2738.01 1321.09C2724.12 1312.9 2709 1308.94 2692.63 1308.94C2659.89 1308.94 2630.63 1326.3 2614.26 1353.82C2606.08 1367.71 2601.86 1382.84 2601.86 1399.21C2601.86 1431.94 2619.47 1461.21 2647.24 1477.33C2661.13 1485.51 2676.26 1489.48 2692.63 1489.48Z" fill="white"/>
</svg>
