<svg width="1600" height="900" viewBox="0 0 1600 900" fill="none" xmlns="http://www.w3.org/2000/svg">
<g clip-path="url(#clip0)">
<rect width="1600" height="900" fill="#EBEBEB"/>
<line x1="-58" y1="161.5" x2="1621" y2="161.5" stroke="black"/>
<line x1="-58" y1="413.5" x2="1621" y2="413.5" stroke="black"/>
<line x1="-58" y1="61.5" x2="1621" y2="61.5001" stroke="black"/>
<line x1="-58" y1="586.5" x2="1621" y2="586.5" stroke="black"/>
<line x1="-58" y1="838.5" x2="1621" y2="838.5" stroke="black"/>
<line x1="-58" y1="486.5" x2="1621" y2="486.5" stroke="black"/>
<path d="M294.5 162.5L351 152C335 82.5 287.5 54.5 222 54.5C148.5 54.5 94 98.5 94 157.5C94 212.5 131.5 243 186 253.5L244 264C270.5 268.5 292.5 286 292.5 315C292.5 347.5 266 369.5 225.5 369.5C185 369.5 155 350.5 142 302.5L85 313.5C100 382.5 152 420.5 225 420.5C303 420.5 354.5 377.5 354.5 314.5C354.5 258 318 222 259.5 211.5L202 200.5C179.5 196.5 156 183.5 156 156C156 124 188.5 105 222.5 105C258 105 285 120.5 294.5 162.5ZM593.094 314V246C593.094 190 549.594 155.5 488.094 155.5C429.094 155.5 383.094 189.5 375.594 242.5L430.094 247C432.594 216 457.094 200.5 487.094 200.5C519.094 200.5 536.594 216.5 536.594 238C536.594 250.5 529.594 256.5 514.594 259.5L450.594 270.5C405.094 278.5 373.594 304 373.594 345.5C373.594 391 411.594 421 463.094 421C498.094 421 523.594 403 540.594 374.5H541.594C542.094 385.5 543.594 404.5 547.094 414H603.094C595.594 382 593.094 348 593.094 314ZM430.094 344C430.094 323.5 445.594 313 471.094 308L517.094 298.5C526.094 297 531.594 294.5 536.094 290H537.094V311.5C537.094 350 509.594 377 471.594 377C446.094 377 430.094 365 430.094 344ZM633.648 414H690.648V271C690.648 232 717.148 203.5 752.148 203.5C786.648 203.5 805.148 228.5 805.148 264.5V414H862.148V251.5C862.148 190.5 823.148 155 768.648 155C731.648 155 702.648 176 689.648 200H688.648C689.648 191 690.648 176.5 690.648 164V162H633.648V414ZM1043.18 237.5L1095.68 227.5C1084.18 179 1046.68 155 994.176 155C938.676 155 898.176 188 898.176 234C898.176 276 929.176 297.5 967.176 305L1011.68 313C1029.18 316.5 1043.68 325 1043.68 342.5C1043.68 362 1027.68 375 1000.18 375C972.676 375 952.676 362 944.676 333.5L891.676 343C901.676 390 941.676 421 999.176 421C1056.18 421 1098.18 390.5 1098.18 342C1098.18 301 1068.68 274 1025.68 266L981.176 257.5C966.176 255 952.676 248 952.676 231C952.676 212.5 971.676 200 994.676 200C1020.18 200 1037.18 211 1043.18 237.5ZM102.5 487V839H160.5V558L334.5 839H401.5V487H343.5V752L180 487H102.5ZM440 651.5C440 709.5 484 749.5 541.5 749.5C598.5 749.5 642.5 709.5 642.5 651.5C642.5 594 598.5 553.5 541.5 553.5C484 553.5 440 594 440 651.5ZM447 839H635.5V792.5H447V839ZM489.5 651.5C489.5 620.5 511 598.5 541.5 598.5C571.5 598.5 593 620.5 593 651.5C593 683 571.5 704.5 541.5 704.5C510.5 704.5 489.5 683 489.5 651.5ZM903.074 538V487H693.574L664.574 686L725.574 700C735.074 675 759.574 655.5 793.574 655.5C834.574 655.5 863.074 683.5 863.074 726.5C863.074 769.5 834.574 797 792.074 797C757.574 797 730.074 779 721.074 743.5L664.074 750C675.074 802.5 719.074 846 791.574 846C866.074 846 920.074 800.5 920.074 726.5C920.074 652.5 870.574 607 805.574 607C768.574 607 740.074 623 726.574 644.5L725.574 644L740.074 538H903.074Z" fill="black"/>
</g>
<defs>
<clipPath id="clip0">
<rect width="1600" height="900" fill="white"/>
</clipPath>
</defs>
</svg>
