<svg width="720" height="900" viewBox="0 0 720 900" fill="none" xmlns="http://www.w3.org/2000/svg">
<g clip-path="url(#clip0)">
<rect width="720" height="900" fill="#EBEBEB"/>
<line x1="-58" y1="185.5" x2="1621" y2="185.5" stroke="black"/>
<line x1="-58" y1="791.5" x2="1621" y2="791.5" stroke="black"/>
<path d="M625.034 552V398.4C625.034 259.2 512.234 172.8 359.834 172.8C213.434 172.8 98.2344 255.6 79.0344 385.2L241.034 398.4C245.834 333.6 296.234 303.6 356.234 303.6C419.834 303.6 454.634 338.4 454.634 376.8C454.634 402 440.234 416.4 404.234 422.4L260.234 446.4C148.634 464.4 74.2344 528 74.2344 626.4C74.2344 732 164.234 808.8 292.634 808.8C371.834 808.8 428.234 768 466.634 700.8H469.034C469.034 729.6 473.834 772.8 481.034 792H649.034C632.234 715.2 625.034 628.8 625.034 552ZM244.634 620.4C244.634 579.6 275.834 561.6 321.434 552L410.234 532.8C429.434 529.2 442.634 525.6 452.234 516H454.634V549.6C454.634 631.2 397.034 681.6 322.634 681.6C274.634 681.6 244.634 658.8 244.634 620.4Z" fill="black" fill-opacity="0.35"/>
<path fill-rule="evenodd" clip-rule="evenodd" d="M77.8887 386.11L78.0452 385.054C97.3354 254.844 213.069 171.8 359.834 171.8C436.216 171.8 502.756 193.451 550.221 232.629C597.704 271.821 626.034 328.505 626.034 398.4V552C626.034 628.746 633.23 715.072 650.011 791.786L650.277 793H480.341L480.098 792.351C476.455 782.635 473.444 766.937 471.342 750.124C469.286 733.676 468.09 716.075 468.036 701.8H467.214C428.68 768.946 372.065 809.8 292.634 809.8C163.852 809.8 73.2344 732.708 73.2344 626.4C73.2344 576.923 91.9494 536.159 124.701 505.52C157.434 474.899 204.137 454.435 260.075 445.413L404.07 421.414C421.989 418.427 434.363 413.373 442.255 406.066C450.104 398.798 453.634 389.192 453.634 376.8C453.634 339.138 419.488 304.6 356.234 304.6C326.389 304.6 299.019 312.062 278.536 327.499C258.079 342.916 244.412 366.345 242.032 398.474L241.957 399.479L77.8887 386.11ZM260.234 446.4C148.634 464.4 74.2344 528 74.2344 626.4C74.2344 732 164.234 808.8 292.634 808.8C371.834 808.8 428.234 768 466.634 700.8H469.034C469.034 729.6 473.834 772.8 481.034 792H649.034C648.961 791.667 648.889 791.334 648.816 791C632.172 714.451 625.034 628.467 625.034 552V398.4C625.034 259.2 512.234 172.8 359.834 172.8C213.808 172.8 98.8225 255.178 79.1832 384.209C79.133 384.539 79.0834 384.869 79.0344 385.2L241.034 398.4C241.059 398.067 241.085 397.735 241.112 397.403C246.353 333.292 296.543 303.6 356.234 303.6C419.834 303.6 454.634 338.4 454.634 376.8C454.634 402 440.234 416.4 404.234 422.4L260.234 446.4ZM321.646 552.978L321.64 552.979C298.893 557.768 279.876 564.627 266.559 575.281C253.297 585.891 245.634 600.303 245.634 620.4C245.634 639.312 253.007 654.312 266.248 664.611C279.52 674.933 298.778 680.6 322.634 680.6C359.607 680.6 392.349 668.079 415.841 645.479C439.327 622.885 453.634 590.154 453.634 549.6V517H452.646C442.83 526.622 429.414 530.221 410.433 533.78C410.428 533.781 410.423 533.782 410.419 533.783L321.646 552.978ZM410.234 532.8L321.434 552C275.834 561.6 244.634 579.6 244.634 620.4C244.634 658.8 274.634 681.6 322.634 681.6C397.034 681.6 454.634 631.2 454.634 549.6V516H452.234C442.634 525.6 429.434 529.2 410.234 532.8Z" fill="#EBEBEB" fill-opacity="0.3"/>
<path d="M621.435 552V394.8C621.435 258 511.035 172.8 359.834 172.8C215.834 172.8 101.834 254.4 82.6345 384L235.034 396C239.834 327.6 292.634 295.2 357.434 295.2C424.635 295.2 461.834 331.2 461.834 374.4C461.834 400.8 447.434 415.2 411.434 422.4L263.834 446.4C153.434 465.6 77.8345 528 77.8345 626.4C77.8345 733.2 169.034 808.8 295.034 808.8C376.634 808.8 434.234 766.8 473.834 699.6H476.234C476.234 727.2 481.034 771.6 488.234 792H645.435C627.435 715.2 621.435 630 621.435 552ZM237.434 621.6C237.434 578.4 269.834 558 321.434 547.2L417.434 526.8C436.634 523.2 449.834 518.4 460.634 508.8H463.034V548.4C463.034 633.6 401.834 688.8 322.634 688.8C269.834 688.8 237.434 663.6 237.434 621.6Z" fill="black" fill-opacity="0.35"/>
<path fill-rule="evenodd" clip-rule="evenodd" d="M81.4883 384.913L81.6453 383.854C100.935 253.647 215.466 171.8 359.834 171.8C435.615 171.8 501.255 193.151 547.971 231.729C594.705 270.322 622.435 326.107 622.435 394.8V552C622.435 629.957 628.432 715.074 646.408 791.772L646.696 793H487.527L487.292 792.333C483.654 782.026 480.644 765.736 478.542 748.622C476.488 731.899 475.292 714.31 475.237 700.6H474.405C434.675 767.75 376.862 809.8 295.034 809.8C168.657 809.8 76.8345 733.912 76.8345 626.4C76.8345 576.917 95.8543 536.452 128.755 505.967C161.635 475.5 208.332 455.038 263.663 445.415L263.674 445.413L411.238 421.419C411.244 421.418 411.25 421.417 411.257 421.416C429.172 417.831 441.545 412.483 449.441 404.88C457.298 397.314 460.834 387.402 460.834 374.4C460.834 353.106 451.674 333.589 434.203 319.376C416.721 305.153 390.861 296.2 357.434 296.2C325.19 296.2 296.021 304.262 274.34 320.746C252.683 337.211 238.413 362.139 236.032 396.07L235.961 397.076L81.4883 384.913ZM411.434 422.4L263.834 446.4C153.434 465.6 77.8345 528 77.8345 626.4C77.8345 733.2 169.034 808.8 295.034 808.8C376.634 808.8 434.234 766.8 473.834 699.6H476.234C476.234 727.2 481.034 771.6 488.234 792H645.435C645.357 791.667 645.279 791.334 645.201 791C627.383 714.461 621.435 629.662 621.435 552V394.8C621.435 258 511.034 172.8 359.834 172.8C216.202 172.8 102.417 253.984 82.7833 383.009C82.7331 383.339 82.6835 383.669 82.6345 384L235.034 396C235.058 395.667 235.082 395.334 235.108 395.003C240.349 327.285 292.95 295.2 357.434 295.2C424.634 295.2 461.834 331.2 461.834 374.4C461.834 400.8 447.434 415.2 411.434 422.4ZM321.642 548.178L321.639 548.179C295.896 553.567 275.082 561.325 260.716 573.025C246.403 584.683 238.434 600.296 238.434 621.6C238.434 642.316 246.411 658.817 260.852 670.164C275.323 681.533 296.38 687.8 322.634 687.8C362 687.8 396.842 674.085 421.838 649.832C446.83 625.585 462.034 590.75 462.034 548.4V509.8H461.013C450.068 519.407 436.726 524.199 417.631 527.781C417.627 527.781 417.623 527.782 417.619 527.783L321.642 548.178ZM417.434 526.8L321.434 547.2C269.834 558 237.434 578.4 237.434 621.6C237.434 663.6 269.834 688.8 322.634 688.8C401.834 688.8 463.034 633.6 463.034 548.4V508.8H460.634C449.835 518.4 436.634 523.2 417.434 526.8Z" fill="#EBEBEB" fill-opacity="0.3"/>
<path d="M616.634 552V391.2C616.634 255.6 509.834 171.6 361.034 171.6C218.234 171.6 105.434 254.4 87.4343 381.6L227.834 393.6C233.834 322.8 290.234 286.8 358.634 286.8C430.634 286.8 470.234 325.2 470.234 372C470.234 400.8 454.634 415.2 417.434 421.2L267.434 447.6C157.034 465.6 82.6343 528 82.6343 627.6C82.6343 735.6 172.634 808.8 298.634 808.8C381.434 808.8 440.234 765.6 481.034 698.4H483.434C483.434 726 488.234 770.4 495.434 792H640.634C623.834 715.2 616.634 632.4 616.634 552ZM229.034 622.8C229.034 576 265.034 553.2 320.234 542.4L423.434 520.8C445.034 517.2 458.234 511.2 467.834 501.6H470.234V547.2C470.234 636 407.834 696 321.434 696C265.034 696 229.034 669.6 229.034 622.8Z" fill="black" fill-opacity="0.35"/>
<path fill-rule="evenodd" clip-rule="evenodd" d="M86.2961 382.506L86.4441 381.46C104.53 253.655 217.858 170.6 361.034 170.6C435.615 170.6 499.759 191.651 545.276 229.784C590.811 267.93 617.634 323.115 617.634 391.2V552C617.634 632.344 624.83 715.071 641.611 791.786L641.877 793H494.714L494.486 792.316C487.324 770.83 482.55 727.11 482.436 699.4H481.596C440.672 766.55 381.665 809.8 298.634 809.8C235.446 809.8 181.207 791.445 142.745 759.469C104.269 727.481 81.6343 681.901 81.6343 627.6C81.6343 577.526 100.347 536.76 132.951 506.27C165.533 475.8 211.933 455.637 267.265 446.615C267.268 446.614 267.271 446.614 267.273 446.613L417.261 420.215L417.268 420.214L417.275 420.213C435.801 417.225 448.768 412.168 457.103 404.418C465.395 396.708 469.234 386.207 469.234 372C469.234 348.901 459.47 327.885 440.801 312.624C422.121 297.354 394.462 287.8 358.634 287.8C324.601 287.8 293.629 296.757 270.441 314.445C247.273 332.118 231.808 358.556 228.831 393.685L228.746 394.682L86.2961 382.506ZM481.034 698.4H483.434C483.434 726 488.234 770.4 495.434 792H640.634C640.561 791.667 640.489 791.334 640.416 791C623.772 714.482 616.634 632.051 616.634 552V391.2C616.634 255.6 509.834 171.6 361.034 171.6C218.606 171.6 106.021 253.97 87.5766 380.609C87.5285 380.939 87.4811 381.269 87.4343 381.6L227.834 393.6C227.84 393.531 227.846 393.462 227.852 393.393C233.944 322.73 290.301 286.8 358.634 286.8C430.634 286.8 470.234 325.2 470.234 372C470.234 400.8 454.634 415.2 417.434 421.2L267.434 447.6C157.034 465.6 82.6343 528 82.6343 627.6C82.6343 735.6 172.634 808.8 298.634 808.8C381.434 808.8 440.234 765.6 481.034 698.4ZM320.426 543.382C292.893 548.768 270.279 557.127 254.564 569.877C238.898 582.587 230.034 599.702 230.034 622.8C230.034 645.915 238.91 663.914 254.697 676.16C270.517 688.431 293.375 695 321.434 695C364.398 695 401.337 680.086 427.531 654.189C453.724 628.294 469.234 591.358 469.234 547.2V502.6H468.246C458.472 512.229 445.1 518.201 423.618 521.783C423.612 521.784 423.605 521.785 423.599 521.786L320.426 543.382ZM423.434 520.8L320.234 542.4C265.034 553.2 229.034 576 229.034 622.8C229.034 669.6 265.034 696 321.434 696C407.834 696 470.234 636 470.234 547.2V501.6H467.834C458.234 511.2 445.034 517.2 423.434 520.8Z" fill="#EBEBEB" fill-opacity="0.3"/>
<path d="M613.034 552V388.8C613.034 254.4 508.634 171.6 361.034 171.6C219.434 171.6 109.034 253.2 91.0344 380.4L221.834 391.2C227.834 316.8 286.634 279.6 358.634 279.6C435.434 279.6 477.434 318 477.434 369.6C477.434 399.6 460.634 414 424.634 421.2L271.034 447.6C161.834 466.8 86.2344 528 86.2344 627.6C86.2344 736.8 177.434 808.8 301.034 808.8C385.034 808.8 446.234 765.6 487.034 697.2H489.434C490.634 723.6 494.234 769.2 502.634 792H637.034C619.034 715.2 613.034 633.6 613.034 552ZM221.834 624C221.834 574.8 259.034 549.6 320.234 537.6L430.634 514.8C452.234 511.2 465.434 505.2 476.234 494.4H478.634V546C478.634 638.4 412.634 703.2 321.434 703.2C260.234 703.2 221.834 674.4 221.834 624Z" fill="black" fill-opacity="0.35"/>
<path fill-rule="evenodd" clip-rule="evenodd" d="M89.8957 381.309L90.0442 380.26C108.129 252.461 219.052 170.6 361.034 170.6C435.014 170.6 498.259 191.351 543.028 229.035C587.815 266.734 614.034 321.319 614.034 388.8V552C614.034 633.556 620.032 715.073 638.008 791.772L638.296 793H501.937L501.696 792.346C497.453 780.828 494.443 763.627 492.341 746.069C490.288 728.907 489.094 711.322 488.479 698.2H487.602C446.656 766.562 385.25 809.8 301.034 809.8C239.047 809.8 185.108 791.745 146.647 759.921C108.171 728.083 85.2344 682.503 85.2344 627.6C85.2344 577.519 104.252 537.054 137.005 506.716C169.735 476.399 216.133 456.238 270.861 446.615L270.865 446.615L424.438 420.22C424.443 420.219 424.448 420.218 424.453 420.217C442.376 416.63 455.351 411.28 463.846 403.224C472.301 395.207 476.434 384.396 476.434 369.6C476.434 344.095 466.065 321.886 446.21 306.032C426.335 290.161 396.878 280.6 358.634 280.6C322.797 280.6 290.326 289.859 266.09 308.296C241.875 326.717 225.809 354.352 222.831 391.28L222.751 392.279L89.8957 381.309ZM424.634 421.2L271.034 447.6C161.834 466.8 86.2344 528 86.2344 627.6C86.2344 736.8 177.434 808.8 301.034 808.8C385.034 808.8 446.234 765.6 487.034 697.2H489.434C490.634 723.6 494.234 769.2 502.634 792H637.034C636.956 791.667 636.878 791.334 636.801 791C618.982 714.492 613.034 633.246 613.034 552V388.8C613.034 254.4 508.634 171.6 361.034 171.6C219.803 171.6 109.609 252.776 91.1767 379.408C91.1286 379.739 91.0812 380.069 91.0344 380.4L221.834 391.2C221.85 391.011 221.865 390.822 221.881 390.633C228.134 316.611 286.818 279.6 358.634 279.6C435.434 279.6 477.434 318 477.434 369.6C477.434 399.6 460.634 414 424.634 421.2ZM320.437 538.579L320.427 538.581C289.896 544.568 265.484 553.825 248.72 567.622C232.003 581.38 222.834 599.696 222.834 624C222.834 648.919 232.313 668.418 249.301 681.713C266.32 695.032 290.976 702.2 321.434 702.2C412.087 702.2 477.634 637.843 477.634 546V495.4H476.647C465.709 506.208 452.339 512.194 430.817 515.783C430.811 515.784 430.805 515.785 430.799 515.786L320.437 538.579ZM430.634 514.8L320.234 537.6C259.034 549.6 221.834 574.8 221.834 624C221.834 674.4 260.234 703.2 321.434 703.2C412.634 703.2 478.634 638.4 478.634 546V494.4H476.234C465.434 505.2 452.234 511.2 430.634 514.8Z" fill="#EBEBEB" fill-opacity="0.3"/>
<path d="M608.349 552V385.2C608.349 252 506.349 171.6 361.149 171.6C220.749 171.6 111.549 252 93.5485 378L213.549 388.8C221.949 310.8 281.949 271.2 358.749 271.2C439.149 271.2 484.749 310.8 484.749 367.2C484.749 399.6 466.749 414 430.749 420L274.749 448.8C164.349 468 88.7485 526.8 88.7485 627.6C88.7485 738 181.149 808.8 303.549 808.8C388.749 808.8 452.349 764.4 493.149 696H495.549C496.749 722.4 500.349 768 509.949 792H632.349C614.349 714 608.349 634.8 608.349 552ZM213.549 625.2C213.549 573.6 253.149 544.8 319.149 531.6L435.549 508.8C458.349 504 472.749 498 482.349 487.2H485.949V544.8C485.949 640.8 417.549 710.4 319.149 710.4C255.549 710.4 213.549 680.4 213.549 625.2Z" fill="black" fill-opacity="0.35"/>
<path fill-rule="evenodd" clip-rule="evenodd" d="M92.4096 378.902L92.5586 377.859C110.644 251.259 220.368 170.6 361.149 170.6C433.925 170.6 495.972 190.749 539.843 227.685C583.732 264.637 609.349 318.323 609.349 385.2V552C609.349 634.753 615.345 713.872 633.323 791.775L633.606 793H509.272L509.02 792.372C504.17 780.247 500.858 762.74 498.607 745.026C496.406 727.714 495.208 710.122 494.594 697H493.716C452.756 765.373 388.956 809.8 303.549 809.8C242.163 809.8 188.225 792.047 149.614 760.373C110.987 728.686 87.7485 683.104 87.7485 627.6C87.7485 576.92 106.766 536.751 139.676 506.86C172.559 476.994 219.256 457.437 274.572 447.816C274.574 447.815 274.576 447.815 274.577 447.815L430.576 419.015L430.584 419.014C448.51 416.026 461.779 410.971 470.566 402.769C479.312 394.606 483.749 383.202 483.749 367.2C483.749 339.295 472.48 315.588 451.279 298.835C430.054 282.063 398.795 272.2 358.749 272.2C320.513 272.2 286.543 282.058 261.107 301.544C235.689 321.016 218.716 350.16 214.543 388.907L214.438 389.884L92.4096 378.902ZM274.749 448.8C164.349 468 88.7485 526.8 88.7485 627.6C88.7485 738 181.149 808.8 303.549 808.8C388.749 808.8 452.349 764.4 493.149 696H495.549C496.749 722.4 500.349 768 509.949 792H632.349C632.272 791.667 632.195 791.333 632.118 791C614.297 713.323 608.349 634.446 608.349 552V385.2C608.349 252 506.349 171.6 361.149 171.6C221.117 171.6 112.122 251.579 93.6921 377.009C93.6436 377.339 93.5958 377.669 93.5485 378L213.549 388.8C221.949 310.8 281.949 271.2 358.749 271.2C439.149 271.2 484.749 310.8 484.749 367.2C484.749 399.6 466.749 414 430.749 420L274.749 448.8ZM435.549 508.8L319.149 531.6C253.149 544.8 213.549 573.6 213.549 625.2C213.549 680.4 255.549 710.4 319.149 710.4C417.549 710.4 485.949 640.8 485.949 544.8V487.2H482.349C472.749 498 458.349 504 435.549 508.8ZM482.795 488.2C472.974 499.038 458.37 505.018 435.755 509.779L435.741 509.782L319.345 532.581M482.795 488.2H484.949V544.8C484.949 640.248 416.996 709.4 319.149 709.4C287.49 709.4 261.333 701.932 243.114 687.712C224.927 673.517 214.549 652.519 214.549 625.2C214.549 599.697 224.317 579.876 242.243 564.765C260.21 549.619 286.422 539.166 319.341 532.581" fill="#EBEBEB" fill-opacity="0.3"/>
<path d="M603.548 552V381.6C603.548 250.8 505.148 171.6 361.148 171.6C223.148 171.6 115.148 252 97.1484 376.8L207.548 386.4C215.948 306 278.348 262.8 359.948 262.8C443.948 262.8 491.948 304.8 491.948 366C491.948 398.4 473.948 412.8 436.748 420L278.348 448.8C169.148 469.2 92.3484 526.8 92.3484 628.8C92.3484 740.4 184.748 808.8 305.948 808.8C393.548 808.8 458.348 763.2 500.348 694.8H502.748C502.748 720 507.548 766.8 517.148 792H627.548C609.548 714 603.548 637.2 603.548 552ZM205.148 626.4C205.148 572.4 247.148 541.2 317.948 526.8L442.748 502.8C465.548 498 479.948 490.8 490.748 481.2H493.148V543.6C493.148 643.2 422.348 717.6 319.148 717.6C250.748 717.6 205.148 685.2 205.148 626.4Z" fill="black" fill-opacity="0.35"/>
<path fill-rule="evenodd" clip-rule="evenodd" d="M96.0076 377.705L96.1586 376.657C114.244 251.266 222.759 170.6 361.148 170.6C433.324 170.6 494.173 190.449 536.995 226.788C579.836 263.142 604.548 315.929 604.548 381.6V552C604.548 637.152 610.545 713.872 628.523 791.775L628.805 793H516.459L516.214 792.356C511.372 779.646 507.76 761.555 505.357 743.532C503.015 725.966 501.812 708.392 501.751 695.8H500.907C458.752 764.175 393.754 809.8 305.948 809.8C245.169 809.8 191.532 792.65 153.068 761.427C114.585 730.188 91.3484 684.903 91.3484 628.8C91.3484 577.518 110.668 537.348 143.728 507.458C176.76 477.594 223.454 458.038 278.165 447.817L278.169 447.816L436.558 419.018C436.56 419.018 436.561 419.018 436.563 419.018C455.097 415.43 468.672 410.076 477.616 401.719C486.514 393.405 490.948 381.999 490.948 366C490.948 335.684 479.071 310.178 456.821 292.228C434.548 274.262 401.792 263.8 359.948 263.8C319.319 263.8 283.549 274.555 256.912 295.24C230.29 315.913 212.716 346.558 208.543 386.504L208.441 387.481L96.0076 377.705ZM500.348 694.8H502.748C502.748 720 507.548 766.8 517.148 792H627.548C627.471 791.667 627.395 791.333 627.318 791C609.497 713.344 603.548 636.836 603.548 552V381.6C603.548 250.8 505.148 171.6 361.148 171.6C223.514 171.6 115.721 251.575 97.2934 375.809C97.2444 376.139 97.1961 376.469 97.1484 376.8L207.548 386.4C215.948 306 278.348 262.8 359.948 262.8C443.948 262.8 491.948 304.8 491.948 366C491.948 398.4 473.948 412.8 436.748 420L278.348 448.8C169.148 469.2 92.3484 526.8 92.3484 628.8C92.3484 740.4 184.748 808.8 305.948 808.8C393.548 808.8 458.348 763.2 500.348 694.8ZM442.748 502.8L317.948 526.8C247.148 541.2 205.148 572.4 205.148 626.4C205.148 685.2 250.748 717.6 319.148 717.6C422.348 717.6 493.148 643.2 493.148 543.6V481.2H490.748C479.948 490.8 465.548 498 442.748 502.8ZM491.127 482.2C480.196 491.818 465.676 498.995 442.954 503.779L442.946 503.78L318.148 527.78C318.146 527.78 318.144 527.781 318.142 527.781C282.825 534.965 254.812 546.317 235.644 562.514C216.514 578.678 206.148 599.701 206.148 626.4C206.148 655.513 217.422 678.012 237.111 693.259C256.832 708.532 285.091 716.6 319.148 716.6C421.782 716.6 492.148 642.662 492.148 543.6V482.2H491.127Z" fill="#EBEBEB" fill-opacity="0.3"/>
<path d="M599.948 552V378C599.948 249.6 503.948 170.4 361.148 170.4C225.548 170.4 118.748 250.8 101.948 375.6L200.348 384C209.948 300 275.948 254.4 361.148 254.4C449.948 254.4 499.148 297.6 499.148 363.6C499.148 398.4 481.148 412.8 443.948 420L281.948 450C172.748 469.2 97.1484 526.8 97.1484 628.8C97.1484 741.6 189.548 808.8 308.348 808.8C398.348 808.8 464.348 762 507.548 693.6H509.948C509.948 718.8 514.748 765.6 524.348 792H623.948C604.748 714 599.948 638.4 599.948 552ZM197.948 627.6C197.948 570 241.148 537.6 317.948 522L448.748 496.8C473.948 492 487.148 483.6 497.948 474H501.548V542.4C501.548 645.6 427.148 724.8 317.948 724.8C245.948 724.8 197.948 691.2 197.948 627.6Z" fill="black" fill-opacity="0.35"/>
<path fill-rule="evenodd" clip-rule="evenodd" d="M100.817 376.507L100.957 375.466C117.837 250.075 225.15 169.4 361.148 169.4C432.726 169.4 492.676 189.25 534.749 225.29C576.838 261.346 600.948 313.532 600.948 378V552C600.948 638.364 605.747 713.873 624.919 791.761L625.224 793H523.648L523.409 792.342C513.877 766.131 509.075 720.073 508.951 694.6H508.099C464.748 762.977 398.552 809.8 308.348 809.8C248.769 809.8 195.731 792.95 157.567 761.875C119.383 730.785 96.1484 685.5 96.1484 628.8C96.1484 577.523 115.164 537.352 147.926 507.609C180.66 477.893 227.056 458.637 281.768 449.016C281.771 449.016 281.773 449.015 281.775 449.015L443.758 419.018C462.296 415.43 475.863 410.078 484.803 401.431C493.702 392.824 498.148 380.819 498.148 363.6C498.148 330.869 485.961 303.866 462.817 285.025C439.649 266.164 405.399 255.4 361.148 255.4C318.721 255.4 281.15 266.753 253.01 288.491C224.884 310.218 206.113 342.368 201.342 384.113L201.232 385.079L100.817 376.507ZM281.948 450C172.748 469.2 97.1484 526.8 97.1484 628.8C97.1484 741.6 189.548 808.8 308.348 808.8C398.348 808.8 464.348 762 507.548 693.6H509.948C509.948 718.8 514.748 765.6 524.348 792H623.948C623.866 791.667 623.785 791.333 623.703 791C604.708 713.353 599.948 638.031 599.948 552V378C599.948 249.6 503.948 170.4 361.148 170.4C225.908 170.4 119.315 250.374 102.084 374.608C102.038 374.938 101.993 375.269 101.948 375.6L200.348 384C209.948 300 275.948 254.4 361.148 254.4C449.948 254.4 499.148 297.6 499.148 363.6C499.148 398.4 481.148 412.8 443.948 420L281.948 450ZM229.794 559.814C209.621 576.871 198.948 599.091 198.948 627.6C198.948 659.121 210.828 683.118 231.563 699.261C252.331 715.431 282.088 723.8 317.948 723.8C426.583 723.8 500.548 645.061 500.548 542.4V475H498.328C487.452 484.608 474.101 492.989 448.936 497.782L318.148 522.98C318.146 522.98 318.144 522.98 318.143 522.981C279.82 530.766 250.01 542.719 229.794 559.814ZM317.948 522C241.148 537.6 197.948 570 197.948 627.6C197.948 691.2 245.948 724.8 317.948 724.8C427.148 724.8 501.548 645.6 501.548 542.4V474H497.948C487.148 483.6 473.948 492 448.748 496.8L317.948 522Z" fill="#EBEBEB" fill-opacity="0.3"/>
<path d="M595.149 552V375.6C595.149 247.2 502.749 170.4 362.349 170.4C226.749 170.4 122.349 250.8 105.549 373.2L194.349 381.6C203.949 295.2 272.349 247.2 361.149 247.2C454.749 247.2 507.549 291.6 507.549 361.2C507.549 397.2 487.149 411.6 449.949 418.8L285.549 450C177.549 470.4 100.749 526.8 100.749 630C100.749 744 193.149 808.8 311.949 808.8C401.949 808.8 470.349 762 513.549 692.4H515.949C517.149 716.4 520.749 764.4 531.549 792H619.149C601.149 714 595.149 640.8 595.149 552ZM189.549 628.8C189.549 568.8 236.349 532.8 316.749 517.2L455.949 490.8C481.149 486 495.549 477.6 506.349 466.8H508.749V541.2C508.749 648 433.149 732 317.949 732C241.149 732 189.549 696 189.549 628.8Z" fill="black" fill-opacity="0.35"/>
<path fill-rule="evenodd" clip-rule="evenodd" d="M104.416 374.097L104.558 373.064C121.438 250.08 226.344 169.4 362.349 169.4C432.723 169.4 491.178 188.648 532.054 224.094C572.947 259.555 596.149 311.143 596.149 375.6V552C596.149 640.75 602.145 713.87 620.123 791.775L620.406 793H530.866L530.617 792.364C525.171 778.447 521.559 759.447 519.157 740.979C516.815 722.974 515.614 705.402 514.998 693.4H514.104C470.735 762.985 402.144 809.8 311.949 809.8C252.377 809.8 199.34 793.554 161.173 762.93C122.983 732.287 99.7485 687.298 99.7485 630C99.7485 578.12 119.066 537.949 151.978 508.208C184.861 478.493 231.255 459.238 285.363 449.017L449.759 417.818C468.299 414.23 482.477 408.875 492.02 400.065C501.517 391.299 506.549 378.994 506.549 361.2C506.549 326.677 493.466 298.476 468.826 278.883C444.158 259.267 407.804 248.2 361.149 248.2C316.923 248.2 277.852 260.152 248.661 282.79C219.485 305.417 200.114 338.767 195.342 381.71L195.234 382.688L104.416 374.097ZM449.949 418.8L285.549 450C177.549 470.4 100.749 526.8 100.749 630C100.749 744 193.149 808.8 311.949 808.8C401.949 808.8 470.349 762 513.549 692.4H515.948C517.148 716.4 520.749 764.4 531.549 792H619.149C619.072 791.666 618.995 791.333 618.918 791C601.097 713.374 595.149 640.42 595.149 552V375.6C595.149 247.2 502.749 170.4 362.349 170.4C227.115 170.4 122.913 250.366 105.687 372.208C105.64 372.539 105.594 372.869 105.549 373.2L194.348 381.6C203.948 295.2 272.349 247.2 361.149 247.2C454.749 247.2 507.549 291.6 507.549 361.2C507.549 397.2 487.149 411.6 449.949 418.8ZM455.949 490.8L316.749 517.2C236.349 532.8 189.549 568.8 189.549 628.8C189.549 696 241.149 732 317.949 732C433.149 732 508.749 648 508.749 541.2V466.8H506.349C495.549 477.6 481.149 486 455.949 490.8ZM506.761 467.8C495.831 478.622 481.273 486.994 456.136 491.782L316.939 518.182M506.761 467.8H507.749V541.2C507.749 647.477 432.567 731 317.949 731C279.689 731 247.83 722.031 225.56 704.809C203.324 687.613 190.549 662.115 190.549 628.8C190.549 599.1 202.115 575.376 223.645 557.113C245.213 538.818 276.824 525.966 316.935 518.182" fill="#EBEBEB" fill-opacity="0.3"/>
<path d="M591.548 552V372C591.548 246 501.548 170.4 362.348 170.4C229.148 170.4 125.948 249.6 109.148 372L187.148 379.2C197.948 289.2 268.748 238.8 362.348 238.8C459.548 238.8 514.748 284.4 514.748 358.8C514.748 397.2 494.348 411.6 457.148 418.8L289.148 451.2C181.148 471.6 104.348 526.8 104.348 630C104.348 745.2 197.948 808.8 314.348 808.8C406.748 808.8 476.348 760.8 520.748 691.2H523.148C524.348 715.2 527.948 763.2 538.748 792H615.548C596.348 714 591.548 642 591.548 552ZM182.348 630C182.348 567.6 230.348 529.2 316.748 512.4L461.948 484.8C488.348 480 502.748 470.4 513.548 459.6H517.148V540C517.148 650.4 437.948 739.2 316.748 739.2C236.348 739.2 182.348 702 182.348 630Z" fill="black" fill-opacity="0.35"/>
<path fill-rule="evenodd" clip-rule="evenodd" d="M108.016 372.9L108.158 371.864C125.037 248.884 228.739 169.4 362.348 169.4C432.122 169.4 489.677 188.348 529.804 223.195C569.948 258.057 592.548 308.746 592.548 372V552C592.548 641.962 597.347 713.872 616.519 791.761L616.824 793H538.055L537.812 792.351C527.09 763.76 523.444 716.478 522.198 692.2H521.296C476.732 761.787 406.942 809.8 314.348 809.8C255.977 809.8 203.241 793.854 165.074 763.381C126.884 732.889 103.348 687.9 103.348 630C103.348 578.119 122.667 538.247 155.582 508.805C188.465 479.39 234.86 460.437 288.963 450.217L456.958 417.818C475.5 414.229 489.669 408.876 499.208 399.776C508.706 390.717 513.748 377.813 513.748 358.8C513.748 321.87 500.062 292.172 474.375 271.682C448.659 251.168 410.807 239.8 362.348 239.8C315.723 239.8 274.852 252.352 244.311 276.04C213.784 299.718 193.511 334.57 188.141 379.319L188.025 380.285L108.016 372.9ZM457.148 418.8L289.148 451.2C181.148 471.6 104.348 526.8 104.348 630C104.348 745.2 197.948 808.8 314.348 808.8C406.748 808.8 476.348 760.8 520.748 691.2H523.148C524.348 715.2 527.948 763.2 538.748 792H615.548C615.466 791.666 615.385 791.333 615.303 791C596.307 713.384 591.548 641.615 591.548 552V372C591.548 246 501.548 170.4 362.348 170.4C229.508 170.4 126.506 249.172 109.286 371.008C109.24 371.339 109.194 371.669 109.148 372L187.148 379.2C197.948 289.2 268.748 238.8 362.348 238.8C459.548 238.8 514.748 284.4 514.748 358.8C514.748 397.2 494.348 411.6 457.148 418.8ZM217.798 554.86C195.218 574.172 183.348 599.095 183.348 630C183.348 665.722 196.729 692.718 220.012 710.81C243.33 728.93 276.686 738.2 316.748 738.2C437.368 738.2 516.148 649.876 516.148 540V460.6H513.961C503.053 471.421 488.495 480.989 462.131 485.783C462.13 485.783 462.129 485.784 462.127 485.784L316.939 513.382C273.827 521.764 240.415 535.516 217.798 554.86ZM316.748 512.4C230.348 529.2 182.348 567.6 182.348 630C182.348 702 236.348 739.2 316.748 739.2C437.948 739.2 517.148 650.4 517.148 540V459.6H513.548C502.748 470.4 488.348 480 461.948 484.8L316.748 512.4Z" fill="#EBEBEB" fill-opacity="0.3"/>
<path d="M50.568 49.94L51.816 49.712C51.432 48.044 50.292 47.372 48.756 47.372C47.028 47.372 45.72 48.404 45.72 49.82C45.72 51.14 46.644 51.848 47.94 52.088L49.32 52.34C49.968 52.46 50.544 52.892 50.544 53.648C50.544 54.476 49.884 55.028 48.852 55.028C47.832 55.028 47.076 54.536 46.764 53.348L45.504 53.588C45.876 55.256 47.124 56.156 48.828 56.156C50.664 56.156 51.9 55.136 51.9 53.636C51.9 52.292 51.012 51.428 49.62 51.176L48.252 50.924C47.676 50.816 47.088 50.492 47.088 49.784C47.088 48.98 47.88 48.488 48.756 48.488C49.668 48.488 50.328 48.884 50.568 49.94ZM58.2148 53.6V51.932C58.2148 50.6 57.1948 49.796 55.7428 49.796C54.3388 49.796 53.2468 50.6 53.0668 51.86L54.2668 51.968C54.3508 51.188 54.9508 50.792 55.7188 50.792C56.5228 50.792 56.9788 51.188 56.9788 51.752C56.9788 52.076 56.7988 52.22 56.4388 52.28L54.8788 52.568C53.7748 52.76 53.0188 53.348 53.0188 54.356C53.0188 55.46 53.9428 56.168 55.1668 56.168C56.0188 56.168 56.6548 55.724 57.0628 55.04H57.0868C57.0988 55.304 57.1348 55.76 57.2308 56H58.4548C58.2748 55.22 58.2148 54.428 58.2148 53.6ZM54.2668 54.332C54.2668 53.816 54.6628 53.528 55.3228 53.396L56.4868 53.168C56.7148 53.12 56.8588 53.06 56.9548 52.952H56.9908V53.528C56.9908 54.488 56.3068 55.184 55.3228 55.184C54.6868 55.184 54.2668 54.884 54.2668 54.332ZM59.8718 56H61.1318V52.592C61.1318 51.584 61.7918 50.864 62.6918 50.864C63.5678 50.864 64.0238 51.488 64.0238 52.4V56H65.2718V52.1C65.2718 50.648 64.3478 49.784 63.0278 49.784C62.1158 49.784 61.4198 50.312 61.1078 50.876H61.0838C61.1078 50.66 61.1318 50.336 61.1318 50.012V49.952H59.8718V56ZM70.3128 51.74L71.4648 51.524C71.2008 50.348 70.3008 49.784 69.0768 49.784C67.7688 49.784 66.7968 50.564 66.7968 51.644C66.7968 52.652 67.5408 53.156 68.4408 53.324L69.5208 53.528C69.9408 53.6 70.3248 53.84 70.3248 54.296C70.3248 54.812 69.9048 55.148 69.2088 55.148C68.5128 55.148 67.9968 54.8 67.8048 54.068L66.6408 54.296C66.8808 55.448 67.8528 56.168 69.1968 56.168C70.5408 56.168 71.5248 55.436 71.5248 54.284C71.5248 53.312 70.8168 52.664 69.7968 52.472L68.7288 52.28C68.3448 52.208 67.9968 52.028 67.9968 51.596C67.9968 51.116 68.4888 50.78 69.0768 50.78C69.7368 50.78 70.1688 51.068 70.3128 51.74ZM76.091 47.552V56H77.363V49.088L81.683 56H83.147V47.552H81.875V54.104L77.795 47.552H76.091ZM84.083 51.56C84.083 52.94 85.127 53.912 86.483 53.912C87.839 53.912 88.895 52.94 88.895 51.56C88.895 50.168 87.839 49.208 86.483 49.208C85.127 49.208 84.083 50.168 84.083 51.56ZM84.239 56H88.739V54.968H84.239V56ZM85.175 51.56C85.175 50.768 85.727 50.216 86.483 50.216C87.239 50.216 87.791 50.768 87.791 51.56C87.791 52.352 87.239 52.904 86.483 52.904C85.715 52.904 85.175 52.352 85.175 51.56ZM95.7627 48.68V47.552H90.7827L90.0867 52.304L91.4427 52.628C91.6947 52.004 92.2947 51.5 93.1707 51.5C94.2027 51.5 94.9107 52.22 94.9107 53.3C94.9107 54.368 94.2027 55.088 93.1227 55.088C92.2347 55.088 91.5627 54.608 91.3347 53.756L90.0627 53.9C90.3387 55.136 91.3947 56.168 93.1107 56.168C94.8747 56.168 96.1707 55.064 96.1707 53.3C96.1707 51.524 94.9947 50.432 93.4107 50.432C92.5107 50.432 91.8027 50.816 91.4547 51.392L91.4307 51.38L91.8027 48.68H95.7627ZM100.481 51.236V52.304H110.321V51.236H100.481ZM114.576 47.552H115.98L117.912 54.2H117.936L119.796 47.552H121.308L123.192 54.2H123.216L125.136 47.552H126.54L124.02 56H122.46L120.564 49.316H120.54L118.656 56H117.096L114.576 47.552ZM129.877 56.168C131.437 56.168 132.313 55.268 132.577 54.392L131.401 54.248C131.197 54.716 130.729 55.124 129.901 55.124C128.869 55.124 128.101 54.464 128.029 53.276H132.601C132.613 53.144 132.625 53.012 132.625 52.868C132.625 50.912 131.449 49.784 129.757 49.784C127.993 49.784 126.757 51.116 126.757 53C126.757 54.884 128.065 56.168 129.877 56.168ZM128.077 52.304C128.185 51.548 128.797 50.816 129.769 50.816C130.741 50.816 131.329 51.524 131.365 52.304H128.077ZM134.009 49.952V56H135.269V49.952H134.009ZM133.961 48.872H135.317V47.552H133.961V48.872ZM139.737 58.52C141.489 58.52 142.701 57.644 142.701 55.808V49.952H141.453V50.18C141.453 50.408 141.465 50.612 141.489 50.852H141.465C141.117 50.228 140.505 49.784 139.533 49.784C137.925 49.784 136.665 51.056 136.665 52.868C136.665 54.692 137.925 55.904 139.533 55.904C140.493 55.904 141.129 55.472 141.453 54.872H141.477V55.928C141.477 57.008 140.757 57.5 139.761 57.5C138.897 57.5 138.273 57.116 137.985 56.336L136.845 56.624C137.193 57.656 138.165 58.52 139.737 58.52ZM137.925 52.868C137.925 51.692 138.681 50.864 139.725 50.864C140.769 50.864 141.489 51.692 141.489 52.868C141.489 54.044 140.769 54.872 139.725 54.872C138.681 54.872 137.925 54.044 137.925 52.868ZM144.41 56H145.67V52.592C145.67 51.584 146.306 50.864 147.206 50.864C148.082 50.864 148.562 51.512 148.562 52.4V56H149.81V52.1C149.81 50.648 148.886 49.784 147.566 49.784C146.654 49.784 145.958 50.312 145.646 50.876H145.622C145.646 50.612 145.67 50.312 145.67 50.084V47.552H144.41V56ZM153.545 56.06C153.881 56.06 154.229 56.024 154.517 55.964V54.92C154.289 54.944 154.121 54.956 153.869 54.956C153.353 54.956 153.149 54.74 153.149 54.2V51.044H154.469V49.952H153.149V48.224H151.901V49.952H150.845V51.044H151.901V54.38C151.901 55.652 152.501 56.06 153.545 56.06ZM159.023 56H160.367V52.592H162.191C162.971 52.592 163.427 52.88 163.571 53.696L163.895 55.484C163.931 55.7 163.967 55.88 164.015 56H165.431C165.323 55.784 165.251 55.544 165.191 55.232L164.879 53.528C164.723 52.652 164.207 52.28 163.691 52.184C164.591 51.92 165.263 51.236 165.263 50.072C165.263 48.56 164.279 47.552 162.683 47.552H159.023V56ZM160.367 51.464V48.728H162.491C163.415 48.728 163.967 49.208 163.967 50.084C163.967 50.96 163.415 51.464 162.491 51.464H160.367ZM171.794 53.6V51.932C171.794 50.6 170.774 49.796 169.322 49.796C167.918 49.796 166.826 50.6 166.646 51.86L167.846 51.968C167.93 51.188 168.53 50.792 169.298 50.792C170.102 50.792 170.558 51.188 170.558 51.752C170.558 52.076 170.378 52.22 170.018 52.28L168.458 52.568C167.354 52.76 166.598 53.348 166.598 54.356C166.598 55.46 167.522 56.168 168.746 56.168C169.598 56.168 170.234 55.724 170.642 55.04H170.666C170.678 55.304 170.714 55.76 170.81 56H172.034C171.854 55.22 171.794 54.428 171.794 53.6ZM167.846 54.332C167.846 53.816 168.242 53.528 168.902 53.396L170.066 53.168C170.294 53.12 170.438 53.06 170.534 52.952H170.57V53.528C170.57 54.488 169.886 55.184 168.902 55.184C168.266 55.184 167.846 54.884 167.846 54.332ZM173.451 56H174.711V52.592C174.711 51.584 175.371 50.864 176.271 50.864C177.147 50.864 177.603 51.488 177.603 52.4V56H178.851V52.1C178.851 50.648 177.927 49.784 176.607 49.784C175.695 49.784 174.999 50.312 174.687 50.876H174.663C174.687 50.66 174.711 50.336 174.711 50.012V49.952H173.451V56ZM183.292 58.52C185.044 58.52 186.256 57.644 186.256 55.808V49.952H185.008V50.18C185.008 50.408 185.02 50.612 185.044 50.852H185.02C184.672 50.228 184.06 49.784 183.088 49.784C181.48 49.784 180.22 51.056 180.22 52.868C180.22 54.692 181.48 55.904 183.088 55.904C184.048 55.904 184.684 55.472 185.008 54.872H185.032V55.928C185.032 57.008 184.312 57.5 183.316 57.5C182.452 57.5 181.828 57.116 181.54 56.336L180.4 56.624C180.748 57.656 181.72 58.52 183.292 58.52ZM181.48 52.868C181.48 51.692 182.236 50.864 183.28 50.864C184.324 50.864 185.044 51.692 185.044 52.868C185.044 54.044 184.324 54.872 183.28 54.872C182.236 54.872 181.48 54.044 181.48 52.868ZM190.76 56.168C192.32 56.168 193.196 55.268 193.46 54.392L192.284 54.248C192.08 54.716 191.612 55.124 190.784 55.124C189.752 55.124 188.984 54.464 188.912 53.276H193.484C193.496 53.144 193.508 53.012 193.508 52.868C193.508 50.912 192.332 49.784 190.64 49.784C188.876 49.784 187.64 51.116 187.64 53C187.64 54.884 188.948 56.168 190.76 56.168ZM188.96 52.304C189.068 51.548 189.68 50.816 190.652 50.816C191.624 50.816 192.212 51.524 192.248 52.304H188.96Z" fill="black"/>
</g>
<defs>
<clipPath id="clip0">
<rect width="720" height="900" fill="white"/>
</clipPath>
</defs>
</svg>
