<svg width="1600" height="900" viewBox="0 0 1600 900" fill="none" xmlns="http://www.w3.org/2000/svg">
<rect width="1600" height="900" fill="black"/>
<path d="M77.64 224L115.44 125.44H134.2L171.72 224H154.5L140.08 184.8H150.86L153.66 198.1H95.84L98.64 184.8H108.44L94.02 224H77.64ZM108.44 184.8H140.08L124.4 142.52H124.12L108.44 184.8ZM184.269 224H225.989C244.189 224 257.909 214.48 257.909 197.12C257.909 186.06 251.189 176.96 240.129 173.46C248.669 169.68 254.969 162.12 254.969 151.76C254.969 134.96 241.529 125.44 224.029 125.44H184.269V224ZM199.249 211.4V179.48H224.309C234.809 179.48 242.789 184.94 242.789 195.44C242.789 205.94 234.809 211.4 224.309 211.4H199.249ZM199.249 167.58V138.04H222.069C232.149 138.04 239.709 142.8 239.709 152.74C239.709 162.82 232.149 167.58 222.069 167.58H199.249ZM318.694 226.1C343.334 226.1 358.594 211.68 362.094 193.2L347.254 191.38C344.174 203.98 334.654 212.52 318.694 212.52C298.534 212.52 283.974 197.26 283.974 174.72C283.974 152.18 298.254 136.78 318.414 136.78C334.094 136.78 343.894 145.32 346.834 157.78L361.814 155.82C358.314 137.62 342.914 123.34 318.414 123.34C289.014 123.34 268.574 144.48 268.574 174.72C268.574 204.82 289.294 226.1 318.694 226.1ZM410.804 224H375.944V125.44H410.804C443.564 125.44 459.944 146.86 459.944 174.72C459.944 202.44 443.564 224 410.804 224ZM391.064 210.42H409.964C432.364 210.42 444.544 196.14 444.544 174.72C444.544 153.16 432.364 138.88 409.964 138.88H391.064V210.42ZM474.583 125.44V224H539.823V210.7H490.263V180.6H533.103V167.72H490.263V138.74H539.823V125.44H474.583ZM554.771 125.44V224H570.451V181.58H610.491V167.86H570.451V139.16H617.211V125.44H554.771ZM706.194 224H719.074V174.44H670.914V186.48L704.794 186.62C702.554 204.82 690.654 213.22 675.114 213.22C654.954 213.22 640.954 197.54 640.954 174.86C640.954 152.32 654.814 136.36 674.974 136.36C690.654 136.36 700.034 145.32 703.254 157.64L717.954 155.82C714.314 137.48 699.474 123.34 674.974 123.34C645.854 123.34 625.694 144.48 625.694 174.72C625.834 204.68 645.994 226.1 674.554 226.1C689.114 226.1 700.034 220.22 706.194 209.86V224ZM748.769 174.86C748.769 152.32 762.629 136.36 782.789 136.36C798.889 136.36 807.989 145.32 811.069 157.64L826.049 155.82C822.689 137.48 807.569 123.34 782.789 123.34C753.669 123.34 733.509 144.48 733.509 174.72C733.509 204.68 754.229 226.1 783.489 226.1C809.109 226.1 828.289 211.12 828.289 178.64V175.7H784.889V188.02H813.029C811.209 204.82 799.729 213.22 783.909 213.22C763.329 213.22 748.769 197.68 748.769 174.86ZM843.871 125.44V224H859.551V181.02H906.731V224H922.271V125.44H906.731V167.3H859.551V125.44H843.871ZM941.979 125.44V224H956.819V125.44H941.979ZM986.714 194.32V186.9L971.874 187.6V193.9C971.874 213.92 985.034 226.24 1004.77 226.24C1024.79 226.24 1037.11 214.2 1037.11 194.32V125.44H1021.85V193.9C1021.85 206.22 1016.25 213.08 1004.77 213.08C993.294 213.08 986.714 205.94 986.714 194.32ZM1118.56 224H1137.04L1096.86 167.86L1136.06 125.44H1117.44L1072.92 174.02V125.44H1057.94V224H1072.92V193.62L1086.64 178.78L1118.56 224ZM1207.41 224H1226.87L1180.81 173.88L1225.75 125.44H1206.57L1165.27 170.8V125.44H1150.43V224H1165.27V177.52L1207.41 224ZM1237.7 125.44V224H1300.98V210.28H1253.38V125.44H1237.7ZM1315.43 125.44V224H1330.13V145.74L1358.83 224H1375.63L1404.33 145.74V224H1419.03V125.44H1396.91L1367.23 208.04L1337.55 125.44H1315.43ZM1439.67 125.44V224H1454.51V143.36L1504.91 224H1521.99V125.44H1507.15V201.88L1459.55 125.44H1439.67ZM130.42 373.1C159.12 373.1 180.4 351.82 180.4 321.72C180.4 291.48 159.12 270.34 130.42 270.34C101.72 270.34 80.44 291.48 80.44 321.72C80.44 351.82 101.72 373.1 130.42 373.1ZM96.12 321.72C96.12 300.3 109.98 284.06 130.42 284.06C150.86 284.06 164.86 300.3 164.86 321.72C164.86 343.14 150.86 359.38 130.42 359.38C109.98 359.38 96.12 343.14 96.12 321.72ZM195.053 371H210.733V331.8H237.333C256.093 331.8 267.853 319.76 267.853 302.12C267.853 284.48 256.093 272.44 237.333 272.44H195.053V371ZM210.733 318.08V286.16H235.373C246.153 286.16 252.733 291.9 252.733 302.12C252.733 312.34 246.153 318.08 235.373 318.08H210.733ZM335.18 391.16H352.96L335.88 372.12C359.26 367.78 375.64 348.18 375.64 321.72C375.64 291.48 354.36 270.34 325.66 270.34C296.96 270.34 275.68 291.48 275.68 321.72C275.68 349.3 293.46 369.46 318.52 372.68L335.18 391.16ZM291.36 321.72C291.36 300.3 305.22 284.06 325.66 284.06C346.1 284.06 360.1 300.3 360.1 321.72C360.1 343.14 346.1 359.38 325.66 359.38C305.22 359.38 291.36 343.14 291.36 321.72ZM390.293 371H405.973V331.24H427.253C436.353 331.24 441.673 334.6 443.353 344.12L447.133 364.98C447.553 367.5 447.973 369.6 448.533 371H465.053C463.793 368.48 462.953 365.68 462.253 362.04L458.613 342.16C456.793 331.94 450.773 327.6 444.753 326.48C455.253 323.4 463.093 315.42 463.093 301.84C463.093 284.2 451.613 272.44 432.993 272.44H390.293V371ZM405.973 318.08V286.16H430.753C441.533 286.16 447.973 291.76 447.973 301.98C447.973 312.2 441.533 318.08 430.753 318.08H405.973ZM536.458 343.7V371H551.158V341.74C551.158 330.54 543.318 326.2 536.458 325.64C546.118 322.28 553.398 314.72 553.398 301.84C553.398 284.2 541.918 272.44 523.298 272.44H480.598V371H496.278V331.24H520.638C529.598 331.24 536.458 334.04 536.458 343.7ZM496.278 318.08V286.16H521.058C531.838 286.16 538.278 291.76 538.278 301.98C538.278 312.2 531.838 318.08 521.058 318.08H496.278ZM570.63 371H586.31V331.52H602.55L626.77 371H644.27L619.07 331.1C634.19 328.72 643.43 317.8 643.43 302.12C643.43 284.48 631.67 272.44 612.91 272.44H570.63V371ZM586.31 318.08V286.16H610.95C621.73 286.16 628.31 291.9 628.31 302.12C628.31 312.34 621.73 318.08 610.95 318.08H586.31ZM713.058 300.3L727.618 297.64C723.138 278.18 709.838 270.34 691.918 270.34C671.758 270.34 656.498 282.38 656.498 298.9C656.498 314.3 667.278 322.56 682.398 325.36L698.498 328.3C706.058 329.7 712.778 334.74 712.778 343.56C712.778 353.22 705.078 359.66 693.038 359.66C681.138 359.66 672.318 353.92 668.678 340.06L653.978 342.86C658.318 362.32 672.878 372.82 692.758 372.82C714.178 372.82 728.598 360.92 728.598 343.42C728.598 327.74 718.238 317.66 701.998 314.72L686.038 311.78C679.318 310.52 672.458 306.74 672.458 298.48C672.458 289.1 681.698 283.36 691.918 283.36C702.558 283.36 710.258 287.98 713.058 300.3ZM813.677 272.44H732.197V285.18H765.517V371H780.497V285.18H813.677V272.44ZM825.694 272.44V335.02C825.694 358.96 841.374 373.24 864.474 373.24C887.434 373.24 903.114 358.96 903.114 335.02V272.44H888.134V334.46C888.134 349.58 879.314 359.38 864.474 359.38C849.354 359.38 840.674 349.58 840.674 334.46V272.44H825.694ZM913.592 272.44H930.812L960.912 353.64H961.192L991.292 272.44H1007.67L970.012 371H951.252L913.592 272.44ZM1011.2 272.44H1027.58L1050.12 350H1050.4L1072.1 272.44H1089.74L1111.72 350H1112L1134.4 272.44H1150.78L1121.38 371H1103.18L1081.06 293.02H1080.78L1058.8 371H1040.6L1011.2 272.44ZM1155.76 371H1174.24L1199.72 332.92L1224.92 371H1243.4L1209.8 321.58L1243.12 272.44H1224.78L1199.72 310.66L1174.52 272.44H1156.04L1189.64 321.58L1155.76 371ZM1246.59 272.44H1264.93L1290.13 315.7H1290.55L1315.61 272.44H1333.95L1298.11 330.82H1282.57V322.84H1298.11V371H1282.57V330.82L1246.59 272.44ZM1341.67 272.44V286.02H1397.25L1340.27 360.08V371H1417.41V357.42H1359.59L1416.15 283.22V272.44H1341.67ZM140.64 490V470.54C140.64 455 128.74 445.62 111.8 445.62C95.42 445.62 82.68 455 80.58 469.7L94.58 470.96C95.56 461.86 102.56 457.24 111.52 457.24C120.9 457.24 126.22 461.86 126.22 468.44C126.22 472.22 124.12 473.9 119.92 474.6L101.72 477.96C88.84 480.2 80.02 487.06 80.02 498.82C80.02 511.7 90.8 519.96 105.08 519.96C115.02 519.96 122.44 514.78 127.2 506.8H127.48C127.62 509.88 128.04 515.2 129.16 518H143.44C141.34 508.9 140.64 499.66 140.64 490ZM94.58 498.54C94.58 492.52 99.2 489.16 106.9 487.62L120.48 484.96C123.14 484.4 124.82 483.7 125.94 482.44H126.36V489.16C126.36 500.36 118.38 508.48 106.9 508.48C99.48 508.48 94.58 504.98 94.58 498.54ZM212.892 470.54C212.892 455 201.272 445.62 184.332 445.62C167.952 445.62 155.212 455 153.112 469.7L167.112 470.96C168.092 461.86 175.092 457.24 184.052 457.24C193.432 457.24 198.752 461.86 198.752 468.44C198.752 472.22 196.652 473.9 192.452 474.6L174.252 477.96C161.372 480.2 152.552 487.06 152.552 498.82C152.552 511.7 163.332 519.96 177.612 519.96C187.552 519.96 194.972 514.78 199.172 507.36H199.452V518H212.892V470.54ZM167.112 498.54C167.112 492.52 171.732 489.16 179.432 487.62L193.012 484.96C195.672 484.4 197.352 483.7 198.472 482.44H198.892V489.16C198.892 500.36 190.912 508.48 179.432 508.48C172.012 508.48 167.112 504.98 167.112 498.54ZM251.691 508.62C244.551 508.62 239.791 505.12 239.791 499.1C239.791 493.08 244.551 487.62 260.231 485.24L271.571 483.56V485.94C271.571 498.54 263.731 508.62 251.691 508.62ZM224.951 469.28L239.231 470.54C240.631 461.58 247.631 457.1 256.311 457.1C264.991 457.1 271.431 461.72 271.431 471.24V473.2L257.991 475.02C233.351 478.24 225.231 488.32 225.231 499.38C225.231 511.84 235.451 519.96 249.311 519.96C262.051 519.96 269.191 512.4 272.691 505.4H272.971C273.111 508.48 273.391 514.36 274.511 518H288.651C286.551 509.6 285.851 499.8 285.851 490V471.8C285.851 454.02 273.111 445.48 256.871 445.48C240.351 445.48 227.471 454.02 224.951 469.28ZM325.053 508.62C317.633 508.62 312.733 505.12 312.733 499.1C312.733 493.08 317.633 487.62 333.733 485.24L345.633 483.56V485.94C345.633 498.54 337.513 508.62 325.053 508.62ZM297.893 469.28L312.173 470.54C313.433 461.58 320.853 457.1 329.813 457.1C338.773 457.1 345.493 461.72 345.493 471.24V473.2L331.493 475.02C306.573 478.1 298.173 488.32 298.173 499.38C298.173 511.84 308.533 519.96 322.673 519.96C335.553 519.96 342.273 512.26 345.773 505.96H346.193V518H359.773V471.8C359.773 454.02 346.893 445.48 330.373 445.48C313.573 445.48 300.413 454.02 297.893 469.28ZM405.252 519.96C417.292 519.96 425.132 514.08 429.052 507.22H429.332C429.052 510.3 428.912 514.92 428.912 517.58V518H442.912V447.44H428.352V448C428.352 450.66 428.492 455.42 428.772 458.08H428.492C424.712 451.22 417.012 445.48 405.252 445.48C385.652 445.48 371.232 460.6 371.232 482.72C371.232 504.7 385.512 519.96 405.252 519.96ZM386.212 482.86C386.212 468.72 394.472 458.36 407.492 458.36C420.512 458.36 428.772 468.72 428.772 482.86C428.772 497 420.512 507.08 407.492 507.08C394.472 507.08 386.212 497 386.212 482.86ZM496.415 519.96C515.595 519.96 530.295 504.7 530.295 482.72C530.295 460.6 515.455 445.48 496.415 445.48C484.515 445.48 476.955 451.22 473.175 458.08H472.895C473.175 455.42 473.315 451.78 473.315 449.12V419.44H458.615V518H472.755V515.76C472.755 512.96 472.615 509.46 472.335 507.22H472.615C476.395 514.08 484.235 519.96 496.415 519.96ZM472.895 482.86C472.895 468.72 481.155 458.36 494.175 458.36C507.195 458.36 515.455 468.72 515.455 482.86C515.455 497 507.195 507.08 494.175 507.08C481.155 507.08 472.895 497 472.895 482.86ZM576.352 519.96C594.272 519.96 606.452 509.32 608.972 494.2L594.972 492.52C592.872 501.34 586.712 507.08 576.352 507.08C563.612 507.08 554.512 496.86 554.512 482.72C554.512 468.58 563.332 458.36 576.072 458.36C586.152 458.36 592.732 463.82 594.832 472.36L608.972 470.68C606.312 455.7 593.712 445.48 576.072 445.48C555.352 445.48 539.812 460.6 539.812 482.72C539.812 504.7 555.352 519.96 576.352 519.96ZM651.559 519.96C663.599 519.96 671.439 514.08 675.359 507.22H675.639C675.359 509.88 675.219 513.52 675.219 516.18V518H689.219V419.44H674.659V449.12C674.659 451.78 674.799 455.42 675.079 458.08H674.799C671.019 451.22 663.319 445.48 651.559 445.48C631.959 445.48 617.539 460.6 617.539 482.72C617.539 504.7 631.819 519.96 651.559 519.96ZM632.519 482.86C632.519 468.72 640.779 458.36 653.799 458.36C666.819 458.36 675.079 468.72 675.079 482.86C675.079 497 666.819 507.08 653.799 507.08C640.779 507.08 632.519 497 632.519 482.86ZM737.542 519.96C755.742 519.96 765.962 509.46 769.042 499.24L755.322 497.56C752.942 503.02 747.482 507.78 737.822 507.78C725.782 507.78 716.822 500.08 715.982 486.22H769.322C769.462 484.68 769.602 483.14 769.602 481.46C769.602 458.64 755.882 445.48 736.142 445.48C715.562 445.48 701.142 461.02 701.142 483C701.142 504.98 716.402 519.96 737.542 519.96ZM716.542 474.88C717.802 466.06 724.942 457.52 736.282 457.52C747.622 457.52 754.482 465.78 754.902 474.88H716.542ZM808.309 419.44C795.849 419.44 788.569 425.04 788.569 437.36V447.44H775.409V460.46H788.569V518H803.269V460.46H819.509V447.44H803.269V439.46C803.269 434.42 805.789 431.62 811.389 431.62H820.629V419.44H808.309ZM860.448 547.4C880.888 547.4 895.028 537.18 895.028 515.76V447.44H880.468V450.1C880.468 452.76 880.608 455.14 880.888 457.94H880.608C876.548 450.66 869.408 445.48 858.068 445.48C839.308 445.48 824.608 460.32 824.608 481.46C824.608 502.74 839.308 516.88 858.068 516.88C869.268 516.88 876.688 511.84 880.468 504.84H880.748V517.16C880.748 529.76 872.348 535.5 860.728 535.5C850.648 535.5 843.368 531.02 840.008 521.92L826.708 525.28C830.768 537.32 842.108 547.4 860.448 547.4ZM839.308 481.46C839.308 467.74 848.128 458.08 860.308 458.08C872.488 458.08 880.888 467.74 880.888 481.46C880.888 495.18 872.488 504.84 860.308 504.84C848.128 504.84 839.308 495.18 839.308 481.46ZM910.76 518H925.46V478.24C925.46 466.48 932.88 458.08 943.38 458.08C953.6 458.08 959.2 465.64 959.2 476V518H973.76V472.5C973.76 455.56 962.98 445.48 947.58 445.48C936.94 445.48 928.82 451.64 925.18 458.22H924.9C925.18 455.14 925.46 451.64 925.46 448.98V419.44H910.76V518ZM989.171 447.44V518H1003.87V447.44H989.171ZM988.611 434.84H1004.43V419.44H988.611V434.84ZM1026.87 435.4C1032.05 435.4 1036.39 431.2 1036.39 426.02C1036.39 420.84 1032.05 416.64 1026.87 416.64C1021.83 416.64 1017.49 420.84 1017.49 426.02C1017.49 431.2 1021.83 435.4 1026.87 435.4ZM1019.59 518H1034.29V447.44H1019.59V518ZM1049.46 419.44V434.84H1065.28V419.44H1049.46ZM1037.98 546H1044.7C1057.16 546 1064.72 541.52 1064.72 526.96V447.44H1050.02V525.7C1050.02 532.28 1046.94 533.96 1040.36 533.96H1037.98V546ZM1075.12 546C1087.58 546 1095.14 541.52 1095.14 526.96V447.44H1080.44V525.7C1080.44 532.28 1077.36 533.96 1070.78 533.96H1068.4V546H1075.12ZM1078.34 426.02C1078.34 431.2 1082.68 435.4 1087.72 435.4C1092.9 435.4 1097.24 431.2 1097.24 426.02C1097.24 420.84 1092.9 416.64 1087.72 416.64C1082.68 416.64 1078.34 420.84 1078.34 426.02ZM1159.3 518H1175.68L1145.44 476.56L1174.56 447.44H1156.92L1125.84 478.94V419.44H1111.28V518H1125.84V495.88L1135.92 485.66L1159.3 518ZM1185.58 419.44V518H1200.28V419.44H1185.58ZM1216 518H1230.7V475.72C1230.7 465.92 1237.14 457.8 1246.94 457.8C1255.9 457.8 1259.82 464.66 1259.82 473.06V518H1274.24V475.72C1274.24 465.92 1280.96 457.8 1290.62 457.8C1299.72 457.8 1303.5 464.66 1303.5 473.06V518H1317.92V469.7C1317.92 455.84 1308.82 445.48 1294.4 445.48C1283.9 445.48 1275.92 451.5 1271.86 458.5H1271.58C1268.78 451.22 1262.2 445.48 1251.56 445.48C1241.2 445.48 1234.2 451.22 1230.7 457.38H1230.28C1230.56 454.58 1230.7 451.5 1230.7 448.98V447.44H1216V518ZM1333.38 518H1348.08V478.24C1348.08 466.48 1355.78 458.08 1366.28 458.08C1376.5 458.08 1381.82 465.36 1381.82 476V518H1396.38V472.5C1396.38 455.56 1385.6 445.48 1370.2 445.48C1359.56 445.48 1351.44 451.64 1347.8 458.22H1347.52C1347.8 455.7 1348.08 451.92 1348.08 448.14V447.44H1333.38V518ZM116.14 666.96C136.86 666.96 152.68 651.7 152.68 629.72C152.68 607.6 136.86 592.48 116.14 592.48C95.42 592.48 79.46 607.6 79.46 629.72C79.46 651.7 95.42 666.96 116.14 666.96ZM94.16 629.72C94.16 615.58 103.12 605.36 116.14 605.36C129.16 605.36 137.98 615.58 137.98 629.72C137.98 643.86 129.16 654.08 116.14 654.08C103.12 654.08 94.16 643.86 94.16 629.72ZM202.322 592.48C190.142 592.48 182.302 598.22 178.522 605.22H178.242C178.522 602.84 178.662 599.48 178.662 596.54V594.44H164.522V692.16H179.222V663.32C179.222 660.66 179.082 656.88 178.802 654.22H179.082C182.862 661.22 190.422 666.96 202.322 666.96C221.362 666.96 236.202 651.7 236.202 629.72C236.202 607.6 221.502 592.48 202.322 592.48ZM178.802 629.44C178.802 615.3 187.062 605.22 200.082 605.22C213.102 605.22 221.362 615.3 221.362 629.44C221.362 643.58 213.102 653.94 200.082 653.94C187.062 653.94 178.802 643.58 178.802 629.44ZM279.739 592.48C259.999 592.48 245.719 607.6 245.719 629.72C245.719 651.7 260.139 666.96 279.739 666.96C291.499 666.96 299.199 661.22 302.979 654.22H303.259C302.979 656.88 302.839 660.66 302.839 663.32V692.16H317.399V594.44H303.399V596.12C303.399 598.78 303.539 602.56 303.819 605.22H303.539C299.619 598.22 291.779 592.48 279.739 592.48ZM260.699 629.44C260.699 615.3 268.959 605.22 281.979 605.22C294.999 605.22 303.259 615.3 303.259 629.44C303.259 643.58 294.999 653.94 281.979 653.94C268.959 653.94 260.699 643.58 260.699 629.44ZM333.785 665H348.485V627.76C348.485 614.74 355.625 607.46 366.685 607.46H374.665V594.44H366.685C358.005 594.44 351.425 598.64 347.785 606.76H347.505C347.645 603.82 347.925 599.06 347.925 595.28V594.44H333.785V665ZM422.138 615.3L435.578 612.78C432.498 599.06 421.998 592.48 407.718 592.48C392.458 592.48 381.118 601.58 381.118 614.18C381.118 625.94 389.798 631.82 400.298 633.78L412.898 636.16C417.798 637 422.278 639.8 422.278 645.12C422.278 651.14 417.378 655.06 409.258 655.06C401.138 655.06 395.118 651 392.878 642.46L379.298 645.12C382.098 658.56 393.438 666.96 409.118 666.96C424.798 666.96 436.278 658.42 436.278 644.98C436.278 633.64 428.018 626.08 416.118 623.84L403.658 621.6C399.178 620.76 395.118 618.66 395.118 613.62C395.118 608.02 400.858 604.1 407.718 604.1C415.418 604.1 420.458 607.46 422.138 615.3ZM474.264 665H487.004V651.98H478.044C472.444 651.98 469.924 649.18 469.924 644.14V607.46H486.164V594.44H469.924V574.84H455.224V594.44H442.064V607.46H455.224V647.08C455.224 659.4 462.504 665 474.264 665ZM523.818 666.96C534.738 666.96 542.858 660.8 546.498 654.08H546.778C546.638 657.3 546.358 661.08 546.358 664.3V665H560.918V594.44H546.358V635.32C546.358 645.68 539.218 654.36 528.578 654.36C517.938 654.36 512.618 646.8 512.618 636.44V594.44H497.918V641.06C497.918 656.74 508.418 666.96 523.818 666.96ZM585.992 594.44L606.012 651.56H606.292L626.452 594.44H641.152L615.112 665H596.492L570.312 594.44H585.992ZM645.185 594.44H660.025L675.145 648.48H675.425L689.985 594.44H705.525L720.225 648.48H720.505L735.485 594.44H750.325L728.905 665H712.665L697.965 610.96H697.545L682.985 665H666.885L645.185 594.44ZM755.321 665H771.841L789.201 639.38H789.481L806.841 665H823.361L798.301 629.44L823.081 594.44H806.561L789.481 619.64H789.201L772.121 594.44H755.741L780.521 629.44L755.321 665ZM843.513 594.44L863.533 645.12H863.813L883.833 594.44H898.533L859.053 692.44H843.233L856.393 661.64L827.693 594.44H843.513ZM908.026 594.44V606.62H945.686L907.186 655.34V665H964.866V652.82H925.526L963.746 604.1V594.44H908.026ZM978.221 647.78V665H995.441V647.78H978.221ZM1019.94 665.98C1025.68 665.98 1030.02 661.78 1030.02 655.9C1030.02 650.02 1025.68 645.82 1019.94 645.82C1014.2 645.82 1010 650.02 1010 655.9C1010 661.78 1014.2 665.98 1019.94 665.98ZM1044.12 648.2V665H1051.82L1040.76 685.86H1048.32L1061.34 664.86V648.2H1044.12ZM1082.21 649.6L1073.25 688.52H1083.19L1096.77 649.6H1082.21ZM1110.2 566.44L1111.46 635.46H1123.78L1125.04 566.44H1110.2ZM1109.22 665H1126.02V648.2H1109.22V665ZM1143.79 566.44L1145.19 633.78H1156.53L1157.93 566.44H1143.79ZM1140.85 655.9C1140.85 661.78 1145.05 665.98 1150.79 665.98C1156.53 665.98 1160.87 661.78 1160.87 655.9C1160.87 650.02 1156.53 645.82 1150.79 645.82C1145.05 645.82 1140.85 650.02 1140.85 655.9ZM1206.62 564.34C1186.32 564.34 1171.76 579.88 1173.3 599.2L1187.58 600.88C1186.18 587.3 1194.58 577.64 1206.62 577.64C1217.54 577.64 1223.98 584.64 1223.98 594.16C1223.98 602.7 1218.94 607.04 1213.9 609.98L1208.3 613.34C1198.78 618.8 1195.42 625.52 1195.28 635.32H1209.84C1209.84 629.86 1211.94 626.08 1217.26 622.72L1223.7 618.8C1232.1 613.48 1238.54 607.32 1238.54 593.6C1238.54 579.04 1227.48 564.34 1206.62 564.34ZM1194.02 665H1210.96V648.06H1194.02V665ZM1282.98 564.34C1262.68 564.34 1248.12 579.88 1249.66 599.2L1263.94 600.88C1262.54 587.3 1270.94 577.64 1282.98 577.64C1293.9 577.64 1300.34 584.64 1300.34 594.02C1300.34 602.56 1295.3 607.04 1290.26 609.98L1284.66 613.34C1275.14 618.8 1271.78 625.52 1271.64 635.32H1286.2C1286.2 629.86 1288.3 626.08 1293.62 622.72L1300.06 618.8C1308.46 613.48 1314.9 607.32 1314.9 593.6C1314.9 579.04 1303.84 564.34 1282.98 564.34ZM1268.84 655.9C1268.84 661.78 1273.18 665.98 1278.92 665.98C1284.66 665.98 1288.86 661.78 1288.86 655.9C1288.86 650.02 1284.66 645.82 1278.92 645.82C1273.18 645.82 1268.84 650.02 1268.84 655.9ZM79.88 743.68V729.12C89.54 727.58 99.48 723.52 104.8 713.44H117.96V812H103.26V734.44H102.98C97.66 740.04 87.44 742.84 79.88 743.68ZM167.568 711.34C147.548 711.34 132.568 725.62 133.688 745.64L148.248 746.48C147.268 732.76 155.808 724.22 167.848 724.22C178.488 724.22 185.908 731.5 185.908 741.58C185.908 750.96 178.768 756.56 168.548 762.16L156.228 768.88C140.268 777.56 132.568 787.08 132.568 803.32C132.568 806.12 132.848 809.76 133.128 812H201.448V799.26H148.668C148.808 791.14 153.988 785.4 163.788 780.08L177.928 772.1C191.648 764.54 200.468 756.28 200.468 741.58C200.468 726.32 188.848 711.34 167.568 711.34ZM245.201 801.08C231.901 801.08 223.921 793.52 222.801 781.2L208.381 782.88C209.781 800.94 223.781 814.1 245.061 814.1C266.341 814.1 279.221 802.2 279.221 785.26C279.221 774.2 272.781 764.96 261.441 761.32V761.04C269.981 757.12 276.141 749.98 276.141 739.2C276.141 722.96 263.541 711.34 243.941 711.34C225.041 711.34 210.621 723.94 209.641 741.16L224.061 742.98C224.761 731.36 232.601 724.22 243.941 724.22C254.581 724.22 261.441 730.52 261.441 740.6C261.441 750.4 254.301 755.16 245.061 755.16H235.961V767.9H246.321C256.961 767.9 264.521 773.92 264.521 784.14C264.521 794.92 256.961 801.08 245.201 801.08ZM334.933 713.44L287.333 774.2V787.5H338.293V812H352.853V787.5H367.413V774.2H352.713V713.44H334.933ZM303.153 774.2V773.92L338.153 729.12H338.433V774.2H303.153ZM440.05 726.6V713.44H381.95L373.83 768.88L389.65 772.66C392.59 765.38 399.59 759.5 409.81 759.5C421.85 759.5 430.11 767.9 430.11 780.5C430.11 792.96 421.85 801.36 409.25 801.36C398.89 801.36 391.05 795.76 388.39 785.82L373.55 787.5C376.77 801.92 389.09 813.96 409.11 813.96C429.69 813.96 444.81 801.08 444.81 780.5C444.81 759.78 431.09 747.04 412.61 747.04C402.11 747.04 393.85 751.52 389.79 758.24L389.51 758.1L393.85 726.6H440.05ZM512.291 739.34L526.291 737.66C524.191 723.8 514.671 711.34 493.951 711.34C467.631 711.34 452.931 732.76 452.931 764.82V765.24C452.931 798.84 470.991 814.1 492.551 814.1C511.871 814.1 527.271 800.1 527.271 780.5C527.271 761.18 512.991 747.18 494.791 747.18C480.931 747.18 471.551 755.02 467.771 764.54H467.491C467.351 738.64 478.131 723.94 493.671 723.94C504.731 723.94 510.331 730.38 512.291 739.34ZM471.271 780.5C471.271 768.18 480.091 759.64 491.991 759.64C503.891 759.64 512.711 768.18 512.711 780.5C512.711 792.96 503.891 801.36 491.991 801.36C480.091 801.36 471.271 792.96 471.271 780.5ZM533.21 713.44V726.6H586.83V726.88C565.41 747.46 551.41 778.54 550.15 812H565.97C566.67 778.4 579.69 749.56 605.87 727.3V713.44H533.21ZM645.733 813.96C665.893 813.96 681.153 803.18 681.153 785.4C681.153 771.4 671.073 763.84 661.833 760.62V760.48C669.953 757.68 678.493 750.82 678.493 738.64C678.493 722.26 664.213 711.48 645.733 711.48C627.113 711.48 612.833 722.26 612.833 738.64C612.833 750.82 621.373 757.68 629.493 760.48V760.62C620.253 763.84 610.173 771.4 610.173 785.4C610.173 803.18 625.433 813.96 645.733 813.96ZM624.873 784.28C624.873 772.8 634.673 766.64 645.733 766.64C656.653 766.64 666.453 772.8 666.453 784.28C666.453 795.62 656.653 801.78 645.733 801.78C634.673 801.78 624.873 795.62 624.873 784.28ZM627.393 739.2C627.393 729.26 636.073 723.66 645.733 723.66C655.253 723.66 663.933 729.26 663.933 739.2C663.933 749.14 655.253 754.88 645.733 754.88C636.073 754.88 627.393 749.14 627.393 739.2ZM704.488 786.24L690.348 787.92C692.728 801.36 703.788 814.1 724.228 814.1C751.248 814.1 763.708 792.54 763.708 760.48V760.2C763.708 726.6 745.788 711.34 724.228 711.34C704.768 711.34 689.368 725.2 689.368 744.8C689.368 764.26 703.648 778.26 721.848 778.26C735.848 778.26 745.228 770.42 749.008 760.9H749.288C749.428 786.94 741.308 801.36 724.228 801.36C713.028 801.36 706.728 795.2 704.488 786.24ZM704.068 744.8C704.068 732.48 712.748 723.94 724.648 723.94C736.548 723.94 745.368 732.48 745.368 744.8C745.368 757.26 736.548 765.66 724.648 765.66C712.748 765.66 704.068 757.26 704.068 744.8ZM811.227 814.1C837.687 814.1 850.007 791.56 850.007 762.72C850.007 733.74 837.687 711.34 811.227 711.34C784.907 711.34 772.447 733.74 772.447 762.72C772.447 791.56 784.907 814.1 811.227 814.1ZM787.427 762.72C787.427 741.16 794.147 724.08 811.227 724.08C828.307 724.08 835.167 741.16 835.167 762.72C835.167 784.28 828.307 801.36 811.227 801.36C794.147 801.36 787.427 784.28 787.427 762.72ZM889.877 756.42L897.577 750.82L888.197 738.08L903.037 733.32L900.237 724.08L885.257 728.98V713.44H875.737V728.98L860.897 724.08L857.957 733.32L872.937 738.08L863.557 750.82L871.257 756.42L880.497 743.82L889.877 756.42ZM946.925 814.1C958.545 814.1 968.065 809.34 975.205 802.48L984.585 812H1002.09L983.185 792.54C988.085 784.7 991.025 775.88 992.145 768.04L978.145 766.36C977.445 771.54 975.765 777.14 973.385 782.46L951.965 760.34C964.985 753.62 972.825 747.32 973.105 734.86C973.525 721.42 962.185 711.34 946.925 711.34C930.965 711.34 920.045 722.26 920.045 735.14C920.045 744.38 924.385 750.68 930.545 756.98L931.385 757.82C919.625 764.26 912.625 772.8 912.625 785.54C912.625 802.34 926.485 814.1 946.925 814.1ZM927.045 784.56C927.045 777.56 930.545 771.68 939.925 766.5L966.105 793.1C961.345 798.14 955.045 801.36 947.065 801.36C934.045 801.36 927.045 793.66 927.045 784.56ZM934.045 735.84C934.045 728.28 940.065 723.24 946.785 723.24C953.925 723.24 959.665 728 959.385 735.84C958.965 742.56 954.485 746.48 944.965 751.1L943.565 751.8L939.925 748.02C936.005 743.96 934.045 740.18 934.045 735.84ZM1086.17 713.44L1012.81 812H1027.09L1100.31 713.44H1086.17ZM1005.53 734.44C1005.53 746.62 1015.33 756.56 1027.65 756.56C1039.83 756.56 1049.77 746.62 1049.77 734.44C1049.77 722.12 1039.83 712.32 1027.65 712.32C1015.33 712.32 1005.53 722.12 1005.53 734.44ZM1016.59 734.44C1016.59 728.28 1021.35 723.38 1027.65 723.38C1033.95 723.38 1038.71 728.28 1038.71 734.44C1038.71 740.6 1033.95 745.5 1027.65 745.5C1021.35 745.5 1016.59 740.6 1016.59 734.44ZM1063.35 791C1063.35 803.18 1073.15 813.12 1085.47 813.12C1097.79 813.12 1107.59 803.18 1107.59 791C1107.59 778.68 1097.79 768.74 1085.47 768.74C1073.15 768.74 1063.35 778.68 1063.35 791ZM1074.41 791C1074.41 784.84 1079.17 779.94 1085.47 779.94C1091.77 779.94 1096.53 784.84 1096.53 791C1096.53 797.16 1091.77 802.06 1085.47 802.06C1079.17 802.06 1074.41 797.16 1074.41 791ZM1144.42 713.44H1112.5V720.58H1124.54V753.34H1132.38V720.58H1144.42V713.44ZM1150.58 753.34H1158.28V728.42L1169.48 753.34H1176.06L1187.4 728.56V753.34H1194.96V713.44H1186.42L1172.84 743.68L1159.26 713.44H1150.58V753.34ZM1256.37 813.96C1284.65 813.96 1307.89 791.42 1307.89 762.72C1307.89 733.88 1284.65 711.48 1256.37 711.48C1228.09 711.48 1204.85 733.88 1204.85 762.72C1204.85 791.42 1228.09 813.96 1256.37 813.96ZM1215.35 762.72C1215.35 739.62 1233.55 721.56 1256.37 721.56C1279.33 721.56 1297.53 739.62 1297.53 762.72C1297.53 785.82 1279.19 804.02 1256.37 804.02C1233.55 804.02 1215.35 785.82 1215.35 762.72ZM1230.61 776.16L1236.35 771.54C1241.39 778.4 1248.39 781.62 1256.37 781.62C1264.49 781.62 1271.49 778.4 1276.53 771.54L1282.27 776.16C1275.83 785.4 1266.45 789.46 1256.37 789.46C1246.29 789.46 1236.91 785.4 1230.61 776.16ZM1234.53 752.08C1234.53 756.42 1238.03 759.92 1242.37 759.92C1246.85 759.92 1250.21 756.42 1250.21 752.08C1250.21 747.6 1246.85 744.24 1242.37 744.24C1238.03 744.24 1234.53 747.6 1234.53 752.08ZM1262.53 752.08C1262.53 756.42 1266.03 759.92 1270.37 759.92C1274.85 759.92 1278.21 756.42 1278.21 752.08C1278.21 747.6 1274.85 744.24 1270.37 744.24C1266.03 744.24 1262.53 747.6 1262.53 752.08ZM1331.57 771.82L1374.27 815.08L1416.97 771.82C1427.05 761.6 1430.97 751.52 1430.97 742.98C1430.97 724.64 1417.53 711.48 1400.73 711.48C1390.79 711.48 1380.57 716.1 1374.27 730.1C1367.97 716.1 1357.75 711.48 1347.81 711.48C1331.01 711.48 1317.71 724.64 1317.71 742.98C1317.71 751.52 1321.49 761.6 1331.57 771.82Z" fill="#EBEBEB"/>
<path d="M85.568 64.94L86.816 64.712C86.432 63.044 85.292 62.372 83.756 62.372C82.028 62.372 80.72 63.404 80.72 64.82C80.72 66.14 81.644 66.848 82.94 67.088L84.32 67.34C84.968 67.46 85.544 67.892 85.544 68.648C85.544 69.476 84.884 70.028 83.852 70.028C82.832 70.028 82.076 69.536 81.764 68.348L80.504 68.588C80.876 70.256 82.124 71.156 83.828 71.156C85.664 71.156 86.9 70.136 86.9 68.636C86.9 67.292 86.012 66.428 84.62 66.176L83.252 65.924C82.676 65.816 82.088 65.492 82.088 64.784C82.088 63.98 82.88 63.488 83.756 63.488C84.668 63.488 85.328 63.884 85.568 64.94ZM93.2148 68.6V66.932C93.2148 65.6 92.1948 64.796 90.7428 64.796C89.3388 64.796 88.2468 65.6 88.0668 66.86L89.2668 66.968C89.3508 66.188 89.9508 65.792 90.7188 65.792C91.5228 65.792 91.9788 66.188 91.9788 66.752C91.9788 67.076 91.7988 67.22 91.4388 67.28L89.8788 67.568C88.7748 67.76 88.0188 68.348 88.0188 69.356C88.0188 70.46 88.9428 71.168 90.1668 71.168C91.0188 71.168 91.6548 70.724 92.0628 70.04H92.0868C92.0988 70.304 92.1348 70.76 92.2308 71H93.4548C93.2748 70.22 93.2148 69.428 93.2148 68.6ZM89.2668 69.332C89.2668 68.816 89.6628 68.528 90.3228 68.396L91.4868 68.168C91.7148 68.12 91.8588 68.06 91.9548 67.952H91.9908V68.528C91.9908 69.488 91.3068 70.184 90.3228 70.184C89.6868 70.184 89.2668 69.884 89.2668 69.332ZM94.8718 71H96.1318V67.592C96.1318 66.584 96.7918 65.864 97.6918 65.864C98.5678 65.864 99.0238 66.488 99.0238 67.4V71H100.272V67.1C100.272 65.648 99.3478 64.784 98.0278 64.784C97.1158 64.784 96.4198 65.312 96.1078 65.876H96.0838C96.1078 65.66 96.1318 65.336 96.1318 65.012V64.952H94.8718V71ZM105.313 66.74L106.465 66.524C106.201 65.348 105.301 64.784 104.077 64.784C102.769 64.784 101.797 65.564 101.797 66.644C101.797 67.652 102.541 68.156 103.441 68.324L104.521 68.528C104.941 68.6 105.325 68.84 105.325 69.296C105.325 69.812 104.905 70.148 104.209 70.148C103.513 70.148 102.997 69.8 102.805 69.068L101.641 69.296C101.881 70.448 102.853 71.168 104.197 71.168C105.541 71.168 106.525 70.436 106.525 69.284C106.525 68.312 105.817 67.664 104.797 67.472L103.729 67.28C103.345 67.208 102.997 67.028 102.997 66.596C102.997 66.116 103.489 65.78 104.077 65.78C104.737 65.78 105.169 66.068 105.313 66.74ZM111.091 62.552V71H112.363V64.088L116.683 71H118.147V62.552H116.875V69.104L112.795 62.552H111.091ZM119.083 66.56C119.083 67.94 120.127 68.912 121.483 68.912C122.839 68.912 123.895 67.94 123.895 66.56C123.895 65.168 122.839 64.208 121.483 64.208C120.127 64.208 119.083 65.168 119.083 66.56ZM119.239 71H123.739V69.968H119.239V71ZM120.175 66.56C120.175 65.768 120.727 65.216 121.483 65.216C122.239 65.216 122.791 65.768 122.791 66.56C122.791 67.352 122.239 67.904 121.483 67.904C120.715 67.904 120.175 67.352 120.175 66.56ZM130.763 63.68V62.552H125.783L125.087 67.304L126.443 67.628C126.695 67.004 127.295 66.5 128.171 66.5C129.203 66.5 129.911 67.22 129.911 68.3C129.911 69.368 129.203 70.088 128.123 70.088C127.235 70.088 126.563 69.608 126.335 68.756L125.063 68.9C125.339 70.136 126.395 71.168 128.111 71.168C129.875 71.168 131.171 70.064 131.171 68.3C131.171 66.524 129.995 65.432 128.411 65.432C127.511 65.432 126.803 65.816 126.455 66.392L126.431 66.38L126.803 63.68H130.763ZM139.237 62.552L135.157 67.76V68.9H139.525V71H140.773V68.9H142.021V67.76H140.761V62.552H139.237ZM136.513 67.76V67.736L139.513 63.896H139.537V67.76H136.513ZM148.607 63.68V62.552H143.627L142.931 67.304L144.287 67.628C144.539 67.004 145.139 66.5 146.015 66.5C147.047 66.5 147.755 67.22 147.755 68.3C147.755 69.368 147.047 70.088 145.967 70.088C145.079 70.088 144.407 69.608 144.179 68.756L142.907 68.9C143.183 70.136 144.239 71.168 145.955 71.168C147.719 71.168 149.015 70.064 149.015 68.3C149.015 66.524 147.839 65.432 146.255 65.432C145.355 65.432 144.647 65.816 144.299 66.392L144.275 66.38L144.647 63.68H148.607ZM153.371 71.18C155.639 71.18 156.695 69.248 156.695 66.776C156.695 64.292 155.639 62.372 153.371 62.372C151.115 62.372 150.047 64.292 150.047 66.776C150.047 69.248 151.115 71.18 153.371 71.18ZM151.331 66.776C151.331 64.928 151.907 63.464 153.371 63.464C154.835 63.464 155.423 64.928 155.423 66.776C155.423 68.624 154.835 70.088 153.371 70.088C151.907 70.088 151.331 68.624 151.331 66.776ZM161.051 66.236V67.304H170.891V66.236H161.051ZM175.086 71L178.326 62.552H179.934L183.15 71H181.674L180.438 67.64H181.362L181.602 68.78H176.646L176.886 67.64H177.726L176.49 71H175.086ZM177.726 67.64H180.438L179.094 64.016H179.07L177.726 67.64ZM184.369 62.552V71H185.629V62.552H184.369ZM190.577 64.784C189.533 64.784 188.861 65.276 188.537 65.876H188.513C188.537 65.672 188.549 65.384 188.549 65.132V64.952H187.337V73.328H188.597V70.856C188.597 70.628 188.585 70.304 188.561 70.076H188.585C188.909 70.676 189.557 71.168 190.577 71.168C192.209 71.168 193.481 69.86 193.481 67.976C193.481 66.08 192.221 64.784 190.577 64.784ZM188.561 67.952C188.561 66.74 189.269 65.876 190.385 65.876C191.501 65.876 192.209 66.74 192.209 67.952C192.209 69.164 191.501 70.052 190.385 70.052C189.269 70.052 188.561 69.164 188.561 67.952ZM194.875 71H196.135V67.592C196.135 66.584 196.771 65.864 197.671 65.864C198.547 65.864 199.027 66.512 199.027 67.4V71H200.275V67.1C200.275 65.648 199.351 64.784 198.031 64.784C197.119 64.784 196.423 65.312 196.111 65.876H196.087C196.111 65.612 196.135 65.312 196.135 65.084V62.552H194.875V71ZM206.876 68.6V66.932C206.876 65.6 205.856 64.796 204.404 64.796C203 64.796 201.908 65.6 201.728 66.86L202.928 66.968C203.012 66.188 203.612 65.792 204.38 65.792C205.184 65.792 205.64 66.188 205.64 66.752C205.64 67.076 205.46 67.22 205.1 67.28L203.54 67.568C202.436 67.76 201.68 68.348 201.68 69.356C201.68 70.46 202.604 71.168 203.828 71.168C204.68 71.168 205.316 70.724 205.724 70.04H205.748C205.76 70.304 205.796 70.76 205.892 71H207.116C206.936 70.22 206.876 69.428 206.876 68.6ZM202.928 69.332C202.928 68.816 203.324 68.528 203.984 68.396L205.148 68.168C205.376 68.12 205.52 68.06 205.616 67.952H205.652V68.528C205.652 69.488 204.968 70.184 203.984 70.184C203.348 70.184 202.928 69.884 202.928 69.332ZM211.773 71.168C213.417 71.168 214.677 69.86 214.677 67.976C214.677 66.08 213.405 64.784 211.773 64.784C210.753 64.784 210.105 65.276 209.781 65.864H209.757C209.781 65.636 209.793 65.324 209.793 65.096V62.552H208.533V71H209.745V70.808C209.745 70.568 209.733 70.268 209.709 70.076H209.733C210.057 70.664 210.729 71.168 211.773 71.168ZM209.757 67.988C209.757 66.776 210.465 65.888 211.581 65.888C212.697 65.888 213.405 66.776 213.405 67.988C213.405 69.2 212.697 70.064 211.581 70.064C210.465 70.064 209.757 69.2 209.757 67.988ZM218.961 71.168C220.521 71.168 221.397 70.268 221.661 69.392L220.485 69.248C220.281 69.716 219.813 70.124 218.985 70.124C217.953 70.124 217.185 69.464 217.113 68.276H221.685C221.697 68.144 221.709 68.012 221.709 67.868C221.709 65.912 220.533 64.784 218.841 64.784C217.077 64.784 215.841 66.116 215.841 68C215.841 69.884 217.149 71.168 218.961 71.168ZM217.161 67.304C217.269 66.548 217.881 65.816 218.853 65.816C219.825 65.816 220.413 66.524 220.449 67.304H217.161ZM225.278 71H226.37V69.884H225.602C225.122 69.884 224.906 69.644 224.906 69.212V66.068H226.298V64.952H224.906V63.272H223.646V64.952H222.518V66.068H223.646V69.464C223.646 70.52 224.27 71 225.278 71ZM227.642 69.56V71H228.302L227.354 72.788H228.002L229.118 70.988V69.56H227.642ZM234.065 62.552V71H235.337V64.088L239.657 71H241.121V62.552H239.849V69.104L235.769 62.552H234.065ZM245.281 71.168C246.217 71.168 246.913 70.64 247.225 70.064H247.249C247.237 70.34 247.213 70.664 247.213 70.94V71H248.461V64.952H247.213V68.456C247.213 69.344 246.601 70.088 245.689 70.088C244.777 70.088 244.321 69.44 244.321 68.552V64.952H243.061V68.948C243.061 70.292 243.961 71.168 245.281 71.168ZM250.154 71H251.414V67.376C251.414 66.536 251.966 65.84 252.806 65.84C253.574 65.84 253.91 66.428 253.91 67.148V71H255.146V67.376C255.146 66.536 255.722 65.84 256.55 65.84C257.33 65.84 257.654 66.428 257.654 67.148V71H258.89V66.86C258.89 65.672 258.11 64.784 256.874 64.784C255.974 64.784 255.29 65.3 254.942 65.9H254.918C254.678 65.276 254.114 64.784 253.202 64.784C252.314 64.784 251.714 65.276 251.414 65.804H251.378C251.402 65.564 251.414 65.3 251.414 65.084V64.952H250.154V71ZM263.371 71.168C264.931 71.168 265.807 70.268 266.071 69.392L264.895 69.248C264.691 69.716 264.223 70.124 263.395 70.124C262.363 70.124 261.595 69.464 261.523 68.276H266.095C266.107 68.144 266.119 68.012 266.119 67.868C266.119 65.912 264.943 64.784 263.251 64.784C261.487 64.784 260.251 66.116 260.251 68C260.251 69.884 261.559 71.168 263.371 71.168ZM261.571 67.304C261.679 66.548 262.291 65.816 263.263 65.816C264.235 65.816 264.823 66.524 264.859 67.304H261.571ZM267.504 71H268.764V67.808C268.764 66.692 269.376 66.068 270.324 66.068H271.008V64.952H270.324C269.58 64.952 269.016 65.312 268.704 66.008H268.68C268.692 65.756 268.716 65.348 268.716 65.024V64.952H267.504V71ZM276.985 68.6V66.932C276.985 65.6 275.965 64.796 274.513 64.796C273.109 64.796 272.017 65.6 271.837 66.86L273.037 66.968C273.121 66.188 273.721 65.792 274.489 65.792C275.293 65.792 275.749 66.188 275.749 66.752C275.749 67.076 275.569 67.22 275.209 67.28L273.649 67.568C272.545 67.76 271.789 68.348 271.789 69.356C271.789 70.46 272.713 71.168 273.937 71.168C274.789 71.168 275.425 70.724 275.833 70.04H275.857C275.869 70.304 275.905 70.76 276.001 71H277.225C277.045 70.22 276.985 69.428 276.985 68.6ZM273.037 69.332C273.037 68.816 273.433 68.528 274.093 68.396L275.257 68.168C275.485 68.12 275.629 68.06 275.725 67.952H275.761V68.528C275.761 69.488 275.077 70.184 274.093 70.184C273.457 70.184 273.037 69.884 273.037 69.332ZM278.642 62.552V71H279.902V62.552H278.642ZM284.97 66.74L286.122 66.524C285.858 65.348 284.958 64.784 283.734 64.784C282.426 64.784 281.454 65.564 281.454 66.644C281.454 67.652 282.198 68.156 283.098 68.324L284.178 68.528C284.598 68.6 284.982 68.84 284.982 69.296C284.982 69.812 284.562 70.148 283.866 70.148C283.17 70.148 282.654 69.8 282.462 69.068L281.298 69.296C281.538 70.448 282.51 71.168 283.854 71.168C285.198 71.168 286.182 70.436 286.182 69.284C286.182 68.312 285.474 67.664 284.454 67.472L283.386 67.28C283.002 67.208 282.654 67.028 282.654 66.596C282.654 66.116 283.146 65.78 283.734 65.78C284.394 65.78 284.826 66.068 284.97 66.74ZM293.352 71.18C294.348 71.18 295.164 70.772 295.776 70.184L296.58 71H298.08L296.46 69.332C296.88 68.66 297.132 67.904 297.228 67.232L296.028 67.088C295.968 67.532 295.824 68.012 295.62 68.468L293.784 66.572C294.9 65.996 295.572 65.456 295.596 64.388C295.632 63.236 294.66 62.372 293.352 62.372C291.984 62.372 291.048 63.308 291.048 64.412C291.048 65.204 291.42 65.744 291.948 66.284L292.02 66.356C291.012 66.908 290.412 67.64 290.412 68.732C290.412 70.172 291.6 71.18 293.352 71.18ZM291.648 68.648C291.648 68.048 291.948 67.544 292.752 67.1L294.996 69.38C294.588 69.812 294.048 70.088 293.364 70.088C292.248 70.088 291.648 69.428 291.648 68.648ZM292.248 64.472C292.248 63.824 292.764 63.392 293.34 63.392C293.952 63.392 294.444 63.8 294.42 64.472C294.384 65.048 294 65.384 293.184 65.78L293.064 65.84L292.752 65.516C292.416 65.168 292.248 64.844 292.248 64.472ZM306.729 64.94L307.977 64.712C307.593 63.044 306.453 62.372 304.917 62.372C303.189 62.372 301.881 63.404 301.881 64.82C301.881 66.14 302.805 66.848 304.101 67.088L305.481 67.34C306.129 67.46 306.705 67.892 306.705 68.648C306.705 69.476 306.045 70.028 305.013 70.028C303.993 70.028 303.237 69.536 302.925 68.348L301.665 68.588C302.037 70.256 303.285 71.156 304.989 71.156C306.825 71.156 308.061 70.136 308.061 68.636C308.061 67.292 307.173 66.428 305.781 66.176L304.413 65.924C303.837 65.816 303.249 65.492 303.249 64.784C303.249 63.98 304.041 63.488 304.917 63.488C305.829 63.488 306.489 63.884 306.729 64.94ZM310.284 64.952L312 69.296H312.024L313.74 64.952H315L311.616 73.352H310.26L311.388 70.712L308.928 64.952H310.284ZM316.173 71H317.433V67.376C317.433 66.536 317.985 65.84 318.825 65.84C319.593 65.84 319.929 66.428 319.929 67.148V71H321.165V67.376C321.165 66.536 321.741 65.84 322.569 65.84C323.349 65.84 323.673 66.428 323.673 67.148V71H324.909V66.86C324.909 65.672 324.129 64.784 322.893 64.784C321.993 64.784 321.309 65.3 320.961 65.9H320.937C320.697 65.276 320.133 64.784 319.221 64.784C318.333 64.784 317.733 65.276 317.433 65.804H317.397C317.421 65.564 317.433 65.3 317.433 65.084V64.952H316.173V71ZM329.834 71.168C331.478 71.168 332.738 69.86 332.738 67.976C332.738 66.08 331.466 64.784 329.834 64.784C328.814 64.784 328.166 65.276 327.842 65.864H327.818C327.842 65.636 327.854 65.324 327.854 65.096V62.552H326.594V71H327.806V70.808C327.806 70.568 327.794 70.268 327.77 70.076H327.794C328.118 70.664 328.79 71.168 329.834 71.168ZM327.818 67.988C327.818 66.776 328.526 65.888 329.642 65.888C330.758 65.888 331.466 66.776 331.466 67.988C331.466 69.2 330.758 70.064 329.642 70.064C328.526 70.064 327.818 69.2 327.818 67.988ZM337.046 71.168C338.822 71.168 340.178 69.86 340.178 67.976C340.178 66.08 338.822 64.784 337.046 64.784C335.27 64.784 333.902 66.08 333.902 67.976C333.902 69.86 335.27 71.168 337.046 71.168ZM335.162 67.976C335.162 66.764 335.93 65.888 337.046 65.888C338.162 65.888 338.918 66.764 338.918 67.976C338.918 69.188 338.162 70.064 337.046 70.064C335.93 70.064 335.162 69.188 335.162 67.976ZM341.553 62.552V71H342.813V62.552H341.553ZM347.881 66.74L349.033 66.524C348.769 65.348 347.869 64.784 346.645 64.784C345.337 64.784 344.365 65.564 344.365 66.644C344.365 67.652 345.109 68.156 346.009 68.324L347.089 68.528C347.509 68.6 347.893 68.84 347.893 69.296C347.893 69.812 347.473 70.148 346.777 70.148C346.081 70.148 345.565 69.8 345.373 69.068L344.209 69.296C344.449 70.448 345.421 71.168 346.765 71.168C348.109 71.168 349.093 70.436 349.093 69.284C349.093 68.312 348.385 67.664 347.365 67.472L346.297 67.28C345.913 67.208 345.565 67.028 345.565 66.596C345.565 66.116 346.057 65.78 346.645 65.78C347.305 65.78 347.737 66.068 347.881 66.74Z" fill="#EBEBEB"/>
</svg>
