<svg width="720" height="900" viewBox="0 0 720 900" fill="none" xmlns="http://www.w3.org/2000/svg">
<rect width="720" height="900" fill="#3399FF"/>
<path d="M50.568 49.94L51.816 49.712C51.432 48.044 50.292 47.372 48.756 47.372C47.028 47.372 45.72 48.404 45.72 49.82C45.72 51.14 46.644 51.848 47.94 52.088L49.32 52.34C49.968 52.46 50.544 52.892 50.544 53.648C50.544 54.476 49.884 55.028 48.852 55.028C47.832 55.028 47.076 54.536 46.764 53.348L45.504 53.588C45.876 55.256 47.124 56.156 48.828 56.156C50.664 56.156 51.9 55.136 51.9 53.636C51.9 52.292 51.012 51.428 49.62 51.176L48.252 50.924C47.676 50.816 47.088 50.492 47.088 49.784C47.088 48.98 47.88 48.488 48.756 48.488C49.668 48.488 50.328 48.884 50.568 49.94ZM58.2148 53.6V51.932C58.2148 50.6 57.1948 49.796 55.7428 49.796C54.3388 49.796 53.2468 50.6 53.0668 51.86L54.2668 51.968C54.3508 51.188 54.9508 50.792 55.7188 50.792C56.5228 50.792 56.9788 51.188 56.9788 51.752C56.9788 52.076 56.7988 52.22 56.4388 52.28L54.8788 52.568C53.7748 52.76 53.0188 53.348 53.0188 54.356C53.0188 55.46 53.9428 56.168 55.1668 56.168C56.0188 56.168 56.6548 55.724 57.0628 55.04H57.0868C57.0988 55.304 57.1348 55.76 57.2308 56H58.4548C58.2748 55.22 58.2148 54.428 58.2148 53.6ZM54.2668 54.332C54.2668 53.816 54.6628 53.528 55.3228 53.396L56.4868 53.168C56.7148 53.12 56.8588 53.06 56.9548 52.952H56.9908V53.528C56.9908 54.488 56.3068 55.184 55.3228 55.184C54.6868 55.184 54.2668 54.884 54.2668 54.332ZM59.8718 56H61.1318V52.592C61.1318 51.584 61.7918 50.864 62.6918 50.864C63.5678 50.864 64.0238 51.488 64.0238 52.4V56H65.2718V52.1C65.2718 50.648 64.3478 49.784 63.0278 49.784C62.1158 49.784 61.4198 50.312 61.1078 50.876H61.0838C61.1078 50.66 61.1318 50.336 61.1318 50.012V49.952H59.8718V56ZM70.3128 51.74L71.4648 51.524C71.2008 50.348 70.3008 49.784 69.0768 49.784C67.7688 49.784 66.7968 50.564 66.7968 51.644C66.7968 52.652 67.5408 53.156 68.4408 53.324L69.5208 53.528C69.9408 53.6 70.3248 53.84 70.3248 54.296C70.3248 54.812 69.9048 55.148 69.2088 55.148C68.5128 55.148 67.9968 54.8 67.8048 54.068L66.6408 54.296C66.8808 55.448 67.8528 56.168 69.1968 56.168C70.5408 56.168 71.5248 55.436 71.5248 54.284C71.5248 53.312 70.8168 52.664 69.7968 52.472L68.7288 52.28C68.3448 52.208 67.9968 52.028 67.9968 51.596C67.9968 51.116 68.4888 50.78 69.0768 50.78C69.7368 50.78 70.1688 51.068 70.3128 51.74ZM76.091 47.552V56H77.363V49.088L81.683 56H83.147V47.552H81.875V54.104L77.795 47.552H76.091ZM84.083 51.56C84.083 52.94 85.127 53.912 86.483 53.912C87.839 53.912 88.895 52.94 88.895 51.56C88.895 50.168 87.839 49.208 86.483 49.208C85.127 49.208 84.083 50.168 84.083 51.56ZM84.239 56H88.739V54.968H84.239V56ZM85.175 51.56C85.175 50.768 85.727 50.216 86.483 50.216C87.239 50.216 87.791 50.768 87.791 51.56C87.791 52.352 87.239 52.904 86.483 52.904C85.715 52.904 85.175 52.352 85.175 51.56ZM95.7627 48.68V47.552H90.7827L90.0867 52.304L91.4427 52.628C91.6947 52.004 92.2947 51.5 93.1707 51.5C94.2027 51.5 94.9107 52.22 94.9107 53.3C94.9107 54.368 94.2027 55.088 93.1227 55.088C92.2347 55.088 91.5627 54.608 91.3347 53.756L90.0627 53.9C90.3387 55.136 91.3947 56.168 93.1107 56.168C94.8747 56.168 96.1707 55.064 96.1707 53.3C96.1707 51.524 94.9947 50.432 93.4107 50.432C92.5107 50.432 91.8027 50.816 91.4547 51.392L91.4307 51.38L91.8027 48.68H95.7627ZM100.085 47.552V48.68H104.681V48.704C102.845 50.468 101.645 53.132 101.537 56H102.893C102.953 53.12 104.069 50.648 106.313 48.74V47.552H100.085ZM110.341 56.18C112.609 56.18 113.665 54.248 113.665 51.776C113.665 49.292 112.609 47.372 110.341 47.372C108.085 47.372 107.017 49.292 107.017 51.776C107.017 54.248 108.085 56.18 110.341 56.18ZM108.301 51.776C108.301 49.928 108.877 48.464 110.341 48.464C111.805 48.464 112.393 49.928 112.393 51.776C112.393 53.624 111.805 55.088 110.341 55.088C108.877 55.088 108.301 53.624 108.301 51.776ZM118.066 56.18C120.334 56.18 121.39 54.248 121.39 51.776C121.39 49.292 120.334 47.372 118.066 47.372C115.81 47.372 114.742 49.292 114.742 51.776C114.742 54.248 115.81 56.18 118.066 56.18ZM116.026 51.776C116.026 49.928 116.602 48.464 118.066 48.464C119.53 48.464 120.118 49.928 120.118 51.776C120.118 53.624 119.53 55.088 118.066 55.088C116.602 55.088 116.026 53.624 116.026 51.776ZM125.746 51.236V52.304H135.586V51.236H125.746ZM139.781 56L143.021 47.552H144.629L147.845 56H146.369L145.133 52.64H146.057L146.297 53.78H141.341L141.581 52.64H142.421L141.185 56H139.781ZM142.421 52.64H145.133L143.789 49.016H143.765L142.421 52.64ZM149.065 56H150.325V52.808C150.325 51.692 150.949 51.068 151.981 51.068C152.209 51.068 152.353 51.092 152.617 51.152V49.988C152.425 49.928 152.233 49.904 151.993 49.904C151.225 49.904 150.601 50.312 150.265 51.008H150.241C150.253 50.756 150.277 50.348 150.277 50.024V49.952H149.065V56ZM153.79 56H155.05V52.808C155.05 51.692 155.674 51.068 156.706 51.068C156.934 51.068 157.078 51.092 157.342 51.152V49.988C157.15 49.928 156.958 49.904 156.718 49.904C155.95 49.904 155.326 50.312 154.99 51.008H154.966C154.978 50.756 155.002 50.348 155.002 50.024V49.952H153.79V56ZM161.148 56.168C162.924 56.168 164.28 54.86 164.28 52.976C164.28 51.08 162.924 49.784 161.148 49.784C159.372 49.784 158.004 51.08 158.004 52.976C158.004 54.86 159.372 56.168 161.148 56.168ZM159.264 52.976C159.264 51.764 160.032 50.888 161.148 50.888C162.264 50.888 163.02 51.764 163.02 52.976C163.02 54.188 162.264 55.064 161.148 55.064C160.032 55.064 159.264 54.188 159.264 52.976ZM165.023 49.952H166.295L167.591 54.584H167.615L168.863 49.952H170.195L171.455 54.584H171.479L172.763 49.952H174.035L172.199 56H170.807L169.547 51.368H169.511L168.263 56H166.883L165.023 49.952ZM178.405 51.74L179.557 51.524C179.293 50.348 178.393 49.784 177.169 49.784C175.861 49.784 174.889 50.564 174.889 51.644C174.889 52.652 175.633 53.156 176.533 53.324L177.613 53.528C178.033 53.6 178.417 53.84 178.417 54.296C178.417 54.812 177.997 55.148 177.301 55.148C176.605 55.148 176.089 54.8 175.897 54.068L174.733 54.296C174.973 55.448 175.945 56.168 177.289 56.168C178.633 56.168 179.617 55.436 179.617 54.284C179.617 53.312 178.909 52.664 177.889 52.472L176.821 52.28C176.437 52.208 176.089 52.028 176.089 51.596C176.089 51.116 176.581 50.78 177.169 50.78C177.829 50.78 178.261 51.068 178.405 51.74ZM186.787 56.18C187.783 56.18 188.599 55.772 189.211 55.184L190.015 56H191.515L189.895 54.332C190.315 53.66 190.567 52.904 190.663 52.232L189.463 52.088C189.403 52.532 189.259 53.012 189.055 53.468L187.219 51.572C188.335 50.996 189.007 50.456 189.031 49.388C189.067 48.236 188.095 47.372 186.787 47.372C185.419 47.372 184.483 48.308 184.483 49.412C184.483 50.204 184.855 50.744 185.383 51.284L185.455 51.356C184.447 51.908 183.847 52.64 183.847 53.732C183.847 55.172 185.035 56.18 186.787 56.18ZM185.083 53.648C185.083 53.048 185.383 52.544 186.187 52.1L188.431 54.38C188.023 54.812 187.483 55.088 186.799 55.088C185.683 55.088 185.083 54.428 185.083 53.648ZM185.683 49.472C185.683 48.824 186.199 48.392 186.775 48.392C187.387 48.392 187.879 48.8 187.855 49.472C187.819 50.048 187.435 50.384 186.619 50.78L186.499 50.84L186.187 50.516C185.851 50.168 185.683 49.844 185.683 49.472ZM194.908 56L198.148 47.552H199.756L202.972 56H201.496L200.26 52.64H201.184L201.424 53.78H196.468L196.708 52.64H197.548L196.312 56H194.908ZM197.548 52.64H200.26L198.916 49.016H198.892L197.548 52.64ZM204.192 47.552V56H205.452V47.552H204.192ZM209.331 56.06C209.667 56.06 210.015 56.024 210.303 55.964V54.92C210.075 54.944 209.907 54.956 209.655 54.956C209.139 54.956 208.935 54.74 208.935 54.2V51.044H210.255V49.952H208.935V48.224H207.687V49.952H206.631V51.044H207.687V54.38C207.687 55.652 208.287 56.06 209.331 56.06ZM214.353 56.168C215.913 56.168 216.789 55.268 217.053 54.392L215.877 54.248C215.673 54.716 215.205 55.124 214.377 55.124C213.345 55.124 212.577 54.464 212.505 53.276H217.077C217.089 53.144 217.101 53.012 217.101 52.868C217.101 50.912 215.925 49.784 214.233 49.784C212.469 49.784 211.233 51.116 211.233 53C211.233 54.884 212.541 56.168 214.353 56.168ZM212.553 52.304C212.661 51.548 213.273 50.816 214.245 50.816C215.217 50.816 215.805 51.524 215.841 52.304H212.553ZM218.485 56H219.745V52.808C219.745 51.692 220.369 51.068 221.401 51.068C221.629 51.068 221.773 51.092 222.037 51.152V49.988C221.845 49.928 221.653 49.904 221.413 49.904C220.645 49.904 220.021 50.312 219.685 51.008H219.661C219.673 50.756 219.697 50.348 219.697 50.024V49.952H218.485V56ZM223.211 56H224.471V52.592C224.471 51.584 225.131 50.864 226.031 50.864C226.907 50.864 227.363 51.488 227.363 52.4V56H228.611V52.1C228.611 50.648 227.687 49.784 226.367 49.784C225.455 49.784 224.759 50.312 224.447 50.876H224.423C224.447 50.66 224.471 50.336 224.471 50.012V49.952H223.211V56ZM235.212 53.6V51.932C235.212 50.6 234.192 49.796 232.74 49.796C231.336 49.796 230.244 50.6 230.064 51.86L231.264 51.968C231.348 51.188 231.948 50.792 232.716 50.792C233.52 50.792 233.976 51.188 233.976 51.752C233.976 52.076 233.796 52.22 233.436 52.28L231.876 52.568C230.772 52.76 230.016 53.348 230.016 54.356C230.016 55.46 230.94 56.168 232.164 56.168C233.016 56.168 233.652 55.724 234.06 55.04H234.084C234.096 55.304 234.132 55.76 234.228 56H235.452C235.272 55.22 235.212 54.428 235.212 53.6ZM231.264 54.332C231.264 53.816 231.66 53.528 232.32 53.396L233.484 53.168C233.712 53.12 233.856 53.06 233.952 52.952H233.988V53.528C233.988 54.488 233.304 55.184 232.32 55.184C231.684 55.184 231.264 54.884 231.264 54.332ZM238.923 56.06C239.259 56.06 239.607 56.024 239.895 55.964V54.92C239.667 54.944 239.499 54.956 239.247 54.956C238.731 54.956 238.527 54.74 238.527 54.2V51.044H239.847V49.952H238.527V48.224H237.279V49.952H236.223V51.044H237.279V54.38C237.279 55.652 237.879 56.06 238.923 56.06ZM243.945 56.168C245.505 56.168 246.381 55.268 246.645 54.392L245.469 54.248C245.265 54.716 244.797 55.124 243.969 55.124C242.937 55.124 242.169 54.464 242.097 53.276H246.669C246.681 53.144 246.693 53.012 246.693 52.868C246.693 50.912 245.517 49.784 243.825 49.784C242.061 49.784 240.825 51.116 240.825 53C240.825 54.884 242.133 56.168 243.945 56.168ZM242.145 52.304C242.253 51.548 242.865 50.816 243.837 50.816C244.809 50.816 245.397 51.524 245.433 52.304H242.145ZM250.624 56L253.864 47.552H255.472L258.688 56H257.212L255.976 52.64H256.9L257.14 53.78H252.184L252.424 52.64H253.264L252.028 56H250.624ZM253.264 52.64H255.976L254.632 49.016H254.608L253.264 52.64ZM259.907 56H261.167V52.808C261.167 51.692 261.791 51.068 262.823 51.068C263.051 51.068 263.195 51.092 263.459 51.152V49.988C263.267 49.928 263.075 49.904 262.835 49.904C262.067 49.904 261.443 50.312 261.107 51.008H261.083C261.095 50.756 261.119 50.348 261.119 50.024V49.952H259.907V56ZM264.633 56H265.893V52.808C265.893 51.692 266.517 51.068 267.549 51.068C267.777 51.068 267.921 51.092 268.185 51.152V49.988C267.993 49.928 267.801 49.904 267.561 49.904C266.793 49.904 266.169 50.312 265.833 51.008H265.809C265.821 50.756 265.845 50.348 265.845 50.024V49.952H264.633V56ZM271.991 56.168C273.767 56.168 275.123 54.86 275.123 52.976C275.123 51.08 273.767 49.784 271.991 49.784C270.215 49.784 268.847 51.08 268.847 52.976C268.847 54.86 270.215 56.168 271.991 56.168ZM270.107 52.976C270.107 51.764 270.875 50.888 271.991 50.888C273.107 50.888 273.863 51.764 273.863 52.976C273.863 54.188 273.107 55.064 271.991 55.064C270.875 55.064 270.107 54.188 270.107 52.976ZM275.866 49.952H277.138L278.434 54.584H278.458L279.706 49.952H281.038L282.298 54.584H282.322L283.606 49.952H284.878L283.042 56H281.65L280.39 51.368H280.354L279.106 56H277.726L275.866 49.952ZM289.247 51.74L290.399 51.524C290.135 50.348 289.235 49.784 288.011 49.784C286.703 49.784 285.731 50.564 285.731 51.644C285.731 52.652 286.475 53.156 287.375 53.324L288.455 53.528C288.875 53.6 289.259 53.84 289.259 54.296C289.259 54.812 288.839 55.148 288.143 55.148C287.447 55.148 286.931 54.8 286.739 54.068L285.575 54.296C285.815 55.448 286.787 56.168 288.131 56.168C289.475 56.168 290.459 55.436 290.459 54.284C290.459 53.312 289.751 52.664 288.731 52.472L287.663 52.28C287.279 52.208 286.931 52.028 286.931 51.596C286.931 51.116 287.423 50.78 288.011 50.78C288.671 50.78 289.103 51.068 289.247 51.74Z" fill="black"/>
<path d="M96.64 187.04V279H120.39V187.04L120.77 186.66L153.26 219.15L168.84 203.57L108.42 142.96L48 203.57L63.58 219.15L96.26 186.66L96.64 187.04Z" fill="black"/>
<path d="M286.946 182.48L221.776 247.46L238.686 264.37L303.666 199.2H304.236V245.18H326.276V159.68H240.966V181.91H286.946V182.48Z" fill="black"/>
<path d="M471.183 200.15H379.223V224.09H471.183L471.563 224.47L439.073 256.96L454.653 272.54L515.263 212.12L454.653 151.7L439.073 167.28L471.563 199.77L471.183 200.15Z" fill="black"/>
<path d="M633.384 241.57V242.14H587.404V264.37H672.714V178.87H650.674V224.85H650.104L585.124 159.68L568.214 176.59L633.384 241.57Z" fill="black"/>
<path d="M96.64 427.2L96.26 427.58L63.58 395.09L48 410.67L108.42 471.28L168.84 410.67L153.26 395.09L120.77 427.58L120.39 427.2V335.24H96.64V427.2Z" fill="black"/>
<path d="M259.997 431.57L324.977 366.59L308.067 349.68L243.087 414.85H242.707L242.517 368.87H220.477V454.37H305.787V432.14H259.997V431.57Z" fill="black"/>
<path d="M421.815 390.15L421.435 389.77L453.925 357.28L438.345 341.7L377.925 402.12L438.345 462.54L453.925 446.96L421.435 414.47L421.815 414.09H513.965V390.15H421.815Z" fill="black"/>
<path d="M606.435 372.48V371.91H652.225V349.68H566.915V435.18H588.955L589.145 389.2H589.525L654.505 454.37L671.415 437.46L606.435 372.48Z" fill="black"/>
<path d="M84.1 571.03V659H107.85V571.03H143.95L96.07 522.96L48 571.03H84.1Z" fill="white"/>
<path d="M259.232 565.33L196.913 627.46L213.823 644.37L275.952 582.05L301.413 607.7V539.68H233.583L259.232 565.33Z" fill="white"/>
<path d="M442.33 580.15H354.36V604.09H442.33V640.19L490.4 592.12L442.33 544.05V580.15Z" fill="white"/>
<path d="M605.671 618.72L580.021 644.37H647.851V576.35L622.391 602L560.261 539.68L543.351 556.59L605.671 618.72Z" fill="white"/>
<path d="M84.1 803.21H48L96.07 851.28L143.95 803.21H107.85V715.24H84.1V803.21Z" fill="white"/>
<path d="M239.092 808.72L301.413 746.59L284.503 729.68L222.372 792L196.913 766.35V834.37H264.933L239.092 808.72Z" fill="white"/>
<path d="M402.43 770.15V734.05L354.36 782.12L402.43 830.19V794.09H490.4V770.15H402.43Z" fill="white"/>
<path d="M585.531 755.33L611.371 729.68H543.351V797.7L568.811 772.05L630.941 834.37L647.851 817.46L585.531 755.33Z" fill="white"/>
</svg>
