<svg width="1600" height="500" viewBox="0 0 1600 500" fill="none" xmlns="http://www.w3.org/2000/svg">
<rect width="1600" height="500" fill="black"/>
<path d="M296.2 331V245.8C296.2 180.4 247 140.8 175 140.8C106 140.8 52 181 43 243.4L98.2 248.2C102.4 208 133.6 186.4 174.4 186.4C216.4 186.4 240.4 207.4 240.4 238C240.4 254.2 231.4 261.4 212.8 265L133.6 279.4C79 289.6 40.6 318.4 40.6 369.4C40.6 425.2 86.8 459.4 147.4 459.4C191.2 459.4 223.6 436.6 244.6 402.4H245.8C245.8 415 248.2 438.4 253 451H308.2C299.2 412 296.2 373.6 296.2 331ZM97 368.2C97 341.2 118 325.6 153.4 318.4L215.8 306.4C227.2 304 234.4 300.4 239.8 295.6H241V326.8C241 376.6 205.6 413.8 154 413.8C119.8 413.8 97 397.6 97 368.2ZM594.452 245.8C594.452 180.4 545.852 140.8 473.852 140.8C404.852 140.8 350.852 181 341.852 243.4L397.052 248.2C401.252 208 432.452 186.4 473.252 186.4C515.252 186.4 539.252 207.4 539.252 238C539.252 254.2 530.252 261.4 511.652 265L432.452 279.4C377.852 289.6 339.452 318.4 339.452 369.4C339.452 425.2 385.652 459.4 446.252 459.4C490.052 459.4 522.452 436.6 540.452 404.2H541.652V451H594.452V245.8ZM395.852 368.2C395.852 341.2 416.852 325.6 452.252 318.4L514.652 306.4C526.052 304 533.252 300.4 538.652 295.6H539.852V326.8C539.852 376.6 504.452 413.8 452.852 413.8C418.652 413.8 395.852 397.6 395.852 368.2ZM749.917 414.4C718.717 414.4 696.517 399.4 696.517 370.6C696.517 344.2 716.917 319 788.317 308.2L839.917 301V310.6C839.917 368.2 804.517 414.4 749.917 414.4ZM638.317 242.2L694.117 247C700.117 206.8 731.917 186.4 770.917 186.4C809.917 186.4 839.317 206.8 839.317 250V259L779.917 266.8C674.917 280.6 639.517 324.4 639.517 371.8C639.517 425.2 682.717 459.4 742.117 459.4C797.917 459.4 829.117 425.8 844.117 394.6H845.317C845.317 408.4 847.117 434.8 851.317 451H906.517C898.117 415.6 894.517 374.2 894.517 331V252.4C894.517 176.2 841.717 140.2 772.717 140.2C702.517 140.2 649.117 176.8 638.317 242.2ZM1052.34 414.4C1019.34 414.4 996.541 399.4 996.541 370.6C996.541 344.2 1017.54 319 1091.34 308.2L1144.74 301V310.6C1144.74 368.2 1108.14 414.4 1052.34 414.4ZM938.341 242.2L994.141 247C999.541 206.8 1032.54 186.4 1073.34 186.4C1113.54 186.4 1144.14 206.8 1144.14 250V259L1082.94 266.8C976.141 280.6 939.541 324.4 939.541 371.8C939.541 425.2 983.941 459.4 1043.94 459.4C1100.34 459.4 1129.74 425.2 1144.74 397H1146.54V451H1199.94V252.4C1199.94 176.2 1145.34 140.2 1075.14 140.2C1004.34 140.2 949.141 176.8 938.341 242.2ZM1385.85 459.4C1438.05 459.4 1472.85 434.2 1489.65 403H1490.85C1489.65 416.8 1489.65 437.2 1489.65 449.2V451H1544.25V148.6H1487.85V151C1487.85 163 1487.85 185.2 1489.05 196H1487.85C1471.05 164.8 1436.85 140.2 1385.85 140.2C1301.85 140.2 1240.05 205 1240.05 299.8C1240.05 394.6 1301.25 459.4 1385.85 459.4ZM1297.65 300.4C1297.65 236.8 1335.45 190.6 1393.65 190.6C1451.85 190.6 1489.05 236.8 1489.05 300.4C1489.05 364 1451.85 409.6 1393.65 409.6C1335.45 409.6 1297.65 364 1297.65 300.4Z" fill="#EBEBEB"/>
<path d="M69.568 60.94L70.816 60.712C70.432 59.044 69.292 58.372 67.756 58.372C66.028 58.372 64.72 59.404 64.72 60.82C64.72 62.14 65.644 62.848 66.94 63.088L68.32 63.34C68.968 63.46 69.544 63.892 69.544 64.648C69.544 65.476 68.884 66.028 67.852 66.028C66.832 66.028 66.076 65.536 65.764 64.348L64.504 64.588C64.876 66.256 66.124 67.156 67.828 67.156C69.664 67.156 70.9 66.136 70.9 64.636C70.9 63.292 70.012 62.428 68.62 62.176L67.252 61.924C66.676 61.816 66.088 61.492 66.088 60.784C66.088 59.98 66.88 59.488 67.756 59.488C68.668 59.488 69.328 59.884 69.568 60.94ZM77.2148 64.6V62.932C77.2148 61.6 76.1948 60.796 74.7428 60.796C73.3388 60.796 72.2468 61.6 72.0668 62.86L73.2668 62.968C73.3508 62.188 73.9508 61.792 74.7188 61.792C75.5228 61.792 75.9788 62.188 75.9788 62.752C75.9788 63.076 75.7988 63.22 75.4388 63.28L73.8788 63.568C72.7748 63.76 72.0188 64.348 72.0188 65.356C72.0188 66.46 72.9428 67.168 74.1668 67.168C75.0188 67.168 75.6548 66.724 76.0628 66.04H76.0868C76.0988 66.304 76.1348 66.76 76.2308 67H77.4548C77.2748 66.22 77.2148 65.428 77.2148 64.6ZM73.2668 65.332C73.2668 64.816 73.6628 64.528 74.3228 64.396L75.4868 64.168C75.7148 64.12 75.8588 64.06 75.9548 63.952H75.9908V64.528C75.9908 65.488 75.3068 66.184 74.3228 66.184C73.6868 66.184 73.2668 65.884 73.2668 65.332ZM78.8718 67H80.1318V63.592C80.1318 62.584 80.7918 61.864 81.6918 61.864C82.5678 61.864 83.0238 62.488 83.0238 63.4V67H84.2718V63.1C84.2718 61.648 83.3478 60.784 82.0278 60.784C81.1158 60.784 80.4198 61.312 80.1078 61.876H80.0838C80.1078 61.66 80.1318 61.336 80.1318 61.012V60.952H78.8718V67ZM89.3128 62.74L90.4648 62.524C90.2008 61.348 89.3008 60.784 88.0768 60.784C86.7688 60.784 85.7968 61.564 85.7968 62.644C85.7968 63.652 86.5408 64.156 87.4408 64.324L88.5208 64.528C88.9408 64.6 89.3248 64.84 89.3248 65.296C89.3248 65.812 88.9048 66.148 88.2088 66.148C87.5128 66.148 86.9968 65.8 86.8048 65.068L85.6408 65.296C85.8808 66.448 86.8528 67.168 88.1968 67.168C89.5408 67.168 90.5248 66.436 90.5248 65.284C90.5248 64.312 89.8168 63.664 88.7968 63.472L87.7288 63.28C87.3448 63.208 86.9968 63.028 86.9968 62.596C86.9968 62.116 87.4888 61.78 88.0768 61.78C88.7368 61.78 89.1688 62.068 89.3128 62.74ZM95.091 58.552V67H96.363V60.088L100.683 67H102.147V58.552H100.875V65.104L96.795 58.552H95.091ZM103.083 62.56C103.083 63.94 104.127 64.912 105.483 64.912C106.839 64.912 107.895 63.94 107.895 62.56C107.895 61.168 106.839 60.208 105.483 60.208C104.127 60.208 103.083 61.168 103.083 62.56ZM103.239 67H107.739V65.968H103.239V67ZM104.175 62.56C104.175 61.768 104.727 61.216 105.483 61.216C106.239 61.216 106.791 61.768 106.791 62.56C106.791 63.352 106.239 63.904 105.483 63.904C104.715 63.904 104.175 63.352 104.175 62.56ZM114.763 59.68V58.552H109.783L109.087 63.304L110.443 63.628C110.695 63.004 111.295 62.5 112.171 62.5C113.203 62.5 113.911 63.22 113.911 64.3C113.911 65.368 113.203 66.088 112.123 66.088C111.235 66.088 110.563 65.608 110.335 64.756L109.063 64.9C109.339 66.136 110.395 67.168 112.111 67.168C113.875 67.168 115.171 66.064 115.171 64.3C115.171 62.524 113.995 61.432 112.411 61.432C111.511 61.432 110.803 61.816 110.455 62.392L110.431 62.38L110.803 59.68H114.763ZM122.337 66.064C121.197 66.064 120.513 65.416 120.417 64.36L119.181 64.504C119.301 66.052 120.501 67.18 122.325 67.18C124.149 67.18 125.253 66.16 125.253 64.708C125.253 63.76 124.701 62.968 123.729 62.656V62.632C124.461 62.296 124.989 61.684 124.989 60.76C124.989 59.368 123.909 58.372 122.229 58.372C120.609 58.372 119.373 59.452 119.289 60.928L120.525 61.084C120.585 60.088 121.257 59.476 122.229 59.476C123.141 59.476 123.729 60.016 123.729 60.88C123.729 61.72 123.117 62.128 122.325 62.128H121.545V63.22H122.433C123.345 63.22 123.993 63.736 123.993 64.612C123.993 65.536 123.345 66.064 122.337 66.064ZM129.657 67.18C131.925 67.18 132.981 65.248 132.981 62.776C132.981 60.292 131.925 58.372 129.657 58.372C127.401 58.372 126.333 60.292 126.333 62.776C126.333 65.248 127.401 67.18 129.657 67.18ZM127.617 62.776C127.617 60.928 128.193 59.464 129.657 59.464C131.121 59.464 131.709 60.928 131.709 62.776C131.709 64.624 131.121 66.088 129.657 66.088C128.193 66.088 127.617 64.624 127.617 62.776ZM137.383 67.18C139.651 67.18 140.707 65.248 140.707 62.776C140.707 60.292 139.651 58.372 137.383 58.372C135.127 58.372 134.059 60.292 134.059 62.776C134.059 65.248 135.127 67.18 137.383 67.18ZM135.343 62.776C135.343 60.928 135.919 59.464 137.383 59.464C138.847 59.464 139.435 60.928 139.435 62.776C139.435 64.624 138.847 66.088 137.383 66.088C135.919 66.088 135.343 64.624 135.343 62.776ZM145.063 62.236V63.304H154.903V62.236H145.063ZM162.673 58.552L159.241 67H160.489L163.921 58.552H162.673ZM169.317 64.6V62.932C169.317 61.6 168.297 60.796 166.845 60.796C165.441 60.796 164.349 61.6 164.169 62.86L165.369 62.968C165.453 62.188 166.053 61.792 166.821 61.792C167.625 61.792 168.081 62.188 168.081 62.752C168.081 63.076 167.901 63.22 167.541 63.28L165.981 63.568C164.877 63.76 164.121 64.348 164.121 65.356C164.121 66.46 165.045 67.168 166.269 67.168C167.121 67.168 167.757 66.724 168.165 66.04H168.189C168.201 66.304 168.237 66.76 168.333 67H169.557C169.377 66.22 169.317 65.428 169.317 64.6ZM165.369 65.332C165.369 64.816 165.765 64.528 166.425 64.396L167.589 64.168C167.817 64.12 167.961 64.06 168.057 63.952H168.093V64.528C168.093 65.488 167.409 66.184 166.425 66.184C165.789 66.184 165.369 65.884 165.369 65.332ZM178.776 60.94L180.024 60.712C179.64 59.044 178.5 58.372 176.964 58.372C175.236 58.372 173.928 59.404 173.928 60.82C173.928 62.14 174.852 62.848 176.148 63.088L177.528 63.34C178.176 63.46 178.752 63.892 178.752 64.648C178.752 65.476 178.092 66.028 177.06 66.028C176.04 66.028 175.284 65.536 174.972 64.348L173.712 64.588C174.084 66.256 175.332 67.156 177.036 67.156C178.872 67.156 180.108 66.136 180.108 64.636C180.108 63.292 179.22 62.428 177.828 62.176L176.46 61.924C175.884 61.816 175.296 61.492 175.296 60.784C175.296 59.98 176.088 59.488 176.964 59.488C177.876 59.488 178.536 59.884 178.776 60.94ZM183.688 67H184.78V65.884H184.012C183.532 65.884 183.316 65.644 183.316 65.212V62.068H184.708V60.952H183.316V59.272H182.056V60.952H180.928V62.068H182.056V65.464C182.056 66.52 182.68 67 183.688 67ZM187.045 60.952L188.761 65.296H188.785L190.501 60.952H191.761L188.377 69.352H187.021L188.149 66.712L185.689 60.952H187.045ZM192.934 58.552V67H194.194V58.552H192.934ZM195.902 60.952V67H197.162V60.952H195.902ZM195.854 59.872H197.21V58.552H195.854V59.872ZM202.229 62.74L203.381 62.524C203.117 61.348 202.217 60.784 200.993 60.784C199.685 60.784 198.713 61.564 198.713 62.644C198.713 63.652 199.457 64.156 200.357 64.324L201.437 64.528C201.857 64.6 202.241 64.84 202.241 65.296C202.241 65.812 201.821 66.148 201.125 66.148C200.429 66.148 199.913 65.8 199.721 65.068L198.557 65.296C198.797 66.448 199.769 67.168 201.113 67.168C202.457 67.168 203.441 66.436 203.441 65.284C203.441 64.312 202.733 63.664 201.713 63.472L200.645 63.28C200.261 63.208 199.913 63.028 199.913 62.596C199.913 62.116 200.405 61.78 200.993 61.78C201.653 61.78 202.085 62.068 202.229 62.74ZM207.057 67H208.149V65.884H207.381C206.901 65.884 206.685 65.644 206.685 65.212V62.068H208.077V60.952H206.685V59.272H205.425V60.952H204.297V62.068H205.425V65.464C205.425 66.52 206.049 67 207.057 67ZM209.469 60.952V67H210.729V60.952H209.469ZM209.421 59.872H210.777V58.552H209.421V59.872ZM215.257 67.168C216.793 67.168 217.837 66.256 218.053 64.96L216.853 64.816C216.673 65.572 216.145 66.064 215.257 66.064C214.165 66.064 213.385 65.188 213.385 63.976C213.385 62.764 214.141 61.888 215.233 61.888C216.097 61.888 216.661 62.356 216.841 63.088L218.053 62.944C217.825 61.66 216.745 60.784 215.233 60.784C213.457 60.784 212.125 62.08 212.125 63.976C212.125 65.86 213.457 67.168 215.257 67.168ZM221.911 67L225.151 58.552H226.759L229.975 67H228.499L227.263 63.64H228.187L228.427 64.78H223.471L223.711 63.64H224.551L223.315 67H221.911ZM224.551 63.64H227.263L225.919 60.016H225.895L224.551 63.64ZM231.195 58.552V67H232.455V58.552H231.195ZM236.395 67H237.487V65.884H236.719C236.239 65.884 236.023 65.644 236.023 65.212V62.068H237.415V60.952H236.023V59.272H234.763V60.952H233.635V62.068H234.763V65.464C234.763 66.52 235.387 67 236.395 67ZM241.532 67.168C243.092 67.168 243.968 66.268 244.232 65.392L243.056 65.248C242.852 65.716 242.384 66.124 241.556 66.124C240.524 66.124 239.756 65.464 239.684 64.276H244.256C244.268 64.144 244.28 64.012 244.28 63.868C244.28 61.912 243.104 60.784 241.412 60.784C239.648 60.784 238.412 62.116 238.412 64C238.412 65.884 239.72 67.168 241.532 67.168ZM239.732 63.304C239.84 62.548 240.452 61.816 241.424 61.816C242.396 61.816 242.984 62.524 243.02 63.304H239.732ZM245.664 67H246.924V63.808C246.924 62.692 247.536 62.068 248.484 62.068H249.168V60.952H248.484C247.74 60.952 247.176 61.312 246.864 62.008H246.84C246.852 61.756 246.876 61.348 246.876 61.024V60.952H245.664V67ZM250.39 67H251.65V63.592C251.65 62.584 252.31 61.864 253.21 61.864C254.086 61.864 254.542 62.488 254.542 63.4V67H255.79V63.1C255.79 61.648 254.866 60.784 253.546 60.784C252.634 60.784 251.938 61.312 251.626 61.876H251.602C251.626 61.66 251.65 61.336 251.65 61.012V60.952H250.39V67ZM262.391 64.6V62.932C262.391 61.6 261.371 60.796 259.919 60.796C258.515 60.796 257.423 61.6 257.243 62.86L258.443 62.968C258.527 62.188 259.127 61.792 259.895 61.792C260.699 61.792 261.155 62.188 261.155 62.752C261.155 63.076 260.975 63.22 260.615 63.28L259.055 63.568C257.951 63.76 257.195 64.348 257.195 65.356C257.195 66.46 258.119 67.168 259.343 67.168C260.195 67.168 260.831 66.724 261.239 66.04H261.263C261.275 66.304 261.311 66.76 261.407 67H262.631C262.451 66.22 262.391 65.428 262.391 64.6ZM258.443 65.332C258.443 64.816 258.839 64.528 259.499 64.396L260.663 64.168C260.891 64.12 261.035 64.06 261.131 63.952H261.167V64.528C261.167 65.488 260.483 66.184 259.499 66.184C258.863 66.184 258.443 65.884 258.443 65.332ZM266.163 67H267.255V65.884H266.487C266.007 65.884 265.791 65.644 265.791 65.212V62.068H267.183V60.952H265.791V59.272H264.531V60.952H263.403V62.068H264.531V65.464C264.531 66.52 265.155 67 266.163 67ZM271.3 67.168C272.86 67.168 273.736 66.268 274 65.392L272.824 65.248C272.62 65.716 272.152 66.124 271.324 66.124C270.292 66.124 269.524 65.464 269.452 64.276H274.024C274.036 64.144 274.048 64.012 274.048 63.868C274.048 61.912 272.872 60.784 271.18 60.784C269.416 60.784 268.18 62.116 268.18 64C268.18 65.884 269.488 67.168 271.3 67.168ZM269.5 63.304C269.608 62.548 270.22 61.816 271.192 61.816C272.164 61.816 272.752 62.524 272.788 63.304H269.5ZM278.792 62.74L279.944 62.524C279.68 61.348 278.78 60.784 277.556 60.784C276.248 60.784 275.276 61.564 275.276 62.644C275.276 63.652 276.02 64.156 276.92 64.324L278 64.528C278.42 64.6 278.804 64.84 278.804 65.296C278.804 65.812 278.384 66.148 277.688 66.148C276.992 66.148 276.476 65.8 276.284 65.068L275.12 65.296C275.36 66.448 276.332 67.168 277.676 67.168C279.02 67.168 280.004 66.436 280.004 65.284C280.004 64.312 279.296 63.664 278.276 63.472L277.208 63.28C276.824 63.208 276.476 63.028 276.476 62.596C276.476 62.116 276.968 61.78 277.556 61.78C278.216 61.78 278.648 62.068 278.792 62.74Z" fill="#EBEBEB"/>
</svg>
