<svg width="900" height="900" viewBox="0 0 900 900" fill="none" xmlns="http://www.w3.org/2000/svg">
<rect width="900" height="900" fill="white"/>
<path d="M167.02 420.46L187.36 416.68C181.6 391.66 164.5 381.58 140.92 381.58C114.46 381.58 94.84 397.42 94.84 418.66C94.84 438.46 108.34 449.44 127.96 453.22L148.84 457C158.38 458.62 166.3 464.92 166.3 475.36C166.3 487.06 156.76 494.98 142.18 494.98C127.6 494.98 116.8 488.14 112.12 470.86L91.6 474.82C97 499.66 115.72 513.34 142 513.34C170.08 513.34 188.62 497.86 188.62 475.18C188.62 454.84 175.48 441.88 154.42 438.1L133.72 434.14C125.62 432.7 117.16 428.02 117.16 418.12C117.16 406.6 128.86 399.76 141.1 399.76C153.88 399.76 163.6 405.34 167.02 420.46ZM276.314 475V450.52C276.314 430.36 260.654 417.94 238.514 417.94C217.274 417.94 200.714 430.18 198.014 449.26L217.634 450.88C218.534 439.72 227.354 434.14 238.154 434.14C249.674 434.14 255.974 439.9 255.974 447.64C255.974 452.14 253.454 454.3 248.054 455.38L225.014 459.34C208.634 462.22 197.294 471.4 197.294 486.34C197.294 502.72 210.974 513.52 229.514 513.52C242.114 513.52 251.294 507.04 257.414 496.78H257.774C257.954 500.74 258.494 507.58 259.754 511H279.914C277.214 499.48 276.314 487.24 276.314 475ZM217.634 485.8C217.634 478.42 223.214 474.64 232.394 472.84L248.954 469.42C252.194 468.88 254.174 467.98 255.794 466.36H256.154V474.1C256.154 487.96 246.254 497.68 232.574 497.68C223.394 497.68 217.634 493.36 217.634 485.8ZM292.713 511H313.233V459.52C313.233 445.48 322.773 435.22 335.373 435.22C347.793 435.22 354.453 444.22 354.453 457.18V511H374.973V452.5C374.973 430.54 360.933 417.76 341.313 417.76C327.993 417.76 317.553 425.32 312.873 433.96H312.513C312.873 430.72 313.233 425.5 313.233 421V420.28H292.713V511ZM441.943 447.46L460.843 443.86C456.703 426.4 443.203 417.76 424.303 417.76C404.323 417.76 389.743 429.64 389.743 446.2C389.743 461.32 400.903 469.06 414.583 471.76L430.603 474.64C436.903 475.9 442.123 478.96 442.123 485.26C442.123 492.28 436.363 496.96 426.463 496.96C416.563 496.96 409.363 492.28 406.483 482.02L387.403 485.44C391.003 502.36 405.403 513.52 426.103 513.52C446.623 513.52 461.743 502.54 461.743 485.08C461.743 470.32 451.123 460.6 435.643 457.72L419.623 454.66C414.223 453.76 409.363 451.24 409.363 445.12C409.363 438.46 416.203 433.96 424.483 433.96C433.663 433.96 439.783 437.92 441.943 447.46ZM514.572 384.28V511H535.452V409.84L598.092 511H622.212V384.28H601.332V479.68L542.472 384.28H514.572ZM636.072 443.5C636.072 464.38 651.912 478.78 672.612 478.78C693.132 478.78 708.972 464.38 708.972 443.5C708.972 422.8 693.132 408.22 672.612 408.22C651.912 408.22 636.072 422.8 636.072 443.5ZM638.592 511H706.452V494.26H638.592V511ZM653.892 443.5C653.892 432.34 661.632 424.42 672.612 424.42C683.412 424.42 691.152 432.34 691.152 443.5C691.152 454.84 683.412 462.58 672.612 462.58C661.452 462.58 653.892 454.84 653.892 443.5ZM804.579 402.64V384.28H729.159L718.719 455.92L740.679 460.96C744.099 451.96 752.919 444.94 765.159 444.94C779.919 444.94 790.179 455.02 790.179 470.5C790.179 485.98 779.919 495.88 764.619 495.88C752.199 495.88 742.299 489.4 739.059 476.62L718.539 478.96C722.499 497.86 738.339 513.52 764.439 513.52C791.259 513.52 810.699 497.14 810.699 470.5C810.699 443.86 792.879 427.48 769.479 427.48C756.159 427.48 745.899 433.24 741.039 440.98L740.679 440.8L745.899 402.64H804.579Z" fill="black"/>
</svg>
