<svg width="1600" height="900" viewBox="0 0 1600 900" fill="none" xmlns="http://www.w3.org/2000/svg">
<rect width="1600" height="900" fill="white"/>
<path d="M193.44 110.24L204.32 108.32C199.2 85.6 183.84 77.12 165.28 77.12C144.16 77.12 127.2 89.6 127.2 108.16C127.2 126.4 140.16 134.4 156.48 137.28L174.72 140.48C184.16 142.08 194.4 149.28 194.4 161.6C194.4 175.68 183.68 184.32 167.36 184.32C151.04 184.32 139.52 175.84 135.36 158.56L124.32 160.48C128.96 183.2 145.92 194.24 166.56 194.24C188.96 194.24 205.28 181.12 205.28 161.6C205.28 144.48 193.28 132.96 175.04 129.76L156.96 126.56C147.84 124.96 138.08 119.84 138.08 108.16C138.08 95.36 150.24 87.04 164.96 87.04C180 87.04 189.76 93.76 193.44 110.24ZM282.151 160V136C282.151 119.2 270.151 109.12 251.591 109.12C233.831 109.12 220.071 119.68 217.831 136L228.231 136.96C229.671 124.96 239.111 118.24 251.591 118.24C264.551 118.24 271.911 124.32 271.911 134.24C271.911 139.36 269.191 141.28 264.231 142.24L241.831 146.56C227.431 149.28 217.191 156.64 217.191 170.4C217.191 185.76 229.671 194.24 245.191 194.24C257.511 194.24 266.791 187.84 272.711 178.56H273.031C273.191 181.76 273.671 188.16 275.111 192H285.351C282.791 181.6 282.151 172 282.151 160ZM227.591 170.4C227.591 162.08 233.991 156.96 245.511 154.72L264.871 151.04C268.391 150.4 270.311 149.12 271.751 147.68H272.231V158.4C272.231 173.12 261.671 184.96 245.511 184.96C234.791 184.96 227.591 180 227.591 170.4ZM302.325 192H312.725V148C312.725 130.72 323.445 118.72 338.485 118.72C352.885 118.72 359.125 128.8 359.125 143.52V192H369.525V139.68C369.525 121.12 357.685 109.12 339.765 109.12C326.325 109.12 316.725 117.28 312.725 124.8H312.405C312.565 121.6 312.725 118.08 312.725 112.64V111.36H302.325V192ZM435.785 134.08L445.705 132.16C442.185 115.84 430.025 109.12 415.945 109.12C399.625 109.12 387.145 118.88 387.145 132.64C387.145 146.08 396.745 151.68 408.425 153.76L422.665 156.32C428.905 157.44 436.105 162.08 436.105 170.08C436.105 179.2 428.745 184.96 417.545 184.96C406.025 184.96 397.545 178.72 394.985 166.88L384.905 168.96C388.105 185.6 401.385 194.24 417.065 194.24C433.705 194.24 446.345 184.8 446.345 170.08C446.345 157.44 436.745 148.96 423.625 146.56L409.385 144C403.305 142.88 397.385 139.68 397.385 132.32C397.385 124 405.705 118.24 415.785 118.24C426.505 118.24 433.225 123.2 435.785 134.08ZM499.228 79.36V192H509.788V91.04L575.068 192H586.908V79.36H576.348V176.64L513.628 79.36H499.228ZM599.708 135.68C599.708 154.24 613.468 167.04 630.588 167.04C647.708 167.04 661.468 154.24 661.468 135.68C661.468 117.12 647.708 104.32 630.588 104.32C613.468 104.32 599.708 117.12 599.708 135.68ZM601.468 192H659.708V182.4H601.468V192ZM609.788 135.68C609.788 122.72 618.748 113.92 630.588 113.92C642.428 113.92 651.388 122.72 651.388 135.68C651.388 148.64 642.428 157.44 630.588 157.44C618.748 157.44 609.788 148.64 609.788 135.68ZM747.55 88.96V79.36H683.23L673.63 142.08L686.75 145.28C690.59 135.68 699.55 127.36 714.27 127.36C731.07 127.36 742.11 139.36 742.11 156C742.11 172.64 731.07 184.64 713.15 184.64C697.79 184.64 688.35 176.64 684.51 164.48L673.63 165.76C677.79 181.12 691.39 194.24 713.15 194.24C735.55 194.24 752.67 179.04 752.67 156C752.67 132.96 737.63 117.76 715.23 117.76C702.75 117.76 691.71 123.2 685.79 134.08L685.47 133.92L692.03 88.96H747.55ZM192.64 266.56L204.96 264.32C199.84 241.6 184.48 233.12 165.44 233.12C143.84 233.12 126.88 245.92 126.88 264.48C126.88 282.56 139.52 291.04 156.16 293.92L174.4 297.12C183.68 298.72 193.28 305.6 193.28 317.28C193.28 330.72 183.04 339.04 167.36 339.04C151.68 339.04 140.64 331.04 136.48 314.08L124 316.32C128.64 338.88 145.44 350.24 166.72 350.24C189.6 350.24 205.92 336.96 205.92 317.28C205.92 300 194.08 288.48 175.68 285.28L157.6 281.92C148.8 280.48 139.52 275.52 139.52 264.48C139.52 252.16 151.36 244.32 165.28 244.32C179.52 244.32 189.12 250.56 192.64 266.56ZM282.944 316V292.48C282.944 275.36 270.624 265.12 251.904 265.12C233.824 265.12 219.904 275.84 217.664 292.16L229.504 293.28C230.784 281.76 239.904 275.36 251.744 275.36C264.224 275.36 271.264 281.28 271.264 290.56C271.264 295.36 268.544 297.28 263.584 298.24L241.664 302.4C227.264 305.12 217.024 312.64 217.024 326.4C217.024 341.6 229.344 350.24 245.184 350.24C257.184 350.24 266.304 344 272.064 334.72H272.384C272.544 337.92 273.024 344.32 274.464 348H286.144C283.744 337.6 282.944 327.84 282.944 316ZM228.864 326.24C228.864 318.24 235.104 313.44 245.824 311.36L264.384 307.84C267.744 307.2 269.664 306.08 271.104 304.64H271.424V314.56C271.424 328.8 261.344 340 245.984 340C235.744 340 228.864 335.2 228.864 326.24ZM302.157 348H313.997V303.68C313.997 287.36 324.397 275.84 338.637 275.84C352.397 275.84 358.477 285.6 358.477 299.68V348H370.477V295.68C370.477 276.96 358.477 265.12 340.717 265.12C327.597 265.12 317.997 272.96 313.997 280.48H313.677C313.837 277.44 313.997 273.6 313.997 268.48V267.36H302.157V348ZM435.454 290.4L446.814 288.16C443.134 272 431.134 265.12 416.414 265.12C399.774 265.12 387.294 275.04 387.294 288.96C387.294 302.4 396.894 308.32 408.734 310.4L422.974 312.96C429.054 314.08 435.774 318.4 435.774 325.92C435.774 334.4 428.894 339.84 418.174 339.84C407.134 339.84 399.134 334.08 396.574 322.72L385.054 324.96C388.254 341.28 401.374 350.24 417.694 350.24C434.654 350.24 447.454 340.8 447.454 325.92C447.454 313.12 437.854 304.64 424.574 302.24L410.334 299.52C404.574 298.56 398.974 295.52 398.974 288.48C398.974 280.64 406.814 275.36 416.414 275.36C426.494 275.36 433.054 280 435.454 290.4ZM499.213 235.36V348H511.373V249.28L574.733 348H588.493V235.36H576.333V330.08L515.693 235.36H499.213ZM601.293 290.88C601.293 309.44 615.053 322.24 632.493 322.24C649.773 322.24 663.533 309.44 663.533 290.88C663.533 272.48 649.773 259.52 632.493 259.52C615.053 259.52 601.293 272.48 601.293 290.88ZM603.053 348H661.773V337.28H603.053V348ZM612.493 290.88C612.493 278.56 620.973 270.08 632.493 270.08C643.853 270.08 652.333 278.56 652.333 290.88C652.333 303.36 643.853 311.68 632.493 311.68C620.973 311.68 612.493 303.36 612.493 290.88ZM749.429 246.24V235.36H684.469L675.029 298.24L689.429 301.76C693.109 292.48 701.749 284.48 715.829 284.48C731.829 284.48 742.549 296 742.549 312C742.549 328 731.829 339.36 714.709 339.36C700.309 339.36 691.029 331.84 687.349 319.84L675.029 321.28C679.029 336.96 692.629 350.24 714.709 350.24C737.429 350.24 754.549 335.2 754.549 312C754.549 288.8 739.349 273.76 717.269 273.76C704.949 273.76 694.229 279.2 688.629 289.28L688.309 289.12L694.549 246.24H749.429ZM191.84 422.72L205.6 420.16C200.48 397.76 185.12 388.96 165.6 388.96C143.52 388.96 126.4 402.08 126.4 420.8C126.4 438.88 139.04 447.52 155.84 450.56L174.08 453.92C183.2 455.36 192.16 461.92 192.16 473.12C192.16 485.6 182.4 493.6 167.36 493.6C152.48 493.6 141.6 486.24 137.44 469.6L123.52 472.16C128.32 494.72 145.12 506.24 166.88 506.24C190.24 506.24 206.72 492.8 206.72 472.96C206.72 455.52 194.72 444 176.32 440.64L158.08 437.44C149.76 436 140.96 431.2 140.96 420.64C140.96 408.8 152.32 401.44 165.6 401.44C179.04 401.44 188.48 407.52 191.84 422.72ZM284.052 472V448.8C284.052 431.68 271.253 421.12 252.212 421.12C234.132 421.12 219.892 431.84 217.652 448.48L230.772 449.6C232.052 438.4 240.852 432.32 252.212 432.32C264.052 432.32 270.613 438.08 270.613 446.88C270.613 451.52 268.212 453.44 263.252 454.4L241.652 458.4C227.092 460.96 217.012 468.64 217.012 482.24C217.012 497.28 229.332 506.24 245.172 506.24C257.173 506.24 265.972 500 271.733 490.88H272.053C272.053 494.24 272.693 500.48 273.972 504H287.253C284.693 493.6 284.052 483.52 284.052 472ZM230.452 482.08C230.452 474.4 236.212 470.08 246.452 468L263.893 464.64C267.253 464 269.013 462.88 270.452 461.6H270.933V470.72C270.933 484.48 261.012 495.04 246.452 495.04C236.852 495.04 230.452 490.56 230.452 482.08ZM301.986 504H315.586V459.2C315.586 443.84 325.346 433.12 338.946 433.12C351.906 433.12 357.986 442.24 357.986 455.68V504H371.586V451.84C371.586 432.8 359.586 421.12 341.826 421.12C329.026 421.12 319.586 428.64 315.426 436.32H315.106C315.266 433.28 315.586 429.28 315.586 424.32V423.36H301.986V504ZM435.123 446.56L447.763 444.16C444.243 428.16 432.083 421.12 416.883 421.12C400.083 421.12 387.443 431.2 387.443 445.28C387.443 458.72 397.043 464.96 409.043 467.04L423.283 469.6C429.203 470.72 435.443 474.72 435.443 481.76C435.443 489.6 428.883 494.72 418.643 494.72C408.243 494.72 400.563 489.44 398.003 478.56L385.203 481.12C388.403 497.12 401.523 506.24 418.323 506.24C435.603 506.24 448.563 496.64 448.563 481.6C448.563 468.8 438.963 460.32 425.683 457.76L411.283 455.2C405.843 454.08 400.563 451.36 400.563 444.8C400.563 437.44 407.923 432.32 416.883 432.32C426.643 432.32 432.883 436.64 435.123 446.56ZM499.045 391.36V504H512.805V407.52L574.085 504H589.765V391.36H576.005V483.68L517.605 391.36H499.045ZM602.405 446.24C602.405 464.8 616.325 477.6 633.925 477.6C651.525 477.6 665.445 464.8 665.445 446.24C665.445 427.68 651.525 414.88 633.925 414.88C616.325 414.88 602.405 427.68 602.405 446.24ZM604.325 504H663.525V492.32H604.325V504ZM614.885 446.24C614.885 434.4 623.045 426.4 633.925 426.4C644.965 426.4 653.125 434.4 653.125 446.24C653.125 457.92 644.965 466.08 633.925 466.08C622.885 466.08 614.885 457.92 614.885 446.24ZM750.995 403.68V391.36H685.555L676.115 454.4L691.795 458.08C695.315 449.12 703.795 441.76 716.915 441.76C732.275 441.76 742.515 452.48 742.515 468C742.515 483.52 732.275 494.24 716.115 494.24C702.515 494.24 693.235 487.04 689.875 475.2L675.955 476.8C679.955 492.8 693.715 506.24 715.955 506.24C738.995 506.24 756.275 491.36 756.275 468C756.275 444.64 740.915 429.76 718.995 429.76C706.835 429.76 696.595 435.04 691.315 444.32L690.995 444.16L696.755 403.68H750.995ZM191.04 579.04L206.24 576.16C201.12 553.76 185.76 544.96 165.76 544.96C143.2 544.96 126.08 558.4 126.08 577.28C126.08 595.04 138.4 604.16 155.52 607.2L173.76 610.56C182.72 612.16 191.04 618.24 191.04 628.8C191.04 640.64 181.76 648.32 167.36 648.32C153.12 648.32 142.72 641.44 138.56 625.12L123.2 628C128 650.4 144.64 662.08 166.88 662.08C190.88 662.08 207.36 648.64 207.36 628.8C207.36 611.04 195.52 599.52 176.96 596.16L158.72 592.8C150.72 591.52 142.4 586.88 142.4 576.96C142.4 565.6 153.44 558.72 165.76 558.72C178.56 558.72 187.68 564.32 191.04 579.04ZM284.845 628V605.28C284.845 587.84 271.725 577.28 252.525 577.28C234.125 577.28 219.725 588 217.325 604.64L232.045 605.92C233.165 595.2 241.485 589.44 252.365 589.44C263.565 589.44 269.965 595.04 269.965 603.2C269.965 607.52 267.565 609.44 262.605 610.4L241.485 614.24C226.925 616.96 216.685 624.64 216.685 638.24C216.685 653.12 229.005 662.24 245.165 662.24C256.845 662.24 265.485 656.16 271.085 647.04H271.405C271.405 650.4 272.045 656.64 273.325 660H288.045C285.645 649.6 284.845 639.36 284.845 628ZM231.725 637.92C231.725 630.72 237.325 626.56 246.765 624.64L263.405 621.44C266.445 620.8 268.365 619.84 269.805 618.56H270.125V626.88C270.125 640.16 260.685 650.08 246.925 650.08C237.805 650.08 231.725 645.76 231.725 637.92ZM301.819 660H316.859V614.88C316.859 600.48 326.299 590.24 338.939 590.24C351.419 590.24 357.339 599.04 357.339 611.84V660H372.539V607.84C372.539 588.8 360.379 577.12 342.619 577.12C330.139 577.12 320.859 584.48 316.699 592H316.379C316.539 589.12 316.859 584.8 316.859 580.32V579.36H301.819V660ZM434.791 602.88L448.871 600.32C445.191 584.48 433.191 577.12 417.351 577.12C400.231 577.12 387.431 587.36 387.431 601.6C387.431 615.04 397.191 621.6 409.191 623.68L423.591 626.4C429.351 627.36 434.951 631.04 434.951 637.6C434.951 644.96 429.031 649.76 419.271 649.76C409.351 649.76 402.151 644.8 399.591 634.4L385.351 637.12C388.551 652.8 401.511 662.24 418.951 662.24C436.551 662.24 449.511 652.64 449.511 637.44C449.511 624.48 440.071 616 426.631 613.44L412.231 610.72C406.951 609.76 401.991 607.2 401.991 600.96C401.991 594.08 409.031 589.44 417.511 589.44C426.631 589.44 432.711 593.44 434.791 602.88ZM499.03 547.36V660H514.39V565.76L573.75 660H591.35V547.36H575.99V637.12L519.67 547.36H499.03ZM603.99 601.44C603.99 620 617.91 632.8 635.83 632.8C653.59 632.8 667.51 620 667.51 601.44C667.51 583.04 653.59 570.08 635.83 570.08C617.91 570.08 603.99 583.04 603.99 601.44ZM605.91 660H665.59V647.2H605.91V660ZM617.43 601.44C617.43 590.4 625.27 582.56 635.83 582.56C646.23 582.56 654.07 590.4 654.07 601.44C654.07 612.64 646.23 620.32 635.83 620.32C625.11 620.32 617.43 612.64 617.43 601.44ZM752.714 560.96V547.36H686.794L677.514 610.56L694.314 614.56C697.834 605.92 705.994 598.88 718.474 598.88C733.034 598.88 742.954 609.12 742.954 624C742.954 638.88 733.034 648.96 717.674 648.96C705.034 648.96 695.914 642.24 692.714 630.72L677.354 632.48C681.034 648.64 694.954 662.24 717.514 662.24C740.874 662.24 758.154 647.52 758.154 624C758.154 600.48 742.634 585.76 721.034 585.76C709.034 585.76 699.114 591.04 694.154 599.52L693.834 599.36L699.274 560.96H752.714ZM190.24 735.2L206.88 732.16C201.76 709.92 186.56 700.96 166.08 700.96C143.04 700.96 125.6 714.72 125.6 733.6C125.6 751.2 137.92 760.64 155.2 763.84L173.6 767.2C182.24 768.8 189.92 774.56 189.92 784.64C189.92 795.68 181.12 803.04 167.36 803.04C153.76 803.04 143.68 796.48 139.52 780.64L122.72 783.84C127.68 806.08 144.32 818.08 167.04 818.08C191.52 818.08 208 804.48 208 784.48C208 766.56 196.16 755.04 177.6 751.68L159.36 748.32C151.68 746.88 143.84 742.56 143.84 733.12C143.84 722.4 154.4 715.84 166.08 715.84C178.24 715.84 187.04 721.12 190.24 735.2ZM285.797 784V761.76C285.797 744 272.198 733.28 252.837 733.28C234.117 733.28 219.557 744 217.157 760.8L233.157 762.24C234.277 751.84 242.277 746.56 252.517 746.56C263.237 746.56 269.318 751.84 269.318 759.36C269.318 763.68 266.917 765.6 262.117 766.4L241.317 770.24C226.597 772.8 216.517 780.64 216.517 794.08C216.517 808.8 228.837 818.24 245.157 818.24C256.517 818.24 264.997 812.32 270.438 803.2H270.758C270.917 806.72 271.397 812.8 272.678 816H288.998C286.598 805.6 285.797 795.04 285.797 784ZM233.157 793.76C233.157 786.88 238.437 783.04 247.237 781.28L262.757 778.24C265.797 777.6 267.717 776.8 268.998 775.36H269.477V783.04C269.477 795.84 260.357 805.12 247.237 805.12C238.757 805.12 233.157 801.12 233.157 793.76ZM301.491 816H318.291V770.56C318.291 757.12 327.091 747.52 339.091 747.52C350.771 747.52 356.851 755.84 356.851 768V816H373.491V764C373.491 744.64 361.171 733.12 343.571 733.12C331.411 733.12 322.131 740.16 317.971 747.68H317.651C317.971 744.8 318.291 740.48 318.291 736.16V735.36H301.491V816ZM434.304 759.2L449.664 756.32C446.144 740.64 434.144 733.12 417.824 733.12C400.384 733.12 387.424 743.52 387.424 757.92C387.424 771.36 397.344 778.08 409.344 780.32L423.744 783.04C429.344 784 434.464 787.2 434.464 793.28C434.464 800.16 428.864 804.64 419.584 804.64C410.304 804.64 403.424 800 400.864 790.24L385.344 793.28C388.544 808.64 401.504 818.24 419.424 818.24C437.344 818.24 450.464 808.48 450.464 793.12C450.464 780.16 441.024 771.52 427.424 768.96L413.184 766.4C408.064 765.44 403.424 763.04 403.424 757.28C403.424 750.88 409.984 746.4 417.824 746.4C426.624 746.4 432.384 750.24 434.304 759.2ZM498.546 703.36V816H515.506V723.84L573.106 816H592.626V703.36H575.666V790.72L521.266 703.36H498.546ZM605.106 756.8C605.106 775.2 619.026 788.16 637.106 788.16C655.186 788.16 669.266 775.2 669.266 756.8C669.266 738.24 655.186 725.44 637.106 725.44C619.026 725.44 605.106 738.24 605.106 756.8ZM607.186 816H667.186V802.24H607.186V816ZM619.666 756.8C619.666 746.24 627.026 738.88 637.106 738.88C647.186 738.88 654.546 746.24 654.546 756.8C654.546 767.36 647.186 774.72 637.106 774.72C626.866 774.72 619.666 767.36 619.666 756.8ZM754.436 718.4V703.36H688.036L678.756 766.72L696.836 771.04C700.196 762.72 708.196 756 719.876 756C733.636 756 743.076 765.6 743.076 780C743.076 794.24 733.636 803.84 719.236 803.84C707.396 803.84 698.436 797.44 695.396 786.08L678.436 788C682.116 804.48 696.196 818.24 719.076 818.24C742.596 818.24 759.876 803.52 759.876 780C759.876 756.32 744.196 741.76 723.076 741.76C711.076 741.76 701.636 746.88 696.996 754.56L696.676 754.4L701.636 718.4H754.436Z" fill="black"/>
<path d="M959.24 111.52L977.32 108.16C972.2 85.92 957 76.96 936.04 76.96C912.52 76.96 895.08 91.04 895.08 109.92C895.08 127.52 907.08 137.28 924.52 140.64L943.08 144C951.56 145.44 958.6 151.04 958.6 160.32C958.6 170.72 950.12 177.76 937.16 177.76C924.2 177.76 914.6 171.68 910.44 156.32L892.2 159.84C897 181.92 913.64 194.08 937 194.08C961.96 194.08 978.44 180.32 978.44 160.16C978.44 142.08 966.76 130.56 948.04 127.2L929.64 123.68C922.44 122.4 914.92 118.24 914.92 109.44C914.92 99.2 925.32 93.12 936.2 93.12C947.56 93.12 956.2 98.08 959.24 111.52ZM1056.39 160V138.24C1056.39 120.32 1042.47 109.28 1022.79 109.28C1003.91 109.28 989.19 120.16 986.79 137.12L1004.23 138.56C1005.03 128.64 1012.87 123.68 1022.47 123.68C1032.71 123.68 1038.31 128.8 1038.31 135.68C1038.31 139.68 1036.07 141.6 1031.27 142.56L1010.79 146.08C996.23 148.64 986.15 156.8 986.15 170.08C986.15 184.64 998.31 194.24 1014.79 194.24C1025.99 194.24 1034.15 188.48 1039.59 179.36H1039.91C1040.07 182.88 1040.55 188.96 1041.67 192H1059.59C1057.19 181.76 1056.39 170.88 1056.39 160ZM1004.23 169.6C1004.23 163.04 1009.19 159.68 1017.35 158.08L1032.07 155.04C1034.95 154.56 1036.71 153.76 1038.15 152.32H1038.47V159.2C1038.47 171.52 1029.67 180.16 1017.51 180.16C1009.35 180.16 1004.23 176.32 1004.23 169.6ZM1070.97 192H1089.21V146.24C1089.21 133.76 1097.69 124.64 1108.89 124.64C1119.93 124.64 1125.85 132.64 1125.85 144.16V192H1144.09V140C1144.09 120.48 1131.61 109.12 1114.17 109.12C1102.33 109.12 1093.05 115.84 1088.89 123.52H1088.57C1088.89 120.64 1089.21 116 1089.21 112V111.36H1070.97V192ZM1203.62 135.52L1220.42 132.32C1216.74 116.8 1204.74 109.12 1187.94 109.12C1170.18 109.12 1157.22 119.68 1157.22 134.4C1157.22 147.84 1167.14 154.72 1179.3 157.12L1193.54 159.68C1199.14 160.8 1203.78 163.52 1203.78 169.12C1203.78 175.36 1198.66 179.52 1189.86 179.52C1181.06 179.52 1174.66 175.36 1172.1 166.24L1155.14 169.28C1158.34 184.32 1171.14 194.24 1189.54 194.24C1207.78 194.24 1221.22 184.48 1221.22 168.96C1221.22 155.84 1211.78 147.2 1198.02 144.64L1183.78 141.92C1178.98 141.12 1174.66 138.88 1174.66 133.44C1174.66 127.52 1180.74 123.52 1188.1 123.52C1196.26 123.52 1201.7 127.04 1203.62 135.52ZM1268.17 79.36V192H1286.73V102.08L1342.41 192H1363.85V79.36H1345.29V164.16L1292.97 79.36H1268.17ZM1376.17 132C1376.17 150.56 1390.25 163.36 1408.65 163.36C1426.89 163.36 1440.98 150.56 1440.98 132C1440.98 113.6 1426.89 100.64 1408.65 100.64C1390.25 100.64 1376.17 113.6 1376.17 132ZM1378.41 192H1438.73V177.12H1378.41V192ZM1392.01 132C1392.01 122.08 1398.89 115.04 1408.65 115.04C1418.25 115.04 1425.13 122.08 1425.13 132C1425.13 142.08 1418.25 148.96 1408.65 148.96C1398.73 148.96 1392.01 142.08 1392.01 132ZM1525.96 95.68V79.36H1458.92L1449.64 143.04L1469.16 147.52C1472.2 139.52 1480.04 133.28 1490.92 133.28C1504.04 133.28 1513.16 142.24 1513.16 156C1513.16 169.76 1504.04 178.56 1490.44 178.56C1479.4 178.56 1470.6 172.8 1467.72 161.44L1449.48 163.52C1453 180.32 1467.08 194.24 1490.28 194.24C1514.12 194.24 1531.4 179.68 1531.4 156C1531.4 132.32 1515.56 117.76 1494.76 117.76C1482.92 117.76 1473.8 122.88 1469.48 129.76L1469.16 129.6L1473.8 95.68H1525.96ZM956.877 267.84L976.397 264C971.277 242.08 956.077 232.8 934.637 232.8C910.637 232.8 893.037 247.2 893.037 266.24C893.037 283.68 904.877 293.92 922.637 297.28L941.197 300.64C949.517 302.08 955.917 307.36 955.917 316.16C955.917 325.6 947.917 332.32 935.597 332.32C923.437 332.32 913.997 326.88 909.837 311.84L890.157 315.68C895.117 337.6 911.597 350.08 935.597 350.08C961.037 350.08 977.677 336.16 977.677 315.84C977.677 297.6 965.837 286.08 947.117 282.56L928.717 279.2C921.837 277.92 914.797 273.92 914.797 265.76C914.797 255.84 924.717 250.4 934.957 250.4C945.517 250.4 953.997 254.88 956.877 267.84ZM1055.78 316V294.56C1055.78 276.48 1041.54 265.28 1021.7 265.28C1002.66 265.28 987.616 276.32 985.216 293.28L1003.94 294.88C1004.74 285.44 1012.26 280.64 1021.38 280.64C1030.98 280.64 1036.26 285.76 1036.26 292C1036.26 295.84 1034.18 297.76 1029.22 298.56L1009.22 302.08C994.496 304.48 984.576 312.8 984.576 326.08C984.576 340.48 996.576 350.24 1013.38 350.24C1024.42 350.24 1032.26 344.48 1037.7 335.52H1038.02C1038.02 339.2 1038.66 345.12 1039.62 348H1058.98C1056.74 337.76 1055.78 326.72 1055.78 316ZM1004.1 325.44C1004.1 319.2 1008.9 316.16 1016.26 314.72L1030.02 311.84C1032.9 311.36 1034.66 310.56 1035.94 309.28H1036.26V315.36C1036.26 327.2 1027.94 335.2 1016.42 335.2C1008.9 335.2 1004.1 331.68 1004.1 325.44ZM1069.23 348H1089.07V301.76C1089.07 290.24 1097.07 281.92 1107.63 281.92C1117.87 281.92 1123.79 289.28 1123.79 300.16V348H1143.63V296.16C1143.63 276.32 1131.15 265.12 1113.71 265.12C1102.19 265.12 1093.07 271.52 1088.75 279.2H1088.43C1088.75 276.48 1089.07 271.68 1089.07 267.84V267.36H1069.23V348ZM1201.72 291.68L1219.8 288.32C1216.12 272.96 1204.28 265.12 1186.84 265.12C1168.76 265.12 1155.8 275.84 1155.8 290.72C1155.8 304.16 1165.72 311.36 1178.04 313.76L1192.28 316.32C1197.72 317.44 1201.88 319.84 1201.88 324.96C1201.88 330.56 1197.08 334.4 1188.76 334.4C1180.6 334.4 1174.52 330.72 1171.96 322.08L1153.72 325.44C1156.92 340.16 1169.56 350.24 1188.6 350.24C1207.16 350.24 1220.76 340.48 1220.76 324.8C1220.76 311.52 1211.32 302.88 1197.56 300.32L1183.16 297.6C1178.68 296.64 1174.68 294.72 1174.68 289.76C1174.68 284.32 1180.28 280.64 1187 280.64C1194.68 280.64 1199.96 283.68 1201.72 291.68ZM1266.44 235.36V348H1286.6V260.32L1340.2 348H1363.56V235.36H1343.4V317.76L1293.32 235.36H1266.44ZM1375.88 287.36C1375.88 305.76 1389.96 318.72 1408.52 318.72C1427.09 318.72 1441.16 305.76 1441.16 287.36C1441.16 268.96 1427.09 256 1408.52 256C1389.96 256 1375.88 268.96 1375.88 287.36ZM1378.12 348H1438.93V332.16H1378.12V348ZM1392.84 287.36C1392.84 277.92 1399.4 271.36 1408.52 271.36C1417.8 271.36 1424.36 277.92 1424.36 287.36C1424.36 296.64 1417.8 303.36 1408.52 303.36C1399.08 303.36 1392.84 296.64 1392.84 287.36ZM1525.96 253.12V235.36H1458.28L1449.16 299.2L1469.96 303.84C1472.84 296.16 1480.36 290.4 1490.6 290.4C1502.92 290.4 1511.56 298.88 1511.56 312C1511.56 325.12 1502.92 333.44 1490.12 333.44C1480.04 333.44 1471.4 328 1468.68 316.8L1448.84 319.04C1452.36 336.16 1466.44 350.24 1489.96 350.24C1514.12 350.24 1531.56 335.84 1531.56 312C1531.56 288.16 1515.56 273.76 1494.92 273.76C1483.24 273.76 1474.44 278.88 1470.44 284.96L1470.12 284.8L1474.44 253.12H1525.96ZM954.359 424L975.319 420C970.199 398.08 954.999 388.8 933.079 388.8C908.599 388.8 890.999 403.52 890.999 422.72C890.999 440 902.679 450.4 920.599 453.92L939.159 457.44C947.319 458.88 953.079 463.68 953.079 471.84C953.079 480.64 945.559 487.04 933.879 487.04C922.359 487.04 913.399 482.08 909.239 467.36L888.119 471.52C893.079 493.44 909.559 505.92 933.879 505.92C959.959 505.92 976.599 492 976.599 471.68C976.599 453.12 964.919 441.6 946.039 438.08L927.479 434.56C921.079 433.44 914.519 429.6 914.519 421.92C914.519 412.64 924.119 407.52 933.399 407.52C943.319 407.52 951.479 411.84 954.359 424ZM1055.01 472V451.04C1055.01 432.8 1040.29 421.44 1020.13 421.44C1000.93 421.44 985.73 432.32 983.17 449.6L1003.49 451.2C1004.13 442.08 1011.17 437.76 1019.81 437.76C1028.77 437.76 1033.73 442.56 1033.73 448.32C1033.73 451.84 1031.81 453.76 1027.01 454.72L1007.33 457.92C992.61 460.48 982.53 468.8 982.53 481.92C982.53 496.16 994.69 506.24 1011.49 506.24C1022.37 506.24 1030.05 500.64 1035.33 491.68H1035.65C1035.65 495.36 1036.29 501.28 1037.25 504H1058.21C1055.81 493.76 1055.01 482.4 1055.01 472ZM1003.81 481.28C1003.81 475.52 1008.13 472.8 1015.01 471.36L1027.81 468.64C1030.37 468.16 1032.13 467.52 1033.57 466.24H1033.89V471.52C1033.89 482.88 1025.73 490.24 1015.17 490.24C1008.13 490.24 1003.81 486.88 1003.81 481.28ZM1067.35 504H1088.79V457.44C1088.79 446.88 1096.31 439.04 1105.91 439.04C1115.67 439.04 1121.43 446.08 1121.43 456.32V504H1142.87V452.16C1142.87 432.32 1130.23 421.12 1112.79 421.12C1101.59 421.12 1092.63 427.36 1088.31 435.04H1087.99C1088.31 432.32 1088.79 427.2 1088.79 423.84V423.36H1067.35V504ZM1199.67 448L1219.19 444.48C1215.51 429.28 1203.51 421.12 1185.59 421.12C1167.35 421.12 1154.07 432 1154.07 447.04C1154.07 460.48 1164.15 468 1176.47 470.4L1190.87 473.12C1196.15 474.08 1199.67 476.16 1199.67 480.8C1199.67 485.92 1195.51 489.44 1187.67 489.44C1179.99 489.44 1174.39 486.08 1171.83 477.92L1152.15 481.44C1155.35 495.84 1167.99 506.24 1187.51 506.24C1206.39 506.24 1219.99 496.32 1219.99 480.48C1219.99 467.2 1210.71 458.56 1196.79 455.84L1182.39 453.12C1178.07 452.32 1174.39 450.56 1174.39 445.92C1174.39 440.96 1179.67 437.6 1185.91 437.6C1193.11 437.6 1198.07 440.48 1199.67 448ZM1264.71 391.36V504H1286.47V418.56L1338.15 504H1363.43V391.36H1341.67V471.2L1293.67 391.36H1264.71ZM1375.59 442.56C1375.59 461.12 1389.83 473.92 1408.71 473.92C1427.43 473.92 1441.67 461.12 1441.67 442.56C1441.67 424.16 1427.43 411.2 1408.71 411.2C1389.83 411.2 1375.59 424.16 1375.59 442.56ZM1377.99 504H1439.27V487.04H1377.99V504ZM1393.67 442.56C1393.67 433.92 1399.91 427.52 1408.71 427.52C1417.35 427.52 1423.59 433.92 1423.59 442.56C1423.59 451.36 1417.35 457.6 1408.71 457.6C1399.59 457.6 1393.67 451.36 1393.67 442.56ZM1525.96 410.4V391.36H1457.96L1448.84 455.36L1470.76 460.32C1473.64 452.96 1481 447.68 1490.28 447.68C1501.96 447.68 1510.28 455.36 1510.28 468C1510.28 480.64 1501.96 488.16 1490.12 488.16C1480.84 488.16 1472.2 483.2 1469.8 472.32L1448.52 474.72C1451.72 492 1466.12 506.24 1489.8 506.24C1514.28 506.24 1531.72 492 1531.72 468C1531.72 444 1515.56 429.76 1495.24 429.76C1483.72 429.76 1475.4 434.72 1471.72 440L1471.4 439.84L1475.24 410.4H1525.96ZM952.309 580.32L974.709 576C969.589 554.24 954.389 544.8 931.989 544.8C907.029 544.8 889.269 559.84 889.269 579.04C889.269 596.16 900.789 607.04 919.029 610.56L937.589 614.08C945.589 615.52 950.709 620 950.709 627.68C950.709 635.68 943.669 641.76 932.629 641.76C921.749 641.76 913.109 637.28 908.949 622.88L886.389 627.36C891.509 649.12 907.829 661.92 932.789 661.92C959.349 661.92 975.989 647.84 975.989 627.36C975.989 608.64 964.309 597.12 945.429 593.6L926.869 590.08C920.789 588.96 914.709 585.28 914.709 578.24C914.709 569.44 923.829 564.8 932.469 564.8C941.589 564.8 949.589 568.64 952.309 580.32ZM1054.55 628V607.52C1054.55 588.96 1039.51 577.44 1019.19 577.44C999.672 577.44 984.312 588.48 981.752 605.76L1003.35 607.52C1003.99 598.88 1010.71 594.88 1018.71 594.88C1027.19 594.88 1031.83 599.52 1031.83 604.64C1031.83 608 1029.91 609.92 1025.11 610.72L1005.91 613.92C991.032 616.32 981.112 624.8 981.112 637.92C981.112 652 993.112 662.24 1010.23 662.24C1020.79 662.24 1028.31 656.8 1033.43 647.84H1033.75C1033.75 651.68 1034.39 657.44 1035.35 660H1057.75C1055.51 649.76 1054.55 638.24 1054.55 628ZM1003.83 637.12C1003.83 631.68 1007.99 629.28 1014.07 628L1025.91 625.44C1028.47 624.96 1030.23 624.48 1031.51 623.2H1031.83V627.68C1031.83 638.56 1024.15 645.28 1014.23 645.28C1007.83 645.28 1003.83 642.24 1003.83 637.12ZM1065.77 660H1088.81V613.12C1088.81 603.52 1095.85 596.32 1104.81 596.32C1113.77 596.32 1119.53 602.88 1119.53 612.48V660H1142.57V608.32C1142.57 588.16 1129.77 577.12 1112.49 577.12C1101.61 577.12 1092.65 583.04 1088.33 590.72H1088.01C1088.33 588.16 1088.81 582.88 1088.81 579.68V579.36H1065.77V660ZM1197.93 604.32L1218.73 600.48C1215.05 585.44 1203.21 577.12 1184.65 577.12C1166.09 577.12 1152.81 588.16 1152.81 603.36C1152.81 616.8 1162.89 624.64 1175.37 627.04L1189.77 629.76C1194.89 630.72 1197.93 632.48 1197.93 636.64C1197.93 641.12 1194.09 644.32 1186.73 644.32C1179.69 644.32 1174.41 641.44 1171.85 633.76L1150.89 637.6C1154.09 651.68 1166.57 662.24 1186.73 662.24C1205.93 662.24 1219.69 652.32 1219.69 636.32C1219.69 622.88 1210.41 614.24 1196.33 611.52L1181.93 608.8C1177.93 608 1174.57 606.4 1174.57 602.24C1174.57 597.76 1179.37 594.72 1184.97 594.72C1191.69 594.72 1196.49 597.28 1197.93 604.32ZM1262.98 547.36V660H1286.34V576.8L1336.1 660H1363.3V547.36H1339.94V624.8L1294.02 547.36H1262.98ZM1375.46 597.92C1375.46 616.32 1389.7 629.28 1408.74 629.28C1427.78 629.28 1442.02 616.32 1442.02 597.92C1442.02 579.52 1427.78 566.56 1408.74 566.56C1389.7 566.56 1375.46 579.52 1375.46 597.92ZM1377.86 660H1439.62V642.08H1377.86V660ZM1394.66 597.92C1394.66 589.76 1400.42 583.84 1408.74 583.84C1417.06 583.84 1422.82 589.76 1422.82 597.92C1422.82 606.08 1417.06 612 1408.74 612C1400.1 612 1394.66 606.08 1394.66 597.92ZM1526.12 567.84V547.36H1457.48L1448.52 611.52L1471.72 616.8C1474.44 609.76 1481.48 604.8 1490.12 604.8C1501 604.8 1508.84 612 1508.84 624C1508.84 636 1501 643.04 1489.96 643.04C1481.64 643.04 1473.16 638.4 1470.92 627.68L1448.04 630.24C1451.24 647.84 1465.64 662.24 1489.64 662.24C1514.44 662.24 1531.88 648.16 1531.88 624C1531.88 599.84 1515.56 585.76 1495.56 585.76C1484.2 585.76 1476.2 590.72 1472.84 595.2L1472.52 595.04L1476.04 567.84H1526.12Z" fill="black"/>
<path d="M67.176 95.128C64.896 95.128 63.528 93.832 63.336 91.72L60.864 92.008C61.104 95.104 63.504 97.36 67.152 97.36C70.8 97.36 73.008 95.32 73.008 92.416C73.008 90.52 71.904 88.936 69.96 88.312V88.264C71.424 87.592 72.48 86.368 72.48 84.52C72.48 81.736 70.32 79.744 66.96 79.744C63.72 79.744 61.248 81.904 61.08 84.856L63.552 85.168C63.672 83.176 65.016 81.952 66.96 81.952C68.784 81.952 69.96 83.032 69.96 84.76C69.96 86.44 68.736 87.256 67.152 87.256H65.592V89.44H67.368C69.192 89.44 70.488 90.472 70.488 92.224C70.488 94.072 69.192 95.128 67.176 95.128ZM81.5768 97.36C86.1128 97.36 88.2248 93.496 88.2248 88.552C88.2248 83.584 86.1128 79.744 81.5768 79.744C77.0648 79.744 74.9288 83.584 74.9288 88.552C74.9288 93.496 77.0648 97.36 81.5768 97.36ZM77.4967 88.552C77.4967 84.856 78.6488 81.928 81.5768 81.928C84.5048 81.928 85.6808 84.856 85.6808 88.552C85.6808 92.248 84.5048 95.176 81.5768 95.176C78.6488 95.176 77.4967 92.248 77.4967 88.552ZM96.7877 97.36C101.324 97.36 103.436 93.496 103.436 88.552C103.436 83.584 101.324 79.744 96.7877 79.744C92.2757 79.744 90.1397 83.584 90.1397 88.552C90.1397 93.496 92.2757 97.36 96.7877 97.36ZM92.7077 88.552C92.7077 84.856 93.8597 81.928 96.7877 81.928C99.7157 81.928 100.892 84.856 100.892 88.552C100.892 92.248 99.7157 95.176 96.7877 95.176C93.8597 95.176 92.7077 92.248 92.7077 88.552Z" fill="black"/>
<path d="M67.176 251.128C64.896 251.128 63.528 249.832 63.336 247.72L60.864 248.008C61.104 251.104 63.504 253.36 67.152 253.36C70.8 253.36 73.008 251.32 73.008 248.416C73.008 246.52 71.904 244.936 69.96 244.312V244.264C71.424 243.592 72.48 242.368 72.48 240.52C72.48 237.736 70.32 235.744 66.96 235.744C63.72 235.744 61.248 237.904 61.08 240.856L63.552 241.168C63.672 239.176 65.016 237.952 66.96 237.952C68.784 237.952 69.96 239.032 69.96 240.76C69.96 242.44 68.736 243.256 67.152 243.256H65.592V245.44H67.368C69.192 245.44 70.488 246.472 70.488 248.224C70.488 250.072 69.192 251.128 67.176 251.128ZM86.2808 238.36V236.104H76.3208L74.9288 245.608L77.6408 246.256C78.1448 245.008 79.3448 244 81.0968 244C83.1608 244 84.5768 245.44 84.5768 247.6C84.5768 249.736 83.1608 251.176 81.0008 251.176C79.2248 251.176 77.8808 250.216 77.4248 248.512L74.8808 248.8C75.4328 251.272 77.5448 253.336 80.9768 253.336C84.5048 253.336 87.0968 251.128 87.0968 247.6C87.0968 244.048 84.7448 241.864 81.5768 241.864C79.7768 241.864 78.3608 242.632 77.6648 243.784L77.6168 243.76L78.3608 238.36H86.2808ZM95.5689 253.36C100.105 253.36 102.217 249.496 102.217 244.552C102.217 239.584 100.105 235.744 95.5689 235.744C91.0569 235.744 88.9209 239.584 88.9209 244.552C88.9209 249.496 91.0569 253.36 95.5689 253.36ZM91.4889 244.552C91.4889 240.856 92.6409 237.928 95.5689 237.928C98.4969 237.928 99.6729 240.856 99.6729 244.552C99.6729 248.248 98.4969 251.176 95.5689 251.176C92.6409 251.176 91.4889 248.248 91.4889 244.552Z" fill="black"/>
<path d="M68.976 392.104L60.816 402.52V404.8H69.552V409H72.048V404.8H74.544V402.52H72.024V392.104H68.976ZM63.528 402.52V402.472L69.528 394.792H69.576V402.52H63.528ZM82.7721 409.36C87.3081 409.36 89.4201 405.496 89.4201 400.552C89.4201 395.584 87.3081 391.744 82.7721 391.744C78.2601 391.744 76.1241 395.584 76.1241 400.552C76.1241 405.496 78.2601 409.36 82.7721 409.36ZM78.6921 400.552C78.6921 396.856 79.8441 393.928 82.7721 393.928C85.7001 393.928 86.8761 396.856 86.8761 400.552C86.8761 404.248 85.7001 407.176 82.7721 407.176C79.8441 407.176 78.6921 404.248 78.6921 400.552ZM97.983 409.36C102.519 409.36 104.631 405.496 104.631 400.552C104.631 395.584 102.519 391.744 97.983 391.744C93.471 391.744 91.335 395.584 91.335 400.552C91.335 405.496 93.471 409.36 97.983 409.36ZM93.903 400.552C93.903 396.856 95.055 393.928 97.983 393.928C100.911 393.928 102.087 396.856 102.087 400.552C102.087 404.248 100.911 407.176 97.983 407.176C95.055 407.176 93.903 404.248 93.903 400.552Z" fill="black"/>
<path d="M68.976 548.104L60.816 558.52V560.8H69.552V565H72.048V560.8H74.544V558.52H72.024V548.104H68.976ZM63.528 558.52V558.472L69.528 550.792H69.576V558.52H63.528ZM87.4761 550.36V548.104H77.5161L76.1241 557.608L78.8361 558.256C79.3401 557.008 80.5401 556 82.2921 556C84.3561 556 85.7721 557.44 85.7721 559.6C85.7721 561.736 84.3561 563.176 82.1961 563.176C80.4201 563.176 79.0761 562.216 78.6201 560.512L76.0761 560.8C76.6281 563.272 78.7401 565.336 82.1721 565.336C85.7001 565.336 88.2921 563.128 88.2921 559.6C88.2921 556.048 85.9401 553.864 82.7721 553.864C80.9721 553.864 79.5561 554.632 78.8601 555.784L78.8121 555.76L79.5561 550.36H87.4761ZM96.7643 565.36C101.3 565.36 103.412 561.496 103.412 556.552C103.412 551.584 101.3 547.744 96.7643 547.744C92.2523 547.744 90.1163 551.584 90.1163 556.552C90.1163 561.496 92.2523 565.36 96.7643 565.36ZM92.6842 556.552C92.6842 552.856 93.8363 549.928 96.7643 549.928C99.6923 549.928 100.868 552.856 100.868 556.552C100.868 560.248 99.6923 563.176 96.7643 563.176C93.8363 563.176 92.6842 560.248 92.6842 556.552Z" fill="black"/>
<path d="M838.312 82.36V80.104H828.352L826.96 89.608L829.672 90.256C830.176 89.008 831.376 88 833.128 88C835.192 88 836.608 89.44 836.608 91.6C836.608 93.736 835.192 95.176 833.032 95.176C831.256 95.176 829.912 94.216 829.456 92.512L826.912 92.8C827.464 95.272 829.576 97.336 833.008 97.336C836.536 97.336 839.128 95.128 839.128 91.6C839.128 88.048 836.776 85.864 833.608 85.864C831.808 85.864 830.392 86.632 829.696 87.784L829.648 87.76L830.392 82.36H838.312ZM852.304 82.36V80.104H842.344L840.952 89.608L843.664 90.256C844.168 89.008 845.368 88 847.12 88C849.184 88 850.6 89.44 850.6 91.6C850.6 93.736 849.184 95.176 847.024 95.176C845.248 95.176 843.904 94.216 843.448 92.512L840.904 92.8C841.456 95.272 843.568 97.336 847 97.336C850.528 97.336 853.12 95.128 853.12 91.6C853.12 88.048 850.768 85.864 847.6 85.864C845.8 85.864 844.384 86.632 843.688 87.784L843.64 87.76L844.384 82.36H852.304ZM861.592 97.36C866.128 97.36 868.24 93.496 868.24 88.552C868.24 83.584 866.128 79.744 861.592 79.744C857.08 79.744 854.944 83.584 854.944 88.552C854.944 93.496 857.08 97.36 861.592 97.36ZM857.512 88.552C857.512 84.856 858.664 81.928 861.592 81.928C864.52 81.928 865.696 84.856 865.696 88.552C865.696 92.248 864.52 95.176 861.592 95.176C858.664 95.176 857.512 92.248 857.512 88.552Z" fill="black"/>
<path d="M837.184 240.544L839.584 240.256C839.224 237.88 837.592 235.744 834.04 235.744C829.528 235.744 827.008 239.416 827.008 244.912V244.984C827.008 250.744 830.104 253.36 833.8 253.36C837.112 253.36 839.752 250.96 839.752 247.6C839.752 244.288 837.304 241.888 834.184 241.888C831.808 241.888 830.2 243.232 829.552 244.864H829.504C829.48 240.424 831.328 237.904 833.992 237.904C835.888 237.904 836.848 239.008 837.184 240.544ZM830.152 247.6C830.152 245.488 831.664 244.024 833.704 244.024C835.744 244.024 837.256 245.488 837.256 247.6C837.256 249.736 835.744 251.176 833.704 251.176C831.664 251.176 830.152 249.736 830.152 247.6ZM848.186 253.36C852.722 253.36 854.834 249.496 854.834 244.552C854.834 239.584 852.722 235.744 848.186 235.744C843.674 235.744 841.538 239.584 841.538 244.552C841.538 249.496 843.674 253.36 848.186 253.36ZM844.106 244.552C844.106 240.856 845.258 237.928 848.186 237.928C851.114 237.928 852.29 240.856 852.29 244.552C852.29 248.248 851.114 251.176 848.186 251.176C845.258 251.176 844.106 248.248 844.106 244.552ZM863.397 253.36C867.933 253.36 870.045 249.496 870.045 244.552C870.045 239.584 867.933 235.744 863.397 235.744C858.885 235.744 856.749 239.584 856.749 244.552C856.749 249.496 858.885 253.36 863.397 253.36ZM859.317 244.552C859.317 240.856 860.469 237.928 863.397 237.928C866.325 237.928 867.501 240.856 867.501 244.552C867.501 248.248 866.325 251.176 863.397 251.176C860.469 251.176 859.317 248.248 859.317 244.552Z" fill="black"/>
<path d="M837.184 396.544L839.584 396.256C839.224 393.88 837.592 391.744 834.04 391.744C829.528 391.744 827.008 395.416 827.008 400.912V400.984C827.008 406.744 830.104 409.36 833.8 409.36C837.112 409.36 839.752 406.96 839.752 403.6C839.752 400.288 837.304 397.888 834.184 397.888C831.808 397.888 830.2 399.232 829.552 400.864H829.504C829.48 396.424 831.328 393.904 833.992 393.904C835.888 393.904 836.848 395.008 837.184 396.544ZM830.152 403.6C830.152 401.488 831.664 400.024 833.704 400.024C835.744 400.024 837.256 401.488 837.256 403.6C837.256 405.736 835.744 407.176 833.704 407.176C831.664 407.176 830.152 405.736 830.152 403.6ZM852.89 394.36V392.104H842.93L841.538 401.608L844.25 402.256C844.754 401.008 845.954 400 847.706 400C849.77 400 851.186 401.44 851.186 403.6C851.186 405.736 849.77 407.176 847.61 407.176C845.834 407.176 844.49 406.216 844.034 404.512L841.49 404.8C842.042 407.272 844.154 409.336 847.586 409.336C851.114 409.336 853.706 407.128 853.706 403.6C853.706 400.048 851.354 397.864 848.186 397.864C846.386 397.864 844.97 398.632 844.274 399.784L844.226 399.76L844.97 394.36H852.89ZM862.178 409.36C866.714 409.36 868.826 405.496 868.826 400.552C868.826 395.584 866.714 391.744 862.178 391.744C857.666 391.744 855.53 395.584 855.53 400.552C855.53 405.496 857.666 409.36 862.178 409.36ZM858.098 400.552C858.098 396.856 859.25 393.928 862.178 393.928C865.106 393.928 866.282 396.856 866.282 400.552C866.282 404.248 865.106 407.176 862.178 407.176C859.25 407.176 858.098 404.248 858.098 400.552Z" fill="black"/>
<path d="M826.672 548.104V550.36H835.864V550.408C832.192 553.936 829.792 559.264 829.576 565H832.288C832.408 559.24 834.64 554.296 839.128 550.48V548.104H826.672ZM846.944 565.36C851.48 565.36 853.592 561.496 853.592 556.552C853.592 551.584 851.48 547.744 846.944 547.744C842.432 547.744 840.296 551.584 840.296 556.552C840.296 561.496 842.432 565.36 846.944 565.36ZM842.864 556.552C842.864 552.856 844.016 549.928 846.944 549.928C849.872 549.928 851.048 552.856 851.048 556.552C851.048 560.248 849.872 563.176 846.944 563.176C844.016 563.176 842.864 560.248 842.864 556.552ZM862.155 565.36C866.691 565.36 868.803 561.496 868.803 556.552C868.803 551.584 866.691 547.744 862.155 547.744C857.643 547.744 855.507 551.584 855.507 556.552C855.507 561.496 857.643 565.36 862.155 565.36ZM858.075 556.552C858.075 552.856 859.227 549.928 862.155 549.928C865.083 549.928 866.259 552.856 866.259 556.552C866.259 560.248 865.083 563.176 862.155 563.176C859.227 563.176 858.075 560.248 858.075 556.552Z" fill="black"/>
<path d="M72.312 706.36V704.104H62.352L60.96 713.608L63.672 714.256C64.176 713.008 65.376 712 67.128 712C69.192 712 70.608 713.44 70.608 715.6C70.608 717.736 69.192 719.176 67.032 719.176C65.256 719.176 63.912 718.216 63.456 716.512L60.912 716.8C61.464 719.272 63.576 721.336 67.008 721.336C70.536 721.336 73.128 719.128 73.128 715.6C73.128 712.048 70.776 709.864 67.608 709.864C65.808 709.864 64.392 710.632 63.696 711.784L63.648 711.76L64.392 706.36H72.312ZM81.6002 721.36C86.1362 721.36 88.2482 717.496 88.2482 712.552C88.2482 707.584 86.1362 703.744 81.6002 703.744C77.0882 703.744 74.9522 707.584 74.9522 712.552C74.9522 717.496 77.0882 721.36 81.6002 721.36ZM77.5202 712.552C77.5202 708.856 78.6722 705.928 81.6002 705.928C84.5282 705.928 85.7042 708.856 85.7042 712.552C85.7042 716.248 84.5282 719.176 81.6002 719.176C78.6722 719.176 77.5202 716.248 77.5202 712.552ZM96.8111 721.36C101.347 721.36 103.459 717.496 103.459 712.552C103.459 707.584 101.347 703.744 96.8111 703.744C92.2991 703.744 90.1631 707.584 90.1631 712.552C90.1631 717.496 92.2991 721.36 96.8111 721.36ZM92.7311 712.552C92.7311 708.856 93.8831 705.928 96.8111 705.928C99.7391 705.928 100.915 708.856 100.915 712.552C100.915 716.248 99.7391 719.176 96.8111 719.176C93.8831 719.176 92.7311 716.248 92.7311 712.552Z" fill="black"/>
<path d="M884.6 747.84V776H887.64V751.76L897.32 776H900.8L910.48 751.76V776H913.48V747.84H908.84L899.04 772.8L889.24 747.84H884.6ZM929.173 776.56C934.893 776.56 939.373 772.28 939.373 765.92C939.373 759.56 934.893 755.28 929.173 755.28C923.413 755.28 918.973 759.56 918.973 765.92C918.973 772.28 923.413 776.56 929.173 776.56ZM922.013 765.92C922.013 761.32 925.013 758 929.173 758C933.333 758 936.333 761.32 936.333 765.92C936.333 770.52 933.333 773.84 929.173 773.84C925.013 773.84 922.013 770.52 922.013 765.92ZM944.275 776H947.235V764.8C947.235 760.88 949.595 758.52 952.915 758.52H955.235V755.84H952.915C949.995 755.84 948.235 757.32 947.275 759.48H947.195V756.16V755.84H944.275V776ZM967.531 776.56C972.371 776.56 975.291 773.8 976.291 770.84L973.371 770.48C972.691 772.28 970.771 773.96 967.571 773.96C963.491 773.96 960.571 771.16 960.411 766.44H976.371C976.411 765.96 976.411 765.6 976.411 765.24C976.411 759.04 972.651 755.28 967.131 755.28C961.491 755.28 957.371 759.64 957.371 765.96C957.371 772.32 961.571 776.56 967.531 776.56ZM960.571 763.92C960.971 760.96 963.251 757.88 967.171 757.88C971.091 757.88 973.291 760.84 973.371 763.92H960.571ZM989.508 755.84H992.628L997.628 772.8H997.708L1002.51 755.84H1005.87L1010.75 772.8H1010.83L1015.75 755.84H1018.87L1012.59 776H1009.07L1004.23 759.2H1004.15L999.348 776H995.828L989.508 755.84ZM1031.71 776.56C1036.55 776.56 1039.47 773.8 1040.47 770.84L1037.55 770.48C1036.87 772.28 1034.95 773.96 1031.75 773.96C1027.67 773.96 1024.75 771.16 1024.59 766.44H1040.55C1040.59 765.96 1040.59 765.6 1040.59 765.24C1040.59 759.04 1036.83 755.28 1031.31 755.28C1025.67 755.28 1021.55 759.64 1021.55 765.96C1021.55 772.32 1025.75 776.56 1031.71 776.56ZM1024.75 763.92C1025.15 760.96 1027.43 757.88 1031.35 757.88C1035.27 757.88 1037.47 760.84 1037.55 763.92H1024.75ZM1045.53 755.84V776H1048.49V755.84H1045.53ZM1045.25 751.48H1048.77V747.84H1045.25V751.48ZM1063.51 784.4C1069.19 784.4 1072.95 781.4 1072.95 775.32V755.84H1069.99V756.64V759.16H1069.91C1068.67 756.8 1066.23 755.28 1062.99 755.28C1057.43 755.28 1053.39 759.6 1053.39 765.56C1053.39 771.56 1057.43 775.68 1062.99 775.68C1066.15 775.68 1068.67 774.16 1069.91 771.68H1069.99V775.72C1069.99 779.76 1067.47 781.8 1063.55 781.8C1060.15 781.8 1057.87 780.28 1056.87 777.44L1053.99 778.16C1055.11 781.64 1058.39 784.4 1063.51 784.4ZM1056.43 765.56C1056.43 761.04 1059.39 757.96 1063.27 757.96C1067.15 757.96 1070.07 761.04 1070.07 765.56C1070.07 770.12 1067.15 773.12 1063.27 773.12C1059.39 773.12 1056.43 770.12 1056.43 765.56ZM1079.12 776H1082.08V764.92C1082.08 760.84 1084.52 757.96 1088.08 757.96C1091.52 757.96 1093.2 760.52 1093.2 763.92V776H1096.2V762.92C1096.2 758.24 1093.2 755.28 1088.76 755.28C1085.48 755.28 1083.08 757.24 1082.08 759.12H1082C1082.04 758.2 1082.08 757.36 1082.08 756.6V747.84H1079.12V776ZM1108.69 776H1111.89V773.32H1109.17C1107.57 773.32 1106.85 772.52 1106.85 771.08V758.52H1111.61V755.84H1106.85V750.24H1103.85V755.84H1099.81V758.52H1103.85V771.6C1103.85 774.76 1105.69 776 1108.69 776ZM1127.9 761.6L1130.74 761.04C1129.82 757 1126.82 755.28 1123.14 755.28C1118.98 755.28 1115.86 757.76 1115.86 761.24C1115.86 764.6 1118.26 766.08 1121.22 766.6L1124.78 767.24C1126.3 767.52 1127.98 768.6 1127.98 770.48C1127.98 772.6 1126.26 773.96 1123.58 773.96C1120.82 773.96 1118.82 772.52 1118.18 769.68L1115.3 770.24C1116.1 774.32 1119.38 776.56 1123.46 776.56C1127.7 776.56 1130.9 774.2 1130.9 770.48C1130.9 767.28 1128.5 765.16 1125.18 764.56L1121.62 763.88C1120.18 763.64 1118.78 762.88 1118.78 761.12C1118.78 759.16 1120.74 757.84 1123.14 757.84C1125.66 757.84 1127.3 759 1127.9 761.6ZM1135.68 772.12V776H1137.44L1134.72 781.24H1136.32L1139.56 775.96V772.12H1135.68ZM1164.29 784.4C1169.97 784.4 1173.73 781.4 1173.73 775.32V755.84H1170.77V756.64V759.16H1170.69C1169.45 756.8 1167.01 755.28 1163.77 755.28C1158.21 755.28 1154.17 759.6 1154.17 765.56C1154.17 771.56 1158.21 775.68 1163.77 775.68C1166.93 775.68 1169.45 774.16 1170.69 771.68H1170.77V775.72C1170.77 779.76 1168.25 781.8 1164.33 781.8C1160.93 781.8 1158.65 780.28 1157.65 777.44L1154.77 778.16C1155.89 781.64 1159.17 784.4 1164.29 784.4ZM1157.21 765.56C1157.21 761.04 1160.17 757.96 1164.05 757.96C1167.93 757.96 1170.85 761.04 1170.85 765.56C1170.85 770.12 1167.93 773.12 1164.05 773.12C1160.17 773.12 1157.21 770.12 1157.21 765.56ZM1179.9 747.84V776H1182.86V747.84H1179.9ZM1190.28 755.84L1196.64 771.6H1196.72L1203.08 755.84H1206.16L1194.52 783.84H1191.28L1195.2 775.04L1187.04 755.84H1190.28ZM1220.53 755.28C1217.05 755.28 1214.57 757 1213.33 759.32H1213.25C1213.29 758.64 1213.29 757.52 1213.29 756.68V755.84H1210.37V783.84H1213.33V775.24C1213.33 774.44 1213.33 773.28 1213.29 772.6H1213.37C1214.61 774.88 1217.05 776.56 1220.53 776.56C1226.09 776.56 1230.25 772.28 1230.25 765.92C1230.25 759.56 1226.09 755.28 1220.53 755.28ZM1213.25 765.92C1213.25 761.28 1216.05 757.96 1220.25 757.96C1224.41 757.96 1227.21 761.28 1227.21 765.92C1227.21 770.52 1224.41 773.84 1220.25 773.84C1216.05 773.84 1213.25 770.52 1213.25 765.92ZM1235.17 776H1238.13V764.92C1238.13 760.84 1240.57 757.96 1244.13 757.96C1247.57 757.96 1249.25 760.52 1249.25 763.92V776H1252.25V762.92C1252.25 758.24 1249.25 755.28 1244.81 755.28C1241.53 755.28 1239.13 757.24 1238.13 759.12H1238.05C1238.09 758.2 1238.13 757.36 1238.13 756.6V747.84H1235.17V776ZM1269.7 761.6L1272.54 761.04C1271.62 757 1268.62 755.28 1264.94 755.28C1260.78 755.28 1257.66 757.76 1257.66 761.24C1257.66 764.6 1260.06 766.08 1263.02 766.6L1266.58 767.24C1268.1 767.52 1269.78 768.6 1269.78 770.48C1269.78 772.6 1268.06 773.96 1265.38 773.96C1262.62 773.96 1260.62 772.52 1259.98 769.68L1257.1 770.24C1257.9 774.32 1261.18 776.56 1265.26 776.56C1269.5 776.56 1272.7 774.2 1272.7 770.48C1272.7 767.28 1270.3 765.16 1266.98 764.56L1263.42 763.88C1261.98 763.64 1260.58 762.88 1260.58 761.12C1260.58 759.16 1262.54 757.84 1264.94 757.84C1267.46 757.84 1269.1 759 1269.7 761.6ZM1293.68 774.04C1291.4 774.04 1289.68 772.96 1289.68 770.76C1289.68 768.8 1291.16 766.92 1296.48 766.16L1300.24 765.64V766.28C1300.24 770.56 1297.6 774.04 1293.68 774.04ZM1286.56 762L1289.52 762.28C1289.96 759.36 1292.28 757.84 1295.16 757.84C1297.96 757.84 1300.16 759.32 1300.16 762.56V763.2L1296.04 763.76C1289.08 764.68 1286.64 767.56 1286.64 770.76C1286.64 774.32 1289.48 776.56 1293.4 776.56C1297.24 776.56 1299.4 774.16 1300.4 771.96H1300.48C1300.48 772.92 1300.6 774.84 1300.92 776H1303.88C1303.32 773.72 1303.08 771.08 1303.08 768V762.64C1303.08 757.64 1299.68 755.28 1295.2 755.28C1290.68 755.28 1287.24 757.72 1286.56 762ZM1309.08 776H1312.04V764.92C1312.04 760.84 1314.64 757.96 1318.2 757.96C1321.64 757.96 1323.16 760.4 1323.16 763.92V776H1326.16V762.92C1326.16 758.24 1323.16 755.28 1318.72 755.28C1315.44 755.28 1313.04 757.24 1312.04 759.12H1311.96C1312 758.36 1312.04 757.4 1312.04 756.12V755.84H1309.08V776ZM1340.76 776.56C1344.24 776.56 1346.72 774.84 1347.92 772.52H1348C1347.96 773.24 1347.96 774.36 1347.96 775.2V776H1350.92V747.84H1347.92V756.6C1347.92 757.4 1347.92 758.56 1347.96 759.24H1347.88C1346.68 756.96 1344.2 755.28 1340.76 755.28C1335.16 755.28 1331 759.56 1331 765.92C1331 772.28 1335.12 776.56 1340.76 776.56ZM1334.04 765.92C1334.04 761.32 1336.84 758 1341.04 758C1345.2 758 1348 761.32 1348 765.92C1348 770.56 1345.2 773.88 1341.04 773.88C1336.84 773.88 1334.04 770.56 1334.04 765.92ZM884.08 795.84V816H887.04V795.84H884.08ZM883.8 791.48H887.32V787.84H883.8V791.48ZM900.062 816H903.262V813.32H900.542C898.942 813.32 898.222 812.52 898.222 811.08V798.52H902.982V795.84H898.222V790.24H895.222V795.84H891.182V798.52H895.222V811.6C895.222 814.76 897.062 816 900.062 816ZM914.068 814.04C911.788 814.04 910.068 812.96 910.068 810.76C910.068 808.8 911.548 806.92 916.868 806.16L920.628 805.64V806.28C920.628 810.56 917.988 814.04 914.068 814.04ZM906.948 802L909.908 802.28C910.348 799.36 912.668 797.84 915.548 797.84C918.348 797.84 920.548 799.32 920.548 802.56V803.2L916.428 803.76C909.468 804.68 907.028 807.56 907.028 810.76C907.028 814.32 909.868 816.56 913.788 816.56C917.628 816.56 919.788 814.16 920.788 811.96H920.868C920.868 812.92 920.988 814.84 921.308 816H924.268C923.708 813.72 923.468 811.08 923.468 808V802.64C923.468 797.64 920.068 795.28 915.588 795.28C911.068 795.28 907.628 797.72 906.948 802ZM929.471 787.84V816H932.431V787.84H929.471ZM938.572 795.84V816H941.532V795.84H938.572ZM938.292 791.48H941.812V787.84H938.292V791.48ZM956.674 816.56C961.514 816.56 964.834 813.68 965.674 809.52L962.754 809.16C962.034 811.96 960.114 813.84 956.674 813.84C952.594 813.84 949.474 810.56 949.474 805.92C949.474 801.28 952.434 798 956.554 798C959.914 798 961.994 799.84 962.714 802.56L965.634 802.2C964.794 798.04 961.314 795.28 956.554 795.28C950.914 795.28 946.434 799.56 946.434 805.92C946.434 812.28 950.874 816.56 956.674 816.56ZM981.69 801.6L984.53 801.04C983.61 797 980.61 795.28 976.93 795.28C972.77 795.28 969.65 797.76 969.65 801.24C969.65 804.6 972.05 806.08 975.01 806.6L978.57 807.24C980.09 807.52 981.77 808.6 981.77 810.48C981.77 812.6 980.05 813.96 977.37 813.96C974.61 813.96 972.61 812.52 971.97 809.68L969.09 810.24C969.89 814.32 973.17 816.56 977.25 816.56C981.49 816.56 984.69 814.2 984.69 810.48C984.69 807.28 982.29 805.16 978.97 804.56L975.41 803.88C973.97 803.64 972.57 802.88 972.57 801.12C972.57 799.16 974.53 797.84 976.93 797.84C979.45 797.84 981.09 799 981.69 801.6ZM1008.51 816.56C1013.35 816.56 1016.67 813.68 1017.51 809.52L1014.59 809.16C1013.87 811.96 1011.95 813.84 1008.51 813.84C1004.43 813.84 1001.31 810.56 1001.31 805.92C1001.31 801.28 1004.27 798 1008.39 798C1011.75 798 1013.83 799.84 1014.55 802.56L1017.47 802.2C1016.63 798.04 1013.15 795.28 1008.39 795.28C1002.75 795.28 998.27 799.56 998.27 805.92C998.27 812.28 1002.71 816.56 1008.51 816.56ZM1031.44 816.56C1037.16 816.56 1041.64 812.28 1041.64 805.92C1041.64 799.56 1037.16 795.28 1031.44 795.28C1025.68 795.28 1021.24 799.56 1021.24 805.92C1021.24 812.28 1025.68 816.56 1031.44 816.56ZM1024.28 805.92C1024.28 801.32 1027.28 798 1031.44 798C1035.6 798 1038.6 801.32 1038.6 805.92C1038.6 810.52 1035.6 813.84 1031.44 813.84C1027.28 813.84 1024.28 810.52 1024.28 805.92ZM1046.54 816H1049.5V803.64C1049.5 800.48 1051.78 797.84 1054.94 797.84C1057.78 797.84 1059.14 800.04 1059.14 803V816H1062.1V803.64C1062.1 800.48 1064.38 797.84 1067.5 797.84C1070.38 797.84 1071.7 800.04 1071.7 803V816H1074.7V802.48C1074.7 798.4 1072.22 795.28 1068.06 795.28C1064.9 795.28 1062.7 797.2 1061.54 799.16H1061.46C1060.62 797 1058.78 795.28 1055.62 795.28C1052.46 795.28 1050.5 797.16 1049.58 798.8H1049.5V796.44V795.84H1046.54V816ZM1080.76 795.84V816H1083.72V795.84H1080.76ZM1080.48 791.48H1084V787.84H1080.48V791.48ZM1089.86 816H1092.82V804.92C1092.82 800.84 1095.42 797.96 1098.98 797.96C1102.42 797.96 1103.94 800.4 1103.94 803.92V816H1106.94V802.92C1106.94 798.24 1103.94 795.28 1099.5 795.28C1096.22 795.28 1093.82 797.24 1092.82 799.12H1092.74C1092.78 798.36 1092.82 797.4 1092.82 796.12V795.84H1089.86V816ZM1121.91 824.4C1127.59 824.4 1131.35 821.4 1131.35 815.32V795.84H1128.39V796.64V799.16H1128.31C1127.07 796.8 1124.63 795.28 1121.39 795.28C1115.83 795.28 1111.79 799.6 1111.79 805.56C1111.79 811.56 1115.83 815.68 1121.39 815.68C1124.55 815.68 1127.07 814.16 1128.31 811.68H1128.39V815.72C1128.39 819.76 1125.87 821.8 1121.95 821.8C1118.55 821.8 1116.27 820.28 1115.27 817.44L1112.39 818.16C1113.51 821.64 1116.79 824.4 1121.91 824.4ZM1114.83 805.56C1114.83 801.04 1117.79 797.96 1121.67 797.96C1125.55 797.96 1128.47 801.04 1128.47 805.56C1128.47 810.12 1125.55 813.12 1121.67 813.12C1117.79 813.12 1114.83 810.12 1114.83 805.56ZM1158.76 801.6L1161.6 801.04C1160.68 797 1157.68 795.28 1154 795.28C1149.84 795.28 1146.72 797.76 1146.72 801.24C1146.72 804.6 1149.12 806.08 1152.08 806.6L1155.64 807.24C1157.16 807.52 1158.84 808.6 1158.84 810.48C1158.84 812.6 1157.12 813.96 1154.44 813.96C1151.68 813.96 1149.68 812.52 1149.04 809.68L1146.16 810.24C1146.96 814.32 1150.24 816.56 1154.32 816.56C1158.56 816.56 1161.76 814.2 1161.76 810.48C1161.76 807.28 1159.36 805.16 1156.04 804.56L1152.48 803.88C1151.04 803.64 1149.64 802.88 1149.64 801.12C1149.64 799.16 1151.6 797.84 1154 797.84C1156.52 797.84 1158.16 799 1158.76 801.6ZM1175.66 816.56C1181.38 816.56 1185.86 812.28 1185.86 805.92C1185.86 799.56 1181.38 795.28 1175.66 795.28C1169.9 795.28 1165.46 799.56 1165.46 805.92C1165.46 812.28 1169.9 816.56 1175.66 816.56ZM1168.5 805.92C1168.5 801.32 1171.5 798 1175.66 798C1179.82 798 1182.82 801.32 1182.82 805.92C1182.82 810.52 1179.82 813.84 1175.66 813.84C1171.5 813.84 1168.5 810.52 1168.5 805.92ZM1200.03 816.56C1205.75 816.56 1210.23 812.28 1210.23 805.92C1210.23 799.56 1205.75 795.28 1200.03 795.28C1194.27 795.28 1189.83 799.56 1189.83 805.92C1189.83 812.28 1194.27 816.56 1200.03 816.56ZM1192.87 805.92C1192.87 801.32 1195.87 798 1200.03 798C1204.19 798 1207.19 801.32 1207.19 805.92C1207.19 810.52 1204.19 813.84 1200.03 813.84C1195.87 813.84 1192.87 810.52 1192.87 805.92ZM1215.13 816H1218.09V804.92C1218.09 800.84 1220.69 797.96 1224.25 797.96C1227.69 797.96 1229.21 800.4 1229.21 803.92V816H1232.21V802.92C1232.21 798.24 1229.21 795.28 1224.77 795.28C1221.49 795.28 1219.09 797.24 1218.09 799.12H1218.01C1218.05 798.36 1218.09 797.4 1218.09 796.12V795.84H1215.13V816ZM1261.82 816.56C1269.9 816.56 1276.5 810.04 1276.5 801.92C1276.5 793.8 1269.9 787.28 1261.82 787.28C1253.74 787.28 1247.18 793.8 1247.18 801.92C1247.18 810.04 1253.74 816.56 1261.82 816.56ZM1249.7 801.92C1249.7 795.2 1255.14 789.76 1261.82 789.76C1268.54 789.76 1273.94 795.2 1273.94 801.92C1273.94 808.68 1268.54 814.12 1261.82 814.12C1255.14 814.12 1249.7 808.68 1249.7 801.92ZM1254.54 805.84L1256.02 804.64C1257.46 806.64 1259.5 807.52 1261.82 807.52C1264.14 807.52 1266.22 806.64 1267.66 804.64L1269.14 805.84C1267.34 808.36 1264.7 809.52 1261.82 809.52C1258.94 809.52 1256.34 808.36 1254.54 805.84ZM1255.7 798.68C1255.7 799.84 1256.62 800.76 1257.78 800.76C1258.94 800.76 1259.82 799.84 1259.82 798.68C1259.82 797.56 1258.94 796.64 1257.78 796.64C1256.62 796.64 1255.7 797.56 1255.7 798.68ZM1263.82 798.68C1263.82 799.84 1264.74 800.76 1265.9 800.76C1267.06 800.76 1267.94 799.84 1267.94 798.68C1267.94 797.56 1267.06 796.64 1265.9 796.64C1264.74 796.64 1263.82 797.56 1263.82 798.68Z" fill="black"/>
</svg>
