<svg width="720" height="900" viewBox="0 0 720 900" fill="none" xmlns="http://www.w3.org/2000/svg">
<rect width="720" height="900" fill="#FFD700"/>
<path d="M83.56 69.01L89.68 67.93C86.8 55.15 78.16 50.38 67.72 50.38C55.84 50.38 46.3 57.4 46.3 67.84C46.3 78.1 53.59 82.6 62.77 84.22L73.03 86.02C78.34 86.92 84.1 90.97 84.1 97.9C84.1 105.82 78.07 110.68 68.89 110.68C59.71 110.68 53.23 105.91 50.89 96.19L44.68 97.27C47.29 110.05 56.83 116.26 68.44 116.26C81.04 116.26 90.22 108.88 90.22 97.9C90.22 88.27 83.47 81.79 73.21 79.99L63.04 78.19C57.91 77.29 52.42 74.41 52.42 67.84C52.42 60.64 59.26 55.96 67.54 55.96C76 55.96 81.49 59.74 83.56 69.01ZM135.26 83.5C135.26 74.05 128.51 68.38 118.07 68.38C108.08 68.38 100.34 74.32 99.0801 83.5L104.93 84.04C105.74 77.29 111.05 73.51 118.07 73.51C125.36 73.51 129.5 76.93 129.5 82.51C129.5 85.39 127.97 86.47 125.18 87.01L112.58 89.44C104.48 90.97 98.7201 95.11 98.7201 102.85C98.7201 111.49 105.74 116.26 114.47 116.26C121.4 116.26 126.62 112.66 129.5 107.44H129.68V115H135.26V83.5ZM104.57 102.85C104.57 98.17 108.17 95.29 114.65 94.03L125.54 91.96C127.52 91.6 128.6 90.88 129.41 90.07H129.68V96.1C129.68 104.38 123.74 111.04 114.65 111.04C108.62 111.04 104.57 108.25 104.57 102.85ZM148.408 115H154.258V90.25C154.258 80.53 160.288 73.78 168.748 73.78C176.848 73.78 180.358 79.45 180.358 87.73V115H186.208V85.57C186.208 75.13 179.548 68.38 169.468 68.38C161.908 68.38 156.508 72.97 154.258 77.2H154.078C154.168 75.4 154.258 73.42 154.258 70.36V69.64H148.408V115ZM225.279 82.42L230.859 81.34C228.879 72.16 222.039 68.38 214.119 68.38C204.939 68.38 197.919 73.87 197.919 81.61C197.919 89.17 203.319 92.32 209.889 93.49L217.899 94.93C221.409 95.56 225.459 98.17 225.459 102.67C225.459 107.8 221.319 111.04 215.019 111.04C208.539 111.04 203.769 107.53 202.329 100.87L196.659 102.04C198.459 111.4 205.929 116.26 214.749 116.26C224.109 116.26 231.219 110.95 231.219 102.67C231.219 95.56 225.819 90.79 218.439 89.44L210.429 88C207.009 87.37 203.679 85.57 203.679 81.43C203.679 76.75 208.359 73.51 214.029 73.51C220.059 73.51 223.839 76.3 225.279 82.42ZM264.565 51.64V115H270.505V58.21L307.225 115H313.885V51.64H307.945V106.36L272.665 51.64H264.565ZM321.085 83.32C321.085 93.76 328.825 100.96 338.455 100.96C348.085 100.96 355.825 93.76 355.825 83.32C355.825 72.88 348.085 65.68 338.455 65.68C328.825 65.68 321.085 72.88 321.085 83.32ZM322.075 115H354.835V109.6H322.075V115ZM326.755 83.32C326.755 76.03 331.795 71.08 338.455 71.08C345.115 71.08 350.155 76.03 350.155 83.32C350.155 90.61 345.115 95.56 338.455 95.56C331.795 95.56 326.755 90.61 326.755 83.32ZM406.047 57.04V51.64H369.867L364.467 86.92L371.847 88.72C374.007 83.32 379.047 78.64 387.327 78.64C396.777 78.64 402.987 85.39 402.987 94.75C402.987 104.11 396.777 110.86 386.697 110.86C378.057 110.86 372.747 106.36 370.587 99.52L364.467 100.24C366.807 108.88 374.457 116.26 386.697 116.26C399.297 116.26 408.927 107.71 408.927 94.75C408.927 81.79 400.467 73.24 387.867 73.24C380.847 73.24 374.637 76.3 371.307 82.42L371.127 82.33L374.817 57.04H406.047ZM459.784 110.95C450.064 110.95 443.674 105.64 442.774 96.19L437.014 96.91C437.914 108.61 447.184 116.35 459.604 116.35C471.844 116.35 480.574 109.15 480.574 97.99C480.574 90.43 475.894 84.67 469.054 82.51V82.33C474.364 79.99 478.774 75.13 478.774 68.29C478.774 57.49 470.584 50.29 458.884 50.29C447.454 50.29 438.634 58.21 438.094 69.19L443.854 69.91C444.394 61.18 450.334 55.69 459.064 55.69C467.884 55.69 472.924 60.91 472.924 68.47C472.924 76.03 467.704 79.9 460.504 79.9H453.574V85.3H461.224C469.144 85.3 474.724 90.07 474.724 97.99C474.724 105.91 469.144 110.95 459.784 110.95ZM511.729 116.35C527.749 116.35 535.129 101.86 535.129 83.32C535.129 64.78 527.749 50.29 511.729 50.29C495.709 50.29 488.329 64.78 488.329 83.32C488.329 101.86 495.709 116.35 511.729 116.35ZM494.179 83.32C494.179 68.02 499.489 55.69 511.729 55.69C523.969 55.69 529.279 68.02 529.279 83.32C529.279 98.62 523.969 110.95 511.729 110.95C499.489 110.95 494.179 98.62 494.179 83.32ZM566.288 116.35C582.308 116.35 589.688 101.86 589.688 83.32C589.688 64.78 582.308 50.29 566.288 50.29C550.268 50.29 542.888 64.78 542.888 83.32C542.888 101.86 550.268 116.35 566.288 116.35ZM548.738 83.32C548.738 68.02 554.048 55.69 566.288 55.69C578.528 55.69 583.838 68.02 583.838 83.32C583.838 98.62 578.528 110.95 566.288 110.95C554.048 110.95 548.738 98.62 548.738 83.32ZM83.11 160.19L90.04 158.93C87.16 146.15 78.52 141.38 67.81 141.38C55.66 141.38 46.12 148.58 46.12 159.02C46.12 169.19 53.23 173.96 62.59 175.58L72.85 177.38C78.07 178.28 83.47 182.15 83.47 188.72C83.47 196.28 77.71 200.96 68.89 200.96C60.07 200.96 53.86 196.46 51.52 186.92L44.5 188.18C47.11 200.87 56.56 207.26 68.53 207.26C81.4 207.26 90.58 199.79 90.58 188.72C90.58 179 83.92 172.52 73.57 170.72L63.4 168.83C58.45 168.02 53.23 165.23 53.23 159.02C53.23 152.09 59.89 147.68 67.72 147.68C75.73 147.68 81.13 151.19 83.11 160.19ZM135.706 174.77C135.706 165.14 128.776 159.38 118.246 159.38C108.076 159.38 100.246 165.41 98.9859 174.59L105.646 175.22C106.366 168.74 111.496 165.14 118.156 165.14C125.176 165.14 129.136 168.47 129.136 173.69C129.136 176.39 127.606 177.47 124.816 178.01L112.486 180.35C104.386 181.88 98.6259 186.11 98.6259 193.85C98.6259 202.4 105.556 207.26 114.466 207.26C121.216 207.26 126.346 203.75 129.136 198.62H129.316V206H135.706V174.77ZM105.286 193.76C105.286 189.26 108.796 186.56 114.826 185.39L125.266 183.41C127.156 183.05 128.236 182.42 129.046 181.61H129.226V187.19C129.226 195.2 123.556 201.5 114.916 201.5C109.156 201.5 105.286 198.8 105.286 193.76ZM148.314 206H154.974V181.07C154.974 171.89 160.824 165.41 168.834 165.41C176.574 165.41 179.994 170.9 179.994 178.82V206H186.744V176.57C186.744 166.04 179.994 159.38 170.004 159.38C162.624 159.38 157.224 163.79 154.974 168.02H154.794C154.884 166.31 154.974 164.15 154.974 161.27V160.64H148.314V206ZM225.093 173.6L231.483 172.34C229.413 163.25 222.663 159.38 214.383 159.38C205.023 159.38 198.003 164.96 198.003 172.79C198.003 180.35 203.403 183.68 210.063 184.85L218.073 186.29C221.493 186.92 225.273 189.35 225.273 193.58C225.273 198.35 221.403 201.41 215.373 201.41C209.163 201.41 204.663 198.17 203.223 191.78L196.743 193.04C198.543 202.22 205.923 207.26 215.103 207.26C224.643 207.26 231.843 201.95 231.843 193.58C231.843 186.38 226.443 181.61 218.973 180.26L210.963 178.73C207.723 178.19 204.573 176.48 204.573 172.52C204.573 168.11 208.983 165.14 214.383 165.14C220.053 165.14 223.743 167.75 225.093 173.6ZM264.557 142.64V206H271.397V150.47L307.037 206H314.777V142.64H307.937V195.92L273.827 142.64H264.557ZM321.977 173.87C321.977 184.31 329.717 191.51 339.527 191.51C349.247 191.51 356.987 184.31 356.987 173.87C356.987 163.52 349.247 156.23 339.527 156.23C329.717 156.23 321.977 163.52 321.977 173.87ZM322.967 206H355.997V199.97H322.967V206ZM328.277 173.87C328.277 166.94 333.047 162.17 339.527 162.17C345.917 162.17 350.687 166.94 350.687 173.87C350.687 180.89 345.917 185.57 339.527 185.57C333.047 185.57 328.277 180.89 328.277 173.87ZM407.104 148.76V142.64H370.564L365.254 178.01L373.354 179.99C375.424 174.77 380.284 170.27 388.204 170.27C397.204 170.27 403.234 176.75 403.234 185.75C403.234 194.75 397.204 201.14 387.574 201.14C379.474 201.14 374.254 196.91 372.184 190.16L365.254 190.97C367.504 199.79 375.154 207.26 387.574 207.26C400.354 207.26 409.984 198.8 409.984 185.75C409.984 172.7 401.434 164.24 389.014 164.24C382.084 164.24 376.054 167.3 372.904 172.97L372.724 172.88L376.234 148.76H407.104ZM460.663 201.23C451.303 201.23 445.183 196.01 444.373 186.92L437.713 187.73C438.613 199.43 447.793 207.35 460.573 207.35C473.173 207.35 481.723 200.06 481.723 188.99C481.723 181.52 477.223 175.67 470.293 173.51V173.33C475.603 170.9 479.923 166.13 479.923 159.29C479.923 148.58 471.733 141.29 459.853 141.29C448.243 141.29 439.333 149.3 438.703 160.28L445.363 161.09C445.903 152.63 451.573 147.41 459.943 147.41C468.313 147.41 473.173 152.36 473.173 159.65C473.173 166.85 468.133 170.54 461.203 170.54H454.543V176.66H462.013C469.573 176.66 474.973 181.16 474.973 188.81C474.973 196.46 469.573 201.23 460.663 201.23ZM530.966 148.76V142.64H494.426L489.116 178.01L497.216 179.99C499.286 174.77 504.146 170.27 512.066 170.27C521.066 170.27 527.096 176.75 527.096 185.75C527.096 194.75 521.066 201.14 511.436 201.14C503.336 201.14 498.116 196.91 496.046 190.16L489.116 190.97C491.366 199.79 499.016 207.26 511.436 207.26C524.216 207.26 533.846 198.8 533.846 185.75C533.846 172.7 525.296 164.24 512.876 164.24C505.946 164.24 499.916 167.3 496.766 172.97L496.586 172.88L500.096 148.76H530.966ZM564.359 207.35C580.649 207.35 588.119 192.86 588.119 174.32C588.119 155.78 580.649 141.29 564.359 141.29C548.159 141.29 540.599 155.78 540.599 174.32C540.599 192.86 548.159 207.35 564.359 207.35ZM547.349 174.32C547.349 159.38 552.479 147.41 564.359 147.41C576.329 147.41 581.369 159.38 581.369 174.32C581.369 189.26 576.329 201.23 564.359 201.23C552.479 201.23 547.349 189.26 547.349 174.32ZM82.66 251.28L90.4 249.84C87.52 237.24 78.88 232.29 67.9 232.29C55.48 232.29 45.85 239.67 45.85 250.2C45.85 260.37 52.96 265.23 62.41 266.94L72.67 268.83C77.8 269.64 82.84 273.33 82.84 279.63C82.84 286.65 77.35 291.15 68.89 291.15C60.52 291.15 54.4 287.01 52.06 277.65L44.23 279.09C46.93 291.78 56.38 298.26 68.62 298.26C81.76 298.26 91.03 290.7 91.03 279.54C91.03 269.73 84.28 263.25 73.93 261.36L63.67 259.56C58.99 258.75 54.04 256.05 54.04 250.11C54.04 243.45 60.43 239.31 67.9 239.31C75.46 239.31 80.77 242.73 82.66 251.28ZM136.24 265.95C136.24 256.32 129.13 250.38 118.42 250.38C108.25 250.38 100.24 256.41 98.9795 265.77L106.36 266.4C107.08 260.1 112.03 256.68 118.42 256.68C125.08 256.68 128.77 259.92 128.77 264.87C128.77 267.48 127.42 268.56 124.63 269.1L112.48 271.35C104.29 272.79 98.6195 277.11 98.6195 284.76C98.6195 293.22 105.55 298.26 114.46 298.26C121.21 298.26 126.16 294.75 128.95 289.8H129.13V297H136.24V265.95ZM106.18 284.67C106.18 280.35 109.42 277.92 115.18 276.75L124.99 274.86C126.88 274.5 127.87 273.87 128.68 273.15H128.95V278.28C128.95 286.02 123.37 291.96 115.18 291.96C109.78 291.96 106.18 289.44 106.18 284.67ZM148.129 297H155.779V271.8C155.779 263.16 161.269 257.13 168.919 257.13C176.209 257.13 179.629 262.26 179.629 269.82V297H187.279V267.66C187.279 256.95 180.529 250.38 170.539 250.38C163.339 250.38 158.029 254.61 155.689 258.93H155.509C155.599 257.22 155.779 254.97 155.779 252.18V251.64H148.129V297ZM224.819 264.69L231.929 263.34C229.949 254.34 223.109 250.38 214.559 250.38C205.109 250.38 197.999 256.05 197.999 263.97C197.999 271.53 203.399 275.04 210.149 276.21L218.159 277.65C221.489 278.28 224.999 280.53 224.999 284.49C224.999 288.9 221.309 291.78 215.549 291.78C209.699 291.78 205.379 288.81 203.939 282.69L196.739 284.13C198.539 293.13 205.919 298.26 215.369 298.26C225.089 298.26 232.379 292.86 232.379 284.4C232.379 277.2 226.979 272.43 219.509 270.99L211.409 269.55C208.349 268.92 205.379 267.39 205.379 263.7C205.379 259.56 209.519 256.68 214.559 256.68C220.049 256.68 223.559 259.11 224.819 264.69ZM264.375 233.64V297H272.115V242.73L306.585 297H315.405V233.64H307.665V285.57L274.815 233.64H264.375ZM322.515 264.51C322.515 274.95 330.345 282.15 340.245 282.15C350.145 282.15 357.975 274.95 357.975 264.51C357.975 254.07 350.145 246.87 340.245 246.87C330.345 246.87 322.515 254.07 322.515 264.51ZM323.595 297H356.895V290.43H323.595V297ZM329.535 264.51C329.535 257.85 334.125 253.35 340.245 253.35C346.455 253.35 351.045 257.85 351.045 264.51C351.045 271.08 346.455 275.67 340.245 275.67C334.035 275.67 329.535 271.08 329.535 264.51ZM407.897 240.57V233.64H371.087L365.777 269.1L374.597 271.17C376.577 266.13 381.347 261.99 388.727 261.99C397.367 261.99 403.127 268.02 403.127 276.75C403.127 285.48 397.367 291.51 388.277 291.51C380.627 291.51 375.407 287.46 373.517 280.8L365.687 281.7C367.937 290.7 375.677 298.26 388.187 298.26C401.147 298.26 410.867 289.89 410.867 276.75C410.867 263.61 402.227 255.24 389.897 255.24C383.057 255.24 377.297 258.21 374.327 263.43L374.147 263.34L377.387 240.57H407.897ZM469.288 233.64L437.698 273.78V280.8H471.448V297H479.098V280.8H488.818V273.87H479.098V233.64H469.288ZM446.338 273.78V273.6L471.358 241.83H471.538V273.87L446.338 273.78ZM518.683 298.35C535.153 298.35 542.803 283.86 542.803 265.32C542.803 246.78 535.153 232.29 518.683 232.29C502.123 232.29 494.473 246.78 494.473 265.32C494.473 283.86 502.123 298.35 518.683 298.35ZM502.213 265.32C502.213 250.74 507.073 239.04 518.683 239.04C530.293 239.04 535.063 250.74 535.063 265.32C535.063 279.9 530.293 291.51 518.683 291.51C507.073 291.51 502.213 279.9 502.213 265.32ZM574.033 298.35C590.503 298.35 598.153 283.86 598.153 265.32C598.153 246.78 590.503 232.29 574.033 232.29C557.473 232.29 549.823 246.78 549.823 265.32C549.823 283.86 557.473 298.35 574.033 298.35ZM557.563 265.32C557.563 250.74 562.423 239.04 574.033 239.04C585.643 239.04 590.413 250.74 590.413 265.32C590.413 279.9 585.643 291.51 574.033 291.51C562.423 291.51 557.563 279.9 557.563 265.32ZM82.21 342.46L90.76 340.84C87.88 328.24 79.24 323.29 67.99 323.29C55.3 323.29 45.67 330.85 45.67 341.47C45.67 351.46 52.6 356.59 62.23 358.3L72.49 360.19C77.53 361.09 82.21 364.51 82.21 370.45C82.21 377.11 76.99 381.43 68.89 381.43C60.88 381.43 55.03 377.56 52.69 368.38L44.05 370C46.75 382.6 56.11 389.17 68.62 389.17C82.12 389.17 91.39 381.61 91.39 370.45C91.39 360.46 84.73 353.98 74.29 352.09L64.03 350.2C59.53 349.48 54.85 346.87 54.85 341.29C54.85 334.9 61.06 331.03 67.99 331.03C75.19 331.03 80.32 334.18 82.21 342.46ZM136.685 357.22C136.685 347.41 129.395 341.47 118.595 341.47C108.245 341.47 100.145 347.5 98.7953 356.86L107.075 357.58C107.705 351.55 112.385 348.31 118.505 348.31C124.805 348.31 128.405 351.46 128.405 356.05C128.405 358.48 127.055 359.56 124.265 360.1L112.385 362.26C104.195 363.79 98.4353 368.11 98.4353 375.76C98.4353 384.13 105.365 389.26 114.455 389.26C121.025 389.26 125.885 385.84 128.585 380.98H128.765V388H136.685V357.22ZM106.895 375.58C106.895 371.53 110.045 369.19 115.355 368.11L124.715 366.31C126.425 365.95 127.505 365.41 128.315 364.69H128.495V369.37C128.495 376.84 123.185 382.42 115.445 382.42C110.315 382.42 106.895 379.99 106.895 375.58ZM148.035 388H156.495V362.62C156.495 354.52 161.805 348.76 168.915 348.76C175.935 348.76 179.265 353.71 179.265 360.91V388H187.815V358.66C187.815 347.95 180.975 341.38 170.985 341.38C163.965 341.38 158.745 345.52 156.405 349.75H156.225C156.315 348.13 156.495 345.7 156.495 343.18V342.64H148.035V388ZM224.632 355.87L232.552 354.43C230.482 345.52 223.732 341.38 214.822 341.38C205.192 341.38 197.992 347.14 197.992 355.15C197.992 362.71 203.482 366.4 210.232 367.57L218.332 369.1C221.572 369.64 224.722 371.71 224.722 375.4C224.722 379.54 221.392 382.24 215.902 382.24C210.322 382.24 206.272 379.45 204.832 373.6L196.822 375.13C198.622 383.95 205.912 389.26 215.722 389.26C225.622 389.26 232.912 383.86 232.912 375.31C232.912 368.02 227.602 363.25 220.042 361.81L211.942 360.28C208.972 359.74 206.182 358.3 206.182 354.79C206.182 350.92 210.142 348.31 214.912 348.31C220.042 348.31 223.462 350.56 224.632 355.87ZM264.366 324.64V388H273.006V334.99L306.396 388H316.296V324.64H307.656V375.13L275.976 324.64H264.366ZM323.406 355.06C323.406 365.5 331.236 372.7 341.316 372.7C351.306 372.7 359.136 365.5 359.136 355.06C359.136 344.71 351.306 337.42 341.316 337.42C331.236 337.42 323.406 344.71 323.406 355.06ZM324.486 388H358.056V380.8H324.486V388ZM330.966 355.06C330.966 348.85 335.376 344.44 341.316 344.44C347.166 344.44 351.576 348.85 351.576 355.06C351.576 361.36 347.166 365.68 341.316 365.68C335.286 365.68 330.966 361.36 330.966 355.06ZM408.864 332.29V324.64H371.784L366.564 360.19L376.014 362.44C377.994 357.58 382.584 353.62 389.604 353.62C397.794 353.62 403.374 359.38 403.374 367.75C403.374 376.12 397.794 381.79 389.154 381.79C382.044 381.79 376.914 378.01 375.114 371.53L366.474 372.52C368.544 381.61 376.374 389.26 389.064 389.26C402.204 389.26 411.924 380.98 411.924 367.75C411.924 354.52 403.194 346.24 391.044 346.24C384.294 346.24 378.714 349.21 375.924 353.98L375.744 353.89L378.804 332.29H408.864ZM469.627 324.64L438.577 364.24V372.07H471.787V388H480.337V372.07H489.877V364.33H480.247V324.64H469.627ZM447.937 364.24V364.06L471.697 333.82H471.877V364.33L447.937 364.24ZM537.472 332.29V324.64H500.392L495.172 360.19L504.622 362.44C506.602 357.58 511.192 353.62 518.212 353.62C526.402 353.62 531.982 359.38 531.982 367.75C531.982 376.12 526.402 381.79 517.762 381.79C510.652 381.79 505.522 378.01 503.722 371.53L495.082 372.52C497.152 381.61 504.982 389.26 517.672 389.26C530.812 389.26 540.532 380.98 540.532 367.75C540.532 354.52 531.802 346.24 519.652 346.24C512.902 346.24 507.322 349.21 504.532 353.98L504.352 353.89L507.412 332.29H537.472ZM571.313 389.35C588.053 389.35 595.793 374.86 595.793 356.32C595.793 337.78 588.053 323.29 571.313 323.29C554.573 323.29 546.743 337.78 546.743 356.32C546.743 374.86 554.573 389.35 571.313 389.35ZM555.383 356.32C555.383 342.1 559.973 330.76 571.313 330.76C582.563 330.76 587.153 342.1 587.153 356.32C587.153 370.54 582.563 381.88 571.313 381.88C559.973 381.88 555.383 370.54 555.383 356.32ZM81.76 433.55L91.12 431.84C88.24 419.33 79.69 414.29 68.17 414.29C55.21 414.29 45.4 422.03 45.4 432.65C45.4 442.55 52.33 447.86 62.05 449.66L72.4 451.55C77.26 452.45 81.58 455.69 81.58 461.36C81.58 467.57 76.63 471.71 68.89 471.71C61.24 471.71 55.57 468.02 53.23 459.11L43.78 460.91C46.57 473.42 55.93 480.17 68.71 480.17C82.48 480.17 91.75 472.52 91.75 461.27C91.75 451.19 85.09 444.71 74.65 442.82L64.39 440.93C60.07 440.12 55.66 437.69 55.66 432.38C55.66 426.35 61.6 422.66 68.17 422.66C75.01 422.66 79.96 425.63 81.76 433.55ZM137.131 448.49C137.131 438.5 129.661 432.47 118.771 432.47C108.241 432.47 100.051 438.5 98.7011 447.95L107.701 448.76C108.331 442.91 112.831 439.94 118.591 439.94C124.621 439.94 128.041 442.91 128.041 447.14C128.041 449.57 126.691 450.65 123.991 451.1L112.291 453.26C104.011 454.7 98.3411 459.11 98.3411 466.67C98.3411 474.95 105.271 480.26 114.451 480.26C120.841 480.26 125.611 476.93 128.311 472.16H128.491V479H137.131V448.49ZM107.701 466.49C107.701 462.62 110.671 460.46 115.621 459.47L124.351 457.76C126.061 457.4 127.141 456.95 127.861 456.14H128.131V460.46C128.131 467.66 123.001 472.88 115.621 472.88C110.851 472.88 107.701 470.63 107.701 466.49ZM147.763 479H157.213V453.44C157.213 445.88 162.163 440.48 168.913 440.48C175.483 440.48 178.903 445.16 178.903 452V479H188.263V449.75C188.263 438.86 181.333 432.38 171.433 432.38C164.593 432.38 159.373 436.34 157.033 440.57H156.853C157.033 438.95 157.213 436.52 157.213 434.09V433.64H147.763V479ZM224.27 447.05L232.91 445.43C230.93 436.61 224.18 432.38 215 432.38C205.19 432.38 197.9 438.23 197.9 446.33C197.9 453.89 203.48 457.67 210.23 458.93L218.33 460.46C221.48 461 224.36 462.8 224.36 466.22C224.36 470.09 221.21 472.61 215.99 472.61C210.77 472.61 206.9 470 205.46 464.51L196.73 466.22C198.53 474.86 205.82 480.26 215.9 480.26C225.98 480.26 233.36 474.77 233.36 466.13C233.36 458.84 228.05 453.98 220.4 452.54L212.39 451.1C209.51 450.56 206.9 449.21 206.9 445.97C206.9 442.37 210.59 439.85 215 439.85C219.95 439.85 223.19 442.01 224.27 447.05ZM264.006 415.64V479H273.546V427.16L305.946 479H316.926V415.64H307.386V464.78L276.786 415.64H264.006ZM323.946 445.7C323.946 456.05 331.776 463.34 341.946 463.34C352.116 463.34 360.036 456.05 360.036 445.7C360.036 435.26 352.116 428.06 341.946 428.06C331.776 428.06 323.946 435.26 323.946 445.7ZM325.116 479H358.866V471.26H325.116V479ZM332.136 445.7C332.136 439.76 336.276 435.62 341.946 435.62C347.616 435.62 351.756 439.76 351.756 445.7C351.756 451.64 347.616 455.78 341.946 455.78C336.186 455.78 332.136 451.64 332.136 445.7ZM409.745 424.1V415.64H372.395L367.175 451.28L377.345 453.71C379.235 449.03 383.735 445.25 390.305 445.25C398.045 445.25 403.355 450.65 403.355 458.75C403.355 466.76 398.045 472.16 389.945 472.16C383.285 472.16 378.245 468.56 376.535 462.17L366.995 463.25C369.065 472.52 376.985 480.26 389.855 480.26C403.085 480.26 412.805 471.98 412.805 458.75C412.805 445.43 403.985 437.24 392.105 437.24C385.355 437.24 380.045 440.12 377.435 444.44L377.255 444.35L380.045 424.1H409.745ZM482.212 424.1V415.64H444.862L439.642 451.28L449.812 453.71C451.702 449.03 456.202 445.25 462.772 445.25C470.512 445.25 475.822 450.65 475.822 458.75C475.822 466.76 470.512 472.16 462.412 472.16C455.752 472.16 450.712 468.56 449.002 462.17L439.462 463.25C441.532 472.52 449.452 480.26 462.322 480.26C475.552 480.26 485.272 471.98 485.272 458.75C485.272 445.43 476.452 437.24 464.572 437.24C457.822 437.24 452.512 440.12 449.902 444.44L449.722 444.35L452.512 424.1H482.212ZM516.143 480.35C533.153 480.35 541.073 465.86 541.073 447.32C541.073 428.69 533.153 414.29 516.143 414.29C499.223 414.29 491.213 428.69 491.213 447.32C491.213 465.86 499.223 480.35 516.143 480.35ZM500.843 447.32C500.843 433.46 505.163 422.48 516.143 422.48C527.123 422.48 531.533 433.46 531.533 447.32C531.533 461.18 527.123 472.16 516.143 472.16C505.163 472.16 500.843 461.18 500.843 447.32ZM572.284 480.35C589.294 480.35 597.214 465.86 597.214 447.32C597.214 428.69 589.294 414.29 572.284 414.29C555.364 414.29 547.354 428.69 547.354 447.32C547.354 465.86 555.364 480.35 572.284 480.35ZM556.984 447.32C556.984 433.46 561.304 422.48 572.284 422.48C583.264 422.48 587.674 433.46 587.674 447.32C587.674 461.18 583.264 472.16 572.284 472.16C561.304 472.16 556.984 461.18 556.984 447.32ZM81.31 524.73L91.48 522.84C88.6 510.33 80.05 505.29 68.26 505.29C55.03 505.29 45.22 513.21 45.22 523.83C45.22 533.73 51.97 539.22 61.78 541.11L72.22 543C76.99 543.81 80.95 546.96 80.95 552.18C80.95 558.03 76.18 561.99 68.89 561.99C61.6 561.99 56.2 558.57 53.86 549.93L43.6 551.91C46.3 564.33 55.66 571.17 68.8 571.17C82.84 571.17 92.11 563.43 92.11 552.09C92.11 541.92 85.54 535.44 75.01 533.55L64.66 531.57C60.61 530.85 56.38 528.51 56.38 523.56C56.38 517.8 62.23 514.38 68.35 514.38C74.74 514.38 79.6 517.17 81.31 524.73ZM137.577 539.76C137.577 529.68 129.927 523.47 118.857 523.47C108.237 523.47 99.9569 529.59 98.6069 539.13L108.417 539.94C108.867 534.36 113.277 531.57 118.677 531.57C124.437 531.57 127.587 534.45 127.587 538.32C127.587 540.57 126.327 541.65 123.627 542.19L112.107 544.17C103.917 545.61 98.2469 550.2 98.2469 557.67C98.2469 565.86 105.087 571.26 114.357 571.26C120.657 571.26 125.247 568.02 127.947 563.34H128.127V570H137.577V539.76ZM108.417 557.4C108.417 553.71 111.207 551.82 115.797 550.92L124.077 549.21C125.697 548.94 126.687 548.49 127.497 547.68H127.677V551.55C127.677 558.48 122.727 563.34 115.887 563.34C111.297 563.34 108.417 561.18 108.417 557.4ZM147.669 570H157.929V544.26C157.929 537.24 162.699 532.11 168.999 532.11C175.209 532.11 178.539 536.61 178.539 543.09V570H188.799V540.75C188.799 529.77 181.779 523.38 171.969 523.38C165.309 523.38 160.089 527.16 157.749 531.48H157.569C157.749 529.86 157.929 527.25 157.929 525V524.64H147.669V570ZM224.084 538.23L233.534 536.43C231.464 527.7 224.714 523.38 215.264 523.38C205.274 523.38 197.984 529.32 197.984 537.6C197.984 545.16 203.564 549.03 210.404 550.38L218.414 551.82C221.564 552.45 224.174 553.98 224.174 557.13C224.174 560.64 221.294 562.98 216.344 562.98C211.394 562.98 207.794 560.64 206.354 555.51L196.814 557.22C198.614 565.68 205.814 571.26 216.164 571.26C226.424 571.26 233.984 565.77 233.984 557.04C233.984 549.66 228.674 544.8 220.934 543.36L212.924 541.83C210.224 541.38 207.794 540.12 207.794 537.06C207.794 533.73 211.214 531.48 215.354 531.48C219.944 531.48 223.004 533.46 224.084 538.23ZM263.998 506.64V570H274.438V519.42L305.758 570H317.818V506.64H307.378V554.34L277.948 506.64H263.998ZM324.748 536.25C324.748 546.69 332.668 553.89 343.018 553.89C353.278 553.89 361.198 546.69 361.198 536.25C361.198 525.9 353.278 518.61 343.018 518.61C332.668 518.61 324.748 525.9 324.748 536.25ZM326.008 570H359.938V561.63H326.008V570ZM333.658 536.25C333.658 530.67 337.528 526.71 343.018 526.71C348.418 526.71 352.288 530.67 352.288 536.25C352.288 541.92 348.418 545.79 343.018 545.79C337.438 545.79 333.658 541.92 333.658 536.25ZM410.801 515.82V506.64H373.091L367.871 542.46L378.851 544.98C380.561 540.48 384.971 536.97 391.091 536.97C398.471 536.97 403.601 542.01 403.601 549.75C403.601 557.49 398.471 562.44 390.821 562.44C384.611 562.44 379.661 559.2 378.041 552.81L367.781 553.98C369.761 563.43 377.681 571.26 390.731 571.26C404.141 571.26 413.861 563.07 413.861 549.75C413.861 536.43 404.951 528.24 393.251 528.24C386.591 528.24 381.461 531.12 379.031 534.99L378.851 534.9L381.461 515.82H410.801ZM483.181 515.82V506.64H445.471L440.251 542.46L451.231 544.98C452.941 540.48 457.351 536.97 463.471 536.97C470.851 536.97 475.981 542.01 475.981 549.75C475.981 557.49 470.851 562.44 463.201 562.44C456.991 562.44 452.041 559.2 450.421 552.81L440.161 553.98C442.141 563.43 450.061 571.26 463.111 571.26C476.521 571.26 486.241 563.07 486.241 549.75C486.241 536.43 477.331 528.24 465.631 528.24C458.971 528.24 453.841 531.12 451.411 534.99L451.231 534.9L453.841 515.82H483.181ZM534.752 515.82V506.64H497.042L491.822 542.46L502.802 544.98C504.512 540.48 508.922 536.97 515.042 536.97C522.422 536.97 527.552 542.01 527.552 549.75C527.552 557.49 522.422 562.44 514.772 562.44C508.562 562.44 503.612 559.2 501.992 552.81L491.732 553.98C493.712 563.43 501.632 571.26 514.682 571.26C528.092 571.26 537.812 563.07 537.812 549.75C537.812 536.43 528.902 528.24 517.202 528.24C510.542 528.24 505.412 531.12 502.982 534.99L502.802 534.9L505.412 515.82H534.752ZM568.773 571.35C585.963 571.35 594.063 556.95 594.063 538.32C594.063 519.69 585.963 505.29 568.773 505.29C551.583 505.29 543.483 519.69 543.483 538.32C543.483 556.95 551.583 571.35 568.773 571.35ZM554.013 538.32C554.013 524.82 558.153 514.2 568.773 514.2C579.483 514.2 583.623 524.82 583.623 538.32C583.623 551.82 579.483 562.44 568.773 562.44C558.153 562.44 554.013 551.82 554.013 538.32ZM80.86 615.91L91.84 613.75C88.96 601.42 80.41 596.2 68.35 596.2C54.85 596.2 44.95 604.3 44.95 615.01C44.95 624.82 51.61 630.58 61.6 632.47L72.04 634.36C76.72 635.17 80.32 638.14 80.32 643.09C80.32 648.4 75.82 652.18 68.89 652.18C62.05 652.18 56.74 649.12 54.4 640.66L43.33 642.82C46.12 655.15 55.39 662.17 68.89 662.17C83.2 662.17 92.56 654.34 92.56 642.91C92.56 632.65 85.9 626.17 75.37 624.19L65.02 622.3C61.15 621.58 57.19 619.33 57.19 614.74C57.19 609.16 62.77 606.1 68.53 606.1C74.47 606.1 79.24 608.62 80.86 615.91ZM138.111 630.94C138.111 620.77 130.281 614.47 119.121 614.47C108.411 614.47 99.9505 620.68 98.6005 630.22L109.131 631.12C109.581 625.81 113.811 623.11 118.941 623.11C124.341 623.11 127.311 625.99 127.311 629.5C127.311 631.66 126.141 632.74 123.351 633.19L112.101 635.17C103.821 636.52 98.2405 641.2 98.2405 648.67C98.2405 656.77 104.991 662.26 114.441 662.26C120.651 662.26 125.061 659.02 127.671 654.52H127.851V661H138.111V630.94ZM109.221 648.31C109.221 644.8 111.921 643.09 116.061 642.28L123.801 640.66C125.421 640.39 126.411 639.94 127.131 639.22H127.311V642.64C127.311 649.3 122.631 653.8 116.151 653.8C111.921 653.8 109.221 651.82 109.221 648.31ZM147.485 661H158.645V634.99C158.645 628.51 163.145 623.83 169.085 623.83C174.845 623.83 178.175 627.97 178.175 634.09V661H189.335V631.84C189.335 620.68 182.315 614.38 172.505 614.38C166.025 614.38 160.895 617.98 158.465 622.3H158.285C158.465 620.77 158.645 618.07 158.645 615.91V615.64H147.485V661ZM223.81 629.32L233.98 627.43C231.91 618.79 225.25 614.38 215.44 614.38C205.27 614.38 197.98 620.41 197.98 628.78C197.98 636.34 203.56 640.39 210.49 641.74L218.5 643.18C221.56 643.81 223.9 645.16 223.9 648.04C223.9 651.19 221.2 653.35 216.52 653.35C211.93 653.35 208.51 651.28 207.07 646.42L196.81 648.31C198.61 656.59 205.72 662.26 216.43 662.26C226.87 662.26 234.52 656.77 234.52 647.95C234.52 640.48 229.21 635.62 221.47 634.18L213.37 632.65C210.85 632.11 208.6 631.03 208.6 628.24C208.6 625.18 211.75 623.11 215.53 623.11C219.85 623.11 222.82 624.82 223.81 629.32ZM263.816 597.64V661H275.156V611.68L305.306 661H318.446V597.64H307.106V643.99L278.936 597.64H263.816ZM325.376 626.89C325.376 637.24 333.296 644.53 343.736 644.53C354.176 644.53 362.096 637.24 362.096 626.89C362.096 616.54 354.176 609.25 343.736 609.25C333.296 609.25 325.376 616.54 325.376 626.89ZM326.636 661H360.836V652.09H326.636V661ZM334.916 626.89C334.916 621.58 338.606 617.89 343.736 617.89C348.956 617.89 352.646 621.58 352.646 626.89C352.646 632.11 348.956 635.89 343.736 635.89C338.426 635.89 334.916 632.11 334.916 626.89ZM411.595 607.63V597.64H373.525L368.395 633.55L380.095 636.16C381.715 631.84 385.945 628.6 391.705 628.6C398.635 628.6 403.495 633.37 403.495 640.75C403.495 648.13 398.635 652.81 391.435 652.81C385.765 652.81 380.905 649.75 379.375 643.45L368.215 644.71C370.195 654.34 378.115 662.26 391.345 662.26C404.935 662.26 414.745 654.16 414.745 640.75C414.745 627.34 405.745 619.24 394.135 619.24C387.565 619.24 382.615 622.12 380.365 625.54L380.185 625.45L382.615 607.63H411.595ZM478.576 614.83L489.196 613.48C487.936 604.12 481.546 596.38 468.046 596.38C450.946 596.38 441.046 609.7 441.046 630.76V630.94C441.046 652.54 452.926 662.26 467.146 662.26C479.836 662.26 489.826 653.35 489.826 640.75C489.826 628.24 480.736 619.33 468.946 619.33C460.756 619.33 454.726 623.83 452.296 629.41H452.116C452.206 614.29 458.596 605.83 467.776 605.83C473.986 605.83 477.406 609.25 478.576 614.83ZM454.726 640.75C454.726 633.46 459.856 628.69 466.696 628.69C473.446 628.69 478.576 633.46 478.576 640.75C478.576 648.04 473.446 652.81 466.696 652.81C459.856 652.81 454.726 648.04 454.726 640.75ZM520.724 662.35C538.094 662.35 546.284 647.95 546.284 629.32C546.284 610.69 538.094 596.29 520.724 596.29C503.264 596.29 494.984 610.69 494.984 629.32C494.984 647.95 503.264 662.35 520.724 662.35ZM506.414 629.32C506.414 616.18 510.374 605.83 520.724 605.83C531.074 605.83 534.944 616.18 534.944 629.32C534.944 642.46 531.074 652.72 520.724 652.72C510.374 652.72 506.414 642.46 506.414 629.32ZM577.568 662.35C594.938 662.35 603.128 647.95 603.128 629.32C603.128 610.69 594.938 596.29 577.568 596.29C560.108 596.29 551.828 610.69 551.828 629.32C551.828 647.95 560.108 662.35 577.568 662.35ZM563.258 629.32C563.258 616.18 567.218 605.83 577.568 605.83C587.918 605.83 591.788 616.18 591.788 629.32C591.788 642.46 587.918 652.72 577.568 652.72C567.218 652.72 563.258 642.46 563.258 629.32ZM80.41 707L92.2 704.75C89.32 692.42 80.77 687.2 68.44 687.2C54.67 687.2 44.77 695.48 44.77 706.28C44.77 716 51.34 721.85 61.42 723.83L71.86 725.81C76.45 726.62 79.69 729.32 79.69 733.91C79.69 738.86 75.46 742.46 68.89 742.46C62.41 742.46 57.37 739.67 55.03 731.39L43.15 733.73C45.94 746.06 55.21 753.08 68.89 753.08C83.56 753.08 92.92 745.25 92.92 733.82C92.92 723.38 86.35 716.9 75.73 714.92L65.29 712.94C61.69 712.31 58 710.15 58 705.83C58 700.61 63.4 697.73 68.62 697.73C74.2 697.73 78.79 700.16 80.41 707ZM138.556 722.21C138.556 711.95 130.546 705.56 119.206 705.56C108.406 705.56 99.8563 711.68 98.4163 721.4L109.846 722.3C110.206 717.17 114.166 714.74 119.026 714.74C124.066 714.74 126.856 717.44 126.856 720.68C126.856 722.66 125.776 723.74 123.076 724.28L112.006 726.08C103.726 727.52 98.0563 732.2 98.0563 739.58C98.0563 747.59 104.896 753.26 114.346 753.26C120.466 753.26 124.786 750.11 127.396 745.7H127.576V752H138.556V722.21ZM110.026 739.22C110.026 735.98 112.456 734.45 116.326 733.64L123.526 732.11C124.966 731.84 125.956 731.48 126.766 730.76H126.946V733.73C126.946 740.12 122.356 744.26 116.416 744.26C112.456 744.26 110.026 742.37 110.026 739.22ZM147.39 752H159.45V725.81C159.45 719.87 163.68 715.46 169.08 715.46C174.57 715.46 177.81 719.42 177.81 725.18V752H189.87V722.84C189.87 711.68 182.76 705.38 172.95 705.38C166.65 705.38 161.61 708.89 159.18 713.21H159C159.18 711.68 159.45 708.8 159.45 706.91V706.64H147.39V752ZM223.623 720.5L234.603 718.52C232.533 709.97 225.783 705.38 215.703 705.38C205.443 705.38 197.973 711.5 197.973 719.96C197.973 727.52 203.643 731.75 210.573 733.1L218.673 734.63C221.643 735.17 223.623 736.34 223.623 738.95C223.623 741.83 221.283 743.81 216.873 743.81C212.553 743.81 209.403 741.92 207.963 737.33L196.893 739.31C198.693 747.41 205.803 753.26 216.783 753.26C227.403 753.26 235.053 747.68 235.053 738.77C235.053 731.3 229.833 726.44 222.003 724.91L213.903 723.38C211.473 722.93 209.403 721.94 209.403 719.33C209.403 716.54 212.373 714.65 215.883 714.65C219.933 714.65 222.723 716.27 223.623 720.5ZM263.808 688.64V752H276.048V703.94L305.118 752H319.338V688.64H307.098V733.55L280.098 688.64H263.808ZM326.178 717.44C326.178 727.88 334.188 735.08 344.808 735.08C355.338 735.08 363.348 727.88 363.348 717.44C363.348 707.09 355.338 699.8 344.808 699.8C334.188 699.8 326.178 707.09 326.178 717.44ZM327.528 752H361.998V742.46H327.528V752ZM336.348 717.44C336.348 712.58 339.858 708.98 344.808 708.98C349.668 708.98 353.178 712.58 353.178 717.44C353.178 722.39 349.668 725.9 344.808 725.9C339.678 725.9 336.348 722.39 336.348 717.44ZM412.561 699.35V688.64H374.311L369.181 724.64L381.511 727.43C383.131 723.29 387.271 720.32 392.491 720.32C399.061 720.32 403.741 724.64 403.741 731.75C403.741 738.86 399.061 743.09 392.401 743.09C387.181 743.09 382.321 740.3 380.971 734.18L369.001 735.53C370.801 745.25 378.901 753.26 392.221 753.26C405.991 753.26 415.801 745.25 415.801 731.75C415.801 718.25 406.711 710.24 395.281 710.24C388.801 710.24 384.121 713.03 382.051 716L381.871 715.91L384.031 699.35H412.561ZM479.005 706.01L490.435 704.66C489.175 695.03 482.605 687.38 469.015 687.38C451.915 687.38 441.835 700.52 441.835 721.76V721.94C441.835 743.54 453.805 753.26 468.205 753.26C480.985 753.26 490.975 744.35 490.975 731.75C490.975 719.15 482.065 710.33 470.185 710.33C462.355 710.33 456.415 714.56 453.895 719.96H453.715C453.985 705.47 460.015 697.46 468.745 697.46C474.595 697.46 477.925 700.7 479.005 706.01ZM456.325 731.75C456.325 724.82 461.275 720.41 467.665 720.41C474.055 720.41 478.915 724.82 478.915 731.75C478.915 738.68 474.055 743.18 467.665 743.18C461.275 743.18 456.325 738.68 456.325 731.75ZM539.148 699.35V688.64H500.898L495.768 724.64L508.098 727.43C509.718 723.29 513.858 720.32 519.078 720.32C525.648 720.32 530.328 724.64 530.328 731.75C530.328 738.86 525.648 743.09 518.988 743.09C513.768 743.09 508.908 740.3 507.558 734.18L495.588 735.53C497.388 745.25 505.488 753.26 518.808 753.26C532.578 753.26 542.388 745.25 542.388 731.75C542.388 718.25 533.298 710.24 521.868 710.24C515.388 710.24 510.708 713.03 508.638 716L508.458 715.91L510.618 699.35H539.148ZM573.617 753.35C591.257 753.35 599.627 738.95 599.627 720.32C599.627 701.69 591.257 687.29 573.617 687.29C555.887 687.29 547.517 701.69 547.517 720.32C547.517 738.95 555.887 753.35 573.617 753.35ZM559.937 720.32C559.937 707.54 563.537 697.55 573.617 697.55C583.607 697.55 587.297 707.54 587.297 720.32C587.297 733.1 583.607 743.09 573.617 743.09C563.537 743.09 559.937 733.1 559.937 720.32ZM79.96 798.18L92.56 795.75C89.68 783.51 81.13 778.2 68.53 778.2C54.49 778.2 44.5 786.66 44.5 797.46C44.5 807.09 50.98 813.21 61.24 815.19L71.68 817.17C76.18 817.98 79.06 820.5 79.06 824.82C79.06 829.32 75.1 832.74 68.89 832.74C62.77 832.74 57.91 830.22 55.57 822.12L42.88 824.64C45.76 836.88 54.94 844.08 68.98 844.08C83.92 844.08 93.28 836.16 93.28 824.64C93.28 814.11 86.71 807.63 76.09 805.65L65.65 803.67C62.23 803.04 58.81 800.97 58.81 797.01C58.81 792.06 63.94 789.45 68.8 789.45C73.93 789.45 78.43 791.61 79.96 798.18ZM139.002 813.48C139.002 803.04 130.812 796.56 119.382 796.56C108.402 796.56 99.7621 802.77 98.3221 812.49L110.472 813.48C110.832 808.62 114.612 806.37 119.112 806.37C123.882 806.37 126.492 808.98 126.492 811.86C126.492 813.75 125.412 814.83 122.712 815.28L111.912 817.08C103.542 818.43 97.9621 823.2 97.9621 830.58C97.9621 838.5 104.712 844.26 114.342 844.26C120.282 844.26 124.512 841.2 127.032 836.88H127.212V843H139.002V813.48ZM110.742 830.13C110.742 827.07 113.082 825.72 116.502 825L123.162 823.56C124.602 823.29 125.592 823.02 126.312 822.3H126.492V824.82C126.492 830.94 122.172 834.72 116.592 834.72C112.992 834.72 110.742 833.01 110.742 830.13ZM147.118 843H160.078V816.63C160.078 811.23 164.038 807.18 169.078 807.18C174.118 807.18 177.358 810.87 177.358 816.27V843H190.318V813.93C190.318 802.59 183.118 796.38 173.398 796.38C167.278 796.38 162.238 799.71 159.808 804.03H159.628C159.808 802.59 160.078 799.62 160.078 797.82V797.64H147.118V843ZM223.261 811.68L234.961 809.52C232.891 801.06 226.231 796.38 215.791 796.38C205.351 796.38 197.881 802.59 197.881 811.14C197.881 818.7 203.551 823.11 210.571 824.46L218.671 825.99C221.551 826.53 223.261 827.52 223.261 829.86C223.261 832.38 221.101 834.18 216.961 834.18C213.001 834.18 210.031 832.56 208.591 828.24L196.801 830.4C198.601 838.32 205.621 844.26 216.961 844.26C227.761 844.26 235.501 838.68 235.501 829.68C235.501 822.12 230.281 817.26 222.361 815.73L214.261 814.2C212.011 813.75 210.121 812.85 210.121 810.51C210.121 807.99 212.821 806.28 215.971 806.28C219.751 806.28 222.451 807.72 223.261 811.68ZM263.448 779.64V843H276.588V796.2L304.578 843H319.878V779.64H306.738V823.2L280.908 779.64H263.448ZM326.718 808.08C326.718 818.43 334.728 825.72 345.438 825.72C356.148 825.72 364.158 818.43 364.158 808.08C364.158 797.73 356.148 790.44 345.438 790.44C334.728 790.44 326.718 797.73 326.718 808.08ZM328.068 843H362.808V832.92H328.068V843ZM337.518 808.08C337.518 803.49 340.758 800.16 345.438 800.16C350.118 800.16 353.358 803.49 353.358 808.08C353.358 812.67 350.118 816 345.438 816C340.578 816 337.518 812.67 337.518 808.08ZM413.267 791.16V779.64H374.657L369.617 815.73L382.667 818.7C384.197 814.74 388.157 811.95 393.017 811.95C399.137 811.95 403.547 816 403.547 822.75C403.547 829.5 399.137 833.46 392.927 833.46C388.247 833.46 383.477 830.85 382.217 824.82L369.347 826.26C371.147 836.16 379.247 844.26 392.747 844.26C406.697 844.26 416.507 836.34 416.507 822.75C416.507 809.16 407.327 801.24 396.077 801.24C389.687 801.24 385.187 804.03 383.297 806.55L383.117 806.46L385.097 791.16H413.267ZM441.015 779.64V791.16H472.155V791.34C459.735 803.85 451.275 823.02 450.825 843H465.135C465.225 822.93 472.515 806.19 488.985 791.88V779.64H441.015ZM518.095 844.35C536.005 844.35 544.465 829.95 544.465 811.32C544.465 792.69 536.005 778.29 518.095 778.29C500.185 778.29 491.635 792.69 491.635 811.32C491.635 829.95 500.185 844.35 518.095 844.35ZM504.955 811.32C504.955 798.9 508.375 789.27 518.095 789.27C527.815 789.27 531.235 798.9 531.235 811.32C531.235 823.74 527.815 833.37 518.095 833.37C508.375 833.37 504.955 823.74 504.955 811.32ZM575.819 844.35C593.729 844.35 602.189 829.95 602.189 811.32C602.189 792.69 593.729 778.29 575.819 778.29C557.909 778.29 549.359 792.69 549.359 811.32C549.359 829.95 557.909 844.35 575.819 844.35ZM562.679 811.32C562.679 798.9 566.099 789.27 575.819 789.27C585.539 789.27 588.959 798.9 588.959 811.32C588.959 823.74 585.539 833.37 575.819 833.37C566.099 833.37 562.679 823.74 562.679 811.32Z" fill="black"/>
</svg>
