<svg width="1600" height="900" viewBox="0 0 1600 900" fill="none" xmlns="http://www.w3.org/2000/svg">
<rect width="1600" height="900" fill="#EBEBEB"/>
<path d="M327.7 401.1L361.6 394.8C352 353.1 323.5 336.3 284.2 336.3C240.1 336.3 207.4 362.7 207.4 398.1C207.4 431.1 229.9 449.4 262.6 455.7L297.4 462C313.3 464.7 326.5 475.2 326.5 492.6C326.5 512.1 310.6 525.3 286.3 525.3C262 525.3 244 513.9 236.2 485.1L202 491.7C211 533.1 242.2 555.9 286 555.9C332.8 555.9 363.7 530.1 363.7 492.3C363.7 458.4 341.8 436.8 306.7 430.5L272.2 423.9C258.7 421.5 244.6 413.7 244.6 397.2C244.6 378 264.1 366.6 284.5 366.6C305.8 366.6 322 375.9 327.7 401.1ZM509.856 492V451.2C509.856 417.6 483.756 396.9 446.856 396.9C411.456 396.9 383.856 417.3 379.356 449.1L412.056 451.8C413.556 433.2 428.256 423.9 446.256 423.9C465.456 423.9 475.956 433.5 475.956 446.4C475.956 453.9 471.756 457.5 462.756 459.3L424.356 465.9C397.056 470.7 378.156 486 378.156 510.9C378.156 538.2 400.956 556.2 431.856 556.2C452.856 556.2 468.156 545.4 478.356 528.3H478.956C479.256 534.9 480.156 546.3 482.256 552H515.856C511.356 532.8 509.856 512.4 509.856 492ZM412.056 510C412.056 497.7 421.356 491.4 436.656 488.4L464.256 482.7C469.656 481.8 472.956 480.3 475.656 477.6H476.256V490.5C476.256 513.6 459.756 529.8 436.956 529.8C421.656 529.8 412.056 522.6 412.056 510ZM537.189 552H571.389V466.2C571.389 442.8 587.289 425.7 608.289 425.7C628.989 425.7 640.089 440.7 640.089 462.3V552H674.289V454.5C674.289 417.9 650.889 396.6 618.189 396.6C595.989 396.6 578.589 409.2 570.789 423.6H570.189C570.789 418.2 571.389 409.5 571.389 402V400.8H537.189V552ZM785.905 446.1L817.405 440.1C810.505 411 788.005 396.6 756.505 396.6C723.205 396.6 698.905 416.4 698.905 444C698.905 469.2 717.505 482.1 740.305 486.6L767.005 491.4C777.505 493.5 786.205 498.6 786.205 509.1C786.205 520.8 776.605 528.6 760.105 528.6C743.605 528.6 731.605 520.8 726.805 503.7L695.005 509.4C701.005 537.6 725.005 556.2 759.505 556.2C793.705 556.2 818.905 537.9 818.905 508.8C818.905 484.2 801.205 468 775.405 463.2L748.705 458.1C739.705 456.6 731.605 452.4 731.605 442.2C731.605 431.1 743.005 423.6 756.805 423.6C772.105 423.6 782.305 430.2 785.905 446.1ZM906.953 340.8V552H941.753V383.4L1046.15 552H1086.35V340.8H1051.55V499.8L953.453 340.8H906.953ZM1109.45 439.5C1109.45 474.3 1135.85 498.3 1170.35 498.3C1204.55 498.3 1230.95 474.3 1230.95 439.5C1230.95 405 1204.55 380.7 1170.35 380.7C1135.85 380.7 1109.45 405 1109.45 439.5ZM1113.65 552H1226.75V524.1H1113.65V552ZM1139.15 439.5C1139.15 420.9 1152.05 407.7 1170.35 407.7C1188.35 407.7 1201.25 420.9 1201.25 439.5C1201.25 458.4 1188.35 471.3 1170.35 471.3C1151.75 471.3 1139.15 458.4 1139.15 439.5ZM1390.3 371.4V340.8H1264.6L1247.2 460.2L1283.8 468.6C1289.5 453.6 1304.2 441.9 1324.6 441.9C1349.2 441.9 1366.3 458.7 1366.3 484.5C1366.3 510.3 1349.2 526.8 1323.7 526.8C1303 526.8 1286.5 516 1281.1 494.7L1246.9 498.6C1253.5 530.1 1279.9 556.2 1323.4 556.2C1368.1 556.2 1400.5 528.9 1400.5 484.5C1400.5 440.1 1370.8 412.8 1331.8 412.8C1309.6 412.8 1292.5 422.4 1284.4 435.3L1283.8 435L1292.5 371.4H1390.3Z" fill="black"/>
</svg>
