<svg width="900" height="900" viewBox="0 0 900 900" fill="none" xmlns="http://www.w3.org/2000/svg">
<rect width="900" height="900" fill="#EBEBEB"/>
<path d="M160.62 421.46L180.96 417.68C175.2 392.66 158.1 382.58 134.52 382.58C108.06 382.58 88.44 398.42 88.44 419.66C88.44 439.46 101.94 450.44 121.56 454.22L142.44 458C151.98 459.62 159.9 465.92 159.9 476.36C159.9 488.06 150.36 495.98 135.78 495.98C121.2 495.98 110.4 489.14 105.72 471.86L85.2 475.82C90.6 500.66 109.32 514.34 135.6 514.34C163.68 514.34 182.22 498.86 182.22 476.18C182.22 455.84 169.08 442.88 148.02 439.1L127.32 435.14C119.22 433.7 110.76 429.02 110.76 419.12C110.76 407.6 122.46 400.76 134.7 400.76C147.48 400.76 157.2 406.34 160.62 421.46ZM271.714 476V451.52C271.714 431.36 256.054 418.94 233.914 418.94C212.674 418.94 196.114 431.18 193.414 450.26L213.034 451.88C213.934 440.72 222.754 435.14 233.554 435.14C245.074 435.14 251.374 440.9 251.374 448.64C251.374 453.14 248.854 455.3 243.454 456.38L220.414 460.34C204.034 463.22 192.694 472.4 192.694 487.34C192.694 503.72 206.374 514.52 224.914 514.52C237.514 514.52 246.694 508.04 252.814 497.78H253.174C253.354 501.74 253.894 508.58 255.154 512H275.314C272.614 500.48 271.714 488.24 271.714 476ZM213.034 486.8C213.034 479.42 218.614 475.64 227.794 473.84L244.354 470.42C247.594 469.88 249.574 468.98 251.194 467.36H251.554V475.1C251.554 488.96 241.654 498.68 227.974 498.68C218.794 498.68 213.034 494.36 213.034 486.8ZM289.913 512H310.433V460.52C310.433 446.48 319.973 436.22 332.573 436.22C344.993 436.22 351.653 445.22 351.653 458.18V512H372.173V453.5C372.173 431.54 358.133 418.76 338.513 418.76C325.193 418.76 314.753 426.32 310.073 434.96H309.713C310.073 431.72 310.433 426.5 310.433 422V421.28H289.913V512ZM440.943 448.46L459.843 444.86C455.703 427.4 442.203 418.76 423.303 418.76C403.323 418.76 388.743 430.64 388.743 447.2C388.743 462.32 399.903 470.06 413.583 472.76L429.603 475.64C435.903 476.9 441.123 479.96 441.123 486.26C441.123 493.28 435.363 497.96 425.463 497.96C415.563 497.96 408.363 493.28 405.483 483.02L386.403 486.44C390.003 503.36 404.403 514.52 425.103 514.52C445.623 514.52 460.743 503.54 460.743 486.08C460.743 471.32 450.123 461.6 434.643 458.72L418.623 455.66C413.223 454.76 408.363 452.24 408.363 446.12C408.363 439.46 415.203 434.96 423.483 434.96C432.663 434.96 438.783 438.92 440.943 448.46ZM517.172 385.28V512H538.052V410.84L600.692 512H624.812V385.28H603.932V480.68L545.072 385.28H517.172ZM638.672 444.5C638.672 465.38 654.512 479.78 675.212 479.78C695.732 479.78 711.572 465.38 711.572 444.5C711.572 423.8 695.732 409.22 675.212 409.22C654.512 409.22 638.672 423.8 638.672 444.5ZM641.192 512H709.052V495.26H641.192V512ZM656.492 444.5C656.492 433.34 664.232 425.42 675.212 425.42C686.012 425.42 693.752 433.34 693.752 444.5C693.752 455.84 686.012 463.58 675.212 463.58C664.052 463.58 656.492 455.84 656.492 444.5ZM808.979 403.64V385.28H733.559L723.119 456.92L745.079 461.96C748.499 452.96 757.319 445.94 769.559 445.94C784.319 445.94 794.579 456.02 794.579 471.5C794.579 486.98 784.319 496.88 769.019 496.88C756.599 496.88 746.699 490.4 743.459 477.62L722.939 479.96C726.899 498.86 742.739 514.52 768.839 514.52C795.659 514.52 815.099 498.14 815.099 471.5C815.099 444.86 797.279 428.48 773.879 428.48C760.559 428.48 750.299 434.24 745.439 441.98L745.079 441.8L750.299 403.64H808.979Z" fill="black"/>
</svg>
