<svg width="1600" height="900" viewBox="0 0 1600 900" fill="none" xmlns="http://www.w3.org/2000/svg">
<rect width="1600" height="900" fill="#EBEBEB"/>
<path d="M248.6 285.8L293.8 277.4C281 221.8 243 199.4 190.6 199.4C131.8 199.4 88.2 234.6 88.2 281.8C88.2 325.8 118.2 350.2 161.8 358.6L208.2 367C229.4 370.6 247 384.6 247 407.8C247 433.8 225.8 451.4 193.4 451.4C161 451.4 137 436.2 126.6 397.8L81 406.6C93 461.8 134.6 492.2 193 492.2C255.4 492.2 296.6 457.8 296.6 407.4C296.6 362.2 267.4 333.4 220.6 325L174.6 316.2C156.6 313 137.8 302.6 137.8 280.6C137.8 255 163.8 239.8 191 239.8C219.4 239.8 241 252.2 248.6 285.8ZM491.475 407V352.6C491.475 307.8 456.675 280.2 407.475 280.2C360.275 280.2 323.475 307.4 317.475 349.8L361.075 353.4C363.075 328.6 382.675 316.2 406.675 316.2C432.275 316.2 446.275 329 446.275 346.2C446.275 356.2 440.675 361 428.675 363.4L377.475 372.2C341.075 378.6 315.875 399 315.875 432.2C315.875 468.6 346.275 492.6 387.475 492.6C415.475 492.6 435.875 478.2 449.475 455.4H450.275C450.675 464.2 451.875 479.4 454.675 487H499.475C493.475 461.4 491.475 434.2 491.475 407ZM361.075 431C361.075 414.6 373.475 406.2 393.875 402.2L430.675 394.6C437.875 393.4 442.275 391.4 445.875 387.8H446.675V405C446.675 435.8 424.675 457.4 394.275 457.4C373.875 457.4 361.075 447.8 361.075 431ZM527.919 487H573.519V372.6C573.519 341.4 594.719 318.6 622.719 318.6C650.319 318.6 665.119 338.6 665.119 367.4V487H710.719V357C710.719 308.2 679.519 279.8 635.919 279.8C606.319 279.8 583.119 296.6 572.719 315.8H571.919C572.719 308.6 573.519 297 573.519 287V285.4H527.919V487ZM859.541 345.8L901.541 337.8C892.341 299 862.341 279.8 820.341 279.8C775.941 279.8 743.541 306.2 743.541 343C743.541 376.6 768.341 393.8 798.741 399.8L834.341 406.2C848.341 409 859.941 415.8 859.941 429.8C859.941 445.4 847.141 455.8 825.141 455.8C803.141 455.8 787.141 445.4 780.741 422.6L738.341 430.2C746.341 467.8 778.341 492.6 824.341 492.6C869.941 492.6 903.541 468.2 903.541 429.4C903.541 396.6 879.941 375 845.541 368.6L809.941 361.8C797.941 359.8 787.141 354.2 787.141 340.6C787.141 325.8 802.341 315.8 820.741 315.8C841.141 315.8 854.741 324.6 859.541 345.8ZM95 545.4V827H141.4V602.2L280.6 827H334.2V545.4H287.8V757.4L157 545.4H95ZM365 677C365 723.4 400.2 755.4 446.2 755.4C491.8 755.4 527 723.4 527 677C527 631 491.8 598.6 446.2 598.6C400.2 598.6 365 631 365 677ZM370.6 827H521.4V789.8H370.6V827ZM404.6 677C404.6 652.2 421.8 634.6 446.2 634.6C470.2 634.6 487.4 652.2 487.4 677C487.4 702.2 470.2 719.4 446.2 719.4C421.4 719.4 404.6 702.2 404.6 677ZM739.459 586.2V545.4H571.859L548.659 704.6L597.459 715.8C605.059 695.8 624.659 680.2 651.859 680.2C684.659 680.2 707.459 702.6 707.459 737C707.459 771.4 684.659 793.4 650.659 793.4C623.059 793.4 601.059 779 593.859 750.6L548.259 755.8C557.059 797.8 592.259 832.6 650.259 832.6C709.859 832.6 753.059 796.2 753.059 737C753.059 677.8 713.459 641.4 661.459 641.4C631.859 641.4 609.059 654.2 598.259 671.4L597.459 671L609.059 586.2H739.459Z" fill="black"/>
</svg>
