<svg width="1600" height="900" viewBox="0 0 1600 900" fill="none" xmlns="http://www.w3.org/2000/svg">
<rect width="1600" height="900" fill="white"/>
<path d="M185.44 114.24L196.32 112.32C191.2 89.6 175.84 81.12 157.28 81.12C136.16 81.12 119.2 93.6 119.2 112.16C119.2 130.4 132.16 138.4 148.48 141.28L166.72 144.48C176.16 146.08 186.4 153.28 186.4 165.6C186.4 179.68 175.68 188.32 159.36 188.32C143.04 188.32 131.52 179.84 127.36 162.56L116.32 164.48C120.96 187.2 137.92 198.24 158.56 198.24C180.96 198.24 197.28 185.12 197.28 165.6C197.28 148.48 185.28 136.96 167.04 133.76L148.96 130.56C139.84 128.96 130.08 123.84 130.08 112.16C130.08 99.36 142.24 91.04 156.96 91.04C172 91.04 181.76 97.76 185.44 114.24ZM274.151 164V140C274.151 123.2 262.151 113.12 243.591 113.12C225.831 113.12 212.071 123.68 209.831 140L220.231 140.96C221.671 128.96 231.111 122.24 243.591 122.24C256.551 122.24 263.911 128.32 263.911 138.24C263.911 143.36 261.191 145.28 256.231 146.24L233.831 150.56C219.431 153.28 209.191 160.64 209.191 174.4C209.191 189.76 221.671 198.24 237.191 198.24C249.511 198.24 258.791 191.84 264.711 182.56H265.031C265.191 185.76 265.671 192.16 267.111 196H277.351C274.791 185.6 274.151 176 274.151 164ZM219.591 174.4C219.591 166.08 225.991 160.96 237.511 158.72L256.871 155.04C260.391 154.4 262.311 153.12 263.751 151.68H264.231V162.4C264.231 177.12 253.671 188.96 237.511 188.96C226.791 188.96 219.591 184 219.591 174.4ZM294.325 196H304.725V152C304.725 134.72 315.445 122.72 330.485 122.72C344.885 122.72 351.125 132.8 351.125 147.52V196H361.525V143.68C361.525 125.12 349.685 113.12 331.765 113.12C318.325 113.12 308.725 121.28 304.725 128.8H304.405C304.565 125.6 304.725 122.08 304.725 116.64V115.36H294.325V196ZM427.785 138.08L437.705 136.16C434.185 119.84 422.025 113.12 407.945 113.12C391.625 113.12 379.145 122.88 379.145 136.64C379.145 150.08 388.745 155.68 400.425 157.76L414.665 160.32C420.905 161.44 428.105 166.08 428.105 174.08C428.105 183.2 420.745 188.96 409.545 188.96C398.025 188.96 389.545 182.72 386.985 170.88L376.905 172.96C380.105 189.6 393.385 198.24 409.065 198.24C425.705 198.24 438.345 188.8 438.345 174.08C438.345 161.44 428.745 152.96 415.625 150.56L401.385 148C395.305 146.88 389.385 143.68 389.385 136.32C389.385 128 397.705 122.24 407.785 122.24C418.505 122.24 425.225 127.2 427.785 138.08ZM491.228 83.36V196H501.788V95.04L567.068 196H578.908V83.36H568.348V180.64L505.628 83.36H491.228ZM591.708 139.68C591.708 158.24 605.468 171.04 622.588 171.04C639.708 171.04 653.468 158.24 653.468 139.68C653.468 121.12 639.708 108.32 622.588 108.32C605.468 108.32 591.708 121.12 591.708 139.68ZM593.468 196H651.708V186.4H593.468V196ZM601.788 139.68C601.788 126.72 610.748 117.92 622.588 117.92C634.428 117.92 643.388 126.72 643.388 139.68C643.388 152.64 634.428 161.44 622.588 161.44C610.748 161.44 601.788 152.64 601.788 139.68ZM739.55 92.96V83.36H675.23L665.63 146.08L678.75 149.28C682.59 139.68 691.55 131.36 706.27 131.36C723.07 131.36 734.11 143.36 734.11 160C734.11 176.64 723.07 188.64 705.15 188.64C689.79 188.64 680.35 180.64 676.51 168.48L665.63 169.76C669.79 185.12 683.39 198.24 705.15 198.24C727.55 198.24 744.67 183.04 744.67 160C744.67 136.96 729.63 121.76 707.23 121.76C694.75 121.76 683.71 127.2 677.79 138.08L677.47 137.92L684.03 92.96H739.55ZM184.64 268.56L196.96 266.32C191.84 243.6 176.48 235.12 157.44 235.12C135.84 235.12 118.88 247.92 118.88 266.48C118.88 284.56 131.52 293.04 148.16 295.92L166.4 299.12C175.68 300.72 185.28 307.6 185.28 319.28C185.28 332.72 175.04 341.04 159.36 341.04C143.68 341.04 132.64 333.04 128.48 316.08L116 318.32C120.64 340.88 137.44 352.24 158.72 352.24C181.6 352.24 197.92 338.96 197.92 319.28C197.92 302 186.08 290.48 167.68 287.28L149.6 283.92C140.8 282.48 131.52 277.52 131.52 266.48C131.52 254.16 143.36 246.32 157.28 246.32C171.52 246.32 181.12 252.56 184.64 268.56ZM274.944 318V294.48C274.944 277.36 262.624 267.12 243.904 267.12C225.824 267.12 211.904 277.84 209.664 294.16L221.504 295.28C222.784 283.76 231.904 277.36 243.744 277.36C256.224 277.36 263.264 283.28 263.264 292.56C263.264 297.36 260.544 299.28 255.584 300.24L233.664 304.4C219.264 307.12 209.024 314.64 209.024 328.4C209.024 343.6 221.344 352.24 237.184 352.24C249.184 352.24 258.304 346 264.064 336.72H264.384C264.544 339.92 265.024 346.32 266.464 350H278.144C275.744 339.6 274.944 329.84 274.944 318ZM220.864 328.24C220.864 320.24 227.104 315.44 237.824 313.36L256.384 309.84C259.744 309.2 261.664 308.08 263.104 306.64H263.424V316.56C263.424 330.8 253.344 342 237.984 342C227.744 342 220.864 337.2 220.864 328.24ZM294.157 350H305.997V305.68C305.997 289.36 316.397 277.84 330.637 277.84C344.397 277.84 350.477 287.6 350.477 301.68V350H362.477V297.68C362.477 278.96 350.477 267.12 332.717 267.12C319.597 267.12 309.997 274.96 305.997 282.48H305.677C305.837 279.44 305.997 275.6 305.997 270.48V269.36H294.157V350ZM427.454 292.4L438.814 290.16C435.134 274 423.134 267.12 408.414 267.12C391.774 267.12 379.294 277.04 379.294 290.96C379.294 304.4 388.894 310.32 400.734 312.4L414.974 314.96C421.054 316.08 427.774 320.4 427.774 327.92C427.774 336.4 420.894 341.84 410.174 341.84C399.134 341.84 391.134 336.08 388.574 324.72L377.054 326.96C380.254 343.28 393.374 352.24 409.694 352.24C426.654 352.24 439.454 342.8 439.454 327.92C439.454 315.12 429.854 306.64 416.574 304.24L402.334 301.52C396.574 300.56 390.974 297.52 390.974 290.48C390.974 282.64 398.814 277.36 408.414 277.36C418.494 277.36 425.054 282 427.454 292.4ZM491.213 237.36V350H503.373V251.28L566.733 350H580.493V237.36H568.333V332.08L507.693 237.36H491.213ZM593.293 292.88C593.293 311.44 607.053 324.24 624.493 324.24C641.773 324.24 655.533 311.44 655.533 292.88C655.533 274.48 641.773 261.52 624.493 261.52C607.053 261.52 593.293 274.48 593.293 292.88ZM595.053 350H653.773V339.28H595.053V350ZM604.493 292.88C604.493 280.56 612.973 272.08 624.493 272.08C635.853 272.08 644.333 280.56 644.333 292.88C644.333 305.36 635.853 313.68 624.493 313.68C612.973 313.68 604.493 305.36 604.493 292.88ZM741.429 248.24V237.36H676.469L667.029 300.24L681.429 303.76C685.109 294.48 693.749 286.48 707.829 286.48C723.829 286.48 734.549 298 734.549 314C734.549 330 723.829 341.36 706.709 341.36C692.309 341.36 683.029 333.84 679.349 321.84L667.029 323.28C671.029 338.96 684.629 352.24 706.709 352.24C729.429 352.24 746.549 337.2 746.549 314C746.549 290.8 731.349 275.76 709.269 275.76C696.949 275.76 686.229 281.2 680.629 291.28L680.309 291.12L686.549 248.24H741.429ZM183.84 422.72L197.6 420.16C192.48 397.76 177.12 388.96 157.6 388.96C135.52 388.96 118.4 402.08 118.4 420.8C118.4 438.88 131.04 447.52 147.84 450.56L166.08 453.92C175.2 455.36 184.16 461.92 184.16 473.12C184.16 485.6 174.4 493.6 159.36 493.6C144.48 493.6 133.6 486.24 129.44 469.6L115.52 472.16C120.32 494.72 137.12 506.24 158.88 506.24C182.24 506.24 198.72 492.8 198.72 472.96C198.72 455.52 186.72 444 168.32 440.64L150.08 437.44C141.76 436 132.96 431.2 132.96 420.64C132.96 408.8 144.32 401.44 157.6 401.44C171.04 401.44 180.48 407.52 183.84 422.72ZM276.052 472V448.8C276.052 431.68 263.253 421.12 244.212 421.12C226.132 421.12 211.892 431.84 209.652 448.48L222.772 449.6C224.052 438.4 232.852 432.32 244.212 432.32C256.052 432.32 262.613 438.08 262.613 446.88C262.613 451.52 260.212 453.44 255.252 454.4L233.652 458.4C219.092 460.96 209.012 468.64 209.012 482.24C209.012 497.28 221.332 506.24 237.172 506.24C249.173 506.24 257.972 500 263.733 490.88H264.053C264.053 494.24 264.693 500.48 265.972 504H279.253C276.693 493.6 276.052 483.52 276.052 472ZM222.452 482.08C222.452 474.4 228.212 470.08 238.452 468L255.893 464.64C259.253 464 261.013 462.88 262.452 461.6H262.933V470.72C262.933 484.48 253.012 495.04 238.452 495.04C228.852 495.04 222.452 490.56 222.452 482.08ZM293.986 504H307.586V459.2C307.586 443.84 317.346 433.12 330.946 433.12C343.906 433.12 349.986 442.24 349.986 455.68V504H363.586V451.84C363.586 432.8 351.586 421.12 333.826 421.12C321.026 421.12 311.586 428.64 307.426 436.32H307.106C307.266 433.28 307.586 429.28 307.586 424.32V423.36H293.986V504ZM427.123 446.56L439.763 444.16C436.243 428.16 424.083 421.12 408.883 421.12C392.083 421.12 379.443 431.2 379.443 445.28C379.443 458.72 389.043 464.96 401.043 467.04L415.283 469.6C421.203 470.72 427.443 474.72 427.443 481.76C427.443 489.6 420.883 494.72 410.643 494.72C400.243 494.72 392.563 489.44 390.003 478.56L377.203 481.12C380.403 497.12 393.523 506.24 410.323 506.24C427.603 506.24 440.563 496.64 440.563 481.6C440.563 468.8 430.963 460.32 417.683 457.76L403.283 455.2C397.843 454.08 392.563 451.36 392.563 444.8C392.563 437.44 399.923 432.32 408.883 432.32C418.643 432.32 424.883 436.64 427.123 446.56ZM491.045 391.36V504H504.805V407.52L566.085 504H581.765V391.36H568.005V483.68L509.605 391.36H491.045ZM594.405 446.24C594.405 464.8 608.325 477.6 625.925 477.6C643.525 477.6 657.445 464.8 657.445 446.24C657.445 427.68 643.525 414.88 625.925 414.88C608.325 414.88 594.405 427.68 594.405 446.24ZM596.325 504H655.525V492.32H596.325V504ZM606.885 446.24C606.885 434.4 615.045 426.4 625.925 426.4C636.965 426.4 645.125 434.4 645.125 446.24C645.125 457.92 636.965 466.08 625.925 466.08C614.885 466.08 606.885 457.92 606.885 446.24ZM742.995 403.68V391.36H677.555L668.115 454.4L683.795 458.08C687.315 449.12 695.795 441.76 708.915 441.76C724.275 441.76 734.515 452.48 734.515 468C734.515 483.52 724.275 494.24 708.115 494.24C694.515 494.24 685.235 487.04 681.875 475.2L667.955 476.8C671.955 492.8 685.715 506.24 707.955 506.24C730.995 506.24 748.275 491.36 748.275 468C748.275 444.64 732.915 429.76 710.995 429.76C698.835 429.76 688.595 435.04 683.315 444.32L682.995 444.16L688.755 403.68H742.995ZM183.04 577.04L198.24 574.16C193.12 551.76 177.76 542.96 157.76 542.96C135.2 542.96 118.08 556.4 118.08 575.28C118.08 593.04 130.4 602.16 147.52 605.2L165.76 608.56C174.72 610.16 183.04 616.24 183.04 626.8C183.04 638.64 173.76 646.32 159.36 646.32C145.12 646.32 134.72 639.44 130.56 623.12L115.2 626C120 648.4 136.64 660.08 158.88 660.08C182.88 660.08 199.36 646.64 199.36 626.8C199.36 609.04 187.52 597.52 168.96 594.16L150.72 590.8C142.72 589.52 134.4 584.88 134.4 574.96C134.4 563.6 145.44 556.72 157.76 556.72C170.56 556.72 179.68 562.32 183.04 577.04ZM276.845 626V603.28C276.845 585.84 263.725 575.28 244.525 575.28C226.125 575.28 211.725 586 209.325 602.64L224.045 603.92C225.165 593.2 233.485 587.44 244.365 587.44C255.565 587.44 261.965 593.04 261.965 601.2C261.965 605.52 259.565 607.44 254.605 608.4L233.485 612.24C218.925 614.96 208.685 622.64 208.685 636.24C208.685 651.12 221.005 660.24 237.165 660.24C248.845 660.24 257.485 654.16 263.085 645.04H263.405C263.405 648.4 264.045 654.64 265.325 658H280.045C277.645 647.6 276.845 637.36 276.845 626ZM223.725 635.92C223.725 628.72 229.325 624.56 238.765 622.64L255.405 619.44C258.445 618.8 260.365 617.84 261.805 616.56H262.125V624.88C262.125 638.16 252.685 648.08 238.925 648.08C229.805 648.08 223.725 643.76 223.725 635.92ZM293.819 658H308.859V612.88C308.859 598.48 318.299 588.24 330.939 588.24C343.419 588.24 349.339 597.04 349.339 609.84V658H364.539V605.84C364.539 586.8 352.379 575.12 334.619 575.12C322.139 575.12 312.859 582.48 308.699 590H308.379C308.539 587.12 308.859 582.8 308.859 578.32V577.36H293.819V658ZM426.791 600.88L440.871 598.32C437.191 582.48 425.191 575.12 409.351 575.12C392.231 575.12 379.431 585.36 379.431 599.6C379.431 613.04 389.191 619.6 401.191 621.68L415.591 624.4C421.351 625.36 426.951 629.04 426.951 635.6C426.951 642.96 421.031 647.76 411.271 647.76C401.351 647.76 394.151 642.8 391.591 632.4L377.351 635.12C380.551 650.8 393.511 660.24 410.951 660.24C428.551 660.24 441.511 650.64 441.511 635.44C441.511 622.48 432.071 614 418.631 611.44L404.231 608.72C398.951 607.76 393.991 605.2 393.991 598.96C393.991 592.08 401.031 587.44 409.511 587.44C418.631 587.44 424.711 591.44 426.791 600.88ZM491.03 545.36V658H506.39V563.76L565.75 658H583.35V545.36H567.99V635.12L511.67 545.36H491.03ZM595.99 599.44C595.99 618 609.91 630.8 627.83 630.8C645.59 630.8 659.51 618 659.51 599.44C659.51 581.04 645.59 568.08 627.83 568.08C609.91 568.08 595.99 581.04 595.99 599.44ZM597.91 658H657.59V645.2H597.91V658ZM609.43 599.44C609.43 588.4 617.27 580.56 627.83 580.56C638.23 580.56 646.07 588.4 646.07 599.44C646.07 610.64 638.23 618.32 627.83 618.32C617.11 618.32 609.43 610.64 609.43 599.44ZM744.714 558.96V545.36H678.794L669.514 608.56L686.314 612.56C689.834 603.92 697.994 596.88 710.474 596.88C725.034 596.88 734.954 607.12 734.954 622C734.954 636.88 725.034 646.96 709.674 646.96C697.034 646.96 687.914 640.24 684.714 628.72L669.354 630.48C673.034 646.64 686.954 660.24 709.514 660.24C732.874 660.24 750.154 645.52 750.154 622C750.154 598.48 734.634 583.76 713.034 583.76C701.034 583.76 691.114 589.04 686.154 597.52L685.834 597.36L691.274 558.96H744.714ZM182.24 731.2L198.88 728.16C193.76 705.92 178.56 696.96 158.08 696.96C135.04 696.96 117.6 710.72 117.6 729.6C117.6 747.2 129.92 756.64 147.2 759.84L165.6 763.2C174.24 764.8 181.92 770.56 181.92 780.64C181.92 791.68 173.12 799.04 159.36 799.04C145.76 799.04 135.68 792.48 131.52 776.64L114.72 779.84C119.68 802.08 136.32 814.08 159.04 814.08C183.52 814.08 200 800.48 200 780.48C200 762.56 188.16 751.04 169.6 747.68L151.36 744.32C143.68 742.88 135.84 738.56 135.84 729.12C135.84 718.4 146.4 711.84 158.08 711.84C170.24 711.84 179.04 717.12 182.24 731.2ZM277.797 780V757.76C277.797 740 264.198 729.28 244.837 729.28C226.117 729.28 211.557 740 209.157 756.8L225.157 758.24C226.277 747.84 234.277 742.56 244.517 742.56C255.237 742.56 261.318 747.84 261.318 755.36C261.318 759.68 258.917 761.6 254.117 762.4L233.317 766.24C218.597 768.8 208.517 776.64 208.517 790.08C208.517 804.8 220.837 814.24 237.157 814.24C248.517 814.24 256.997 808.32 262.438 799.2H262.758C262.917 802.72 263.397 808.8 264.678 812H280.998C278.598 801.6 277.797 791.04 277.797 780ZM225.157 789.76C225.157 782.88 230.437 779.04 239.237 777.28L254.757 774.24C257.797 773.6 259.717 772.8 260.998 771.36H261.477V779.04C261.477 791.84 252.357 801.12 239.237 801.12C230.757 801.12 225.157 797.12 225.157 789.76ZM293.491 812H310.291V766.56C310.291 753.12 319.091 743.52 331.091 743.52C342.771 743.52 348.851 751.84 348.851 764V812H365.491V760C365.491 740.64 353.171 729.12 335.571 729.12C323.411 729.12 314.131 736.16 309.971 743.68H309.651C309.971 740.8 310.291 736.48 310.291 732.16V731.36H293.491V812ZM426.304 755.2L441.664 752.32C438.144 736.64 426.144 729.12 409.824 729.12C392.384 729.12 379.424 739.52 379.424 753.92C379.424 767.36 389.344 774.08 401.344 776.32L415.744 779.04C421.344 780 426.464 783.2 426.464 789.28C426.464 796.16 420.864 800.64 411.584 800.64C402.304 800.64 395.424 796 392.864 786.24L377.344 789.28C380.544 804.64 393.504 814.24 411.424 814.24C429.344 814.24 442.464 804.48 442.464 789.12C442.464 776.16 433.024 767.52 419.424 764.96L405.184 762.4C400.064 761.44 395.424 759.04 395.424 753.28C395.424 746.88 401.984 742.4 409.824 742.4C418.624 742.4 424.384 746.24 426.304 755.2ZM490.546 699.36V812H507.506V719.84L565.106 812H584.626V699.36H567.666V786.72L513.266 699.36H490.546ZM597.106 752.8C597.106 771.2 611.026 784.16 629.106 784.16C647.186 784.16 661.266 771.2 661.266 752.8C661.266 734.24 647.186 721.44 629.106 721.44C611.026 721.44 597.106 734.24 597.106 752.8ZM599.186 812H659.186V798.24H599.186V812ZM611.666 752.8C611.666 742.24 619.026 734.88 629.106 734.88C639.186 734.88 646.546 742.24 646.546 752.8C646.546 763.36 639.186 770.72 629.106 770.72C618.866 770.72 611.666 763.36 611.666 752.8ZM746.436 714.4V699.36H680.036L670.756 762.72L688.836 767.04C692.196 758.72 700.196 752 711.876 752C725.636 752 735.076 761.6 735.076 776C735.076 790.24 725.636 799.84 711.236 799.84C699.396 799.84 690.436 793.44 687.396 782.08L670.436 784C674.116 800.48 688.196 814.24 711.076 814.24C734.596 814.24 751.876 799.52 751.876 776C751.876 752.32 736.196 737.76 715.076 737.76C703.076 737.76 693.636 742.88 688.996 750.56L688.676 750.4L693.636 714.4H746.436Z" fill="black"/>
<path d="M944.24 115.52L962.32 112.16C957.2 89.92 942 80.96 921.04 80.96C897.52 80.96 880.08 95.04 880.08 113.92C880.08 131.52 892.08 141.28 909.52 144.64L928.08 148C936.56 149.44 943.6 155.04 943.6 164.32C943.6 174.72 935.12 181.76 922.16 181.76C909.2 181.76 899.6 175.68 895.44 160.32L877.2 163.84C882 185.92 898.64 198.08 922 198.08C946.96 198.08 963.44 184.32 963.44 164.16C963.44 146.08 951.76 134.56 933.04 131.2L914.64 127.68C907.44 126.4 899.92 122.24 899.92 113.44C899.92 103.2 910.32 97.12 921.2 97.12C932.56 97.12 941.2 102.08 944.24 115.52ZM1041.39 164V142.24C1041.39 124.32 1027.47 113.28 1007.79 113.28C988.91 113.28 974.19 124.16 971.79 141.12L989.23 142.56C990.03 132.64 997.87 127.68 1007.47 127.68C1017.71 127.68 1023.31 132.8 1023.31 139.68C1023.31 143.68 1021.07 145.6 1016.27 146.56L995.79 150.08C981.23 152.64 971.15 160.8 971.15 174.08C971.15 188.64 983.31 198.24 999.79 198.24C1010.99 198.24 1019.15 192.48 1024.59 183.36H1024.91C1025.07 186.88 1025.55 192.96 1026.67 196H1044.59C1042.19 185.76 1041.39 174.88 1041.39 164ZM989.23 173.6C989.23 167.04 994.19 163.68 1002.35 162.08L1017.07 159.04C1019.95 158.56 1021.71 157.76 1023.15 156.32H1023.47V163.2C1023.47 175.52 1014.67 184.16 1002.51 184.16C994.35 184.16 989.23 180.32 989.23 173.6ZM1055.97 196H1074.21V150.24C1074.21 137.76 1082.69 128.64 1093.89 128.64C1104.93 128.64 1110.85 136.64 1110.85 148.16V196H1129.09V144C1129.09 124.48 1116.61 113.12 1099.17 113.12C1087.33 113.12 1078.05 119.84 1073.89 127.52H1073.57C1073.89 124.64 1074.21 120 1074.21 116V115.36H1055.97V196ZM1188.62 139.52L1205.42 136.32C1201.74 120.8 1189.74 113.12 1172.94 113.12C1155.18 113.12 1142.22 123.68 1142.22 138.4C1142.22 151.84 1152.14 158.72 1164.3 161.12L1178.54 163.68C1184.14 164.8 1188.78 167.52 1188.78 173.12C1188.78 179.36 1183.66 183.52 1174.86 183.52C1166.06 183.52 1159.66 179.36 1157.1 170.24L1140.14 173.28C1143.34 188.32 1156.14 198.24 1174.54 198.24C1192.78 198.24 1206.22 188.48 1206.22 172.96C1206.22 159.84 1196.78 151.2 1183.02 148.64L1168.78 145.92C1163.98 145.12 1159.66 142.88 1159.66 137.44C1159.66 131.52 1165.74 127.52 1173.1 127.52C1181.26 127.52 1186.7 131.04 1188.62 139.52ZM1253.17 83.36V196H1271.73V106.08L1327.41 196H1348.85V83.36H1330.29V168.16L1277.97 83.36H1253.17ZM1361.17 136C1361.17 154.56 1375.25 167.36 1393.65 167.36C1411.89 167.36 1425.98 154.56 1425.98 136C1425.98 117.6 1411.89 104.64 1393.65 104.64C1375.25 104.64 1361.17 117.6 1361.17 136ZM1363.41 196H1423.73V181.12H1363.41V196ZM1377.01 136C1377.01 126.08 1383.89 119.04 1393.65 119.04C1403.25 119.04 1410.13 126.08 1410.13 136C1410.13 146.08 1403.25 152.96 1393.65 152.96C1383.73 152.96 1377.01 146.08 1377.01 136ZM1510.96 99.68V83.36H1443.92L1434.64 147.04L1454.16 151.52C1457.2 143.52 1465.04 137.28 1475.92 137.28C1489.04 137.28 1498.16 146.24 1498.16 160C1498.16 173.76 1489.04 182.56 1475.44 182.56C1464.4 182.56 1455.6 176.8 1452.72 165.44L1434.48 167.52C1438 184.32 1452.08 198.24 1475.28 198.24C1499.12 198.24 1516.4 183.68 1516.4 160C1516.4 136.32 1500.56 121.76 1479.76 121.76C1467.92 121.76 1458.8 126.88 1454.48 133.76L1454.16 133.6L1458.8 99.68H1510.96ZM941.877 269.84L961.397 266C956.277 244.08 941.077 234.8 919.637 234.8C895.637 234.8 878.037 249.2 878.037 268.24C878.037 285.68 889.877 295.92 907.637 299.28L926.197 302.64C934.517 304.08 940.917 309.36 940.917 318.16C940.917 327.6 932.917 334.32 920.597 334.32C908.437 334.32 898.997 328.88 894.837 313.84L875.157 317.68C880.117 339.6 896.597 352.08 920.597 352.08C946.037 352.08 962.677 338.16 962.677 317.84C962.677 299.6 950.837 288.08 932.117 284.56L913.717 281.2C906.837 279.92 899.797 275.92 899.797 267.76C899.797 257.84 909.717 252.4 919.957 252.4C930.517 252.4 938.997 256.88 941.877 269.84ZM1040.78 318V296.56C1040.78 278.48 1026.54 267.28 1006.7 267.28C987.656 267.28 972.616 278.32 970.216 295.28L988.936 296.88C989.736 287.44 997.256 282.64 1006.38 282.64C1015.98 282.64 1021.26 287.76 1021.26 294C1021.26 297.84 1019.18 299.76 1014.22 300.56L994.216 304.08C979.496 306.48 969.576 314.8 969.576 328.08C969.576 342.48 981.576 352.24 998.376 352.24C1009.42 352.24 1017.26 346.48 1022.7 337.52H1023.02C1023.02 341.2 1023.66 347.12 1024.62 350H1043.98C1041.74 339.76 1040.78 328.72 1040.78 318ZM989.096 327.44C989.096 321.2 993.896 318.16 1001.26 316.72L1015.02 313.84C1017.9 313.36 1019.66 312.56 1020.94 311.28H1021.26V317.36C1021.26 329.2 1012.94 337.2 1001.42 337.2C993.896 337.2 989.096 333.68 989.096 327.44ZM1054.23 350H1074.07V303.76C1074.07 292.24 1082.07 283.92 1092.63 283.92C1102.87 283.92 1108.79 291.28 1108.79 302.16V350H1128.63V298.16C1128.63 278.32 1116.15 267.12 1098.71 267.12C1087.19 267.12 1078.07 273.52 1073.75 281.2H1073.43C1073.75 278.48 1074.07 273.68 1074.07 269.84V269.36H1054.23V350ZM1186.72 293.68L1204.8 290.32C1201.12 274.96 1189.28 267.12 1171.84 267.12C1153.76 267.12 1140.8 277.84 1140.8 292.72C1140.8 306.16 1150.72 313.36 1163.04 315.76L1177.28 318.32C1182.72 319.44 1186.88 321.84 1186.88 326.96C1186.88 332.56 1182.08 336.4 1173.76 336.4C1165.6 336.4 1159.52 332.72 1156.96 324.08L1138.72 327.44C1141.92 342.16 1154.56 352.24 1173.6 352.24C1192.16 352.24 1205.76 342.48 1205.76 326.8C1205.76 313.52 1196.32 304.88 1182.56 302.32L1168.16 299.6C1163.68 298.64 1159.68 296.72 1159.68 291.76C1159.68 286.32 1165.28 282.64 1172 282.64C1179.68 282.64 1184.96 285.68 1186.72 293.68ZM1251.44 237.36V350H1271.6V262.32L1325.2 350H1348.56V237.36H1328.4V319.76L1278.32 237.36H1251.44ZM1360.88 289.36C1360.88 307.76 1374.96 320.72 1393.52 320.72C1412.09 320.72 1426.16 307.76 1426.16 289.36C1426.16 270.96 1412.09 258 1393.52 258C1374.96 258 1360.88 270.96 1360.88 289.36ZM1363.12 350H1423.93V334.16H1363.12V350ZM1377.84 289.36C1377.84 279.92 1384.4 273.36 1393.52 273.36C1402.8 273.36 1409.36 279.92 1409.36 289.36C1409.36 298.64 1402.8 305.36 1393.52 305.36C1384.08 305.36 1377.84 298.64 1377.84 289.36ZM1510.96 255.12V237.36H1443.28L1434.16 301.2L1454.96 305.84C1457.84 298.16 1465.36 292.4 1475.6 292.4C1487.92 292.4 1496.56 300.88 1496.56 314C1496.56 327.12 1487.92 335.44 1475.12 335.44C1465.04 335.44 1456.4 330 1453.68 318.8L1433.84 321.04C1437.36 338.16 1451.44 352.24 1474.96 352.24C1499.12 352.24 1516.56 337.84 1516.56 314C1516.56 290.16 1500.56 275.76 1479.92 275.76C1468.24 275.76 1459.44 280.88 1455.44 286.96L1455.12 286.8L1459.44 255.12H1510.96ZM939.359 424L960.319 420C955.199 398.08 939.999 388.8 918.079 388.8C893.599 388.8 875.999 403.52 875.999 422.72C875.999 440 887.679 450.4 905.599 453.92L924.159 457.44C932.319 458.88 938.079 463.68 938.079 471.84C938.079 480.64 930.559 487.04 918.879 487.04C907.359 487.04 898.399 482.08 894.239 467.36L873.119 471.52C878.079 493.44 894.559 505.92 918.879 505.92C944.959 505.92 961.599 492 961.599 471.68C961.599 453.12 949.919 441.6 931.039 438.08L912.479 434.56C906.079 433.44 899.519 429.6 899.519 421.92C899.519 412.64 909.119 407.52 918.399 407.52C928.319 407.52 936.479 411.84 939.359 424ZM1040.01 472V451.04C1040.01 432.8 1025.29 421.44 1005.13 421.44C985.93 421.44 970.73 432.32 968.17 449.6L988.49 451.2C989.13 442.08 996.17 437.76 1004.81 437.76C1013.77 437.76 1018.73 442.56 1018.73 448.32C1018.73 451.84 1016.81 453.76 1012.01 454.72L992.33 457.92C977.61 460.48 967.53 468.8 967.53 481.92C967.53 496.16 979.69 506.24 996.49 506.24C1007.37 506.24 1015.05 500.64 1020.33 491.68H1020.65C1020.65 495.36 1021.29 501.28 1022.25 504H1043.21C1040.81 493.76 1040.01 482.4 1040.01 472ZM988.81 481.28C988.81 475.52 993.13 472.8 1000.01 471.36L1012.81 468.64C1015.37 468.16 1017.13 467.52 1018.57 466.24H1018.89V471.52C1018.89 482.88 1010.73 490.24 1000.17 490.24C993.13 490.24 988.81 486.88 988.81 481.28ZM1052.35 504H1073.79V457.44C1073.79 446.88 1081.31 439.04 1090.91 439.04C1100.67 439.04 1106.43 446.08 1106.43 456.32V504H1127.87V452.16C1127.87 432.32 1115.23 421.12 1097.79 421.12C1086.59 421.12 1077.63 427.36 1073.31 435.04H1072.99C1073.31 432.32 1073.79 427.2 1073.79 423.84V423.36H1052.35V504ZM1184.67 448L1204.19 444.48C1200.51 429.28 1188.51 421.12 1170.59 421.12C1152.35 421.12 1139.07 432 1139.07 447.04C1139.07 460.48 1149.15 468 1161.47 470.4L1175.87 473.12C1181.15 474.08 1184.67 476.16 1184.67 480.8C1184.67 485.92 1180.51 489.44 1172.67 489.44C1164.99 489.44 1159.39 486.08 1156.83 477.92L1137.15 481.44C1140.35 495.84 1152.99 506.24 1172.51 506.24C1191.39 506.24 1204.99 496.32 1204.99 480.48C1204.99 467.2 1195.71 458.56 1181.79 455.84L1167.39 453.12C1163.07 452.32 1159.39 450.56 1159.39 445.92C1159.39 440.96 1164.67 437.6 1170.91 437.6C1178.11 437.6 1183.07 440.48 1184.67 448ZM1249.71 391.36V504H1271.47V418.56L1323.15 504H1348.43V391.36H1326.67V471.2L1278.67 391.36H1249.71ZM1360.59 442.56C1360.59 461.12 1374.83 473.92 1393.71 473.92C1412.43 473.92 1426.67 461.12 1426.67 442.56C1426.67 424.16 1412.43 411.2 1393.71 411.2C1374.83 411.2 1360.59 424.16 1360.59 442.56ZM1362.99 504H1424.27V487.04H1362.99V504ZM1378.67 442.56C1378.67 433.92 1384.91 427.52 1393.71 427.52C1402.35 427.52 1408.59 433.92 1408.59 442.56C1408.59 451.36 1402.35 457.6 1393.71 457.6C1384.59 457.6 1378.67 451.36 1378.67 442.56ZM1510.96 410.4V391.36H1442.96L1433.84 455.36L1455.76 460.32C1458.64 452.96 1466 447.68 1475.28 447.68C1486.96 447.68 1495.28 455.36 1495.28 468C1495.28 480.64 1486.96 488.16 1475.12 488.16C1465.84 488.16 1457.2 483.2 1454.8 472.32L1433.52 474.72C1436.72 492 1451.12 506.24 1474.8 506.24C1499.28 506.24 1516.72 492 1516.72 468C1516.72 444 1500.56 429.76 1480.24 429.76C1468.72 429.76 1460.4 434.72 1456.72 440L1456.4 439.84L1460.24 410.4H1510.96ZM937.309 578.32L959.709 574C954.589 552.24 939.389 542.8 916.989 542.8C892.029 542.8 874.269 557.84 874.269 577.04C874.269 594.16 885.789 605.04 904.029 608.56L922.589 612.08C930.589 613.52 935.709 618 935.709 625.68C935.709 633.68 928.669 639.76 917.629 639.76C906.749 639.76 898.109 635.28 893.949 620.88L871.389 625.36C876.509 647.12 892.829 659.92 917.789 659.92C944.349 659.92 960.989 645.84 960.989 625.36C960.989 606.64 949.309 595.12 930.429 591.6L911.869 588.08C905.789 586.96 899.709 583.28 899.709 576.24C899.709 567.44 908.829 562.8 917.469 562.8C926.589 562.8 934.589 566.64 937.309 578.32ZM1039.55 626V605.52C1039.55 586.96 1024.51 575.44 1004.19 575.44C984.672 575.44 969.312 586.48 966.752 603.76L988.352 605.52C988.992 596.88 995.712 592.88 1003.71 592.88C1012.19 592.88 1016.83 597.52 1016.83 602.64C1016.83 606 1014.91 607.92 1010.11 608.72L990.912 611.92C976.032 614.32 966.112 622.8 966.112 635.92C966.112 650 978.112 660.24 995.232 660.24C1005.79 660.24 1013.31 654.8 1018.43 645.84H1018.75C1018.75 649.68 1019.39 655.44 1020.35 658H1042.75C1040.51 647.76 1039.55 636.24 1039.55 626ZM988.832 635.12C988.832 629.68 992.992 627.28 999.072 626L1010.91 623.44C1013.47 622.96 1015.23 622.48 1016.51 621.2H1016.83V625.68C1016.83 636.56 1009.15 643.28 999.232 643.28C992.832 643.28 988.832 640.24 988.832 635.12ZM1050.77 658H1073.81V611.12C1073.81 601.52 1080.85 594.32 1089.81 594.32C1098.77 594.32 1104.53 600.88 1104.53 610.48V658H1127.57V606.32C1127.57 586.16 1114.77 575.12 1097.49 575.12C1086.61 575.12 1077.65 581.04 1073.33 588.72H1073.01C1073.33 586.16 1073.81 580.88 1073.81 577.68V577.36H1050.77V658ZM1182.93 602.32L1203.73 598.48C1200.05 583.44 1188.21 575.12 1169.65 575.12C1151.09 575.12 1137.81 586.16 1137.81 601.36C1137.81 614.8 1147.89 622.64 1160.37 625.04L1174.77 627.76C1179.89 628.72 1182.93 630.48 1182.93 634.64C1182.93 639.12 1179.09 642.32 1171.73 642.32C1164.69 642.32 1159.41 639.44 1156.85 631.76L1135.89 635.6C1139.09 649.68 1151.57 660.24 1171.73 660.24C1190.93 660.24 1204.69 650.32 1204.69 634.32C1204.69 620.88 1195.41 612.24 1181.33 609.52L1166.93 606.8C1162.93 606 1159.57 604.4 1159.57 600.24C1159.57 595.76 1164.37 592.72 1169.97 592.72C1176.69 592.72 1181.49 595.28 1182.93 602.32ZM1247.98 545.36V658H1271.34V574.8L1321.1 658H1348.3V545.36H1324.94V622.8L1279.02 545.36H1247.98ZM1360.46 595.92C1360.46 614.32 1374.7 627.28 1393.74 627.28C1412.78 627.28 1427.02 614.32 1427.02 595.92C1427.02 577.52 1412.78 564.56 1393.74 564.56C1374.7 564.56 1360.46 577.52 1360.46 595.92ZM1362.86 658H1424.62V640.08H1362.86V658ZM1379.66 595.92C1379.66 587.76 1385.42 581.84 1393.74 581.84C1402.06 581.84 1407.82 587.76 1407.82 595.92C1407.82 604.08 1402.06 610 1393.74 610C1385.1 610 1379.66 604.08 1379.66 595.92ZM1511.12 565.84V545.36H1442.48L1433.52 609.52L1456.72 614.8C1459.44 607.76 1466.48 602.8 1475.12 602.8C1486 602.8 1493.84 610 1493.84 622C1493.84 634 1486 641.04 1474.96 641.04C1466.64 641.04 1458.16 636.4 1455.92 625.68L1433.04 628.24C1436.24 645.84 1450.64 660.24 1474.64 660.24C1499.44 660.24 1516.88 646.16 1516.88 622C1516.88 597.84 1500.56 583.76 1480.56 583.76C1469.2 583.76 1461.2 588.72 1457.84 593.2L1457.52 593.04L1461.04 565.84H1511.12Z" fill="black"/>
<path d="M65.98 95.44C64.08 95.44 62.94 94.36 62.78 92.6L60.72 92.84C60.92 95.42 62.92 97.3 65.96 97.3C69 97.3 70.84 95.6 70.84 93.18C70.84 91.6 69.92 90.28 68.3 89.76V89.72C69.52 89.16 70.4 88.14 70.4 86.6C70.4 84.28 68.6 82.62 65.8 82.62C63.1 82.62 61.04 84.42 60.9 86.88L62.96 87.14C63.06 85.48 64.18 84.46 65.8 84.46C67.32 84.46 68.3 85.36 68.3 86.8C68.3 88.2 67.28 88.88 65.96 88.88H64.66V90.7H66.14C67.66 90.7 68.74 91.56 68.74 93.02C68.74 94.56 67.66 95.44 65.98 95.44ZM77.9806 97.3C81.7606 97.3 83.5206 94.08 83.5206 89.96C83.5206 85.82 81.7606 82.62 77.9806 82.62C74.2206 82.62 72.4406 85.82 72.4406 89.96C72.4406 94.08 74.2206 97.3 77.9806 97.3ZM74.5806 89.96C74.5806 86.88 75.5406 84.44 77.9806 84.44C80.4206 84.44 81.4006 86.88 81.4006 89.96C81.4006 93.04 80.4206 95.48 77.9806 95.48C75.5406 95.48 74.5806 93.04 74.5806 89.96ZM90.6564 97.3C94.4364 97.3 96.1964 94.08 96.1964 89.96C96.1964 85.82 94.4364 82.62 90.6564 82.62C86.8964 82.62 85.1164 85.82 85.1164 89.96C85.1164 94.08 86.8964 97.3 90.6564 97.3ZM87.2564 89.96C87.2564 86.88 88.2164 84.44 90.6564 84.44C93.0964 84.44 94.0764 86.88 94.0764 89.96C94.0764 93.04 93.0964 95.48 90.6564 95.48C88.2164 95.48 87.2564 93.04 87.2564 89.96Z" fill="black"/>
<path d="M65.98 251.44C64.08 251.44 62.94 250.36 62.78 248.6L60.72 248.84C60.92 251.42 62.92 253.3 65.96 253.3C69 253.3 70.84 251.6 70.84 249.18C70.84 247.6 69.92 246.28 68.3 245.76V245.72C69.52 245.16 70.4 244.14 70.4 242.6C70.4 240.28 68.6 238.62 65.8 238.62C63.1 238.62 61.04 240.42 60.9 242.88L62.96 243.14C63.06 241.48 64.18 240.46 65.8 240.46C67.32 240.46 68.3 241.36 68.3 242.8C68.3 244.2 67.28 244.88 65.96 244.88H64.66V246.7H66.14C67.66 246.7 68.74 247.56 68.74 249.02C68.74 250.56 67.66 251.44 65.98 251.44ZM81.9006 240.8V238.92H73.6006L72.4406 246.84L74.7006 247.38C75.1206 246.34 76.1206 245.5 77.5806 245.5C79.3006 245.5 80.4806 246.7 80.4806 248.5C80.4806 250.28 79.3006 251.48 77.5006 251.48C76.0206 251.48 74.9006 250.68 74.5206 249.26L72.4006 249.5C72.8606 251.56 74.6206 253.28 77.4806 253.28C80.4206 253.28 82.5806 251.44 82.5806 248.5C82.5806 245.54 80.6206 243.72 77.9806 243.72C76.4806 243.72 75.3006 244.36 74.7206 245.32L74.6806 245.3L75.3006 240.8H81.9006ZM89.6408 253.3C93.4208 253.3 95.1808 250.08 95.1808 245.96C95.1808 241.82 93.4208 238.62 89.6408 238.62C85.8808 238.62 84.1008 241.82 84.1008 245.96C84.1008 250.08 85.8808 253.3 89.6408 253.3ZM86.2408 245.96C86.2408 242.88 87.2008 240.44 89.6408 240.44C92.0808 240.44 93.0608 242.88 93.0608 245.96C93.0608 249.04 92.0808 251.48 89.6408 251.48C87.2008 251.48 86.2408 249.04 86.2408 245.96Z" fill="black"/>
<path d="M67.48 394.92L60.68 403.6V405.5H67.96V409H70.04V405.5H72.12V403.6H70.02V394.92H67.48ZM62.94 403.6V403.56L67.94 397.16H67.98V403.6H62.94ZM78.9767 409.3C82.7567 409.3 84.5167 406.08 84.5167 401.96C84.5167 397.82 82.7567 394.62 78.9767 394.62C75.2167 394.62 73.4367 397.82 73.4367 401.96C73.4367 406.08 75.2167 409.3 78.9767 409.3ZM75.5767 401.96C75.5767 398.88 76.5367 396.44 78.9767 396.44C81.4167 396.44 82.3967 398.88 82.3967 401.96C82.3967 405.04 81.4167 407.48 78.9767 407.48C76.5367 407.48 75.5767 405.04 75.5767 401.96ZM91.6525 409.3C95.4325 409.3 97.1925 406.08 97.1925 401.96C97.1925 397.82 95.4325 394.62 91.6525 394.62C87.8925 394.62 86.1125 397.82 86.1125 401.96C86.1125 406.08 87.8925 409.3 91.6525 409.3ZM88.2525 401.96C88.2525 398.88 89.2125 396.44 91.6525 396.44C94.0925 396.44 95.0725 398.88 95.0725 401.96C95.0725 405.04 94.0925 407.48 91.6525 407.48C89.2125 407.48 88.2525 405.04 88.2525 401.96Z" fill="black"/>
<path d="M67.48 550.92L60.68 559.6V561.5H67.96V565H70.04V561.5H72.12V559.6H70.02V550.92H67.48ZM62.94 559.6V559.56L67.94 553.16H67.98V559.6H62.94ZM82.8967 552.8V550.92H74.5967L73.4367 558.84L75.6967 559.38C76.1167 558.34 77.1167 557.5 78.5767 557.5C80.2967 557.5 81.4767 558.7 81.4767 560.5C81.4767 562.28 80.2967 563.48 78.4967 563.48C77.0167 563.48 75.8967 562.68 75.5167 561.26L73.3967 561.5C73.8567 563.56 75.6167 565.28 78.4767 565.28C81.4167 565.28 83.5767 563.44 83.5767 560.5C83.5767 557.54 81.6167 555.72 78.9767 555.72C77.4767 555.72 76.2967 556.36 75.7167 557.32L75.6767 557.3L76.2967 552.8H82.8967ZM90.6369 565.3C94.4169 565.3 96.1769 562.08 96.1769 557.96C96.1769 553.82 94.4169 550.62 90.6369 550.62C86.8769 550.62 85.0969 553.82 85.0969 557.96C85.0969 562.08 86.8769 565.3 90.6369 565.3ZM87.2369 557.96C87.2369 554.88 88.1969 552.44 90.6369 552.44C93.0769 552.44 94.0569 554.88 94.0569 557.96C94.0569 561.04 93.0769 563.48 90.6369 563.48C88.1969 563.48 87.2369 561.04 87.2369 557.96Z" fill="black"/>
<path d="M828.26 84.8V82.92H819.96L818.8 90.84L821.06 91.38C821.48 90.34 822.48 89.5 823.94 89.5C825.66 89.5 826.84 90.7 826.84 92.5C826.84 94.28 825.66 95.48 823.86 95.48C822.38 95.48 821.26 94.68 820.88 93.26L818.76 93.5C819.22 95.56 820.98 97.28 823.84 97.28C826.78 97.28 828.94 95.44 828.94 92.5C828.94 89.54 826.98 87.72 824.34 87.72C822.84 87.72 821.66 88.36 821.08 89.32L821.04 89.3L821.66 84.8H828.26ZM839.92 84.8V82.92H831.62L830.46 90.84L832.72 91.38C833.14 90.34 834.14 89.5 835.6 89.5C837.32 89.5 838.5 90.7 838.5 92.5C838.5 94.28 837.32 95.48 835.52 95.48C834.04 95.48 832.92 94.68 832.54 93.26L830.42 93.5C830.88 95.56 832.64 97.28 835.5 97.28C838.44 97.28 840.6 95.44 840.6 92.5C840.6 89.54 838.64 87.72 836 87.72C834.5 87.72 833.32 88.36 832.74 89.32L832.7 89.3L833.32 84.8H839.92ZM847.66 97.3C851.44 97.3 853.2 94.08 853.2 89.96C853.2 85.82 851.44 82.62 847.66 82.62C843.9 82.62 842.12 85.82 842.12 89.96C842.12 94.08 843.9 97.3 847.66 97.3ZM844.26 89.96C844.26 86.88 845.22 84.44 847.66 84.44C850.1 84.44 851.08 86.88 851.08 89.96C851.08 93.04 850.1 95.48 847.66 95.48C845.22 95.48 844.26 93.04 844.26 89.96Z" fill="black"/>
<path d="M827.32 242.62L829.32 242.38C829.02 240.4 827.66 238.62 824.7 238.62C820.94 238.62 818.84 241.68 818.84 246.26V246.32C818.84 251.12 821.42 253.3 824.5 253.3C827.26 253.3 829.46 251.3 829.46 248.5C829.46 245.74 827.42 243.74 824.82 243.74C822.84 243.74 821.5 244.86 820.96 246.22H820.92C820.9 242.52 822.44 240.42 824.66 240.42C826.24 240.42 827.04 241.34 827.32 242.62ZM821.46 248.5C821.46 246.74 822.72 245.52 824.42 245.52C826.12 245.52 827.38 246.74 827.38 248.5C827.38 250.28 826.12 251.48 824.42 251.48C822.72 251.48 821.46 250.28 821.46 248.5ZM836.488 253.3C840.268 253.3 842.028 250.08 842.028 245.96C842.028 241.82 840.268 238.62 836.488 238.62C832.728 238.62 830.948 241.82 830.948 245.96C830.948 250.08 832.728 253.3 836.488 253.3ZM833.088 245.96C833.088 242.88 834.048 240.44 836.488 240.44C838.928 240.44 839.908 242.88 839.908 245.96C839.908 249.04 838.928 251.48 836.488 251.48C834.048 251.48 833.088 249.04 833.088 245.96ZM849.164 253.3C852.944 253.3 854.704 250.08 854.704 245.96C854.704 241.82 852.944 238.62 849.164 238.62C845.404 238.62 843.624 241.82 843.624 245.96C843.624 250.08 845.404 253.3 849.164 253.3ZM845.764 245.96C845.764 242.88 846.724 240.44 849.164 240.44C851.604 240.44 852.584 242.88 852.584 245.96C852.584 249.04 851.604 251.48 849.164 251.48C846.724 251.48 845.764 249.04 845.764 245.96Z" fill="black"/>
<path d="M827.32 398.62L829.32 398.38C829.02 396.4 827.66 394.62 824.7 394.62C820.94 394.62 818.84 397.68 818.84 402.26V402.32C818.84 407.12 821.42 409.3 824.5 409.3C827.26 409.3 829.46 407.3 829.46 404.5C829.46 401.74 827.42 399.74 824.82 399.74C822.84 399.74 821.5 400.86 820.96 402.22H820.92C820.9 398.52 822.44 396.42 824.66 396.42C826.24 396.42 827.04 397.34 827.32 398.62ZM821.46 404.5C821.46 402.74 822.72 401.52 824.42 401.52C826.12 401.52 827.38 402.74 827.38 404.5C827.38 406.28 826.12 407.48 824.42 407.48C822.72 407.48 821.46 406.28 821.46 404.5ZM840.408 396.8V394.92H832.108L830.948 402.84L833.208 403.38C833.628 402.34 834.628 401.5 836.088 401.5C837.808 401.5 838.988 402.7 838.988 404.5C838.988 406.28 837.808 407.48 836.008 407.48C834.528 407.48 833.408 406.68 833.028 405.26L830.908 405.5C831.368 407.56 833.128 409.28 835.988 409.28C838.928 409.28 841.088 407.44 841.088 404.5C841.088 401.54 839.128 399.72 836.488 399.72C834.988 399.72 833.808 400.36 833.228 401.32L833.188 401.3L833.808 396.8H840.408ZM848.149 409.3C851.929 409.3 853.689 406.08 853.689 401.96C853.689 397.82 851.929 394.62 848.149 394.62C844.389 394.62 842.609 397.82 842.609 401.96C842.609 406.08 844.389 409.3 848.149 409.3ZM844.749 401.96C844.749 398.88 845.709 396.44 848.149 396.44C850.589 396.44 851.569 398.88 851.569 401.96C851.569 405.04 850.589 407.48 848.149 407.48C845.709 407.48 844.749 405.04 844.749 401.96Z" fill="black"/>
<path d="M818.56 550.92V552.8H826.22V552.84C823.16 555.78 821.16 560.22 820.98 565H823.24C823.34 560.2 825.2 556.08 828.94 552.9V550.92H818.56ZM835.453 565.3C839.233 565.3 840.993 562.08 840.993 557.96C840.993 553.82 839.233 550.62 835.453 550.62C831.693 550.62 829.913 553.82 829.913 557.96C829.913 562.08 831.693 565.3 835.453 565.3ZM832.053 557.96C832.053 554.88 833.013 552.44 835.453 552.44C837.893 552.44 838.873 554.88 838.873 557.96C838.873 561.04 837.893 563.48 835.453 563.48C833.013 563.48 832.053 561.04 832.053 557.96ZM848.129 565.3C851.909 565.3 853.669 562.08 853.669 557.96C853.669 553.82 851.909 550.62 848.129 550.62C844.369 550.62 842.589 553.82 842.589 557.96C842.589 562.08 844.369 565.3 848.129 565.3ZM844.729 557.96C844.729 554.88 845.689 552.44 848.129 552.44C850.569 552.44 851.549 554.88 851.549 557.96C851.549 561.04 850.569 563.48 848.129 563.48C845.689 563.48 844.729 561.04 844.729 557.96Z" fill="black"/>
<path d="M70.26 708.8V706.92H61.96L60.8 714.84L63.06 715.38C63.48 714.34 64.48 713.5 65.94 713.5C67.66 713.5 68.84 714.7 68.84 716.5C68.84 718.28 67.66 719.48 65.86 719.48C64.38 719.48 63.26 718.68 62.88 717.26L60.76 717.5C61.22 719.56 62.98 721.28 65.84 721.28C68.78 721.28 70.94 719.44 70.94 716.5C70.94 713.54 68.98 711.72 66.34 711.72C64.84 711.72 63.66 712.36 63.08 713.32L63.04 713.3L63.66 708.8H70.26ZM78.0002 721.3C81.7802 721.3 83.5402 718.08 83.5402 713.96C83.5402 709.82 81.7802 706.62 78.0002 706.62C74.2402 706.62 72.4602 709.82 72.4602 713.96C72.4602 718.08 74.2402 721.3 78.0002 721.3ZM74.6002 713.96C74.6002 710.88 75.5602 708.44 78.0002 708.44C80.4402 708.44 81.4202 710.88 81.4202 713.96C81.4202 717.04 80.4402 719.48 78.0002 719.48C75.5602 719.48 74.6002 717.04 74.6002 713.96ZM90.6759 721.3C94.4559 721.3 96.2159 718.08 96.2159 713.96C96.2159 709.82 94.4559 706.62 90.6759 706.62C86.9159 706.62 85.1359 709.82 85.1359 713.96C85.1359 718.08 86.9159 721.3 90.6759 721.3ZM87.2759 713.96C87.2759 710.88 88.2359 708.44 90.6759 708.44C93.1159 708.44 94.0959 710.88 94.0959 713.96C94.0959 717.04 93.1159 719.48 90.6759 719.48C88.2359 719.48 87.2759 717.04 87.2759 713.96Z" fill="black"/>
<path d="M871.16 795.104V812H872.984V797.456L878.792 812H880.88L886.688 797.456V812H888.488V795.104H885.704L879.824 810.08L873.944 795.104H871.16ZM898.144 812.336C901.576 812.336 904.264 809.768 904.264 805.952C904.264 802.136 901.576 799.568 898.144 799.568C894.688 799.568 892.024 802.136 892.024 805.952C892.024 809.768 894.688 812.336 898.144 812.336ZM893.848 805.952C893.848 803.192 895.648 801.2 898.144 801.2C900.64 801.2 902.44 803.192 902.44 805.952C902.44 808.712 900.64 810.704 898.144 810.704C895.648 810.704 893.848 808.712 893.848 805.952ZM907.445 812H909.221V805.28C909.221 802.928 910.637 801.512 912.629 801.512H914.021V799.904H912.629C910.877 799.904 909.821 800.792 909.245 802.088H909.197V800.096V799.904H907.445V812ZM921.639 812.336C924.543 812.336 926.295 810.68 926.895 808.904L925.143 808.688C924.735 809.768 923.583 810.776 921.663 810.776C919.215 810.776 917.463 809.096 917.367 806.264H926.943C926.967 805.976 926.967 805.76 926.967 805.544C926.967 801.824 924.711 799.568 921.399 799.568C918.015 799.568 915.543 802.184 915.543 805.976C915.543 809.792 918.063 812.336 921.639 812.336ZM917.463 804.752C917.703 802.976 919.071 801.128 921.423 801.128C923.775 801.128 925.095 802.904 925.143 804.752H917.463ZM935.305 799.904H937.177L940.177 810.08H940.225L943.105 799.904H945.121L948.049 810.08H948.097L951.049 799.904H952.921L949.153 812H947.041L944.137 801.92H944.089L941.209 812H939.097L935.305 799.904ZM960.867 812.336C963.771 812.336 965.523 810.68 966.123 808.904L964.371 808.688C963.963 809.768 962.811 810.776 960.891 810.776C958.443 810.776 956.691 809.096 956.595 806.264H966.171C966.195 805.976 966.195 805.76 966.195 805.544C966.195 801.824 963.939 799.568 960.627 799.568C957.243 799.568 954.771 802.184 954.771 805.976C954.771 809.792 957.291 812.336 960.867 812.336ZM956.691 804.752C956.931 802.976 958.299 801.128 960.651 801.128C963.003 801.128 964.323 802.904 964.371 804.752H956.691ZM969.395 799.904V812H971.171V799.904H969.395ZM969.227 797.288H971.339V795.104H969.227V797.288ZM980.424 817.04C983.832 817.04 986.088 815.24 986.088 811.592V799.904H984.312V800.384V801.896H984.264C983.52 800.48 982.056 799.568 980.112 799.568C976.776 799.568 974.352 802.16 974.352 805.736C974.352 809.336 976.776 811.808 980.112 811.808C982.008 811.808 983.52 810.896 984.264 809.408H984.312V811.832C984.312 814.256 982.8 815.48 980.448 815.48C978.408 815.48 977.04 814.568 976.44 812.864L974.712 813.296C975.384 815.384 977.352 817.04 980.424 817.04ZM976.176 805.736C976.176 803.024 977.952 801.176 980.28 801.176C982.608 801.176 984.36 803.024 984.36 805.736C984.36 808.472 982.608 810.272 980.28 810.272C977.952 810.272 976.176 808.472 976.176 805.736ZM990.031 812H991.807V805.352C991.807 802.904 993.271 801.176 995.407 801.176C997.471 801.176 998.479 802.712 998.479 804.752V812H1000.28V804.152C1000.28 801.344 998.479 799.568 995.815 799.568C993.847 799.568 992.407 800.744 991.807 801.872H991.759C991.783 801.32 991.807 800.816 991.807 800.36V795.104H990.031V812ZM1008.02 812H1009.94V810.392H1008.3C1007.34 810.392 1006.91 809.912 1006.91 809.048V801.512H1009.77V799.904H1006.91V796.544H1005.11V799.904H1002.69V801.512H1005.11V809.36C1005.11 811.256 1006.22 812 1008.02 812ZM1019.78 803.36L1021.48 803.024C1020.93 800.6 1019.13 799.568 1016.92 799.568C1014.43 799.568 1012.56 801.056 1012.56 803.144C1012.56 805.16 1014 806.048 1015.77 806.36L1017.91 806.744C1018.82 806.912 1019.83 807.56 1019.83 808.688C1019.83 809.96 1018.8 810.776 1017.19 810.776C1015.53 810.776 1014.33 809.912 1013.95 808.208L1012.22 808.544C1012.7 810.992 1014.67 812.336 1017.12 812.336C1019.66 812.336 1021.58 810.92 1021.58 808.688C1021.58 806.768 1020.14 805.496 1018.15 805.136L1016.01 804.728C1015.15 804.584 1014.31 804.128 1014.31 803.072C1014.31 801.896 1015.48 801.104 1016.92 801.104C1018.44 801.104 1019.42 801.8 1019.78 803.36ZM1024.69 809.672V812H1025.74L1024.11 815.144H1025.07L1027.01 811.976V809.672H1024.69ZM1042.33 817.04C1045.74 817.04 1048 815.24 1048 811.592V799.904H1046.22V800.384V801.896H1046.17C1045.43 800.48 1043.96 799.568 1042.02 799.568C1038.68 799.568 1036.26 802.16 1036.26 805.736C1036.26 809.336 1038.68 811.808 1042.02 811.808C1043.92 811.808 1045.43 810.896 1046.17 809.408H1046.22V811.832C1046.22 814.256 1044.71 815.48 1042.36 815.48C1040.32 815.48 1038.95 814.568 1038.35 812.864L1036.62 813.296C1037.29 815.384 1039.26 817.04 1042.33 817.04ZM1038.08 805.736C1038.08 803.024 1039.86 801.176 1042.19 801.176C1044.52 801.176 1046.27 803.024 1046.27 805.736C1046.27 808.472 1044.52 810.272 1042.19 810.272C1039.86 810.272 1038.08 808.472 1038.08 805.736ZM1051.94 795.104V812H1053.72V795.104H1051.94ZM1058.41 799.904L1062.23 809.36H1062.27L1066.09 799.904H1067.94L1060.95 816.704H1059.01L1061.36 811.424L1056.47 799.904H1058.41ZM1076.8 799.568C1074.71 799.568 1073.22 800.6 1072.48 801.992H1072.43C1072.45 801.584 1072.45 800.912 1072.45 800.408V799.904H1070.7V816.704H1072.48V811.544C1072.48 811.064 1072.48 810.368 1072.45 809.96H1072.5C1073.25 811.328 1074.71 812.336 1076.8 812.336C1080.13 812.336 1082.63 809.768 1082.63 805.952C1082.63 802.136 1080.13 799.568 1076.8 799.568ZM1072.43 805.952C1072.43 803.168 1074.11 801.176 1076.63 801.176C1079.13 801.176 1080.81 803.168 1080.81 805.952C1080.81 808.712 1079.13 810.704 1076.63 810.704C1074.11 810.704 1072.43 808.712 1072.43 805.952ZM1085.82 812H1087.6V805.352C1087.6 802.904 1089.06 801.176 1091.2 801.176C1093.26 801.176 1094.27 802.712 1094.27 804.752V812H1096.07V804.152C1096.07 801.344 1094.27 799.568 1091.61 799.568C1089.64 799.568 1088.2 800.744 1087.6 801.872H1087.55C1087.58 801.32 1087.6 800.816 1087.6 800.36V795.104H1085.82V812ZM1106.78 803.36L1108.48 803.024C1107.93 800.6 1106.13 799.568 1103.92 799.568C1101.43 799.568 1099.55 801.056 1099.55 803.144C1099.55 805.16 1100.99 806.048 1102.77 806.36L1104.91 806.744C1105.82 806.912 1106.83 807.56 1106.83 808.688C1106.83 809.96 1105.79 810.776 1104.19 810.776C1102.53 810.776 1101.33 809.912 1100.95 808.208L1099.22 808.544C1099.7 810.992 1101.67 812.336 1104.11 812.336C1106.66 812.336 1108.58 810.92 1108.58 808.688C1108.58 806.768 1107.14 805.496 1105.15 805.136L1103.01 804.728C1102.15 804.584 1101.31 804.128 1101.31 803.072C1101.31 801.896 1102.48 801.104 1103.92 801.104C1105.43 801.104 1106.42 801.8 1106.78 803.36ZM1121.65 810.824C1120.28 810.824 1119.25 810.176 1119.25 808.856C1119.25 807.68 1120.13 806.552 1123.33 806.096L1125.58 805.784V806.168C1125.58 808.736 1124 810.824 1121.65 810.824ZM1117.37 803.6L1119.15 803.768C1119.41 802.016 1120.81 801.104 1122.53 801.104C1124.21 801.104 1125.53 801.992 1125.53 803.936V804.32L1123.06 804.656C1118.89 805.208 1117.42 806.936 1117.42 808.856C1117.42 810.992 1119.13 812.336 1121.48 812.336C1123.78 812.336 1125.08 810.896 1125.68 809.576H1125.73C1125.73 810.152 1125.8 811.304 1125.99 812H1127.77C1127.43 810.632 1127.29 809.048 1127.29 807.2V803.984C1127.29 800.984 1125.25 799.568 1122.56 799.568C1119.85 799.568 1117.78 801.032 1117.37 803.6ZM1131.13 812H1132.9V805.352C1132.9 802.904 1134.46 801.176 1136.6 801.176C1138.66 801.176 1139.58 802.64 1139.58 804.752V812H1141.38V804.152C1141.38 801.344 1139.58 799.568 1136.91 799.568C1134.94 799.568 1133.5 800.744 1132.9 801.872H1132.86C1132.88 801.416 1132.9 800.84 1132.9 800.072V799.904H1131.13V812ZM1150.38 812.336C1152.47 812.336 1153.95 811.304 1154.67 809.912H1154.72C1154.7 810.344 1154.7 811.016 1154.7 811.52V812H1156.47V795.104H1154.67V800.36C1154.67 800.84 1154.67 801.536 1154.7 801.944H1154.65C1153.93 800.576 1152.44 799.568 1150.38 799.568C1147.02 799.568 1144.52 802.136 1144.52 805.952C1144.52 809.768 1146.99 812.336 1150.38 812.336ZM1146.35 805.952C1146.35 803.192 1148.03 801.2 1150.55 801.2C1153.04 801.2 1154.72 803.192 1154.72 805.952C1154.72 808.736 1153.04 810.728 1150.55 810.728C1148.03 810.728 1146.35 808.736 1146.35 805.952ZM1166.56 799.904V812H1168.33V799.904H1166.56ZM1166.39 797.288H1168.5V795.104H1166.39V797.288ZM1176.39 812H1178.31V810.392H1176.68C1175.72 810.392 1175.28 809.912 1175.28 809.048V801.512H1178.14V799.904H1175.28V796.544H1173.48V799.904H1171.06V801.512H1173.48V809.36C1173.48 811.256 1174.59 812 1176.39 812ZM1185.03 810.824C1183.66 810.824 1182.63 810.176 1182.63 808.856C1182.63 807.68 1183.52 806.552 1186.71 806.096L1188.97 805.784V806.168C1188.97 808.736 1187.38 810.824 1185.03 810.824ZM1180.76 803.6L1182.54 803.768C1182.8 802.016 1184.19 801.104 1185.92 801.104C1187.6 801.104 1188.92 801.992 1188.92 803.936V804.32L1186.45 804.656C1182.27 805.208 1180.81 806.936 1180.81 808.856C1180.81 810.992 1182.51 812.336 1184.86 812.336C1187.17 812.336 1188.46 810.896 1189.06 809.576H1189.11C1189.11 810.152 1189.18 811.304 1189.38 812H1191.15C1190.82 810.632 1190.67 809.048 1190.67 807.2V803.984C1190.67 800.984 1188.63 799.568 1185.94 799.568C1183.23 799.568 1181.17 801.032 1180.76 803.6ZM1194.51 795.104V812H1196.29V795.104H1194.51ZM1200.21 799.904V812H1201.99V799.904H1200.21ZM1200.05 797.288H1202.16V795.104H1200.05V797.288ZM1211.32 812.336C1214.22 812.336 1216.21 810.608 1216.72 808.112L1214.96 807.896C1214.53 809.576 1213.38 810.704 1211.32 810.704C1208.87 810.704 1207 808.736 1207 805.952C1207 803.168 1208.77 801.2 1211.24 801.2C1213.26 801.2 1214.51 802.304 1214.94 803.936L1216.69 803.72C1216.19 801.224 1214.1 799.568 1211.24 799.568C1207.86 799.568 1205.17 802.136 1205.17 805.952C1205.17 809.768 1207.84 812.336 1211.32 812.336ZM1226.56 803.36L1228.27 803.024C1227.72 800.6 1225.92 799.568 1223.71 799.568C1221.21 799.568 1219.34 801.056 1219.34 803.144C1219.34 805.16 1220.78 806.048 1222.56 806.36L1224.69 806.744C1225.6 806.912 1226.61 807.56 1226.61 808.688C1226.61 809.96 1225.58 810.776 1223.97 810.776C1222.32 810.776 1221.12 809.912 1220.73 808.208L1219 808.544C1219.48 810.992 1221.45 812.336 1223.9 812.336C1226.44 812.336 1228.36 810.92 1228.36 808.688C1228.36 806.768 1226.92 805.496 1224.93 805.136L1222.8 804.728C1221.93 804.584 1221.09 804.128 1221.09 803.072C1221.09 801.896 1222.27 801.104 1223.71 801.104C1225.22 801.104 1226.2 801.8 1226.56 803.36ZM1243.14 812.336C1246.04 812.336 1248.03 810.608 1248.54 808.112L1246.78 807.896C1246.35 809.576 1245.2 810.704 1243.14 810.704C1240.69 810.704 1238.82 808.736 1238.82 805.952C1238.82 803.168 1240.59 801.2 1243.06 801.2C1245.08 801.2 1246.33 802.304 1246.76 803.936L1248.51 803.72C1248.01 801.224 1245.92 799.568 1243.06 799.568C1239.68 799.568 1236.99 802.136 1236.99 805.952C1236.99 809.768 1239.66 812.336 1243.14 812.336ZM1257.13 812.336C1260.57 812.336 1263.25 809.768 1263.25 805.952C1263.25 802.136 1260.57 799.568 1257.13 799.568C1253.68 799.568 1251.01 802.136 1251.01 805.952C1251.01 809.768 1253.68 812.336 1257.13 812.336ZM1252.84 805.952C1252.84 803.192 1254.64 801.2 1257.13 801.2C1259.63 801.2 1261.43 803.192 1261.43 805.952C1261.43 808.712 1259.63 810.704 1257.13 810.704C1254.64 810.704 1252.84 808.712 1252.84 805.952ZM1266.44 812H1268.21V804.584C1268.21 802.688 1269.58 801.104 1271.48 801.104C1273.18 801.104 1274 802.424 1274 804.2V812H1275.77V804.584C1275.77 802.688 1277.14 801.104 1279.01 801.104C1280.74 801.104 1281.53 802.424 1281.53 804.2V812H1283.33V803.888C1283.33 801.44 1281.84 799.568 1279.35 799.568C1277.45 799.568 1276.13 800.72 1275.44 801.896H1275.39C1274.88 800.6 1273.78 799.568 1271.88 799.568C1269.99 799.568 1268.81 800.696 1268.26 801.68H1268.21V800.264V799.904H1266.44V812ZM1287.21 799.904V812H1288.98V799.904H1287.21ZM1287.04 797.288H1289.15V795.104H1287.04V797.288ZM1292.91 812H1294.68V805.352C1294.68 802.904 1296.24 801.176 1298.38 801.176C1300.44 801.176 1301.36 802.64 1301.36 804.752V812H1303.16V804.152C1303.16 801.344 1301.36 799.568 1298.69 799.568C1296.72 799.568 1295.28 800.744 1294.68 801.872H1294.64C1294.66 801.416 1294.68 800.84 1294.68 800.072V799.904H1292.91V812ZM1312.37 817.04C1315.78 817.04 1318.04 815.24 1318.04 811.592V799.904H1316.26V800.384V801.896H1316.21C1315.47 800.48 1314.01 799.568 1312.06 799.568C1308.73 799.568 1306.3 802.16 1306.3 805.736C1306.3 809.336 1308.73 811.808 1312.06 811.808C1313.96 811.808 1315.47 810.896 1316.21 809.408H1316.26V811.832C1316.26 814.256 1314.75 815.48 1312.4 815.48C1310.36 815.48 1308.99 814.568 1308.39 812.864L1306.66 813.296C1307.33 815.384 1309.3 817.04 1312.37 817.04ZM1308.13 805.736C1308.13 803.024 1309.9 801.176 1312.23 801.176C1314.56 801.176 1316.31 803.024 1316.31 805.736C1316.31 808.472 1314.56 810.272 1312.23 810.272C1309.9 810.272 1308.13 808.472 1308.13 805.736ZM1334.97 803.36L1336.67 803.024C1336.12 800.6 1334.32 799.568 1332.11 799.568C1329.62 799.568 1327.74 801.056 1327.74 803.144C1327.74 805.16 1329.18 806.048 1330.96 806.36L1333.1 806.744C1334.01 806.912 1335.02 807.56 1335.02 808.688C1335.02 809.96 1333.98 810.776 1332.38 810.776C1330.72 810.776 1329.52 809.912 1329.14 808.208L1327.41 808.544C1327.89 810.992 1329.86 812.336 1332.3 812.336C1334.85 812.336 1336.77 810.92 1336.77 808.688C1336.77 806.768 1335.33 805.496 1333.34 805.136L1331.2 804.728C1330.34 804.584 1329.5 804.128 1329.5 803.072C1329.5 801.896 1330.67 801.104 1332.11 801.104C1333.62 801.104 1334.61 801.8 1334.97 803.36ZM1345.35 812.336C1348.78 812.336 1351.47 809.768 1351.47 805.952C1351.47 802.136 1348.78 799.568 1345.35 799.568C1341.89 799.568 1339.23 802.136 1339.23 805.952C1339.23 809.768 1341.89 812.336 1345.35 812.336ZM1341.05 805.952C1341.05 803.192 1342.85 801.2 1345.35 801.2C1347.84 801.2 1349.64 803.192 1349.64 805.952C1349.64 808.712 1347.84 810.704 1345.35 810.704C1342.85 810.704 1341.05 808.712 1341.05 805.952ZM1360.21 812.336C1363.64 812.336 1366.33 809.768 1366.33 805.952C1366.33 802.136 1363.64 799.568 1360.21 799.568C1356.75 799.568 1354.09 802.136 1354.09 805.952C1354.09 809.768 1356.75 812.336 1360.21 812.336ZM1355.91 805.952C1355.91 803.192 1357.71 801.2 1360.21 801.2C1362.71 801.2 1364.51 803.192 1364.51 805.952C1364.51 808.712 1362.71 810.704 1360.21 810.704C1357.71 810.704 1355.91 808.712 1355.91 805.952ZM1369.51 812H1371.29V805.352C1371.29 802.904 1372.85 801.176 1374.98 801.176C1377.05 801.176 1377.96 802.64 1377.96 804.752V812H1379.76V804.152C1379.76 801.344 1377.96 799.568 1375.3 799.568C1373.33 799.568 1371.89 800.744 1371.29 801.872H1371.24C1371.26 801.416 1371.29 800.84 1371.29 800.072V799.904H1369.51V812ZM1398 812.336C1402.85 812.336 1406.81 808.424 1406.81 803.552C1406.81 798.68 1402.85 794.768 1398 794.768C1393.16 794.768 1389.22 798.68 1389.22 803.552C1389.22 808.424 1393.16 812.336 1398 812.336ZM1390.73 803.552C1390.73 799.52 1394 796.256 1398 796.256C1402.04 796.256 1405.28 799.52 1405.28 803.552C1405.28 807.608 1402.04 810.872 1398 810.872C1394 810.872 1390.73 807.608 1390.73 803.552ZM1393.64 805.904L1394.52 805.184C1395.39 806.384 1396.61 806.912 1398 806.912C1399.4 806.912 1400.64 806.384 1401.51 805.184L1402.4 805.904C1401.32 807.416 1399.73 808.112 1398 808.112C1396.28 808.112 1394.72 807.416 1393.64 805.904ZM1394.33 801.608C1394.33 802.304 1394.88 802.856 1395.58 802.856C1396.28 802.856 1396.8 802.304 1396.8 801.608C1396.8 800.936 1396.28 800.384 1395.58 800.384C1394.88 800.384 1394.33 800.936 1394.33 801.608ZM1399.2 801.608C1399.2 802.304 1399.76 802.856 1400.45 802.856C1401.15 802.856 1401.68 802.304 1401.68 801.608C1401.68 800.936 1401.15 800.384 1400.45 800.384C1399.76 800.384 1399.2 800.936 1399.2 801.608Z" fill="black"/>
</svg>
