<svg width="1600" height="1000" viewBox="0 0 1600 1000" fill="none" xmlns="http://www.w3.org/2000/svg">
<rect width="1600" height="1000" fill="#EBEBEB"/>
<rect x="80" y="112" width="1440" height="240" rx="10" fill="black"/>
<rect x="80" y="396" width="1440" height="240" rx="10" fill="black"/>
<rect x="80" y="680" width="1440" height="240" rx="10" fill="black"/>
<rect x="1341" y="740" width="139" height="138" rx="20" fill="#3399FF"/>
<rect x="300" y="142" width="340" height="210" fill="#E6300B"/>
<circle cx="1410.5" cy="527.5" r="69.5" fill="#FFD700"/>
<circle cx="1251.5" cy="527.5" r="69.5" fill="#FFD700"/>
<circle cx="1092.5" cy="527.5" r="69.5" fill="#FFD700"/>
<path d="M181.4 213.2V310H206.4V213.2L206.8 212.8L241 247L257.4 230.6L193.8 166.8L130.2 230.6L146.6 247L181 212.8L181.4 213.2Z" fill="#EBEBEB"/>
<path d="M181.4 550L181 550.4L146.6 516.2L130.2 532.6L193.8 596.4L257.4 532.6L241 516.2L206.8 550.4L206.4 550V453.2H181.4V550Z" fill="#EBEBEB"/>
<path d="M1067.41 497.68V554H1079.09V512.4L1103.97 554H1117.57V497.68H1105.89V536.4L1082.93 497.68H1067.41Z" fill="black"/>
<path d="M1256.52 565.84H1270.6L1260.52 554.24C1273 551.04 1281.96 540.4 1281.96 525.84C1281.96 508.32 1269 496.48 1252.52 496.48C1235.96 496.48 1223.08 508.32 1223.08 525.84C1223.08 541.28 1233.08 552.32 1246.84 554.72L1256.52 565.84ZM1235.4 525.84C1235.4 515.12 1242.28 507.04 1252.52 507.04C1262.76 507.04 1269.64 515.12 1269.64 525.84C1269.64 536.56 1262.76 544.64 1252.52 544.64C1242.28 544.64 1235.4 536.56 1235.4 525.84Z" fill="black"/>
<path d="M1389.25 554H1401.57V532.56H1411.01C1415.89 532.56 1418.37 535.2 1419.17 540L1421.01 550.8C1421.25 552.08 1421.41 553.04 1421.73 554H1434.69C1434.05 552.72 1433.49 551.12 1433.17 549.52L1431.25 538.72C1430.21 532.88 1427.01 530.48 1423.89 529.6C1429.09 527.84 1433.73 523.12 1433.73 515.12C1433.73 505.28 1427.09 497.68 1415.65 497.68H1389.25V554ZM1401.57 522.32V508.24H1413.73C1418.45 508.24 1421.65 510.56 1421.65 515.28C1421.65 520 1418.45 522.32 1413.73 522.32H1401.57Z" fill="black"/>
<ellipse cx="1251.5" cy="809" rx="69.5" ry="69" fill="#00CC66"/>
<path d="M1269.42 790.92V780.68H1235.1L1230.62 812.76L1242.22 815.4C1243.58 811.88 1247.1 809.4 1251.42 809.4C1256.86 809.4 1260.78 813 1260.78 819C1260.78 825 1256.86 828.52 1251.34 828.52C1247.18 828.52 1242.94 826.2 1241.82 820.84L1230.38 822.12C1231.98 830.92 1239.18 838.12 1251.18 838.12C1263.58 838.12 1272.3 831.08 1272.3 819C1272.3 806.92 1264.14 799.88 1254.14 799.88C1248.46 799.88 1244.46 802.36 1242.78 804.6L1242.62 804.52L1244.38 790.92H1269.42Z" fill="black"/>
<path d="M1387.17 779.68V836H1399.49V812.8H1422.53V836H1434.85V779.68H1422.53V802.24H1399.49V779.68H1387.17Z" fill="white"/>
<line x1="120" y1="141.5" x2="1480" y2="141.5" stroke="#EBEBEB"/>
<line x1="120" y1="425.5" x2="1480" y2="425.5" stroke="#EBEBEB"/>
<line x1="120" y1="709.5" x2="1480" y2="709.5" stroke="#EBEBEB"/>
<path d="M85.568 64.94L86.816 64.712C86.432 63.044 85.292 62.372 83.756 62.372C82.028 62.372 80.72 63.404 80.72 64.82C80.72 66.14 81.644 66.848 82.94 67.088L84.32 67.34C84.968 67.46 85.544 67.892 85.544 68.648C85.544 69.476 84.884 70.028 83.852 70.028C82.832 70.028 82.076 69.536 81.764 68.348L80.504 68.588C80.876 70.256 82.124 71.156 83.828 71.156C85.664 71.156 86.9 70.136 86.9 68.636C86.9 67.292 86.012 66.428 84.62 66.176L83.252 65.924C82.676 65.816 82.088 65.492 82.088 64.784C82.088 63.98 82.88 63.488 83.756 63.488C84.668 63.488 85.328 63.884 85.568 64.94ZM93.1908 66.932C93.1908 65.6 92.1948 64.796 90.7428 64.796C89.3388 64.796 88.2468 65.6 88.0668 66.86L89.2668 66.968C89.3508 66.188 89.9508 65.792 90.7188 65.792C91.5228 65.792 91.9788 66.188 91.9788 66.752C91.9788 67.076 91.7988 67.22 91.4388 67.28L89.8788 67.568C88.7748 67.76 88.0188 68.348 88.0188 69.356C88.0188 70.46 88.9428 71.168 90.1668 71.168C91.0188 71.168 91.6548 70.724 92.0148 70.088H92.0388V71H93.1908V66.932ZM89.2668 69.332C89.2668 68.816 89.6628 68.528 90.3228 68.396L91.4868 68.168C91.7148 68.12 91.8588 68.06 91.9548 67.952H91.9908V68.528C91.9908 69.488 91.3068 70.184 90.3228 70.184C89.6868 70.184 89.2668 69.884 89.2668 69.332ZM94.8484 71H96.1084V67.592C96.1084 66.584 96.7684 65.864 97.6684 65.864C98.5444 65.864 99.0004 66.488 99.0004 67.4V71H100.248V67.1C100.248 65.648 99.3244 64.784 98.0044 64.784C97.0924 64.784 96.3964 65.312 96.0844 65.876H96.0604C96.0844 65.66 96.1084 65.336 96.1084 65.012V64.952H94.8484V71ZM105.289 66.74L106.441 66.524C106.177 65.348 105.277 64.784 104.053 64.784C102.745 64.784 101.773 65.564 101.773 66.644C101.773 67.652 102.517 68.156 103.417 68.324L104.497 68.528C104.917 68.6 105.301 68.84 105.301 69.296C105.301 69.812 104.881 70.148 104.185 70.148C103.489 70.148 102.973 69.8 102.781 69.068L101.617 69.296C101.857 70.448 102.829 71.168 104.173 71.168C105.517 71.168 106.501 70.436 106.501 69.284C106.501 68.312 105.793 67.664 104.773 67.472L103.705 67.28C103.321 67.208 102.973 67.028 102.973 66.596C102.973 66.116 103.465 65.78 104.053 65.78C104.713 65.78 105.145 66.068 105.289 66.74ZM111.068 62.552V71H112.34V64.088L116.66 71H118.124V62.552H116.852V69.104L112.772 62.552H111.068ZM119.06 66.56C119.06 67.94 120.104 68.912 121.46 68.912C122.816 68.912 123.872 67.94 123.872 66.56C123.872 65.168 122.816 64.208 121.46 64.208C120.104 64.208 119.06 65.168 119.06 66.56ZM119.216 71H123.716V69.968H119.216V71ZM120.152 66.56C120.152 65.768 120.704 65.216 121.46 65.216C122.216 65.216 122.768 65.768 122.768 66.56C122.768 67.352 122.216 67.904 121.46 67.904C120.692 67.904 120.152 67.352 120.152 66.56ZM130.739 63.68V62.552H125.759L125.063 67.304L126.419 67.628C126.671 67.004 127.271 66.5 128.147 66.5C129.179 66.5 129.887 67.22 129.887 68.3C129.887 69.368 129.179 70.088 128.099 70.088C127.211 70.088 126.539 69.608 126.311 68.756L125.039 68.9C125.315 70.136 126.371 71.168 128.087 71.168C129.851 71.168 131.147 70.064 131.147 68.3C131.147 66.524 129.971 65.432 128.387 65.432C127.487 65.432 126.779 65.816 126.431 66.392L126.407 66.38L126.779 63.68H130.739ZM135.062 62.552V63.68H139.658V63.704C137.822 65.468 136.622 68.132 136.514 71H137.87C137.93 68.12 139.046 65.648 141.29 63.74V62.552H135.062ZM145.318 71.18C147.586 71.18 148.642 69.248 148.642 66.776C148.642 64.292 147.586 62.372 145.318 62.372C143.062 62.372 141.994 64.292 141.994 66.776C141.994 69.248 143.062 71.18 145.318 71.18ZM143.278 66.776C143.278 64.928 143.854 63.464 145.318 63.464C146.782 63.464 147.37 64.928 147.37 66.776C147.37 68.624 146.782 70.088 145.318 70.088C143.854 70.088 143.278 68.624 143.278 66.776ZM153.043 71.18C155.311 71.18 156.367 69.248 156.367 66.776C156.367 64.292 155.311 62.372 153.043 62.372C150.787 62.372 149.719 64.292 149.719 66.776C149.719 69.248 150.787 71.18 153.043 71.18ZM151.003 66.776C151.003 64.928 151.579 63.464 153.043 63.464C154.507 63.464 155.095 64.928 155.095 66.776C155.095 68.624 154.507 70.088 153.043 70.088C151.579 70.088 151.003 68.624 151.003 66.776ZM160.723 66.236V67.304H170.563V66.236H160.723ZM180.014 64.94L181.262 64.712C180.878 63.044 179.738 62.372 178.202 62.372C176.474 62.372 175.166 63.404 175.166 64.82C175.166 66.14 176.09 66.848 177.386 67.088L178.766 67.34C179.414 67.46 179.99 67.892 179.99 68.648C179.99 69.476 179.33 70.028 178.298 70.028C177.278 70.028 176.522 69.536 176.21 68.348L174.95 68.588C175.322 70.256 176.57 71.156 178.274 71.156C180.11 71.156 181.346 70.136 181.346 68.636C181.346 67.292 180.458 66.428 179.066 66.176L177.698 65.924C177.122 65.816 176.534 65.492 176.534 64.784C176.534 63.98 177.326 63.488 178.202 63.488C179.114 63.488 179.774 63.884 180.014 64.94ZM187.636 66.932C187.636 65.6 186.64 64.796 185.188 64.796C183.784 64.796 182.692 65.6 182.512 66.86L183.712 66.968C183.796 66.188 184.396 65.792 185.164 65.792C185.968 65.792 186.424 66.188 186.424 66.752C186.424 67.076 186.244 67.22 185.884 67.28L184.324 67.568C183.22 67.76 182.464 68.348 182.464 69.356C182.464 70.46 183.388 71.168 184.612 71.168C185.464 71.168 186.1 70.724 186.46 70.088H186.484V71H187.636V66.932ZM183.712 69.332C183.712 68.816 184.108 68.528 184.768 68.396L185.932 68.168C186.16 68.12 186.304 68.06 186.4 67.952H186.436V68.528C186.436 69.488 185.752 70.184 184.768 70.184C184.132 70.184 183.712 69.884 183.712 69.332ZM189.294 71H190.554V67.592C190.554 66.584 191.214 65.864 192.114 65.864C192.99 65.864 193.446 66.488 193.446 67.4V71H194.694V67.1C194.694 65.648 193.77 64.784 192.45 64.784C191.538 64.784 190.842 65.312 190.53 65.876H190.506C190.53 65.66 190.554 65.336 190.554 65.012V64.952H189.294V71ZM199.735 66.74L200.887 66.524C200.623 65.348 199.723 64.784 198.499 64.784C197.191 64.784 196.219 65.564 196.219 66.644C196.219 67.652 196.963 68.156 197.863 68.324L198.943 68.528C199.363 68.6 199.747 68.84 199.747 69.296C199.747 69.812 199.327 70.148 198.631 70.148C197.935 70.148 197.419 69.8 197.227 69.068L196.063 69.296C196.303 70.448 197.275 71.168 198.619 71.168C199.963 71.168 200.947 70.436 200.947 69.284C200.947 68.312 200.239 67.664 199.219 67.472L198.151 67.28C197.767 67.208 197.419 67.028 197.419 66.596C197.419 66.116 197.911 65.78 198.499 65.78C199.159 65.78 199.591 66.068 199.735 66.74ZM205.513 62.552V71H206.785V64.088L211.105 71H212.569V62.552H211.297V69.104L207.217 62.552H205.513ZM213.505 66.56C213.505 67.94 214.549 68.912 215.905 68.912C217.261 68.912 218.317 67.94 218.317 66.56C218.317 65.168 217.261 64.208 215.905 64.208C214.549 64.208 213.505 65.168 213.505 66.56ZM213.661 71H218.161V69.968H213.661V71ZM214.597 66.56C214.597 65.768 215.149 65.216 215.905 65.216C216.661 65.216 217.213 65.768 217.213 66.56C217.213 67.352 216.661 67.904 215.905 67.904C215.137 67.904 214.597 67.352 214.597 66.56ZM225.185 63.68V62.552H220.205L219.509 67.304L220.865 67.628C221.117 67.004 221.717 66.5 222.593 66.5C223.625 66.5 224.333 67.22 224.333 68.3C224.333 69.368 223.625 70.088 222.545 70.088C221.657 70.088 220.985 69.608 220.757 68.756L219.485 68.9C219.761 70.136 220.817 71.168 222.533 71.168C224.297 71.168 225.593 70.064 225.593 68.3C225.593 66.524 224.417 65.432 222.833 65.432C221.933 65.432 221.225 65.816 220.877 66.392L220.853 66.38L221.225 63.68H225.185ZM229.519 71H230.935L232.423 68.804H232.447L233.935 71H235.351L233.203 67.952L235.327 64.952H233.911L232.447 67.112H232.423L230.959 64.952H229.555L231.679 67.952L229.519 71ZM239.901 62.552V71H241.173V64.088L245.493 71H246.957V62.552H245.685V69.104L241.605 62.552H239.901ZM248.345 62.552H249.917L252.077 66.26H252.113L254.261 62.552H255.833L252.761 67.556H251.429V66.872H252.761V71H251.429V67.556L248.345 62.552ZM260.386 71.18C262.498 71.18 263.806 69.944 264.106 68.36L262.834 68.204C262.57 69.284 261.754 70.016 260.386 70.016C258.658 70.016 257.41 68.708 257.41 66.776C257.41 64.844 258.634 63.524 260.362 63.524C261.706 63.524 262.546 64.256 262.798 65.324L264.082 65.156C263.782 63.596 262.462 62.372 260.362 62.372C257.842 62.372 256.09 64.184 256.09 66.776C256.09 69.356 257.866 71.18 260.386 71.18ZM274.804 62.552H267.82V63.644H270.676V71H271.96V63.644H274.804V62.552ZM275.229 71H276.489V67.808C276.489 66.692 277.113 66.068 278.145 66.068C278.373 66.068 278.517 66.092 278.781 66.152V64.988C278.589 64.928 278.397 64.904 278.157 64.904C277.389 64.904 276.765 65.312 276.429 66.008H276.405C276.417 65.756 276.441 65.348 276.441 65.024V64.952H275.229V71ZM284.686 66.932C284.686 65.6 283.69 64.796 282.238 64.796C280.834 64.796 279.742 65.6 279.562 66.86L280.762 66.968C280.846 66.188 281.446 65.792 282.214 65.792C283.018 65.792 283.474 66.188 283.474 66.752C283.474 67.076 283.294 67.22 282.934 67.28L281.374 67.568C280.27 67.76 279.514 68.348 279.514 69.356C279.514 70.46 280.438 71.168 281.662 71.168C282.514 71.168 283.15 70.724 283.51 70.088H283.534V71H284.686V66.932ZM280.762 69.332C280.762 68.816 281.158 68.528 281.818 68.396L282.982 68.168C283.21 68.12 283.354 68.06 283.45 67.952H283.486V68.528C283.486 69.488 282.802 70.184 281.818 70.184C281.182 70.184 280.762 69.884 280.762 69.332ZM286.344 71H287.604V67.592C287.604 66.584 288.264 65.864 289.164 65.864C290.04 65.864 290.496 66.488 290.496 67.4V71H291.744V67.1C291.744 65.648 290.82 64.784 289.5 64.784C288.588 64.784 287.892 65.312 287.58 65.876H287.556C287.58 65.66 287.604 65.336 287.604 65.012V64.952H286.344V71ZM296.785 66.74L297.937 66.524C297.673 65.348 296.773 64.784 295.549 64.784C294.241 64.784 293.269 65.564 293.269 66.644C293.269 67.652 294.013 68.156 294.913 68.324L295.993 68.528C296.413 68.6 296.797 68.84 296.797 69.296C296.797 69.812 296.377 70.148 295.681 70.148C294.985 70.148 294.469 69.8 294.277 69.068L293.113 69.296C293.353 70.448 294.325 71.168 295.669 71.168C297.013 71.168 297.997 70.436 297.997 69.284C297.997 68.312 297.289 67.664 296.269 67.472L295.201 67.28C294.817 67.208 294.469 67.028 294.469 66.596C294.469 66.116 294.961 65.78 295.549 65.78C296.209 65.78 296.641 66.068 296.785 66.74ZM299.381 64.952V71H300.641V64.952H299.381ZM299.333 63.872H300.689V62.552H299.333V63.872ZM304.521 71.06C304.857 71.06 305.205 71.024 305.493 70.964V69.92C305.265 69.944 305.097 69.956 304.845 69.956C304.329 69.956 304.125 69.74 304.125 69.2V66.044H305.445V64.952H304.125V63.224H302.877V64.952H301.821V66.044H302.877V69.38C302.877 70.652 303.477 71.06 304.521 71.06Z" fill="black"/>
<path d="M329.52 176.28V303H416.64V279.96H357.24V250.08H408V227.76H357.24V199.32H416.64V176.28H329.52ZM422.02 303H450.82L467.74 274.56H468.1L485.02 303H513.82L484.3 257.28L513.46 212.28H484.66L468.1 240.36H467.74L451.18 212.28H422.56L451.9 257.28L422.02 303ZM521.345 212.28V303H547.265V212.28H521.345ZM521.345 200.76H547.265V176.28H521.345V200.76ZM598.214 303.9C603.614 303.9 609.734 303.36 614.414 302.46V281.22C610.994 281.4 608.834 281.58 605.774 281.58C598.574 281.58 594.974 279.42 594.974 271.32V234.6H613.694V212.28H594.974V186.36H569.234V212.28H554.114V234.6H569.234V275.46C569.234 297.06 579.674 303.9 598.214 303.9Z" fill="#EBEBEB"/>
<path d="M671.6 175.6H689.6L705.2 203.6H705.4L720.9 175.6H738.9L713 218.7H697.6V213.2H713V246H697.6V218.7L671.6 175.6ZM756.668 247.4C772.068 247.4 783.668 236.4 783.668 220.8C783.668 205.2 772.068 194.2 756.668 194.2C741.268 194.2 729.668 205.2 729.668 220.8C729.668 236.4 741.268 247.4 756.668 247.4ZM744.068 220.8C744.068 212.6 748.868 206.6 756.668 206.6C764.468 206.6 769.268 212.6 769.268 220.8C769.268 229 764.468 235 756.668 235C748.868 235 744.068 229 744.068 220.8ZM788.829 246H803.229V221.2C803.229 212.6 808.129 208.8 816.029 208.8C817.929 208.8 818.929 209 820.829 209.3V195.6C819.129 195.3 817.829 195.2 816.229 195.2C810.629 195.2 805.329 197.6 802.129 204H801.929C802.129 202 802.429 198.8 802.429 195.9V195.6H788.829V246ZM858.998 246H874.898L853.998 216.5L874.098 195.6H857.098L839.498 214.6V175.6H825.098V246H839.498V231L844.698 225.4L858.998 246ZM938.56 196.2L952.56 193.5C949.36 179.9 939.86 174 925.86 174C910.26 174 899.16 183.4 899.16 195.4C899.16 206.1 906.36 212.9 917.76 215.1L929.36 217.3C934.36 218.2 937.56 221 937.56 225.8C937.56 230.8 933.16 234.6 926.26 234.6C919.46 234.6 914.06 231.8 911.46 222.8L897.36 225.6C900.56 239.2 910.76 247.2 926.36 247.2C942.96 247.2 953.36 238.4 953.36 225.6C953.36 213.9 946.06 206.7 934.26 204.5L922.66 202.3C918.86 201.6 915.06 199.3 915.06 194.9C915.06 189.4 920.76 186.5 926.16 186.5C931.86 186.5 936.86 188.9 938.56 196.2ZM978.979 246.5C981.979 246.5 985.379 246.2 987.979 245.7V233.9C986.079 234 984.879 234.1 983.179 234.1C979.179 234.1 977.179 232.9 977.179 228.4V208H987.579V195.6H977.179V181.2H962.879V195.6H954.479V208H962.879V230.7C962.879 242.7 968.679 246.5 978.979 246.5ZM1038.8 247.5C1046 247.5 1052.2 245.1 1057.2 241.4L1061.6 246H1078.7L1065.8 232.3C1069.6 226.7 1072.1 220.3 1073 214.3L1059 212.7C1058.4 215.8 1057.5 219 1056.2 222L1044.8 209.9C1053.8 205.4 1059.3 200.7 1059.3 191.5C1059.3 181.8 1050.5 174.1 1038.7 174.1C1026.1 174.1 1018 182.5 1018 191.8C1018 198.5 1021 203.3 1024.9 207.5C1017.1 211.6 1012.6 218 1012.6 226.5C1012.6 238.9 1022.6 247.5 1038.8 247.5ZM1027.1 225.6C1027.1 221.5 1029.2 218.4 1033 216L1048.4 232.1C1045.7 234.1 1042.6 235.2 1038.8 235.2C1031.1 235.2 1027.1 231 1027.1 225.6ZM1031.8 192.6C1031.8 188.4 1035.1 185.7 1038.5 185.7C1042.7 185.7 1045.6 188.4 1045.6 192.3C1045.6 195.8 1043.2 198.4 1038.6 200.7L1036.9 201.5L1034.9 199.4C1032.9 197.2 1031.8 195.1 1031.8 192.6ZM1113.28 223.8V217.6L1098.58 218.3V223.1C1098.58 238.8 1109.08 247.6 1124.18 247.6C1139.48 247.6 1149.28 239.5 1149.28 223.5V175.6H1134.18V223.4C1134.18 231.1 1130.48 234.7 1124.18 234.7C1117.78 234.7 1113.28 230.7 1113.28 223.8ZM1201.62 213.2C1201.62 201.6 1192.52 194.4 1179.82 194.4C1167.62 194.4 1158.02 201.3 1156.42 212.1L1169.92 213.2C1170.32 207.8 1174.52 205.3 1179.52 205.3C1184.82 205.3 1187.72 208.2 1187.72 211.4C1187.72 213.5 1186.52 214.7 1183.52 215.2L1171.52 217.2C1162.22 218.7 1156.02 224 1156.02 232.2C1156.02 241 1163.52 247.4 1174.22 247.4C1180.82 247.4 1185.52 244 1188.32 239.2H1188.52V246H1201.62V213.2ZM1170.22 231.7C1170.22 228.3 1172.82 226.8 1176.62 226L1184.02 224.4C1185.62 224.1 1186.72 223.8 1187.52 223H1187.72V225.8C1187.72 232.6 1182.92 236.8 1176.72 236.8C1172.72 236.8 1170.22 234.9 1170.22 231.7ZM1219.06 195.6L1231.26 227.6H1231.46L1243.66 195.6H1258.06L1230.96 265.5H1215.26L1224.16 243.6L1203.66 195.6H1219.06ZM1321.52 196.2L1335.52 193.5C1332.32 179.9 1322.82 174 1308.82 174C1293.22 174 1282.12 183.4 1282.12 195.4C1282.12 206.1 1289.32 212.9 1300.72 215.1L1312.32 217.3C1317.32 218.2 1320.52 221 1320.52 225.8C1320.52 230.8 1316.12 234.6 1309.22 234.6C1302.42 234.6 1297.02 231.8 1294.42 222.8L1280.32 225.6C1283.52 239.2 1293.72 247.2 1309.32 247.2C1325.92 247.2 1336.32 238.4 1336.32 225.6C1336.32 213.9 1329.02 206.7 1317.22 204.5L1305.62 202.3C1301.82 201.6 1298.02 199.3 1298.02 194.9C1298.02 189.4 1303.72 186.5 1309.12 186.5C1314.82 186.5 1319.82 188.9 1321.52 196.2ZM1361.94 246.5C1364.94 246.5 1368.34 246.2 1370.94 245.7V233.9C1369.04 234 1367.84 234.1 1366.14 234.1C1362.14 234.1 1360.14 232.9 1360.14 228.4V208H1370.54V195.6H1360.14V181.2H1345.84V195.6H1337.44V208H1345.84V230.7C1345.84 242.7 1351.64 246.5 1361.94 246.5Z" fill="#EBEBEB"/>
<path d="M326.72 513H305.44V456.68H326.72C344.24 456.68 354.96 467.8 354.96 484.84C354.96 501.88 344.24 513 326.72 513ZM317.2 502.68H326.08C336.72 502.68 342.88 495.4 342.88 484.84C342.88 474.28 336.72 467 326.08 467H317.2V502.68ZM380.613 514.12C392.933 514.12 402.213 505.32 402.213 492.84C402.213 480.36 392.933 471.56 380.613 471.56C368.293 471.56 359.012 480.36 359.012 492.84C359.012 505.32 368.293 514.12 380.613 514.12ZM370.533 492.84C370.533 486.28 374.373 481.48 380.613 481.48C386.853 481.48 390.693 486.28 390.693 492.84C390.693 499.4 386.853 504.2 380.613 504.2C374.373 504.2 370.533 499.4 370.533 492.84ZM403.571 472.68H415.011L421.891 499.56H422.051L428.611 472.68H440.371L446.931 499.56H447.091L453.971 472.68H465.411L453.491 513H441.331L434.531 485.8H434.371L427.571 513H415.491L403.571 472.68ZM469.779 513H481.299V489.56C481.299 484.76 484.819 481.16 489.299 481.16C493.779 481.16 496.659 484.44 496.659 489.24V513H508.179V487.16C508.179 477.08 501.779 471.56 493.139 471.56C487.699 471.56 483.219 474.52 481.059 478.36H480.899C481.059 477.08 481.299 474.44 481.299 472.84V472.68H469.779V513ZM531.236 513.4C533.636 513.4 536.356 513.16 538.436 512.76V503.32C536.916 503.4 535.956 503.48 534.596 503.48C531.396 503.48 529.796 502.52 529.796 498.92V482.6H538.116V472.68H529.796V461.16H518.356V472.68H511.636V482.6H518.356V500.76C518.356 510.36 522.996 513.4 531.236 513.4ZM563.469 514.12C575.789 514.12 585.069 505.32 585.069 492.84C585.069 480.36 575.789 471.56 563.469 471.56C551.149 471.56 541.869 480.36 541.869 492.84C541.869 505.32 551.149 514.12 563.469 514.12ZM553.389 492.84C553.389 486.28 557.229 481.48 563.469 481.48C569.709 481.48 573.549 486.28 573.549 492.84C573.549 499.4 569.709 504.2 563.469 504.2C557.229 504.2 553.389 499.4 553.389 492.84ZM586.427 472.68H597.867L604.747 499.56H604.907L611.467 472.68H623.227L629.787 499.56H629.947L636.827 472.68H648.267L636.347 513H624.187L617.387 485.8H617.227L610.427 513H598.347L586.427 472.68ZM652.635 513H664.155V489.56C664.155 484.76 667.675 481.16 672.155 481.16C676.635 481.16 679.515 484.44 679.515 489.24V513H691.035V487.16C691.035 477.08 684.635 471.56 675.995 471.56C670.555 471.56 666.075 474.52 663.915 478.36H663.755C663.915 477.08 664.155 474.44 664.155 472.84V472.68H652.635V513ZM735.864 514.2C741.624 514.2 746.584 512.28 750.584 509.32L754.104 513H767.784L757.464 502.04C760.504 497.56 762.504 492.44 763.224 487.64L752.024 486.36C751.544 488.84 750.824 491.4 749.784 493.8L740.664 484.12C747.864 480.52 752.264 476.76 752.264 469.4C752.264 461.64 745.224 455.48 735.784 455.48C725.704 455.48 719.224 462.2 719.224 469.64C719.224 475 721.624 478.84 724.744 482.2C718.504 485.48 714.904 490.6 714.904 497.4C714.904 507.32 722.904 514.2 735.864 514.2ZM726.504 496.68C726.504 493.4 728.184 490.92 731.224 489L743.544 501.88C741.384 503.48 738.904 504.36 735.864 504.36C729.704 504.36 726.504 501 726.504 496.68ZM730.264 470.28C730.264 466.92 732.904 464.76 735.624 464.76C738.984 464.76 741.304 466.92 741.304 470.04C741.304 472.84 739.384 474.92 735.704 476.76L734.344 477.4L732.744 475.72C731.144 473.96 730.264 472.28 730.264 470.28ZM305.44 593H331.12C341.92 593 349.6 587.56 349.6 577.64C349.6 571.64 346.24 566.28 339.52 564.2C344.64 561.8 347.76 557.8 347.76 551.96C347.76 542.36 340.4 536.68 329.92 536.68H305.44V593ZM317.2 583.24V568.76H328.72C333.68 568.76 337.52 571 337.52 576.04C337.52 581 333.68 583.24 328.72 583.24H317.2ZM317.2 559.64V546.44H327.28C332 546.44 335.6 548.36 335.6 553C335.6 557.72 332 559.64 327.28 559.64H317.2ZM355.772 593H367.293V573.16C367.293 566.28 371.212 563.24 377.532 563.24C379.053 563.24 379.853 563.4 381.372 563.64V552.68C380.013 552.44 378.972 552.36 377.692 552.36C373.213 552.36 368.972 554.28 366.412 559.4H366.253C366.412 557.8 366.652 555.24 366.652 552.92V552.68H355.772V593ZM404.803 594.12C417.123 594.12 426.403 585.32 426.403 572.84C426.403 560.36 417.123 551.56 404.803 551.56C392.483 551.56 383.203 560.36 383.203 572.84C383.203 585.32 392.483 594.12 404.803 594.12ZM394.723 572.84C394.723 566.28 398.563 561.48 404.803 561.48C411.043 561.48 414.883 566.28 414.883 572.84C414.883 579.4 411.043 584.2 404.803 584.2C398.563 584.2 394.723 579.4 394.723 572.84ZM452.197 594.12C464.517 594.12 473.797 585.32 473.797 572.84C473.797 560.36 464.517 551.56 452.197 551.56C439.877 551.56 430.597 560.36 430.597 572.84C430.597 585.32 439.877 594.12 452.197 594.12ZM442.117 572.84C442.117 566.28 445.957 561.48 452.197 561.48C458.437 561.48 462.277 566.28 462.277 572.84C462.277 579.4 458.437 584.2 452.197 584.2C445.957 584.2 442.117 579.4 442.117 572.84ZM506.646 593H519.366L502.646 569.4L518.726 552.68H505.126L491.046 567.88V536.68H479.526V593H491.046V581L495.206 576.52L506.646 593ZM523.629 536.68V593H535.149V536.68H523.629ZM551.553 552.68L561.313 578.28H561.473L571.233 552.68H582.753L561.073 608.6H548.513L555.633 591.08L539.233 552.68H551.553ZM586.854 593H598.374V569.56C598.374 564.76 601.894 561.16 606.374 561.16C610.854 561.16 613.734 564.44 613.734 569.24V593H625.254V567.16C625.254 557.08 618.854 551.56 610.214 551.56C604.774 551.56 600.294 554.52 598.134 558.36H597.974C598.134 557.08 598.374 554.44 598.374 552.84V552.68H586.854V593Z" fill="#EBEBEB"/>
<path d="M125.44 797H151.12C161.92 797 169.6 791.56 169.6 781.64C169.6 775.64 166.24 770.28 159.52 768.2C164.64 765.8 167.76 761.8 167.76 755.96C167.76 746.36 160.4 740.68 149.92 740.68H125.44V797ZM137.2 787.24V772.76H148.72C153.68 772.76 157.52 775 157.52 780.04C157.52 785 153.68 787.24 148.72 787.24H137.2ZM137.2 763.64V750.44H147.28C152 750.44 155.6 752.36 155.6 757C155.6 761.72 152 763.64 147.28 763.64H137.2ZM175.772 797H187.293V777.16C187.293 770.28 191.212 767.24 197.532 767.24C199.053 767.24 199.853 767.4 201.372 767.64V756.68C200.013 756.44 198.972 756.36 197.692 756.36C193.213 756.36 188.972 758.28 186.412 763.4H186.253C186.412 761.8 186.652 759.24 186.652 756.92V756.68H175.772V797ZM224.803 798.12C237.123 798.12 246.403 789.32 246.403 776.84C246.403 764.36 237.123 755.56 224.803 755.56C212.483 755.56 203.203 764.36 203.203 776.84C203.203 789.32 212.483 798.12 224.803 798.12ZM214.723 776.84C214.723 770.28 218.563 765.48 224.803 765.48C231.043 765.48 234.883 770.28 234.883 776.84C234.883 783.4 231.043 788.2 224.803 788.2C218.563 788.2 214.723 783.4 214.723 776.84ZM272.197 798.12C284.517 798.12 293.797 789.32 293.797 776.84C293.797 764.36 284.517 755.56 272.197 755.56C259.877 755.56 250.597 764.36 250.597 776.84C250.597 789.32 259.877 798.12 272.197 798.12ZM262.117 776.84C262.117 770.28 265.957 765.48 272.197 765.48C278.437 765.48 282.277 770.28 282.277 776.84C282.277 783.4 278.437 788.2 272.197 788.2C265.957 788.2 262.117 783.4 262.117 776.84ZM326.646 797H339.366L322.646 773.4L338.726 756.68H325.126L311.046 771.88V740.68H299.526V797H311.046V785L315.206 780.52L326.646 797ZM343.629 740.68V797H355.149V740.68H343.629ZM371.553 756.68L381.313 782.28H381.473L391.233 756.68H402.753L381.073 812.6H368.513L375.633 795.08L359.233 756.68H371.553ZM406.854 797H418.374V773.56C418.374 768.76 421.894 765.16 426.374 765.16C430.854 765.16 433.734 768.44 433.734 773.24V797H445.254V771.16C445.254 761.08 438.854 755.56 430.214 755.56C424.774 755.56 420.294 758.52 418.134 762.36H417.974C418.134 761.08 418.374 758.44 418.374 756.84V756.68H406.854V797ZM471.203 797H496.883C507.683 797 515.363 791.56 515.363 781.64C515.363 775.64 512.003 770.28 505.283 768.2C510.403 765.8 513.523 761.8 513.523 755.96C513.523 746.36 506.163 740.68 495.683 740.68H471.203V797ZM482.963 787.24V772.76H494.483C499.443 772.76 503.283 775 503.283 780.04C503.283 785 499.443 787.24 494.483 787.24H482.963ZM482.963 763.64V750.44H493.043C497.763 750.44 501.363 752.36 501.363 757C501.363 761.72 497.763 763.64 493.043 763.64H482.963ZM521.535 797H533.055V777.16C533.055 770.28 536.975 767.24 543.295 767.24C544.815 767.24 545.615 767.4 547.135 767.64V756.68C545.775 756.44 544.735 756.36 543.455 756.36C538.975 756.36 534.735 758.28 532.175 763.4H532.015C532.175 761.8 532.415 759.24 532.415 756.92V756.68H521.535V797ZM551.351 756.68V797H562.871V756.68H551.351ZM551.351 751.56H562.871V740.68H551.351V751.56ZM587.674 798.12C594.554 798.12 598.394 795 600.234 791.88H600.394C600.154 793.56 599.994 795.48 599.994 796.84V797H610.874V740.68H599.354V756.92C599.354 758.28 599.514 760.2 599.754 761.88H599.594C597.834 758.76 594.234 755.64 587.674 755.64C576.474 755.64 568.394 764.36 568.394 776.84C568.394 789.32 576.314 798.12 587.674 798.12ZM580.154 777.08C580.154 770.52 583.674 765.56 589.914 765.56C596.154 765.56 599.674 770.52 599.674 777.08C599.674 783.64 596.154 788.2 589.914 788.2C583.674 788.2 580.154 783.64 580.154 777.08ZM637.213 813.8C649.213 813.8 658.013 808.12 658.013 795.96V756.68H646.653V758.04C646.653 759.4 646.813 760.36 647.053 761.8H646.893C644.973 758.36 641.853 755.56 635.453 755.56C625.213 755.56 616.413 763.8 616.413 776.12C616.413 788.6 625.213 796.36 635.453 796.36C641.853 796.36 645.053 793.64 646.813 790.92H646.973V796.68C646.973 802.68 642.573 804.84 637.533 804.84C632.973 804.84 629.453 802.92 627.613 798.44L617.533 801C619.933 807.72 626.413 813.8 637.213 813.8ZM627.933 776.12C627.933 769.96 631.773 765.16 637.693 765.16C643.613 765.16 646.973 769.96 646.973 776.12C646.973 782.36 643.613 787.08 637.693 787.08C631.773 787.08 627.933 782.36 627.933 776.12ZM684.774 798.04C696.054 798.04 701.814 791.48 703.414 785.8L692.774 784.52C691.574 787 689.334 788.84 684.934 788.84C679.894 788.84 675.654 786.04 675.014 780.12H703.574C703.654 779.4 703.734 778.36 703.734 776.92C703.734 763.16 695.574 755.56 683.814 755.56C671.574 755.56 663.334 764.68 663.334 777.08C663.334 789.56 672.454 798.04 684.774 798.04ZM675.334 771.8C675.974 767.8 679.334 764.76 683.974 764.76C688.694 764.76 691.894 767.8 692.214 771.8H675.334ZM726.675 764.12V773.56H764.195V764.12H726.675ZM816.968 798.2C831.688 798.2 840.408 789.72 842.168 778.76L830.488 777.4C828.968 783.96 824.408 787.88 816.968 787.88C806.648 787.88 799.848 780.04 799.848 768.84C799.848 757.64 806.408 749.8 816.568 749.8C823.928 749.8 828.728 753.88 830.248 760.28L841.928 758.92C840.168 747.96 831.208 739.48 816.568 739.48C799.688 739.48 787.768 751.32 787.768 768.84C787.768 786.36 799.928 798.2 816.968 798.2ZM847.688 756.68V797H859.208V756.68H847.688ZM847.688 751.56H859.208V740.68H847.688V751.56ZM883.052 797.4C885.452 797.4 888.172 797.16 890.252 796.76V787.32C888.732 787.4 887.772 787.48 886.412 787.48C883.212 787.48 881.612 786.52 881.612 782.92V766.6H889.932V756.68H881.612V745.16H870.172V756.68H863.452V766.6H870.172V784.76C870.172 794.36 874.812 797.4 883.052 797.4ZM905.662 756.68L915.422 782.28H915.582L925.342 756.68H936.862L915.182 812.6H902.622L909.742 795.08L893.342 756.68H905.662ZM959.629 740.68V797H971.949V773.8H994.989V797H1007.31V740.68H994.989V763.24H971.949V740.68H959.629ZM1050.08 770.76C1050.08 761.48 1042.8 755.72 1032.64 755.72C1022.88 755.72 1015.2 761.24 1013.92 769.88L1024.72 770.76C1025.04 766.44 1028.4 764.44 1032.4 764.44C1036.64 764.44 1038.96 766.76 1038.96 769.32C1038.96 771 1038 771.96 1035.6 772.36L1026 773.96C1018.56 775.16 1013.6 779.4 1013.6 785.96C1013.6 793 1019.6 798.12 1028.16 798.12C1033.44 798.12 1037.2 795.4 1039.44 791.56H1039.6V797H1050.08V770.76ZM1024.96 785.56C1024.96 782.84 1027.04 781.64 1030.08 781L1036 779.72C1037.28 779.48 1038.16 779.24 1038.8 778.6H1038.96V780.84C1038.96 786.28 1035.12 789.64 1030.16 789.64C1026.96 789.64 1024.96 788.12 1024.96 785.56ZM1056.89 740.68V797H1068.41V740.68H1056.89ZM1075.54 740.68V797H1087.06V740.68H1075.54ZM155.52 837.16L166.72 835C164.16 824.12 156.56 819.4 145.36 819.4C132.88 819.4 124 826.92 124 836.52C124 845.08 129.76 850.52 138.88 852.28L148.16 854.04C152.16 854.76 154.72 857 154.72 860.84C154.72 864.84 151.2 867.88 145.68 867.88C140.24 867.88 135.92 865.64 133.84 858.44L122.56 860.68C125.12 871.56 133.28 877.96 145.76 877.96C159.04 877.96 167.36 870.92 167.36 860.68C167.36 851.32 161.52 845.56 152.08 843.8L142.8 842.04C139.76 841.48 136.72 839.64 136.72 836.12C136.72 831.72 141.28 829.4 145.6 829.4C150.16 829.4 154.16 831.32 155.52 837.16ZM187.442 878.12C193.202 878.12 197.682 875.16 199.842 871.32H200.002C199.842 872.6 199.602 874.76 199.602 876.36V877H211.122V836.68H199.602V859.88C199.602 864.68 196.402 868.6 191.602 868.6C186.802 868.6 184.242 865.32 184.242 860.52V836.68H172.722V863.88C172.722 872.52 178.802 878.12 187.442 878.12ZM241.288 878.12C252.088 878.12 260.568 869.32 260.568 856.84C260.568 844.36 251.928 835.64 241.288 835.64C234.728 835.64 231.128 838.76 229.368 841.88H229.208C229.448 840.2 229.608 838.28 229.608 836.92V820.68H218.088V877H228.968V876.36C228.968 874.76 228.808 873.16 228.648 871.88H228.808C230.568 875 234.408 878.12 241.288 878.12ZM229.288 857.08C229.288 850.52 232.808 845.56 239.048 845.56C245.288 845.56 248.808 850.52 248.808 857.08C248.808 863.64 245.288 868.2 239.048 868.2C232.808 868.2 229.288 863.64 229.288 857.08ZM262.137 836.68H273.577L280.457 863.56H280.617L287.177 836.68H298.937L305.497 863.56H305.657L312.537 836.68H323.977L312.057 877H299.897L293.097 849.8H292.937L286.137 877H274.057L262.137 836.68ZM361.814 850.76C361.814 841.48 354.534 835.72 344.374 835.72C334.614 835.72 326.934 841.24 325.654 849.88L336.454 850.76C336.774 846.44 340.134 844.44 344.134 844.44C348.374 844.44 350.694 846.76 350.694 849.32C350.694 851 349.734 851.96 347.334 852.36L337.734 853.96C330.294 855.16 325.334 859.4 325.334 865.96C325.334 873 331.334 878.12 339.894 878.12C345.174 878.12 348.934 875.4 351.174 871.56H351.334V877H361.814V850.76ZM336.694 865.56C336.694 862.84 338.774 861.64 341.814 861L347.734 859.72C349.014 859.48 349.894 859.24 350.534 858.6H350.694V860.84C350.694 866.28 346.854 869.64 341.894 869.64C338.694 869.64 336.694 868.12 336.694 865.56ZM376.971 836.68L386.731 862.28H386.891L396.651 836.68H408.171L386.491 892.6H373.931L381.051 875.08L364.651 836.68H376.971ZM461.339 837.16L472.539 835C469.979 824.12 462.379 819.4 451.179 819.4C438.699 819.4 429.819 826.92 429.819 836.52C429.819 845.08 435.579 850.52 444.699 852.28L453.979 854.04C457.979 854.76 460.539 857 460.539 860.84C460.539 864.84 457.019 867.88 451.499 867.88C446.059 867.88 441.739 865.64 439.659 858.44L428.379 860.68C430.939 871.56 439.099 877.96 451.579 877.96C464.859 877.96 473.179 870.92 473.179 860.68C473.179 851.32 467.339 845.56 457.899 843.8L448.619 842.04C445.579 841.48 442.539 839.64 442.539 836.12C442.539 831.72 447.099 829.4 451.419 829.4C455.979 829.4 459.979 831.32 461.339 837.16ZM494.874 877.4C497.274 877.4 499.994 877.16 502.074 876.76V867.32C500.554 867.4 499.594 867.48 498.234 867.48C495.034 867.48 493.434 866.52 493.434 862.92V846.6H501.754V836.68H493.434V825.16H481.994V836.68H475.274V846.6H481.994V864.76C481.994 874.36 486.634 877.4 494.874 877.4ZM541.986 850.76C541.986 841.48 534.706 835.72 524.546 835.72C514.786 835.72 507.106 841.24 505.826 849.88L516.626 850.76C516.946 846.44 520.306 844.44 524.306 844.44C528.546 844.44 530.866 846.76 530.866 849.32C530.866 851 529.906 851.96 527.506 852.36L517.906 853.96C510.466 855.16 505.506 859.4 505.506 865.96C505.506 873 511.506 878.12 520.066 878.12C525.346 878.12 529.106 875.4 531.346 871.56H531.506V877H541.986V850.76ZM516.866 865.56C516.866 862.84 518.946 861.64 521.986 861L527.906 859.72C529.186 859.48 530.066 859.24 530.706 858.6H530.866V860.84C530.866 866.28 527.026 869.64 522.066 869.64C518.866 869.64 516.866 868.12 516.866 865.56ZM564.896 877.4C567.296 877.4 570.016 877.16 572.096 876.76V867.32C570.576 867.4 569.616 867.48 568.256 867.48C565.056 867.48 563.456 866.52 563.456 862.92V846.6H571.776V836.68H563.456V825.16H552.016V836.68H545.296V846.6H552.016V864.76C552.016 874.36 556.656 877.4 564.896 877.4ZM577.288 836.68V877H588.808V836.68H577.288ZM577.288 831.56H588.808V820.68H577.288V831.56ZM615.772 878.12C628.092 878.12 637.372 869.32 637.372 856.84C637.372 844.36 628.092 835.56 615.772 835.56C603.452 835.56 594.172 844.36 594.172 856.84C594.172 869.32 603.452 878.12 615.772 878.12ZM605.692 856.84C605.692 850.28 609.532 845.48 615.772 845.48C622.012 845.48 625.852 850.28 625.852 856.84C625.852 863.4 622.012 868.2 615.772 868.2C609.532 868.2 605.692 863.4 605.692 856.84ZM642.701 877H654.221V853.56C654.221 848.76 657.741 845.16 662.221 845.16C666.701 845.16 669.581 848.44 669.581 853.24V877H681.101V851.16C681.101 841.08 674.701 835.56 666.061 835.56C660.621 835.56 656.141 838.52 653.981 842.36H653.821C653.981 841.08 654.221 838.44 654.221 836.84V836.68H642.701V877Z" fill="#EBEBEB"/>
</svg>
